<svg preserveAspectRatio="none" width="100%" height="100%" overflow="visible" style="display: block;" viewBox="0 0 104 122.894" fill="none" xmlns="http://www.w3.org/2000/svg">
<g id="Bin Icon">
<path id="Vector" d="M67.3034 2.00488C69.4288 2.03496 71.2146 2.21496 72.6579 2.70215C74.0449 3.17041 75.0758 3.90707 75.8014 5.08887C76.556 6.31792 77.0994 8.22267 77.1003 11.2275L77.0983 11.292C77.0972 11.3392 77.0956 11.4021 77.0934 11.4795C77.089 11.634 77.0825 11.8385 77.0749 12.0771C77.0596 12.5546 77.0398 13.1592 77.0202 13.7578C77.0132 13.9699 77.0072 14.1814 77.0006 14.3857H27.5456C27.5426 13.7759 27.5292 13.1775 27.5172 12.6055C27.4908 11.3391 27.4738 10.186 27.5661 9.08984C27.7345 7.08899 28.2501 5.46837 29.6266 4.13184L29.9137 3.86816C31.9917 2.0595 34.3568 2.2261 38.1169 2.13867C45.6022 1.96455 52.8744 2.18229 60.4792 2.11621C62.9747 2.09445 65.1154 1.97393 67.3034 2.00488Z" stroke="var(--stroke-0, #EAD7FF)" stroke-width="4"/>
<path id="Vector_2" d="M7.65002 27.3379C6.1838 27.5422 1.61565 27.6279 0.741431 26.7733C-0.400171 25.6571 0.120158 20.3916 0.107488 18.7864C0.0637984 13.4237 -0.93669 12.4484 5.2602 12.5346C6.757 12.5551 8.25425 12.5477 9.7506 12.5477L28.0905 12.5446H76.0815L98.3888 12.5424C100.437 12.5424 103.385 11.9327 103.797 14.644C104.056 16.3458 104.041 23.2393 103.898 25.1847C103.699 27.8724 99.8611 27.3694 97.7164 27.3362C97.512 29.164 97.4595 31.0128 97.2026 32.8323C96.2738 32.7212 95.2759 32.8183 94.3375 32.8226L8.02618 32.8323C7.96458 30.9843 7.77104 29.1802 7.65002 27.3379Z" fill="var(--fill-0, #EAD7FF)"/>
<path id="Vector_3" d="M7.65001 27.3375C8.2918 27.1626 11.8337 27.3375 12.7525 27.3375L89.9515 27.341C92.5331 27.341 95.1392 27.2535 97.7182 27.338C97.5137 29.1657 97.4613 31.0145 97.2044 32.834C96.2755 32.7229 95.2777 32.82 94.3392 32.8244L8.02792 32.834C7.96457 30.9839 7.77103 29.1797 7.65001 27.3375Z" fill="var(--fill-0, #A88EC3)"/>
<path id="Rectangle 3467743" d="M8.17277 32.772H97.1647L89.7504 110.228C89.0629 117.41 83.0293 122.894 75.8141 122.894H29.1334C21.8913 122.894 15.8446 117.371 15.1906 110.158L8.17277 32.772Z" fill="var(--fill-0, #EAD7FF)"/>
<path id="Vector_4" d="M27.4164 45.1004C28.1054 44.8008 29.2243 44.9928 29.943 45.1004C32.6954 46.3731 31.9872 57.0433 32.1528 60.0883L34.0078 94.12C34.1149 96.1569 34.8729 104.911 34.4915 106.108C34.1629 107.141 33.3097 107.79 32.3987 108.282C26.204 109.757 27.6314 99.8225 27.4313 95.9098L25.2437 53.5999C25.0751 50.652 23.4852 45.2464 27.4164 45.1004Z" fill="var(--fill-0, white)"/>
<path id="Vector_5" d="M78.92 45.1004C78.231 44.8008 77.1121 44.9928 76.3934 45.1004C73.641 46.3731 74.3492 57.0433 74.1836 60.0883L72.3285 94.12C72.2215 96.1569 71.4635 104.911 71.8449 106.108C72.1734 107.141 73.0267 107.79 73.9376 108.282C80.1323 109.757 78.705 99.8225 78.9051 95.9098L81.0926 53.5999C81.2613 50.652 82.8511 45.2464 78.92 45.1004Z" fill="var(--fill-0, white)"/>
<path id="Vector_6" d="M50.6609 44.6744C55.4737 44.4618 57.3383 44.0323 57.583 49.7453C57.7949 54.6876 57.5992 59.6934 57.6202 64.6441L57.9111 100.713C57.9295 103.79 58.5726 106.562 55.4073 108.28C53.0018 109.042 50.5731 108.469 49.5411 105.968C48.7442 104.038 49.1606 92.2595 49.0894 89.1873L48.711 71.4382C48.6477 68.9749 48.5446 66.6892 48.5262 64.2115L48.4751 53.9695C48.4729 50.8554 47.2776 46.0421 50.6609 44.6744Z" fill="var(--fill-0, white)"/>
</g>
</svg>
