<svg width="50" height="50" viewBox="0 0 50 50" fill="none" xmlns="http://www.w3.org/2000/svg">
<path fill-rule="evenodd" clip-rule="evenodd" d="M31.1972 11.4479C29.2448 11.926 27.7793 13.6871 27.7793 15.7739C27.7793 18.2054 29.7687 20.1948 32.2002 20.1948H44.0167C46.4482 20.1948 48.4376 18.2054 48.4376 15.7739C48.4376 13.3424 46.4482 11.353 44.0167 11.353H41.7317C41.6921 8.47783 39.3494 6.15918 36.4647 6.15918C33.5554 6.15918 31.1969 8.51768 31.1972 11.4479Z" fill="#F4F6F8"/>
<path fill-rule="evenodd" clip-rule="evenodd" d="M24.317 5.97754C24.317 5.6 24.623 5.29395 25.0006 5.29395C25.3781 5.29395 25.6842 5.6 25.6842 5.97754V10.8758C25.6842 11.2533 25.3781 11.5594 25.0006 11.5594C24.623 11.5594 24.317 11.2533 24.317 10.8758V5.97754ZM5.97852 25.6832C5.60098 25.6832 5.29492 25.3771 5.29492 24.9996C5.29492 24.6221 5.60098 24.316 5.97852 24.316H10.8767C11.2542 24.316 11.5603 24.6221 11.5603 24.9996C11.5603 25.3771 11.2542 25.6832 10.8767 25.6832H5.97852ZM12.0333 38.9336C11.7664 39.2005 11.3336 39.2005 11.0666 38.9336C10.7997 38.6667 10.7997 38.2339 11.0666 37.9669L14.5302 34.5033C14.7971 34.2364 15.23 34.2364 15.4969 34.5033C15.7638 34.7702 15.7638 35.203 15.4969 35.47L12.0333 38.9336ZM25.6842 44.0217C25.6842 44.3992 25.3781 44.7053 25.0006 44.7053C24.623 44.7053 24.317 44.3992 24.317 44.0217V39.1235C24.317 38.746 24.623 38.4399 25.0006 38.4399C25.3781 38.4399 25.6842 38.746 25.6842 39.1235V44.0217ZM38.9346 37.9669C39.2015 38.2338 39.2015 38.6666 38.9346 38.9336C38.6677 39.2005 38.2349 39.2005 37.9679 38.9336L34.5043 35.47C34.2374 35.2031 34.2374 34.7703 34.5043 34.5033C34.7712 34.2364 35.204 34.2364 35.471 34.5033L38.9346 37.9669ZM44.0227 24.316C44.4002 24.316 44.7062 24.6221 44.7062 24.9996C44.7062 25.3771 44.4002 25.6832 44.0227 25.6832H39.1245C38.747 25.6832 38.4409 25.3771 38.4409 24.9996C38.4409 24.6221 38.747 24.316 39.1245 24.316H44.0227ZM37.9679 11.0656C38.2348 10.7987 38.6676 10.7987 38.9346 11.0656C39.2015 11.3325 39.2015 11.7653 38.9346 12.0323L35.471 15.4959C35.2041 15.7628 34.7713 15.7628 34.5043 15.4959C34.2374 15.229 34.2374 14.7962 34.5043 14.5292L37.9679 11.0656Z" fill="#FFC20E"/>
<path d="M25.0014 33.327C29.6005 33.327 33.3289 29.5986 33.3289 24.9994C33.3289 20.4002 29.6005 16.6719 25.0014 16.6719C20.4022 16.6719 16.6738 20.4002 16.6738 24.9994C16.6738 29.5986 20.4022 33.327 25.0014 33.327Z" fill="#FFC20E"/>
<path fill-rule="evenodd" clip-rule="evenodd" d="M5.44014 12.467C3.2252 13.0094 1.5625 15.0074 1.5625 17.3751C1.5625 20.1337 3.81953 22.3907 6.57812 22.3907H19.9844C22.743 22.3907 25 20.1337 25 17.3751C25 14.6165 22.743 12.3595 19.9844 12.3595H17.392C17.347 9.09746 14.6892 6.4668 11.4165 6.4668C8.11572 6.4668 5.43984 9.14268 5.44014 12.467Z" fill="#F4F6F8"/>
</svg>
