<svg width="22" height="22" viewBox="0 0 22 22" fill="none" xmlns="http://www.w3.org/2000/svg">
<path d="M11 0C4.92523 0 0 4.92438 0 11C0 17.0748 4.92438 22 11 22C17.0756 22 22 17.0756 22 11C21.9934 4.9275 17.0722 0.0065186 11 0ZM11 5.10151C14.2582 5.10151 16.8985 7.74195 16.8985 11C16.8985 14.2581 14.2581 16.8985 11 16.8985C7.74195 16.8985 5.10151 14.2581 5.10151 11C5.10484 7.7441 7.74416 5.10463 11 5.10151ZM11 20.2998C8.82786 20.302 6.72323 19.5392 5.05588 18.1454L6.26373 16.9375C9.54513 19.5536 14.3244 19.0133 16.9406 15.733C19.5567 12.4516 19.0164 7.67231 15.7361 5.05608C14.6179 4.16488 13.2717 3.60688 11.8502 3.44746V1.73811C16.965 2.20864 20.7291 6.73675 20.2586 11.8505C19.818 16.6365 15.8047 20.2977 10.9988 20.2988L11 20.2998Z" fill="#B8B8B8"/>
</svg>
