<svg width="51" height="50" viewBox="0 0 51 50" fill="none" xmlns="http://www.w3.org/2000/svg">
<g clip-path="url(#clip0_23_658)">
<path d="M48.6093 50C48.4173 49.9997 48.2319 49.9316 48.0871 49.808C47.9423 49.6844 47.8479 49.5137 47.8212 49.3273C47.6109 48.1539 46.9563 47.1016 45.9884 46.3812C44.9747 45.4289 43.828 44.3508 43.828 42.1875C43.8103 41.0093 44.0837 39.8443 44.6249 38.7922C45.1962 37.6645 45.4702 36.4145 45.4218 35.1562C45.4092 34.5463 45.272 33.945 45.0182 33.388C44.7645 32.831 44.3993 32.3295 43.9444 31.9133C42.893 30.917 42.2795 29.5579 42.2343 28.125C42.1892 26.8605 42.4794 25.6061 43.0766 24.4844C43.6276 23.4389 43.8868 22.2691 43.828 21.0937C43.828 9.41172 36.4625 1.5625 25.4999 1.5625C14.5373 1.5625 7.17179 9.41172 7.17179 21.0937C7.113 22.2691 7.37224 23.4389 7.92324 24.4844C8.52039 25.6061 8.8106 26.8605 8.76554 28.125C8.72033 29.5579 8.10682 30.917 7.05545 31.9133C6.60051 32.3295 6.23536 32.831 5.98159 33.388C5.72782 33.945 5.5906 34.5463 5.57804 35.1562C5.52964 36.4145 5.80361 37.6645 6.37492 38.7922C6.9161 39.8443 7.18951 41.0093 7.17179 42.1875C7.17179 44.3508 6.02509 45.4289 5.01306 46.3812C4.04511 47.1016 3.39047 48.1539 3.18024 49.3273C3.16801 49.4308 3.13478 49.5309 3.08252 49.6216C3.03026 49.7123 2.96003 49.7918 2.87595 49.8555C2.79187 49.9192 2.69565 49.9658 2.59293 49.9925C2.49022 50.0192 2.3831 50.0255 2.27787 50.011C2.17265 49.9965 2.07143 49.9616 1.9802 49.9082C1.88896 49.8548 1.80953 49.784 1.7466 49.7001C1.68366 49.6161 1.63849 49.5207 1.61373 49.4194C1.58897 49.3181 1.58513 49.2129 1.60243 49.1101C1.85697 47.5878 2.68086 46.213 3.91337 45.2539C4.84173 44.375 5.57804 43.6844 5.57804 42.1875C5.59279 41.2291 5.36557 40.282 4.91663 39.4305C4.25561 38.1014 3.93556 36.6341 3.98429 35.1562C4.00292 33.5546 4.6693 32.0257 5.83702 30.9055C6.5829 30.0391 7.17179 29.3555 7.17179 28.125C7.21423 27.0912 6.97609 26.0649 6.4817 25.1508C5.82962 23.8971 5.51838 22.4998 5.57804 21.0937C5.57804 8.47969 13.5803 0.00390625 25.4911 0H25.4999C37.4156 0 45.4218 8.47734 45.4218 21.0937C45.4814 22.4998 45.1702 23.8971 44.5181 25.1508C44.0237 26.0649 43.7856 27.0912 43.828 28.125C43.828 29.3555 44.4169 30.0391 45.1628 30.9055C46.3305 32.0257 46.9969 33.5546 47.0155 35.1562C47.0643 36.6341 46.7442 38.1014 46.0832 39.4305C45.6343 40.282 45.407 41.2291 45.4218 42.1875C45.4218 43.6844 46.1581 44.375 47.0904 45.2539C48.323 46.213 49.1468 47.5878 49.4014 49.1101C49.4307 49.3153 49.3757 49.5234 49.2486 49.6888C49.1214 49.8542 48.9324 49.9633 48.7232 49.9922C48.6855 49.9976 48.6474 50.0002 48.6093 50Z" fill="#A88EC3"/>
<path d="M7.18101 50.0003C7.14367 50.0004 7.10638 49.9978 7.06944 49.9925C6.96578 49.9783 6.86599 49.9442 6.77577 49.8922C6.68555 49.8402 6.60666 49.7712 6.54361 49.6893C6.48056 49.6074 6.43459 49.5141 6.40832 49.4148C6.38205 49.3155 6.376 49.2121 6.39051 49.1104C6.64487 47.5882 7.46881 46.2136 8.70144 45.255C9.63299 44.3776 10.3693 43.6847 10.3693 42.1878C10.3839 41.2295 10.157 40.2825 9.70869 39.4307C9.04611 38.1021 8.72494 36.6347 8.77316 35.1565C8.75987 34.2016 9.00485 33.2603 9.48318 32.4284C9.58716 32.2479 9.76001 32.1153 9.9637 32.0598C10.1674 32.0043 10.3852 32.0304 10.5693 32.1323C10.7534 32.2343 10.8886 32.4037 10.9453 32.6034C11.0019 32.8031 10.9753 33.0167 10.8713 33.1972C10.5272 33.7942 10.353 34.4709 10.3669 35.1565C10.3185 36.4147 10.5925 37.6648 11.1638 38.7925C11.705 39.8446 11.9784 41.0095 11.9607 42.1878C11.9607 44.3511 10.814 45.4292 9.80272 46.3815C8.83424 47.1015 8.17925 48.1539 7.96911 49.3276C7.94243 49.514 7.84801 49.6847 7.70321 49.8083C7.55842 49.9319 7.37298 50 7.18101 50.0003Z" fill="#A88EC3"/>
<path d="M11.9623 50C11.9249 50.0002 11.8876 49.9976 11.8507 49.9922C11.747 49.978 11.6472 49.9439 11.557 49.8919C11.4668 49.8399 11.3879 49.771 11.3249 49.6891C11.2618 49.6072 11.2158 49.5139 11.1896 49.4145C11.1633 49.3152 11.1572 49.2118 11.1718 49.1102C11.4261 47.5879 12.2501 46.2133 13.4827 45.2547C14.4142 44.3774 15.1506 43.6844 15.1506 42.1875C15.1506 41.9305 15.1394 41.6969 15.1179 41.4844C15.0967 41.2782 15.16 41.0723 15.2938 40.9118C15.4275 40.7514 15.6208 40.6496 15.8311 40.6289C16.0414 40.6082 16.2514 40.6702 16.4151 40.8014C16.5787 40.9325 16.6825 41.122 16.7037 41.3281C16.73 41.5899 16.7443 41.875 16.7443 42.1875C16.7443 44.3508 15.5976 45.4289 14.5864 46.3813C13.617 47.1009 12.9611 48.1533 12.7504 49.3274C12.7237 49.5137 12.6293 49.6844 12.4845 49.808C12.3397 49.9316 12.1542 49.9998 11.9623 50Z" fill="#A88EC3"/>
<path d="M23.9063 42.8676C23.8708 42.8676 23.8354 42.8652 23.8003 42.8606C10.5124 41.1223 10.3594 19.6629 10.3594 18.7504C10.359 18.551 10.4365 18.3589 10.5759 18.2137C10.7153 18.0684 10.9061 17.9809 11.1092 17.9692C11.2399 17.9614 24.2672 17.1285 27.991 10.5567C28.0672 10.4224 28.1822 10.3131 28.3214 10.2425C28.4606 10.172 28.618 10.1432 28.7739 10.1599C28.9297 10.1766 29.077 10.2379 29.1974 10.3363C29.3179 10.4347 29.406 10.5657 29.4509 10.7129C30.1733 12.8474 31.5698 14.701 33.4382 16.0056C35.3067 17.3101 37.5501 17.9978 39.8438 17.9692C40.0551 17.9692 40.2578 18.0515 40.4072 18.198C40.5567 18.3445 40.6406 18.5432 40.6406 18.7504C40.5673 22.5145 40.0322 26.2562 39.0469 29.8949C38.9873 30.0906 38.8519 30.2557 38.6697 30.3547C38.4875 30.4537 38.273 30.4789 38.0721 30.4247C37.8712 30.3706 37.7 30.2415 37.595 30.0651C37.49 29.8887 37.4597 29.679 37.5105 29.4809C38.3827 26.2209 38.8904 22.8775 39.0246 19.5098C36.7994 19.3945 34.6479 18.6888 32.8001 17.468C30.9522 16.2472 29.4773 14.5572 28.5329 12.5785C24.2983 17.9246 14.7725 19.2043 11.9723 19.4692C12.1181 23.1699 13.3692 39.9207 24.0114 41.3129C24.2104 41.3407 24.3914 41.4411 24.518 41.5941C24.6447 41.7472 24.7077 41.9415 24.6944 42.1381C24.6811 42.3347 24.5925 42.5192 24.4463 42.6544C24.3002 42.7897 24.1072 42.8659 23.9063 42.8676Z" fill="#A88EC3"/>
<path d="M16.7342 50C16.5456 50 16.3631 49.9343 16.2192 49.8148C16.0753 49.6952 15.9793 49.5295 15.9483 49.3471C15.9173 49.1646 15.9534 48.9774 16.05 48.8185C16.1466 48.6597 16.2976 48.5396 16.4761 48.4797C19.866 47.3438 19.9217 42.5687 19.9217 42.5211V41.4062C19.9217 41.199 20.0057 41.0003 20.1551 40.8538C20.3046 40.7073 20.5073 40.625 20.7186 40.625C20.93 40.625 21.1327 40.7073 21.2821 40.8538C21.4315 41.0003 21.5155 41.199 21.5155 41.4062V42.5227C21.5155 42.7641 21.4645 48.4547 16.9924 49.9578C16.9093 49.9855 16.8221 49.9997 16.7342 50Z" fill="#A88EC3"/>
<path d="M31.0785 26.5622C30.4283 26.5235 29.7997 26.3191 29.2547 25.9693C28.7096 25.6195 28.2671 25.1364 27.9707 24.5677C27.8763 24.3823 27.8608 24.1676 27.9277 23.971C27.9947 23.7744 28.1386 23.6119 28.3277 23.5193C28.5169 23.4267 28.7358 23.4115 28.9364 23.4771C29.1369 23.5428 29.3027 23.6838 29.3971 23.8693C29.5614 24.1784 29.8006 24.4432 30.0939 24.6403C30.3871 24.8375 30.7252 24.9609 31.0785 24.9997C31.432 24.96 31.7701 24.8357 32.063 24.6378C32.3559 24.4398 32.5947 24.1743 32.7584 23.8646C32.8535 23.6795 33.0197 23.5389 33.2205 23.474C33.4212 23.409 33.6401 23.4249 33.829 23.5181C34.0178 23.6113 34.1611 23.7743 34.2274 23.9711C34.2937 24.168 34.2775 24.3826 34.1824 24.5677C33.8863 25.1359 33.4444 25.6186 32.9001 25.9684C32.3559 26.3181 31.7281 26.5228 31.0785 26.5622Z" fill="#A88EC3"/>
<path d="M19.9222 26.5622C19.2727 26.5228 18.6449 26.3181 18.1006 25.9684C17.5563 25.6186 17.1144 25.1359 16.8184 24.5677C16.7239 24.3823 16.7084 24.1676 16.7754 23.971C16.8423 23.7744 16.9862 23.6119 17.1754 23.5193C17.3645 23.4267 17.5835 23.4115 17.784 23.4771C17.9846 23.5428 18.1503 23.6838 18.2448 23.8693C18.4087 24.1779 18.6473 24.4424 18.9398 24.6395C19.2322 24.8366 19.5696 24.9603 19.9222 24.9997C20.2757 24.96 20.6138 24.8357 20.9067 24.6378C21.1996 24.4398 21.4384 24.1743 21.602 23.8646C21.6971 23.6795 21.8633 23.5389 22.0641 23.474C22.2649 23.409 22.4838 23.4249 22.6726 23.5181C22.8615 23.6113 23.0048 23.7743 23.0711 23.9711C23.1373 24.168 23.1211 24.3826 23.026 24.5677C22.73 25.1359 22.2881 25.6186 21.7438 25.9684C21.1996 26.3181 20.5717 26.5228 19.9222 26.5622Z" fill="#A88EC3"/>
<path d="M33.4688 50C33.3831 49.9997 33.2981 49.986 33.2169 49.9594C30.9922 49.2211 29.0195 47.8931 27.5175 46.1227C26.0156 44.3524 25.0431 42.2088 24.7079 39.9297C24.7047 39.9012 24.7031 39.8725 24.7031 39.8438V32.8125C24.7031 32.6053 24.7871 32.4066 24.9365 32.2601C25.086 32.1136 25.2887 32.0313 25.5 32.0313C29.8478 32.0313 32.8169 28.4547 32.8464 28.418C32.9211 28.3265 33.0158 28.2527 33.1235 28.202C33.2313 28.1513 33.3492 28.125 33.4688 28.125C33.588 28.1249 33.7057 28.151 33.8133 28.2014C33.9209 28.2519 34.0155 28.3253 34.0903 28.4164C34.1198 28.4531 37.1113 32.0313 41.4375 32.0313C41.6488 32.0313 41.8515 32.1136 42.001 32.2601C42.1504 32.4066 42.2344 32.6053 42.2344 32.8125V39.8438C42.2344 39.8725 42.2328 39.9012 42.2296 39.9297C41.8944 42.2088 40.9219 44.3524 39.42 46.1227C37.918 47.8931 35.9453 49.2211 33.7206 49.9594C33.6394 49.986 33.5544 49.9997 33.4688 50ZM26.2969 39.7953C26.5978 41.7261 27.4222 43.5423 28.6838 45.054C29.9454 46.5657 31.5979 47.7175 33.4688 48.3891C39.5959 46.2375 40.5665 40.3156 40.6406 39.7914V33.5609C37.9097 33.2415 35.3757 32.0054 33.4688 30.0625C31.5618 32.0054 29.0278 33.2415 26.2969 33.5609V39.7953Z" fill="#A88EC3"/>
</g>
<defs>
<clipPath id="clip0_23_658">
<rect width="51" height="50" fill="white"/>
</clipPath>
</defs>
</svg>
