<svg width="132" height="153" viewBox="0 0 132 153" fill="none" xmlns="http://www.w3.org/2000/svg">
<path d="M63.4674 143.847C29.362 128.866 7.32098 94.3304 7.32098 55.8646V30.5755L66 7.88867L124.679 30.5755V55.8646C124.679 94.3304 102.639 128.866 68.5301 143.847L66 144.96L63.4674 143.847Z" fill="#EAD7FF"/>
<path d="M64.7337 140.929C31.7788 126.459 10.4836 93.0651 10.4836 55.8648V32.7623L66 11.3018L121.515 32.7623V55.8648C121.515 93.0651 100.221 126.455 67.265 140.929L66 141.486L64.7337 140.929Z" fill="white"/>
<path d="M118.351 34.95V55.8648C118.351 94.2804 95.6826 124.974 66 138.012C36.3126 124.974 13.6475 94.2804 13.6475 55.8648V34.95L66 14.7158L118.351 34.95Z" fill="#F6EDFF"/>
<path d="M117.351 32.244V53.1588C117.351 91.5744 94.6826 122.268 65 135.306V12L117.351 32.244Z" fill="#EAD7FF"/>
<path d="M64.7813 22.4219C64.5692 21.8648 64.25 21.3553 63.842 20.9225C63.434 20.4897 62.9452 20.1421 62.4035 19.8996C61.8618 19.6571 61.278 19.5245 60.6853 19.5093C60.0926 19.4941 59.5028 19.5966 58.9496 19.811L16.2874 36.7796V55.8647C16.2874 77.1437 23.5998 97.2651 36.9622 113.044C37.3496 113.495 37.8215 113.866 38.3511 114.133C38.8806 114.401 39.4574 114.561 40.0485 114.605C40.6396 114.648 41.2334 114.574 41.7961 114.387C42.3587 114.199 42.8791 113.902 43.3277 113.513C43.7762 113.123 44.1441 112.648 44.4102 112.115C44.6763 111.582 44.8356 111.002 44.8788 110.407C44.922 109.812 44.8484 109.215 44.6622 108.649C44.4759 108.083 44.1806 107.559 43.7933 107.108C31.8495 92.9779 25.3134 74.9486 25.3134 55.8647V43.0142L62.1878 28.2886C62.7411 28.075 63.2473 27.7538 63.6772 27.3433C64.107 26.9328 64.4523 26.441 64.6932 25.8962C64.934 25.3513 65.0658 24.764 65.0809 24.1678C65.096 23.5717 64.9942 22.9784 64.7813 22.4219Z" fill="#EAD7FF"/>
<path d="M66 74.3063C72.8622 74.3063 78.4251 68.7089 78.4251 61.804C78.4251 54.8992 72.8622 49.3018 66 49.3018C59.1378 49.3018 53.5749 54.8992 53.5749 61.804C53.5749 68.7089 59.1378 74.3063 66 74.3063Z" fill="white"/>
<path d="M59.6077 63.7891H72.3935V91.0133C72.3935 92.7191 71.7201 94.3552 70.5213 95.5614C69.3225 96.7676 67.6966 97.4453 66.0012 97.4453C64.3059 97.4453 62.6799 96.7676 61.4812 95.5614C60.2824 94.3552 59.6089 92.7191 59.6089 91.0133V63.7891H59.6077Z" fill="white"/>
</svg>
