<svg width="51" height="50" viewBox="0 0 51 50" fill="none" xmlns="http://www.w3.org/2000/svg">
<g clip-path="url(#clip0_23_625)">
<path d="M41.0797 16.7416C36.4977 16.7416 39.2469 11.3838 29.1664 11.3838C19.0859 11.3838 19.0859 3.34863 19.0859 3.34863" stroke="#A88EC3" stroke-width="2" stroke-linecap="round" stroke-linejoin="round"/>
<path d="M10.8379 25.6693C12.6707 33.7053 17.2527 39.8436 25.5004 39.8436C33.7481 39.8436 38.3301 33.7053 40.1629 25.6693C40.1629 25.6693 43.8285 23.8834 43.8285 20.3123C43.8285 16.7412 41.0793 16.7412 41.0793 16.7412" stroke="#A88EC3" stroke-width="2" stroke-linecap="round" stroke-linejoin="round"/>
<path d="M10.8375 25.6697C10.8375 25.6697 7.17188 23.8838 7.17188 20.3127C7.17188 16.7416 9.92109 16.7416 9.92109 16.7416C12.6703 16.7416 16.3359 12.2768 16.3359 9.59863" stroke="#A88EC3" stroke-width="2" stroke-linecap="round" stroke-linejoin="round"/>
<path d="M36.4961 1.5625C36.4961 1.5625 42.9109 6.02656 42.9109 12.2766C42.9467 13.895 42.7144 15.5084 42.2232 17.0539" stroke="#A88EC3" stroke-width="2" stroke-linecap="round" stroke-linejoin="round"/>
<path d="M20.918 31.0264C22.1753 32.1445 23.8028 32.7788 25.5 32.8123C27.1972 32.7788 28.8247 32.1445 30.082 31.0264" stroke="#A88EC3" stroke-width="2" stroke-linecap="round" stroke-linejoin="round"/>
<path d="M30.082 21.2055C30.9564 21.5416 31.8931 21.6936 32.8313 21.6516C33.364 21.6522 33.8895 21.5316 34.3666 21.2993C34.8437 21.0669 35.2592 20.7291 35.5805 20.3125L36.4969 20.6727" stroke="#A88EC3" stroke-width="2" stroke-linecap="round" stroke-linejoin="round"/>
<path d="M20.9188 21.2055C20.0444 21.5416 19.1077 21.6936 18.1695 21.6516C17.6368 21.6522 17.1112 21.5316 16.6342 21.2993C16.1571 21.0669 15.7416 20.7291 15.4203 20.3125L14.5039 20.6727" stroke="#A88EC3" stroke-width="2" stroke-linecap="round" stroke-linejoin="round"/>
<path d="M1.59375 41.0156C2.83634 40.8177 4.00188 40.2961 4.96852 39.5055C5.82755 38.6828 6.39652 37.3945 6.77344 35.1562C7.14319 37.3531 7.69861 38.6352 8.53055 39.4594C9.50225 40.2791 10.6872 40.8179 11.9531 41.0156C10.2669 41.4328 9.06127 41.85 8.19905 42.9445C7.40337 44.1208 6.91389 45.4703 6.77344 46.875C6.40369 44.6781 5.84827 43.3961 5.02031 42.5719C4.0475 41.7515 2.86108 41.2127 1.59375 41.0156Z" stroke="#A88EC3" stroke-width="2" stroke-linecap="round" stroke-linejoin="round"/>
<path d="M44.0672 34.6922C43.3291 35.3438 42.4169 35.7757 41.4375 35.9375C42.5007 36.0963 43.4809 36.5941 44.2266 37.3539C44.9107 38.3227 45.3229 39.4507 45.4219 40.625C45.7095 38.8672 46.1391 37.8414 46.7766 37.1828C47.5147 36.5312 48.4268 36.0993 49.4062 35.9375C48.4268 35.7757 47.5147 35.3438 46.7766 34.6922C46.1335 34.0328 45.7064 33.0078 45.4219 31.25C45.1342 33.0078 44.7047 34.0336 44.0672 34.6922Z" stroke="#A88EC3" stroke-width="2" stroke-linecap="round" stroke-linejoin="round"/>
<path d="M34.2656 36.6953V40.625C34.322 42.1307 34.7068 43.607 35.3941 44.9546C36.0814 46.3023 37.0552 47.4899 38.25 48.4375" stroke="#A88EC3" stroke-width="2" stroke-linecap="round" stroke-linejoin="round"/>
<path d="M16.7344 36.6953V40.625C16.678 42.1307 16.2932 43.607 15.6059 44.9546C14.9186 46.3023 13.9448 47.4899 12.75 48.4375" stroke="#A88EC3" stroke-width="2" stroke-linecap="round" stroke-linejoin="round"/>
</g>
<defs>
<clipPath id="clip0_23_625">
<rect width="51" height="50" fill="white"/>
</clipPath>
</defs>
</svg>
