<svg width="43" height="50" viewBox="0 0 43 50" fill="none" xmlns="http://www.w3.org/2000/svg">
<path d="M41.3375 27.3723H40.5575V26.5924C40.5575 26.1613 40.2086 25.8125 39.7775 25.8125C39.3463 25.8125 38.9975 26.1613 38.9975 26.5924V27.3723H38.2175C37.7864 27.3723 37.4375 27.7211 37.4375 28.1522C37.4375 28.5833 37.7864 28.9321 38.2175 28.9321H38.9975V29.712C38.9975 30.143 39.3463 30.4918 39.7775 30.4918C40.2086 30.4918 40.5575 30.143 40.5575 29.712V28.9321H41.3375C41.7686 28.9321 42.1175 28.5833 42.1175 28.1522C42.1175 27.7211 41.7686 27.3723 41.3375 27.3723Z" fill="#A88EC3"/>
<path d="M35.1081 42.9707C34.677 42.9707 34.3281 43.3195 34.3281 43.7506V49.2098C34.3281 49.6409 34.677 49.9897 35.1081 49.9897C35.5393 49.9897 35.8881 49.6409 35.8881 49.2098V43.7506C35.8881 43.3195 35.5393 42.9707 35.1081 42.9707Z" fill="#A88EC3"/>
<path d="M34.0938 36.7527C34.7236 36.004 35.1048 35.0397 35.1048 33.987V32.0517C35.1048 29.9018 33.3551 28.1523 31.2049 28.1523C29.0546 28.1523 27.3049 29.9018 27.3049 32.0517V36.7311H27.2928L23.4049 33.3292V25.0327C23.4049 24.4451 23.1797 23.9138 22.8207 23.5024L25.0113 20.7642C25.3839 20.9157 25.7915 20.9931 26.2285 20.9931C27.1448 20.9931 28.1853 20.6634 29.2785 20.013C30.7121 19.16 32.0145 17.8858 32.6781 16.6877C33.9779 14.3406 33.2516 11.4182 31.0822 9.96817C31.6504 8.73341 32.0055 7.37932 32.0055 6.29703C32.0055 3.46915 29.7303 1.16906 26.9332 1.16906C25.3619 1.16906 23.9554 1.89513 23.0241 3.0326C22.5822 2.85264 22.1165 2.73664 21.6415 2.6875C20.7588 1.04895 19.0535 0 17.194 0C14.6921 0 12.5986 1.81929 12.1952 4.27965C12.0784 4.32664 11.9588 4.36251 11.8444 4.41886C9.33689 5.65498 8.30612 8.7258 9.5471 11.2649C9.6288 11.432 9.73235 11.6065 9.84155 11.7824C9.39402 12.8766 9.33455 14.087 9.68496 15.2344C10.3446 17.3966 13.083 20.8681 15.7871 20.8681C16.0819 20.8681 16.3765 20.827 16.6685 20.7379C16.7806 20.7036 16.8876 20.6566 16.9945 20.6092L19.3093 23.5024C18.9503 23.9138 18.7251 24.4451 18.7251 25.0327V33.329L14.8372 36.7311H14.8249V30.492C14.8249 30.4859 14.8216 30.4808 14.8214 30.4748C15.7648 29.7624 16.3849 28.6428 16.3849 27.3724C16.3849 26.9413 16.0361 26.5925 15.6049 26.5925H9.6171C8.18815 26.5925 7.02498 27.7555 7.02498 29.1843V34.2444C7.02498 35.199 7.37091 36.0656 7.92568 36.7582C5.23353 37.0276 3.125 39.3047 3.125 42.0663V49.2095C3.125 49.6406 3.47385 49.9894 3.905 49.9894C4.33614 49.9894 4.68499 49.6406 4.68499 49.2095V42.0663C4.68499 39.9848 6.37914 38.2911 8.46076 38.2911H15.1303C15.3193 38.2911 15.502 38.2224 15.6437 38.0984L20.0183 34.2705C20.1882 34.122 20.2849 33.9081 20.2849 33.6833V25.0329C20.2849 24.6026 20.6345 24.253 21.0649 24.253C21.4953 24.253 21.8449 24.6026 21.8449 25.0329V34.3916C21.8449 34.6162 21.7474 34.8303 21.5737 34.9826L15.8668 40.0474C15.7001 40.1959 15.6047 40.4077 15.6047 40.6307V49.2095C15.6047 49.6406 15.9536 49.9894 16.3847 49.9894C16.8159 49.9894 17.1647 49.6406 17.1647 49.2095V40.9811L21.0647 37.5199L24.9647 40.9811V49.2095C24.9647 49.6406 25.3135 49.9894 25.7447 49.9894C26.1758 49.9894 26.5247 49.6406 26.5247 49.2095V40.6307C26.5247 40.4075 26.4295 40.1959 26.2626 40.0474L22.24 36.477L22.6056 36.1526C22.8887 35.9048 23.0958 35.5924 23.2312 35.2507L26.4857 38.0984C26.6274 38.2226 26.8102 38.2911 26.9991 38.2911H33.6687C35.7505 38.2911 37.4444 39.985 37.4444 42.0663V49.2095C37.4444 49.6406 37.7933 49.9894 38.2244 49.9894C38.6556 49.9894 39.0044 49.6406 39.0044 49.2095V42.0663C39.0048 39.2675 36.8378 36.9705 34.0938 36.7527ZM8.58497 29.1843C8.58497 28.6153 9.04809 28.1523 9.6171 28.1523H14.6916C14.3694 29.0601 13.5017 29.7121 12.485 29.7121H8.58497V29.1843ZM11.072 36.7311C9.70095 36.7311 8.58497 35.6152 8.58497 34.2444V31.2718H13.2649V36.7311H11.072ZM24.5466 12.272C24.5466 14.3808 22.8107 18.0137 21.0343 18.0137C19.2573 18.0137 17.5212 14.3808 17.5212 12.272C17.5212 10.3047 19.0972 8.70377 21.0343 8.70377C22.9714 8.70377 24.5466 10.3047 24.5466 12.272ZM21.8449 19.4487C22.3293 19.3126 22.7815 19.0677 23.1943 18.7312C23.3476 19.1426 23.5416 19.5041 23.777 19.809L21.8449 22.2239V19.4487ZM18.8296 18.6912C19.2721 19.0609 19.759 19.3302 20.2849 19.4663V22.2239L18.2251 19.6495C18.4494 19.3744 18.6508 19.0535 18.8296 18.6912ZM31.3131 15.9324C30.792 16.8729 29.654 17.9743 28.4811 18.6727C27.2327 19.4154 26.1296 19.6277 25.4586 19.2553C24.8032 18.893 24.5392 17.9798 24.4335 17.3352C25.4994 15.7468 26.1068 13.6602 26.1068 12.2722C26.1068 12.0074 26.0807 11.7492 26.0423 11.495C27.1508 10.589 28.7159 10.4182 29.968 11.1099C31.6627 12.0481 32.2658 14.2117 31.3131 15.9324ZM26.9332 2.72903C28.8703 2.72903 30.4455 4.32995 30.4455 6.29722C30.4455 7.15705 30.139 8.2953 29.664 9.32632C28.276 8.93559 26.7719 9.15708 25.5448 9.93678C25.1166 9.09508 24.4653 8.39065 23.6695 7.89873C23.511 7.31732 23.4201 6.75444 23.4201 6.29722C23.4201 4.32995 24.9961 2.72903 26.9332 2.72903ZM21.9364 7.22997C21.6431 7.17655 21.3428 7.14399 21.0345 7.14399C19.7422 7.14399 18.5648 7.63903 17.6682 8.44621C17.6358 8.21205 17.6136 7.98608 17.6136 7.7837C17.6136 5.81642 19.1896 4.2155 21.1267 4.2155C21.5005 4.2155 21.8708 4.28238 22.2242 4.40014C21.9917 4.98759 21.8603 5.62652 21.8603 6.29703C21.8601 6.58832 21.889 6.90359 21.9364 7.22997ZM17.1938 1.55998C18.2351 1.55998 19.2091 2.03727 19.8682 2.82203C18.6857 3.12872 17.6692 3.85324 16.9836 4.83434C16.0714 4.19191 14.9885 3.88093 13.9003 3.9168C14.3905 2.53133 15.6804 1.55998 17.1938 1.55998ZM12.5345 5.81818C13.7663 5.21142 15.2233 5.40113 16.2818 6.26193C16.1336 6.74293 16.0536 7.25415 16.0536 7.78389C16.0536 8.47117 16.1917 9.27017 16.4458 10.0998C16.1385 10.7603 15.9614 11.495 15.9614 12.2722C15.9614 12.8508 16.0712 13.5531 16.2711 14.2884C15.8333 14.371 15.3575 14.2718 14.9993 14.1503C13.3441 13.5853 11.5685 11.8479 10.9486 10.58C10.0841 8.8112 10.7955 6.67567 12.5345 5.81818ZM11.1763 14.7791C11.0281 14.2934 10.9934 13.7929 11.0511 13.3034C12.0101 14.2944 13.2398 15.1975 14.495 15.6261C15.0008 15.7982 15.4875 15.8842 15.9438 15.8842C16.2402 15.8842 16.5185 15.8359 16.7862 15.7635C17.0339 16.3375 17.3318 16.8985 17.6795 17.4052C17.436 18.0929 16.9766 19.0135 16.2127 19.2467C14.518 19.7601 11.7917 16.7959 11.1763 14.7791ZM28.8649 36.7311V32.0517C28.8649 30.7616 29.9145 29.7121 31.2049 29.7121C32.4952 29.7121 33.5448 30.7616 33.5448 32.0517V33.987C33.5448 35.5004 32.314 36.7311 30.8004 36.7311H28.8649Z" fill="#A88EC3"/>
<path d="M7.02218 42.9707C6.59104 42.9707 6.24219 43.3195 6.24219 43.7506V49.2098C6.24219 49.6409 6.59104 49.9897 7.02218 49.9897C7.45333 49.9897 7.80218 49.6409 7.80218 49.2098V43.7506C7.80218 43.3195 7.45333 42.9707 7.02218 42.9707Z" fill="#A88EC3"/>
<path d="M2.33468 26.593C2.76546 26.593 3.11468 26.2438 3.11468 25.8131C3.11468 25.3824 2.76546 25.0332 2.33468 25.0332C1.9039 25.0332 1.55469 25.3824 1.55469 25.8131C1.55469 26.2438 1.9039 26.593 2.33468 26.593Z" fill="#A88EC3"/>
<path d="M5.45997 16.0636C5.45997 14.5586 4.23518 13.334 2.72999 13.334C1.22479 13.334 0 14.5586 0 16.0636C0 17.5686 1.22479 18.7932 2.72999 18.7932C4.23518 18.7932 5.45997 17.5686 5.45997 16.0636ZM1.55999 16.0636C1.55999 15.4184 2.08473 14.8938 2.72999 14.8938C3.37524 14.8938 3.89998 15.4184 3.89998 16.0636C3.89998 16.7088 3.37524 17.2334 2.72999 17.2334C2.08473 17.2334 1.55999 16.7088 1.55999 16.0636Z" fill="#A88EC3"/>
</svg>
