<svg width="32" height="36" viewBox="0 0 32 36" fill="none" xmlns="http://www.w3.org/2000/svg">
<path fill-rule="evenodd" clip-rule="evenodd" d="M21.0214 32.8262C19.0851 34.1385 16.8665 35.0752 14.4638 35.5204C14.3948 35.5332 14.3241 35.5332 14.2552 35.5204C6.05624 34.0005 0 26.7472 0 18.385V6.48163C0 6.25233 0.136597 6.04517 0.347221 5.95491L14.134 0.046257C14.278 -0.015419 14.4409 -0.015419 14.585 0.046257L28.3765 5.95484C28.5872 6.04509 28.7238 6.25233 28.7238 6.48163V18.385C28.7238 19.2418 28.6603 20.087 28.5374 20.9155C30.6046 22.1466 31.9944 24.4059 31.9944 26.9795C31.9944 30.8625 28.8305 34.0282 24.9498 34.0282C23.4973 34.0282 22.145 33.5847 21.0214 32.8262ZM27.4532 20.3899C27.5359 19.7313 27.5783 19.062 27.5783 18.385V6.85963L14.3595 1.19647L1.14547 6.85963V18.385C1.14547 26.1619 6.75262 32.9118 14.3596 34.3737C16.4431 33.9735 18.3763 33.177 20.0854 32.0716C18.742 30.7869 17.9033 28.9782 17.9033 26.9795C17.9033 26.3049 17.9988 25.6519 18.177 25.0334H13.949C11.9822 25.0334 10.7976 24.4795 9.5694 24.0447V24.3327C9.5694 24.9592 9.05787 25.471 8.43173 25.471H6.1423C5.51844 25.471 5.00463 24.9592 5.00463 24.3327V14.4393C5.00463 13.8128 5.51844 13.301 6.1423 13.301H8.43173C9.05122 13.301 9.55844 13.802 9.56918 14.4194C9.98885 14.3934 10.2745 14.209 10.4779 13.915C11.3956 12.5864 11.3138 12.6114 12.5148 11.8263C14.1398 10.7629 14.0798 10.3285 14.6985 7.63821C14.7328 7.48864 14.8257 7.35913 14.9563 7.27869C15.0868 7.19824 15.2443 7.17353 15.3932 7.21013C16.7437 7.54201 17.3399 8.55963 17.4733 9.76271C17.5963 10.8726 17.2913 12.1385 16.9026 13.0366H21.0495C22.1107 13.0366 22.9788 13.9041 22.9788 14.9658C22.9788 15.3345 22.8739 15.68 22.6923 15.9739C23.3021 16.2987 23.7192 16.9417 23.7192 17.6782C23.7192 18.3333 23.3893 18.9143 22.8875 19.2633C23.071 19.5169 23.1945 19.8163 23.237 20.1402C23.7857 20.0022 24.3594 19.9289 24.9498 19.9289C25.8308 19.9289 26.6748 20.0921 27.4532 20.3899ZM18.6196 23.8872C18.8989 23.3182 19.2526 22.7918 19.668 22.321H17.5129C17.1969 22.321 16.9402 22.0642 16.9402 21.7479C16.9402 21.4317 17.1969 21.1749 17.5129 21.1749H20.9579C21.3145 20.9284 21.6947 20.7139 22.0943 20.5356C22.1032 20.4885 22.1079 20.4401 22.1079 20.3906C22.1079 19.9602 21.756 19.6075 21.3251 19.6075H17.5129C17.1969 19.6075 16.9402 19.3507 16.9402 19.0345C16.9402 18.7181 17.1969 18.4614 17.5129 18.4614H21.791C22.2218 18.4614 22.5737 18.1093 22.5737 17.6782C22.5737 17.2472 22.2218 16.8951 21.791 16.8951H17.5129C17.1969 16.8951 16.9402 16.6383 16.9402 16.3221C16.9402 16.0057 17.1969 15.749 17.5129 15.749H21.0495C21.4805 15.749 21.8334 15.3964 21.8334 14.9658C21.8334 14.5347 21.4805 14.1828 21.0495 14.1828H15.9195C15.6954 14.1828 15.4918 14.0519 15.3986 13.8479C15.3054 13.644 15.3397 13.4044 15.4863 13.2348C15.9388 12.7114 16.4763 11.1649 16.3348 9.88907C16.2756 9.3544 16.0846 8.86443 15.6615 8.56429C15.0703 11.1432 14.9156 11.6247 13.1418 12.7855L13.1415 12.7857C12.1217 13.4523 12.1993 13.4387 11.42 14.5668L11.4198 14.5672C11.0099 15.1598 10.4355 15.538 9.5694 15.5669V22.8363C10.8242 23.2587 11.9568 23.8872 13.949 23.8872H18.6196ZM24.9498 32.8821C28.1995 32.8821 30.8489 30.2311 30.8489 26.9795C30.8489 23.7279 28.1995 21.075 24.9498 21.075C21.7 21.075 19.0487 23.7278 19.0487 26.9795C19.0487 30.2311 21.7 32.8821 24.9498 32.8821ZM24.0979 26.737L26.8391 23.9657L26.8401 23.9646C27.4356 23.3657 28.4074 23.3629 29.0059 23.9587C29.6041 24.5541 29.608 25.5229 29.0129 26.1246L29.0126 26.1248C27.7354 27.4144 26.4678 28.7117 25.1848 29.9955C24.5867 30.594 23.6153 30.594 23.0171 29.9955L20.8907 27.8659C20.2928 27.2677 20.2918 26.2993 20.8897 25.698L20.8907 25.697C21.4889 25.0984 22.4602 25.0984 23.0585 25.697L24.0979 26.737ZM23.695 27.9548L22.2485 26.5074C22.0975 26.3563 21.8524 26.3561 21.7012 26.5069C21.5503 26.6592 21.5494 26.9041 21.7007 27.0554L23.8271 29.185C23.9783 29.3362 24.2237 29.3362 24.3749 29.185C25.6566 27.9026 26.9228 26.6066 28.1987 25.3183C28.3491 25.1663 28.3492 24.9216 28.198 24.7712C28.0473 24.6211 27.8025 24.622 27.6524 24.7727L24.5071 27.9527C24.3999 28.0611 24.2539 28.1223 24.1015 28.1226C23.9491 28.123 23.8028 28.0626 23.695 27.9548ZM6.1501 14.4471V24.3249H8.42393V14.4471H6.1501Z" fill="#662D91"/>
</svg>
