<svg width="34" height="57" viewBox="0 0 34 57" fill="none" xmlns="http://www.w3.org/2000/svg">
<path d="M30.7955 12.1703V2.23503C30.7955 1.00263 29.142 0 27.1095 0H6.45051C4.41805 0 2.76451 1.00263 2.76451 2.23503V12.1702C1.15962 12.4977 0 13.4182 0 14.5004V17.0161V54.3574C0 55.7131 1.81886 56.8159 4.05461 56.8159H29.5054C31.7411 56.8159 33.56 55.7131 33.56 54.3574V17.0161V14.5004C33.56 13.4182 32.4004 12.4978 30.7955 12.1703ZM5.34471 2.23503C5.34471 1.86524 5.84066 1.56452 6.45051 1.56452H27.1095C27.7193 1.56452 28.2153 1.86524 28.2153 2.23503V12.0419H5.34471V2.23503ZM2.58021 14.5004C2.58021 14.0075 3.24166 13.6064 4.05461 13.6064H29.5054C30.3183 13.6064 30.9798 14.0075 30.9798 14.5004V16.2339H2.58021V14.5004ZM6.46084 22.7097C6.95255 22.6977 7.46712 22.6911 8.00527 22.6911C12.1076 22.6911 14.3863 23.1122 16.4118 23.4864C18.4866 23.8697 21.0689 24.3467 25.5529 24.3467C26.0881 24.3467 26.6047 24.341 27.0993 24.3298V52.8984H6.46084V22.7097ZM27.0992 22.7637C26.6075 22.7757 26.0921 22.7823 25.5527 22.7823C21.4531 22.7823 19.1742 22.3613 17.1488 21.9872C15.0739 21.6038 12.4917 21.1267 8.00509 21.1267C7.47117 21.1267 6.95531 21.1324 6.46065 21.1436V17.7985H27.099V22.7637H27.0992ZM29.5054 55.2514H4.05461C3.24166 55.2514 2.58021 54.8503 2.58021 54.3574V17.7984H3.88063V53.122C3.88063 53.8615 4.87272 54.463 6.09223 54.463H27.4678C28.6873 54.463 29.6794 53.8615 29.6794 53.122V17.7984H30.9798V54.3574C30.9798 54.8503 30.3183 55.2514 29.5054 55.2514ZM17.6634 31.8947C17.1895 31.6252 16.4593 31.6109 15.9582 31.8619C13.1718 33.258 10.4369 36.6117 10.4369 38.6327C10.4369 40.7535 13.2823 42.4788 16.78 42.4788C20.2777 42.4788 23.1231 40.7535 23.1231 38.6327C23.1231 36.7127 20.0699 33.2655 17.6634 31.8947ZM16.78 40.9143C14.7051 40.9143 13.0171 39.8908 13.0171 38.6327C13.0171 37.3689 14.6788 34.9749 16.7247 33.5857C18.5262 34.9378 20.5429 37.3682 20.5429 38.6327C20.5429 39.8906 18.8549 40.9143 16.78 40.9143Z" fill="#A88EC3"/>
</svg>
