<svg width="23" height="20" viewBox="0 0 23 20" fill="none" xmlns="http://www.w3.org/2000/svg">
<path d="M12.2234 0.777417C12.2234 1.81397 10.7747 1.81397 10.7747 0.777417C10.7747 -0.259139 12.2234 -0.259139 12.2234 0.777417Z" fill="url(#paint0_linear_525_604)"/>
<path d="M0.724376 5.73993C0.324568 5.73993 0 6.08825 0 6.51733C0 6.94641 0.324568 7.29473 0.724376 7.29473C1.12418 7.29473 1.44875 6.94641 1.44875 6.51733C1.44875 6.08825 1.12082 5.73993 0.724376 5.73993Z" fill="url(#paint1_linear_525_604)"/>
<path d="M19.4243 15.3078C19.3929 15.2861 19.3064 15.2403 19.2031 15.2897C19.1997 15.2933 19.1941 15.2933 19.1885 15.2957H19.1851C17.77 15.9622 14.8265 16.3793 11.4943 16.3793C8.16204 16.3793 5.22084 15.9659 3.80343 15.2957H3.80006C3.79669 15.2921 3.79107 15.2921 3.78546 15.2897C3.75064 15.274 3.71919 15.268 3.69112 15.268C3.63047 15.268 3.58779 15.2921 3.56421 15.3078C3.53276 15.3295 3.45752 15.3945 3.45752 15.5175V18.5102C3.45752 19.0164 6.29217 19.9999 11.4876 19.9999C16.683 19.9999 19.5177 19.0152 19.5177 18.5102V15.5175C19.5312 15.3945 19.4569 15.3295 19.4243 15.3078Z" fill="url(#paint2_linear_525_604)"/>
<path d="M22.2756 5.73975C21.8758 5.73975 21.5513 6.08807 21.5513 6.51715C21.5513 6.94622 21.8758 7.29455 22.2756 7.29455C22.6755 7.29455 23 6.94622 23 6.51715C23 6.08807 22.6755 5.73975 22.2756 5.73975Z" fill="url(#paint3_linear_525_604)"/>
<path d="M18.8851 9.15637C18.6066 9.301 18.3303 9.43117 18.063 9.53243C17.7497 9.65296 17.4251 9.70841 17.1028 9.70841C16.3751 9.70841 15.6653 9.41552 15.1734 8.87195C14.978 8.66223 14.7848 8.42479 14.5815 8.14635C13.5584 6.76387 12.6004 4.8078 11.6659 2.18262C11.6109 2.18864 11.557 2.2007 11.4997 2.2007C11.4424 2.2007 11.3874 2.19105 11.3335 2.18262C10.398 4.81134 9.43999 6.76742 8.41672 8.15005C8.21232 8.42486 8.02028 8.66231 7.8215 8.87565C7.3296 9.41923 6.62204 9.71211 5.89543 9.71211C5.5731 9.71211 5.24853 9.65305 4.93521 9.53614C4.66792 9.43128 4.39165 9.30472 4.10975 9.15646C3.40782 8.79487 2.63515 8.28986 1.63448 7.54618C1.59741 7.58595 1.55699 7.6197 1.51318 7.65465C1.694 8.12711 1.96466 8.75267 2.27238 9.46019C3.0372 11.2223 3.98057 13.3906 4.1906 14.7611C5.57086 15.3505 8.4 15.7302 11.4996 15.7302C14.5992 15.7302 17.4283 15.3541 18.8086 14.7611C19.0187 13.3907 19.962 11.2189 20.7269 9.4568C21.0346 8.75048 21.3052 8.12736 21.486 7.6549C21.4434 7.62115 21.4029 7.5874 21.3648 7.54643C20.3618 8.28887 19.5858 8.79511 18.885 9.15671L18.8851 9.15637Z" fill="url(#paint4_linear_525_604)"/>
<defs>
<linearGradient id="paint0_linear_525_604" x1="11.499" y1="0" x2="11.499" y2="3.16329" gradientUnits="userSpaceOnUse">
<stop stop-color="#FFBF00"/>
<stop offset="0.5" stop-color="#FFCF40"/>
<stop offset="1" stop-color="#997300"/>
</linearGradient>
<linearGradient id="paint1_linear_525_604" x1="0.724376" y1="5.73993" x2="0.724376" y2="8.90315" gradientUnits="userSpaceOnUse">
<stop stop-color="#FFBF00"/>
<stop offset="0.5" stop-color="#FFCF40"/>
<stop offset="1" stop-color="#997300"/>
</linearGradient>
<linearGradient id="paint2_linear_525_604" x1="11.4884" y1="15.2676" x2="11.4884" y2="24.8955" gradientUnits="userSpaceOnUse">
<stop stop-color="#FFBF00"/>
<stop offset="0.5" stop-color="#FFCF40"/>
<stop offset="1" stop-color="#997300"/>
</linearGradient>
<linearGradient id="paint3_linear_525_604" x1="22.2756" y1="5.73975" x2="22.2756" y2="8.90297" gradientUnits="userSpaceOnUse">
<stop stop-color="#FFBF00"/>
<stop offset="0.5" stop-color="#FFCF40"/>
<stop offset="1" stop-color="#997300"/>
</linearGradient>
<linearGradient id="paint4_linear_525_604" x1="11.4996" y1="2.18262" x2="11.4996" y2="29.7449" gradientUnits="userSpaceOnUse">
<stop stop-color="#FFBF00"/>
<stop offset="0.5" stop-color="#FFCF40"/>
<stop offset="1" stop-color="#997300"/>
</linearGradient>
</defs>
</svg>
