<svg width="16" height="22" viewBox="0 0 16 22" fill="none" xmlns="http://www.w3.org/2000/svg">
<path d="M0.0631662 11.0714C0.0252664 11.4107 0 11.756 0 12.1071C0 17.381 3.73944 22 8.00316 22C12.2606 22 16 17.381 16 12.1071C16 8.51786 14.0608 5.67262 11.1046 4.5119C11.2941 4.10119 11.4078 3.66071 11.4078 3.20833C11.4078 1.44048 9.8792 0 8.00316 0C6.12081 0 4.59218 1.44048 4.59218 3.20833C4.59218 3.66071 4.70588 4.10119 4.89538 4.5119C2.22977 5.55952 0.397947 7.97024 0.0631662 11.0655V11.0714ZM1.26964 11.9524C2.15397 12.119 2.9625 12.1964 3.69522 12.1964C6.15239 12.1964 7.81998 11.369 8.90012 10.4881C9.62021 11.2798 11.2941 12.5357 14.7114 12.6845C14.4587 17.006 11.3762 20.8095 8.00316 20.8095C4.47217 20.8095 1.26332 16.6607 1.26332 12.1071C1.26332 12.0536 1.26964 12.006 1.26964 11.9524Z" fill="#A88EC3"/>
<path d="M9.45637 16.4105C9.6206 16.4105 9.78483 16.351 9.90485 16.2379C10.0185 16.1308 10.088 15.976 10.088 15.8212C10.088 15.6605 10.0185 15.5058 9.90485 15.3986C9.66482 15.1724 9.2416 15.1784 9.00789 15.3986C8.89419 15.5058 8.82471 15.6605 8.82471 15.8212C8.82471 15.976 8.89419 16.1308 9.00789 16.2379C9.1279 16.351 9.29214 16.4105 9.45637 16.4105Z" fill="#A88EC3"/>
<path d="M11.3636 17.3866C11.5341 17.3866 11.6921 17.3271 11.8121 17.214C11.9321 17.1009 11.9953 16.9462 11.9953 16.7914C11.9953 16.6366 11.9321 16.4819 11.8121 16.3688C11.5784 16.1486 11.1551 16.1486 10.9214 16.3688C10.8014 16.4819 10.7319 16.6366 10.7319 16.7914C10.7319 16.9462 10.8014 17.1009 10.9214 17.214C11.0351 17.3271 11.2057 17.3866 11.3636 17.3866Z" fill="#A88EC3"/>
<path d="M11.3636 14.8212C11.5341 14.8212 11.6984 14.7557 11.8121 14.6486C11.9321 14.5355 11.9953 14.3807 11.9953 14.226C11.9953 14.0712 11.9321 13.9165 11.8121 13.8034C11.5784 13.5831 11.1551 13.5831 10.9151 13.8034C10.8014 13.9165 10.7319 14.0712 10.7319 14.226C10.7319 14.3807 10.8014 14.5355 10.9214 14.6486C11.0351 14.7557 11.2057 14.8212 11.3636 14.8212Z" fill="#A88EC3"/>
</svg>
