<svg width="49" height="66" viewBox="0 0 49 66" fill="none" xmlns="http://www.w3.org/2000/svg">
<path d="M10.5093 32.6943C13.1555 31.1272 15.1463 31.4086 16.4722 32.0488C16.6431 32.1314 16.8044 32.2201 16.9546 32.3125L16.728 32.5391L16.7144 32.5537L16.4565 32.8105L16.6392 32.9336C16.6249 33.8118 15.9206 34.5307 15.0327 34.5547L14.8726 34.5508C14.7148 34.5396 14.5625 34.5058 14.4214 34.4512L14.3774 34.4336L14.3306 34.4316L13.9761 34.4014C13.6263 34.3639 13.2974 34.3059 13.0317 34.25C12.8554 34.2129 12.7082 34.1766 12.603 34.1494C12.5507 34.1359 12.5085 34.1245 12.479 34.1162C12.4523 34.1087 12.4386 34.1052 12.436 34.1045L12.4272 34.1016L12.4194 34.0986L12.3911 34.0771C12.3853 34.0667 12.383 34.0536 12.3872 34.04H12.3882L12.3911 34.0303C12.3978 34.0053 12.4226 33.9907 12.4497 33.999L12.4927 34.0117H12.4995C12.5063 34.0135 12.5146 34.0161 12.5239 34.0186C12.5635 34.029 12.6207 34.0438 12.6919 34.0615C12.8346 34.097 13.0344 34.1436 13.2661 34.1885L13.9302 34.3164L13.5806 33.7383C13.4357 33.4989 13.3454 33.2371 13.3394 32.9492V32.9482L13.3442 32.7305C13.358 32.5136 13.3993 32.3061 13.4663 32.1758L13.7534 31.6172L13.1392 31.7441C12.3606 31.9045 11.5003 32.2304 10.5591 32.7832L10.5552 32.7861C10.5436 32.7932 10.5331 32.7936 10.5229 32.791C10.5117 32.7881 10.4975 32.7802 10.4868 32.7627C10.4797 32.751 10.4793 32.7407 10.4819 32.7305C10.4848 32.7194 10.4922 32.7049 10.5093 32.6943ZM17.2407 32.502C17.549 32.7185 17.8038 32.9429 18.0034 33.1416C18.3433 33.48 18.5195 33.739 18.5249 33.7471L18.5269 33.75C18.5317 33.7571 18.5347 33.7666 18.5317 33.7803C18.5291 33.7923 18.5206 33.8028 18.5103 33.8125C18.4852 33.8246 18.4755 33.8272 18.4761 33.8271C18.4673 33.8271 18.4571 33.8242 18.4478 33.8193C18.4388 33.8146 18.4331 33.8092 18.4302 33.8047L18.4243 33.7949L18.4175 33.7861V33.7852C18.4169 33.7844 18.4154 33.7834 18.4146 33.7822C18.4127 33.7797 18.4106 33.7764 18.4077 33.7725C18.4019 33.7645 18.3945 33.7537 18.3853 33.7412C18.3666 33.716 18.3411 33.6831 18.3101 33.6436C18.2479 33.5644 18.161 33.4597 18.0503 33.3398C17.8561 33.1297 17.5851 32.8732 17.2407 32.623V32.502ZM12.4731 34.0049C12.4746 34.0052 12.4767 34.0053 12.479 34.0059C12.4802 34.0062 12.4816 34.0065 12.4829 34.0068C12.4797 34.0062 12.4771 34.0061 12.4761 34.0059L12.4722 34.0049H12.4731Z" fill="#A88EC3" stroke="#A88EC3" stroke-width="0.6"/>
<path d="M19.6616 43.2148C19.675 43.2186 19.6875 43.2264 19.6968 43.2393C19.7071 43.2536 19.7103 43.2684 19.7085 43.2803L19.7046 43.3027V43.3066C19.7032 43.3167 19.701 43.3307 19.6987 43.3477C19.6934 43.3872 19.6864 43.4438 19.6782 43.5137C19.6618 43.6536 19.6426 43.8479 19.6294 44.0674C19.6038 44.4946 19.6004 45.0519 19.7124 45.4951V45.4961C19.7208 45.5326 19.7008 45.5605 19.6724 45.5684L19.6587 45.5713C19.6452 45.5705 19.6359 45.5674 19.6294 45.5625C19.6227 45.5574 19.6144 45.5488 19.6099 45.5322L19.5747 45.4023L19.5679 45.3984C19.4889 45.0009 19.4874 44.5178 19.5132 44.0977C19.5389 43.6784 19.5882 43.3529 19.6011 43.2656C19.6047 43.247 19.614 43.2331 19.6255 43.2246C19.6348 43.2178 19.6469 43.2143 19.6616 43.2148Z" fill="#A88EC3" stroke="#A88EC3" stroke-width="0.6"/>
<path d="M28.4956 54.0371C28.538 54.0331 28.5598 54.0584 28.5649 54.0791H28.5659C28.57 54.1012 28.5608 54.1233 28.5425 54.1357L28.521 54.1445C26.8993 54.4531 25.3465 54.5469 24.0356 54.5469C21.806 54.5468 20.257 54.2666 20.1694 54.248L20.1606 54.2461C20.1308 54.2405 20.1112 54.2113 20.1167 54.1826C20.123 54.1509 20.1527 54.1315 20.1821 54.1367C20.3291 54.1641 24.1788 54.841 28.4956 54.0371Z" fill="#A88EC3" stroke="#A88EC3" stroke-width="0.6"/>
<path d="M21.2891 45.3691C21.4155 45.3948 21.9829 45.5263 22.5811 46.0859C22.5933 46.0986 22.6 46.1154 22.6006 46.1328C22.6011 46.1505 22.5951 46.1624 22.5889 46.1689L22.584 46.1748C22.5829 46.176 22.5801 46.1776 22.5752 46.1797C22.5695 46.1821 22.561 46.1846 22.5518 46.1846C22.5415 46.1845 22.5344 46.1822 22.5303 46.1807C22.527 46.1794 22.5252 46.1785 22.5244 46.1777L22.5186 46.1719L22.292 45.9766C22.0688 45.8016 21.8584 45.6851 21.6885 45.6094C21.5752 45.5589 21.4793 45.5263 21.4102 45.5059C21.3758 45.4957 21.3477 45.4892 21.3271 45.4844C21.3169 45.482 21.3082 45.4799 21.3018 45.4785C21.2985 45.4778 21.2952 45.477 21.293 45.4766H21.29L21.2891 45.4756H21.2881L21.2803 45.4746L21.25 45.4551C21.241 45.4427 21.2383 45.4283 21.2402 45.416L21.2432 45.3926C21.2462 45.3884 21.2479 45.3826 21.2529 45.3789C21.2646 45.3705 21.2774 45.3679 21.2891 45.3691Z" fill="#A88EC3" stroke="#A88EC3" stroke-width="0.6"/>
<path d="M21.3667 34.7061C21.337 33.8234 21.2356 33.0503 21.1411 32.498C21.1062 32.2942 21.0715 32.1203 21.0425 31.9814H21.0698L20.9634 31.6006C20.9608 31.5914 20.9609 31.5783 20.9683 31.5654C20.9754 31.5531 20.9863 31.5446 20.9995 31.541C21.0161 31.5366 21.0292 31.5395 21.0386 31.5449C21.0479 31.5503 21.0565 31.5605 21.061 31.5771C21.0874 31.6801 21.4172 32.9557 21.4731 34.7041V34.7051C21.4738 34.7215 21.4675 34.7355 21.4585 34.7451C21.4501 34.754 21.4413 34.7578 21.4312 34.7578H21.4165C21.4034 34.7578 21.3896 34.7531 21.3794 34.7432C21.3696 34.7336 21.3667 34.7235 21.3667 34.7158H21.3677L21.3667 34.7061Z" fill="#A88EC3" stroke="#A88EC3" stroke-width="0.6"/>
<path d="M20.1509 27.1904C20.1588 27.1892 20.172 27.1906 20.186 27.2012C20.1929 27.2064 20.1979 27.2126 20.2017 27.2188L20.2095 27.2373L20.5952 29.791V29.792C20.5964 29.7999 20.5947 29.8123 20.5845 29.8262C20.5766 29.8367 20.5664 29.8431 20.5571 29.8467H20.5425L20.5073 29.835L20.4888 29.7988L20.104 27.249V27.248L20.1147 27.2139C20.1254 27.1996 20.139 27.1923 20.1509 27.1904Z" fill="#A88EC3" stroke="#A88EC3" stroke-width="0.6"/>
<path d="M31.5205 32.0557C32.8467 31.4152 34.838 31.1345 37.4854 32.7031L37.4912 32.7061C37.501 32.7116 37.5077 32.722 37.5107 32.7334L37.5059 32.7695L37.501 32.7783C37.4896 32.7979 37.46 32.8067 37.4375 32.793L37.4365 32.792L37.0889 32.5928C36.2863 32.152 35.5396 31.884 34.8496 31.75L34.2334 31.6309L34.5283 32.1855C34.5935 32.3083 34.6346 32.5166 34.6484 32.7354L34.6533 32.9551C34.6472 33.2407 34.562 33.5103 34.4199 33.7451L34.0693 34.3232L34.7334 34.1953C34.9652 34.1504 35.1653 34.1039 35.3076 34.0684C35.3788 34.0506 35.4361 34.0351 35.4756 34.0244C35.4953 34.0191 35.5109 34.0147 35.5215 34.0117L35.5371 34.0078V34.0068C35.5644 33.9999 35.5959 34.016 35.6055 34.0469L35.6162 34.083C35.6113 34.1008 35.5986 34.1167 35.5781 34.123L35.5713 34.126C35.5693 34.1266 35.5553 34.1307 35.5273 34.1387C35.4978 34.1471 35.4558 34.159 35.4033 34.1729C35.2983 34.2006 35.1508 34.2369 34.9746 34.2744C34.6211 34.3497 34.1558 34.4278 33.6787 34.4521L33.6309 34.4551L33.5859 34.4727C33.4039 34.5431 33.1961 34.5748 32.9707 34.5752C32.0603 34.5486 31.3417 33.7923 31.3662 32.8828H31.3672V32.2109L30.8994 32.5234C30.0854 33.0687 29.6467 33.6874 29.5713 33.7988C29.5505 33.828 29.5288 33.834 29.5166 33.834C29.5108 33.834 29.5059 33.8325 29.501 33.8311C29.4971 33.8299 29.4922 33.8274 29.4863 33.8242C29.4732 33.814 29.4639 33.8008 29.4609 33.7871C29.458 33.7735 29.461 33.7639 29.4658 33.7568L29.4678 33.7539C29.4727 33.7466 29.6489 33.4874 29.9893 33.1484C30.3359 32.8033 30.8488 32.3801 31.5205 32.0557Z" fill="#A88EC3" stroke="#A88EC3" stroke-width="0.6"/>
<path d="M28.1821 43.2266C28.1875 43.2255 28.1996 43.2257 28.2144 43.2363C28.2294 43.2472 28.2356 43.2604 28.2368 43.2686L28.2388 43.2822L28.2427 43.2959C28.2439 43.304 28.2581 43.3844 28.2769 43.5283C28.2962 43.6767 28.3185 43.8795 28.3325 44.1084C28.361 44.5728 28.3542 45.1166 28.2437 45.5381C28.2391 45.5548 28.2319 45.5642 28.2251 45.5693C28.2189 45.574 28.2095 45.5762 28.1968 45.5771H28.1958C28.1903 45.5761 28.185 45.5751 28.1812 45.5742L28.1772 45.5732L28.1372 45.5635C28.1344 45.5605 28.1313 45.5579 28.1294 45.5547C28.1229 45.5439 28.1212 45.5328 28.1245 45.5205V45.5195C28.2432 45.0734 28.2401 44.5102 28.2134 44.0801C28.1997 43.8605 28.1796 43.6664 28.1626 43.5264C28.1541 43.4562 28.1457 43.3991 28.1401 43.3594C28.1374 43.34 28.1357 43.3245 28.1343 43.3145C28.1335 43.3091 28.1326 43.3054 28.1323 43.3037L28.1313 43.2949C28.1254 43.254 28.1531 43.2314 28.1714 43.2285L28.1821 43.2266Z" fill="#A88EC3" stroke="#A88EC3" stroke-width="0.6"/>
<path d="M26.5371 45.3701C26.5525 45.3683 26.5703 45.3721 26.585 45.3828C26.5992 45.3933 26.6049 45.406 26.6064 45.416C26.6083 45.4282 26.6056 45.4418 26.5967 45.4541C26.5878 45.4663 26.5767 45.4721 26.5664 45.4736L26.5205 45.4814L26.5078 45.4873H26.5088C26.4896 45.4923 26.462 45.5002 26.4277 45.5107C26.3591 45.5318 26.2644 45.5649 26.1523 45.6152C25.9283 45.716 25.6337 45.8862 25.3301 46.1699L25.3232 46.1768C25.3225 46.1775 25.321 46.1793 25.3174 46.1807C25.3132 46.1822 25.3055 46.1836 25.2949 46.1836H25.2881C25.2783 46.1836 25.268 46.1812 25.252 46.167C25.2416 46.1529 25.2361 46.1377 25.2363 46.124C25.2366 46.1099 25.2417 46.1016 25.248 46.0957L25.2529 46.0908C25.5878 45.7761 25.914 45.5939 26.1553 45.4912C26.2758 45.4399 26.3753 45.4088 26.4434 45.3906C26.4774 45.3815 26.5034 45.3762 26.5195 45.373C26.5237 45.3722 26.5269 45.3705 26.5293 45.3701H26.5371Z" fill="#A88EC3" stroke="#A88EC3" stroke-width="0.6"/>
<path d="M8.83232 42.1451C8.72316 41.9849 8.49755 41.9486 8.33744 42.0577C8.17733 42.1669 8.14094 42.3925 8.25011 42.5526C8.27922 42.589 10.972 46.5117 13.6501 55.2885C13.6938 55.4414 13.8394 55.536 13.9849 55.536C14.0213 55.536 14.0504 55.536 14.0868 55.5214C14.276 55.4632 14.3779 55.2667 14.3197 55.0775C11.6124 46.1914 8.93421 42.3052 8.81777 42.1451H8.83232Z" fill="#A88EC3" stroke="#A88EC3" stroke-width="0.6"/>
<path d="M25.7837 49.7168C27.2317 49.6834 28.0744 50.3385 28.8853 50.9756V50.9766C29.2161 51.2412 29.5451 51.4863 29.895 51.6807L29.9624 51.7188H31.5981C31.6068 51.7188 31.6194 51.7225 31.6313 51.7344C31.6432 51.7462 31.6468 51.7589 31.647 51.7676C31.647 51.7951 31.6248 51.8173 31.5981 51.8174H17.1812C17.1724 51.8174 17.159 51.8138 17.147 51.8018C17.135 51.7897 17.1313 51.7763 17.1313 51.7676C17.1316 51.7402 17.1545 51.7188 17.1812 51.7188H18.5464L18.6147 51.6807C18.9656 51.4857 19.2966 51.2313 19.6216 50.9785L19.6226 50.9775C20.4337 50.3402 21.276 49.6839 22.7241 49.7168C22.8999 49.7222 23.1433 49.7989 23.4097 49.918C23.6684 50.0336 23.919 50.1757 24.0991 50.2852L24.2544 50.3799L24.4106 50.2852C24.5906 50.1758 24.8405 50.0336 25.0991 49.918C25.3649 49.7992 25.608 49.7225 25.7837 49.7168ZM22.7114 49.8311C21.305 49.8017 20.4819 50.4471 19.689 51.0654C19.6526 51.0906 19.5759 51.1418 19.5181 51.1914L19.6987 51.4014V51.7188H29.7173L28.9556 51.1748C28.8838 51.1235 28.8547 51.1066 28.8169 51.0742L28.8071 51.0664L28.5083 50.834C27.8015 50.2947 27.0102 49.8033 25.7759 49.8311H25.7749C25.5762 49.8366 25.3275 49.9315 25.1128 50.0303C24.8837 50.1357 24.64 50.2709 24.4321 50.3994L24.4019 50.418L24.3774 50.4424C24.3519 50.4679 24.3325 50.4944 24.3188 50.5205H24.3198C24.3125 50.5239 24.2964 50.5293 24.269 50.5293H24.2261L24.2056 50.5254V50.4844L24.0601 50.3975C23.8559 50.275 23.6129 50.1384 23.3843 50.0312C23.27 49.9777 23.1539 49.929 23.0454 49.8936C22.9414 49.8596 22.8235 49.8301 22.7114 49.8301V49.8311Z" fill="#A88EC3" stroke="#A88EC3" stroke-width="0.6"/>
<path d="M47.3101 29.3596C46.9171 28.8792 46.4441 28.61 45.891 28.559C45.1268 28.4862 44.4427 28.8574 44.1079 29.083C44.1079 29.0175 44.1079 28.952 44.1079 28.8865H44.1152L44.8211 20.7137C44.8211 7.41009 37.6162 0.350748 23.9997 0.299805C23.9997 0.299805 23.9488 0.299805 23.9269 0.299805C23.9051 0.299805 23.876 0.299805 23.8542 0.299805C10.2304 0.350748 3.02547 7.41009 3.03274 20.7501L3.68046 28.821C3.32385 28.6536 2.87263 28.5154 2.37775 28.5663C1.83193 28.6172 1.3516 28.8865 0.958607 29.3668C-0.242209 30.8296 0.332727 35.793 1.60632 39.33C2.67614 42.2993 4.13167 44.1041 5.71093 44.4171C5.73276 44.4171 5.75459 44.4171 5.77643 44.4171C5.9147 44.4171 6.0457 44.3297 6.09664 44.1987C6.29314 45.516 6.49692 46.9133 6.69341 48.2815C6.9918 50.3848 7.90879 52.3352 9.33521 53.9144L16.5037 61.8544C18.1558 63.6884 20.521 64.7363 22.9881 64.7363H25.2515C27.7186 64.7363 30.0839 63.6884 31.7359 61.8544L38.9044 53.9072C40.3308 52.3279 41.2478 50.3775 41.5462 48.2742C41.7427 46.906 41.9465 45.5087 42.143 44.1842C42.2012 44.3152 42.3249 44.4025 42.4632 44.4025C42.485 44.4025 42.5068 44.4025 42.5287 44.4025C44.1079 44.0896 45.5707 42.2847 46.6333 39.3154C47.9069 35.7785 48.4818 30.8151 47.281 29.3523L47.3101 29.3596ZM46.0001 39.0825C45.0322 41.768 43.7295 43.4564 42.4195 43.7184C42.3395 43.733 42.2667 43.7839 42.223 43.8421C42.7543 40.2834 43.2128 37.3723 43.2201 37.3359C43.2492 37.1467 43.1182 36.9647 42.929 36.9356C42.7325 36.9065 42.5578 37.0375 42.5287 37.2267C42.5214 37.285 41.6262 42.9543 40.8766 48.1869C40.5928 50.1519 39.7413 51.964 38.4095 53.4414L31.241 61.3886C29.72 63.077 27.5439 64.0377 25.2733 64.0377H23.01C20.7393 64.0377 18.5706 63.0698 17.0495 61.3886L9.88104 53.4487C8.54922 51.9713 7.69046 50.1519 7.4139 48.1869C6.6643 42.9543 5.77643 37.285 5.76187 37.2267C5.73276 37.0375 5.55082 36.9065 5.3616 36.9356C5.17238 36.9647 5.0341 37.1467 5.07049 37.3359C5.07049 37.3796 5.53626 40.2834 6.06753 43.8421C6.01659 43.7839 5.95109 43.733 5.87104 43.7184C4.56106 43.4637 3.25835 41.768 2.29042 39.0825C0.878552 35.1526 0.718444 30.7933 1.52627 29.8035C1.79554 29.476 2.1012 29.2941 2.46509 29.2577C3.21469 29.1849 3.94973 29.7744 3.95701 29.7817C4.02979 29.8399 4.11712 29.869 4.20445 29.8617C4.25539 30.8879 4.40095 32.0814 4.68478 33.5006C4.72116 33.6679 4.86672 33.7844 5.0341 33.7844C5.05594 33.7844 5.07777 33.7844 5.0996 33.7844C5.28882 33.748 5.41254 33.5588 5.37615 33.3696C4.40095 28.428 5.04866 26.2811 5.76915 25.3496C6.27131 24.6946 6.80986 24.6509 6.83169 24.6509C6.93358 24.6509 7.02091 24.6 7.08641 24.5272C7.15191 24.4544 7.18102 24.3525 7.16646 24.2579C6.74436 20.6991 7.1883 17.8317 8.41094 16.1724C8.52739 16.0123 8.491 15.794 8.33817 15.6775C8.17806 15.5611 7.95973 15.5975 7.84329 15.7503C6.54786 17.5042 6.0457 20.4299 6.42414 24.0177C6.1112 24.1196 5.65271 24.3452 5.2306 24.8765C4.84488 25.3641 4.46645 26.1501 4.2845 27.3873L3.75323 20.7137C3.7314 7.84675 10.718 1.03485 23.9269 1.00574C37.1359 1.02757 44.1152 7.84675 44.1152 20.6918L43.6567 25.99C43.4821 25.5097 43.271 25.1458 43.0527 24.8692C42.6306 24.338 42.1721 24.1124 41.8591 24.0105C42.2376 20.4226 41.7354 17.4897 40.44 15.743C37.9001 12.308 35.0472 12.126 31.2556 12.9338C28.8248 13.4578 26.5251 13.9454 23.5267 13.8799C21.1323 13.829 19.0072 13.5233 17.0277 12.9484C16.7803 12.8756 16.5256 12.7956 16.2636 12.7155C14.859 12.2716 13.1196 11.7185 10.4996 11.8713C10.3031 11.8859 10.1576 12.046 10.1649 12.2425C10.1794 12.439 10.3395 12.5845 10.536 12.5772C13.0323 12.4317 14.6334 12.9411 16.0452 13.3923C16.3145 13.4797 16.5765 13.5597 16.8239 13.6325C18.8617 14.222 21.0523 14.5349 23.5048 14.5932C26.5833 14.6587 28.9194 14.1638 31.3938 13.6325C35.0036 12.8611 37.5435 13.0285 39.8651 16.1724C41.0877 17.8317 41.5316 20.6991 41.1095 24.2579C41.095 24.3525 41.1314 24.4544 41.1896 24.5272C41.2551 24.6 41.3424 24.6509 41.4443 24.6509C41.4661 24.6509 42.0047 24.6946 42.5068 25.3496C43.2273 26.2811 43.875 28.428 42.8998 33.3696C42.8635 33.5588 42.9872 33.748 43.1764 33.7844C43.1982 33.7844 43.2201 33.7844 43.2419 33.7844C43.4093 33.7844 43.5548 33.6679 43.5912 33.5006C43.8678 32.0887 44.0133 30.8879 44.0715 29.869C44.1589 29.869 44.2462 29.8472 44.319 29.7889C44.319 29.7889 45.054 29.1922 45.8109 29.2649C46.1675 29.3013 46.4805 29.476 46.7497 29.8108C47.5576 30.8005 47.3974 35.1526 45.9856 39.0898L46.0001 39.0825Z" fill="#A88EC3" stroke="#A88EC3" stroke-width="0.6"/>
<path d="M39.4356 42.1392C39.3265 42.2993 36.6483 46.1929 33.9337 55.0716C33.8755 55.2608 33.9846 55.4573 34.1666 55.5156C34.203 55.5228 34.2321 55.5301 34.2685 55.5301C34.4213 55.5301 34.5596 55.4355 34.6032 55.2827C37.2741 46.5204 39.9814 42.5831 40.0106 42.5467C40.1197 42.3866 40.0833 42.1683 39.9232 42.0519C39.7631 41.9427 39.5448 41.9791 39.4283 42.1392H39.4356Z" fill="#A88EC3" stroke="#A88EC3" stroke-width="0.6"/>
<path d="M12.1661 14.0116C12.3554 14.0552 12.5446 13.9315 12.5882 13.7423C12.6319 13.5531 12.5082 13.3639 12.319 13.3202C12.2171 13.2984 9.82272 12.8035 7.07904 14.2299C6.90438 14.3172 6.83888 14.5356 6.92621 14.703C6.99171 14.8267 7.11543 14.8922 7.23915 14.8922C7.29737 14.8922 7.34832 14.8776 7.39926 14.8558C9.91006 13.5531 12.1443 14.0116 12.1661 14.0116Z" fill="#A88EC3" stroke="#A88EC3" stroke-width="0.6"/>
<path d="M11.2714 28.8935C14.6701 29.221 17.2609 29.8615 17.2827 29.8688C17.4065 29.8979 17.5302 29.8688 17.6175 29.7741C17.7048 29.6868 17.7412 29.5558 17.7049 29.4321L17.3701 28.1803C17.3191 27.9911 17.1226 27.882 16.9407 27.9329C16.7515 27.9838 16.6423 28.1803 16.6933 28.3623L16.8752 29.0537C15.9145 28.8426 13.8404 28.4351 11.3369 28.1949C9.85952 28.0493 8.35304 28.6097 7.45061 29.0391C7.83632 28.1876 8.60048 26.9431 9.83041 26.6156C12.3048 25.9534 17.0717 27.2488 18.0251 27.5253L18.731 29.8979C18.7747 30.0507 18.9202 30.1526 19.0731 30.1526C19.1094 30.1526 19.1386 30.1526 19.1749 30.138C19.3642 30.0798 19.466 29.8833 19.4151 29.7014L18.6582 27.1469C18.6582 27.1469 18.6437 27.1251 18.6437 27.1178C18.6364 27.096 18.6218 27.0741 18.6146 27.0596C18.6 27.0377 18.5854 27.0232 18.5709 27.0086C18.5563 26.9941 18.5418 26.9795 18.5199 26.965C18.4981 26.9504 18.4763 26.9431 18.4545 26.9286C18.4399 26.9286 18.4326 26.914 18.4253 26.914C18.1925 26.8412 12.6032 25.1601 9.66302 25.9461C7.34872 26.5647 6.50451 29.5849 6.46812 29.7159C6.43173 29.8542 6.48268 30.007 6.59912 30.0944C6.66462 30.138 6.73739 30.1671 6.81017 30.1671C6.87567 30.1671 6.94117 30.1526 6.99939 30.1162C7.02122 30.1016 9.24819 28.7189 11.2932 28.9154L11.2714 28.8935Z" fill="#A88EC3" stroke="#A88EC3" stroke-width="0.3"/>
<path d="M26.9463 27.1807C26.9781 27.1854 26.9958 27.2135 26.9922 27.2383V27.2393L26.6074 29.7891C26.6045 29.8066 26.596 29.8182 26.5879 29.8252C26.5798 29.832 26.5687 29.8369 26.5537 29.8369H26.5381C26.5118 29.8287 26.4975 29.8047 26.501 29.7822V29.7812L26.8867 27.2275V27.2266C26.8897 27.2066 26.899 27.1947 26.9072 27.1885C26.9154 27.1826 26.9277 27.1779 26.9463 27.1807Z" fill="#A88EC3" stroke="#A88EC3" stroke-width="0.6"/>
<path d="M37.4494 25.9305C34.5092 25.1445 28.9272 26.8256 28.687 26.8984C28.6725 26.8984 28.6652 26.913 28.6507 26.913C28.6288 26.9202 28.607 26.9348 28.5924 26.9421C28.5706 26.9566 28.556 26.9712 28.5415 26.9857C28.5269 27.0003 28.5124 27.0148 28.4978 27.0367C28.4833 27.0585 28.476 27.0731 28.4614 27.1022C28.4614 27.1167 28.4469 27.124 28.4469 27.1313L27.69 29.6857C27.6318 29.875 27.7409 30.0715 27.9302 30.1224C27.9666 30.1297 27.9957 30.137 28.032 30.137C28.1849 30.137 28.3232 30.0351 28.3741 29.8822L29.08 27.5097C30.0334 27.2332 34.793 25.9377 37.2747 26.6C38.5046 26.9275 39.2615 28.172 39.6545 29.0235C38.7448 28.5941 37.2456 28.0337 35.7682 28.1793C33.2647 28.4194 31.1978 28.8343 30.2299 29.038L30.4118 28.3467C30.4628 28.1574 30.3536 27.9682 30.1644 27.9173C29.9752 27.8663 29.7787 27.9755 29.735 28.1647L29.4003 29.4165C29.3711 29.5402 29.4003 29.6639 29.4876 29.7585C29.5749 29.8459 29.7059 29.8822 29.8224 29.8531C29.8515 29.8531 32.435 29.2054 35.8337 28.8779C37.8715 28.6814 40.1057 30.0642 40.1275 30.0787C40.1858 30.1151 40.2513 30.1297 40.3168 30.1297C40.3895 30.1297 40.4623 30.1078 40.5278 30.0569C40.6443 29.9696 40.6952 29.824 40.6588 29.6785C40.6224 29.5475 39.7709 26.5272 37.4639 25.9086L37.4494 25.9305Z" fill="#A88EC3" stroke="#A88EC3" stroke-width="0.3"/>
</svg>
