<svg width="48" height="50" viewBox="0 0 48 50" fill="none" xmlns="http://www.w3.org/2000/svg">
<path d="M47.0589 18.1807H24.598C21.9418 18.1807 19.32 19.0744 17.2148 20.6974C6.77524 28.8303 6.62894 28.6635 6.12628 29.4869L1.24366 35.5353C0.864207 36.0062 0.642507 36.5776 0.605933 37.1834L0.00934276 47.1543C-0.114095 48.567 1.0014 49.7854 2.42092 49.7854C3.70785 49.7854 4.77077 48.7773 4.8325 47.5567L5.31025 44.6764C5.52512 46.064 6.9972 46.8777 8.29331 46.2948C9.18706 45.8902 9.68996 44.9347 9.51394 43.977L9.26478 42.4958C10.8511 43.0421 12.3301 41.6683 12.0467 40.1093L11.6421 37.8874C11.5826 37.5697 11.2718 37.3617 10.9609 37.4166C10.6431 37.4737 10.4328 37.78 10.49 38.0978L10.8946 40.3196C10.9746 40.7562 10.7483 41.1883 10.3437 41.3689C9.78593 41.6226 9.09332 41.3003 8.99045 40.6008C8.97445 40.5231 8.38701 37.5629 8.40299 37.6429C10.3528 37.1377 13.105 36.2279 15.263 34.7422L10.3622 45.5587C9.81356 46.7702 10.2593 48.2011 11.3976 48.8892C12.6823 49.6618 14.3395 49.2115 15.0573 47.8994L18.6186 41.3846L22.1663 39.5513C24.7013 38.2415 26.3997 35.6608 26.5963 32.8147L26.6168 32.5221C26.6603 31.8935 27.1883 31.3974 27.8283 31.3929L42.3729 31.0363C42.6952 31.0294 42.9513 30.7597 42.9444 30.4374C42.9375 30.1197 42.677 29.8659 42.3592 29.8659C42.2792 29.8659 30.6439 30.1448 30.5667 30.1517L32.7817 25.5388C32.9052 25.4039 33.1063 25.3673 33.2709 25.4565L34.8344 26.3091C35.5842 26.7183 36.5214 26.5011 37.0152 25.8085L38.2769 24.037C38.4644 23.7741 38.4026 23.4084 38.1398 23.2209C37.8769 23.0312 37.5089 23.0952 37.3237 23.3581L36.062 25.1296C35.9088 25.3422 35.6231 25.4085 35.3945 25.2828L33.831 24.4302C33.1429 24.0576 32.2743 24.2496 31.8103 24.8828C31.7509 24.9651 31.6617 25.1776 29.2524 30.1883L27.8077 30.2225C26.5711 30.2317 25.5333 31.2055 25.4488 32.4399C25.4236 32.5222 25.5013 36.1041 22.1114 38.2208C22.1023 37.8939 21.9766 37.9054 21.1925 36.6687C21.1057 36.5384 21.1468 36.3579 21.2931 36.2824L22.1069 35.8687C22.7126 35.5601 23.0326 34.8835 22.8863 34.2206L22.5069 32.4627C22.4383 32.1473 22.1274 31.9484 21.812 32.0147C21.4965 32.0833 21.2954 32.3942 21.3639 32.7096L21.7457 34.4652C21.7777 34.6092 21.7068 34.7532 21.5765 34.8218L20.7651 35.2355C20.0016 35.6241 19.741 36.5979 20.221 37.3157C21.0988 38.5821 20.9982 38.5706 21.2268 38.7169L17.9238 40.4244C17.6289 40.5753 17.8415 40.4382 14.031 47.3349C13.6333 48.0595 12.7121 48.311 12.0035 47.8835C11.3726 47.5017 11.1257 46.7085 11.4297 46.0388L17.5285 32.5773C17.6519 32.3052 17.549 31.983 17.2907 31.8321C17.0347 31.6789 16.7033 31.7498 16.525 31.9875C15.6335 33.1899 14.2071 34.1363 12.6847 34.87L13.4687 33.6402C13.9191 32.9316 13.4116 32.0035 12.5704 32.0035H10.9657L11.7315 31.1897C11.9578 30.9497 12.0812 30.6343 12.0789 30.2525L11.7315 26.4008L14.6916 24.1196L15.7866 26.3026C15.894 26.5175 15.8597 26.7781 15.6974 26.9541C15.1488 27.5575 15.0437 27.7107 14.9888 27.809C14.902 27.9644 14.758 28.225 15.1443 30.2365C15.206 30.5611 15.5237 30.7623 15.8301 30.7006C16.1478 30.6389 16.3558 30.3326 16.2941 30.0148C16.1729 29.3885 16.0586 28.609 16.0564 28.321C16.1204 28.241 16.2621 28.0718 16.5615 27.7427C17.0461 27.2101 17.1535 26.4214 16.8313 25.7768C16.3581 24.8419 15.7295 23.5664 15.6266 23.3972L17.9262 21.6257C19.828 20.1605 22.1962 19.3535 24.5961 19.3535H27.5654V22.4966C27.5654 22.7435 27.3642 22.9447 27.1173 22.9447H24.5023C23.8508 22.9447 23.2679 23.3355 23.0188 23.939L21.949 26.5403C21.8255 26.8398 21.9696 27.1804 22.2667 27.3038C22.5593 27.4249 22.9044 27.2901 23.0302 26.9861L24.1 24.3847C24.1663 24.2224 24.324 24.115 24.5 24.115H27.115C28.0065 24.115 28.7334 23.3881 28.7334 22.4966V19.3536H47.0548C47.3771 19.3536 47.6399 19.0907 47.6399 18.7684C47.6445 18.4438 47.3812 18.1807 47.0589 18.1807ZM8.36166 44.1803C8.44166 44.6169 8.21536 45.049 7.81076 45.2296C7.23244 45.4924 6.55585 45.129 6.4621 44.4912L5.93864 40.8795L6.40038 38.0908C6.61754 38.0497 6.91699 37.9902 7.26674 37.9125C7.28046 37.9925 8.43709 44.6011 8.36166 44.1803ZM10.9127 30.3027C10.9127 30.3919 10.9287 30.3187 9.78803 31.5485C9.21428 32.1589 9.64402 33.1715 10.4921 33.1715H12.3802C11.091 35.2676 10.9493 35.2448 10.9561 35.6036C8.30454 36.5979 5.84492 36.998 5.8015 37.0048C5.55234 37.0437 5.35576 37.238 5.31461 37.4871L3.67336 47.4282C3.63908 48.0934 3.08818 48.6123 2.42301 48.6123C1.70751 48.6123 1.11092 48.0111 1.17723 47.2362L1.7761 37.2494C1.79667 36.8883 1.92925 36.5477 2.15555 36.2665L7.07702 30.1607C7.44276 29.5778 7.65991 29.587 10.6338 27.2416L10.9127 30.3027Z" fill="#A88EC3"/>
<path d="M5.63477 0.394531C5.74034 0.210257 5.9734 0.145034 6.16113 0.249023L8.58398 1.61426C8.77109 1.71906 8.83343 1.95634 8.72852 2.1377L8.72656 2.13965L8.43652 2.65625L8.33887 2.8291L8.51172 2.92773C12.1489 5.00807 13.9585 5.99003 14.9258 6.53418C15.4121 6.80779 15.6786 6.96652 15.8594 7.09766C16.0311 7.22225 16.1254 7.323 16.2646 7.48535L17.4707 9.32129C17.9252 10.0179 17.4218 10.9453 16.5908 10.9453H14.4053C14.3452 10.9452 14.1591 10.9122 13.9092 10.834C13.6665 10.758 13.3881 10.6477 13.1494 10.5107L13.1465 10.5088L13.083 10.4746C13.0801 10.4731 13.069 10.4673 13.0586 10.4629C13.0574 10.4624 13.0557 10.4608 13.0537 10.46C13.0183 10.44 12.9708 10.4133 12.9082 10.3779C12.388 10.0839 10.8208 9.19884 6.38867 6.69922L6.21484 6.60059L6.11621 6.77539L5.9082 7.14258C5.83766 7.26712 5.70734 7.33879 5.57324 7.33887C5.52404 7.33887 5.49453 7.33446 5.44141 7.31348C5.3767 7.28788 5.2832 7.23896 5.11035 7.14062C4.77136 6.94776 4.16154 6.58643 2.96289 5.9248C2.77763 5.81922 2.71338 5.58383 2.81738 5.39844L2.81641 5.39746L5.63477 0.394531ZM7.86523 3.67578L6.69336 5.75586L6.59473 5.92969L6.76855 6.02832L13.4893 9.81836L13.4961 9.82227L13.5039 9.82617C13.563 9.85321 13.8644 10.0482 14.4248 10.1709L14.4463 10.1748H16.5938C16.8216 10.1745 16.9452 9.92317 16.8271 9.74219L15.6562 7.9502L15.6475 7.93652L15.6367 7.9248C15.4514 7.7218 15.3148 7.63439 14.3838 7.11328C13.4407 6.58541 11.6585 5.60122 8.13867 3.59961L7.96387 3.50098L7.86523 3.67578ZM6.02051 1.28223L3.77539 5.2666L3.67773 5.44043L3.85254 5.53906L5.25586 6.32812L5.42969 6.42578L5.52734 6.25195L7.77246 2.26953L7.87109 2.0957L7.69629 1.99707L6.29297 1.20605L6.11914 1.1084L6.02051 1.28223Z" fill="#A88EC3" stroke="#A88EC3" stroke-width="0.4"/>
<path d="M18.623 12.1777C18.8198 12.2077 19.0299 12.3684 19.2373 12.6416C19.4421 12.9114 19.6324 13.2753 19.793 13.6807C20.1147 14.493 20.311 15.449 20.2832 16.1006C20.2375 17.1895 19.3352 18.0457 18.2549 18.0459C17.0957 18.0459 16.1735 17.0849 16.2236 15.9258C16.2462 15.3953 16.551 14.9788 16.9238 14.4893C17.2922 14.0056 17.7183 13.4603 17.9219 12.6943C18.0339 12.2735 18.3558 12.1373 18.623 12.1777ZM18.5713 13.7324C18.3204 14.2623 17.9883 14.6979 17.7119 15.0596C17.5751 15.2386 17.4495 15.4026 17.3574 15.5488C17.2669 15.6927 17.1983 15.8352 17.1924 15.9697C17.1671 16.5474 17.6113 17.05 18.207 17.0752H18.2109C18.8731 17.0752 19.2897 16.5889 19.3125 16.0605C19.3454 15.2964 19.0331 14.3442 18.752 13.7334L18.6631 13.5391L18.5713 13.7324Z" fill="#A88EC3" stroke="#A88EC3" stroke-width="0.2"/>
</svg>
