<svg width="56" height="49" viewBox="0 0 56 49" fill="none" xmlns="http://www.w3.org/2000/svg">
<path d="M52.5898 30.1006C53.8466 30.1006 54.8651 31.1192 54.8652 32.376C54.8652 33.5304 53.9946 34.4785 52.8857 34.6182V44.0146C52.8855 46.634 50.7532 48.7666 48.1338 48.7666H33.2305C30.6113 48.7664 28.4788 46.6338 28.4785 44.0146V34.626C27.3627 34.4791 26.4902 33.5314 26.4902 32.376C26.4904 31.1193 27.509 30.1008 28.7656 30.1006H52.5898ZM30.0557 44.0146C30.0559 45.7653 31.48 47.1807 33.2227 47.1807H48.125C49.8757 47.1807 51.2918 45.7572 51.292 44.0146V34.6514H30.0557V44.0146ZM28.7656 31.6865C28.386 31.6867 28.0764 31.9963 28.0762 32.376C28.0762 32.7558 28.3858 33.0662 28.7656 33.0664H52.5898C52.9703 33.0664 53.2785 32.7561 53.2715 32.3789V32.376C53.2713 31.9963 52.9617 31.6867 52.582 31.6865H28.7656Z" fill="#A88EC3" stroke="#A88EC3" stroke-width="0.3"/>
<path d="M43.4938 8.97267H44.445V15.1773C44.445 15.5286 44.7364 15.82 45.0878 15.82C45.4391 15.82 45.7305 15.5286 45.7305 15.1773V13.9946H46.6818C50.4011 13.9946 53.4263 10.9695 53.4263 7.25012V5.65613C53.4263 5.30476 53.1349 5.01338 52.7835 5.01338H51.1895C48.9442 5.01338 46.9646 6.1189 45.7305 7.80717V6.73593C45.7305 3.0166 42.7053 0 38.9946 0H37.4006C37.0492 0 36.7578 0.291376 36.7578 0.642742V2.23674C36.7493 5.9475 39.7744 8.97267 43.4938 8.97267ZM51.181 6.29887H52.1322V7.25012C52.1322 10.2582 49.6812 12.7091 46.6732 12.7091H46.6303L48.6186 10.7209C48.8671 10.4724 48.8671 10.061 48.6186 9.81252C48.37 9.56399 47.9587 9.56399 47.7101 9.81252L45.7219 11.8007V11.7579C45.7305 8.74986 48.1729 6.29887 51.181 6.29887ZM38.0347 1.28548H38.986C41.994 1.28548 44.4364 3.7279 44.4364 6.73593V6.77878L42.4482 4.79057C42.1997 4.54204 41.7884 4.54204 41.5398 4.79057C41.2913 5.03909 41.2913 5.45045 41.5398 5.69897L43.528 7.68719H43.4852C40.4772 7.68719 38.0262 5.2362 38.0262 2.22817V1.28548H38.0347Z" fill="#A88EC3"/>
<path d="M12.2402 21.0781C12.5473 20.7625 13.0533 20.7625 13.3604 21.0781L13.415 21.1377C13.6668 21.4475 13.6482 21.9104 13.3604 22.1982C12.784 22.7746 12.0093 23.0996 11.1895 23.0996C10.3705 23.0996 9.59403 22.7837 9.0166 22.1973V22.1963C8.71129 21.8891 8.71125 21.3847 9.01758 21.0781C9.32468 20.771 9.83157 20.771 10.1387 21.0781C10.6972 21.6363 11.6819 21.6365 12.2402 21.0781Z" fill="#A88EC3" stroke="#A88EC3" stroke-width="0.3"/>
<path d="M47.8164 37.3525C48.2505 37.3526 48.6093 37.7114 48.6094 38.1455V43.6816C48.6094 44.1158 48.2506 44.4746 47.8164 44.4746H33.5645C33.1218 44.4745 32.7715 44.1244 32.7715 43.6816V38.1455C32.7716 37.7114 33.1304 37.3526 33.5645 37.3525H47.8164ZM34.3574 42.8887H47.0234V38.9385H34.3574V42.8887Z" fill="#A88EC3" stroke="#A88EC3" stroke-width="0.3"/>
<path d="M12.6758 2.8418C18.6273 0.5441 25.3476 1.36487 30.6328 5.03516C35.8912 8.68774 38.8641 14.4065 38.7871 20.7207L38.7803 21.1426C38.7759 21.2843 38.7694 21.4275 38.7607 21.5703V21.5713L38.752 21.6992V21.708L38.6025 21.6895L38.751 21.708C38.6998 22.1255 38.3309 22.4908 37.8848 22.4473V22.4463C37.4986 22.4156 37.1782 22.1277 37.166 21.7266L37.167 21.6445C37.1672 21.6412 37.1679 21.6386 37.168 21.6377C37.1683 21.6337 37.1685 21.6289 37.1689 21.624C37.1698 21.6142 37.1708 21.6015 37.1719 21.5898C37.1729 21.5781 37.174 21.5664 37.1748 21.5576C37.1752 21.5533 37.1756 21.5501 37.1758 21.5479V21.54L37.2021 21.1113C37.2074 20.9764 37.21 20.8474 37.21 20.7207V20.7197C37.2758 15.1233 34.7277 10.0291 30.1797 6.67188L29.7324 6.35254C24.8796 2.97859 18.719 2.22233 13.2471 4.33789C12.3102 4.69986 11.5497 5.06184 11.0234 5.33398C10.7605 5.46999 10.5558 5.58426 10.417 5.66406C10.3478 5.70381 10.2952 5.73536 10.2598 5.75684C10.242 5.76762 10.2274 5.77581 10.2188 5.78125L10.2168 5.78418L10.1992 5.79395C9.41866 6.23878 8.99804 6.72457 8.88281 7.23926C8.80919 7.56883 8.86255 7.87469 8.9375 8.10254C8.97481 8.21591 9.01722 8.30862 9.0498 8.37305C9.06596 8.40497 9.07999 8.42987 9.08984 8.44727C9.09529 8.45689 9.09874 8.46208 9.10254 8.46875C9.10391 8.47116 9.10555 8.47502 9.10742 8.47852C9.10807 8.47973 9.10879 8.48307 9.11035 8.48633C9.29865 8.78007 9.27503 9.16022 9.04785 9.42871L9.04688 9.42969C6.57787 12.2982 5.83944 14.8277 5.72266 16.6543C5.60581 18.4828 6.11114 19.6193 6.14746 19.6992H6.14551C6.1558 19.7181 6.16651 19.7367 6.17285 19.7539L6.1875 19.7998L6.18945 19.8037C6.63364 21.27 6.12233 22.3461 5.72559 22.7617L5.72461 22.7607L1.82617 26.9414C1.7567 27.0404 1.73667 27.1138 1.73145 27.1602C1.72624 27.2068 1.73538 27.2379 1.74219 27.2617L1.76172 27.3145C1.78671 27.3689 1.82732 27.4289 1.88477 27.4922C1.96034 27.5754 2.05818 27.6571 2.16504 27.7334C2.37648 27.8844 2.61196 28.0032 2.75879 28.0596C2.87097 28.0909 3.2226 28.2058 3.58105 28.4326C3.94624 28.6638 4.33984 29.0257 4.46875 29.5557C4.52119 29.7705 4.53719 30.0425 4.44238 30.3506C4.3476 30.6586 4.14482 30.9934 3.77344 31.3379L3.76953 31.3418C3.74368 31.364 3.69124 31.4125 3.65039 31.4648C3.63 31.491 3.61662 31.5137 3.60938 31.5303C3.60306 31.5448 3.60592 31.5455 3.60547 31.5371C3.6116 31.5606 3.63745 31.609 3.70605 31.6797C3.77423 31.7499 3.86997 31.8273 3.98438 31.9053C4.213 32.0611 4.50173 32.2095 4.75977 32.3037H4.75879C5.12915 32.4316 5.33937 32.8026 5.27637 33.1807C5.22524 33.4873 4.98935 33.7298 4.69922 33.8057C4.65124 33.8413 4.52277 33.9532 4.31934 34.2285C4.36175 34.254 4.41267 34.282 4.4707 34.3096C4.59192 34.3671 4.7306 34.4187 4.85645 34.4502H4.85547C4.97955 34.4763 5.08705 34.5373 5.1748 34.6123L5.25684 34.6924L5.25879 34.6943C6.23297 35.8233 5.76634 37.0372 5.38184 37.5312C4.97915 38.1432 5.05182 38.7072 5.24219 39.1416C5.43437 39.58 5.74595 39.8818 5.8125 39.9443C5.8578 39.9814 5.90105 40.0247 5.93652 40.0811H5.9375C5.96793 40.1255 6.03504 40.1774 6.16016 40.2236C6.28295 40.2689 6.44667 40.3037 6.64746 40.3262C7.04852 40.3709 7.57689 40.3644 8.18164 40.3145C9.39022 40.2146 10.8811 39.9425 12.2188 39.5762L12.2236 39.5742C13.698 39.2211 14.8301 39.6353 15.1562 39.7803H15.1553C15.5437 39.8992 15.9242 40.256 16.2871 40.7402C16.6606 41.2387 17.0349 41.8973 17.3994 42.6436C17.9465 43.7635 18.476 45.0936 18.9492 46.4053L19.4023 47.7021V47.7031C19.5394 48.1143 19.3194 48.5688 18.9053 48.707L18.9043 48.7061C18.8165 48.7381 18.731 48.749 18.6514 48.749C18.3218 48.7489 18.0176 48.5367 17.9023 48.2119L17.9014 48.21C17.3758 46.6502 16.7219 44.9816 16.1201 43.665C15.8191 43.0064 15.5322 42.4388 15.2822 42.0176C15.1571 41.8068 15.043 41.6354 14.9424 41.5088C14.8529 41.3962 14.7823 41.3313 14.7334 41.2998C14.701 41.2983 14.6692 41.2954 14.6367 41.2852C14.6003 41.2736 14.5661 41.2531 14.5381 41.2373C14.5322 41.2351 14.5272 41.2337 14.5264 41.2334C14.5176 41.2299 14.5074 41.2259 14.4941 41.2207C14.4678 41.2103 14.4309 41.1956 14.3838 41.1797C14.2895 41.1477 14.1543 41.1083 13.9854 41.0771C13.6481 41.015 13.1757 40.985 12.623 41.1152L12.624 41.1162C11.8753 41.3228 10.2418 41.7306 8.63184 41.8818C7.82732 41.9574 7.02092 41.9696 6.33105 41.8574C5.64974 41.7467 5.05583 41.5096 4.70117 41.0645C4.31411 40.6929 3.85519 40.0627 3.64551 39.2861C3.43308 38.4994 3.47773 37.5655 4.10352 36.6133L4.10645 36.6084C4.20063 36.4749 4.3582 36.2086 4.18262 35.8906C3.97099 35.8173 3.69618 35.7014 3.43945 35.5293C3.15851 35.3409 2.88711 35.0788 2.75195 34.7266L2.75098 34.7256C2.5948 34.3059 2.66689 33.861 2.92969 33.4668C2.9918 33.3709 3.05365 33.2855 3.1123 33.208C2.65529 32.8946 2.18832 32.4426 2.05957 31.8418V31.8408C1.97289 31.4171 2.01972 30.797 2.69531 30.167L2.69727 30.165C2.81781 30.0565 2.88017 29.976 2.91016 29.9258C2.91448 29.9185 2.91603 29.9109 2.91895 29.9053C2.91274 29.8986 2.90451 29.8898 2.89355 29.8799C2.85612 29.8459 2.80235 29.8059 2.73535 29.7646C2.60087 29.682 2.42816 29.602 2.2666 29.5547L2.25781 29.5527V29.5518C2.14254 29.5102 1.72533 29.3445 1.29297 29.0449C0.916254 28.7838 0.512346 28.4105 0.298828 27.916L0.219727 27.6963C0.0967938 27.2799 0.0749103 26.6386 0.603516 25.9277L0.608398 25.9209L0.614258 25.915L4.57324 21.6641L4.58203 21.6543C4.5831 21.653 4.58445 21.6514 4.58594 21.6494C4.59462 21.6379 4.60832 21.6188 4.62402 21.5918C4.65531 21.5379 4.69487 21.4545 4.72656 21.3418C4.78935 21.1182 4.82171 20.7735 4.68555 20.3057C4.40674 19.6459 2.58472 14.8216 7.50195 8.77441C7.32634 8.3248 7.16084 7.63596 7.33887 6.86426L7.38672 6.68066C7.65397 5.77703 8.3357 5.01472 9.38184 4.41602L9.62695 4.27051C10.0842 4.00791 11.1583 3.42941 12.6758 2.8418Z" fill="#A88EC3" stroke="#A88EC3" stroke-width="0.3"/>
<path d="M43.1484 17.75C43.4443 17.6021 43.8031 17.6552 44.0459 17.8857C44.1079 17.943 44.7803 18.5898 45.4736 19.6113C46.1463 20.6025 46.8451 21.958 47.0176 23.4766H47.0898C48.1268 23.4766 49.0663 23.9829 49.5908 24.8232L49.6904 24.9961V24.9971C49.8813 25.363 49.9896 25.7458 50.0059 26.1328C51.1788 26.1338 52.2464 26.8302 52.6748 27.8613L52.752 28.0713V28.0732C52.8778 28.4829 52.6582 28.9234 52.2402 29.0625L52.2412 29.0635H52.2383C52.2372 29.0638 52.2364 29.0651 52.2354 29.0654L52.2344 29.0645C52.149 29.0956 52.0727 29.1064 51.9912 29.1064C51.664 29.1063 51.3468 28.8964 51.2402 28.5566C51.0823 28.0688 50.5793 27.7188 50.0029 27.7188H49.0859C48.8309 27.7186 48.5881 27.5908 48.4404 27.3799C48.2904 27.1652 48.2607 26.8975 48.3643 26.6387C48.4844 26.3135 48.4627 26.0336 48.3037 25.7295L48.21 25.585C47.9656 25.2631 47.5495 25.0539 47.0986 25.0537H46.2754C46.0638 25.0537 45.8626 24.969 45.7148 24.8213V24.8203C45.5533 24.6671 45.4824 24.4549 45.4824 24.252V24.249C45.5127 22.8199 44.8227 21.4635 44.1533 20.4805C43.4672 23.1469 40.911 25.0614 38.0059 25.0615H34.2861C33.8325 25.0615 33.4118 25.2666 33.1729 25.5898L33.082 25.7354C32.9413 26.0033 32.9071 26.2527 32.9824 26.5303L33.0215 26.6504L33.0225 26.6533C33.1059 26.8931 33.0757 27.1668 32.9268 27.3799C32.7791 27.5908 32.5363 27.7186 32.2812 27.7188H31.3643C30.7876 27.7188 30.2847 28.0694 30.127 28.5576C29.9989 28.9781 29.5478 29.2089 29.1357 29.0742V29.0752C28.7117 28.948 28.4781 28.4925 28.6162 28.0781C28.9887 26.935 30.1094 26.1431 31.3604 26.1416C31.3763 25.7491 31.4855 25.3715 31.6768 25.0049C32.1671 24.0698 33.1713 23.4854 34.2773 23.4854H37.9971C40.2306 23.4853 42.1784 22.0014 42.6328 19.9854C42.7409 19.503 42.7733 19.0236 42.7158 18.5547L42.71 18.4287C42.7201 18.1385 42.8905 17.879 43.1484 17.75Z" fill="#A88EC3" stroke="#A88EC3" stroke-width="0.3"/>
</svg>
