<svg width="44" height="30" viewBox="0 0 44 30" fill="none" xmlns="http://www.w3.org/2000/svg">
<path d="M3.25503 2.01204C3.3598 1.99034 13.5377 -0.116698 18.0622 4.84227C18.2001 4.99337 18.3933 5.08425 18.5992 5.09492C18.8051 5.10559 19.0068 5.03517 19.1601 4.89917C19.3133 4.76316 19.4055 4.5727 19.4163 4.36969C19.4271 4.16667 19.3557 3.96774 19.2178 3.81664C14.0874 -1.80562 3.37879 0.416326 2.92474 0.514027C2.72328 0.557212 2.54746 0.677542 2.43597 0.848545C2.32448 1.01955 2.28645 1.22722 2.33025 1.42587C2.37404 1.62451 2.49608 1.79787 2.66951 1.9078C2.84294 2.01773 3.05356 2.05523 3.25503 2.01204Z" fill="#A88EC3"/>
<path d="M24.8594 5.09603C24.9684 5.09615 25.0762 5.07361 25.1757 5.02988C25.2753 4.98615 25.3644 4.92221 25.4372 4.84224C29.9639 -0.116727 40.1411 1.99069 40.2443 2.01202C40.4458 2.0552 40.6564 2.0177 40.8298 1.90777C41.0033 1.79784 41.1253 1.62449 41.1691 1.42584C41.2129 1.22719 41.1749 1.01952 41.0634 0.848516C40.9519 0.677513 40.7761 0.557184 40.5746 0.513998C40.1206 0.416673 29.4135 -1.80603 24.2816 3.81661C24.1811 3.92675 24.1151 4.06326 24.0916 4.20961C24.0681 4.35597 24.0881 4.5059 24.1493 4.64126C24.2104 4.77663 24.31 4.89162 24.436 4.97233C24.5621 5.05304 24.7091 5.09601 24.8594 5.09603Z" fill="#A88EC3"/>
<path d="M2.70944 11.5432C3.01765 11.6446 4.58771 10.3524 4.86199 10.2094C5.40765 10.4682 5.9719 10.6869 6.55016 10.8639L5.83988 12.0605C5.73577 12.236 5.70664 12.4451 5.7589 12.6418C5.81115 12.8385 5.94052 13.0067 6.11853 13.1093C6.29654 13.212 6.50861 13.2407 6.7081 13.1892C6.90759 13.1376 7.07815 13.0101 7.18225 12.8346L8.12644 11.2439C8.77446 11.3588 9.42947 11.4313 10.0872 11.4608V13.015C10.0869 13.1159 10.1067 13.2158 10.1457 13.3091C10.1846 13.4024 10.2418 13.4872 10.314 13.5587C10.3863 13.6301 10.4721 13.6868 10.5666 13.7255C10.6611 13.7641 10.7624 13.784 10.8647 13.784C10.967 13.784 11.0683 13.7641 11.1628 13.7255C11.2573 13.6868 11.3431 13.6301 11.4153 13.5587C11.4875 13.4872 11.5448 13.4024 11.5837 13.3091C11.6226 13.2158 11.6425 13.1159 11.6422 13.015V11.4608C12.2999 11.4312 12.9549 11.3588 13.6029 11.2439L14.5471 12.8346C14.6534 13.0057 14.8235 13.1289 15.0209 13.1778C15.2183 13.2266 15.4272 13.1973 15.6029 13.0959C15.7786 12.9946 15.907 12.8294 15.9605 12.6359C16.0141 12.4423 15.9885 12.2357 15.8894 12.0604L15.1791 10.8639C15.7574 10.6869 16.3217 10.4682 16.8673 10.2094L18.5704 11.4017C18.7386 11.5191 18.9471 11.5659 19.1503 11.5319C19.3534 11.4978 19.5346 11.3856 19.6539 11.2199C19.7732 11.0543 19.8209 10.8487 19.7866 10.6484C19.7523 10.448 19.6388 10.2693 19.4709 10.1514L18.3502 9.36683C18.6476 9.16878 18.9282 8.94722 19.1892 8.70433C19.3303 8.55964 19.4083 8.36614 19.4063 8.16541C19.4043 7.96467 19.3225 7.77272 19.1786 7.63078C19.0346 7.48884 18.8399 7.40824 18.6363 7.40629C18.4327 7.40434 18.2365 7.4812 18.0898 7.62036C16.8619 8.59456 15.4237 9.27793 13.8859 9.61785C9.29063 10.7897 4.64006 8.73628 3.6373 7.61787C3.49011 7.47968 3.2939 7.4038 3.09068 7.40647C2.88745 7.40914 2.69337 7.49015 2.54996 7.63216C2.40656 7.77417 2.32524 7.96589 2.32341 8.16628C2.32158 8.36667 2.39938 8.5598 2.54017 8.70433C2.80116 8.94723 3.08176 9.1688 3.3792 9.36683L2.25844 10.1514C2.12707 10.2473 2.02943 10.3813 1.97924 10.5347C1.92904 10.688 1.92879 10.853 1.97854 11.0065C2.02828 11.16 2.12551 11.2943 2.2566 11.3906C2.38768 11.4868 2.54603 11.5402 2.70944 11.5432Z" fill="#A88EC3"/>
<path d="M24.479 11.5432C24.7872 11.6446 26.3572 10.3524 26.6315 10.2094C27.1772 10.4682 27.7414 10.6869 28.3197 10.8639L27.6094 12.0605C27.5053 12.236 27.4762 12.4451 27.5284 12.6418C27.5807 12.8385 27.71 13.0067 27.8881 13.1093C28.0661 13.212 28.2781 13.2407 28.4776 13.1892C28.6771 13.1376 28.8477 13.0101 28.9518 12.8346L29.896 11.2439C30.544 11.3588 31.199 11.4313 31.8567 11.4608V13.015C31.8564 13.1159 31.8763 13.2158 31.9152 13.3091C31.9541 13.4024 32.0113 13.4872 32.0836 13.5587C32.1558 13.6301 32.2416 13.6868 32.3361 13.7255C32.4306 13.7641 32.5319 13.784 32.6342 13.784C32.7365 13.784 32.8378 13.7641 32.9323 13.7255C33.0268 13.6868 33.1126 13.6301 33.1848 13.5587C33.2571 13.4872 33.3143 13.4024 33.3532 13.3091C33.3921 13.2158 33.412 13.1159 33.4117 13.015V11.4608C34.0694 11.4312 34.7244 11.3588 35.3724 11.2439L36.3166 12.8346C36.4228 13.0059 36.593 13.1294 36.7905 13.1784C36.988 13.2274 37.1971 13.198 37.3729 13.0966C37.5487 12.9952 37.6771 12.8299 37.7306 12.6361C37.7841 12.4424 37.7584 12.2357 37.659 12.0604L36.9487 10.8638C37.527 10.6869 38.0912 10.4681 38.6369 10.2094L40.34 11.4016C40.5081 11.5191 40.7167 11.5659 40.9198 11.5318C41.123 11.4978 41.3041 11.3856 41.4234 11.2199C41.5427 11.0543 41.5905 10.8487 41.5562 10.6483C41.5219 10.448 41.4083 10.2693 41.2405 10.1514L40.1197 9.3668C40.4171 9.16875 40.6977 8.9472 40.9588 8.70433C41.0999 8.55964 41.1778 8.36614 41.1758 8.16541C41.1738 7.96467 41.0921 7.77272 40.9481 7.63078C40.8041 7.48884 40.6094 7.40824 40.4059 7.40629C40.2023 7.40434 40.006 7.4812 39.8593 7.62036C38.6315 8.59456 37.1933 9.27793 35.6555 9.61785C31.0602 10.7897 26.4096 8.73628 25.4068 7.61787C25.2596 7.47968 25.0634 7.4038 24.8602 7.40647C24.657 7.40914 24.4629 7.49015 24.3195 7.63216C24.1761 7.77417 24.0948 7.96589 24.0929 8.16628C24.0911 8.36667 24.1689 8.5598 24.3097 8.70433C24.5707 8.94723 24.8513 9.1688 25.1487 9.36683L24.028 10.1514C23.8966 10.2473 23.799 10.3813 23.7488 10.5347C23.6986 10.688 23.6983 10.853 23.7481 11.0065C23.7978 11.16 23.895 11.2943 24.0261 11.3906C24.1572 11.4868 24.3156 11.5402 24.479 11.5432Z" fill="#A88EC3"/>
<path d="M19.7555 15.1714C19.6131 15.1069 19.4544 15.0865 19.3 15.1126C19.1456 15.1388 19.0029 15.2105 18.8907 15.3181C13.6548 20.3288 8.42271 19.4267 4.60209 18.7671C3.64852 18.6 2.66609 18.7937 1.85101 19.3095C1.03594 19.8253 0.44821 20.6254 0.205207 21.5498C-0.0414081 22.502 -0.0660813 23.4969 0.133039 24.4599C0.332159 25.4229 0.7499 26.3288 1.35491 27.1099C1.95992 27.8909 2.73648 28.5266 3.62631 28.9694C4.51615 29.4122 5.49613 29.6505 6.49272 29.6664C7.33362 29.6661 8.16629 29.5031 8.94353 29.1866C19.3806 25.0354 21.0876 15.4143 19.7555 15.1714ZM8.35285 27.7687C4.72672 29.3998 0.563719 25.6607 1.70864 21.9419C1.85834 21.3923 2.21026 20.9174 2.69579 20.6098C3.18132 20.3021 3.76566 20.1838 4.33487 20.2779C7.85102 20.8843 12.9829 21.7684 18.196 17.9204C17.3471 20.5646 14.966 25.0871 8.35285 27.7687Z" fill="#A88EC3"/>
<path d="M43.2933 21.5532C43.0507 20.6281 42.463 19.8273 41.6475 19.3108C40.8321 18.7944 39.8491 18.6004 38.8949 18.7676C35.0743 19.4271 29.8429 20.3277 24.6071 15.3186C24.4938 15.2136 24.3514 15.1443 24.198 15.1195C24.0446 15.0947 23.8872 15.1156 23.7458 15.1793C23.6045 15.2431 23.4856 15.347 23.4044 15.4776C23.3232 15.6083 23.2832 15.7599 23.2897 15.913C23.311 16.2776 23.9359 24.8832 34.5564 29.1878C35.3337 29.5043 36.1664 29.6673 37.0073 29.6677C38.0036 29.6517 38.9833 29.4134 39.8729 28.9707C40.7624 28.528 41.5387 27.8924 42.1436 27.1116C42.7484 26.3309 43.166 25.4252 43.3652 24.4625C43.5643 23.4998 43.5397 22.5052 43.2933 21.5532ZM40.2418 26.9202C39.5623 27.5246 38.7222 27.9256 37.8199 28.0761C36.9176 28.2266 35.9904 28.1204 35.1472 27.7699C28.452 25.0561 26.0983 20.5388 25.2767 17.9021C30.4997 21.7718 35.6407 20.8862 39.1621 20.2783C42.9163 19.9487 42.4774 25.2862 40.2418 26.9202Z" fill="#A88EC3"/>
</svg>
