<svg width="41" height="60" viewBox="0 0 41 60" fill="none" xmlns="http://www.w3.org/2000/svg">
<path fill-rule="evenodd" clip-rule="evenodd" d="M5.38807 40.2121C5.38141 40.2091 5.37143 40.2091 5.36477 40.2061C3.17184 39.5858 0.200195 37.1832 0.200195 34.3873C0.200195 33.5158 0.449774 32.7382 0.859082 32.0997C-1.4969 20.7583 3.10526 10.8879 12.4559 7.78315C12.4359 7.56226 12.4192 7.34439 12.4192 7.11745C12.4192 3.29873 15.8268 0.200195 20.0264 0.200195C24.2259 0.200195 27.6335 3.29873 27.6335 7.11745C27.6335 7.34136 27.6235 7.55923 27.5969 7.7771C37.2641 10.9543 42.3916 21.1457 39.3035 31.9031C39.7927 32.5779 40.0955 33.4221 40.0955 34.3843C40.0955 37.1803 37.1206 39.5798 34.931 40.2031C34.8711 40.2183 34.8145 40.2334 34.7612 40.2425C34.718 40.3575 34.6747 40.4755 34.6348 40.5874C34.8478 40.6752 35.0541 40.778 35.2537 40.887C36.7479 41.7403 37.7429 43.2502 37.7429 44.9659C37.7429 47.6227 35.3702 49.7771 32.4519 49.7771C30.8612 49.7771 29.4336 49.1386 28.4653 48.131C27.6966 48.6212 26.8613 49.069 25.9595 49.4775C26.2058 51.2779 26.5585 52.5882 27.1908 53.6836C28.1858 55.3962 29.8529 56.5612 32.738 58.2496C32.9876 58.3949 33.0575 58.6945 32.8978 58.9184C32.738 59.1453 32.4086 59.2089 32.1623 59.0636C29.0676 57.2541 27.3106 55.9711 26.249 54.1344C25.6035 53.0178 25.2074 51.6925 24.9479 49.9072C24.0994 50.2431 23.1942 50.5426 22.2325 50.809C20.8083 51.2023 19.2942 51.2053 17.8699 50.8211C16.8916 50.5608 15.9731 50.2673 15.1146 49.9405C14.8484 51.7137 14.459 53.03 13.8168 54.1405C12.7519 55.9803 10.9982 57.2572 7.9035 59.0698C7.65392 59.215 7.32448 59.1515 7.16808 58.9245C7.00835 58.6976 7.07823 58.398 7.32781 58.2558C10.2162 56.5673 11.8868 55.4054 12.8751 53.6897C13.504 52.6065 13.8567 51.3083 14.103 49.5291C9.5607 47.5561 6.79206 44.5424 5.40092 40.2125L5.38807 40.2121ZM1.84072 32.4839C1.48133 33.0044 1.2617 33.6549 1.2617 34.3842C1.2617 36.4963 3.29822 38.3148 5.05857 39.0593C4.72912 37.7581 4.51283 36.348 4.39636 34.8169C4.23663 34.7019 3.97707 34.5718 3.71751 34.4719C3.51785 34.3933 3.32152 34.3297 3.16511 34.3358C2.86895 34.3479 2.6227 34.1451 2.60273 33.8789C2.58942 33.6096 2.81237 33.3856 3.10521 33.3675C3.39139 33.3554 3.76742 33.4341 4.13344 33.5763C4.19667 33.6035 4.2599 33.6277 4.32645 33.658C4.29317 32.8622 4.28319 32.03 4.30315 31.1737C3.37476 31.1404 2.46963 31.6185 1.8906 32.4144C1.87729 32.4356 1.86065 32.4598 1.84401 32.4779L1.84072 32.4839ZM5.44796 34.6414C5.5844 36.4812 5.86725 38.1484 6.31978 39.6493C7.91375 44.9144 11.6141 48.1339 18.1627 49.8954C19.3873 50.2252 20.6952 50.2222 21.913 49.8863C24.2224 49.2478 26.1891 48.4006 27.8396 47.3506C27.6666 47.0722 27.5235 46.7787 27.4137 46.4731C27.244 46.0011 27.1508 45.4988 27.1508 44.9753C27.1508 42.3185 29.5235 40.1641 32.4418 40.1641C32.8478 40.1641 33.2404 40.2065 33.6198 40.2821C33.7063 40.0612 33.7828 39.8403 33.8627 39.6104C34.3419 38.1791 34.6514 36.6237 34.8111 34.9505C34.8111 34.9414 34.8111 34.9353 34.8144 34.9232C34.9376 33.613 34.9675 32.2301 34.9143 30.7717C34.8477 28.9682 34.6547 27.0498 34.3419 25.0254C29.7497 23.3279 26.0459 19.7452 24.6218 16.4231C20.2393 22.3781 12.2763 24.9015 5.80361 25.1168C5.57067 27.1351 5.42092 29.0173 5.37101 30.7693C5.33441 32.0855 5.35437 33.3322 5.43424 34.5032C5.44422 34.5486 5.44755 34.594 5.44422 34.6394L5.44796 34.6414ZM13.2048 8.56725C4.26 11.3088 -0.156197 20.4834 1.74778 31.1107C2.48653 30.5176 3.40496 30.1908 4.3267 30.2119C4.3866 28.6233 4.52637 26.9288 4.73268 25.1314C4.25682 25.1284 3.79091 25.1132 3.34171 25.083C3.04554 25.0648 2.82592 24.8349 2.84922 24.5656C2.86918 24.2962 3.12209 24.0965 3.41825 24.1177C3.96067 24.154 4.52639 24.1692 5.10542 24.1631C5.19527 24.1238 5.2951 24.1087 5.39493 24.1177C5.4515 24.1238 5.50142 24.1359 5.55133 24.1571C12.0603 24.0058 20.2498 21.4095 24.3159 15.052C24.3858 14.9431 24.5056 14.8614 24.6387 14.8251C24.7784 14.7918 24.9182 14.8099 25.0447 14.8735C25.1645 14.937 25.2543 15.046 25.2942 15.167C26.4024 18.9797 31.111 23.485 36.8016 24.7322C37.0844 24.7927 37.2641 25.056 37.1942 25.3162C37.1277 25.5734 36.8382 25.7368 36.552 25.6732C36.1893 25.5915 35.8299 25.5008 35.4771 25.3979C35.7234 27.0773 35.8865 28.681 35.9597 30.2091C36.8449 30.1818 37.7267 30.4814 38.4521 31.0261C41.0544 20.8892 36.1028 11.3697 26.8554 8.55858C24.7822 7.92919 22.4961 7.59331 20.0336 7.59633C17.5411 7.60238 15.2583 7.93523 13.2118 8.56462L13.2048 8.56725ZM35.8532 35.1984C35.7134 36.5813 35.4738 37.8824 35.1244 39.1049C36.9047 38.3938 39.0311 36.5389 39.0311 34.3875C39.0311 33.5796 38.7615 32.8685 38.3323 32.3208C38.3123 32.2936 38.289 32.2724 38.2724 32.2451C37.6934 31.5552 36.8514 31.1467 35.9896 31.18C36.0129 32.1634 35.9995 33.1136 35.9463 34.0304C36.0029 34.0032 36.0628 33.979 36.1227 33.9548C36.4887 33.8126 36.8647 33.7278 37.1509 33.746C37.4471 33.7581 37.67 33.9881 37.6534 34.2574C37.6401 34.5267 37.3872 34.7294 37.091 34.7143C36.9346 34.7082 36.7349 34.7718 36.5386 34.8505C36.2757 34.9533 36.0128 35.0865 35.8498 35.2015L35.8532 35.1984ZM28.9948 47.1897C29.0247 47.226 29.0513 47.2654 29.0846 47.2987C29.86 48.2185 31.0746 48.8116 32.4456 48.8116C34.7783 48.8116 36.6717 47.0868 36.6717 44.9687C36.6717 43.595 35.8764 42.3876 34.6851 41.7098C34.4522 41.5767 34.2026 41.4647 33.9397 41.374C33.8898 41.3588 33.8399 41.3407 33.7866 41.3256C33.78 41.3225 33.7733 41.3225 33.77 41.3195C33.354 41.1924 32.9081 41.1289 32.4456 41.1289C30.1128 41.1289 28.2194 42.8537 28.2194 44.9717C28.2194 45.3923 28.2926 45.7918 28.4291 46.17C28.5588 46.5362 28.7519 46.8781 28.9915 47.1837C28.9948 47.1867 28.9948 47.1898 28.9981 47.1928L28.9948 47.1897ZM13.4946 7.46882C15.4779 6.92718 17.6609 6.63972 20.0269 6.63368C22.3663 6.63066 24.5526 6.91812 26.5592 7.46277C26.5659 7.35082 26.5692 7.2328 26.5692 7.11782C26.5692 3.83469 23.6375 1.16886 20.027 1.16886C16.4164 1.16886 13.4847 3.83469 13.4847 7.11782C13.4847 7.23583 13.488 7.35384 13.4946 7.46882ZM16.3099 44.1826C16.047 44.3006 15.7275 44.2008 15.5978 43.9617C15.468 43.7227 15.5778 43.4322 15.8407 43.3142C19.3381 41.7376 22.0901 42.2793 24.3766 43.3142C24.6395 43.4322 24.746 43.7227 24.6129 43.9617C24.4831 44.2008 24.1636 44.2976 23.9007 44.1766C21.8675 43.2567 19.4217 42.7756 16.3102 44.1766L16.3099 44.1826ZM11.7243 31.1866C10.9889 31.35 10.2435 31.6858 9.48148 32.1912C9.24522 32.3485 8.90912 32.3001 8.73608 32.0853C8.56304 31.8704 8.61629 31.5648 8.85255 31.4075C10.1936 30.5179 11.5047 30.0942 12.7826 30.1003C14.0671 30.1063 15.3283 30.5421 16.5495 31.4165C16.7792 31.5799 16.8191 31.8886 16.6394 32.0974C16.4597 32.3062 16.1203 32.3425 15.8907 32.1791C15.518 31.9098 15.1419 31.6919 14.7626 31.5194C14.8757 31.7343 14.9423 31.9824 14.9423 32.2366C14.9423 33.1504 14.1303 33.8887 13.1254 33.8887C12.1204 33.8887 11.3085 33.1504 11.3085 32.2366C11.3085 31.8371 11.4649 31.471 11.7244 31.1835L11.7243 31.1866ZM25.4074 31.5224C25.028 31.6949 24.652 31.9158 24.2793 32.1821C24.0497 32.3455 23.7136 32.3122 23.5306 32.1004C23.3509 31.8916 23.3875 31.586 23.6204 31.4196C24.845 30.5451 26.1029 30.1063 27.3874 30.1033C28.6652 30.0972 29.9797 30.5209 31.3174 31.4105C31.5537 31.5678 31.6036 31.8735 31.4339 32.0883C31.2609 32.3031 30.9247 32.3485 30.6885 32.1942C29.9298 31.6889 29.1811 31.353 28.4456 31.1896C28.7052 31.477 28.8616 31.8402 28.8616 32.2426C28.8616 33.1565 28.0496 33.8948 27.0447 33.8948C26.0397 33.8948 25.2278 33.1564 25.2278 32.2426C25.2278 31.9854 25.291 31.7433 25.4075 31.5255L25.4074 31.5224ZM7.71705 29.3619C7.44085 29.4557 7.13471 29.3256 7.03154 29.0744C6.92839 28.8233 7.07148 28.5449 7.34767 28.4511C10.5456 27.3799 14.825 27.383 17.9895 28.4511C18.2657 28.5449 18.4054 28.8233 18.3023 29.0744C18.1991 29.3256 17.893 29.4527 17.6168 29.3589C14.6751 28.3633 10.6918 28.3603 7.71356 29.3589L7.71705 29.3619ZM20.1955 37.2686C20.2122 36.9993 20.4684 36.7996 20.7612 36.8177C21.0574 36.8329 21.277 37.0659 21.2571 37.3321C21.2371 37.662 21.1472 37.9313 20.9775 38.1461C20.7945 38.3731 20.5083 38.5486 20.0358 38.6242C19.7463 38.6696 19.4701 38.4911 19.4201 38.2278C19.3702 37.9646 19.5666 37.7134 19.8561 37.668C19.9659 37.6529 20.0491 37.6317 20.1057 37.5833C20.1922 37.5137 20.1888 37.3987 20.1955 37.2716L20.1955 37.2686ZM22.7845 29.3619C22.5083 29.4557 22.2022 29.3256 22.099 29.0744C21.9958 28.8233 22.1389 28.5449 22.4151 28.4511C25.613 27.3799 29.8924 27.383 33.0569 28.4511C33.3331 28.5449 33.4729 28.8233 33.3697 29.0744C33.2666 29.3256 32.9604 29.4527 32.6842 29.3589C29.7426 28.3633 25.7593 28.3603 22.781 29.3589L22.7845 29.3619ZM34.6641 43.2449C34.8571 43.2479 35.2098 43.5747 35.0135 43.8773C34.8438 44.1345 34.1683 44.2041 34.1316 43.8773C34.085 43.4144 34.4012 43.2419 34.6641 43.2449ZM34.155 44.8456C34.5609 44.6852 34.917 44.9788 35.2265 45.0544C35.8121 45.1996 35.6391 45.7715 35.4561 45.9379C35.2298 46.1437 35.5426 46.4735 35.3862 46.8518C35.2597 47.1604 34.3513 46.997 34.2614 46.9819C33.6691 46.876 34.0019 46.3949 34.0185 46.2678C34.0352 46.1377 34.0485 45.9773 33.9087 45.7655C33.7689 45.5567 33.7856 44.9969 34.1583 44.8486L34.155 44.8456ZM32.1284 45.9168C32.6708 45.9198 33.0768 46.525 33.0901 46.7701C33.1267 47.5115 32.8705 47.46 32.4312 47.7324C32.0485 47.9684 30.9338 47.6144 31.4063 47.2452C31.7258 46.9971 31.6093 46.8064 31.6126 46.5038C31.6126 46.3888 31.8689 45.9198 32.1317 45.9198L32.1284 45.9168ZM30.1984 42.6549C30.5145 42.5974 31.3331 42.7245 31.7657 42.4552C32.2216 42.1677 33.5793 42.1526 33.4528 43.3781C33.3796 44.1103 32.7806 43.4204 32.0552 44.1103C31.6293 44.5128 30.601 44.8002 30.1285 44.3857C29.7991 44.0952 29.9222 43.6232 29.8789 43.4719C29.8656 43.4234 29.6759 42.7456 30.1984 42.6518L30.1984 42.6549ZM30.3115 45.3721C30.5677 45.3752 31.0502 45.7958 30.7807 46.1861C30.5511 46.519 29.646 46.6067 29.5994 46.1861C29.5362 45.593 29.9621 45.3691 30.3115 45.3721Z" fill="#A88EC3" stroke="#A88EC3" stroke-width="0.4"/>
</svg>
