<svg width="41" height="24" viewBox="0 0 41 24" fill="none" xmlns="http://www.w3.org/2000/svg">
<mask id="path-1-outside-1_76_3832" maskUnits="userSpaceOnUse" x="-0.600098" y="-0.599609" width="42" height="25" fill="black">
<rect fill="white" x="-0.600098" y="-0.599609" width="42" height="25"/>
<path fill-rule="evenodd" clip-rule="evenodd" d="M1.39426 14.2787C1.10151 14.4732 0.70881 14.3916 0.516032 14.0963C0.323248 13.801 0.404173 13.4049 0.696911 13.2104C0.696911 13.2104 1.80362 12.4759 2.85799 12.0317C3.37683 11.8133 3.88379 11.674 4.27172 11.674C4.91909 11.674 5.5879 12.0629 6.23527 12.4926C6.66129 12.7759 7.07066 13.1024 7.49905 13.1024C7.92507 13.1024 8.33444 12.7783 8.76283 12.4926C9.4102 12.0629 10.079 11.674 10.7264 11.674C11.3737 11.674 12.0426 12.0629 12.6899 12.4926C13.116 12.7759 13.5253 13.1024 13.9537 13.1024C14.3797 13.1024 14.7891 12.7783 15.2175 12.4926C15.8649 12.0629 16.5337 11.674 17.181 11.674C17.8284 11.674 18.502 12.0605 19.1517 12.4878C19.5825 12.7711 19.9966 13.0976 20.4155 13.1024C20.8296 13.1072 21.2318 12.7831 21.6627 12.4974C22.3148 12.0653 22.9883 11.674 23.6357 11.674C24.2831 11.674 24.9519 12.0629 25.5993 12.4926C26.0253 12.7759 26.4346 13.1024 26.863 13.1024C27.2891 13.1024 27.6961 12.7783 28.1221 12.4926C28.7694 12.0629 29.4334 11.674 30.088 11.674C30.7377 11.674 31.4137 12.0629 32.0729 12.4902C32.5132 12.7759 32.9345 13.1024 33.3629 13.1024C33.7865 13.1024 34.184 12.7807 34.5981 12.4974C35.236 12.0653 35.8905 11.674 36.5378 11.674C36.9234 11.674 37.4303 11.8157 37.9492 12.0317C39.0012 12.471 40.1126 13.2081 40.1126 13.2081C40.4054 13.4025 40.4887 13.7986 40.2959 14.0939C40.1031 14.3892 39.7104 14.4732 39.4177 14.2787C39.4177 14.2787 38.6775 13.7866 37.8611 13.3953C37.3899 13.1673 36.8949 12.956 36.5378 12.956C36.1166 12.956 35.7239 13.2777 35.3074 13.561C34.6695 13.9931 34.0126 14.3843 33.3629 14.3843C32.7179 14.3843 32.042 13.9954 31.3851 13.5681C30.9448 13.2825 30.5211 12.956 30.088 12.956C29.6572 12.956 29.2478 13.2801 28.8218 13.5657C28.1745 13.9955 27.5128 14.3843 26.8631 14.3843C26.2157 14.3843 25.5469 13.9954 24.8995 13.5657C24.4735 13.2825 24.0641 12.956 23.6358 12.956C23.2074 12.956 22.7932 13.2849 22.3625 13.5705C21.708 14.0051 21.0368 14.3915 20.4061 14.3843C19.7754 14.3771 19.1137 13.9882 18.464 13.5634C18.0332 13.2801 17.6167 12.956 17.1859 12.956C16.7599 12.956 16.3505 13.2801 15.9221 13.5658C15.2748 13.9955 14.6059 14.3844 13.9586 14.3844C13.3112 14.3844 12.6424 13.9955 11.995 13.5658C11.569 13.2825 11.1596 12.956 10.7312 12.956C10.3052 12.956 9.89585 13.2801 9.46746 13.5658C8.82009 13.9955 8.15128 14.3844 7.50391 14.3844C6.85654 14.3844 6.18773 13.9955 5.54036 13.5658C5.11434 13.2825 4.70497 12.956 4.27658 12.956C3.91957 12.956 3.42455 13.1697 2.95089 13.3953C2.13932 13.7866 1.3991 14.2787 1.3991 14.2787L1.39426 14.2787ZM11.7186 18.7679C11.3688 18.7679 11.0831 18.4822 11.0831 18.1269C11.0831 17.774 11.3664 17.4859 11.7186 17.4859H15.1316C15.4815 17.4859 15.7671 17.7716 15.7671 18.1269C15.7671 18.4798 15.4839 18.7679 15.1316 18.7679H11.7186ZM32.7768 18.7679C32.4269 18.7679 32.1413 18.4822 32.1413 18.1269C32.1413 17.774 32.4245 17.4859 32.7768 17.4859H36.1898C36.5396 17.4859 36.8253 17.7716 36.8253 18.1269C36.8253 18.4798 36.542 18.7679 36.1898 18.7679H32.7768ZM18.737 18.7679C18.3871 18.7679 18.1015 18.4822 18.1015 18.1269C18.1015 17.774 18.3847 17.4859 18.737 17.4859H22.15C22.4998 17.4859 22.7855 17.7716 22.7855 18.1269C22.7855 18.4798 22.5022 18.7679 22.15 18.7679H18.737ZM4.6972 18.7679C4.34734 18.7679 4.06172 18.4822 4.06172 18.1269C4.06172 17.774 4.34494 17.4859 4.6972 17.4859H8.11018C8.46005 17.4859 8.74567 17.7716 8.74567 18.1269C8.74567 18.4798 8.46245 18.7679 8.11018 18.7679H4.6972ZM25.7554 18.7679C25.4055 18.7679 25.1199 18.4822 25.1199 18.1269C25.1199 17.774 25.4031 17.4859 25.7554 17.4859H29.1683C29.5182 17.4859 29.8038 17.7716 29.8038 18.1269C29.8038 18.4798 29.5206 18.7679 29.1683 18.7679H25.7554ZM15.2238 23.6004C14.874 23.6004 14.5884 23.3147 14.5884 22.9594C14.5884 22.6065 14.8716 22.3184 15.2238 22.3184H18.6368C18.9867 22.3184 19.2723 22.6041 19.2723 22.9594C19.2723 23.3123 18.9891 23.6004 18.6368 23.6004H15.2238ZM36.282 23.6004C35.9322 23.6004 35.6465 23.3147 35.6465 22.9594C35.6465 22.6065 35.9298 22.3184 36.282 22.3184H39.695C40.0449 22.3184 40.3305 22.6041 40.3305 22.9594C40.3305 23.3123 40.0473 23.6004 39.695 23.6004H36.282ZM1.18405 23.6004C0.834189 23.6004 0.548568 23.3147 0.548568 22.9594C0.548568 22.6065 0.831788 22.3184 1.18405 22.3184H4.59703C4.9469 22.3184 5.23252 22.6041 5.23252 22.9594C5.23252 23.3123 4.9493 23.6004 4.59703 23.6004H1.18405ZM22.2422 23.6004C21.8924 23.6004 21.6067 23.3147 21.6067 22.9594C21.6067 22.6065 21.89 22.3184 22.2422 22.3184H25.6552C26.0051 22.3184 26.2907 22.6041 26.2907 22.9594C26.2907 23.3123 26.0075 23.6004 25.6552 23.6004H22.2422ZM8.20243 23.6004C7.85256 23.6004 7.56694 23.3147 7.56694 22.9594C7.56694 22.6065 7.85016 22.3184 8.20243 22.3184H11.6154C11.9653 22.3184 12.2509 22.6041 12.2509 22.9594C12.2509 23.3123 11.9677 23.6004 11.6154 23.6004H8.20243ZM29.2606 23.6004C28.9107 23.6004 28.6251 23.3147 28.6251 22.9594C28.6251 22.6065 28.9083 22.3184 29.2606 22.3184H32.6736C33.0234 22.3184 33.3091 22.6041 33.3091 22.9594C33.3091 23.3123 33.0258 23.6004 32.6736 23.6004H29.2606ZM11.3555 9.0359H1.03539C0.685523 9.0359 0.399902 8.75023 0.399902 8.39491C0.399902 8.04202 0.683123 7.75393 1.03539 7.75393H11.3555C15.8989 7.75393 16.3298 3.98015 16.7915 2.78944C17.3913 1.24824 18.8835 0.419998 20.3853 0.400823C21.899 0.379218 23.396 1.16663 23.9934 2.78464C24.4361 3.98255 24.9359 7.75632 29.4247 7.75632H39.7448C40.0946 7.75632 40.3803 8.042 40.3803 8.39731C40.3803 8.7502 40.097 9.0383 39.7448 9.0383H29.4247C24.0553 9.0383 23.3318 4.66434 22.8036 3.23119C22.4109 2.1605 21.4017 1.66596 20.4045 1.6828C19.3978 1.6972 18.3767 2.22294 17.9745 3.26001C17.4247 4.68118 16.7821 9.0383 11.3582 9.0383L11.3555 9.0359ZM18.6742 5.20688C19.0098 5.20688 19.2811 5.48055 19.2811 5.81904C19.2811 6.15752 19.0098 6.43119 18.6742 6.43119C18.3387 6.43119 18.0673 6.15752 18.0673 5.81904C18.0673 5.48055 18.3387 5.20688 18.6742 5.20688ZM21.9135 6.46482C22.249 6.46482 22.5204 6.73849 22.5204 7.07698C22.5204 7.41547 22.249 7.68914 21.9135 7.68914C21.5779 7.68914 21.3065 7.41547 21.3065 7.07698C21.3065 6.73849 21.5779 6.46482 21.9135 6.46482ZM24.1436 8.48378C24.4791 8.48378 24.7505 8.75745 24.7505 9.09594C24.7505 9.43443 24.4791 9.7081 24.1436 9.7081C23.808 9.7081 23.5367 9.43443 23.5367 9.09594C23.5367 8.75745 23.808 8.48378 24.1436 8.48378ZM16.77 8.48378C17.1056 8.48378 17.3769 8.75745 17.3769 9.09594C17.3769 9.43443 17.1056 9.7081 16.77 9.7081C16.4344 9.7081 16.1631 9.43443 16.1631 9.09594C16.1631 8.75745 16.4344 8.48378 16.77 8.48378ZM20.4566 8.48378C20.7922 8.48378 21.0636 8.75745 21.0636 9.09594C21.0636 9.43443 20.7922 9.7081 20.4566 9.7081C20.1211 9.7081 19.8497 9.43443 19.8497 9.09594C19.8497 8.75745 20.1211 8.48378 20.4566 8.48378ZM20.935 3.59132C21.2706 3.59132 21.5419 3.86499 21.5419 4.20348C21.5419 4.54197 21.2706 4.81564 20.935 4.81564C20.5995 4.81564 20.3281 4.54197 20.3281 4.20348C20.3281 3.86499 20.5995 3.59132 20.935 3.59132Z"/>
</mask>
<path fill-rule="evenodd" clip-rule="evenodd" d="M1.39426 14.2787C1.10151 14.4732 0.70881 14.3916 0.516032 14.0963C0.323248 13.801 0.404173 13.4049 0.696911 13.2104C0.696911 13.2104 1.80362 12.4759 2.85799 12.0317C3.37683 11.8133 3.88379 11.674 4.27172 11.674C4.91909 11.674 5.5879 12.0629 6.23527 12.4926C6.66129 12.7759 7.07066 13.1024 7.49905 13.1024C7.92507 13.1024 8.33444 12.7783 8.76283 12.4926C9.4102 12.0629 10.079 11.674 10.7264 11.674C11.3737 11.674 12.0426 12.0629 12.6899 12.4926C13.116 12.7759 13.5253 13.1024 13.9537 13.1024C14.3797 13.1024 14.7891 12.7783 15.2175 12.4926C15.8649 12.0629 16.5337 11.674 17.181 11.674C17.8284 11.674 18.502 12.0605 19.1517 12.4878C19.5825 12.7711 19.9966 13.0976 20.4155 13.1024C20.8296 13.1072 21.2318 12.7831 21.6627 12.4974C22.3148 12.0653 22.9883 11.674 23.6357 11.674C24.2831 11.674 24.9519 12.0629 25.5993 12.4926C26.0253 12.7759 26.4346 13.1024 26.863 13.1024C27.2891 13.1024 27.6961 12.7783 28.1221 12.4926C28.7694 12.0629 29.4334 11.674 30.088 11.674C30.7377 11.674 31.4137 12.0629 32.0729 12.4902C32.5132 12.7759 32.9345 13.1024 33.3629 13.1024C33.7865 13.1024 34.184 12.7807 34.5981 12.4974C35.236 12.0653 35.8905 11.674 36.5378 11.674C36.9234 11.674 37.4303 11.8157 37.9492 12.0317C39.0012 12.471 40.1126 13.2081 40.1126 13.2081C40.4054 13.4025 40.4887 13.7986 40.2959 14.0939C40.1031 14.3892 39.7104 14.4732 39.4177 14.2787C39.4177 14.2787 38.6775 13.7866 37.8611 13.3953C37.3899 13.1673 36.8949 12.956 36.5378 12.956C36.1166 12.956 35.7239 13.2777 35.3074 13.561C34.6695 13.9931 34.0126 14.3843 33.3629 14.3843C32.7179 14.3843 32.042 13.9954 31.3851 13.5681C30.9448 13.2825 30.5211 12.956 30.088 12.956C29.6572 12.956 29.2478 13.2801 28.8218 13.5657C28.1745 13.9955 27.5128 14.3843 26.8631 14.3843C26.2157 14.3843 25.5469 13.9954 24.8995 13.5657C24.4735 13.2825 24.0641 12.956 23.6358 12.956C23.2074 12.956 22.7932 13.2849 22.3625 13.5705C21.708 14.0051 21.0368 14.3915 20.4061 14.3843C19.7754 14.3771 19.1137 13.9882 18.464 13.5634C18.0332 13.2801 17.6167 12.956 17.1859 12.956C16.7599 12.956 16.3505 13.2801 15.9221 13.5658C15.2748 13.9955 14.6059 14.3844 13.9586 14.3844C13.3112 14.3844 12.6424 13.9955 11.995 13.5658C11.569 13.2825 11.1596 12.956 10.7312 12.956C10.3052 12.956 9.89585 13.2801 9.46746 13.5658C8.82009 13.9955 8.15128 14.3844 7.50391 14.3844C6.85654 14.3844 6.18773 13.9955 5.54036 13.5658C5.11434 13.2825 4.70497 12.956 4.27658 12.956C3.91957 12.956 3.42455 13.1697 2.95089 13.3953C2.13932 13.7866 1.3991 14.2787 1.3991 14.2787L1.39426 14.2787ZM11.7186 18.7679C11.3688 18.7679 11.0831 18.4822 11.0831 18.1269C11.0831 17.774 11.3664 17.4859 11.7186 17.4859H15.1316C15.4815 17.4859 15.7671 17.7716 15.7671 18.1269C15.7671 18.4798 15.4839 18.7679 15.1316 18.7679H11.7186ZM32.7768 18.7679C32.4269 18.7679 32.1413 18.4822 32.1413 18.1269C32.1413 17.774 32.4245 17.4859 32.7768 17.4859H36.1898C36.5396 17.4859 36.8253 17.7716 36.8253 18.1269C36.8253 18.4798 36.542 18.7679 36.1898 18.7679H32.7768ZM18.737 18.7679C18.3871 18.7679 18.1015 18.4822 18.1015 18.1269C18.1015 17.774 18.3847 17.4859 18.737 17.4859H22.15C22.4998 17.4859 22.7855 17.7716 22.7855 18.1269C22.7855 18.4798 22.5022 18.7679 22.15 18.7679H18.737ZM4.6972 18.7679C4.34734 18.7679 4.06172 18.4822 4.06172 18.1269C4.06172 17.774 4.34494 17.4859 4.6972 17.4859H8.11018C8.46005 17.4859 8.74567 17.7716 8.74567 18.1269C8.74567 18.4798 8.46245 18.7679 8.11018 18.7679H4.6972ZM25.7554 18.7679C25.4055 18.7679 25.1199 18.4822 25.1199 18.1269C25.1199 17.774 25.4031 17.4859 25.7554 17.4859H29.1683C29.5182 17.4859 29.8038 17.7716 29.8038 18.1269C29.8038 18.4798 29.5206 18.7679 29.1683 18.7679H25.7554ZM15.2238 23.6004C14.874 23.6004 14.5884 23.3147 14.5884 22.9594C14.5884 22.6065 14.8716 22.3184 15.2238 22.3184H18.6368C18.9867 22.3184 19.2723 22.6041 19.2723 22.9594C19.2723 23.3123 18.9891 23.6004 18.6368 23.6004H15.2238ZM36.282 23.6004C35.9322 23.6004 35.6465 23.3147 35.6465 22.9594C35.6465 22.6065 35.9298 22.3184 36.282 22.3184H39.695C40.0449 22.3184 40.3305 22.6041 40.3305 22.9594C40.3305 23.3123 40.0473 23.6004 39.695 23.6004H36.282ZM1.18405 23.6004C0.834189 23.6004 0.548568 23.3147 0.548568 22.9594C0.548568 22.6065 0.831788 22.3184 1.18405 22.3184H4.59703C4.9469 22.3184 5.23252 22.6041 5.23252 22.9594C5.23252 23.3123 4.9493 23.6004 4.59703 23.6004H1.18405ZM22.2422 23.6004C21.8924 23.6004 21.6067 23.3147 21.6067 22.9594C21.6067 22.6065 21.89 22.3184 22.2422 22.3184H25.6552C26.0051 22.3184 26.2907 22.6041 26.2907 22.9594C26.2907 23.3123 26.0075 23.6004 25.6552 23.6004H22.2422ZM8.20243 23.6004C7.85256 23.6004 7.56694 23.3147 7.56694 22.9594C7.56694 22.6065 7.85016 22.3184 8.20243 22.3184H11.6154C11.9653 22.3184 12.2509 22.6041 12.2509 22.9594C12.2509 23.3123 11.9677 23.6004 11.6154 23.6004H8.20243ZM29.2606 23.6004C28.9107 23.6004 28.6251 23.3147 28.6251 22.9594C28.6251 22.6065 28.9083 22.3184 29.2606 22.3184H32.6736C33.0234 22.3184 33.3091 22.6041 33.3091 22.9594C33.3091 23.3123 33.0258 23.6004 32.6736 23.6004H29.2606ZM11.3555 9.0359H1.03539C0.685523 9.0359 0.399902 8.75023 0.399902 8.39491C0.399902 8.04202 0.683123 7.75393 1.03539 7.75393H11.3555C15.8989 7.75393 16.3298 3.98015 16.7915 2.78944C17.3913 1.24824 18.8835 0.419998 20.3853 0.400823C21.899 0.379218 23.396 1.16663 23.9934 2.78464C24.4361 3.98255 24.9359 7.75632 29.4247 7.75632H39.7448C40.0946 7.75632 40.3803 8.042 40.3803 8.39731C40.3803 8.7502 40.097 9.0383 39.7448 9.0383H29.4247C24.0553 9.0383 23.3318 4.66434 22.8036 3.23119C22.4109 2.1605 21.4017 1.66596 20.4045 1.6828C19.3978 1.6972 18.3767 2.22294 17.9745 3.26001C17.4247 4.68118 16.7821 9.0383 11.3582 9.0383L11.3555 9.0359ZM18.6742 5.20688C19.0098 5.20688 19.2811 5.48055 19.2811 5.81904C19.2811 6.15752 19.0098 6.43119 18.6742 6.43119C18.3387 6.43119 18.0673 6.15752 18.0673 5.81904C18.0673 5.48055 18.3387 5.20688 18.6742 5.20688ZM21.9135 6.46482C22.249 6.46482 22.5204 6.73849 22.5204 7.07698C22.5204 7.41547 22.249 7.68914 21.9135 7.68914C21.5779 7.68914 21.3065 7.41547 21.3065 7.07698C21.3065 6.73849 21.5779 6.46482 21.9135 6.46482ZM24.1436 8.48378C24.4791 8.48378 24.7505 8.75745 24.7505 9.09594C24.7505 9.43443 24.4791 9.7081 24.1436 9.7081C23.808 9.7081 23.5367 9.43443 23.5367 9.09594C23.5367 8.75745 23.808 8.48378 24.1436 8.48378ZM16.77 8.48378C17.1056 8.48378 17.3769 8.75745 17.3769 9.09594C17.3769 9.43443 17.1056 9.7081 16.77 9.7081C16.4344 9.7081 16.1631 9.43443 16.1631 9.09594C16.1631 8.75745 16.4344 8.48378 16.77 8.48378ZM20.4566 8.48378C20.7922 8.48378 21.0636 8.75745 21.0636 9.09594C21.0636 9.43443 20.7922 9.7081 20.4566 9.7081C20.1211 9.7081 19.8497 9.43443 19.8497 9.09594C19.8497 8.75745 20.1211 8.48378 20.4566 8.48378ZM20.935 3.59132C21.2706 3.59132 21.5419 3.86499 21.5419 4.20348C21.5419 4.54197 21.2706 4.81564 20.935 4.81564C20.5995 4.81564 20.3281 4.54197 20.3281 4.20348C20.3281 3.86499 20.5995 3.59132 20.935 3.59132Z" fill="#A88EC3"/>
<path fill-rule="evenodd" clip-rule="evenodd" d="M1.39426 14.2787C1.10151 14.4732 0.70881 14.3916 0.516032 14.0963C0.323248 13.801 0.404173 13.4049 0.696911 13.2104C0.696911 13.2104 1.80362 12.4759 2.85799 12.0317C3.37683 11.8133 3.88379 11.674 4.27172 11.674C4.91909 11.674 5.5879 12.0629 6.23527 12.4926C6.66129 12.7759 7.07066 13.1024 7.49905 13.1024C7.92507 13.1024 8.33444 12.7783 8.76283 12.4926C9.4102 12.0629 10.079 11.674 10.7264 11.674C11.3737 11.674 12.0426 12.0629 12.6899 12.4926C13.116 12.7759 13.5253 13.1024 13.9537 13.1024C14.3797 13.1024 14.7891 12.7783 15.2175 12.4926C15.8649 12.0629 16.5337 11.674 17.181 11.674C17.8284 11.674 18.502 12.0605 19.1517 12.4878C19.5825 12.7711 19.9966 13.0976 20.4155 13.1024C20.8296 13.1072 21.2318 12.7831 21.6627 12.4974C22.3148 12.0653 22.9883 11.674 23.6357 11.674C24.2831 11.674 24.9519 12.0629 25.5993 12.4926C26.0253 12.7759 26.4346 13.1024 26.863 13.1024C27.2891 13.1024 27.6961 12.7783 28.1221 12.4926C28.7694 12.0629 29.4334 11.674 30.088 11.674C30.7377 11.674 31.4137 12.0629 32.0729 12.4902C32.5132 12.7759 32.9345 13.1024 33.3629 13.1024C33.7865 13.1024 34.184 12.7807 34.5981 12.4974C35.236 12.0653 35.8905 11.674 36.5378 11.674C36.9234 11.674 37.4303 11.8157 37.9492 12.0317C39.0012 12.471 40.1126 13.2081 40.1126 13.2081C40.4054 13.4025 40.4887 13.7986 40.2959 14.0939C40.1031 14.3892 39.7104 14.4732 39.4177 14.2787C39.4177 14.2787 38.6775 13.7866 37.8611 13.3953C37.3899 13.1673 36.8949 12.956 36.5378 12.956C36.1166 12.956 35.7239 13.2777 35.3074 13.561C34.6695 13.9931 34.0126 14.3843 33.3629 14.3843C32.7179 14.3843 32.042 13.9954 31.3851 13.5681C30.9448 13.2825 30.5211 12.956 30.088 12.956C29.6572 12.956 29.2478 13.2801 28.8218 13.5657C28.1745 13.9955 27.5128 14.3843 26.8631 14.3843C26.2157 14.3843 25.5469 13.9954 24.8995 13.5657C24.4735 13.2825 24.0641 12.956 23.6358 12.956C23.2074 12.956 22.7932 13.2849 22.3625 13.5705C21.708 14.0051 21.0368 14.3915 20.4061 14.3843C19.7754 14.3771 19.1137 13.9882 18.464 13.5634C18.0332 13.2801 17.6167 12.956 17.1859 12.956C16.7599 12.956 16.3505 13.2801 15.9221 13.5658C15.2748 13.9955 14.6059 14.3844 13.9586 14.3844C13.3112 14.3844 12.6424 13.9955 11.995 13.5658C11.569 13.2825 11.1596 12.956 10.7312 12.956C10.3052 12.956 9.89585 13.2801 9.46746 13.5658C8.82009 13.9955 8.15128 14.3844 7.50391 14.3844C6.85654 14.3844 6.18773 13.9955 5.54036 13.5658C5.11434 13.2825 4.70497 12.956 4.27658 12.956C3.91957 12.956 3.42455 13.1697 2.95089 13.3953C2.13932 13.7866 1.3991 14.2787 1.3991 14.2787L1.39426 14.2787ZM11.7186 18.7679C11.3688 18.7679 11.0831 18.4822 11.0831 18.1269C11.0831 17.774 11.3664 17.4859 11.7186 17.4859H15.1316C15.4815 17.4859 15.7671 17.7716 15.7671 18.1269C15.7671 18.4798 15.4839 18.7679 15.1316 18.7679H11.7186ZM32.7768 18.7679C32.4269 18.7679 32.1413 18.4822 32.1413 18.1269C32.1413 17.774 32.4245 17.4859 32.7768 17.4859H36.1898C36.5396 17.4859 36.8253 17.7716 36.8253 18.1269C36.8253 18.4798 36.542 18.7679 36.1898 18.7679H32.7768ZM18.737 18.7679C18.3871 18.7679 18.1015 18.4822 18.1015 18.1269C18.1015 17.774 18.3847 17.4859 18.737 17.4859H22.15C22.4998 17.4859 22.7855 17.7716 22.7855 18.1269C22.7855 18.4798 22.5022 18.7679 22.15 18.7679H18.737ZM4.6972 18.7679C4.34734 18.7679 4.06172 18.4822 4.06172 18.1269C4.06172 17.774 4.34494 17.4859 4.6972 17.4859H8.11018C8.46005 17.4859 8.74567 17.7716 8.74567 18.1269C8.74567 18.4798 8.46245 18.7679 8.11018 18.7679H4.6972ZM25.7554 18.7679C25.4055 18.7679 25.1199 18.4822 25.1199 18.1269C25.1199 17.774 25.4031 17.4859 25.7554 17.4859H29.1683C29.5182 17.4859 29.8038 17.7716 29.8038 18.1269C29.8038 18.4798 29.5206 18.7679 29.1683 18.7679H25.7554ZM15.2238 23.6004C14.874 23.6004 14.5884 23.3147 14.5884 22.9594C14.5884 22.6065 14.8716 22.3184 15.2238 22.3184H18.6368C18.9867 22.3184 19.2723 22.6041 19.2723 22.9594C19.2723 23.3123 18.9891 23.6004 18.6368 23.6004H15.2238ZM36.282 23.6004C35.9322 23.6004 35.6465 23.3147 35.6465 22.9594C35.6465 22.6065 35.9298 22.3184 36.282 22.3184H39.695C40.0449 22.3184 40.3305 22.6041 40.3305 22.9594C40.3305 23.3123 40.0473 23.6004 39.695 23.6004H36.282ZM1.18405 23.6004C0.834189 23.6004 0.548568 23.3147 0.548568 22.9594C0.548568 22.6065 0.831788 22.3184 1.18405 22.3184H4.59703C4.9469 22.3184 5.23252 22.6041 5.23252 22.9594C5.23252 23.3123 4.9493 23.6004 4.59703 23.6004H1.18405ZM22.2422 23.6004C21.8924 23.6004 21.6067 23.3147 21.6067 22.9594C21.6067 22.6065 21.89 22.3184 22.2422 22.3184H25.6552C26.0051 22.3184 26.2907 22.6041 26.2907 22.9594C26.2907 23.3123 26.0075 23.6004 25.6552 23.6004H22.2422ZM8.20243 23.6004C7.85256 23.6004 7.56694 23.3147 7.56694 22.9594C7.56694 22.6065 7.85016 22.3184 8.20243 22.3184H11.6154C11.9653 22.3184 12.2509 22.6041 12.2509 22.9594C12.2509 23.3123 11.9677 23.6004 11.6154 23.6004H8.20243ZM29.2606 23.6004C28.9107 23.6004 28.6251 23.3147 28.6251 22.9594C28.6251 22.6065 28.9083 22.3184 29.2606 22.3184H32.6736C33.0234 22.3184 33.3091 22.6041 33.3091 22.9594C33.3091 23.3123 33.0258 23.6004 32.6736 23.6004H29.2606ZM11.3555 9.0359H1.03539C0.685523 9.0359 0.399902 8.75023 0.399902 8.39491C0.399902 8.04202 0.683123 7.75393 1.03539 7.75393H11.3555C15.8989 7.75393 16.3298 3.98015 16.7915 2.78944C17.3913 1.24824 18.8835 0.419998 20.3853 0.400823C21.899 0.379218 23.396 1.16663 23.9934 2.78464C24.4361 3.98255 24.9359 7.75632 29.4247 7.75632H39.7448C40.0946 7.75632 40.3803 8.042 40.3803 8.39731C40.3803 8.7502 40.097 9.0383 39.7448 9.0383H29.4247C24.0553 9.0383 23.3318 4.66434 22.8036 3.23119C22.4109 2.1605 21.4017 1.66596 20.4045 1.6828C19.3978 1.6972 18.3767 2.22294 17.9745 3.26001C17.4247 4.68118 16.7821 9.0383 11.3582 9.0383L11.3555 9.0359ZM18.6742 5.20688C19.0098 5.20688 19.2811 5.48055 19.2811 5.81904C19.2811 6.15752 19.0098 6.43119 18.6742 6.43119C18.3387 6.43119 18.0673 6.15752 18.0673 5.81904C18.0673 5.48055 18.3387 5.20688 18.6742 5.20688ZM21.9135 6.46482C22.249 6.46482 22.5204 6.73849 22.5204 7.07698C22.5204 7.41547 22.249 7.68914 21.9135 7.68914C21.5779 7.68914 21.3065 7.41547 21.3065 7.07698C21.3065 6.73849 21.5779 6.46482 21.9135 6.46482ZM24.1436 8.48378C24.4791 8.48378 24.7505 8.75745 24.7505 9.09594C24.7505 9.43443 24.4791 9.7081 24.1436 9.7081C23.808 9.7081 23.5367 9.43443 23.5367 9.09594C23.5367 8.75745 23.808 8.48378 24.1436 8.48378ZM16.77 8.48378C17.1056 8.48378 17.3769 8.75745 17.3769 9.09594C17.3769 9.43443 17.1056 9.7081 16.77 9.7081C16.4344 9.7081 16.1631 9.43443 16.1631 9.09594C16.1631 8.75745 16.4344 8.48378 16.77 8.48378ZM20.4566 8.48378C20.7922 8.48378 21.0636 8.75745 21.0636 9.09594C21.0636 9.43443 20.7922 9.7081 20.4566 9.7081C20.1211 9.7081 19.8497 9.43443 19.8497 9.09594C19.8497 8.75745 20.1211 8.48378 20.4566 8.48378ZM20.935 3.59132C21.2706 3.59132 21.5419 3.86499 21.5419 4.20348C21.5419 4.54197 21.2706 4.81564 20.935 4.81564C20.5995 4.81564 20.3281 4.54197 20.3281 4.20348C20.3281 3.86499 20.5995 3.59132 20.935 3.59132Z" stroke="#A88EC3" stroke-width="0.8" mask="url(#path-1-outside-1_76_3832)"/>
</svg>
