<svg width="44" height="46" viewBox="0 0 44 46" fill="none" xmlns="http://www.w3.org/2000/svg">
<path d="M38.4185 45.9824C38.2439 45.9822 38.0752 45.9195 37.9434 45.8058C37.8117 45.6921 37.7258 45.5352 37.7015 45.3638C37.5106 44.2845 36.915 43.3167 36.0342 42.6544C35.1142 41.7785 34.071 40.7863 34.071 38.7976C34.0549 37.714 34.3037 36.6427 34.796 35.675C35.3157 34.638 35.565 33.4883 35.5209 32.3312C35.5339 31.7006 35.3754 31.0782 35.062 30.5293C34.9674 30.3633 34.9432 30.1669 34.9948 29.9832C35.0463 29.7996 35.1693 29.6437 35.3368 29.55C35.5043 29.4562 35.7024 29.4322 35.8877 29.4833C36.073 29.5344 36.2303 29.6563 36.3249 29.8223C36.7598 30.5874 36.9825 31.4531 36.9701 32.3312C37.0148 33.6903 36.7234 35.0395 36.1212 36.2613C35.7134 37.0449 35.507 37.916 35.5202 38.7976C35.5202 40.1742 36.19 40.8093 37.0375 41.6176C38.1586 42.4998 38.9081 43.764 39.1398 45.164C39.153 45.2575 39.1475 45.3526 39.1236 45.444C39.0997 45.5353 39.0579 45.6211 39.0005 45.6964C38.9432 45.7717 38.8714 45.8351 38.7893 45.883C38.7073 45.9308 38.6165 45.9621 38.5222 45.9752C38.4879 45.9802 38.4532 45.9826 38.4185 45.9824Z" fill="#A88EC3"/>
<path d="M34.0701 45.9828C33.8955 45.9825 33.7268 45.9198 33.595 45.8062C33.4633 45.6925 33.3774 45.5356 33.3532 45.3641C33.1622 44.2849 32.5666 43.317 31.6858 42.6547C30.7658 41.7789 29.7227 40.7867 29.7227 38.7979C29.7227 38.5105 29.7357 38.2497 29.7596 38.0076C29.7667 37.9121 29.793 37.8189 29.837 37.7336C29.8809 37.6483 29.9416 37.5725 30.0155 37.5108C30.0895 37.4491 30.1751 37.4026 30.2674 37.3742C30.3597 37.3458 30.4568 37.3359 30.553 37.3452C30.6492 37.3545 30.7425 37.3827 30.8275 37.4283C30.9125 37.4739 30.9875 37.5359 31.048 37.6106C31.1085 37.6853 31.1533 37.7712 31.1798 37.8633C31.2063 37.9555 31.2139 38.0519 31.2023 38.147C31.1827 38.3453 31.1725 38.5594 31.1725 38.7936C31.1725 40.1702 31.8424 40.8054 32.6898 41.6137C33.8109 42.4958 34.5604 43.7601 34.7922 45.1601C34.8054 45.2536 34.7998 45.3487 34.7759 45.44C34.7521 45.5314 34.7102 45.6172 34.6529 45.6925C34.5955 45.7678 34.5237 45.8312 34.4417 45.879C34.3596 45.9269 34.2688 45.9582 34.1745 45.9713C34.1401 45.9778 34.1052 45.9816 34.0701 45.9828Z" fill="#A88EC3"/>
<path d="M42.7724 45.9829C42.5977 45.9827 42.4291 45.92 42.2973 45.8063C42.1656 45.6926 42.0797 45.5357 42.0554 45.3643C41.8644 44.285 41.2688 43.3172 40.3881 42.6549C39.4659 41.779 38.4228 40.7868 38.4228 38.7981C38.4066 37.7145 38.6554 36.6431 39.1477 35.6755C39.6674 34.6385 39.9167 33.4888 39.8726 32.3317C39.8612 31.7708 39.7364 31.2178 39.5055 30.7055C39.2747 30.1933 38.9425 29.7321 38.5286 29.3493C37.5721 28.433 37.014 27.1831 36.9729 25.8654C36.9319 24.7024 37.1959 23.5488 37.7391 22.5172C38.2404 21.5557 38.4762 20.48 38.4228 19.399C38.4228 8.65556 31.7221 1.43696 21.7492 1.43696C11.7762 1.43696 5.07555 8.65556 5.07555 19.399C5.02206 20.48 5.25791 21.5557 5.75917 22.5172C6.30241 23.5488 6.56642 24.7024 6.52543 25.8654C6.4843 27.1831 5.92617 28.433 4.96971 29.3493C4.55584 29.7321 4.22365 30.1933 3.99279 30.7055C3.76193 31.2178 3.6371 31.7708 3.62567 32.3317C3.58164 33.4888 3.83088 34.6385 4.35061 35.6755C4.84295 36.6431 5.09167 37.7145 5.07555 38.7981C5.07555 40.7868 4.03236 41.779 3.11241 42.6549C2.23168 43.3172 1.6361 44.285 1.44505 45.3643C1.43392 45.4594 1.40369 45.5514 1.35615 45.6349C1.30861 45.7183 1.24472 45.7914 1.16823 45.85C1.09174 45.9086 1.0042 45.9514 0.910763 45.976C0.817324 46.0006 0.719873 46.0063 0.624144 45.993C0.528414 45.9797 0.436339 45.9475 0.353337 45.8984C0.270335 45.8493 0.198081 45.7843 0.140827 45.7071C0.0835732 45.6299 0.0424756 45.5421 0.0199522 45.4489C-0.00257131 45.3558 -0.0060656 45.2591 0.00967481 45.1645C0.241239 43.7645 0.99075 42.5001 2.112 41.6181C2.95583 40.8098 3.62567 40.1747 3.62567 38.7981C3.63906 37.9164 3.43236 37.0452 3.02397 36.2618C2.42251 35.0398 2.13135 33.6907 2.17579 32.3317C2.19258 30.8587 2.79883 29.4526 3.86128 28.4224C4.53982 27.6257 5.07555 26.997 5.07555 25.8654C5.11416 24.9146 4.89752 23.9708 4.44775 23.1301C3.85454 21.9772 3.5714 20.6921 3.62567 19.399C3.62567 7.79841 10.9055 0.00359241 21.7412 0H21.7492C32.5892 0 39.8726 7.79625 39.8726 19.399C39.9269 20.6921 39.6438 21.9772 39.0506 23.1301C38.6008 23.9708 38.3842 24.9146 38.4228 25.8654C38.4228 26.997 38.9585 27.6257 39.637 28.4224C40.6995 29.4526 41.3057 30.8587 41.3225 32.3317C41.367 33.6907 41.0758 35.0398 40.4743 36.2618C40.0659 37.0452 39.8593 37.9164 39.8726 38.7981C39.8726 40.1747 40.5425 40.8098 41.3907 41.6181C42.5119 42.5001 43.2614 43.7645 43.493 45.1645C43.5196 45.3532 43.4696 45.5446 43.354 45.6967C43.2383 45.8488 43.0664 45.9492 42.8761 45.9757C42.8417 45.9807 42.8071 45.9831 42.7724 45.9829Z" fill="#A88EC3"/>
<path d="M5.08942 45.9824C5.05545 45.9825 5.02153 45.9801 4.98793 45.9752C4.89363 45.9621 4.80284 45.9308 4.72077 45.883C4.63869 45.8351 4.56692 45.7717 4.50956 45.6964C4.45221 45.6211 4.41039 45.5353 4.38649 45.444C4.36259 45.3526 4.35708 45.2575 4.37028 45.164C4.60204 43.764 5.35151 42.4998 6.4726 41.6176C7.31788 40.8093 7.98773 40.1742 7.98773 38.7976C8.00097 37.916 7.79455 37.0449 7.38675 36.2613C6.78454 35.0395 6.4931 33.6903 6.53785 32.3312C6.52569 31.453 6.74856 30.5873 7.18377 29.8223C7.27836 29.6563 7.43561 29.5344 7.62091 29.4833C7.80622 29.4322 8.0044 29.4562 8.17186 29.55C8.33932 29.6437 8.46235 29.7996 8.51388 29.9832C8.5654 30.1669 8.54121 30.3633 8.44661 30.5293C8.13323 31.0782 7.97472 31.7006 7.98773 32.3312C7.94369 33.4883 8.19293 34.638 8.71267 35.675C9.205 36.6427 9.45373 37.714 9.4376 38.7976C9.4376 40.7863 8.39442 41.7785 7.47447 42.6544C6.59341 43.3165 5.99755 44.2844 5.80638 45.3638C5.78211 45.5352 5.69621 45.6921 5.56449 45.8058C5.43276 45.9195 5.26407 45.9822 5.08942 45.9824Z" fill="#A88EC3"/>
<path d="M9.43708 45.9835C9.40311 45.9836 9.36918 45.9812 9.33558 45.9763C9.24128 45.9632 9.1505 45.9319 9.06842 45.8841C8.98634 45.8362 8.91458 45.7728 8.85722 45.6975C8.79986 45.6222 8.75804 45.5364 8.73414 45.4451C8.71024 45.3537 8.70474 45.2586 8.71794 45.1651C8.9497 43.7651 9.69917 42.5009 10.8203 41.6187C11.6655 40.8104 12.3354 40.1753 12.3354 38.7987C12.3354 38.5623 12.3252 38.3482 12.3057 38.152C12.2918 37.9649 12.3523 37.7799 12.4742 37.6364C12.5962 37.493 12.7699 37.4025 12.9583 37.3843C13.1467 37.366 13.3348 37.4216 13.4824 37.539C13.63 37.6564 13.7254 37.8264 13.7483 38.0126C13.7722 38.2526 13.7853 38.5156 13.7853 38.803C13.7853 40.7917 12.7421 41.784 11.8221 42.6598C10.942 43.3209 10.3462 44.2871 10.154 45.3649C10.1298 45.5363 10.0439 45.6932 9.91214 45.8069C9.78042 45.9206 9.61172 45.9833 9.43708 45.9835Z" fill="#A88EC3"/>
<path d="M21.7543 39.5164C8.13706 39.5164 7.98047 18.1531 7.98047 17.2435C7.98015 17.06 8.05063 16.8834 8.17746 16.7498C8.3043 16.6162 8.47788 16.5358 8.66264 16.525C8.78153 16.5178 20.6328 15.7519 24.0205 9.70801C24.0898 9.58451 24.1944 9.48402 24.321 9.41912C24.4477 9.35421 24.5909 9.32777 24.7326 9.34311C24.8744 9.35845 25.0084 9.41488 25.118 9.50535C25.2275 9.59581 25.3078 9.71629 25.3486 9.85171C26.0057 11.8147 27.2761 13.5194 28.9759 14.7191C30.6757 15.9189 32.7166 16.5513 34.8032 16.525C34.9955 16.525 35.1799 16.6007 35.3158 16.7354C35.4518 16.8702 35.5282 17.0529 35.5282 17.2435C35.5282 18.1531 35.3716 39.5164 21.7543 39.5164ZM9.44775 17.9037C9.58694 21.4559 10.8266 38.0794 21.7543 38.0794C32.6436 38.0794 33.9123 21.5709 34.0594 17.9418C32.0349 17.836 30.0774 17.1871 28.3961 16.0644C26.7147 14.9416 25.3727 13.3873 24.5134 11.5674C20.6611 16.4833 11.9952 17.6602 9.44775 17.9037Z" fill="#A88EC3"/>
<path d="M13.7795 45.9812C13.6079 45.9811 13.4419 45.9208 13.311 45.8108C13.18 45.7009 13.0927 45.5484 13.0645 45.3807C13.0363 45.2129 13.0691 45.0407 13.157 44.8946C13.2449 44.7486 13.3823 44.6381 13.5446 44.583C16.6285 43.5383 16.6793 39.1477 16.6793 39.1031V38.0779C16.6793 37.8873 16.7556 37.7046 16.8916 37.5698C17.0275 37.4351 17.2119 37.3594 17.4042 37.3594C17.5965 37.3594 17.7809 37.4351 17.9168 37.5698C18.0528 37.7046 18.1291 37.8873 18.1291 38.0779V39.1046C18.1291 39.3266 18.0827 44.56 14.0144 45.9424C13.9388 45.9681 13.8594 45.9813 13.7795 45.9812Z" fill="#A88EC3"/>
<path d="M29.7246 45.9812C29.6447 45.9813 29.5653 45.9681 29.4898 45.9424C25.4214 44.56 25.375 39.3266 25.375 39.1046V38.0779C25.375 37.8873 25.4514 37.7046 25.5873 37.5698C25.7233 37.4351 25.9077 37.3594 26.0999 37.3594C26.2922 37.3594 26.4766 37.4351 26.6125 37.5698C26.7485 37.7046 26.8249 37.8873 26.8249 38.0779V39.1046C26.8249 39.1477 26.8756 43.5347 29.9595 44.583C30.1219 44.6381 30.2592 44.7486 30.3471 44.8946C30.435 45.0407 30.4678 45.2129 30.4396 45.3807C30.4114 45.5484 30.3241 45.7009 30.1932 45.8108C30.0623 45.9208 29.8962 45.9811 29.7246 45.9812Z" fill="#A88EC3"/>
<path d="M15.2288 27.3022C15.6292 27.3022 15.9538 26.9805 15.9538 26.5837C15.9538 26.1869 15.6292 25.8652 15.2288 25.8652C14.8285 25.8652 14.5039 26.1869 14.5039 26.5837C14.5039 26.9805 14.8285 27.3022 15.2288 27.3022Z" fill="#A88EC3"/>
<path d="M14.5023 29.4565C14.9027 29.4565 15.2272 29.1348 15.2272 28.738C15.2272 28.3412 14.9027 28.0195 14.5023 28.0195C14.1019 28.0195 13.7773 28.3412 13.7773 28.738C13.7773 29.1348 14.1019 29.4565 14.5023 29.4565Z" fill="#A88EC3"/>
<path d="M18.1273 30.894C18.5277 30.894 18.8522 30.5723 18.8522 30.1755C18.8522 29.7787 18.5277 29.457 18.1273 29.457C17.7269 29.457 17.4023 29.7787 17.4023 30.1755C17.4023 30.5723 17.7269 30.894 18.1273 30.894Z" fill="#A88EC3"/>
<path d="M18.1273 28.0209C18.5277 28.0209 18.8522 27.6993 18.8522 27.3025C18.8522 26.9057 18.5277 26.584 18.1273 26.584C17.7269 26.584 17.4023 26.9057 17.4023 27.3025C17.4023 27.6993 17.7269 28.0209 18.1273 28.0209Z" fill="#A88EC3"/>
<path d="M15.9554 32.3315C16.3558 32.3315 16.6803 32.0098 16.6803 31.613C16.6803 31.2162 16.3558 30.8945 15.9554 30.8945C15.555 30.8945 15.2305 31.2162 15.2305 31.613C15.2305 32.0098 15.555 32.3315 15.9554 32.3315Z" fill="#A88EC3"/>
<path d="M28.2796 27.3022C28.68 27.3022 29.0046 26.9805 29.0046 26.5837C29.0046 26.1869 28.68 25.8652 28.2796 25.8652C27.8793 25.8652 27.5547 26.1869 27.5547 26.5837C27.5547 26.9805 27.8793 27.3022 28.2796 27.3022Z" fill="#A88EC3"/>
<path d="M28.9984 29.4565C29.3987 29.4565 29.7233 29.1348 29.7233 28.738C29.7233 28.3412 29.3987 28.0195 28.9984 28.0195C28.598 28.0195 28.2734 28.3412 28.2734 28.738C28.2734 29.1348 28.598 29.4565 28.9984 29.4565Z" fill="#A88EC3"/>
<path d="M25.3773 30.894C25.7777 30.894 26.1022 30.5723 26.1022 30.1755C26.1022 29.7787 25.7777 29.457 25.3773 29.457C24.9769 29.457 24.6523 29.7787 24.6523 30.1755C24.6523 30.5723 24.9769 30.894 25.3773 30.894Z" fill="#A88EC3"/>
<path d="M25.3773 28.0209C25.7777 28.0209 26.1022 27.6993 26.1022 27.3025C26.1022 26.9057 25.7777 26.584 25.3773 26.584C24.9769 26.584 24.6523 26.9057 24.6523 27.3025C24.6523 27.6993 24.9769 28.0209 25.3773 28.0209Z" fill="#A88EC3"/>
<path d="M27.5492 32.3315C27.9495 32.3315 28.2741 32.0098 28.2741 31.613C28.2741 31.2162 27.9495 30.8945 27.5492 30.8945C27.1488 30.8945 26.8242 31.2162 26.8242 31.613C26.8242 32.0098 27.1488 32.3315 27.5492 32.3315Z" fill="#A88EC3"/>
<path d="M26.8295 24.4272C26.238 24.3915 25.6661 24.2036 25.1702 23.8819C24.6744 23.5602 24.2718 23.1159 24.0022 22.5929C23.9163 22.4223 23.9022 22.2249 23.9631 22.0441C24.024 21.8633 24.1549 21.7139 24.327 21.6287C24.4991 21.5435 24.6982 21.5296 24.8807 21.5899C25.0631 21.6503 25.2139 21.78 25.2998 21.9506C25.4493 22.2349 25.6669 22.4784 25.9337 22.6597C26.2004 22.841 26.508 22.9545 26.8295 22.9902C27.151 22.9537 27.4586 22.8394 27.7251 22.6573C27.9916 22.4753 28.2088 22.2311 28.3576 21.9462C28.4442 21.776 28.5954 21.6468 28.778 21.587C28.9607 21.5273 29.1598 21.5419 29.3316 21.6276C29.5034 21.7134 29.6338 21.8632 29.6941 22.0442C29.7544 22.2253 29.7396 22.4226 29.6531 22.5929C29.3838 23.1154 28.9818 23.5594 28.4866 23.881C27.9915 24.2027 27.4204 24.3909 26.8295 24.4272Z" fill="#A88EC3"/>
<path d="M16.6774 24.4272C16.0865 24.3909 15.5154 24.2027 15.0202 23.881C14.5251 23.5594 14.1231 23.1154 13.8538 22.5929C13.7678 22.4223 13.7538 22.2249 13.8147 22.0441C13.8756 21.8633 14.0065 21.7139 14.1785 21.6287C14.3506 21.5435 14.5498 21.5296 14.7322 21.5899C14.9147 21.6503 15.0655 21.78 15.1514 21.9506C15.3005 22.2344 15.5176 22.4776 15.7837 22.6589C16.0497 22.8402 16.3566 22.9539 16.6774 22.9902C16.999 22.9537 17.3065 22.8394 17.573 22.6573C17.8395 22.4753 18.0567 22.2311 18.2056 21.9462C18.2921 21.776 18.4433 21.6468 18.626 21.587C18.8086 21.5273 19.0077 21.5419 19.1795 21.6276C19.3513 21.7134 19.4817 21.8632 19.542 22.0442C19.6023 22.2253 19.5876 22.4226 19.501 22.5929C19.2317 23.1154 18.8297 23.5594 18.3346 23.881C17.8394 24.2027 17.2683 24.3909 16.6774 24.4272Z" fill="#A88EC3"/>
</svg>
