<svg width="20" height="23" viewBox="0 0 20 23" fill="none" xmlns="http://www.w3.org/2000/svg">
<path d="M19.3754 22.0368H0.49752C0.360889 22.0368 0.25 21.9259 0.25 21.7892V11.6518C0.25 11.5152 0.360889 11.4043 0.49752 11.4043H6.14444C6.28107 11.4043 6.39196 11.5152 6.39196 11.6518C6.39196 11.7884 6.28107 11.8993 6.14444 11.8993H0.74504V21.5417H19.1279V11.8993H13.7285C13.5918 11.8993 13.4809 11.7884 13.4809 11.6518C13.4809 11.5152 13.5918 11.4043 13.7285 11.4043H19.3754C19.512 11.4043 19.6229 11.5152 19.6229 11.6518V21.7892C19.6229 21.9259 19.512 22.0368 19.3754 22.0368Z" fill="#A88EC3" stroke="#A88EC3" stroke-width="0.5"/>
<path d="M17.4878 16.1133C17.1284 16.1133 16.7868 15.9856 16.4571 15.8618C16.1551 15.7485 15.87 15.6415 15.6002 15.6415C15.3304 15.6415 15.0452 15.7485 14.7433 15.8618C14.4131 15.9856 14.072 16.1133 13.7126 16.1133C13.3532 16.1133 13.0116 15.9856 12.6819 15.8618C12.3799 15.7485 12.0948 15.6415 11.825 15.6415C11.5552 15.6415 11.2701 15.7485 10.9681 15.8618C10.6379 15.9856 10.2968 16.1133 9.93741 16.1133C9.57801 16.1133 9.23643 15.9856 8.90674 15.8618C8.60476 15.7485 8.31962 15.6415 8.04982 15.6415C7.78002 15.6415 7.49488 15.7485 7.19291 15.8618C6.86272 15.9856 6.52163 16.1133 6.16223 16.1133C5.80284 16.1133 5.46126 15.9856 5.13156 15.8618C4.82959 15.7485 4.54444 15.6415 4.27465 15.6415C4.00485 15.6415 3.71971 15.7485 3.41773 15.8618C3.08754 15.9856 2.74646 16.1133 2.38706 16.1133C2.02766 16.1133 1.68608 15.9856 1.35639 15.8618C1.05441 15.7485 0.76927 15.6415 0.499473 15.6415C0.362842 15.6415 0.251953 15.5306 0.251953 15.394C0.251953 15.2574 0.362842 15.1465 0.499473 15.1465C0.858872 15.1465 1.20045 15.2742 1.53015 15.398C1.83212 15.5113 2.11726 15.6183 2.38706 15.6183C2.65686 15.6183 2.942 15.5113 3.24397 15.398C3.57417 15.2742 3.91525 15.1465 4.27465 15.1465C4.63405 15.1465 4.97562 15.2742 5.30532 15.398C5.6073 15.5113 5.89244 15.6183 6.16223 15.6183C6.43203 15.6183 6.71717 15.5113 7.01915 15.398C7.34934 15.2742 7.69042 15.1465 8.04982 15.1465C8.40922 15.1465 8.7508 15.2742 9.08049 15.398C9.38247 15.5113 9.66761 15.6183 9.93741 15.6183C10.2072 15.6183 10.4923 15.5113 10.7943 15.398C11.1245 15.2742 11.4656 15.1465 11.825 15.1465C12.1844 15.1465 12.526 15.2742 12.8557 15.398C13.1576 15.5113 13.4428 15.6183 13.7126 15.6183C13.9824 15.6183 14.2675 15.5113 14.5695 15.398C14.8997 15.2742 15.2408 15.1465 15.6002 15.1465C15.9596 15.1465 16.3011 15.2742 16.6308 15.398C16.9328 15.5113 17.218 15.6183 17.4878 15.6183C17.7576 15.6183 18.0427 15.5113 18.3447 15.398C18.6749 15.2742 19.0159 15.1465 19.3753 15.1465C19.512 15.1465 19.6229 15.2574 19.6229 15.394C19.6229 15.5306 19.512 15.6415 19.3753 15.6415C19.1055 15.6415 18.8204 15.7485 18.5184 15.8618C18.1882 15.9856 17.8472 16.1133 17.4878 16.1133Z" fill="#A88EC3" stroke="#A88EC3" stroke-width="0.3"/>
<path d="M2.91883 20.6736C2.39111 20.6736 1.96191 20.2444 1.96191 19.7167C1.96191 19.189 2.39111 18.7598 2.91883 18.7598C3.44654 18.7598 3.87574 19.189 3.87574 19.7167C3.87574 20.2444 3.44654 20.6736 2.91883 20.6736ZM2.91883 19.2543C2.66388 19.2543 2.45695 19.4617 2.45695 19.7162C2.45695 19.9711 2.66438 20.1781 2.91883 20.1781C3.17328 20.1781 3.3807 19.9706 3.3807 19.7162C3.3807 19.4617 3.17377 19.2543 2.91883 19.2543Z" fill="#A88EC3" stroke="#A88EC3" stroke-width="0.2"/>
<path d="M4.99207 18.8494C4.46436 18.8494 4.03516 18.4202 4.03516 17.8925C4.03516 17.3647 4.46436 16.9355 4.99207 16.9355C5.51978 16.9355 5.94898 17.3647 5.94898 17.8925C5.94898 18.4202 5.52028 18.8494 4.99207 18.8494ZM4.99207 17.4301C4.73712 17.4301 4.5302 17.6375 4.5302 17.892C4.5302 18.1469 4.73762 18.3538 4.99207 18.3538C5.24652 18.3538 5.45394 18.1464 5.45394 17.892C5.45444 17.6375 5.24701 17.4301 4.99207 17.4301Z" fill="#A88EC3" stroke="#A88EC3" stroke-width="0.2"/>
<path d="M6.90711 20.6736C6.3794 20.6736 5.9502 20.2444 5.9502 19.7167C5.9502 19.189 6.3794 18.7598 6.90711 18.7598C7.43482 18.7598 7.86402 19.189 7.86402 19.7167C7.86402 20.2444 7.43532 20.6736 6.90711 20.6736ZM6.90711 19.2543C6.65216 19.2543 6.44524 19.4617 6.44524 19.7162C6.44524 19.9711 6.65266 20.1781 6.90711 20.1781C7.16156 20.1781 7.36898 19.9706 7.36898 19.7162C7.36947 19.4617 7.16205 19.2543 6.90711 19.2543Z" fill="#A88EC3" stroke="#A88EC3" stroke-width="0.2"/>
<path d="M8.97937 18.8494C8.45166 18.8494 8.02246 18.4202 8.02246 17.8925C8.02246 17.3647 8.45166 16.9355 8.97937 16.9355C9.50709 16.9355 9.93629 17.3647 9.93629 17.8925C9.93629 18.4202 9.50709 18.8494 8.97937 18.8494ZM8.97937 17.4301C8.72443 17.4301 8.5175 17.6375 8.5175 17.892C8.5175 18.1469 8.72492 18.3538 8.97937 18.3538C9.23382 18.3538 9.44125 18.1464 9.44125 17.892C9.44125 17.6375 9.23432 17.4301 8.97937 17.4301Z" fill="#A88EC3" stroke="#A88EC3" stroke-width="0.2"/>
<path d="M10.8944 20.6736C10.3667 20.6736 9.9375 20.2444 9.9375 19.7167C9.9375 19.189 10.3667 18.7598 10.8944 18.7598C11.4221 18.7598 11.8513 19.189 11.8513 19.7167C11.8513 20.2444 11.4221 20.6736 10.8944 20.6736ZM10.8944 19.2543C10.6395 19.2543 10.4325 19.4617 10.4325 19.7162C10.4325 19.9711 10.64 20.1781 10.8944 20.1781C11.1494 20.1781 11.3563 19.9706 11.3563 19.7162C11.3563 19.4617 11.1494 19.2543 10.8944 19.2543Z" fill="#A88EC3" stroke="#A88EC3" stroke-width="0.2"/>
<path d="M12.9667 18.8494C12.439 18.8494 12.0098 18.4202 12.0098 17.8925C12.0098 17.3647 12.439 16.9355 12.9667 16.9355C13.4944 16.9355 13.9236 17.3647 13.9236 17.8925C13.9236 18.4202 13.4944 18.8494 12.9667 18.8494ZM12.9667 17.4301C12.7117 17.4301 12.5048 17.6375 12.5048 17.892C12.5048 18.1469 12.7122 18.3538 12.9667 18.3538C13.2216 18.3538 13.4285 18.1464 13.4285 17.892C13.4285 17.6375 13.2211 17.4301 12.9667 17.4301Z" fill="#A88EC3" stroke="#A88EC3" stroke-width="0.2"/>
<path d="M14.8817 20.6736C14.354 20.6736 13.9248 20.2444 13.9248 19.7167C13.9248 19.189 14.354 18.7598 14.8817 18.7598C15.4094 18.7598 15.8386 19.189 15.8386 19.7167C15.8386 20.2444 15.4094 20.6736 14.8817 20.6736ZM14.8817 19.2543C14.6268 19.2543 14.4198 19.4617 14.4198 19.7162C14.4198 19.9711 14.6273 20.1781 14.8817 20.1781C15.1367 20.1781 15.3436 19.9706 15.3436 19.7162C15.3436 19.4617 15.1362 19.2543 14.8817 19.2543Z" fill="#A88EC3" stroke="#A88EC3" stroke-width="0.2"/>
<path d="M16.954 18.8494C16.4263 18.8494 15.9971 18.4202 15.9971 17.8925C15.9971 17.3647 16.4263 16.9355 16.954 16.9355C17.4817 16.9355 17.9109 17.3647 17.9109 17.8925C17.9109 18.4202 17.4817 18.8494 16.954 18.8494ZM16.954 17.4301C16.699 17.4301 16.4921 17.6375 16.4921 17.892C16.4921 18.1469 16.6995 18.3538 16.954 18.3538C17.2084 18.3538 17.4159 18.1464 17.4159 17.892C17.4163 17.6375 17.2089 17.4301 16.954 17.4301Z" fill="#A88EC3" stroke="#A88EC3" stroke-width="0.2"/>
<path d="M9.93665 14.7992C9.90744 14.7992 9.87774 14.7938 9.84952 14.7834C8.1753 14.1552 6.8075 13.074 5.78425 11.5691C4.9714 10.3736 4.37438 8.91023 4.01102 7.22066C3.39519 4.35834 3.65707 1.86829 3.66845 1.76383C3.68083 1.64898 3.77142 1.55839 3.88577 1.54502C4.00062 1.53116 4.10904 1.59948 4.14765 1.70839C4.41646 2.46679 4.80803 2.91084 5.31149 3.02767C6.6382 3.33608 8.5342 1.48512 9.34359 0.694546C9.72923 0.31782 9.79903 0.25 9.93615 0.25C10.0738 0.25 10.1431 0.31782 10.5287 0.694546C11.3381 1.48512 13.2346 3.33608 14.5608 3.02767C15.0643 2.91084 15.4558 2.46679 15.7247 1.70839C15.7633 1.59948 15.8722 1.53166 15.9865 1.54502C16.1014 1.55839 16.1915 1.64898 16.2039 1.76383C16.2152 1.86829 16.4771 4.35834 15.8613 7.22066C15.4979 8.91023 14.9009 10.3731 14.0881 11.5691C13.0648 13.074 11.697 14.1552 10.0228 14.7834C9.99556 14.7938 9.96585 14.7992 9.93665 14.7992ZM4.10904 2.73114C4.08231 3.70983 4.11646 5.36228 4.49814 7.12957C5.28822 10.7879 7.11789 13.1953 9.93665 14.2869C12.7589 13.1938 14.589 10.782 15.3781 7.11719C15.7578 5.35287 15.7915 3.70637 15.7648 2.73114C15.4717 3.14846 15.1068 3.40935 14.6737 3.50984C13.0826 3.87963 11.1247 1.96779 10.1837 1.04899C10.0956 0.962857 10.0055 0.87474 9.93714 0.81088C9.86883 0.875235 9.77873 0.962857 9.69012 1.04899C8.83023 1.88858 7.12136 3.55637 5.6194 3.55687C5.47733 3.55687 5.33723 3.54202 5.20011 3.50984C4.76645 3.40885 4.40161 3.14796 4.10904 2.73114Z" fill="#A88EC3" stroke="#A88EC3" stroke-width="0.5"/>
<path d="M8.24275 10.0912C8.17691 10.0912 8.11404 10.065 8.06751 10.0189L6.81654 8.76797C6.72001 8.67144 6.72001 8.51451 6.81654 8.41798C6.91307 8.32145 7.07 8.32145 7.16653 8.41798L8.24226 9.4937L12.7065 5.02943C12.8031 4.9329 12.96 4.9329 13.0565 5.02943C13.1531 5.12596 13.1531 5.28289 13.0565 5.37942L8.417 10.0189C8.37097 10.065 8.3081 10.0912 8.24275 10.0912Z" fill="#A88EC3" stroke="#A88EC3" stroke-width="0.5"/>
</svg>
