<svg width="44" height="33" viewBox="0 0 44 33" fill="none" xmlns="http://www.w3.org/2000/svg">
<path d="M43.474 13.9969C43.4492 13.9108 43.4082 13.8318 43.3539 13.7653C43.2996 13.6988 43.2333 13.6464 43.1594 13.6117C41.9768 13.0599 14.0911 0.241366 3.54345 16.2388C-0.173966 21.8817 -0.189285 23.5475 0.122202 24.311C0.188406 24.4847 0.294257 24.6353 0.428873 24.7473C0.56349 24.8594 0.722015 24.9288 0.888153 24.9484C0.972914 24.9574 1.05831 24.9419 1.13632 24.9033C1.23845 24.8605 3.68336 23.9038 15.6782 26.4002C17.6574 26.8207 19.6664 27.0353 21.6801 27.041C26.0001 27.041 29.6205 25.9779 32.6128 24.4868H32.622C32.6939 24.487 32.7651 24.4708 32.8314 24.4394C32.9048 24.4046 32.9707 24.3521 33.0244 24.2855C40.0395 20.6277 43.3688 14.6077 43.4209 14.5094C43.4614 14.4332 43.4871 14.348 43.4962 14.2596C43.5054 14.1713 43.4978 14.0817 43.474 13.9969ZM26.7998 17.2163C26.7998 18.6806 26.4164 20.112 25.6982 21.3295C24.98 22.547 23.9592 23.4959 22.7649 24.0563C21.5706 24.6166 20.2564 24.7633 18.9885 24.4776C17.7206 24.1919 16.556 23.4868 15.6419 22.4514C14.7278 21.416 14.1053 20.0968 13.8531 18.6607C13.6009 17.2245 13.7304 15.7359 14.2251 14.3831C14.7198 13.0303 15.5575 11.874 16.6324 11.0605C17.7072 10.247 18.9709 9.81276 20.2636 9.81276C21.9965 9.81491 23.6579 10.5956 24.8833 11.9836C26.1086 13.3715 26.7979 15.2534 26.7998 17.2163ZM3.26566 23.4422C2.14227 23.4422 1.48355 23.5348 1.10875 23.6227C1.10875 23.1519 1.42534 21.5509 4.43399 16.9896C4.94795 16.215 5.52327 15.4952 6.15279 14.8391L8.27805 17.2464V19.7995C8.27484 19.884 8.28677 19.9684 8.31311 20.0475C8.33946 20.1267 8.37967 20.199 8.43134 20.2601C8.48301 20.3212 8.54506 20.3698 8.61376 20.403C8.68245 20.4362 8.75637 20.4534 8.83106 20.4534C8.90575 20.4534 8.97967 20.4362 9.04837 20.403C9.11706 20.3698 9.17911 20.3212 9.23078 20.2601C9.28245 20.199 9.32267 20.1267 9.34901 20.0475C9.37536 19.9684 9.38729 19.884 9.38408 19.7995V17.8433H10.916C11.0628 17.8433 11.2036 17.7772 11.3074 17.6597C11.4112 17.5421 11.4695 17.3826 11.4695 17.2163C11.4695 17.05 11.4112 16.8905 11.3074 16.773C11.2036 16.6554 11.0628 16.5893 10.916 16.5893H9.23702C9.2268 16.5754 9.23089 16.5558 9.21965 16.543L6.99533 14.0235C9.58629 11.696 12.7931 10.4374 16.2245 9.89721C15.1249 10.6705 14.2172 11.7481 13.5868 13.0286C12.9565 14.3091 12.6243 15.7502 12.6215 17.2163C12.6215 21.2316 15.0582 24.5851 18.3406 25.5603C17.5379 25.4609 16.726 25.3475 15.8814 25.1717C9.21761 23.7835 5.4042 23.4422 3.26566 23.4422ZM32.9039 22.9795L31.9 20.2032C31.9876 20.0919 32.0369 19.9486 32.0389 19.7995V16.9861C32.0389 16.9038 32.0245 16.8222 31.9967 16.7462C31.9689 16.6701 31.9281 16.601 31.8767 16.5428C31.8253 16.4845 31.7643 16.4384 31.6972 16.4068C31.63 16.3753 31.558 16.3591 31.4853 16.3591C31.4126 16.3591 31.3407 16.3753 31.2735 16.4068C31.2063 16.4384 31.1453 16.4845 31.0939 16.5428C31.0425 16.601 31.0018 16.6701 30.9739 16.7462C30.9461 16.8222 30.9318 16.9038 30.9318 16.9861V19.1725H28.6891C28.5423 19.1725 28.4015 19.2385 28.2977 19.3561C28.1939 19.4737 28.1356 19.6332 28.1356 19.7995C28.1356 19.9657 28.1939 20.1252 28.2977 20.2428C28.4015 20.3604 28.5423 20.4264 28.6891 20.4264H30.7817L31.8867 23.4862C28.9608 24.8894 25.4098 25.8472 21.1807 25.7686C24.9594 25.248 27.9068 21.6341 27.9068 17.2163C27.9068 13.9958 26.3279 11.2148 24.0199 9.72253C28.5134 10.1239 32.863 11.2368 36.2404 12.3196V14.3243H34.4736C34.4009 14.3243 34.3289 14.3405 34.2617 14.372C34.1946 14.4035 34.1336 14.4497 34.0822 14.5079C34.0308 14.5662 33.99 14.6353 33.9622 14.7114C33.9343 14.7874 33.92 14.8689 33.92 14.9513C33.92 15.0336 33.9343 15.1152 33.9622 15.1912C33.99 15.2673 34.0308 15.3364 34.0822 15.3946C34.1336 15.4529 34.1946 15.499 34.2617 15.5305C34.3289 15.5621 34.4009 15.5783 34.4736 15.5783H36.2404V17.1388C36.2404 17.3051 36.2987 17.4646 36.4025 17.5822C36.5063 17.6997 36.6471 17.7658 36.7939 17.7658C36.9407 17.7658 37.0815 17.6997 37.1853 17.5822C37.2891 17.4646 37.3474 17.3051 37.3474 17.1388V12.6839C39.5533 13.4312 41.2395 14.1195 42.0994 14.4886C41.1026 16.0456 38.1031 20.1719 32.9008 22.983L32.9039 22.9795Z" fill="#A88EC3"/>
<path d="M0.560677 14.1079C0.673386 14.1075 0.783449 14.0678 0.87693 13.9938C20.5735 -1.80294 42.456 11.7453 42.6741 11.8849C42.7996 11.9644 42.9462 11.9846 43.084 11.9415C43.2218 11.8984 43.3404 11.7952 43.4156 11.6529C43.4909 11.5106 43.5171 11.34 43.489 11.1758C43.4608 11.0116 43.3805 10.8661 43.2642 10.7691C26.5162 -3.12997 14.1616 -0.68718 6.32145 2.3578C3.08037 3.61683 0.701234 7.02726 0.259926 11.0435L0.00464908 13.3661C-0.00924242 13.4919 0.00815347 13.6197 0.054736 13.7341C0.101319 13.8485 0.175096 13.9446 0.26716 14.0108C0.355579 14.0742 0.457111 14.1078 0.560677 14.1079ZM1.37095 11.2111C1.75748 7.69016 3.83896 4.70831 6.67388 3.60712C9.73409 2.41851 13.5043 1.32581 17.9815 1.32581C23.4374 1.32581 29.9412 2.94786 37.4859 7.99612C29.6725 4.96085 15.0587 1.77017 1.27173 12.1095L1.37095 11.2111Z" fill="#A88EC3"/>
<path d="M32.3541 26.013C29.6251 28.6719 23.2591 31.5316 15.7234 31.5316C10.0659 31.5316 0.837946 27.6628 0.74549 27.6232C0.675375 27.5925 0.600951 27.5794 0.52665 27.5848C0.452349 27.5902 0.37969 27.614 0.313002 27.6546C0.246313 27.6953 0.186958 27.7521 0.138471 27.8217C0.0899848 27.8912 0.0533577 27.972 0.0307719 28.0593C0.00667992 28.1452 -0.00342882 28.2361 0.00102286 28.3268C0.00547453 28.4176 0.0243993 28.5063 0.0567166 28.588C0.0890338 28.6697 0.13411 28.7428 0.189371 28.8031C0.244632 28.8633 0.308994 28.9096 0.378781 28.9392C0.765227 29.1016 9.87476 32.9192 15.7234 32.9192C23.5282 32.9192 30.1767 29.9035 33.0512 27.1001C33.1091 27.0438 33.1574 26.9739 33.1934 26.8946C33.2294 26.8153 33.2523 26.728 33.2609 26.6377C33.2695 26.5475 33.2635 26.456 33.2434 26.3686C33.2233 26.2811 33.1894 26.1994 33.1436 26.1281C33.0978 26.0569 33.0411 25.9974 32.9767 25.953C32.9122 25.9087 32.8413 25.8805 32.768 25.8699C32.6947 25.8594 32.6204 25.8667 32.5494 25.8914C32.4784 25.9162 32.412 25.958 32.3541 26.0143V26.013Z" fill="#A88EC3"/>
</svg>
