<svg width="41" height="30" viewBox="0 0 41 30" fill="none" xmlns="http://www.w3.org/2000/svg">
<mask id="path-1-outside-1_76_3835" maskUnits="userSpaceOnUse" x="-0.599609" y="-0.599609" width="42" height="31" fill="black">
<rect fill="white" x="-0.599609" y="-0.599609" width="42" height="31"/>
<path fill-rule="evenodd" clip-rule="evenodd" d="M20.0066 20.8781C19.4787 20.7745 18.9341 20.4723 18.3967 20.155C17.9782 19.9068 17.5716 19.6327 17.1554 19.6327C16.7298 19.6327 16.3208 19.9241 15.8927 20.1809C15.2459 20.5673 14.5777 20.9169 13.9309 20.9169C13.2841 20.9169 12.6159 20.5673 11.9691 20.1809C11.5434 19.9263 11.1344 19.6327 10.7064 19.6327C10.2808 19.6327 9.87176 19.9241 9.44374 20.1809C8.79694 20.5673 8.12872 20.9169 7.48192 20.9169C6.83512 20.9169 6.16689 20.5673 5.52009 20.1809C5.09444 19.9263 4.68543 19.6327 4.25742 19.6327C3.90073 19.6327 3.40614 19.8248 2.9329 20.0277C2.12204 20.3795 1.38247 20.822 1.38247 20.822C1.08998 20.9968 0.697623 20.9234 0.505014 20.6579C0.312405 20.3925 0.393253 20.0363 0.68574 19.8615C0.68574 19.8615 1.79148 19.2011 2.84492 18.8018C3.36331 18.6054 3.86982 18.4802 4.25741 18.4802C4.90421 18.4802 5.57243 18.8298 6.21923 19.2162C6.64489 19.4708 7.05389 19.7644 7.48191 19.7644C7.90756 19.7644 8.31657 19.473 8.74458 19.2162C9.39138 18.8298 10.0596 18.4802 10.7064 18.4802C11.3532 18.4802 12.0214 18.8298 12.6682 19.2162C13.0939 19.4708 13.5029 19.7644 13.9309 19.7644C14.3566 19.7644 14.7656 19.473 15.1936 19.2162C15.8404 18.8298 16.5086 18.4802 17.1554 18.4802C17.7903 18.4802 18.449 18.8126 19.0887 19.1903L18.4324 16.1083H1.09269C0.743133 16.1083 0.457763 15.8515 0.457763 15.532C0.457763 15.2148 0.740735 14.9557 1.09269 14.9557H18.9535C19.2578 14.9557 19.5194 15.1521 19.5741 15.4241L20.4825 19.678L20.7607 19.9392L21.738 20.8435L21.5074 19.7665C21.5026 19.7406 21.4979 19.7191 21.4931 19.6932L21.3504 19.0284C21.3385 18.9723 21.3362 18.9183 21.3433 18.8601L21.7214 15.4759C21.7547 15.1802 22.0281 14.9579 22.3539 14.9579H39.7655C40.115 14.9579 40.4004 15.2147 40.4004 15.5342C40.4004 15.8515 40.1174 16.1105 39.7655 16.1105H22.9274L22.6373 18.6982C22.9631 18.5666 23.2841 18.4846 23.6003 18.4846C24.2471 18.4846 24.9153 18.8342 25.5621 19.2205C25.9878 19.4752 26.3968 19.7687 26.8248 19.7687C27.2505 19.7687 27.6571 19.4774 28.0827 19.2205C28.7295 18.8342 29.393 18.4846 30.0469 18.4846C30.6961 18.4846 31.3715 18.8342 32.0301 19.2184C32.4701 19.4752 32.891 19.7687 33.319 19.7687C33.7423 19.7687 34.1394 19.4795 34.5531 19.2248C35.1904 18.8364 35.8443 18.4846 36.4911 18.4846C36.8764 18.4846 37.3828 18.6119 37.9012 18.8062C38.9523 19.2011 40.0628 19.8637 40.0628 19.8637C40.3553 20.0386 40.4385 20.3947 40.2459 20.6601C40.0533 20.9256 39.6609 21.0011 39.3684 20.8263C39.3684 20.8263 38.6289 20.3839 37.8133 20.0321C37.3424 19.827 36.8478 19.6371 36.4911 19.6371C36.0702 19.6371 35.6779 19.9263 35.2617 20.181C34.6244 20.5695 33.9681 20.9213 33.319 20.9213C32.6745 20.9213 31.9992 20.5716 31.3429 20.1875C30.903 19.9306 30.4797 19.6371 30.0469 19.6371C29.6165 19.6371 29.2075 19.9285 28.7819 20.1853C28.1351 20.5716 27.474 20.9213 26.8249 20.9213C26.1781 20.9213 25.5098 20.5716 24.863 20.1853C24.4374 19.9306 24.0284 19.6371 23.6004 19.6371C23.3388 19.6371 23.0844 19.7493 22.8276 19.8939L23.3864 22.5119C23.4387 22.7601 23.3055 23.0148 23.0582 23.1314C22.8085 23.2479 22.5042 23.2048 22.3092 23.0235L20.0025 20.8846L20.0066 20.8781ZM11.7099 24.8558C11.3603 24.8558 11.075 24.5989 11.075 24.2795C11.075 23.9622 11.3579 23.7032 11.7099 23.7032H15.1199C15.4694 23.7032 15.7548 23.96 15.7548 24.2795C15.7548 24.5968 15.4718 24.8558 15.1199 24.8558H11.7099ZM32.7496 24.8558C32.4 24.8558 32.1146 24.5989 32.1146 24.2795C32.1146 23.9622 32.3976 23.7032 32.7496 23.7032H36.1595C36.5091 23.7032 36.7945 23.96 36.7945 24.2795C36.7945 24.5968 36.5115 24.8558 36.1595 24.8558H32.7496ZM18.7221 24.8558C18.3725 24.8558 18.0872 24.5989 18.0872 24.2795C18.0872 23.9622 18.3701 23.7032 18.7221 23.7032H22.1321C22.4816 23.7032 22.767 23.96 22.767 24.2795C22.767 24.5968 22.484 24.8558 22.1321 24.8558H18.7221ZM4.69463 24.8558C4.34507 24.8558 4.0597 24.5989 4.0597 24.2795C4.0597 23.9622 4.34267 23.7032 4.69463 23.7032H8.10461C8.45417 23.7032 8.73954 23.96 8.73954 24.2795C8.73954 24.5968 8.45657 24.8558 8.10461 24.8558H4.69463ZM25.7343 24.8558C25.3848 24.8558 25.0994 24.5989 25.0994 24.2795C25.0994 23.9622 25.3824 23.7032 25.7343 23.7032H29.1443C29.4938 23.7032 29.7792 23.96 29.7792 24.2795C29.7792 24.5968 29.4962 24.8558 29.1443 24.8558H25.7343ZM15.212 29.2004C14.8625 29.2004 14.5771 28.9436 14.5771 28.6241C14.5771 28.3068 14.8601 28.0478 15.212 28.0478H18.622C18.9716 28.0478 19.2569 28.3047 19.2569 28.6241C19.2569 28.9414 18.974 29.2004 18.622 29.2004H15.212ZM36.2517 29.2004C35.9022 29.2004 35.6168 28.9436 35.6168 28.6241C35.6168 28.3068 35.8998 28.0478 36.2517 28.0478H39.6617C40.0113 28.0478 40.2966 28.3047 40.2966 28.6241C40.2966 28.9414 40.0137 29.2004 39.6617 29.2004H36.2517ZM1.18456 29.2004C0.835006 29.2004 0.549635 28.9436 0.549635 28.6241C0.549635 28.3068 0.832607 28.0478 1.18456 28.0478H4.59455C4.94411 28.0478 5.22948 28.3047 5.22948 28.6241C5.22948 28.9414 4.9465 29.2004 4.59455 29.2004H1.18456ZM22.2242 29.2004C21.8747 29.2004 21.5893 28.9436 21.5893 28.6241C21.5893 28.3068 21.8723 28.0478 22.2242 28.0478H25.6342C25.9838 28.0478 26.2692 28.3047 26.2692 28.6241C26.2692 28.9414 25.9862 29.2004 25.6342 29.2004H22.2242ZM8.19678 29.2004C7.84722 29.2004 7.56185 28.9436 7.56185 28.6241C7.56185 28.3068 7.84482 28.0478 8.19678 28.0478H11.6068C11.9563 28.0478 12.2417 28.3047 12.2417 28.6241C12.2417 28.9414 11.9587 29.2004 11.6068 29.2004H8.19678ZM29.2365 29.2004C28.8869 29.2004 28.6015 28.9436 28.6015 28.6241C28.6015 28.3068 28.8845 28.0478 29.2365 28.0478H32.6464C32.996 28.0478 33.2814 28.3047 33.2814 28.6241C33.2814 28.9414 32.9984 29.2004 32.6464 29.2004H29.2365ZM16.7169 6.93332C18.3006 6.93332 19.5823 8.0988 19.5823 9.53403C19.5823 10.9715 18.2982 12.1347 16.7169 12.1347C15.1331 12.1347 13.8515 10.9693 13.8515 9.53403C13.8515 8.09659 15.1356 6.93332 16.7169 6.93332ZM16.7169 8.08367C15.8347 8.08367 15.1189 8.73332 15.1189 9.53403C15.1189 10.3347 15.8347 10.9844 16.7169 10.9844C17.5991 10.9844 18.3148 10.3347 18.3148 9.53403C18.3148 8.73332 17.5991 8.08367 16.7169 8.08367ZM22.7592 9.83836C23.8888 9.83836 24.8066 10.6714 24.8066 11.6966C24.8066 12.7218 23.8888 13.5549 22.7592 13.5549C21.6297 13.5549 20.7118 12.7218 20.7118 11.6966C20.7118 10.6714 21.6297 9.83836 22.7592 9.83836ZM22.7592 10.9887C22.3312 10.9887 21.9817 11.306 21.9817 11.6944C21.9817 12.0829 22.3312 12.4002 22.7592 12.4002C23.1872 12.4002 23.5368 12.0829 23.5368 11.6944C23.5368 11.306 23.1872 10.9887 22.7592 10.9887ZM22.267 4.36731C23.3965 4.36731 24.3144 5.2004 24.3144 6.2256C24.3144 7.2508 23.3965 8.08389 22.267 8.08389C21.1374 8.08389 20.2196 7.2508 20.2196 6.2256C20.2196 5.2004 21.1374 4.36731 22.267 4.36731ZM22.267 5.51766C21.839 5.51766 21.4894 5.83492 21.4894 6.22339C21.4894 6.61185 21.839 6.92912 22.267 6.92912C22.695 6.92912 23.0445 6.61185 23.0445 6.22339C23.0445 5.83492 22.695 5.51766 22.267 5.51766ZM17.5373 0.400391C18.6668 0.400391 19.5847 1.23348 19.5847 2.25868C19.5847 3.28388 18.6668 4.11697 17.5373 4.11697C16.4077 4.11697 15.4899 3.28388 15.4899 2.25868C15.4899 1.23348 16.4077 0.400391 17.5373 0.400391ZM17.5373 1.55074C17.1093 1.55074 16.7597 1.868 16.7597 2.25647C16.7597 2.64496 17.1093 2.9622 17.5373 2.9622C17.9653 2.9622 18.3148 2.64493 18.3148 2.25647C18.3148 1.86798 17.9653 1.55074 17.5373 1.55074Z"/>
</mask>
<path fill-rule="evenodd" clip-rule="evenodd" d="M20.0066 20.8781C19.4787 20.7745 18.9341 20.4723 18.3967 20.155C17.9782 19.9068 17.5716 19.6327 17.1554 19.6327C16.7298 19.6327 16.3208 19.9241 15.8927 20.1809C15.2459 20.5673 14.5777 20.9169 13.9309 20.9169C13.2841 20.9169 12.6159 20.5673 11.9691 20.1809C11.5434 19.9263 11.1344 19.6327 10.7064 19.6327C10.2808 19.6327 9.87176 19.9241 9.44374 20.1809C8.79694 20.5673 8.12872 20.9169 7.48192 20.9169C6.83512 20.9169 6.16689 20.5673 5.52009 20.1809C5.09444 19.9263 4.68543 19.6327 4.25742 19.6327C3.90073 19.6327 3.40614 19.8248 2.9329 20.0277C2.12204 20.3795 1.38247 20.822 1.38247 20.822C1.08998 20.9968 0.697623 20.9234 0.505014 20.6579C0.312405 20.3925 0.393253 20.0363 0.68574 19.8615C0.68574 19.8615 1.79148 19.2011 2.84492 18.8018C3.36331 18.6054 3.86982 18.4802 4.25741 18.4802C4.90421 18.4802 5.57243 18.8298 6.21923 19.2162C6.64489 19.4708 7.05389 19.7644 7.48191 19.7644C7.90756 19.7644 8.31657 19.473 8.74458 19.2162C9.39138 18.8298 10.0596 18.4802 10.7064 18.4802C11.3532 18.4802 12.0214 18.8298 12.6682 19.2162C13.0939 19.4708 13.5029 19.7644 13.9309 19.7644C14.3566 19.7644 14.7656 19.473 15.1936 19.2162C15.8404 18.8298 16.5086 18.4802 17.1554 18.4802C17.7903 18.4802 18.449 18.8126 19.0887 19.1903L18.4324 16.1083H1.09269C0.743133 16.1083 0.457763 15.8515 0.457763 15.532C0.457763 15.2148 0.740735 14.9557 1.09269 14.9557H18.9535C19.2578 14.9557 19.5194 15.1521 19.5741 15.4241L20.4825 19.678L20.7607 19.9392L21.738 20.8435L21.5074 19.7665C21.5026 19.7406 21.4979 19.7191 21.4931 19.6932L21.3504 19.0284C21.3385 18.9723 21.3362 18.9183 21.3433 18.8601L21.7214 15.4759C21.7547 15.1802 22.0281 14.9579 22.3539 14.9579H39.7655C40.115 14.9579 40.4004 15.2147 40.4004 15.5342C40.4004 15.8515 40.1174 16.1105 39.7655 16.1105H22.9274L22.6373 18.6982C22.9631 18.5666 23.2841 18.4846 23.6003 18.4846C24.2471 18.4846 24.9153 18.8342 25.5621 19.2205C25.9878 19.4752 26.3968 19.7687 26.8248 19.7687C27.2505 19.7687 27.6571 19.4774 28.0827 19.2205C28.7295 18.8342 29.393 18.4846 30.0469 18.4846C30.6961 18.4846 31.3715 18.8342 32.0301 19.2184C32.4701 19.4752 32.891 19.7687 33.319 19.7687C33.7423 19.7687 34.1394 19.4795 34.5531 19.2248C35.1904 18.8364 35.8443 18.4846 36.4911 18.4846C36.8764 18.4846 37.3828 18.6119 37.9012 18.8062C38.9523 19.2011 40.0628 19.8637 40.0628 19.8637C40.3553 20.0386 40.4385 20.3947 40.2459 20.6601C40.0533 20.9256 39.6609 21.0011 39.3684 20.8263C39.3684 20.8263 38.6289 20.3839 37.8133 20.0321C37.3424 19.827 36.8478 19.6371 36.4911 19.6371C36.0702 19.6371 35.6779 19.9263 35.2617 20.181C34.6244 20.5695 33.9681 20.9213 33.319 20.9213C32.6745 20.9213 31.9992 20.5716 31.3429 20.1875C30.903 19.9306 30.4797 19.6371 30.0469 19.6371C29.6165 19.6371 29.2075 19.9285 28.7819 20.1853C28.1351 20.5716 27.474 20.9213 26.8249 20.9213C26.1781 20.9213 25.5098 20.5716 24.863 20.1853C24.4374 19.9306 24.0284 19.6371 23.6004 19.6371C23.3388 19.6371 23.0844 19.7493 22.8276 19.8939L23.3864 22.5119C23.4387 22.7601 23.3055 23.0148 23.0582 23.1314C22.8085 23.2479 22.5042 23.2048 22.3092 23.0235L20.0025 20.8846L20.0066 20.8781ZM11.7099 24.8558C11.3603 24.8558 11.075 24.5989 11.075 24.2795C11.075 23.9622 11.3579 23.7032 11.7099 23.7032H15.1199C15.4694 23.7032 15.7548 23.96 15.7548 24.2795C15.7548 24.5968 15.4718 24.8558 15.1199 24.8558H11.7099ZM32.7496 24.8558C32.4 24.8558 32.1146 24.5989 32.1146 24.2795C32.1146 23.9622 32.3976 23.7032 32.7496 23.7032H36.1595C36.5091 23.7032 36.7945 23.96 36.7945 24.2795C36.7945 24.5968 36.5115 24.8558 36.1595 24.8558H32.7496ZM18.7221 24.8558C18.3725 24.8558 18.0872 24.5989 18.0872 24.2795C18.0872 23.9622 18.3701 23.7032 18.7221 23.7032H22.1321C22.4816 23.7032 22.767 23.96 22.767 24.2795C22.767 24.5968 22.484 24.8558 22.1321 24.8558H18.7221ZM4.69463 24.8558C4.34507 24.8558 4.0597 24.5989 4.0597 24.2795C4.0597 23.9622 4.34267 23.7032 4.69463 23.7032H8.10461C8.45417 23.7032 8.73954 23.96 8.73954 24.2795C8.73954 24.5968 8.45657 24.8558 8.10461 24.8558H4.69463ZM25.7343 24.8558C25.3848 24.8558 25.0994 24.5989 25.0994 24.2795C25.0994 23.9622 25.3824 23.7032 25.7343 23.7032H29.1443C29.4938 23.7032 29.7792 23.96 29.7792 24.2795C29.7792 24.5968 29.4962 24.8558 29.1443 24.8558H25.7343ZM15.212 29.2004C14.8625 29.2004 14.5771 28.9436 14.5771 28.6241C14.5771 28.3068 14.8601 28.0478 15.212 28.0478H18.622C18.9716 28.0478 19.2569 28.3047 19.2569 28.6241C19.2569 28.9414 18.974 29.2004 18.622 29.2004H15.212ZM36.2517 29.2004C35.9022 29.2004 35.6168 28.9436 35.6168 28.6241C35.6168 28.3068 35.8998 28.0478 36.2517 28.0478H39.6617C40.0113 28.0478 40.2966 28.3047 40.2966 28.6241C40.2966 28.9414 40.0137 29.2004 39.6617 29.2004H36.2517ZM1.18456 29.2004C0.835006 29.2004 0.549635 28.9436 0.549635 28.6241C0.549635 28.3068 0.832607 28.0478 1.18456 28.0478H4.59455C4.94411 28.0478 5.22948 28.3047 5.22948 28.6241C5.22948 28.9414 4.9465 29.2004 4.59455 29.2004H1.18456ZM22.2242 29.2004C21.8747 29.2004 21.5893 28.9436 21.5893 28.6241C21.5893 28.3068 21.8723 28.0478 22.2242 28.0478H25.6342C25.9838 28.0478 26.2692 28.3047 26.2692 28.6241C26.2692 28.9414 25.9862 29.2004 25.6342 29.2004H22.2242ZM8.19678 29.2004C7.84722 29.2004 7.56185 28.9436 7.56185 28.6241C7.56185 28.3068 7.84482 28.0478 8.19678 28.0478H11.6068C11.9563 28.0478 12.2417 28.3047 12.2417 28.6241C12.2417 28.9414 11.9587 29.2004 11.6068 29.2004H8.19678ZM29.2365 29.2004C28.8869 29.2004 28.6015 28.9436 28.6015 28.6241C28.6015 28.3068 28.8845 28.0478 29.2365 28.0478H32.6464C32.996 28.0478 33.2814 28.3047 33.2814 28.6241C33.2814 28.9414 32.9984 29.2004 32.6464 29.2004H29.2365ZM16.7169 6.93332C18.3006 6.93332 19.5823 8.0988 19.5823 9.53403C19.5823 10.9715 18.2982 12.1347 16.7169 12.1347C15.1331 12.1347 13.8515 10.9693 13.8515 9.53403C13.8515 8.09659 15.1356 6.93332 16.7169 6.93332ZM16.7169 8.08367C15.8347 8.08367 15.1189 8.73332 15.1189 9.53403C15.1189 10.3347 15.8347 10.9844 16.7169 10.9844C17.5991 10.9844 18.3148 10.3347 18.3148 9.53403C18.3148 8.73332 17.5991 8.08367 16.7169 8.08367ZM22.7592 9.83836C23.8888 9.83836 24.8066 10.6714 24.8066 11.6966C24.8066 12.7218 23.8888 13.5549 22.7592 13.5549C21.6297 13.5549 20.7118 12.7218 20.7118 11.6966C20.7118 10.6714 21.6297 9.83836 22.7592 9.83836ZM22.7592 10.9887C22.3312 10.9887 21.9817 11.306 21.9817 11.6944C21.9817 12.0829 22.3312 12.4002 22.7592 12.4002C23.1872 12.4002 23.5368 12.0829 23.5368 11.6944C23.5368 11.306 23.1872 10.9887 22.7592 10.9887ZM22.267 4.36731C23.3965 4.36731 24.3144 5.2004 24.3144 6.2256C24.3144 7.2508 23.3965 8.08389 22.267 8.08389C21.1374 8.08389 20.2196 7.2508 20.2196 6.2256C20.2196 5.2004 21.1374 4.36731 22.267 4.36731ZM22.267 5.51766C21.839 5.51766 21.4894 5.83492 21.4894 6.22339C21.4894 6.61185 21.839 6.92912 22.267 6.92912C22.695 6.92912 23.0445 6.61185 23.0445 6.22339C23.0445 5.83492 22.695 5.51766 22.267 5.51766ZM17.5373 0.400391C18.6668 0.400391 19.5847 1.23348 19.5847 2.25868C19.5847 3.28388 18.6668 4.11697 17.5373 4.11697C16.4077 4.11697 15.4899 3.28388 15.4899 2.25868C15.4899 1.23348 16.4077 0.400391 17.5373 0.400391ZM17.5373 1.55074C17.1093 1.55074 16.7597 1.868 16.7597 2.25647C16.7597 2.64496 17.1093 2.9622 17.5373 2.9622C17.9653 2.9622 18.3148 2.64493 18.3148 2.25647C18.3148 1.86798 17.9653 1.55074 17.5373 1.55074Z" fill="#A88EC3"/>
<path fill-rule="evenodd" clip-rule="evenodd" d="M20.0066 20.8781C19.4787 20.7745 18.9341 20.4723 18.3967 20.155C17.9782 19.9068 17.5716 19.6327 17.1554 19.6327C16.7298 19.6327 16.3208 19.9241 15.8927 20.1809C15.2459 20.5673 14.5777 20.9169 13.9309 20.9169C13.2841 20.9169 12.6159 20.5673 11.9691 20.1809C11.5434 19.9263 11.1344 19.6327 10.7064 19.6327C10.2808 19.6327 9.87176 19.9241 9.44374 20.1809C8.79694 20.5673 8.12872 20.9169 7.48192 20.9169C6.83512 20.9169 6.16689 20.5673 5.52009 20.1809C5.09444 19.9263 4.68543 19.6327 4.25742 19.6327C3.90073 19.6327 3.40614 19.8248 2.9329 20.0277C2.12204 20.3795 1.38247 20.822 1.38247 20.822C1.08998 20.9968 0.697623 20.9234 0.505014 20.6579C0.312405 20.3925 0.393253 20.0363 0.68574 19.8615C0.68574 19.8615 1.79148 19.2011 2.84492 18.8018C3.36331 18.6054 3.86982 18.4802 4.25741 18.4802C4.90421 18.4802 5.57243 18.8298 6.21923 19.2162C6.64489 19.4708 7.05389 19.7644 7.48191 19.7644C7.90756 19.7644 8.31657 19.473 8.74458 19.2162C9.39138 18.8298 10.0596 18.4802 10.7064 18.4802C11.3532 18.4802 12.0214 18.8298 12.6682 19.2162C13.0939 19.4708 13.5029 19.7644 13.9309 19.7644C14.3566 19.7644 14.7656 19.473 15.1936 19.2162C15.8404 18.8298 16.5086 18.4802 17.1554 18.4802C17.7903 18.4802 18.449 18.8126 19.0887 19.1903L18.4324 16.1083H1.09269C0.743133 16.1083 0.457763 15.8515 0.457763 15.532C0.457763 15.2148 0.740735 14.9557 1.09269 14.9557H18.9535C19.2578 14.9557 19.5194 15.1521 19.5741 15.4241L20.4825 19.678L20.7607 19.9392L21.738 20.8435L21.5074 19.7665C21.5026 19.7406 21.4979 19.7191 21.4931 19.6932L21.3504 19.0284C21.3385 18.9723 21.3362 18.9183 21.3433 18.8601L21.7214 15.4759C21.7547 15.1802 22.0281 14.9579 22.3539 14.9579H39.7655C40.115 14.9579 40.4004 15.2147 40.4004 15.5342C40.4004 15.8515 40.1174 16.1105 39.7655 16.1105H22.9274L22.6373 18.6982C22.9631 18.5666 23.2841 18.4846 23.6003 18.4846C24.2471 18.4846 24.9153 18.8342 25.5621 19.2205C25.9878 19.4752 26.3968 19.7687 26.8248 19.7687C27.2505 19.7687 27.6571 19.4774 28.0827 19.2205C28.7295 18.8342 29.393 18.4846 30.0469 18.4846C30.6961 18.4846 31.3715 18.8342 32.0301 19.2184C32.4701 19.4752 32.891 19.7687 33.319 19.7687C33.7423 19.7687 34.1394 19.4795 34.5531 19.2248C35.1904 18.8364 35.8443 18.4846 36.4911 18.4846C36.8764 18.4846 37.3828 18.6119 37.9012 18.8062C38.9523 19.2011 40.0628 19.8637 40.0628 19.8637C40.3553 20.0386 40.4385 20.3947 40.2459 20.6601C40.0533 20.9256 39.6609 21.0011 39.3684 20.8263C39.3684 20.8263 38.6289 20.3839 37.8133 20.0321C37.3424 19.827 36.8478 19.6371 36.4911 19.6371C36.0702 19.6371 35.6779 19.9263 35.2617 20.181C34.6244 20.5695 33.9681 20.9213 33.319 20.9213C32.6745 20.9213 31.9992 20.5716 31.3429 20.1875C30.903 19.9306 30.4797 19.6371 30.0469 19.6371C29.6165 19.6371 29.2075 19.9285 28.7819 20.1853C28.1351 20.5716 27.474 20.9213 26.8249 20.9213C26.1781 20.9213 25.5098 20.5716 24.863 20.1853C24.4374 19.9306 24.0284 19.6371 23.6004 19.6371C23.3388 19.6371 23.0844 19.7493 22.8276 19.8939L23.3864 22.5119C23.4387 22.7601 23.3055 23.0148 23.0582 23.1314C22.8085 23.2479 22.5042 23.2048 22.3092 23.0235L20.0025 20.8846L20.0066 20.8781ZM11.7099 24.8558C11.3603 24.8558 11.075 24.5989 11.075 24.2795C11.075 23.9622 11.3579 23.7032 11.7099 23.7032H15.1199C15.4694 23.7032 15.7548 23.96 15.7548 24.2795C15.7548 24.5968 15.4718 24.8558 15.1199 24.8558H11.7099ZM32.7496 24.8558C32.4 24.8558 32.1146 24.5989 32.1146 24.2795C32.1146 23.9622 32.3976 23.7032 32.7496 23.7032H36.1595C36.5091 23.7032 36.7945 23.96 36.7945 24.2795C36.7945 24.5968 36.5115 24.8558 36.1595 24.8558H32.7496ZM18.7221 24.8558C18.3725 24.8558 18.0872 24.5989 18.0872 24.2795C18.0872 23.9622 18.3701 23.7032 18.7221 23.7032H22.1321C22.4816 23.7032 22.767 23.96 22.767 24.2795C22.767 24.5968 22.484 24.8558 22.1321 24.8558H18.7221ZM4.69463 24.8558C4.34507 24.8558 4.0597 24.5989 4.0597 24.2795C4.0597 23.9622 4.34267 23.7032 4.69463 23.7032H8.10461C8.45417 23.7032 8.73954 23.96 8.73954 24.2795C8.73954 24.5968 8.45657 24.8558 8.10461 24.8558H4.69463ZM25.7343 24.8558C25.3848 24.8558 25.0994 24.5989 25.0994 24.2795C25.0994 23.9622 25.3824 23.7032 25.7343 23.7032H29.1443C29.4938 23.7032 29.7792 23.96 29.7792 24.2795C29.7792 24.5968 29.4962 24.8558 29.1443 24.8558H25.7343ZM15.212 29.2004C14.8625 29.2004 14.5771 28.9436 14.5771 28.6241C14.5771 28.3068 14.8601 28.0478 15.212 28.0478H18.622C18.9716 28.0478 19.2569 28.3047 19.2569 28.6241C19.2569 28.9414 18.974 29.2004 18.622 29.2004H15.212ZM36.2517 29.2004C35.9022 29.2004 35.6168 28.9436 35.6168 28.6241C35.6168 28.3068 35.8998 28.0478 36.2517 28.0478H39.6617C40.0113 28.0478 40.2966 28.3047 40.2966 28.6241C40.2966 28.9414 40.0137 29.2004 39.6617 29.2004H36.2517ZM1.18456 29.2004C0.835006 29.2004 0.549635 28.9436 0.549635 28.6241C0.549635 28.3068 0.832607 28.0478 1.18456 28.0478H4.59455C4.94411 28.0478 5.22948 28.3047 5.22948 28.6241C5.22948 28.9414 4.9465 29.2004 4.59455 29.2004H1.18456ZM22.2242 29.2004C21.8747 29.2004 21.5893 28.9436 21.5893 28.6241C21.5893 28.3068 21.8723 28.0478 22.2242 28.0478H25.6342C25.9838 28.0478 26.2692 28.3047 26.2692 28.6241C26.2692 28.9414 25.9862 29.2004 25.6342 29.2004H22.2242ZM8.19678 29.2004C7.84722 29.2004 7.56185 28.9436 7.56185 28.6241C7.56185 28.3068 7.84482 28.0478 8.19678 28.0478H11.6068C11.9563 28.0478 12.2417 28.3047 12.2417 28.6241C12.2417 28.9414 11.9587 29.2004 11.6068 29.2004H8.19678ZM29.2365 29.2004C28.8869 29.2004 28.6015 28.9436 28.6015 28.6241C28.6015 28.3068 28.8845 28.0478 29.2365 28.0478H32.6464C32.996 28.0478 33.2814 28.3047 33.2814 28.6241C33.2814 28.9414 32.9984 29.2004 32.6464 29.2004H29.2365ZM16.7169 6.93332C18.3006 6.93332 19.5823 8.0988 19.5823 9.53403C19.5823 10.9715 18.2982 12.1347 16.7169 12.1347C15.1331 12.1347 13.8515 10.9693 13.8515 9.53403C13.8515 8.09659 15.1356 6.93332 16.7169 6.93332ZM16.7169 8.08367C15.8347 8.08367 15.1189 8.73332 15.1189 9.53403C15.1189 10.3347 15.8347 10.9844 16.7169 10.9844C17.5991 10.9844 18.3148 10.3347 18.3148 9.53403C18.3148 8.73332 17.5991 8.08367 16.7169 8.08367ZM22.7592 9.83836C23.8888 9.83836 24.8066 10.6714 24.8066 11.6966C24.8066 12.7218 23.8888 13.5549 22.7592 13.5549C21.6297 13.5549 20.7118 12.7218 20.7118 11.6966C20.7118 10.6714 21.6297 9.83836 22.7592 9.83836ZM22.7592 10.9887C22.3312 10.9887 21.9817 11.306 21.9817 11.6944C21.9817 12.0829 22.3312 12.4002 22.7592 12.4002C23.1872 12.4002 23.5368 12.0829 23.5368 11.6944C23.5368 11.306 23.1872 10.9887 22.7592 10.9887ZM22.267 4.36731C23.3965 4.36731 24.3144 5.2004 24.3144 6.2256C24.3144 7.2508 23.3965 8.08389 22.267 8.08389C21.1374 8.08389 20.2196 7.2508 20.2196 6.2256C20.2196 5.2004 21.1374 4.36731 22.267 4.36731ZM22.267 5.51766C21.839 5.51766 21.4894 5.83492 21.4894 6.22339C21.4894 6.61185 21.839 6.92912 22.267 6.92912C22.695 6.92912 23.0445 6.61185 23.0445 6.22339C23.0445 5.83492 22.695 5.51766 22.267 5.51766ZM17.5373 0.400391C18.6668 0.400391 19.5847 1.23348 19.5847 2.25868C19.5847 3.28388 18.6668 4.11697 17.5373 4.11697C16.4077 4.11697 15.4899 3.28388 15.4899 2.25868C15.4899 1.23348 16.4077 0.400391 17.5373 0.400391ZM17.5373 1.55074C17.1093 1.55074 16.7597 1.868 16.7597 2.25647C16.7597 2.64496 17.1093 2.9622 17.5373 2.9622C17.9653 2.9622 18.3148 2.64493 18.3148 2.25647C18.3148 1.86798 17.9653 1.55074 17.5373 1.55074Z" stroke="#A88EC3" stroke-width="0.8" mask="url(#path-1-outside-1_76_3835)"/>
</svg>
