<svg width="44" height="26" viewBox="0 0 44 26" fill="none" xmlns="http://www.w3.org/2000/svg">
<path d="M13.5938 19.2581C13.5938 19.3942 13.5539 19.5271 13.4792 19.6402C13.4045 19.7533 13.2984 19.8415 13.1742 19.8936C13.05 19.9456 12.9133 19.9592 12.7815 19.9327C12.6496 19.9062 12.5285 19.8407 12.4335 19.7445C12.3384 19.6483 12.2737 19.5257 12.2474 19.3923C12.2212 19.2589 12.2347 19.1206 12.2861 18.9949C12.3376 18.8692 12.4247 18.7618 12.5364 18.6862C12.6482 18.6107 12.7796 18.5703 12.9141 18.5703C13.0943 18.5703 13.2672 18.6428 13.3947 18.7718C13.5221 18.9008 13.5938 19.0757 13.5938 19.2581ZM25.8281 21.3215C25.6937 21.3215 25.5623 21.3619 25.4505 21.4374C25.3387 21.513 25.2516 21.6204 25.2002 21.7461C25.1487 21.8718 25.1353 22.0101 25.1615 22.1435C25.1877 22.2769 25.2525 22.3995 25.3475 22.4957C25.4426 22.5919 25.5637 22.6574 25.6955 22.6839C25.8274 22.7105 25.964 22.6968 26.0882 22.6448C26.2124 22.5927 26.3186 22.5046 26.3933 22.3915C26.468 22.2784 26.5078 22.1454 26.5078 22.0093C26.5078 21.8269 26.4362 21.652 26.3087 21.523C26.1813 21.394 26.0084 21.3215 25.8281 21.3215ZM17.6719 21.3215C17.5374 21.3215 17.406 21.3619 17.2943 21.4374C17.1825 21.513 17.0954 21.6204 17.0439 21.7461C16.9925 21.8718 16.979 22.0101 17.0052 22.1435C17.0315 22.2769 17.0962 22.3995 17.1913 22.4957C17.2863 22.5919 17.4074 22.6574 17.5393 22.6839C17.6711 22.7105 17.8078 22.6968 17.932 22.6448C18.0562 22.5927 18.1623 22.5046 18.237 22.3915C18.3117 22.2784 18.3516 22.1454 18.3516 22.0093C18.3516 21.8269 18.28 21.652 18.1525 21.523C18.025 21.394 17.8521 21.3215 17.6719 21.3215ZM3.39844 18.5703C3.26401 18.5703 3.1326 18.6107 3.02082 18.6862C2.90905 18.7618 2.82193 18.8692 2.77049 18.9949C2.71904 19.1206 2.70558 19.2589 2.73181 19.3923C2.75804 19.5257 2.82277 19.6483 2.91783 19.7445C3.01288 19.8407 3.13399 19.9062 3.26584 19.9327C3.39768 19.9592 3.53435 19.9456 3.65854 19.8936C3.78274 19.8415 3.88889 19.7533 3.96358 19.6402C4.03826 19.5271 4.07813 19.3942 4.07813 19.2581C4.07813 19.0757 4.00652 18.9008 3.87905 18.7718C3.75158 18.6428 3.5787 18.5703 3.39844 18.5703ZM8.15625 21.3215C8.02182 21.3215 7.89041 21.3619 7.77864 21.4374C7.66686 21.513 7.57974 21.6204 7.5283 21.7461C7.47686 21.8718 7.4634 22.0101 7.48962 22.1435C7.51585 22.2769 7.58058 22.3995 7.67564 22.4957C7.77069 22.5919 7.8918 22.6574 8.02365 22.6839C8.1555 22.7105 8.29216 22.6968 8.41636 22.6448C8.54055 22.5927 8.64671 22.5046 8.72139 22.3915C8.79608 22.2784 8.83594 22.1454 8.83594 22.0093C8.83594 21.8269 8.76433 21.652 8.63686 21.523C8.5094 21.394 8.33651 21.3215 8.15625 21.3215ZM30.5859 18.5703C30.4515 18.5703 30.3201 18.6107 30.2083 18.6862C30.0965 18.7618 30.0094 18.8692 29.958 18.9949C29.9065 19.1206 29.8931 19.2589 29.9193 19.3923C29.9455 19.5257 30.0103 19.6483 30.1053 19.7445C30.2004 19.8407 30.3215 19.9062 30.4533 19.9327C30.5852 19.9592 30.7218 19.9456 30.846 19.8936C30.9702 19.8415 31.0764 19.7533 31.1511 19.6402C31.2258 19.5271 31.2656 19.3942 31.2656 19.2581C31.2656 19.0757 31.194 18.9008 31.0665 18.7718C30.9391 18.6428 30.7662 18.5703 30.5859 18.5703ZM21.75 18.5703C21.6156 18.5703 21.4842 18.6107 21.3724 18.6862C21.2606 18.7618 21.1735 18.8692 21.1221 18.9949C21.0706 19.1206 21.0571 19.2589 21.0834 19.3923C21.1096 19.5257 21.1743 19.6483 21.2694 19.7445C21.3644 19.8407 21.4856 19.9062 21.6174 19.9327C21.7492 19.9592 21.8859 19.9456 22.0101 19.8936C22.1343 19.8415 22.2405 19.7533 22.3151 19.6402C22.3898 19.5271 22.4297 19.3942 22.4297 19.2581C22.4297 19.0757 22.3581 18.9008 22.2306 18.7718C22.1031 18.6428 21.9303 18.5703 21.75 18.5703ZM40.1016 18.5703C39.9671 18.5703 39.8357 18.6107 39.7239 18.6862C39.6122 18.7618 39.5251 18.8692 39.4736 18.9949C39.4222 19.1206 39.4087 19.2589 39.4349 19.3923C39.4612 19.5257 39.5259 19.6483 39.6209 19.7445C39.716 19.8407 39.8371 19.9062 39.969 19.9327C40.1008 19.9592 40.2375 19.9456 40.3617 19.8936C40.4859 19.8415 40.592 19.7533 40.6667 19.6402C40.7414 19.5271 40.7812 19.3942 40.7812 19.2581C40.7812 19.0757 40.7096 18.9008 40.5822 18.7718C40.4547 18.6428 40.2818 18.5703 40.1016 18.5703ZM35.3438 21.3215C35.2093 21.3215 35.0779 21.3619 34.9661 21.4374C34.8544 21.513 34.7672 21.6204 34.7158 21.7461C34.6644 21.8718 34.6509 22.0101 34.6771 22.1435C34.7033 22.2769 34.7681 22.3995 34.8631 22.4957C34.9582 22.5919 35.0793 22.6574 35.2111 22.6839C35.343 22.7105 35.4797 22.6968 35.6039 22.6448C35.7281 22.5927 35.8342 22.5046 35.9089 22.3915C35.9836 22.2784 36.0234 22.1454 36.0234 22.0093C36.0234 21.8269 35.9518 21.652 35.8244 21.523C35.6969 21.394 35.524 21.3215 35.3438 21.3215Z" fill="#A88EC3"/>
<path d="M35.7937 16.5077C34.5033 16.5381 33.2216 16.2878 32.035 15.7738C31.0045 15.3229 29.8895 15.1039 28.7671 15.1321C27.6465 15.1044 26.5333 15.3233 25.5046 15.7738C24.3179 16.2883 23.0359 16.5386 21.7452 16.5077C20.4553 16.5382 19.174 16.2879 17.9879 15.7738C16.9579 15.3229 15.8433 15.1039 14.7214 15.1321C13.6008 15.1044 12.4876 15.3233 11.4589 15.7738C10.2722 16.2884 8.99012 16.5387 7.6995 16.5077C6.40956 16.5384 5.12817 16.2881 3.94219 15.7738C2.91349 15.3232 1.80029 15.1042 0.679688 15.1321C0.499423 15.1321 0.326542 15.0596 0.199076 14.9307C0.0716097 14.8017 0 14.6267 0 14.4443C0 14.2619 0.0716097 14.0869 0.199076 13.9579C0.326542 13.829 0.499423 13.7565 0.679688 13.7565C1.96894 13.7261 3.2496 13.9764 4.43496 14.4904C5.46366 14.941 6.57686 15.16 7.69746 15.1321C8.81807 15.16 9.93128 14.9411 10.96 14.4904C12.1472 13.9756 13.4301 13.7254 14.7214 13.7565C16.0113 13.7261 17.2926 13.9764 18.4787 14.4904C19.5087 14.9414 20.6233 15.1604 21.7452 15.1321C22.8659 15.16 23.9791 14.9411 25.0077 14.4904C26.1944 13.9759 27.4765 13.7257 28.7671 13.7565C30.0574 13.7262 31.3392 13.9764 32.5258 14.4904C33.5563 14.9414 34.6713 15.1603 35.7937 15.1321C36.9161 15.1603 38.0311 14.9414 39.0616 14.4904C40.2482 13.9764 41.53 13.7262 42.8203 13.7565C43.0006 13.7565 43.1735 13.829 43.3009 13.9579C43.4284 14.0869 43.5 14.2619 43.5 14.4443C43.5 14.6267 43.4284 14.8017 43.3009 14.9307C43.1735 15.0596 43.0006 15.1321 42.8203 15.1321C41.6979 15.1039 40.5829 15.3229 39.5524 15.7738C38.3658 16.2878 37.084 16.538 35.7937 16.5077Z" fill="#A88EC3"/>
<path d="M41.4609 25.4483H2.03906C1.49827 25.4483 0.979626 25.2309 0.597228 24.8439C0.214829 24.457 0 23.9321 0 23.3849L0 12.38C0 11.8328 0.214829 11.3079 0.597228 10.9209C0.979626 10.534 1.49827 10.3166 2.03906 10.3166H5.45653C6.84212 10.3347 8.17876 9.79859 9.17578 8.82474C11.204 6.80878 16.1392 5.50195 21.75 5.50195C27.3608 5.50195 32.296 6.80878 34.3242 8.82474C35.3212 9.79859 36.6579 10.3347 38.0435 10.3166H41.4609C42.0017 10.3166 42.5204 10.534 42.9028 10.9209C43.2852 11.3079 43.5 11.8328 43.5 12.38V23.3849C43.5 23.9321 43.2852 24.457 42.9028 24.8439C42.5204 25.2309 42.0017 25.4483 41.4609 25.4483ZM2.03906 11.6922C1.8588 11.6922 1.68592 11.7647 1.55845 11.8937C1.43098 12.0226 1.35938 12.1976 1.35938 12.38V23.3849C1.35938 23.5673 1.43098 23.7423 1.55845 23.8712C1.68592 24.0002 1.8588 24.0727 2.03906 24.0727H41.4609C41.6412 24.0727 41.8141 24.0002 41.9416 23.8712C42.069 23.7423 42.1406 23.5673 42.1406 23.3849V12.38C42.1406 12.1976 42.069 12.0226 41.9416 11.8937C41.8141 11.7647 41.6412 11.6922 41.4609 11.6922H38.0435C36.3014 11.7113 34.6226 11.0329 33.3727 9.80486C31.6116 8.05371 26.9415 6.87756 21.75 6.87756C16.5585 6.87756 11.8884 8.05371 10.1273 9.80486C8.87744 11.0329 7.19855 11.7113 5.45653 11.6922H2.03906Z" fill="#A88EC3"/>
<path d="M42.621 7.36433L40.582 9.42775C40.4538 9.55304 40.2821 9.62236 40.1039 9.6208C39.9257 9.61923 39.7552 9.54689 39.6292 9.41937C39.5031 9.29184 39.4317 9.11933 39.4301 8.93899C39.4286 8.75865 39.4971 8.58491 39.6209 8.45519L40.4997 7.56586H38.0624C36.8009 7.5644 35.5916 7.05668 34.6997 6.15407C33.8077 5.25147 33.306 4.02769 33.3045 2.75122V0.687805C33.3045 0.505388 33.3762 0.330442 33.5036 0.201454C33.6311 0.0724651 33.804 0 33.9842 0C34.1645 0 34.3374 0.0724651 34.4648 0.201454C34.5923 0.330442 34.6639 0.505388 34.6639 0.687805V2.75122C34.665 3.66297 35.0234 4.53707 35.6605 5.18177C36.2976 5.82648 37.1614 6.18915 38.0624 6.19025H40.4997L39.6209 5.30091C39.4971 5.17119 39.4286 4.99745 39.4301 4.81711C39.4317 4.63677 39.5031 4.46426 39.6292 4.33674C39.7552 4.20921 39.9257 4.13688 40.1039 4.13531C40.2821 4.13374 40.4538 4.20307 40.582 4.32836L42.621 6.39177C42.7484 6.52076 42.82 6.69567 42.82 6.87805C42.82 7.06043 42.7484 7.23535 42.621 7.36433ZM9.51548 0C9.33522 0 9.16233 0.0724651 9.03487 0.201454C8.9074 0.330442 8.83579 0.505388 8.83579 0.687805V2.75122C8.83471 3.66297 8.47632 4.53707 7.83922 5.18177C7.20212 5.82648 6.33835 6.18915 5.43736 6.19025H3L3.87883 5.30091C4.00264 5.17119 4.07115 4.99745 4.0696 4.81711C4.06805 4.63677 3.99657 4.46426 3.87055 4.33674C3.74453 4.20921 3.57406 4.13688 3.39585 4.13531C3.21763 4.13374 3.04594 4.20307 2.91775 4.32836L0.878691 6.39177C0.751269 6.52076 0.679688 6.69567 0.679688 6.87805C0.679687 7.06043 0.751269 7.23535 0.878691 7.36433L2.91775 9.42775C2.98045 9.49344 3.05545 9.54584 3.13838 9.58188C3.2213 9.61793 3.31049 9.6369 3.40074 9.6377C3.49099 9.63849 3.58049 9.62109 3.66402 9.58651C3.74755 9.55192 3.82344 9.50085 3.88726 9.43627C3.95107 9.37169 4.00154 9.2949 4.03572 9.21037C4.06989 9.12584 4.08709 9.03527 4.08631 8.94394C4.08552 8.85262 4.06677 8.76236 4.03115 8.67845C3.99553 8.59453 3.94375 8.51864 3.87883 8.45519L3 7.56586H5.43736C6.69876 7.5644 7.9081 7.05668 8.80005 6.15407C9.692 5.25147 10.1937 4.02769 10.1952 2.75122V0.687805C10.1952 0.505388 10.1236 0.330442 9.99609 0.201454C9.86863 0.0724651 9.69574 0 9.51548 0Z" fill="#A88EC3"/>
</svg>
