<svg width="50" height="57" viewBox="0 0 50 57" fill="none" xmlns="http://www.w3.org/2000/svg">
<path d="M37.8501 29.499C38.1558 29.4991 38.4804 29.6192 38.6948 29.8848C38.885 30.1198 41.1866 32.9807 43.4419 36.4258C44.5693 38.148 45.6897 40.0223 46.5288 41.792C47.3633 43.5519 47.9389 45.2456 47.939 46.5947C47.939 52.089 43.4094 56.5527 37.8501 56.5527C32.2911 56.5527 27.7612 52.0929 27.7612 46.5947C27.7613 45.2457 28.3368 43.552 29.1714 41.792C30.0105 40.0225 31.13 38.1479 32.2573 36.4258C34.5126 32.9807 36.8142 30.1198 37.0044 29.8848C37.2188 29.619 37.5442 29.499 37.8501 29.499ZM37.8501 32.3047C36.4826 34.0776 34.5664 36.727 32.9595 39.3711C32.1083 40.7716 31.3468 42.1648 30.7993 43.4219C30.2482 44.6871 29.9282 45.7826 29.9282 46.5977C29.9282 50.901 33.4782 54.4092 37.8501 54.4092C42.222 54.4092 45.772 50.901 45.772 46.5977C45.772 45.7827 45.452 44.6871 44.9009 43.4219C44.3533 42.1648 43.5919 40.7716 42.7407 39.3711C41.1337 36.727 39.2176 34.0779 37.8501 32.3047Z" fill="#A88EC3" stroke="#A88EC3" stroke-width="0.6"/>
<path d="M48.6402 9.95703L4.54834 53.4566" stroke="#A88EC3" stroke-linecap="round"/>
<path d="M7.96303 1L8.16198 8.06578L1 12.1875" stroke="#A88EC3" stroke-width="2" stroke-linecap="round"/>
<path d="M5.77637 9.63477L8.56158 18.2707L16.5193 13.7565L20.6972 20.626L19.1056 27.4955" stroke="#A88EC3" stroke-width="2" stroke-linecap="round"/>
<path d="M20.6934 20.6286L25.0701 21.0211L28.0543 16.7031" stroke="#A88EC3" stroke-width="2" stroke-linecap="round"/>
<path d="M25.0737 21.0195L26.2674 26.1226" stroke="#A88EC3" stroke-width="2" stroke-linecap="round"/>
<path d="M18.1118 16.1124L21.8917 8.65409L27.8601 6.29883" stroke="#A88EC3" stroke-width="2" stroke-linecap="round"/>
<path d="M12.3403 16.3092L14.1308 22.9824L12.3403 27.3004M14.1308 14.9353L13.534 6.69188L17.3139 1" stroke="#A88EC3" stroke-width="2" stroke-linecap="round"/>
<path d="M7.56411 15.7168L3.78418 21.8012L7.16623 27.2968" stroke="#A88EC3" stroke-width="2" stroke-linecap="round"/>
</svg>
