<svg width="40" height="40" viewBox="0 0 40 40" fill="none" xmlns="http://www.w3.org/2000/svg">
<path d="M29.8278 38.8151C34.8101 38.8151 38.849 34.7765 38.849 29.7947C38.849 24.8129 34.8101 20.7744 29.8278 20.7744C24.8456 20.7744 20.8066 24.8129 20.8066 29.7947C20.8066 34.7765 24.8456 38.8151 29.8278 38.8151Z" stroke="#A88EC3" stroke-width="1.4" stroke-linecap="round" stroke-linejoin="round"/>
<path d="M29.8277 33.0123C31.6041 33.0123 33.0442 31.5724 33.0442 29.7962C33.0442 28.02 31.6041 26.5801 29.8277 26.5801C28.0514 26.5801 26.6113 28.02 26.6113 29.7962C26.6113 31.5724 28.0514 33.0123 29.8277 33.0123Z" stroke="#A88EC3" stroke-width="0.8" stroke-linecap="round" stroke-linejoin="round"/>
<path d="M27.1275 25.6291L26.4043 24.5254" stroke="#A88EC3" stroke-width="0.8" stroke-linecap="round" stroke-linejoin="round"/>
<path d="M25.92 26.7647L24.6426 26.4336" stroke="#A88EC3" stroke-width="0.8" stroke-linecap="round" stroke-linejoin="round"/>
<path d="M32.5391 25.6291L33.2623 24.5254" stroke="#A88EC3" stroke-width="0.8" stroke-linecap="round" stroke-linejoin="round"/>
<path d="M33.75 26.7647L35.0274 26.4336" stroke="#A88EC3" stroke-width="0.8" stroke-linecap="round" stroke-linejoin="round"/>
<path d="M32.5391 33.9385L33.2623 35.0422" stroke="#A88EC3" stroke-width="0.8" stroke-linecap="round" stroke-linejoin="round"/>
<path d="M33.75 32.8047L35.0274 33.1356" stroke="#A88EC3" stroke-width="0.8" stroke-linecap="round" stroke-linejoin="round"/>
<path d="M27.1275 33.9385L26.4043 35.0422" stroke="#A88EC3" stroke-width="0.8" stroke-linecap="round" stroke-linejoin="round"/>
<path d="M25.92 32.8047L24.6426 33.1356" stroke="#A88EC3" stroke-width="0.8" stroke-linecap="round" stroke-linejoin="round"/>
<path d="M3.51087 25.0996C3.08569 23.5056 3.10092 22.5336 2.88281 20.9082" stroke="#A88EC3" stroke-width="1.4" stroke-linecap="round" stroke-linejoin="round"/>
<path d="M3.512 25.0971C3.26801 25.2874 2.72084 25.0971 2.45953 24.9365C2.19822 24.7759 1.66742 24.224 1.35415 23.0324C1.20475 22.4643 0.548903 20.605 0.73085 20.0501C0.912796 19.4952 1.52296 18.9665 2.00999 19.1378L1.64363 16.9912" stroke="#A88EC3" stroke-width="1.4" stroke-linecap="round" stroke-linejoin="round"/>
<path d="M24.1836 22.6833C24.2158 22.1433 24.2437 21.5819 24.3341 20.9082" stroke="#A88EC3" stroke-width="1.4" stroke-linecap="round" stroke-linejoin="round"/>
<path d="M3.50391 25.0947C4.54134 27.9548 6.04506 30.2656 8.41417 32.193C9.11113 32.7601 11.3411 34.4486 12.1431 34.8572C13.2437 35.4177 14.1542 35.4177 15.2549 34.8572C16.0569 34.4488 16.7607 33.8774 17.4576 33.3103C17.9401 32.9177 19.7573 31.3749 20.6708 30.214" stroke="#A88EC3" stroke-width="1.4" stroke-linecap="round" stroke-linejoin="round"/>
<path d="M25.3789 19.1431C25.8774 18.9718 26.5007 19.5011 26.6866 20.0566C26.7854 20.3512 26.6455 20.7961 26.4672 21.4374" stroke="#A88EC3" stroke-width="1.4" stroke-linecap="round" stroke-linejoin="round"/>
<path d="M6.48581 30.3506C6.48581 30.3506 7.15003 34.9827 5.46094 38.7391" stroke="#A88EC3" stroke-width="1.4" stroke-linecap="round" stroke-linejoin="round"/>
<path d="M21.9331 38.7389C20.3852 35.6729 20.6665 30.2168 20.6665 30.2168" stroke="#A88EC3" stroke-width="1.4" stroke-linecap="round" stroke-linejoin="round"/>
<path d="M11.2193 18.5171C11.2193 18.5171 8.92293 17.7098 7.61277 18.162C6.67563 18.4855 5.63477 19.0836 5.63477 19.0836" stroke="#A88EC3" stroke-width="0.8" stroke-linecap="round" stroke-linejoin="round"/>
<path d="M16.2012 18.5171C16.2012 18.5171 18.4976 17.7098 19.8077 18.162C20.7449 18.4855 21.7857 19.0836 21.7857 19.0836" stroke="#A88EC3" stroke-width="0.8" stroke-linecap="round" stroke-linejoin="round"/>
<path d="M6.84961 21.582C6.84961 21.582 9.26249 23.2687 10.928 21.582" stroke="#A88EC3" stroke-width="0.8" stroke-linecap="round" stroke-linejoin="round"/>
<path d="M20.426 21.582C20.426 21.582 18.0132 23.2687 16.3477 21.582" stroke="#A88EC3" stroke-width="0.8" stroke-linecap="round" stroke-linejoin="round"/>
<path d="M12.4199 26.4258C12.4199 26.4258 13.638 27.8563 15.089 26.4258" stroke="#A88EC3" stroke-width="0.8" stroke-linecap="round" stroke-linejoin="round"/>
<path d="M11.7695 29.8711C11.7695 29.8711 12.9115 30.2517 13.794 30.2517C14.662 30.2517 15.8395 29.9257 15.8395 29.8711" stroke="#A88EC3" stroke-width="0.8" stroke-linecap="round" stroke-linejoin="round"/>
<path d="M25.413 16.4951L25.2988 19.0642" stroke="#A88EC3" stroke-width="1.4" stroke-linecap="round" stroke-linejoin="round"/>
<path d="M12.7927 9.95839C14.1229 9.6659 17.8438 7.53927 17.5924 6.24407C17.5924 6.24407 18.7077 9.67636 20.672 10.9289C23.2984 12.6036 24.2569 14.1477 25.411 16.5238C25.4287 15.924 25.5111 13.3983 25.5111 13.0445C25.5103 6.22695 20.1813 0.700195 13.3092 0.700195C6.43716 0.700195 1.10742 6.22695 1.10742 13.0445C1.10742 14.4887 1.3891 16.0846 1.65079 17.2559C2.64445 14.1757 4.74216 11.7282 12.7927 9.95839Z" stroke="#A88EC3" stroke-width="1.4" stroke-linecap="round" stroke-linejoin="round"/>
<path d="M15.9387 5.03613C15.9387 5.03613 15.8081 6.36958 12.1804 6.6282C8.55271 6.88682 4.88828 9.21498 4.24023 10.7166" stroke="#A88EC3" stroke-width="1.4" stroke-linecap="round" stroke-linejoin="round"/>
<path d="M31.0939 20.925C30.6744 20.8662 30.2514 20.8368 29.8278 20.8369C24.8456 20.8369 20.8067 24.8755 20.8067 29.8572C20.8039 31.5493 21.2795 33.2077 22.1785 34.6412C23.5728 36.8653 25.9103 38.438 28.6303 38.7988C29.0273 38.8514 29.4272 38.8778 29.8276 38.8777C31.0517 38.8793 32.2631 38.631 33.3878 38.1479C36.5996 36.7671 38.8488 33.575 38.8488 29.8574C38.849 25.305 35.4767 21.541 31.0939 20.925Z" stroke="#A88EC3" stroke-width="1.4" stroke-linecap="round" stroke-linejoin="round"/>
<path d="M8.43398 27.4293C8.98108 27.4293 9.42459 26.9858 9.42459 26.4388C9.42459 25.8917 8.98108 25.4482 8.43398 25.4482C7.88687 25.4482 7.44336 25.8917 7.44336 26.4388C7.44336 26.9858 7.88687 27.4293 8.43398 27.4293Z" stroke="#A88EC3" stroke-width="0.8" stroke-linecap="round" stroke-linejoin="round"/>
</svg>
