<svg width="35" height="26" viewBox="0 0 35 26" fill="none" xmlns="http://www.w3.org/2000/svg">
<path d="M14.9713 24.8754C14.9696 24.8754 14.9682 24.8754 14.9665 24.8754C12.1981 24.8746 9.44556 24.2394 7.00652 23.0385C4.40286 21.7564 2.23188 19.9026 0.554018 17.5286C0.481994 17.4267 0.481994 17.2904 0.554018 17.1885C2.23236 14.8139 4.40441 12.9597 7.00982 11.6776C9.45035 10.4766 12.2044 9.8418 14.9743 9.8418C17.7442 9.8418 20.4982 10.4766 22.9388 11.6776C25.5442 12.9597 27.7162 14.8139 29.3946 17.1885C29.4667 17.2905 29.4666 17.4268 29.3945 17.5288C27.7138 19.9042 25.5399 21.7586 22.9333 23.0407C20.493 24.241 17.7397 24.8754 14.9713 24.8754ZM1.15698 17.3586C4.35066 21.7628 9.37158 24.2846 14.9667 24.2862H14.9713C20.4854 24.2862 25.6347 21.7008 28.7914 17.3585C25.6384 13.0166 20.4897 10.431 14.9742 10.431C9.45878 10.431 4.30993 13.0167 1.15698 17.3586Z" fill="#A88EC3" stroke="#A88EC3"/>
<path d="M14.9764 23.1228C11.7973 23.1228 9.21094 20.5363 9.21094 17.3572C9.21094 14.1782 11.7973 11.5918 14.9764 11.5918C18.1556 11.5918 20.742 14.1782 20.742 17.3572C20.742 20.5363 18.1556 23.1228 14.9764 23.1228ZM14.9764 12.1811C12.1223 12.1811 9.80028 14.5031 9.80028 17.3572C9.80028 20.2114 12.1223 22.5335 14.9764 22.5335C17.8306 22.5335 20.1526 20.2114 20.1526 17.3572C20.1527 14.5031 17.8306 12.1811 14.9764 12.1811Z" fill="#A88EC3" stroke="#A88EC3" stroke-width="0.5"/>
<path d="M14.9807 20.8722C14.7912 20.8723 14.6005 20.8569 14.4097 20.826C13.4824 20.6755 12.6691 20.1728 12.1198 19.4107C11.5705 18.6485 11.3508 17.718 11.5013 16.7906C11.6518 15.8632 12.1545 15.0499 12.9167 14.5006C13.6788 13.9512 14.6095 13.7317 15.5368 13.8822C16.4641 14.0326 17.2774 14.5353 17.8267 15.2975C18.3761 16.0597 18.5956 16.9901 18.4452 17.9176C18.2947 18.845 17.792 19.6582 17.0299 20.2076C16.4244 20.644 15.7127 20.8722 14.9807 20.8722ZM14.967 14.4254C14.3576 14.4254 13.7652 14.6154 13.2612 14.9787C12.6267 15.436 12.2083 16.113 12.083 16.8851C11.9577 17.6571 12.1406 18.4318 12.5978 19.0662C13.0551 19.7007 13.7321 20.1192 14.5042 20.2445C15.2761 20.3696 16.0507 20.1869 16.6852 19.7296C17.3197 19.2723 17.7382 18.5953 17.8635 17.8232C17.9887 17.0512 17.8059 16.2766 17.3486 15.6421C16.8913 15.0077 16.2143 14.5892 15.4423 14.4639C15.2836 14.4381 15.1247 14.4254 14.967 14.4254Z" fill="#A88EC3"/>
<path d="M11.7922 16.8379H11.7929M14.9807 20.8722C14.7912 20.8723 14.6005 20.8569 14.4097 20.826C13.4824 20.6755 12.6691 20.1728 12.1198 19.4107C11.5705 18.6485 11.3508 17.718 11.5013 16.7906C11.6518 15.8632 12.1545 15.0499 12.9167 14.5006C13.6788 13.9512 14.6095 13.7317 15.5368 13.8822C16.4641 14.0326 17.2774 14.5353 17.8267 15.2975C18.3761 16.0597 18.5956 16.9901 18.4452 17.9176C18.2947 18.845 17.792 19.6582 17.0299 20.2076C16.4244 20.644 15.7127 20.8722 14.9807 20.8722ZM14.967 14.4254C14.3576 14.4254 13.7652 14.6154 13.2612 14.9787C12.6267 15.436 12.2083 16.113 12.083 16.8851C11.9577 17.6571 12.1406 18.4318 12.5978 19.0662C13.0551 19.7007 13.7321 20.1192 14.5042 20.2445C15.2761 20.3696 16.0507 20.1869 16.6852 19.7296C17.3197 19.2723 17.7382 18.5953 17.8635 17.8232C17.9887 17.0512 17.8059 16.2766 17.3486 15.6421C16.8913 15.0077 16.2143 14.5892 15.4423 14.4639C15.2836 14.4381 15.1247 14.4254 14.967 14.4254Z" stroke="#A88EC3" stroke-width="0.5"/>
<path d="M16.4533 17.6541C16.2905 17.6541 16.1586 17.5222 16.1586 17.3595C16.1586 16.7054 15.6265 16.1733 14.9724 16.1733C14.8096 16.1733 14.6777 16.0414 14.6777 15.8786C14.6777 15.7159 14.8096 15.584 14.9724 15.584C15.9514 15.584 16.7479 16.3805 16.7479 17.3595C16.7479 17.5222 16.616 17.6541 16.4533 17.6541Z" fill="#A88EC3" stroke="#A88EC3" stroke-width="0.5"/>
<path d="M10.8631 7.02039C9.81226 7.02039 8.8369 6.43772 8.32463 5.51712L6.51 5.52413C5.74694 5.52413 5.11909 4.90484 5.10938 4.14373C5.10938 3.37804 5.72859 2.75012 6.48977 2.74041L8.30663 2.73339C8.81053 1.80712 9.78886 1.2136 10.8497 1.20578L23.8943 1.13672H23.8959C24.0579 1.13672 24.1896 1.26762 24.1905 1.42981C24.1914 1.59254 24.0602 1.72512 23.8974 1.726L10.8533 1.79505C9.95657 1.80166 9.13308 2.33382 8.75597 3.15084C8.70802 3.25483 8.6041 3.32152 8.48959 3.322L6.49456 3.32968C6.05682 3.33528 5.69852 3.69884 5.69852 4.13996C5.70411 4.57662 6.06761 4.93485 6.50879 4.93485L8.50267 4.92717H8.50382C8.61765 4.92717 8.72131 4.99272 8.77006 5.09563C9.15541 5.9084 9.97593 6.43118 10.8636 6.43118C10.8692 6.43118 10.8747 6.43118 10.8803 6.43111L23.9249 6.36205C24.0874 6.36455 24.2203 6.49241 24.2212 6.65514C24.2221 6.81787 24.0908 6.95046 23.9281 6.95133L10.884 7.02039C10.8771 7.02039 10.87 7.02039 10.8631 7.02039Z" fill="#A88EC3" stroke="#A88EC3"/>
<path d="M23.9268 7.96914C23.7646 7.96914 23.6329 7.83804 23.6321 7.67572L23.6016 0.409354C23.6012 0.331193 23.632 0.256134 23.687 0.200632C23.742 0.14513 23.8169 0.113771 23.895 0.113434L27.1868 0.0996094C27.2622 0.100216 27.34 0.130024 27.3955 0.185054C27.451 0.240084 27.4824 0.314873 27.4827 0.393034L27.5132 7.6594C27.5139 7.82212 27.3825 7.95457 27.2198 7.95532L23.928 7.96914C23.9276 7.96914 23.9272 7.96914 23.9268 7.96914ZM24.1921 0.701565L24.2202 7.37865L26.9226 7.36732L26.8946 0.690235L24.1921 0.701565Z" fill="#A88EC3" stroke="#A88EC3" stroke-width="0.2"/>
<path d="M27.22 6.93155C27.0578 6.93155 26.926 6.80038 26.9253 6.63806C26.9247 6.47533 27.0561 6.34288 27.2189 6.34228L31.1935 6.3269C32.4725 6.32009 33.5079 5.27574 33.5012 3.99892C33.4943 2.72366 32.4568 1.69084 31.1858 1.69084C31.1816 1.69084 31.1775 1.69084 31.1732 1.69084L27.1981 1.70622C27.1977 1.70622 27.1973 1.70622 27.197 1.70622C27.0348 1.70622 26.903 1.57505 26.9023 1.41272C26.9017 1.24999 27.0331 1.11755 27.1959 1.11694L31.1706 1.10156H31.1863C32.7805 1.10156 34.0819 2.39658 34.0905 3.99582C34.099 5.59755 32.8006 6.90761 31.1962 6.91624L27.2212 6.93162C27.2207 6.93155 27.2203 6.93155 27.22 6.93155Z" fill="#A88EC3" stroke="#A88EC3"/>
<path d="M21.1656 4.08761C21.0034 4.08761 20.8715 3.9563 20.871 3.79391L20.8633 1.44597C20.8627 1.28324 20.9942 1.15093 21.1569 1.15039H21.1579C21.3202 1.15039 21.452 1.28169 21.4526 1.44409L21.4602 3.79202C21.4608 3.95475 21.3293 4.08707 21.1666 4.08761C21.1663 4.08761 21.1659 4.08761 21.1656 4.08761Z" fill="#A88EC3" stroke="#A88EC3" stroke-width="0.5"/>
<path d="M18.9939 2.92145C18.8311 2.92145 18.6992 2.78954 18.6992 2.62681V1.45284C18.6992 1.29011 18.8311 1.1582 18.9939 1.1582C19.1566 1.1582 19.2885 1.29011 19.2885 1.45284V2.62681C19.2885 2.78954 19.1566 2.92145 18.9939 2.92145Z" fill="#A88EC3" stroke="#A88EC3" stroke-width="0.5"/>
<path d="M16.8277 4.09945C16.6655 4.09945 16.5336 3.96815 16.5331 3.80576L16.5254 1.4655C16.5249 1.30278 16.6564 1.17046 16.8191 1.16992H16.8201C16.9824 1.16992 17.1142 1.30122 17.1147 1.46362L17.1224 3.80387C17.123 3.9666 16.9915 4.09891 16.8287 4.09945C16.8284 4.09945 16.8281 4.09945 16.8277 4.09945Z" fill="#A88EC3" stroke="#A88EC3" stroke-width="0.5"/>
<path d="M14.6578 2.93134C14.4959 2.93134 14.3642 2.80071 14.3632 2.63866L14.3555 1.47238C14.3544 1.30965 14.4855 1.17686 14.6482 1.17578H14.6501C14.812 1.17578 14.9437 1.30641 14.9448 1.46846L14.9524 2.63475C14.9535 2.79747 14.8224 2.93026 14.6598 2.93134C14.6591 2.93134 14.6585 2.93134 14.6578 2.93134Z" fill="#A88EC3" stroke="#A88EC3" stroke-width="0.5"/>
<path d="M12.4937 4.12106C12.3315 4.12106 12.1997 3.98976 12.1991 3.82737L12.1914 1.4948C12.1909 1.33207 12.3224 1.19976 12.4851 1.19922C12.6463 1.19868 12.7801 1.33019 12.7807 1.49292L12.7884 3.82548C12.7889 3.98821 12.6574 4.12052 12.4947 4.12106C12.4944 4.12106 12.4941 4.12106 12.4937 4.12106Z" fill="#A88EC3" stroke="#A88EC3" stroke-width="0.5"/>
<path d="M5.70587 10.8757C5.09191 10.8757 4.49785 10.5349 4.19249 10.0074C3.7389 9.20646 4.09349 8.46322 4.45294 7.90483C4.70185 7.51368 5.01267 7.11202 5.4022 6.67819C5.4057 6.67428 5.40935 6.67043 5.41312 6.66672C5.42364 6.6562 5.43275 6.64555 5.44192 6.63503C5.45952 6.61486 5.47732 6.59483 5.49755 6.5746C5.55279 6.51937 5.62778 6.48828 5.70587 6.48828H5.70594C5.7841 6.48828 5.85909 6.51937 5.91432 6.57467C5.93442 6.59483 5.95222 6.6148 5.96976 6.63489C5.979 6.64541 5.98803 6.65614 5.99862 6.66666C6.00314 6.67117 6.00752 6.67583 6.0117 6.68068C6.31403 7.02516 6.66309 7.44018 6.95962 7.90611C7.31819 8.46315 7.67285 9.20639 7.22061 10.005C6.91491 10.5422 6.3346 10.8757 5.70587 10.8757ZM5.70473 7.22572C5.40017 7.57633 5.152 7.90381 4.94921 8.22246C4.53157 8.87129 4.46298 9.28927 4.70381 9.71454C4.90437 10.061 5.29821 10.2863 5.7058 10.2863C6.11684 10.2863 6.51028 10.0617 6.70807 9.714C6.94863 9.2892 6.88011 8.87115 6.46327 8.22374C6.22994 7.85715 5.95728 7.51935 5.70473 7.22572Z" fill="#A88EC3" stroke="#A88EC3" stroke-width="0.5"/>
</svg>
