<svg width="45" height="50" viewBox="0 0 45 50" fill="none" xmlns="http://www.w3.org/2000/svg">
<path d="M14.9835 17.7591L15.3224 17.8019C15.7689 17.8589 16.2307 17.9176 16.6934 17.9429C16.7092 17.9441 16.7251 17.9441 16.741 17.9429C16.8964 17.9432 17.0471 17.8901 17.168 17.7925C17.2889 17.6949 17.3726 17.5587 17.4049 17.4067C17.4373 17.2548 17.4165 17.0963 17.3459 16.9578C17.2754 16.8194 17.1593 16.7095 17.0173 16.6464C16.4498 16.4021 15.8567 16.2219 15.2492 16.1092C14.619 15.9804 13.9732 15.9451 13.3328 16.0046C12.1113 16.11 10.9129 16.4006 9.77891 16.8666C9.68301 16.9072 9.60441 16.9802 9.55685 17.0729C9.50929 17.1655 9.49579 17.2719 9.5187 17.3735C9.54161 17.4751 9.59948 17.5654 9.6822 17.6287C9.76492 17.692 9.86723 17.7241 9.97128 17.7197C10.2468 17.7089 10.521 17.6965 10.7947 17.6841C11.6944 17.6438 12.5415 17.6053 13.385 17.6198C13.9202 17.6343 14.454 17.6808 14.9835 17.7591ZM10.7754 17.2574C10.4993 17.2753 10.2224 17.2772 9.946 17.2629C11.0399 16.8143 12.1955 16.5343 13.3735 16.4326C13.9726 16.3776 14.5765 16.4105 15.166 16.5303C15.743 16.637 16.3063 16.8076 16.8455 17.0389C16.8985 17.0625 16.9415 17.1038 16.9673 17.1558C16.9931 17.2077 16.9999 17.267 16.9867 17.3235C16.9734 17.38 16.9409 17.43 16.8948 17.4651C16.8486 17.5002 16.7916 17.5181 16.7337 17.5157H16.7204C16.2727 17.4913 15.8207 17.4339 15.3803 17.3778L15.0405 17.3349C14.4946 17.2551 13.9443 17.2081 13.3928 17.1944C13.2679 17.1921 13.1433 17.1911 13.0187 17.1914C12.2861 17.1897 11.5505 17.2227 10.7754 17.2574Z" fill="#A88EC3"/>
<path d="M23.548 17.9428H23.5865C24.0496 17.9175 24.5115 17.8571 24.9575 17.8014L25.3002 17.7585C25.829 17.6813 26.362 17.6357 26.8962 17.6219C27.738 17.6064 28.5881 17.6459 29.4865 17.6861C29.7598 17.6986 30.034 17.711 30.3095 17.7217C30.4007 17.7278 30.4915 17.7046 30.5686 17.6554C30.6457 17.6062 30.705 17.5337 30.7379 17.4484C30.7603 17.3945 30.7718 17.3367 30.7718 17.2783C30.7718 17.22 30.7603 17.1622 30.738 17.1083C30.7157 17.0544 30.683 17.0054 30.6417 16.9642C30.6005 16.9229 30.5515 16.8902 30.4976 16.8678C29.3658 16.4033 28.1702 16.1131 26.9514 16.0071C26.3095 15.9469 25.6621 15.9819 25.0303 16.1108C24.4226 16.2235 23.8294 16.4039 23.2618 16.6485C23.119 16.7118 23.0026 16.8225 22.9322 16.9618C22.8617 17.1012 22.8416 17.2606 22.8753 17.413C22.9089 17.5655 22.9942 17.7016 23.1167 17.7984C23.2392 17.8952 23.3914 17.9466 23.5475 17.9441L23.548 17.9428ZM23.437 17.0379C23.9763 16.8064 24.5397 16.6356 25.1169 16.5289C25.7078 16.4095 26.313 16.3769 26.9133 16.4321C27.5033 16.4819 28.0885 16.5779 28.6635 16.7192C29.2353 16.8517 29.7917 17.0437 30.3236 17.292C30.049 17.2813 29.7757 17.2688 29.5032 17.2564C28.5979 17.2157 27.7415 17.178 26.8867 17.1917C26.3366 17.2058 25.7878 17.253 25.2433 17.3331L24.9005 17.376C24.4614 17.4321 24.0077 17.4895 23.5475 17.5143C23.5145 17.5177 23.4812 17.5141 23.4497 17.5038C23.4182 17.4935 23.3891 17.4768 23.3645 17.4547C23.3398 17.4325 23.32 17.4055 23.3064 17.3752C23.2927 17.345 23.2856 17.3123 23.2853 17.2791C23.2832 17.2283 23.2966 17.178 23.3237 17.135C23.3508 17.0919 23.3903 17.0581 23.437 17.0379Z" fill="#A88EC3"/>
<path d="M20.1785 26.6057C20.7041 26.5865 21.2041 26.3738 21.5824 26.0085C21.6252 25.971 21.6514 25.9181 21.6552 25.8614C21.6589 25.8047 21.64 25.7488 21.6026 25.706C21.5651 25.6632 21.5122 25.6371 21.4555 25.6333C21.3988 25.6295 21.3429 25.6484 21.3001 25.6859C20.5405 26.3504 19.8199 26.3495 19.0324 25.6859C18.989 25.6492 18.9328 25.6312 18.8761 25.6359C18.8195 25.6407 18.7671 25.6677 18.7304 25.7111C18.6937 25.7545 18.6757 25.8108 18.6804 25.8674C18.6852 25.924 18.7122 25.9765 18.7556 26.0132C19.1437 26.3747 19.6485 26.5849 20.1785 26.6057Z" fill="#A88EC3"/>
<path d="M21.5824 31.103C21.6041 31.0846 21.6218 31.0621 21.6347 31.0367C21.6475 31.0114 21.6552 30.9838 21.6573 30.9555C21.6594 30.9271 21.6558 30.8987 21.6468 30.8718C21.6377 30.8448 21.6235 30.82 21.6047 30.7986C21.586 30.7773 21.5633 30.7598 21.5377 30.7474C21.5122 30.7349 21.4845 30.7276 21.4562 30.726C21.4278 30.7243 21.3994 30.7283 21.3726 30.7377C21.3458 30.7471 21.3212 30.7618 21.3001 30.7808C20.5405 31.4444 19.8199 31.444 19.0324 30.7782C18.989 30.7415 18.9328 30.7236 18.8761 30.7283C18.8195 30.733 18.7671 30.7601 18.7304 30.8035C18.6937 30.8469 18.6757 30.9031 18.6804 30.9597C18.6852 31.0164 18.7122 31.0688 18.7556 31.1055C18.9397 31.2941 19.1596 31.4438 19.4024 31.546C19.6453 31.6482 19.9061 31.7007 20.1696 31.7005C20.433 31.7003 20.6938 31.6473 20.9364 31.5446C21.1791 31.442 21.3988 31.2918 21.5824 31.103Z" fill="#A88EC3"/>
<path d="M19.4991 29.2378C19.6129 29.2615 19.7181 29.3155 19.8038 29.394C19.8895 29.4724 19.9525 29.5725 19.9862 29.6838C19.9971 29.7185 20.0163 29.75 20.0421 29.7756C20.068 29.8012 20.0997 29.8201 20.1345 29.8307C20.1622 29.8389 20.1913 29.8416 20.2201 29.8386C20.2488 29.8356 20.2767 29.8269 20.3022 29.8131C20.3276 29.7993 20.35 29.7806 20.3682 29.7581C20.3864 29.7356 20.4 29.7098 20.4082 29.682V29.6795C20.4396 29.5688 20.5006 29.4687 20.5845 29.39C20.6684 29.3113 20.7722 29.2569 20.8847 29.2326C21.1722 29.2111 21.4613 29.2346 21.7415 29.3024C22.3946 29.4185 23.0672 29.3485 23.6823 29.1002C23.7023 29.0908 23.7202 29.0775 23.735 29.0611C23.7498 29.0448 23.7612 29.0256 23.7687 29.0048C23.7761 28.9841 23.7793 28.962 23.7782 28.94C23.7771 28.9179 23.7717 28.8963 23.7622 28.8764C23.7528 28.8564 23.7395 28.8385 23.7231 28.8237C23.7068 28.8089 23.6876 28.7975 23.6669 28.7901C23.6249 28.7751 23.5787 28.7774 23.5384 28.7965L23.5324 28.799C22.9731 28.9889 22.3728 29.0243 21.7951 28.9014C21.4705 28.8172 21.1338 28.7894 20.7998 28.8192C20.5591 28.867 20.3436 28.9999 20.1927 29.1936C20.0409 29.0005 19.826 28.8669 19.5856 28.8162C19.2501 28.7809 18.911 28.8053 18.584 28.8881C17.9994 28.9882 17.4007 28.9713 16.8227 28.8385H16.8167C16.7881 28.8296 16.7573 28.8314 16.7299 28.8435C16.7025 28.8557 16.6805 28.8773 16.6678 28.9044C16.6552 28.9315 16.6528 28.9623 16.6611 28.9911C16.6694 29.0198 16.6878 29.0446 16.713 29.0608C17.3073 29.3647 17.9882 29.4544 18.6409 29.3149C18.9211 29.2437 19.2108 29.2177 19.4991 29.2378Z" fill="#A88EC3"/>
<path d="M16.6524 21.2382C16.2601 20.9899 15.8238 20.8193 15.3671 20.7356C14.8881 20.6462 14.393 20.7182 13.9593 20.9404C13.5368 21.1221 13.1452 21.347 12.7597 21.5522C12.5954 21.6616 12.4077 21.7306 12.2117 21.7536C12.0008 21.745 11.7914 21.7141 11.587 21.6615H11.581C11.552 21.6552 11.5216 21.6602 11.496 21.6752C11.4704 21.6903 11.4513 21.7145 11.4427 21.7429C11.434 21.7713 11.4363 21.802 11.4492 21.8288C11.462 21.8556 11.4845 21.8766 11.5121 21.8877C11.7317 21.9716 11.9615 22.026 12.1954 22.0492C12.2642 22.0579 12.334 22.0563 12.4023 22.0445C12.4644 22.0309 12.5256 22.0132 12.5853 21.9914C12.6992 21.9515 12.8025 21.9057 12.9066 21.8628C13.2661 21.7035 13.6144 21.5424 13.9644 21.4001C13.8522 21.5714 13.7916 21.7713 13.7897 21.976C13.7879 22.1807 13.8449 22.3817 13.9539 22.555C14.063 22.7282 14.2196 22.8665 14.405 22.9533C14.5904 23.0402 14.7968 23.0719 14.9998 23.0448C15.2027 23.0177 15.3936 22.9328 15.5497 22.8003C15.7058 22.6678 15.8205 22.4933 15.8802 22.2974C15.94 22.1016 15.9422 21.8927 15.8866 21.6957C15.831 21.4986 15.72 21.3217 15.5668 21.1859C15.9079 21.2377 16.2455 21.3108 16.5774 21.4048H16.5826C16.6036 21.4109 16.6261 21.4092 16.6459 21.4C16.6657 21.3908 16.6815 21.3748 16.6904 21.3548C16.6993 21.3348 16.7006 21.3123 16.6942 21.2914C16.6878 21.2705 16.674 21.2527 16.6554 21.2412L16.6524 21.2382Z" fill="#A88EC3"/>
<path d="M28.7257 21.6593H28.7197C28.5153 21.7119 28.3059 21.7428 28.0951 21.7514C27.8991 21.7284 27.7113 21.6594 27.5471 21.55C27.1585 21.3452 26.7678 21.1216 26.3453 20.9382C25.9115 20.7164 25.4165 20.6444 24.9375 20.7334C24.4808 20.8171 24.0445 20.9877 23.6522 21.236C23.6336 21.2475 23.6198 21.2653 23.6134 21.2862C23.6069 21.3071 23.6083 21.3296 23.6172 21.3496C23.6261 21.3696 23.6419 21.3856 23.6617 21.3948C23.6815 21.404 23.704 21.4058 23.725 21.3997H23.7302C24.0621 21.3056 24.3997 21.2325 24.7408 21.1807C24.5883 21.3164 24.4779 21.493 24.4228 21.6896C24.3677 21.8861 24.3701 22.0944 24.4299 22.2896C24.4896 22.4848 24.6042 22.6588 24.7599 22.7908C24.9156 22.9228 25.1059 23.0074 25.3082 23.0345C25.5106 23.0615 25.7164 23.0299 25.9013 22.9434C26.0863 22.857 26.2425 22.7192 26.3514 22.5466C26.4604 22.3739 26.5174 22.1736 26.5159 21.9695C26.5144 21.7653 26.4543 21.5659 26.3428 21.3949C26.6932 21.5372 27.0415 21.6983 27.401 21.8576C27.5051 21.9031 27.6083 21.9485 27.7223 21.9862C27.782 22.008 27.8431 22.0257 27.9053 22.0393C27.9736 22.0511 28.0434 22.0527 28.1122 22.044C28.3461 22.0208 28.5759 21.9665 28.7955 21.8825C28.8231 21.8714 28.8456 21.8504 28.8584 21.8236C28.8713 21.7968 28.8736 21.7662 28.8649 21.7377C28.8563 21.7093 28.8372 21.6851 28.8116 21.67C28.786 21.655 28.7556 21.6501 28.7266 21.6563L28.7257 21.6593Z" fill="#A88EC3"/>
<path d="M37.2842 37.9004C37.3387 37.9051 37.3919 37.92 37.4404 37.9453C37.4891 37.9707 37.5323 38.0057 37.5674 38.0479C37.6025 38.09 37.6284 38.139 37.6445 38.1914C37.6606 38.2438 37.6665 38.299 37.6611 38.3535C37.6557 38.4082 37.6394 38.4615 37.6133 38.5098C37.5872 38.558 37.5515 38.6003 37.5088 38.6348C37.4666 38.6688 37.4181 38.6936 37.3662 38.709L33.6787 39.8369L33.6797 39.8379C33.6403 39.85 33.5989 39.8565 33.5576 39.8564C33.4833 39.8563 33.4109 39.8361 33.3477 39.7988L33.2871 39.7559C33.2122 39.6912 33.1632 39.6017 33.1484 39.5039C33.1338 39.4058 33.1551 39.3056 33.208 39.2217C33.2609 39.1378 33.3417 39.075 33.4365 39.0459L37.125 37.918V37.9189C37.1764 37.9028 37.2305 37.8959 37.2842 37.9004Z" fill="#A88EC3" stroke="#A88EC3" stroke-width="0.4"/>
<path d="M37.2871 41.2793C37.3416 41.2839 37.3948 41.2989 37.4434 41.3242C37.492 41.3496 37.5352 41.3846 37.5703 41.4268C37.6054 41.469 37.6323 41.5178 37.6484 41.5703C37.6645 41.6227 37.6694 41.6779 37.6641 41.7324C37.6586 41.7871 37.6423 41.8404 37.6162 41.8887C37.5901 41.9369 37.5544 41.9792 37.5117 42.0137C37.4695 42.0477 37.4211 42.0725 37.3691 42.0879L37.3701 42.0889L33.6826 43.2168L33.6816 43.2158C33.6304 43.2319 33.577 43.2389 33.5234 43.2344C33.4687 43.2298 33.4149 43.2148 33.3662 43.1895C33.3176 43.1641 33.2743 43.1291 33.2393 43.0869C33.2042 43.0447 33.1782 42.9958 33.1621 42.9434C33.146 42.8909 33.1401 42.8358 33.1455 42.7812C33.1509 42.7266 33.1673 42.6733 33.1934 42.625C33.2194 42.5768 33.2552 42.5345 33.2979 42.5C33.3397 42.4662 33.3879 42.4412 33.4395 42.4258V42.4248L37.1279 41.2969V41.2979C37.1794 41.2817 37.2334 41.2748 37.2871 41.2793Z" fill="#A88EC3" stroke="#A88EC3" stroke-width="0.4"/>
<path d="M38.5986 39.1836C38.6527 39.1888 38.705 39.205 38.7529 39.2305C38.801 39.256 38.8443 39.291 38.8789 39.333C38.9134 39.3749 38.9392 39.4237 38.9551 39.4756C38.987 39.5805 38.9763 39.6942 38.9248 39.791C38.8732 39.8878 38.7846 39.9601 38.6797 39.9922L32.333 41.9336C32.281 41.9503 32.2263 41.9577 32.1719 41.9531C32.1172 41.9485 32.0633 41.9326 32.0146 41.9072C31.966 41.8818 31.9228 41.8468 31.8877 41.8047C31.8527 41.7625 31.8266 41.7136 31.8105 41.6611C31.7945 41.6087 31.7885 41.5536 31.7939 41.499C31.7994 41.4444 31.8157 41.3911 31.8418 41.3428C31.8679 41.2945 31.9036 41.2522 31.9463 41.2178C31.9882 41.184 32.0363 41.159 32.0879 41.1436V41.1426L38.4375 39.2002L38.5166 39.1836C38.5437 39.1808 38.5714 39.181 38.5986 39.1836Z" fill="#A88EC3" stroke="#A88EC3" stroke-width="0.4"/>
<mask id="path-11-outside-1_29_2126" maskUnits="userSpaceOnUse" x="-0.601562" y="-0.599609" width="46" height="51" fill="black">
<rect fill="white" x="-0.601562" y="-0.599609" width="46" height="51"/>
<path d="M43.9053 45.943H41.8059C42.7536 44.8167 43.3873 43.4603 43.643 42.0107C43.8987 40.5612 43.7674 39.0698 43.2623 37.6872C42.7572 36.3047 41.8963 35.0799 40.7663 34.1365C39.6364 33.1932 38.2776 32.5647 36.8271 32.3145C36.8271 32.3072 36.8271 32.3004 36.8271 32.2931C36.8285 32.0652 36.7741 31.8404 36.6687 31.6383C36.5633 31.4363 36.41 31.2631 36.2223 31.1339C36.0346 31.0047 35.8181 30.9234 35.5917 30.897C35.3653 30.8707 35.1359 30.9002 34.9235 30.9829C34.9 29.3549 34.8653 27.7774 34.8199 26.2847C35.2318 25.5931 35.4153 24.7893 35.3443 23.9874C35.3245 23.2618 35.0842 22.5594 34.6553 21.9738C34.5602 19.9297 34.4411 17.9795 34.3032 16.1775C33.2137 1.93762 24.2829 0.400391 20.4956 0.400391C12.4928 0.400391 7.2638 6.2978 6.50804 16.1766C6.37951 17.8625 6.26855 19.6731 6.17386 21.5565C5.51921 22.0595 5.14562 22.8752 5.06422 23.9832C5.02015 24.4913 5.0779 25.0031 5.23408 25.4886C5.39026 25.9742 5.64174 26.4237 5.97378 26.8108C5.86153 26.9188 5.74886 27.025 5.64303 27.1441C5.43132 27.3816 5.29629 27.6775 5.25561 27.993C5.21494 28.3085 5.27053 28.6289 5.4151 28.9123L5.90309 29.8339C5.7947 35.9408 5.89452 40.525 5.89538 40.5709C5.89658 40.6225 5.91641 40.672 5.95121 40.7102C5.98601 40.7484 6.03343 40.7727 6.08475 40.7787C6.92876 40.8763 7.7038 40.9569 8.45142 41.0259C8.42529 41.4449 8.3983 41.8682 8.37173 42.2855C7.03373 42.7717 5.95579 43.2104 4.99481 43.6624C1.49278 45.3008 0.449117 48.9279 0.406274 49.0817C0.397419 49.1136 0.396047 49.147 0.402266 49.1795C0.408486 49.2119 0.422127 49.2425 0.442124 49.2688C0.462121 49.2951 0.48793 49.3164 0.517535 49.3311C0.547141 49.3457 0.579739 49.3534 0.61278 49.3533H9.48138C9.61766 49.3901 9.75797 49.4098 9.8991 49.412C10.0422 49.41 10.1845 49.3903 10.3228 49.3533H39.7751H39.7841H41.4897C41.7827 49.3556 42.0723 49.2906 42.3361 49.1633C42.5999 49.0359 42.831 48.8497 43.0115 48.619C43.5549 47.9073 43.9314 47.0827 44.1135 46.2061C44.1203 46.1748 44.1201 46.1423 44.1127 46.1111C44.1054 46.0799 44.0911 46.0508 44.071 46.0258C44.0509 46.0009 44.0255 45.9808 43.9966 45.9669C43.9677 45.9531 43.936 45.946 43.904 45.946L43.9053 45.943ZM36.3991 32.2931C36.3991 32.3852 36.3134 32.6692 36.5649 32.7065C37.9933 32.9179 39.3371 33.5148 40.4517 34.4328C41.5663 35.3509 42.4096 36.5554 42.8908 37.9169C43.372 39.2784 43.4729 40.7453 43.1827 42.1598C42.8925 43.5744 42.2222 44.8831 41.2438 45.9451H39.6736C40.7895 45.0565 41.6015 43.8429 41.9971 42.4724C42.3927 41.1019 42.3524 39.6423 41.8818 38.2957C41.4111 36.9491 40.5334 35.7822 39.3702 34.9565C38.2069 34.1308 36.8157 33.6873 35.3893 33.6873C33.9628 33.6873 32.5716 34.1308 31.4084 34.9565C30.2451 35.7822 29.3674 36.9491 28.8967 38.2957C28.4261 39.6423 28.3858 41.1019 28.7814 42.4724C29.177 43.8429 29.989 45.0565 31.1049 45.9451H29.5454C28.5639 44.8797 27.8924 43.566 27.6036 42.1464C27.3149 40.7268 27.4199 39.2552 27.9073 37.891C28.3946 36.5267 29.2458 35.3218 30.3687 34.4064C31.4916 33.4911 32.8434 32.9003 34.2779 32.6979C34.5255 32.6637 34.4411 32.3788 34.4411 32.2931C34.4411 32.0334 34.5443 31.7844 34.7279 31.6008C34.9115 31.4172 35.1605 31.3141 35.4201 31.3141C35.6797 31.3141 35.9288 31.4172 36.1123 31.6008C36.2959 31.7844 36.3991 32.0334 36.3991 32.2931ZM33.1087 46.3714H37.208V46.6396C37.2079 46.8497 37.1244 47.0512 36.9758 47.1998C36.8273 47.3484 36.6259 47.432 36.4158 47.4322H33.8974C33.6878 47.4316 33.487 47.3477 33.3391 47.1991C33.1912 47.0505 33.1084 46.8493 33.1087 46.6396V46.3714ZM37.4222 45.943H31.8277C30.6682 45.1774 29.7864 44.0584 29.313 42.7521C28.8396 41.4458 28.7998 40.0217 29.1995 38.691C29.5992 37.3603 30.4172 36.1939 31.5321 35.3647C32.647 34.5355 33.9994 34.0877 35.3888 34.0877C36.7783 34.0877 38.1307 34.5355 39.2456 35.3647C40.3605 36.1939 41.1784 37.3603 41.5781 38.691C41.9779 40.0217 41.9381 41.4458 41.4647 42.7521C40.9912 44.0584 40.1094 45.1774 38.95 45.943H37.4222ZM34.4998 31.2396C34.3477 31.3698 34.2254 31.5314 34.1413 31.7132C34.0573 31.895 34.0134 32.0928 34.0127 32.2931V32.3055C32.078 32.6357 30.3198 33.6323 29.0428 35.1228C27.7659 36.6132 27.0506 38.5035 27.0211 40.4659C26.9889 40.4488 26.9508 40.4338 26.9204 40.4162C25.3198 39.4634 24.5002 37.5714 24.4757 34.8007C26.0874 33.8802 27.5175 32.6732 28.6958 31.2391C29.3062 30.4452 29.8291 29.5876 30.2553 28.6814C31.7895 28.631 33.2482 28.0037 34.34 26.9248C34.3644 26.8982 34.3829 26.8699 34.4077 26.8434C34.4476 28.2486 34.4797 29.7225 34.4998 31.2396ZM10.265 48.9249H9.53108C8.98568 48.7647 8.51954 48.2394 8.51954 47.2656C8.51954 46.6705 8.6425 44.7515 8.77232 42.7199L8.78903 42.4555V42.4444C8.92998 40.2363 9.07051 38.0101 9.08893 36.9604H10.7521C10.7718 38.0525 10.9235 40.4218 11.07 42.7186C11.1985 44.7502 11.3224 46.6692 11.3224 47.2643C11.3236 48.2347 10.8241 48.7642 10.265 48.9249ZM10.7534 35.1584L10.7688 36.5119L9.08979 36.5307L9.07351 35.1773L10.7534 35.1584ZM12.3318 40.902C12.0139 40.8815 11.6985 40.8592 11.3811 40.8365C11.2752 39.1335 11.1848 37.544 11.1801 36.8092C11.193 36.7814 11.1996 36.7511 11.1994 36.7205L11.1801 34.9896L12.5511 32.1975C13.5544 33.2091 14.6836 34.0874 15.9109 34.811C15.8865 37.5787 15.0673 39.4668 13.4663 40.4162C13.1022 40.6094 12.7228 40.7719 12.3318 40.902ZM12.7516 31.7897L14.2421 28.7538C14.377 28.4721 14.4242 28.1564 14.3779 27.8476C14.3315 27.5387 14.1937 27.2509 13.9821 27.0212C13.4646 26.4446 12.8316 25.9833 12.1243 25.6672C11.417 25.3511 10.6511 25.1872 9.8764 25.1862C9.75129 25.1862 9.62833 25.1991 9.50451 25.208C9.08122 23.0659 8.87257 20.2952 8.85158 16.5168C14.4367 14.8931 22.6296 9.39752 24.223 8.30887C24.5259 9.77497 26.0687 15.606 31.5569 16.5382C31.5453 18.3377 31.4922 19.889 31.3967 21.2442V21.2707C31.3191 22.3632 31.2146 23.3298 31.0809 24.1914V24.1982C30.5779 27.4231 29.6812 29.2156 28.3531 30.9816C27.2443 32.4563 23.651 35.6863 20.1931 35.6863H20.1871C17.4537 35.6863 14.5022 33.6118 12.7516 31.7897ZM34.0238 26.6352C33.0645 27.584 31.7946 28.1543 30.4481 28.2409C30.9436 27.0053 31.2902 25.715 31.4806 24.3975C31.8596 24.2052 32.2612 24.0613 32.676 23.969C32.7041 23.9645 32.7311 23.9545 32.7553 23.9395C32.7795 23.9244 32.8005 23.9047 32.817 23.8815C32.8335 23.8583 32.8452 23.832 32.8514 23.8042C32.8576 23.7764 32.8582 23.7476 32.8532 23.7195C32.8481 23.6915 32.8376 23.6647 32.822 23.6408C32.8065 23.6169 32.7864 23.5963 32.7628 23.5803C32.7393 23.5643 32.7127 23.5531 32.6848 23.5475C32.6569 23.5418 32.6281 23.5418 32.6002 23.5474C32.2416 23.624 31.892 23.7382 31.5573 23.888C31.6602 23.1563 31.745 22.3568 31.811 21.4717C32.5565 21.3273 33.329 21.4776 33.966 21.8911C34.5268 22.3161 34.8469 23.0316 34.9176 24.0174C34.9616 24.4921 34.9048 24.9708 34.7507 25.4219C34.5967 25.8731 34.349 26.2865 34.0238 26.6352ZM20.4956 0.828825C24.1647 0.828825 32.8139 2.32835 33.8765 16.2096C34.005 17.8724 34.1138 19.6658 34.2055 21.5389C33.5085 21.0794 32.6636 20.9003 31.8401 21.0377C31.9288 19.6821 31.9776 18.1397 31.9862 16.357C31.9868 16.3052 31.9685 16.255 31.9349 16.2156C31.9013 16.1762 31.8545 16.1504 31.8033 16.1428C25.7058 15.2439 24.5957 7.98797 24.585 7.91471C24.5798 7.87844 24.5655 7.84411 24.5432 7.81498C24.521 7.78585 24.4917 7.76291 24.4581 7.74834C24.4245 7.73377 24.3877 7.72806 24.3513 7.73176C24.3148 7.73546 24.2799 7.74844 24.25 7.76947C24.1544 7.8363 14.686 14.4393 8.57867 16.1492C8.53356 16.1619 8.49384 16.189 8.4656 16.2263C8.43736 16.2637 8.42214 16.3093 8.42229 16.3562C8.42957 18.1179 8.47713 19.6654 8.56667 21.036C7.90613 20.934 7.23021 21.0213 6.61729 21.2879C6.70812 19.5129 6.81437 17.8038 6.93519 16.2088C7.6721 6.57842 12.7413 0.828825 20.4956 0.828825ZM5.49137 24.0144C5.56377 23.0243 5.88596 22.3075 6.44978 21.8834C7.08481 21.4718 7.8553 21.3241 8.59752 21.4717C8.66264 22.35 8.74704 23.1528 8.8503 23.8915C8.51651 23.74 8.1673 23.625 7.80877 23.5487C7.75341 23.5399 7.6968 23.5532 7.6511 23.5856C7.6054 23.6181 7.57424 23.6672 7.56432 23.7224C7.55439 23.7775 7.56649 23.8344 7.59801 23.8808C7.62954 23.9271 7.67798 23.9593 7.73294 23.9703C8.14776 24.0628 8.54893 24.2084 8.92656 24.4034C8.97311 24.6982 9.02338 24.9825 9.07737 25.2565C8.04979 25.4166 7.08623 25.8569 6.29254 26.5289C5.99672 26.1852 5.77329 25.7854 5.63562 25.3533C5.49796 24.9213 5.4489 24.4659 5.49137 24.0144ZM5.96264 27.4321C6.08132 27.3005 6.20557 27.1776 6.33238 27.0593L6.34224 27.049C7.2975 26.1415 8.56097 25.6293 9.87854 25.6155H9.90082C10.6123 25.6187 11.3152 25.7714 11.964 26.0636C12.6127 26.3558 13.1928 26.781 13.6668 27.3117C13.8202 27.4784 13.9202 27.6872 13.954 27.9112C13.9877 28.1352 13.9536 28.3642 13.8561 28.5687L12.2983 31.7421L12.2962 31.7468L10.8301 34.7292L9.88282 34.7399L7.65967 28.8172C7.63968 28.7639 7.59935 28.7208 7.54757 28.6973C7.49578 28.6738 7.43678 28.6719 7.38355 28.6919C7.33032 28.7119 7.2872 28.7522 7.2637 28.804C7.2402 28.8558 7.23823 28.9148 7.25823 28.968L9.42611 34.745L8.98697 34.7501L5.79556 28.7152C5.69074 28.5095 5.65045 28.277 5.67995 28.0481C5.70946 27.8191 5.80739 27.6044 5.96093 27.4321H5.96264ZM6.32082 40.3746C6.30453 39.5006 6.24284 35.6464 6.32082 30.62L8.64508 35.0201L8.66435 36.7488C8.66435 37.4219 8.57867 38.9407 8.47756 40.5983C7.79206 40.5349 7.08343 40.4616 6.3191 40.3734L6.32082 40.3746ZM0.908828 48.9249C1.22201 48.0599 2.39464 45.3513 5.17604 44.0506C6.08261 43.6222 7.09714 43.2083 8.34089 42.7524C8.21236 44.7687 8.09111 46.6628 8.09111 47.2656C8.07483 47.5696 8.12111 47.8737 8.22708 48.1591C8.33305 48.4445 8.49646 48.7052 8.7072 48.9249H0.908828ZM11.7521 47.2656C11.7521 46.6568 11.6291 44.731 11.4989 42.6925L11.4338 41.6715C12.2074 41.438 12.9605 41.1414 13.6856 40.7846C15.3531 39.7962 16.2644 37.8152 16.3372 35.0479C17.5157 35.7085 18.8363 36.0745 20.1867 36.1147H20.1931C21.5461 36.0672 22.8681 35.697 24.049 35.0351C24.121 37.8062 25.0344 39.7907 26.7023 40.7859C26.8043 40.8446 26.9191 40.8973 27.0331 40.95C27.1144 42.7836 27.7994 44.539 28.9816 45.943H26.8823C26.8502 45.943 26.8185 45.9502 26.7895 45.9641C26.7606 45.978 26.7352 45.9982 26.7151 46.0233C26.695 46.0483 26.6808 46.0776 26.6736 46.1088C26.6663 46.1401 26.6662 46.1726 26.6732 46.2039C26.8586 47.08 27.2361 47.904 27.7785 48.6164C27.8661 48.7302 27.9668 48.8333 28.0784 48.9236H11.1017C11.3198 48.708 11.4904 48.449 11.6024 48.1634C11.7144 47.8779 11.7654 47.572 11.7521 47.2656ZM42.6714 48.3572C42.5308 48.5356 42.3512 48.6794 42.1463 48.7775C41.9415 48.8756 41.7169 48.9255 41.4897 48.9232H29.3025C29.0745 48.9266 28.8489 48.8772 28.6432 48.779C28.4374 48.6807 28.2572 48.5362 28.1166 48.3568C27.6657 47.7662 27.3382 47.0911 27.1535 46.3714H32.6803V46.6396C32.68 46.9629 32.8081 47.273 33.0363 47.5019C33.2645 47.7309 33.5742 47.8599 33.8974 47.8607H36.4158C36.7395 47.8603 37.0498 47.7316 37.2787 47.5026C37.5075 47.2737 37.6362 46.9633 37.6364 46.6396V46.3714H43.6319C43.4495 47.0916 43.1227 47.7672 42.6714 48.3572Z"/>
</mask>
<path d="M43.9053 45.943H41.8059C42.7536 44.8167 43.3873 43.4603 43.643 42.0107C43.8987 40.5612 43.7674 39.0698 43.2623 37.6872C42.7572 36.3047 41.8963 35.0799 40.7663 34.1365C39.6364 33.1932 38.2776 32.5647 36.8271 32.3145C36.8271 32.3072 36.8271 32.3004 36.8271 32.2931C36.8285 32.0652 36.7741 31.8404 36.6687 31.6383C36.5633 31.4363 36.41 31.2631 36.2223 31.1339C36.0346 31.0047 35.8181 30.9234 35.5917 30.897C35.3653 30.8707 35.1359 30.9002 34.9235 30.9829C34.9 29.3549 34.8653 27.7774 34.8199 26.2847C35.2318 25.5931 35.4153 24.7893 35.3443 23.9874C35.3245 23.2618 35.0842 22.5594 34.6553 21.9738C34.5602 19.9297 34.4411 17.9795 34.3032 16.1775C33.2137 1.93762 24.2829 0.400391 20.4956 0.400391C12.4928 0.400391 7.2638 6.2978 6.50804 16.1766C6.37951 17.8625 6.26855 19.6731 6.17386 21.5565C5.51921 22.0595 5.14562 22.8752 5.06422 23.9832C5.02015 24.4913 5.0779 25.0031 5.23408 25.4886C5.39026 25.9742 5.64174 26.4237 5.97378 26.8108C5.86153 26.9188 5.74886 27.025 5.64303 27.1441C5.43132 27.3816 5.29629 27.6775 5.25561 27.993C5.21494 28.3085 5.27053 28.6289 5.4151 28.9123L5.90309 29.8339C5.7947 35.9408 5.89452 40.525 5.89538 40.5709C5.89658 40.6225 5.91641 40.672 5.95121 40.7102C5.98601 40.7484 6.03343 40.7727 6.08475 40.7787C6.92876 40.8763 7.7038 40.9569 8.45142 41.0259C8.42529 41.4449 8.3983 41.8682 8.37173 42.2855C7.03373 42.7717 5.95579 43.2104 4.99481 43.6624C1.49278 45.3008 0.449117 48.9279 0.406274 49.0817C0.397419 49.1136 0.396047 49.147 0.402266 49.1795C0.408486 49.2119 0.422127 49.2425 0.442124 49.2688C0.462121 49.2951 0.48793 49.3164 0.517535 49.3311C0.547141 49.3457 0.579739 49.3534 0.61278 49.3533H9.48138C9.61766 49.3901 9.75797 49.4098 9.8991 49.412C10.0422 49.41 10.1845 49.3903 10.3228 49.3533H39.7751H39.7841H41.4897C41.7827 49.3556 42.0723 49.2906 42.3361 49.1633C42.5999 49.0359 42.831 48.8497 43.0115 48.619C43.5549 47.9073 43.9314 47.0827 44.1135 46.2061C44.1203 46.1748 44.1201 46.1423 44.1127 46.1111C44.1054 46.0799 44.0911 46.0508 44.071 46.0258C44.0509 46.0009 44.0255 45.9808 43.9966 45.9669C43.9677 45.9531 43.936 45.946 43.904 45.946L43.9053 45.943ZM36.3991 32.2931C36.3991 32.3852 36.3134 32.6692 36.5649 32.7065C37.9933 32.9179 39.3371 33.5148 40.4517 34.4328C41.5663 35.3509 42.4096 36.5554 42.8908 37.9169C43.372 39.2784 43.4729 40.7453 43.1827 42.1598C42.8925 43.5744 42.2222 44.8831 41.2438 45.9451H39.6736C40.7895 45.0565 41.6015 43.8429 41.9971 42.4724C42.3927 41.1019 42.3524 39.6423 41.8818 38.2957C41.4111 36.9491 40.5334 35.7822 39.3702 34.9565C38.2069 34.1308 36.8157 33.6873 35.3893 33.6873C33.9628 33.6873 32.5716 34.1308 31.4084 34.9565C30.2451 35.7822 29.3674 36.9491 28.8967 38.2957C28.4261 39.6423 28.3858 41.1019 28.7814 42.4724C29.177 43.8429 29.989 45.0565 31.1049 45.9451H29.5454C28.5639 44.8797 27.8924 43.566 27.6036 42.1464C27.3149 40.7268 27.4199 39.2552 27.9073 37.891C28.3946 36.5267 29.2458 35.3218 30.3687 34.4064C31.4916 33.4911 32.8434 32.9003 34.2779 32.6979C34.5255 32.6637 34.4411 32.3788 34.4411 32.2931C34.4411 32.0334 34.5443 31.7844 34.7279 31.6008C34.9115 31.4172 35.1605 31.3141 35.4201 31.3141C35.6797 31.3141 35.9288 31.4172 36.1123 31.6008C36.2959 31.7844 36.3991 32.0334 36.3991 32.2931ZM33.1087 46.3714H37.208V46.6396C37.2079 46.8497 37.1244 47.0512 36.9758 47.1998C36.8273 47.3484 36.6259 47.432 36.4158 47.4322H33.8974C33.6878 47.4316 33.487 47.3477 33.3391 47.1991C33.1912 47.0505 33.1084 46.8493 33.1087 46.6396V46.3714ZM37.4222 45.943H31.8277C30.6682 45.1774 29.7864 44.0584 29.313 42.7521C28.8396 41.4458 28.7998 40.0217 29.1995 38.691C29.5992 37.3603 30.4172 36.1939 31.5321 35.3647C32.647 34.5355 33.9994 34.0877 35.3888 34.0877C36.7783 34.0877 38.1307 34.5355 39.2456 35.3647C40.3605 36.1939 41.1784 37.3603 41.5781 38.691C41.9779 40.0217 41.9381 41.4458 41.4647 42.7521C40.9912 44.0584 40.1094 45.1774 38.95 45.943H37.4222ZM34.4998 31.2396C34.3477 31.3698 34.2254 31.5314 34.1413 31.7132C34.0573 31.895 34.0134 32.0928 34.0127 32.2931V32.3055C32.078 32.6357 30.3198 33.6323 29.0428 35.1228C27.7659 36.6132 27.0506 38.5035 27.0211 40.4659C26.9889 40.4488 26.9508 40.4338 26.9204 40.4162C25.3198 39.4634 24.5002 37.5714 24.4757 34.8007C26.0874 33.8802 27.5175 32.6732 28.6958 31.2391C29.3062 30.4452 29.8291 29.5876 30.2553 28.6814C31.7895 28.631 33.2482 28.0037 34.34 26.9248C34.3644 26.8982 34.3829 26.8699 34.4077 26.8434C34.4476 28.2486 34.4797 29.7225 34.4998 31.2396ZM10.265 48.9249H9.53108C8.98568 48.7647 8.51954 48.2394 8.51954 47.2656C8.51954 46.6705 8.6425 44.7515 8.77232 42.7199L8.78903 42.4555V42.4444C8.92998 40.2363 9.07051 38.0101 9.08893 36.9604H10.7521C10.7718 38.0525 10.9235 40.4218 11.07 42.7186C11.1985 44.7502 11.3224 46.6692 11.3224 47.2643C11.3236 48.2347 10.8241 48.7642 10.265 48.9249ZM10.7534 35.1584L10.7688 36.5119L9.08979 36.5307L9.07351 35.1773L10.7534 35.1584ZM12.3318 40.902C12.0139 40.8815 11.6985 40.8592 11.3811 40.8365C11.2752 39.1335 11.1848 37.544 11.1801 36.8092C11.193 36.7814 11.1996 36.7511 11.1994 36.7205L11.1801 34.9896L12.5511 32.1975C13.5544 33.2091 14.6836 34.0874 15.9109 34.811C15.8865 37.5787 15.0673 39.4668 13.4663 40.4162C13.1022 40.6094 12.7228 40.7719 12.3318 40.902ZM12.7516 31.7897L14.2421 28.7538C14.377 28.4721 14.4242 28.1564 14.3779 27.8476C14.3315 27.5387 14.1937 27.2509 13.9821 27.0212C13.4646 26.4446 12.8316 25.9833 12.1243 25.6672C11.417 25.3511 10.6511 25.1872 9.8764 25.1862C9.75129 25.1862 9.62833 25.1991 9.50451 25.208C9.08122 23.0659 8.87257 20.2952 8.85158 16.5168C14.4367 14.8931 22.6296 9.39752 24.223 8.30887C24.5259 9.77497 26.0687 15.606 31.5569 16.5382C31.5453 18.3377 31.4922 19.889 31.3967 21.2442V21.2707C31.3191 22.3632 31.2146 23.3298 31.0809 24.1914V24.1982C30.5779 27.4231 29.6812 29.2156 28.3531 30.9816C27.2443 32.4563 23.651 35.6863 20.1931 35.6863H20.1871C17.4537 35.6863 14.5022 33.6118 12.7516 31.7897ZM34.0238 26.6352C33.0645 27.584 31.7946 28.1543 30.4481 28.2409C30.9436 27.0053 31.2902 25.715 31.4806 24.3975C31.8596 24.2052 32.2612 24.0613 32.676 23.969C32.7041 23.9645 32.7311 23.9545 32.7553 23.9395C32.7795 23.9244 32.8005 23.9047 32.817 23.8815C32.8335 23.8583 32.8452 23.832 32.8514 23.8042C32.8576 23.7764 32.8582 23.7476 32.8532 23.7195C32.8481 23.6915 32.8376 23.6647 32.822 23.6408C32.8065 23.6169 32.7864 23.5963 32.7628 23.5803C32.7393 23.5643 32.7127 23.5531 32.6848 23.5475C32.6569 23.5418 32.6281 23.5418 32.6002 23.5474C32.2416 23.624 31.892 23.7382 31.5573 23.888C31.6602 23.1563 31.745 22.3568 31.811 21.4717C32.5565 21.3273 33.329 21.4776 33.966 21.8911C34.5268 22.3161 34.8469 23.0316 34.9176 24.0174C34.9616 24.4921 34.9048 24.9708 34.7507 25.4219C34.5967 25.8731 34.349 26.2865 34.0238 26.6352ZM20.4956 0.828825C24.1647 0.828825 32.8139 2.32835 33.8765 16.2096C34.005 17.8724 34.1138 19.6658 34.2055 21.5389C33.5085 21.0794 32.6636 20.9003 31.8401 21.0377C31.9288 19.6821 31.9776 18.1397 31.9862 16.357C31.9868 16.3052 31.9685 16.255 31.9349 16.2156C31.9013 16.1762 31.8545 16.1504 31.8033 16.1428C25.7058 15.2439 24.5957 7.98797 24.585 7.91471C24.5798 7.87844 24.5655 7.84411 24.5432 7.81498C24.521 7.78585 24.4917 7.76291 24.4581 7.74834C24.4245 7.73377 24.3877 7.72806 24.3513 7.73176C24.3148 7.73546 24.2799 7.74844 24.25 7.76947C24.1544 7.8363 14.686 14.4393 8.57867 16.1492C8.53356 16.1619 8.49384 16.189 8.4656 16.2263C8.43736 16.2637 8.42214 16.3093 8.42229 16.3562C8.42957 18.1179 8.47713 19.6654 8.56667 21.036C7.90613 20.934 7.23021 21.0213 6.61729 21.2879C6.70812 19.5129 6.81437 17.8038 6.93519 16.2088C7.6721 6.57842 12.7413 0.828825 20.4956 0.828825ZM5.49137 24.0144C5.56377 23.0243 5.88596 22.3075 6.44978 21.8834C7.08481 21.4718 7.8553 21.3241 8.59752 21.4717C8.66264 22.35 8.74704 23.1528 8.8503 23.8915C8.51651 23.74 8.1673 23.625 7.80877 23.5487C7.75341 23.5399 7.6968 23.5532 7.6511 23.5856C7.6054 23.6181 7.57424 23.6672 7.56432 23.7224C7.55439 23.7775 7.56649 23.8344 7.59801 23.8808C7.62954 23.9271 7.67798 23.9593 7.73294 23.9703C8.14776 24.0628 8.54893 24.2084 8.92656 24.4034C8.97311 24.6982 9.02338 24.9825 9.07737 25.2565C8.04979 25.4166 7.08623 25.8569 6.29254 26.5289C5.99672 26.1852 5.77329 25.7854 5.63562 25.3533C5.49796 24.9213 5.4489 24.4659 5.49137 24.0144ZM5.96264 27.4321C6.08132 27.3005 6.20557 27.1776 6.33238 27.0593L6.34224 27.049C7.2975 26.1415 8.56097 25.6293 9.87854 25.6155H9.90082C10.6123 25.6187 11.3152 25.7714 11.964 26.0636C12.6127 26.3558 13.1928 26.781 13.6668 27.3117C13.8202 27.4784 13.9202 27.6872 13.954 27.9112C13.9877 28.1352 13.9536 28.3642 13.8561 28.5687L12.2983 31.7421L12.2962 31.7468L10.8301 34.7292L9.88282 34.7399L7.65967 28.8172C7.63968 28.7639 7.59935 28.7208 7.54757 28.6973C7.49578 28.6738 7.43678 28.6719 7.38355 28.6919C7.33032 28.7119 7.2872 28.7522 7.2637 28.804C7.2402 28.8558 7.23823 28.9148 7.25823 28.968L9.42611 34.745L8.98697 34.7501L5.79556 28.7152C5.69074 28.5095 5.65045 28.277 5.67995 28.0481C5.70946 27.8191 5.80739 27.6044 5.96093 27.4321H5.96264ZM6.32082 40.3746C6.30453 39.5006 6.24284 35.6464 6.32082 30.62L8.64508 35.0201L8.66435 36.7488C8.66435 37.4219 8.57867 38.9407 8.47756 40.5983C7.79206 40.5349 7.08343 40.4616 6.3191 40.3734L6.32082 40.3746ZM0.908828 48.9249C1.22201 48.0599 2.39464 45.3513 5.17604 44.0506C6.08261 43.6222 7.09714 43.2083 8.34089 42.7524C8.21236 44.7687 8.09111 46.6628 8.09111 47.2656C8.07483 47.5696 8.12111 47.8737 8.22708 48.1591C8.33305 48.4445 8.49646 48.7052 8.7072 48.9249H0.908828ZM11.7521 47.2656C11.7521 46.6568 11.6291 44.731 11.4989 42.6925L11.4338 41.6715C12.2074 41.438 12.9605 41.1414 13.6856 40.7846C15.3531 39.7962 16.2644 37.8152 16.3372 35.0479C17.5157 35.7085 18.8363 36.0745 20.1867 36.1147H20.1931C21.5461 36.0672 22.8681 35.697 24.049 35.0351C24.121 37.8062 25.0344 39.7907 26.7023 40.7859C26.8043 40.8446 26.9191 40.8973 27.0331 40.95C27.1144 42.7836 27.7994 44.539 28.9816 45.943H26.8823C26.8502 45.943 26.8185 45.9502 26.7895 45.9641C26.7606 45.978 26.7352 45.9982 26.7151 46.0233C26.695 46.0483 26.6808 46.0776 26.6736 46.1088C26.6663 46.1401 26.6662 46.1726 26.6732 46.2039C26.8586 47.08 27.2361 47.904 27.7785 48.6164C27.8661 48.7302 27.9668 48.8333 28.0784 48.9236H11.1017C11.3198 48.708 11.4904 48.449 11.6024 48.1634C11.7144 47.8779 11.7654 47.572 11.7521 47.2656ZM42.6714 48.3572C42.5308 48.5356 42.3512 48.6794 42.1463 48.7775C41.9415 48.8756 41.7169 48.9255 41.4897 48.9232H29.3025C29.0745 48.9266 28.8489 48.8772 28.6432 48.779C28.4374 48.6807 28.2572 48.5362 28.1166 48.3568C27.6657 47.7662 27.3382 47.0911 27.1535 46.3714H32.6803V46.6396C32.68 46.9629 32.8081 47.273 33.0363 47.5019C33.2645 47.7309 33.5742 47.8599 33.8974 47.8607H36.4158C36.7395 47.8603 37.0498 47.7316 37.2787 47.5026C37.5075 47.2737 37.6362 46.9633 37.6364 46.6396V46.3714H43.6319C43.4495 47.0916 43.1227 47.7672 42.6714 48.3572Z" fill="#A88EC3"/>
<path d="M43.9053 45.943H41.8059C42.7536 44.8167 43.3873 43.4603 43.643 42.0107C43.8987 40.5612 43.7674 39.0698 43.2623 37.6872C42.7572 36.3047 41.8963 35.0799 40.7663 34.1365C39.6364 33.1932 38.2776 32.5647 36.8271 32.3145C36.8271 32.3072 36.8271 32.3004 36.8271 32.2931C36.8285 32.0652 36.7741 31.8404 36.6687 31.6383C36.5633 31.4363 36.41 31.2631 36.2223 31.1339C36.0346 31.0047 35.8181 30.9234 35.5917 30.897C35.3653 30.8707 35.1359 30.9002 34.9235 30.9829C34.9 29.3549 34.8653 27.7774 34.8199 26.2847C35.2318 25.5931 35.4153 24.7893 35.3443 23.9874C35.3245 23.2618 35.0842 22.5594 34.6553 21.9738C34.5602 19.9297 34.4411 17.9795 34.3032 16.1775C33.2137 1.93762 24.2829 0.400391 20.4956 0.400391C12.4928 0.400391 7.2638 6.2978 6.50804 16.1766C6.37951 17.8625 6.26855 19.6731 6.17386 21.5565C5.51921 22.0595 5.14562 22.8752 5.06422 23.9832C5.02015 24.4913 5.0779 25.0031 5.23408 25.4886C5.39026 25.9742 5.64174 26.4237 5.97378 26.8108C5.86153 26.9188 5.74886 27.025 5.64303 27.1441C5.43132 27.3816 5.29629 27.6775 5.25561 27.993C5.21494 28.3085 5.27053 28.6289 5.4151 28.9123L5.90309 29.8339C5.7947 35.9408 5.89452 40.525 5.89538 40.5709C5.89658 40.6225 5.91641 40.672 5.95121 40.7102C5.98601 40.7484 6.03343 40.7727 6.08475 40.7787C6.92876 40.8763 7.7038 40.9569 8.45142 41.0259C8.42529 41.4449 8.3983 41.8682 8.37173 42.2855C7.03373 42.7717 5.95579 43.2104 4.99481 43.6624C1.49278 45.3008 0.449117 48.9279 0.406274 49.0817C0.397419 49.1136 0.396047 49.147 0.402266 49.1795C0.408486 49.2119 0.422127 49.2425 0.442124 49.2688C0.462121 49.2951 0.48793 49.3164 0.517535 49.3311C0.547141 49.3457 0.579739 49.3534 0.61278 49.3533H9.48138C9.61766 49.3901 9.75797 49.4098 9.8991 49.412C10.0422 49.41 10.1845 49.3903 10.3228 49.3533H39.7751H39.7841H41.4897C41.7827 49.3556 42.0723 49.2906 42.3361 49.1633C42.5999 49.0359 42.831 48.8497 43.0115 48.619C43.5549 47.9073 43.9314 47.0827 44.1135 46.2061C44.1203 46.1748 44.1201 46.1423 44.1127 46.1111C44.1054 46.0799 44.0911 46.0508 44.071 46.0258C44.0509 46.0009 44.0255 45.9808 43.9966 45.9669C43.9677 45.9531 43.936 45.946 43.904 45.946L43.9053 45.943ZM36.3991 32.2931C36.3991 32.3852 36.3134 32.6692 36.5649 32.7065C37.9933 32.9179 39.3371 33.5148 40.4517 34.4328C41.5663 35.3509 42.4096 36.5554 42.8908 37.9169C43.372 39.2784 43.4729 40.7453 43.1827 42.1598C42.8925 43.5744 42.2222 44.8831 41.2438 45.9451H39.6736C40.7895 45.0565 41.6015 43.8429 41.9971 42.4724C42.3927 41.1019 42.3524 39.6423 41.8818 38.2957C41.4111 36.9491 40.5334 35.7822 39.3702 34.9565C38.2069 34.1308 36.8157 33.6873 35.3893 33.6873C33.9628 33.6873 32.5716 34.1308 31.4084 34.9565C30.2451 35.7822 29.3674 36.9491 28.8967 38.2957C28.4261 39.6423 28.3858 41.1019 28.7814 42.4724C29.177 43.8429 29.989 45.0565 31.1049 45.9451H29.5454C28.5639 44.8797 27.8924 43.566 27.6036 42.1464C27.3149 40.7268 27.4199 39.2552 27.9073 37.891C28.3946 36.5267 29.2458 35.3218 30.3687 34.4064C31.4916 33.4911 32.8434 32.9003 34.2779 32.6979C34.5255 32.6637 34.4411 32.3788 34.4411 32.2931C34.4411 32.0334 34.5443 31.7844 34.7279 31.6008C34.9115 31.4172 35.1605 31.3141 35.4201 31.3141C35.6797 31.3141 35.9288 31.4172 36.1123 31.6008C36.2959 31.7844 36.3991 32.0334 36.3991 32.2931ZM33.1087 46.3714H37.208V46.6396C37.2079 46.8497 37.1244 47.0512 36.9758 47.1998C36.8273 47.3484 36.6259 47.432 36.4158 47.4322H33.8974C33.6878 47.4316 33.487 47.3477 33.3391 47.1991C33.1912 47.0505 33.1084 46.8493 33.1087 46.6396V46.3714ZM37.4222 45.943H31.8277C30.6682 45.1774 29.7864 44.0584 29.313 42.7521C28.8396 41.4458 28.7998 40.0217 29.1995 38.691C29.5992 37.3603 30.4172 36.1939 31.5321 35.3647C32.647 34.5355 33.9994 34.0877 35.3888 34.0877C36.7783 34.0877 38.1307 34.5355 39.2456 35.3647C40.3605 36.1939 41.1784 37.3603 41.5781 38.691C41.9779 40.0217 41.9381 41.4458 41.4647 42.7521C40.9912 44.0584 40.1094 45.1774 38.95 45.943H37.4222ZM34.4998 31.2396C34.3477 31.3698 34.2254 31.5314 34.1413 31.7132C34.0573 31.895 34.0134 32.0928 34.0127 32.2931V32.3055C32.078 32.6357 30.3198 33.6323 29.0428 35.1228C27.7659 36.6132 27.0506 38.5035 27.0211 40.4659C26.9889 40.4488 26.9508 40.4338 26.9204 40.4162C25.3198 39.4634 24.5002 37.5714 24.4757 34.8007C26.0874 33.8802 27.5175 32.6732 28.6958 31.2391C29.3062 30.4452 29.8291 29.5876 30.2553 28.6814C31.7895 28.631 33.2482 28.0037 34.34 26.9248C34.3644 26.8982 34.3829 26.8699 34.4077 26.8434C34.4476 28.2486 34.4797 29.7225 34.4998 31.2396ZM10.265 48.9249H9.53108C8.98568 48.7647 8.51954 48.2394 8.51954 47.2656C8.51954 46.6705 8.6425 44.7515 8.77232 42.7199L8.78903 42.4555V42.4444C8.92998 40.2363 9.07051 38.0101 9.08893 36.9604H10.7521C10.7718 38.0525 10.9235 40.4218 11.07 42.7186C11.1985 44.7502 11.3224 46.6692 11.3224 47.2643C11.3236 48.2347 10.8241 48.7642 10.265 48.9249ZM10.7534 35.1584L10.7688 36.5119L9.08979 36.5307L9.07351 35.1773L10.7534 35.1584ZM12.3318 40.902C12.0139 40.8815 11.6985 40.8592 11.3811 40.8365C11.2752 39.1335 11.1848 37.544 11.1801 36.8092C11.193 36.7814 11.1996 36.7511 11.1994 36.7205L11.1801 34.9896L12.5511 32.1975C13.5544 33.2091 14.6836 34.0874 15.9109 34.811C15.8865 37.5787 15.0673 39.4668 13.4663 40.4162C13.1022 40.6094 12.7228 40.7719 12.3318 40.902ZM12.7516 31.7897L14.2421 28.7538C14.377 28.4721 14.4242 28.1564 14.3779 27.8476C14.3315 27.5387 14.1937 27.2509 13.9821 27.0212C13.4646 26.4446 12.8316 25.9833 12.1243 25.6672C11.417 25.3511 10.6511 25.1872 9.8764 25.1862C9.75129 25.1862 9.62833 25.1991 9.50451 25.208C9.08122 23.0659 8.87257 20.2952 8.85158 16.5168C14.4367 14.8931 22.6296 9.39752 24.223 8.30887C24.5259 9.77497 26.0687 15.606 31.5569 16.5382C31.5453 18.3377 31.4922 19.889 31.3967 21.2442V21.2707C31.3191 22.3632 31.2146 23.3298 31.0809 24.1914V24.1982C30.5779 27.4231 29.6812 29.2156 28.3531 30.9816C27.2443 32.4563 23.651 35.6863 20.1931 35.6863H20.1871C17.4537 35.6863 14.5022 33.6118 12.7516 31.7897ZM34.0238 26.6352C33.0645 27.584 31.7946 28.1543 30.4481 28.2409C30.9436 27.0053 31.2902 25.715 31.4806 24.3975C31.8596 24.2052 32.2612 24.0613 32.676 23.969C32.7041 23.9645 32.7311 23.9545 32.7553 23.9395C32.7795 23.9244 32.8005 23.9047 32.817 23.8815C32.8335 23.8583 32.8452 23.832 32.8514 23.8042C32.8576 23.7764 32.8582 23.7476 32.8532 23.7195C32.8481 23.6915 32.8376 23.6647 32.822 23.6408C32.8065 23.6169 32.7864 23.5963 32.7628 23.5803C32.7393 23.5643 32.7127 23.5531 32.6848 23.5475C32.6569 23.5418 32.6281 23.5418 32.6002 23.5474C32.2416 23.624 31.892 23.7382 31.5573 23.888C31.6602 23.1563 31.745 22.3568 31.811 21.4717C32.5565 21.3273 33.329 21.4776 33.966 21.8911C34.5268 22.3161 34.8469 23.0316 34.9176 24.0174C34.9616 24.4921 34.9048 24.9708 34.7507 25.4219C34.5967 25.8731 34.349 26.2865 34.0238 26.6352ZM20.4956 0.828825C24.1647 0.828825 32.8139 2.32835 33.8765 16.2096C34.005 17.8724 34.1138 19.6658 34.2055 21.5389C33.5085 21.0794 32.6636 20.9003 31.8401 21.0377C31.9288 19.6821 31.9776 18.1397 31.9862 16.357C31.9868 16.3052 31.9685 16.255 31.9349 16.2156C31.9013 16.1762 31.8545 16.1504 31.8033 16.1428C25.7058 15.2439 24.5957 7.98797 24.585 7.91471C24.5798 7.87844 24.5655 7.84411 24.5432 7.81498C24.521 7.78585 24.4917 7.76291 24.4581 7.74834C24.4245 7.73377 24.3877 7.72806 24.3513 7.73176C24.3148 7.73546 24.2799 7.74844 24.25 7.76947C24.1544 7.8363 14.686 14.4393 8.57867 16.1492C8.53356 16.1619 8.49384 16.189 8.4656 16.2263C8.43736 16.2637 8.42214 16.3093 8.42229 16.3562C8.42957 18.1179 8.47713 19.6654 8.56667 21.036C7.90613 20.934 7.23021 21.0213 6.61729 21.2879C6.70812 19.5129 6.81437 17.8038 6.93519 16.2088C7.6721 6.57842 12.7413 0.828825 20.4956 0.828825ZM5.49137 24.0144C5.56377 23.0243 5.88596 22.3075 6.44978 21.8834C7.08481 21.4718 7.8553 21.3241 8.59752 21.4717C8.66264 22.35 8.74704 23.1528 8.8503 23.8915C8.51651 23.74 8.1673 23.625 7.80877 23.5487C7.75341 23.5399 7.6968 23.5532 7.6511 23.5856C7.6054 23.6181 7.57424 23.6672 7.56432 23.7224C7.55439 23.7775 7.56649 23.8344 7.59801 23.8808C7.62954 23.9271 7.67798 23.9593 7.73294 23.9703C8.14776 24.0628 8.54893 24.2084 8.92656 24.4034C8.97311 24.6982 9.02338 24.9825 9.07737 25.2565C8.04979 25.4166 7.08623 25.8569 6.29254 26.5289C5.99672 26.1852 5.77329 25.7854 5.63562 25.3533C5.49796 24.9213 5.4489 24.4659 5.49137 24.0144ZM5.96264 27.4321C6.08132 27.3005 6.20557 27.1776 6.33238 27.0593L6.34224 27.049C7.2975 26.1415 8.56097 25.6293 9.87854 25.6155H9.90082C10.6123 25.6187 11.3152 25.7714 11.964 26.0636C12.6127 26.3558 13.1928 26.781 13.6668 27.3117C13.8202 27.4784 13.9202 27.6872 13.954 27.9112C13.9877 28.1352 13.9536 28.3642 13.8561 28.5687L12.2983 31.7421L12.2962 31.7468L10.8301 34.7292L9.88282 34.7399L7.65967 28.8172C7.63968 28.7639 7.59935 28.7208 7.54757 28.6973C7.49578 28.6738 7.43678 28.6719 7.38355 28.6919C7.33032 28.7119 7.2872 28.7522 7.2637 28.804C7.2402 28.8558 7.23823 28.9148 7.25823 28.968L9.42611 34.745L8.98697 34.7501L5.79556 28.7152C5.69074 28.5095 5.65045 28.277 5.67995 28.0481C5.70946 27.8191 5.80739 27.6044 5.96093 27.4321H5.96264ZM6.32082 40.3746C6.30453 39.5006 6.24284 35.6464 6.32082 30.62L8.64508 35.0201L8.66435 36.7488C8.66435 37.4219 8.57867 38.9407 8.47756 40.5983C7.79206 40.5349 7.08343 40.4616 6.3191 40.3734L6.32082 40.3746ZM0.908828 48.9249C1.22201 48.0599 2.39464 45.3513 5.17604 44.0506C6.08261 43.6222 7.09714 43.2083 8.34089 42.7524C8.21236 44.7687 8.09111 46.6628 8.09111 47.2656C8.07483 47.5696 8.12111 47.8737 8.22708 48.1591C8.33305 48.4445 8.49646 48.7052 8.7072 48.9249H0.908828ZM11.7521 47.2656C11.7521 46.6568 11.6291 44.731 11.4989 42.6925L11.4338 41.6715C12.2074 41.438 12.9605 41.1414 13.6856 40.7846C15.3531 39.7962 16.2644 37.8152 16.3372 35.0479C17.5157 35.7085 18.8363 36.0745 20.1867 36.1147H20.1931C21.5461 36.0672 22.8681 35.697 24.049 35.0351C24.121 37.8062 25.0344 39.7907 26.7023 40.7859C26.8043 40.8446 26.9191 40.8973 27.0331 40.95C27.1144 42.7836 27.7994 44.539 28.9816 45.943H26.8823C26.8502 45.943 26.8185 45.9502 26.7895 45.9641C26.7606 45.978 26.7352 45.9982 26.7151 46.0233C26.695 46.0483 26.6808 46.0776 26.6736 46.1088C26.6663 46.1401 26.6662 46.1726 26.6732 46.2039C26.8586 47.08 27.2361 47.904 27.7785 48.6164C27.8661 48.7302 27.9668 48.8333 28.0784 48.9236H11.1017C11.3198 48.708 11.4904 48.449 11.6024 48.1634C11.7144 47.8779 11.7654 47.572 11.7521 47.2656ZM42.6714 48.3572C42.5308 48.5356 42.3512 48.6794 42.1463 48.7775C41.9415 48.8756 41.7169 48.9255 41.4897 48.9232H29.3025C29.0745 48.9266 28.8489 48.8772 28.6432 48.779C28.4374 48.6807 28.2572 48.5362 28.1166 48.3568C27.6657 47.7662 27.3382 47.0911 27.1535 46.3714H32.6803V46.6396C32.68 46.9629 32.8081 47.273 33.0363 47.5019C33.2645 47.7309 33.5742 47.8599 33.8974 47.8607H36.4158C36.7395 47.8603 37.0498 47.7316 37.2787 47.5026C37.5075 47.2737 37.6362 46.9633 37.6364 46.6396V46.3714H43.6319C43.4495 47.0916 43.1227 47.7672 42.6714 48.3572Z" stroke="#A88EC3" stroke-width="0.8" mask="url(#path-11-outside-1_29_2126)"/>
</svg>
