<svg width="21" height="21" viewBox="0 0 21 21" fill="none" xmlns="http://www.w3.org/2000/svg">
<path d="M6.41768 10.8071C6.46794 10.9184 6.57753 10.9844 6.69226 10.9844C6.73364 10.9844 6.77575 10.9758 6.81594 10.9577C6.96748 10.8893 7.03492 10.7109 6.96647 10.5594C6.79872 10.1877 6.59005 9.83324 6.34626 9.506C6.24699 9.37264 6.05832 9.3451 5.92496 9.44438C5.7916 9.54369 5.76403 9.73232 5.86334 9.86564C6.08124 10.1582 6.26774 10.4749 6.41768 10.8071Z" fill="#A88EC3" stroke="#A88EC3" stroke-width="0.1"/>
<path d="M6.75653 11.8457C6.77745 11.945 6.79567 12.0464 6.81056 12.1469L6.93324 12.9734C6.95544 13.1229 7.08394 13.2303 7.2307 13.2303C7.24539 13.2303 7.26029 13.2292 7.27526 13.227C7.43973 13.2026 7.55329 13.0495 7.52888 12.885L7.40621 12.0584C7.38951 11.946 7.3692 11.8326 7.34575 11.7214C7.31147 11.5587 7.15174 11.4547 6.98904 11.4889C6.82634 11.5233 6.72225 11.6829 6.75653 11.8457Z" fill="#A88EC3" stroke="#A88EC3" stroke-width="0.1"/>
<path d="M4.22176 8.44354C4.5421 8.61777 4.84418 8.82723 5.11952 9.06612C5.17649 9.11554 5.24674 9.13979 5.31671 9.13979C5.40097 9.13979 5.48471 9.10462 5.54424 9.03602C5.65319 8.91041 5.63974 8.72029 5.51413 8.6113C5.20599 8.34395 4.86795 8.10951 4.50939 7.91458C4.36331 7.83509 4.18049 7.88921 4.10109 8.03525C4.02165 8.18133 4.07568 8.36414 4.22176 8.44354Z" fill="#A88EC3" stroke="#A88EC3" stroke-width="0.1"/>
<path d="M13.5845 10.9576C13.6247 10.9758 13.6668 10.9844 13.7082 10.9844C13.8229 10.9844 13.9325 10.9184 13.9828 10.807C14.1327 10.475 14.3192 10.1583 14.5371 9.86573C14.6364 9.73237 14.6088 9.54374 14.4755 9.44443C14.3421 9.34507 14.1535 9.37265 14.0542 9.50601C13.8104 9.83333 13.6017 10.1877 13.434 10.5594C13.3655 10.7109 13.433 10.8892 13.5845 10.9576Z" fill="#A88EC3" stroke="#A88EC3" stroke-width="0.1"/>
<path d="M15.0834 9.13987C15.1534 9.13987 15.2237 9.11562 15.2806 9.06621C15.556 8.82732 15.858 8.61785 16.1784 8.44363C16.3245 8.36418 16.3785 8.18141 16.2991 8.03529C16.2196 7.88921 16.0369 7.83506 15.8907 7.91462C15.5322 8.10956 15.1941 8.34399 14.886 8.61135C14.7604 8.72033 14.7469 8.91045 14.8559 9.03606C14.9155 9.10475 14.9992 9.13987 15.0834 9.13987Z" fill="#A88EC3" stroke="#A88EC3" stroke-width="0.1"/>
<path d="M13.1261 13.2271C13.1411 13.2293 13.1559 13.2303 13.1707 13.2303C13.3173 13.2303 13.4459 13.1229 13.4681 12.9734L13.5908 12.147C13.6057 12.0461 13.6239 11.9447 13.6448 11.8456C13.6791 11.6829 13.5749 11.5233 13.4122 11.489C13.2498 11.4546 13.0898 11.5588 13.0556 11.7216C13.0322 11.8324 13.0119 11.9457 12.9951 12.0586L12.8724 12.8851C12.8481 13.0495 12.9616 13.2026 13.1261 13.2271Z" fill="#A88EC3" stroke="#A88EC3" stroke-width="0.1"/>
<path d="M19.4994 3.61762C19.3365 3.58463 19.1775 3.68992 19.1445 3.85286L19.0728 4.20624C18.9818 4.65496 18.6534 5.01705 18.2157 5.15125C17.9026 5.24727 17.6745 5.5074 17.6203 5.83015L17.38 7.26074L16.9777 7.42865C16.8242 7.49272 16.7517 7.66899 16.8158 7.8225C16.864 7.93807 16.9759 8.00768 17.0938 8.00768C17.1324 8.00768 17.1717 8.00017 17.2096 7.9844L17.2621 7.96248L16.9683 9.71099C16.6816 11.4178 15.5963 12.9185 14.0653 13.7255L13.2957 14.1311L13.2969 14.1229C13.3213 13.9585 13.2077 13.8054 13.0433 13.7809C12.8791 13.7563 12.7257 13.87 12.7012 14.0345L12.6353 14.4792L12.0282 14.7991C10.8836 15.4024 9.51685 15.4024 8.37225 14.7991L7.76524 14.4792L7.69925 14.0345C7.67484 13.87 7.52158 13.7566 7.35723 13.7809C7.19276 13.8053 7.0792 13.9585 7.10361 14.1229L7.10481 14.1311L6.33523 13.7255C4.8042 12.9185 3.71893 11.4178 3.43219 9.71099L3.13842 7.96252L3.19089 7.9844C3.22879 8.00021 3.26809 8.00768 3.30674 8.00768C3.42461 8.00768 3.53648 7.93803 3.5847 7.8225C3.64872 7.66907 3.57627 7.49272 3.4228 7.42865L3.02052 7.26078L2.78015 5.83019C2.72587 5.5074 2.49778 5.24727 2.18482 5.15129C1.74714 5.01709 1.41869 4.655 1.32769 4.20632L0.817467 1.69015C0.778609 1.49851 0.816102 1.30281 0.923084 1.13906C1.1401 0.807 1.57742 0.705317 1.91863 0.907639L2.27254 1.11755C2.41557 1.20229 2.60031 1.1552 2.68505 1.01217C2.76987 0.869141 2.7227 0.684443 2.57967 0.59962L2.22577 0.389712C1.60644 0.0225624 0.81277 0.20694 0.419006 0.809689C0.224874 1.10679 0.156791 1.46198 0.227322 1.80978L0.737542 4.32595C0.872463 4.99116 1.35936 5.528 2.00827 5.72699C2.10189 5.75569 2.17009 5.83345 2.18631 5.92999L2.83835 9.81075C2.99523 10.7445 3.37138 11.6435 3.92619 12.4107C4.23979 12.8444 4.6114 13.237 5.0264 13.5761L4.91448 15.799C4.90613 15.9651 5.03398 16.1064 5.20006 16.1148C5.2052 16.1151 5.21033 16.1152 5.21543 16.1152C5.37476 16.1152 5.50775 15.9902 5.51586 15.8293L5.60807 13.9979C5.75323 14.0909 5.90208 14.1778 6.05442 14.2581L8.09145 15.3318C8.75168 15.6798 9.47595 15.8538 10.2002 15.8538C10.9245 15.8538 11.6488 15.6798 12.309 15.3318L14.346 14.2581C14.512 14.1706 14.6738 14.0751 14.8312 13.9726L15.0092 17.508C15.0233 17.7876 15.1623 18.0409 15.3906 18.203L18.7931 20.6184C18.846 20.656 18.9069 20.674 18.9672 20.674C19.0614 20.674 19.1542 20.6299 19.2129 20.5472C19.3092 20.4116 19.2773 20.2237 19.1417 20.1275L15.7392 17.712C15.6622 17.6574 15.6154 17.5721 15.6106 17.4778L15.4126 13.5439C15.812 13.2121 16.1705 12.8308 16.4743 12.4107C17.0291 11.6435 17.4052 10.7444 17.5621 9.81075L18.2142 5.92987C18.2304 5.8334 18.2986 5.75565 18.3922 5.72695C19.0411 5.52796 19.528 4.99112 19.663 4.32591L19.7346 3.97249C19.7677 3.80959 19.6624 3.6507 19.4994 3.61762Z" fill="#A88EC3" stroke="#A88EC3" stroke-width="0.4"/>
<path d="M19.9811 0.808766C19.5872 0.206017 18.7936 0.0215188 18.1743 0.388789L17.8204 0.598697C17.6774 0.68352 17.6302 0.868218 17.715 1.01121C17.7998 1.15428 17.9846 1.20137 18.1275 1.11662L18.4814 0.906716C18.8227 0.704314 19.26 0.805996 19.477 1.13814C19.5839 1.30184 19.6215 1.49754 19.5826 1.68923L19.4018 2.58069C19.3688 2.74367 19.4741 2.90255 19.6371 2.93559C19.6573 2.93969 19.6774 2.94161 19.6972 2.94161C19.8375 2.94161 19.963 2.8431 19.992 2.70031L20.1728 1.80885C20.2433 1.46105 20.1752 1.10587 19.9811 0.808766Z" fill="#A88EC3" stroke="#A88EC3" stroke-width="0.4"/>
<path d="M5.16569 16.7944C4.99893 16.7853 4.85819 16.9139 4.84984 17.0799L4.82981 17.4773C4.82507 17.5716 4.77823 17.6569 4.70127 17.7116L1.2987 20.1269C1.16309 20.2232 1.13122 20.4111 1.22748 20.5467C1.28617 20.6294 1.37898 20.6736 1.47324 20.6736C1.53349 20.6736 1.59439 20.6555 1.64726 20.6179L5.04983 18.2025C5.27813 18.0405 5.4171 17.7872 5.43119 17.5076L5.45123 17.1102C5.45962 16.9442 5.33176 16.8028 5.16569 16.7944Z" fill="#A88EC3" stroke="#A88EC3" stroke-width="0.4"/>
<path d="M9.26106 7.0308L9.3106 7.00607C9.3497 6.98649 9.39686 6.9917 9.43086 7.01928L9.67931 7.22128C9.83025 7.34396 10.0153 7.4053 10.2003 7.4053C10.3854 7.4053 10.5704 7.34396 10.7213 7.22124L10.9698 7.01928C11.0036 6.99166 11.0509 6.98649 11.0901 7.00612L11.1394 7.03072C11.5108 7.21643 11.9589 7.14541 12.2547 6.85397C12.6067 6.50706 12.642 5.95228 12.3369 5.56353L11.6228 4.65373C11.555 4.56738 11.5177 4.45927 11.5177 4.34944V3.29424C11.5177 3.12792 11.3829 2.99316 11.2166 2.99316C11.0503 2.99316 10.9155 3.12792 10.9155 3.29424V4.3494C10.9155 4.59343 10.9985 4.83357 11.1492 5.02549L11.8632 5.9353C11.979 6.08286 11.9656 6.29341 11.832 6.42508C11.7197 6.53572 11.5497 6.56265 11.4086 6.49212L11.3593 6.46751C11.1091 6.34231 10.807 6.37555 10.5899 6.55206L10.3415 6.75398C10.2596 6.82053 10.1408 6.82049 10.0591 6.75402L9.81066 6.55206C9.59352 6.37551 9.29149 6.34235 9.04136 6.46743L8.99186 6.49216C8.85096 6.56273 8.68087 6.53568 8.56863 6.42508C8.43499 6.29341 8.42159 6.08286 8.5374 5.9353L9.25151 5.02545C9.40212 4.83349 9.4851 4.59339 9.4851 4.3494V3.29424C9.4851 3.12792 9.3503 2.99316 9.18402 2.99316C9.01775 2.99316 8.88295 3.12792 8.88295 3.29424V4.3494C8.88295 4.45923 8.84562 4.56734 8.77782 4.65369L8.06375 5.56349C7.75858 5.95224 7.79395 6.50702 8.146 6.85397C8.44174 7.14537 8.8899 7.2163 9.26106 7.0308Z" fill="#A88EC3" stroke="#A88EC3" stroke-width="0.1"/>
<path d="M12.1562 9.90534C12.2577 9.90534 12.3566 9.85412 12.4134 9.76123C12.5001 9.61936 12.4554 9.43406 12.3135 9.34731L11.2326 8.68671C11.0491 8.57464 10.8175 8.56789 10.6281 8.66905L10.22 8.88675L9.81201 8.66905C9.62245 8.56789 9.39083 8.57468 9.20753 8.68671L8.12656 9.34731C7.98465 9.43402 7.93993 9.61928 8.02664 9.76123C8.11335 9.90309 8.29861 9.94785 8.44052 9.8611L9.52149 9.20051C9.5237 9.19926 9.52639 9.19918 9.52856 9.20031L9.94027 9.41997C10.1154 9.51338 10.3246 9.51346 10.4998 9.41997L10.9116 9.20027C10.9137 9.1991 10.9164 9.19914 10.9186 9.20051L11.9995 9.8611C12.0486 9.89109 12.1027 9.90534 12.1562 9.90534Z" fill="#A88EC3" stroke="#A88EC3" stroke-width="0.1"/>
<path d="M11.03 10.166L10.7521 10.3494C10.4171 10.5707 9.98406 10.5706 9.64903 10.3494L9.37128 10.166C9.23254 10.0745 9.04579 10.1127 8.95415 10.2514C8.86254 10.3902 8.90076 10.5769 9.03949 10.6686L9.31724 10.8519C9.5856 11.0291 9.89306 11.1176 10.2006 11.1176C10.508 11.1176 10.8156 11.029 11.0839 10.8519L11.3617 10.6686C11.5005 10.5769 11.5387 10.3902 11.4471 10.2514C11.3554 10.1127 11.1687 10.0745 11.03 10.166Z" fill="#A88EC3" stroke="#A88EC3" stroke-width="0.1"/>
</svg>
