<svg width="21" height="31" viewBox="0 0 21 31" fill="none" xmlns="http://www.w3.org/2000/svg">
<path d="M4.57561 0.166815C4.38165 0.251373 4.22964 0.408468 4.15299 0.603578C4.07634 0.798687 4.08131 1.01585 4.16682 1.20734V1.20892L4.17083 1.2176L4.18282 1.24365C4.25507 1.40502 4.32921 1.56556 4.40522 1.72523C5.34444 3.71028 6.37043 5.6542 7.48031 7.55153C9.46744 10.9328 12.2201 14.9433 15.156 17.0315L15.1576 17.0323C18.2431 19.2175 18.8391 21.6128 18.3399 23.3402C17.8272 25.1173 16.1008 26.4467 13.9833 26.4467H13.6057C13.3609 25.6044 12.7225 24.7904 11.637 24.2907C10.405 23.7238 8.66107 23.5841 6.31715 24.1209C6.21441 24.144 6.1173 24.1869 6.03141 24.2471C5.94551 24.3074 5.87251 24.3837 5.81661 24.4719C5.76071 24.56 5.723 24.6582 5.70565 24.7608C5.68831 24.8633 5.69166 24.9683 5.71553 25.0695C5.73939 25.1708 5.7833 25.2665 5.84473 25.3509C5.90615 25.4354 5.98388 25.5071 6.07346 25.5619C6.16303 25.6166 6.26269 25.6534 6.3667 25.67C6.47071 25.6867 6.57702 25.6829 6.67954 25.6588C8.81627 25.1694 10.165 25.3557 10.9602 25.722C11.3946 25.9217 11.681 26.1815 11.861 26.4467H11.4002C10.9141 26.4467 10.4328 26.5412 9.98368 26.7248C9.5346 26.9084 9.12655 27.1774 8.78284 27.5166C8.43913 27.8558 8.16648 28.2585 7.98046 28.7017C7.79444 29.1449 7.6987 29.6199 7.6987 30.0996H9.29865C9.29865 29.5496 9.52006 29.0221 9.91417 28.6331C10.3083 28.2442 10.8428 28.0257 11.4002 28.0257H13.9841C16.7872 28.0257 19.1623 26.2549 19.8791 23.772C20.6103 21.2378 19.5671 18.2118 16.0912 15.7502C13.4577 13.8768 10.8482 10.1363 8.86506 6.75811C7.77867 4.90313 6.77508 3.0021 5.85717 1.0605C5.78526 0.90778 5.71433 0.75462 5.64437 0.601025L5.63398 0.57734L5.63078 0.571025C5.58843 0.476078 5.52753 0.390298 5.45157 0.31859C5.37561 0.246882 5.28607 0.190651 5.18808 0.153112C5.09008 0.115572 4.98555 0.0974609 4.88046 0.0998122C4.77537 0.102164 4.67178 0.124932 4.57561 0.166815ZM2.87567 27.612C1.74771 26.9173 0.709345 25.4267 0.294159 23.7767C-0.129826 22.0881 0.0653667 20.0954 1.62211 18.4991L2.77487 19.5941C1.69091 20.7057 1.51972 22.096 1.84691 23.3962C2.18369 24.7344 3.01646 25.838 3.72204 26.2715L2.87567 27.612Z" fill="#A88EC3"/>
<path d="M4.16682 1.20734C4.08131 1.01585 4.07634 0.798687 4.15299 0.603578C4.22964 0.408468 4.38165 0.251373 4.57561 0.166815C4.67178 0.124932 4.77537 0.102164 4.88046 0.0998122C4.98555 0.0974609 5.09008 0.115572 5.18808 0.153112C5.28607 0.190651 5.37561 0.246882 5.45157 0.31859C5.52753 0.390298 5.58843 0.476078 5.63078 0.571025L5.63398 0.57734L5.64437 0.601025C5.71433 0.75462 5.78526 0.90778 5.85717 1.0605C6.77508 3.0021 7.77867 4.90313 8.86506 6.75811C10.8482 10.1363 13.4577 13.8768 16.0912 15.7502C19.5671 18.2118 20.6103 21.2378 19.8791 23.772C19.1623 26.2549 16.7872 28.0257 13.9841 28.0257H11.4002C10.8428 28.0257 10.3083 28.2442 9.91417 28.6331C9.52006 29.0221 9.29865 29.5496 9.29865 30.0996H7.6987C7.6987 29.6199 7.79444 29.1449 7.98046 28.7017C8.16648 28.2585 8.43913 27.8558 8.78284 27.5166C9.12655 27.1774 9.5346 26.9084 9.98368 26.7248C10.4328 26.5412 10.9141 26.4467 11.4002 26.4467H11.861C11.681 26.1815 11.3946 25.9217 10.9602 25.722C10.165 25.3557 8.81627 25.1694 6.67954 25.6588C6.57702 25.6829 6.47071 25.6867 6.3667 25.67C6.26269 25.6534 6.16303 25.6166 6.07346 25.5619C5.98388 25.5071 5.90615 25.4354 5.84473 25.3509C5.7833 25.2665 5.73939 25.1708 5.71553 25.0695C5.69166 24.9683 5.68831 24.8633 5.70565 24.7608C5.723 24.6582 5.76071 24.56 5.81661 24.4719C5.87251 24.3837 5.94551 24.3074 6.03141 24.2471C6.1173 24.1869 6.21441 24.144 6.31715 24.1209C8.66107 23.5841 10.405 23.7238 11.637 24.2907C12.7225 24.7904 13.3609 25.6044 13.6057 26.4467H13.9833C16.1008 26.4467 17.8272 25.1173 18.3399 23.3402C18.8391 21.6128 18.2431 19.2175 15.1576 17.0323L15.156 17.0315C12.2201 14.9433 9.46744 10.9328 7.48031 7.55153C6.37043 5.6542 5.34444 3.71028 4.40522 1.72523C4.32921 1.56556 4.25507 1.40502 4.18282 1.24365L4.17083 1.2176L4.16682 1.20892V1.20734ZM4.16682 1.20734L4.8988 0.889181M2.87567 27.612C1.74771 26.9173 0.709345 25.4267 0.294159 23.7767C-0.129826 22.0881 0.065366 20.0954 1.62211 18.4991L2.77487 19.5941C1.69091 20.7057 1.51972 22.096 1.84691 23.3962C2.1837 24.7344 3.01646 25.838 3.72204 26.2715L2.87567 27.612Z" stroke="#A88EC3" stroke-width="0.2"/>
</svg>
