<svg width="49" height="39" viewBox="0 0 49 39" fill="none" xmlns="http://www.w3.org/2000/svg">
<path d="M2.54248 2.67676C2.7365 2.43798 3.13066 2.43802 3.32471 2.67676C3.43931 2.81786 3.99686 3.51373 4.52588 4.33594C4.79024 4.74682 5.04878 5.19134 5.2417 5.61523C5.43349 6.03673 5.56588 6.4489 5.56592 6.79102C5.56592 8.24157 4.38459 9.42263 2.93408 9.42285C1.48339 9.42285 0.302246 8.24171 0.302246 6.79102C0.302285 6.4489 0.433694 6.03673 0.625488 5.61523C0.818406 5.19135 1.07695 4.74682 1.34131 4.33594C1.87033 3.51373 2.42789 2.81786 2.54248 2.67676ZM2.93311 3.81836C2.57281 4.29964 2.17998 4.87079 1.87061 5.40332C1.70431 5.68958 1.5628 5.96311 1.46338 6.2041C1.36301 6.44745 1.30909 6.64834 1.30908 6.79297C1.30908 7.68807 2.03894 8.41699 2.93408 8.41699C3.829 8.41677 4.55811 7.68798 4.55811 6.79297C4.5581 6.64885 4.50417 6.44833 4.40381 6.20508C4.3044 5.9642 4.16284 5.69063 3.99658 5.4043C3.68709 4.87134 3.29352 4.29979 2.93311 3.81836Z" fill="#A88EC3" stroke="#A88EC3" stroke-width="0.2"/>
<path d="M7.87061 9.26465C8.06463 9.02587 8.45878 9.02591 8.65283 9.26465C8.76743 9.40575 9.32499 10.1016 9.854 10.9238C10.1184 11.3347 10.3769 11.7792 10.5698 12.2031C10.7616 12.6246 10.894 13.0368 10.894 13.3789C10.894 14.8295 9.71271 16.0105 8.26221 16.0107C6.81152 16.0107 5.63037 14.8296 5.63037 13.3789C5.63041 13.0368 5.76182 12.6246 5.95361 12.2031C6.14653 11.7792 6.40507 11.3347 6.66943 10.9238C7.19845 10.1016 7.75602 9.40575 7.87061 9.26465ZM8.26123 10.4043C7.90016 10.8864 7.50696 11.4576 7.19775 11.9902C7.03153 12.2766 6.89081 12.5502 6.7915 12.791C6.69123 13.0342 6.63722 13.2347 6.63721 13.3789C6.63721 14.274 7.36706 15.0029 8.26221 15.0029C9.15712 15.0027 9.88623 14.2739 9.88623 13.3789C9.88622 13.2348 9.83229 13.0343 9.73193 12.791C9.63252 12.5501 9.49097 12.2766 9.32471 11.9902C9.01521 11.4573 8.62165 10.8857 8.26123 10.4043Z" fill="#A88EC3" stroke="#A88EC3" stroke-width="0.2"/>
<path d="M45.0747 2.67676C45.2687 2.43798 45.6629 2.43802 45.8569 2.67676C45.9715 2.81786 46.5291 3.51373 47.0581 4.33594C47.3225 4.74682 47.581 5.19134 47.7739 5.61523C47.9657 6.03673 48.0981 6.4489 48.0981 6.79102C48.0981 8.24157 46.9168 9.42263 45.4663 9.42285C44.0155 9.42285 42.8364 8.24148 42.8345 6.79102C42.8345 6.4489 42.9659 6.03673 43.1577 5.61523C43.3506 5.19135 43.6092 4.74682 43.8735 4.33594C44.4026 3.51373 44.9601 2.81786 45.0747 2.67676ZM45.4653 3.81836C45.1051 4.29961 44.713 4.87079 44.4038 5.40332C44.2376 5.68962 44.0961 5.96305 43.9966 6.2041C43.8962 6.44734 43.8418 6.6482 43.8413 6.79297C43.8413 7.68807 44.5712 8.41699 45.4663 8.41699C46.3612 8.41677 47.0903 7.68798 47.0903 6.79297C47.0903 6.64885 47.0364 6.44833 46.936 6.20508C46.8366 5.9642 46.6951 5.69063 46.5288 5.4043C46.2193 4.87134 45.8257 4.29979 45.4653 3.81836Z" fill="#A88EC3" stroke="#A88EC3" stroke-width="0.2"/>
<path d="M39.7456 9.26465C39.9396 9.02587 40.3338 9.02591 40.5278 9.26465C40.6424 9.40575 41.2 10.1016 41.729 10.9238C41.9934 11.3347 42.2519 11.7792 42.4448 12.2031C42.6366 12.6246 42.769 13.0368 42.769 13.3789C42.769 14.8295 41.5877 16.0105 40.1372 16.0107C38.6864 16.0107 37.5073 14.8294 37.5054 13.3789C37.5054 13.0368 37.6368 12.6246 37.8286 12.2031C38.0215 11.7792 38.2801 11.3347 38.5444 10.9238C39.0735 10.1016 39.631 9.40575 39.7456 9.26465ZM40.1362 10.4043C39.776 10.8863 39.3839 11.4577 39.0747 11.9902C38.9085 12.2766 38.767 12.5502 38.6675 12.791C38.567 13.0341 38.5127 13.2346 38.5122 13.3789C38.5122 14.274 39.2421 15.0029 40.1372 15.0029C41.0321 15.0027 41.7612 14.2739 41.7612 13.3789C41.7612 13.2348 41.7073 13.0343 41.6069 12.791C41.5075 12.5501 41.366 12.2766 41.1997 11.9902C40.8902 11.4573 40.4966 10.8857 40.1362 10.4043Z" fill="#A88EC3" stroke="#A88EC3" stroke-width="0.2"/>
<path d="M35.3843 30.2441C35.5575 30.2449 35.6981 30.3135 35.7935 30.4229C35.8862 30.5293 35.9292 30.6669 35.9292 30.7988C35.9291 30.9306 35.8861 31.0675 35.7935 31.1738C35.6981 31.2831 35.5575 31.3518 35.3843 31.3525H32.8843C32.7107 31.3513 32.5696 31.2823 32.4741 31.1729C32.3815 31.0664 32.3383 30.9296 32.3384 30.7979C32.3385 30.6658 32.382 30.5282 32.4751 30.4219C32.5707 30.3128 32.712 30.2448 32.8853 30.2441H35.3843Z" fill="#A88EC3" stroke="#A88EC3" stroke-width="0.3"/>
<path d="M30.3892 30.0947C30.6041 30.0955 30.7868 30.1811 30.9116 30.3242C31.0312 30.4615 31.0845 30.6357 31.0845 30.7988C31.0844 30.9619 31.0311 31.1353 30.9116 31.2725C30.7868 31.4156 30.6041 31.5012 30.3892 31.502H27.8901C27.6753 31.5004 27.4935 31.4146 27.3687 31.2715C27.2488 31.1341 27.1956 30.9603 27.1958 30.7969C27.1961 30.6336 27.2497 30.4602 27.3696 30.3232C27.4946 30.1806 27.6765 30.0955 27.8911 30.0947H30.3892Z" fill="#A88EC3" stroke="#A88EC3" stroke-width="0.6"/>
<path d="M40.3765 30.2441C40.5497 30.2449 40.6903 30.3135 40.7856 30.4229C40.8784 30.5293 40.9214 30.6669 40.9214 30.7988C40.9213 30.9306 40.8783 31.0675 40.7856 31.1738C40.6903 31.2832 40.5497 31.3518 40.3765 31.3525H37.8784C37.7048 31.3513 37.5637 31.2823 37.4683 31.1729C37.3757 31.0664 37.3324 30.9296 37.3325 30.7979C37.3327 30.6658 37.3762 30.5282 37.4692 30.4219C37.5648 30.3128 37.7061 30.2448 37.8794 30.2441H40.3765Z" fill="#A88EC3" stroke="#A88EC3" stroke-width="0.3"/>
<path d="M45.3726 30.2441C45.546 30.2448 45.6864 30.3135 45.7817 30.4229C45.8746 30.5293 45.9175 30.6668 45.9175 30.7988C45.9174 30.9307 45.8745 31.0675 45.7817 31.1738C45.6864 31.2832 45.546 31.3519 45.3726 31.3525H42.8745C42.7013 31.3512 42.5615 31.2821 42.4663 31.1729C42.3736 31.0664 42.3296 30.9297 42.3296 30.7979C42.3296 30.6659 42.3734 30.5282 42.4663 30.4219C42.5618 30.3129 42.7024 30.2448 42.8755 30.2441H45.3726Z" fill="#A88EC3" stroke="#A88EC3" stroke-width="0.3"/>
<path d="M10.4116 30.2441C10.5849 30.2449 10.7255 30.3135 10.8208 30.4229C10.9136 30.5293 10.9565 30.6669 10.9565 30.7988C10.9564 30.9306 10.9134 31.0675 10.8208 31.1738C10.7255 31.2832 10.5849 31.3518 10.4116 31.3525H7.91357C7.73996 31.3513 7.59887 31.2823 7.50342 31.1729C7.41082 31.0664 7.36761 30.9296 7.36768 30.7979C7.36783 30.6658 7.41133 30.5282 7.50439 30.4219C7.59996 30.3128 7.74127 30.2448 7.91455 30.2441H10.4116Z" fill="#A88EC3" stroke="#A88EC3" stroke-width="0.3"/>
<path d="M15.4067 30.2441C15.58 30.2449 15.7206 30.3135 15.8159 30.4229C15.9087 30.5293 15.9517 30.6669 15.9517 30.7988C15.9516 30.9306 15.9085 31.0675 15.8159 31.1738C15.7206 31.2831 15.58 31.3518 15.4067 31.3525H12.9067C12.7331 31.3513 12.592 31.2823 12.4966 31.1729C12.404 31.0664 12.3608 30.9296 12.3608 30.7979C12.361 30.6658 12.4045 30.5282 12.4976 30.4219C12.5931 30.3128 12.7344 30.2448 12.9077 30.2441H15.4067Z" fill="#A88EC3" stroke="#A88EC3" stroke-width="0.3"/>
<path d="M20.4009 30.2441C20.5742 30.2448 20.7147 30.3135 20.8101 30.4229C20.9029 30.5293 20.9458 30.6669 20.9458 30.7988C20.9457 30.9306 20.9028 31.0675 20.8101 31.1738C20.7147 31.2832 20.5742 31.3519 20.4009 31.3525H17.9009C17.7277 31.3512 17.5879 31.2821 17.4927 31.1729C17.3999 31.0664 17.356 30.9297 17.356 30.7979C17.356 30.6659 17.3997 30.5282 17.4927 30.4219C17.5881 30.3129 17.7287 30.2448 17.9019 30.2441H20.4009Z" fill="#A88EC3" stroke="#A88EC3" stroke-width="0.3"/>
<path d="M25.3921 30.2441L25.5161 30.2568C25.6332 30.2814 25.7297 30.3409 25.8013 30.4229C25.8941 30.5293 25.938 30.6668 25.938 30.7988C25.9379 30.9307 25.894 31.0675 25.8013 31.1738C25.7297 31.2558 25.6332 31.3153 25.5161 31.3398L25.3921 31.3525H22.895C22.7217 31.3513 22.581 31.2823 22.4858 31.1729C22.3933 31.0664 22.35 30.9296 22.3501 30.7979C22.3503 30.666 22.3941 30.5291 22.4868 30.4229C22.5821 30.3137 22.722 30.2448 22.895 30.2441H25.3921Z" fill="#A88EC3" stroke="#A88EC3" stroke-width="0.3"/>
<path d="M5.4165 30.2441C5.58978 30.2449 5.73035 30.3135 5.82568 30.4229C5.91844 30.5293 5.96143 30.6669 5.96143 30.7988C5.96132 30.9306 5.91833 31.0675 5.82568 31.1738C5.73035 31.2832 5.58978 31.3518 5.4165 31.3525H2.91846C2.74485 31.3513 2.60375 31.2823 2.5083 31.1729C2.41571 31.0664 2.37249 30.9296 2.37256 30.7979C2.37271 30.6658 2.41621 30.5282 2.50928 30.4219C2.60485 30.3128 2.74615 30.2448 2.91943 30.2441H5.4165Z" fill="#A88EC3" stroke="#A88EC3" stroke-width="0.3"/>
<path d="M24.2007 0.202148C33.2724 0.130039 38.8028 10.5093 33.8247 17.9756C36.0966 18.1927 38.3715 18.4813 40.6265 18.7656C42.9938 19.0641 45.3395 19.356 47.645 19.5537H47.644C47.9564 19.579 48.1978 19.8408 48.1978 20.1553C48.1996 24.0284 48.1922 32.8247 48.1997 36.7764V37.7383C48.1997 38.0722 47.9301 38.3427 47.5962 38.3428H0.802246L0.80127 38.3418C0.468493 38.3405 0.199797 38.0723 0.199707 37.7393V36.7666C0.199669 36.7621 0.200485 36.7265 0.200684 36.6514C0.200889 36.5736 0.200506 36.4609 0.200684 36.3193C0.201039 36.0364 0.201411 35.636 0.20166 35.1572C0.202159 34.1995 0.202519 32.9284 0.202637 31.6572V26.9941C0.202551 26.8525 0.201762 26.74 0.20166 26.6621V20.1553C0.20166 19.8419 0.443578 19.5818 0.753418 19.5537H0.754395C3.05881 19.3559 5.4052 19.0641 7.77295 18.7656C10.0279 18.4814 12.3031 18.1927 14.5737 17.9756C9.5965 10.5113 15.1272 0.130655 24.1987 0.202148V0.201172L24.1997 0.202148L24.2017 0.201172L24.2007 0.202148ZM44.896 34.4795C44.3043 34.4163 43.6993 34.5679 43.229 34.9424C42.7617 35.3146 42.4124 35.9186 42.3511 36.791V37.1348H47.0024C47.0488 36.3423 46.8225 35.7278 46.4546 35.291C46.0572 34.8193 45.4877 34.5427 44.896 34.4795ZM39.0483 34.4795C38.4563 34.4163 37.8509 34.5678 37.3804 34.9424C36.9129 35.3146 36.5637 35.9186 36.5024 36.791V37.1348H41.1558C41.202 36.3424 40.976 35.7278 40.6079 35.291C40.2103 34.8192 39.6403 34.5427 39.0483 34.4795ZM33.1978 34.4795C32.6057 34.4163 32.0003 34.5678 31.5298 34.9424C31.0623 35.3146 30.7132 35.9187 30.6519 36.791V37.1348H35.3052C35.3514 36.3424 35.1254 35.7278 34.7573 35.291C34.3597 34.8192 33.7897 34.5427 33.1978 34.4795ZM27.3491 34.4795C26.7571 34.4163 26.1516 34.5678 25.6812 34.9424C25.2137 35.3146 24.8645 35.9187 24.8032 36.791V37.1348H29.4565C29.5027 36.3424 29.2768 35.7278 28.9087 35.291C28.511 34.8192 27.9411 34.5427 27.3491 34.4795ZM21.5005 34.4795C20.9085 34.4163 20.303 34.5678 19.8325 34.9424C19.3651 35.3146 19.0159 35.9187 18.9546 36.791V37.1348H23.6079C23.6541 36.3424 23.4282 35.7278 23.0601 35.291C22.6624 34.8192 22.0925 34.5427 21.5005 34.4795ZM15.6519 34.4795C15.0598 34.4163 14.4544 34.5678 13.9839 34.9424C13.5165 35.3146 13.1673 35.9187 13.106 36.791V37.1348H17.7593C17.8055 36.3424 17.5796 35.7278 17.2114 35.291C16.8138 34.8192 16.2438 34.5427 15.6519 34.4795ZM9.80127 34.4795C9.20927 34.4163 8.60377 34.5678 8.1333 34.9424C7.66589 35.3146 7.31667 35.9187 7.25537 36.791V37.1348H11.9097C11.9558 36.3424 11.729 35.7278 11.3608 35.291C10.9632 34.8192 10.3932 34.5427 9.80127 34.4795ZM3.729 34.4707C3.10472 34.4707 2.48533 34.7071 2.04346 35.1738C1.63244 35.6081 1.36169 36.2559 1.39697 37.1348H6.06006C6.09581 36.2562 5.82544 35.6082 5.41455 35.1738C4.97286 34.7071 4.35332 34.4708 3.729 34.4707ZM44.6714 26.0742C44.0644 26.0938 43.7616 26.3346 43.3911 26.6025C43.2041 26.7378 42.9961 26.8824 42.731 26.9883C42.465 27.0944 42.1498 27.1575 41.7446 27.1494L41.7456 27.1504C41.744 27.1504 41.7423 27.1494 41.7407 27.1494C41.7395 27.1494 41.738 27.1504 41.7368 27.1504V27.1494C41.3319 27.1577 41.0169 27.0952 40.7515 26.9893C40.4864 26.8834 40.2788 26.7389 40.0923 26.6035C39.7231 26.3356 39.4217 26.0942 38.8149 26.0742C38.2105 26.0943 37.9083 26.3355 37.5386 26.6035C37.3519 26.7388 37.1443 26.8835 36.8794 26.9893C36.6139 27.0952 36.2993 27.1578 35.895 27.1494L35.896 27.1504C35.8942 27.1504 35.8919 27.1494 35.8901 27.1494C35.8889 27.1494 35.8875 27.1504 35.8862 27.1504V27.1494C35.4818 27.1577 35.1672 27.0952 34.9019 26.9893C34.6369 26.8834 34.4292 26.7389 34.2427 26.6035C33.8734 26.3355 33.5721 26.0942 32.9663 26.0742C32.3619 26.0943 32.0604 26.3355 31.6909 26.6035C31.5043 26.7389 31.2967 26.8835 31.0317 26.9893C30.7662 27.0952 30.4511 27.1578 30.0464 27.1494L30.0474 27.1504C30.0456 27.1504 30.0433 27.1494 30.0415 27.1494C30.0402 27.1494 30.0389 27.1504 30.0376 27.1504V27.1494C29.6332 27.1577 29.3186 27.0952 29.0532 26.9893C28.7883 26.8835 28.5807 26.7388 28.394 26.6035C28.0244 26.3354 27.7225 26.0942 27.1177 26.0742C26.5133 26.0943 26.2118 26.3355 25.8423 26.6035C25.6557 26.7389 25.4481 26.8835 25.1831 26.9893C24.9175 27.0953 24.6025 27.1578 24.1978 27.1494L24.1987 27.1504C24.1972 27.1504 24.1953 27.1494 24.1938 27.1494C24.1923 27.1494 24.1906 27.1504 24.189 27.1504V27.1494C23.7846 27.1577 23.47 27.095 23.2046 26.9893C22.9395 26.8836 22.7321 26.7388 22.5454 26.6035C22.1758 26.3357 21.8739 26.0951 21.269 26.0742C20.6647 26.0943 20.3636 26.3356 19.9946 26.6035C19.8082 26.7389 19.6003 26.8835 19.3354 26.9893C19.0701 27.0952 18.7556 27.1578 18.3511 27.1494L18.3521 27.1504C18.3503 27.1504 18.348 27.1494 18.3462 27.1494C18.3449 27.1494 18.3436 27.1504 18.3423 27.1504V27.1494C17.9379 27.1577 17.6233 27.095 17.3579 26.9893C17.0928 26.8836 16.8854 26.7388 16.6987 26.6035C16.3291 26.3357 16.0272 26.0951 15.4224 26.0742C14.817 26.0943 14.5159 26.3356 14.147 26.6035C13.9606 26.7389 13.7528 26.8835 13.4878 26.9893C13.2223 27.0952 12.9074 27.1578 12.5024 27.1494L12.5034 27.1504C12.5019 27.1504 12.5 27.1494 12.4985 27.1494C12.4969 27.1494 12.4953 27.1504 12.4937 27.1504V27.1494C12.0899 27.1577 11.7756 27.0951 11.5103 26.9893C11.2452 26.8835 11.037 26.7389 10.8501 26.6035C10.4799 26.3354 10.1776 26.0942 9.57373 26.0742C8.9684 26.0943 8.66729 26.3356 8.29834 26.6035C8.11192 26.7389 7.90418 26.8835 7.63916 26.9893C7.37365 27.0952 7.05881 27.1578 6.65381 27.1494L6.65479 27.1504C6.6533 27.1504 6.65138 27.1494 6.6499 27.1494C6.64831 27.1494 6.64662 27.1504 6.64502 27.1504V27.1494C6.24124 27.1577 5.92701 27.0949 5.66162 26.9893C5.39647 26.8836 5.18843 26.7388 5.00146 26.6035C4.63073 26.3352 4.32798 26.0944 3.72217 26.0742C3.19492 26.0796 2.90929 26.2737 2.58936 26.5088C2.29012 26.7287 1.9579 26.9858 1.40869 27.0898L1.40967 34.1074C2.15034 33.4436 3.15347 33.1874 4.10693 33.291C5.11071 33.4002 6.08052 33.9116 6.65381 34.793C7.97703 32.7645 11.1776 32.7658 12.5015 34.7949C13.824 32.7646 17.0258 32.7652 18.3501 34.7949C19.6726 32.7646 22.8744 32.7652 24.1987 34.7949C25.5214 32.7643 28.724 32.7635 30.0513 34.7949C31.3738 32.7646 34.5756 32.7634 35.8999 34.7949C37.222 32.7653 40.4226 32.765 41.7476 34.793C42.3202 33.9111 43.2912 33.4001 44.2954 33.291C45.2487 33.1875 46.2509 33.444 46.9917 34.1074V27.0898C46.4417 26.9866 46.1089 26.7299 45.8091 26.5098C45.4882 26.2742 45.2015 26.0792 44.6714 26.0742ZM32.9927 19.1074C28.5396 24.5283 19.8592 24.5307 15.4048 19.1074C12.908 19.3335 10.4544 19.6442 8.07373 19.9443C5.76709 20.2347 3.57364 20.5093 1.40869 20.7061V25.8271C1.57883 25.7546 1.72636 25.6518 1.90576 25.5195C2.39443 25.0783 3.07295 24.8699 3.73584 24.8721C4.39802 24.8743 5.06977 25.0868 5.54541 25.5195C5.72301 25.6503 5.86214 25.7517 6.02588 25.8242C6.18395 25.8942 6.37322 25.94 6.646 25.9404C7.25322 25.9213 7.55573 25.6807 7.92627 25.4121C8.11307 25.2767 8.3214 25.1322 8.58643 25.0264C8.85174 24.9205 9.16593 24.8569 9.56982 24.8652H9.57764C9.98303 24.8568 10.2983 24.9205 10.564 25.0264C10.8289 25.132 11.0367 25.2759 11.2231 25.4111C11.5929 25.6794 11.8943 25.9204 12.5024 25.9404C12.7741 25.94 12.9632 25.8942 13.1216 25.8242C13.2856 25.7516 13.4256 25.6502 13.603 25.5195C14.0855 25.0809 14.763 24.8712 15.4263 24.8721C16.0134 24.8729 16.6109 25.0383 17.0718 25.3779L17.2612 25.5342V25.5352C17.5411 25.7988 17.9398 25.9367 18.3472 25.9365C18.7547 25.9363 19.1521 25.7978 19.4302 25.5352L19.4497 25.5195C19.8501 25.2264 20.3381 24.8664 21.2632 24.8652H21.2681C21.6744 24.8564 21.99 24.9203 22.2563 25.0264C22.5215 25.132 22.7298 25.2758 22.9165 25.4111C23.286 25.6789 23.5874 25.9195 24.1919 25.9404C24.7966 25.9204 25.0987 25.6802 25.4683 25.4121C25.6549 25.2768 25.8625 25.1321 26.1274 25.0264C26.394 24.92 26.7099 24.8563 27.1167 24.8652H27.1196C27.8152 24.8659 28.2639 25.0679 28.6138 25.2939L28.937 25.5215L28.9468 25.5293L28.9556 25.5381C29.2323 25.8 29.6307 25.9374 30.0396 25.9375C30.4487 25.9375 30.8486 25.7995 31.1265 25.5371L31.1274 25.5361C31.6103 25.0905 32.292 24.8748 32.9614 24.874C33.6267 24.8733 34.3055 25.0848 34.7925 25.5273C34.9654 25.6553 35.1026 25.7547 35.2642 25.8262C35.4225 25.8962 35.6125 25.9419 35.8853 25.9424C36.4934 25.9233 36.7948 25.6826 37.1646 25.4141C37.351 25.2787 37.5587 25.1341 37.8237 25.0283C38.0892 24.9224 38.4042 24.8589 38.8091 24.8672H38.8169C39.222 24.8587 39.5373 24.9223 39.8032 25.0283C40.0684 25.1341 40.2765 25.2787 40.4634 25.4141C40.8339 25.6825 41.1362 25.923 41.7427 25.9424C42.016 25.9421 42.2059 25.8963 42.3647 25.8262C42.529 25.7536 42.6688 25.6522 42.8462 25.5215C43.3315 25.0878 44.0001 24.8739 44.6606 24.8721C45.3217 24.8703 45.9957 25.081 46.4897 25.5215L46.6743 25.6533C46.7797 25.7256 46.8805 25.7835 46.9907 25.8301V20.708C44.7067 20.4983 42.3966 20.2072 40.0747 19.9141C37.7241 19.6174 35.3607 19.3205 32.9927 19.1074ZM24.1978 1.41016C15.8118 1.34361 10.9511 11.173 15.8989 17.7881L16.1421 18.1006L16.145 18.1045C20.079 23.242 28.3209 23.2509 32.2524 18.1045L32.2554 18.1006L32.4985 17.7881C37.45 11.1728 32.5878 1.34705 24.2017 1.41016H24.1978Z" fill="#A88EC3" stroke="#A88EC3" stroke-width="0.4"/>
<path d="M24.1997 4.69531C24.3444 4.69535 24.4951 4.75264 24.5933 4.87598L24.853 5.20801C25.2818 5.76353 26.166 6.94014 27.0366 8.28809C27.6168 9.18648 28.1927 10.163 28.6235 11.084C29.0529 12.0018 29.3441 12.8772 29.3442 13.5684C29.3442 16.4051 27.0365 18.7138 24.1997 18.7139C21.363 18.7139 19.0552 16.4071 19.0552 13.5684C19.0553 12.8773 19.3466 12.0027 19.7759 11.085C20.2068 10.1638 20.7825 9.18663 21.3628 8.28809C22.5236 6.49079 23.7086 4.99817 23.8062 4.87598C23.9043 4.7527 24.0551 4.69531 24.1997 4.69531ZM24.1987 6.01367C23.4908 6.94046 22.4794 8.35364 21.6333 9.76465C21.194 10.4974 20.7997 11.2278 20.5161 11.8877C20.2314 12.5503 20.062 13.1322 20.062 13.5703C20.0621 15.8515 21.9185 17.707 24.1997 17.707C26.4809 17.707 28.3363 15.8515 28.3364 13.5703C28.3364 13.1323 28.1679 12.5511 27.8833 11.8887C27.5997 11.2288 27.2055 10.4984 26.7661 9.76562C25.9197 8.35406 24.9068 6.94069 24.1987 6.01367Z" fill="#A88EC3" stroke="#A88EC3" stroke-width="0.2"/>
<path d="M26.8521 13.0605C27.1306 13.0605 27.3557 13.285 27.356 13.5635V13.5645C27.3539 14.9315 26.4855 16.2939 25.1372 16.6914L25.1255 16.6953H25.1128C24.8409 16.705 24.6678 16.5028 24.6235 16.292C24.5793 16.0803 24.6582 15.8253 24.9165 15.7275C25.7864 15.3553 26.3481 14.5076 26.3481 13.5635C26.3484 13.285 26.5735 13.0606 26.8521 13.0605Z" fill="#A88EC3" stroke="#A88EC3" stroke-width="0.2"/>
</svg>
