<svg width="31" height="32" viewBox="0 0 31 32" fill="none" xmlns="http://www.w3.org/2000/svg">
<path d="M2.43635 13.1418C2.57801 13.1763 2.72723 13.1519 2.85137 13.0739C2.97551 12.9959 3.06446 12.8707 3.09878 12.7256C3.65397 10.4142 4.81562 8.30249 6.45789 6.6193C8.10016 4.9361 10.1604 3.74556 12.4156 3.17664C12.5569 3.14134 12.6788 3.05007 12.7546 2.92281C12.8303 2.79555 12.8538 2.64271 12.8198 2.49776C12.7857 2.35282 12.6971 2.2276 12.5731 2.14956C12.4492 2.07152 12.3002 2.04702 12.1587 2.08143C9.70709 2.70005 7.4674 3.99442 5.68217 5.82434C3.89694 7.65427 2.63423 9.94999 2.03082 12.4628C1.99681 12.608 2.02041 12.7611 2.09646 12.8884C2.1725 13.0157 2.29475 13.1069 2.43635 13.1418Z" fill="#662D91"/>
<path d="M28.3227 18.386C28.181 18.3514 28.0317 18.3758 27.9075 18.4538C27.7834 18.5318 27.6944 18.6571 27.6602 18.8022C27.105 21.1137 25.9434 23.2254 24.3011 24.9086C22.6589 26.5918 20.5986 27.7823 18.3434 28.3512C18.2147 28.3856 18.1025 28.4666 18.0275 28.5791C17.9526 28.6917 17.9198 28.8283 17.9354 28.9637C17.951 29.099 18.0139 29.224 18.1124 29.3156C18.2109 29.4072 18.3384 29.4591 18.4714 29.4618C20.9517 28.8703 23.2235 27.5855 25.0342 25.7501C26.8448 23.9147 28.1236 21.6006 28.7282 19.065C28.7622 18.9199 28.7386 18.7668 28.6626 18.6395C28.5865 18.5122 28.4643 18.421 28.3227 18.386Z" fill="#662D91"/>
<path d="M12.4161 28.3514C10.161 27.7824 8.10072 26.5919 6.45845 24.9087C4.81619 23.2255 3.65454 21.1138 3.09935 18.8024C3.06357 18.6592 2.97426 18.5361 2.85072 18.4598C2.72717 18.3835 2.57931 18.3601 2.43907 18.3946C2.29882 18.4292 2.17745 18.5188 2.10117 18.6443C2.02489 18.7698 1.99982 18.921 2.03137 19.0652C2.63479 21.578 3.8975 23.8737 5.68272 25.7037C7.46795 27.5336 9.70764 28.8279 12.1592 29.4466C12.3 29.479 12.4476 29.4533 12.5701 29.3752C12.6926 29.297 12.7802 29.1725 12.814 29.0287C12.8477 28.8849 12.8249 28.7332 12.7505 28.6065C12.676 28.4797 12.5559 28.3881 12.4161 28.3514Z" fill="#662D91"/>
<path d="M18.3434 3.17693C20.5986 3.74586 22.6589 4.9364 24.3011 6.6196C25.9434 8.30279 27.105 10.4145 27.6602 12.7259C27.6966 12.8684 27.7861 12.9906 27.9094 13.0663C28.0327 13.1419 28.1801 13.165 28.3198 13.1306C28.4595 13.0962 28.5806 13.0071 28.6569 12.8823C28.7333 12.7575 28.7588 12.607 28.7282 12.4631C28.1248 9.95026 26.8621 7.65455 25.0768 5.82463C23.2916 3.99471 21.0519 2.70034 18.6004 2.08173C18.4599 2.05016 18.3129 2.07632 18.191 2.15457C18.0691 2.23283 17.982 2.35694 17.9483 2.50029C17.9147 2.64363 17.9372 2.79478 18.0111 2.92128C18.085 3.04779 18.2043 3.13957 18.3434 3.17693Z" fill="#662D91"/>
<path d="M14.8884 4.1928C14.9351 4.28515 15.0055 4.36259 15.0922 4.41664C15.1789 4.47069 15.2784 4.49928 15.3798 4.49927C15.4812 4.49927 15.5807 4.47068 15.6674 4.41662C15.754 4.36256 15.8245 4.28512 15.8711 4.19277L17.519 0.814807C17.5597 0.728845 17.5785 0.633734 17.5738 0.538302C17.5691 0.44287 17.5409 0.350213 17.4919 0.268931C17.4429 0.187648 17.3746 0.120377 17.2934 0.073362C17.2123 0.0263469 17.1208 0.00111205 17.0276 0H13.732C13.6387 0.00111056 13.5473 0.0263446 13.4661 0.0733594C13.385 0.120374 13.3167 0.187646 13.2677 0.268928C13.2187 0.350211 13.1905 0.442869 13.1858 0.538301C13.181 0.633733 13.1999 0.728845 13.2406 0.814807L14.8884 4.1928ZM16.1388 1.126L15.3798 2.68193L14.6208 1.126H16.1388Z" fill="#662D91"/>
<path d="M4.39421 15.7639C4.3942 15.6594 4.36579 15.5569 4.31217 15.4679C4.25855 15.379 4.18184 15.3071 4.09061 15.2603L0.794952 13.5713C0.711202 13.5284 0.61814 13.5082 0.524603 13.5125C0.431066 13.5168 0.340159 13.5455 0.260513 13.596C0.180867 13.6465 0.115126 13.7169 0.0695309 13.8008C0.0239363 13.8846 1.72521e-06 13.979 0 14.0749V17.453C2.66143e-06 17.5489 0.0239378 17.6433 0.0695328 17.7271C0.115128 17.8109 0.180869 17.8814 0.260515 17.9319C0.340162 17.9823 0.431069 18.0111 0.524605 18.0154C0.618141 18.0197 0.711202 17.9995 0.794952 17.9566L4.09061 16.2676C4.18184 16.2208 4.25856 16.1489 4.31218 16.0599C4.3658 15.971 4.3942 15.8685 4.39421 15.7639ZM1.09855 16.5419V14.986L2.61684 15.7639L1.09855 16.5419Z" fill="#662D91"/>
<path d="M15.8711 27.3352C15.8204 27.248 15.7485 27.1758 15.6624 27.1256C15.5762 27.0754 15.4789 27.0491 15.3798 27.0491C15.2807 27.0491 15.1834 27.0754 15.0972 27.1256C15.0111 27.1758 14.9392 27.248 14.8885 27.3352L13.2406 30.7132C13.1999 30.7992 13.181 30.8943 13.1858 30.9897C13.1905 31.0852 13.2187 31.1778 13.2677 31.2591C13.3167 31.3404 13.385 31.4076 13.4661 31.4547C13.5473 31.5017 13.6387 31.5269 13.732 31.528L17.0276 31.528C17.1208 31.5269 17.2123 31.5017 17.2934 31.4547C17.3746 31.4077 17.4429 31.3404 17.4919 31.2591C17.5409 31.1778 17.5691 31.0852 17.5738 30.9897C17.5785 30.8943 17.5597 30.7992 17.519 30.7132L15.8711 27.3352ZM14.6208 30.402L15.3798 28.8461L16.1388 30.402L14.6208 30.402Z" fill="#662D91"/>
<path d="M30.4993 13.596C30.4196 13.5455 30.3287 13.5168 30.2352 13.5125C30.1416 13.5081 30.0486 13.5284 29.9648 13.5712L26.6691 15.2602C26.579 15.308 26.5035 15.3802 26.4507 15.4691C26.398 15.5579 26.3701 15.6599 26.3701 15.7638C26.3701 15.8678 26.398 15.9698 26.4508 16.0586C26.5035 16.1474 26.5791 16.2197 26.6692 16.2674L29.9648 17.9564C30.0485 17.9993 30.1416 18.0196 30.2351 18.0152C30.3286 18.0109 30.4195 17.9822 30.4992 17.9317C30.5788 17.8813 30.6445 17.8108 30.6901 17.727C30.7358 17.6432 30.7597 17.5488 30.7597 17.4529V14.0748C30.7597 13.9789 30.7357 13.8846 30.6902 13.8008C30.6446 13.717 30.5789 13.6465 30.4993 13.596ZM29.6612 16.5418L28.1429 15.7638L29.6612 14.9859V16.5418Z" fill="#662D91"/>
<path d="M6.60254 21.2462V23.1551C6.60302 23.5839 6.76942 23.9949 7.06522 24.298C7.36103 24.6012 7.76208 24.7717 8.18037 24.7721H22.5785C22.9968 24.7717 23.3978 24.6012 23.6936 24.298C23.9895 23.9949 24.1558 23.5839 24.1563 23.1551V21.2462C24.1572 20.3535 23.8835 19.4833 23.3743 18.7591C22.865 18.0349 22.1461 17.4937 21.3196 17.2123L17.7841 16.0043C18.7084 15.4617 19.4318 14.6212 19.8418 13.6135C20.2518 12.6058 20.3254 11.4875 20.0511 10.4325C19.7768 9.37753 19.17 8.44506 18.3251 7.78017C17.4802 7.11528 16.4446 6.75525 15.3794 6.75611C10.4227 6.79322 8.73893 13.5025 12.9749 16.0044L9.43958 17.2123C8.613 17.4936 7.89397 18.0348 7.38466 18.759C6.87536 19.4832 6.60169 20.3535 6.60254 21.2462ZM11.6434 11.7115C11.6445 10.6962 12.0384 9.72283 12.7388 9.00492C13.4393 8.28701 14.3889 7.88321 15.3794 7.8821C20.3242 8.0617 20.3229 15.362 15.3794 15.5409C14.3888 15.5398 13.4392 15.1359 12.7388 14.418C12.0384 13.7001 11.6445 12.7268 11.6434 11.7115ZM13.6844 16.9484C14.7851 16.5753 15.9737 16.5753 17.0745 16.9484L20.9722 18.28C21.5799 18.487 22.1085 18.885 22.4829 19.4175C22.8573 19.95 23.0584 20.5898 23.0578 21.2462V23.1551C23.0575 23.2853 23.007 23.4101 22.9171 23.5021C22.8273 23.5941 22.7055 23.6459 22.5785 23.6461H8.18037C8.05336 23.6459 7.93159 23.5941 7.84175 23.5021C7.75191 23.4101 7.70133 23.2853 7.70109 23.1551V21.2462C7.70044 20.5898 7.90163 19.9499 8.27607 19.4174C8.65051 18.8849 9.17916 18.4869 9.7869 18.28L13.6844 16.9484Z" fill="#662D91"/>
</svg>
