<svg width="21" height="25" viewBox="0 0 21 25" fill="none" xmlns="http://www.w3.org/2000/svg">
<path d="M8.72363 0.161133C11.8143 -0.112585 14.2406 0.537809 15.916 2.1123C18.1688 4.23 18.26 7.25646 18.2598 7.75293C18.4483 8.33448 18.5826 8.78162 18.376 9.49121C18.3702 9.51135 18.3684 9.54854 18.3809 9.6084C18.393 9.66654 18.4164 9.737 18.4502 9.81836C18.5178 9.9812 18.6223 10.1771 18.7461 10.3848C18.9935 10.7997 19.3089 11.2517 19.5312 11.5703L19.8848 12.082C19.9932 12.2435 20.089 12.3926 20.1611 12.5205C20.3217 12.8049 20.3446 13.1421 20.2236 13.4443C20.099 13.755 19.8316 13.9922 19.5088 14.0791C19.4884 14.0846 19.4678 14.0879 19.4473 14.0898L18.7363 14.1562L18.7334 14.1572C18.7327 14.1578 18.7313 14.1587 18.7305 14.1602L18.7295 14.1641C18.7295 14.1642 18.7297 14.1653 18.7305 14.167L19.0078 14.708C19.1782 15.0397 19.1049 15.4473 18.8301 15.6992L18.8242 15.7051L18.8232 15.7041L18.7451 15.7656L18.7559 15.7881C18.9251 16.1325 18.8254 16.5509 18.5195 16.7832L18.3281 16.9287C18.2877 16.9798 18.2707 17.015 18.2637 17.043C18.2566 17.0716 18.2575 17.1023 18.2666 17.1484L18.3955 17.8076C18.4965 18.3226 18.3585 18.8473 18.0176 19.2461C17.6772 19.644 17.1799 19.8646 16.6562 19.8418V19.8428H16.6533V19.8418L14.7031 19.8066H14.6895L13.4824 19.7842H13.4814C13.4635 19.7842 13.4481 19.7942 13.4414 19.8096L11.4756 24.3252L11.4355 24.417L11.3438 24.377L10.8457 24.1602L10.7539 24.1201L10.7939 24.0283L12.7021 19.6445C12.2207 19.5862 11.8731 19.5361 11.8418 19.5312V19.5303C11.7712 19.5228 11.2319 19.4619 10.6025 19.3145C9.95831 19.1635 9.19599 18.9182 8.75684 18.5322C8.53031 18.333 8.34816 18.0145 8.2002 17.6572C8.05129 17.2977 7.9329 16.8876 7.84082 16.4941C7.74868 16.1004 7.68235 15.7207 7.63672 15.4209L7.55859 14.8271C7.53681 14.623 7.68478 14.4405 7.88867 14.4189L7.88965 14.418C8.09445 14.3985 8.27562 14.5444 8.29688 14.749L8.33789 15.0801C8.39052 15.4608 8.47838 15.974 8.60059 16.4697C8.68202 16.8 8.7783 17.1202 8.88867 17.3877C9.00027 17.6581 9.12128 17.8629 9.24707 17.9736C9.38212 18.0923 9.58091 18.2009 9.81738 18.2979C10.0526 18.3943 10.3196 18.4771 10.5879 18.5459C11.1247 18.6836 11.6594 18.7645 11.9375 18.7939L11.9414 18.7949L12.9072 18.9229C13.452 18.9867 14.1362 19.0527 14.709 19.0635L16.6748 19.0996H16.6777C16.9776 19.1112 17.2594 18.9887 17.4521 18.7637C17.6452 18.5382 17.7232 18.2416 17.666 17.9502L17.5371 17.291C17.4533 16.8636 17.6448 16.5822 17.7871 16.417C17.8044 16.3969 17.8237 16.3796 17.8438 16.3643V16.3633L18.0703 16.1914C18.0935 16.1738 18.1017 16.1413 18.0889 16.1152L18.0723 16.082C17.8325 16.1254 17.5938 16.1494 17.3613 16.1494C17.162 16.1494 16.9672 16.134 16.7803 16.1016C16.5785 16.0664 16.4426 15.8741 16.4775 15.6719C16.5084 15.4947 16.6602 15.3702 16.832 15.3643L16.9072 15.3691L17.1338 15.3975C17.3851 15.4175 17.7189 15.4076 18.1152 15.3154L18.3438 15.1367C18.3469 15.1329 18.354 15.1233 18.3564 15.1055C18.3577 15.0959 18.357 15.0859 18.3555 15.0762L18.3467 15.0479L18.0693 14.5059C17.9557 14.2839 17.9594 14.0211 18.0791 13.8027C18.199 13.5842 18.4196 13.4391 18.668 13.416L19.3389 13.3535C19.4266 13.3225 19.4982 13.2548 19.5332 13.168C19.5606 13.0993 19.5641 13.0244 19.543 12.9541L19.5137 12.8857C19.388 12.6629 19.1646 12.3417 18.9229 11.9951C18.508 11.4007 18.1521 10.8765 17.9209 10.4307C17.6927 9.99073 17.57 9.59972 17.6621 9.2832C17.7374 9.02473 17.7503 8.8271 17.7246 8.62891C17.6983 8.4265 17.632 8.22033 17.541 7.94043C17.5296 7.90549 17.5164 7.84731 17.5176 7.80078V7.7627C17.5175 7.73834 17.517 7.70266 17.5156 7.65723C17.5128 7.5663 17.5067 7.43534 17.4922 7.27246C17.4631 6.94617 17.4019 6.49209 17.2725 5.97559C17.0133 4.94166 16.4833 3.66273 15.4033 2.64941C13.9011 1.24023 11.6817 0.645428 8.78906 0.901367C5.73371 1.17183 3.53878 2.14675 2.24316 3.78027C0.418529 6.08118 0.849112 9.13066 0.994141 10.1504C1.00895 10.2536 1.02071 10.3403 1.02832 10.4062C1.16131 11.5837 1.75852 12.978 2.76562 14.4375C3.05976 14.8639 3.27774 15.2189 3.45117 15.5098C4.00679 16.4401 4.03449 17.5911 3.52148 18.5137V18.5146C3.51799 18.5208 3.50215 18.5481 3.49609 18.5576L3.49512 18.5596L1.74414 21.1426C1.62917 21.3125 1.39766 21.3576 1.22754 21.2422C1.05775 21.127 1.01391 20.8954 1.12891 20.7256L2.875 18.1504C3.25555 17.4635 3.23481 16.5965 2.81348 15.8906C2.72946 15.7499 2.63479 15.5945 2.52637 15.4229L2.1543 14.8594C1.08608 13.311 0.438363 11.7996 0.290039 10.4893C0.283638 10.431 0.27265 10.3534 0.258789 10.2559C0.106193 9.18531 -0.36809 5.8769 1.66113 3.31836C3.09998 1.5045 5.48347 0.447954 8.72363 0.161133Z" fill="#A88EC3" stroke="#A88EC3" stroke-width="0.2"/>
<path d="M14.6602 8.03516C15.2164 7.45464 16.2677 7.43155 17.4717 7.97461C17.6084 8.03623 17.6691 8.19733 17.6074 8.33398C17.5623 8.43448 17.4631 8.49414 17.3594 8.49414C17.3224 8.49407 17.2842 8.48596 17.248 8.46973C16.4874 8.12652 15.5116 7.9307 15.0527 8.41016C14.9491 8.51856 14.7769 8.52209 14.6689 8.41895C14.5606 8.31535 14.5567 8.14349 14.6602 8.03516Z" fill="#A88EC3"/>
<path d="M14.6602 8.03516C15.2164 7.45464 16.2677 7.43155 17.4717 7.97461C17.6084 8.03623 17.6691 8.19733 17.6074 8.33398C17.5623 8.43448 17.4631 8.49414 17.3594 8.49414C17.3224 8.49407 17.2842 8.48596 17.248 8.46973C16.4874 8.12652 15.5116 7.9307 15.0527 8.41016C14.9491 8.51856 14.7769 8.52209 14.6689 8.41895C14.5606 8.31535 14.5567 8.14349 14.6602 8.03516Z" stroke="#A88EC3"/>
<path d="M15.0137 9.68066C16.0435 8.76747 17.2494 9.00249 17.2998 9.0127C17.4466 9.04301 17.541 9.18716 17.5107 9.33398C17.4804 9.48066 17.3362 9.57514 17.1904 9.54492C17.1796 9.54276 17.1258 9.53397 17.043 9.52734C17.0701 9.61178 17.0859 9.7068 17.0859 9.81055C17.0859 9.94741 17.0602 10.0711 17.0146 10.1719C17.0365 10.1734 17.0566 10.1756 17.0791 10.1768C17.2289 10.1846 17.3436 10.3122 17.3359 10.4619C17.3282 10.6068 17.2089 10.7197 17.0654 10.7197C17.0607 10.7197 17.0556 10.719 17.0508 10.7188C16.073 10.6678 15.5795 10.3344 15.3506 10.1006C15.3031 10.135 15.249 10.1553 15.1934 10.1553C15.1187 10.1553 15.0438 10.1248 14.9902 10.0645C14.8908 9.95229 14.9012 9.7801 15.0137 9.68066ZM16.2832 9.59766C16.1329 9.63753 15.9731 9.69749 15.8115 9.7832C15.9085 9.86238 16.0605 9.9575 16.2861 10.0352C16.2696 9.96593 16.2588 9.89069 16.2588 9.81055C16.2588 9.7347 16.2683 9.66383 16.2832 9.59766Z" fill="#A88EC3"/>
<path d="M15.0137 9.68066C16.0435 8.76747 17.2494 9.00249 17.2998 9.0127C17.4466 9.04301 17.541 9.18716 17.5107 9.33398C17.4804 9.48066 17.3362 9.57514 17.1904 9.54492C17.1796 9.54276 17.1258 9.53397 17.043 9.52734C17.0701 9.61178 17.0859 9.7068 17.0859 9.81055C17.0859 9.94741 17.0602 10.0711 17.0146 10.1719C17.0365 10.1734 17.0566 10.1756 17.0791 10.1768C17.2289 10.1846 17.3436 10.3122 17.3359 10.4619C17.3282 10.6068 17.2089 10.7197 17.0654 10.7197C17.0607 10.7197 17.0556 10.719 17.0508 10.7188C16.073 10.6678 15.5795 10.3344 15.3506 10.1006C15.3031 10.135 15.249 10.1553 15.1934 10.1553C15.1187 10.1553 15.0438 10.1248 14.9902 10.0645C14.8908 9.95229 14.9012 9.7801 15.0137 9.68066ZM16.2832 9.59766C16.1329 9.63753 15.9731 9.69749 15.8115 9.7832C15.9085 9.86238 16.0605 9.9575 16.2861 10.0352C16.2696 9.96593 16.2588 9.89069 16.2588 9.81055C16.2588 9.7347 16.2683 9.66383 16.2832 9.59766Z" stroke="#A88EC3"/>
<path d="M6.32031 7.71191C7.01633 7.64534 7.69185 7.93302 7.89355 8.38086C7.95502 8.51758 7.89442 8.67862 7.75781 8.74023C7.62073 8.80162 7.45995 8.74007 7.39844 8.60352C7.3169 8.42332 6.88994 8.20266 6.37207 8.25195C6.00669 8.28709 5.35971 8.48789 5.13672 9.43555C4.73152 11.1589 6.10813 11.6452 6.16699 11.665C6.23583 11.6883 6.29341 11.7383 6.3252 11.8037C6.35699 11.8692 6.3613 11.9451 6.33691 12.0137C6.15698 12.5187 6.41752 12.9542 6.73535 13.1455C7.09225 13.3601 7.49252 13.284 7.80566 12.9414C7.90668 12.8306 8.07916 12.8236 8.18945 12.9248C8.30002 13.026 8.30805 13.198 8.20703 13.3086C7.90623 13.6374 7.52782 13.8085 7.14648 13.8086C6.91182 13.8086 6.67516 13.7436 6.45508 13.6113C5.9149 13.2863 5.64975 12.6787 5.75977 12.0742C5.26534 11.8155 4.20124 11.0417 4.6084 9.31055C4.92033 7.9858 5.90963 7.75129 6.32031 7.71191Z" fill="#A88EC3"/>
<path d="M6.32031 7.71191C7.01633 7.64534 7.69185 7.93302 7.89355 8.38086C7.95502 8.51758 7.89442 8.67862 7.75781 8.74023C7.62073 8.80162 7.45995 8.74007 7.39844 8.60352C7.3169 8.42332 6.88994 8.20266 6.37207 8.25195C6.00669 8.28709 5.35971 8.48789 5.13672 9.43555C4.73152 11.1589 6.10813 11.6452 6.16699 11.665C6.23583 11.6883 6.29341 11.7383 6.3252 11.8037C6.35699 11.8692 6.3613 11.9451 6.33691 12.0137C6.15698 12.5187 6.41752 12.9542 6.73535 13.1455C7.09225 13.3601 7.49252 13.284 7.80566 12.9414C7.90668 12.8306 8.07916 12.8236 8.18945 12.9248C8.30002 13.026 8.30805 13.198 8.20703 13.3086C7.90623 13.6374 7.52782 13.8085 7.14648 13.8086C6.91182 13.8086 6.67516 13.7436 6.45508 13.6113C5.9149 13.2863 5.64975 12.6787 5.75977 12.0742C5.26534 11.8155 4.20124 11.0417 4.6084 9.31055C4.92033 7.9858 5.90963 7.75129 6.32031 7.71191Z" stroke="#A88EC3"/>
<path d="M7.36426 10.1191C7.50476 9.98297 7.72689 9.95824 7.89551 10.0732L7.89453 10.0742C8.08709 10.2052 8.13767 10.4668 8.00684 10.6592C7.94492 10.7502 7.92182 10.8512 7.94238 10.9805C7.97878 11.21 7.82252 11.425 7.59277 11.4619C7.56964 11.4657 7.54664 11.4678 7.52539 11.4678C7.32204 11.4676 7.14349 11.3207 7.11035 11.1133C7.05687 10.7793 7.12476 10.4564 7.30957 10.1846L7.36426 10.1191Z" fill="#A88EC3" stroke="#A88EC3" stroke-width="0.3"/>
</svg>
