<svg width="21" height="19" viewBox="0 0 21 19" fill="none" xmlns="http://www.w3.org/2000/svg">
<path d="M8.5818 17.5252C6.11804 18.5764 3.38723 17.1939 3.36019 17.1798C2.93508 16.968 2.63156 17.6518 3.05217 17.8797C3.14007 17.9251 4.66228 18.7003 6.53404 18.7003C7.27169 18.7003 8.06375 18.5798 8.84343 18.247C9.02693 18.1686 9.11728 17.9436 9.04507 17.7441C8.97286 17.5453 8.76651 17.448 8.5818 17.5252Z" fill="#A88EC3" stroke="#A88EC3" stroke-width="0.3"/>
<path d="M19.852 14.9179C17.6041 14.5429 15.2099 13.3178 14.6107 12.9974C14.2271 11.1981 14.4926 8.36098 14.6839 7.09346C16.2196 5.2491 17.4107 2.80607 17.4107 0.593451C17.4005 0.0896307 16.7072 0.0777647 16.6962 0.59347C16.6962 4.65861 12.4392 9.23841 10.1706 9.23841C7.19492 8.9899 3.4988 3.95557 3.56409 0.538209C3.56409 0.323826 3.40414 0.150391 3.20687 0.150391C3.00959 0.150391 2.84964 0.323829 2.84964 0.538162C2.84964 2.77055 4.06146 5.2362 5.6212 7.09339C5.81335 8.38183 6.0744 11.206 5.69346 12.9981C5.09269 13.3192 2.69999 14.5431 0.453387 14.9179C0.258378 14.9505 0.124595 15.1485 0.154594 15.3602C0.181629 15.5518 0.333902 15.6889 0.507109 15.6889C2.3381 15.4081 4.24917 14.5668 5.30809 14.0528C5.14566 14.2788 4.96477 14.5328 5.20581 14.785C5.3509 14.9294 5.57691 14.9191 5.71057 14.7611C6.96674 13.0557 6.60365 9.81155 6.45755 7.99793C7.70502 9.21986 9.06554 10.014 10.1706 10.014C11.2644 10.014 12.6112 9.22322 13.8458 8.00668C13.6689 9.61491 13.3637 14.1734 14.8583 14.8869C15.1552 14.8965 15.3357 14.4734 15.1215 14.237C15.0762 14.1834 15.0372 14.1168 14.997 14.0527C16.0496 14.5668 17.9156 15.3795 19.7435 15.6844C20.1986 15.7537 20.3229 15.0076 19.852 14.9179Z" fill="#A88EC3" stroke="#A88EC3" stroke-width="0.3"/>
<path d="M16.9458 17.1798C16.9186 17.1942 14.1881 18.5772 11.7242 17.5252C11.2852 17.3476 11.0278 18.052 11.4625 18.247C12.2424 18.5798 13.0343 18.7002 13.7719 18.7002C15.6435 18.7002 17.1659 17.9251 17.2538 17.8796C17.6721 17.6529 17.3739 16.9678 16.9458 17.1798Z" fill="#A88EC3" stroke="#A88EC3" stroke-width="0.3"/>
<path d="M8.32915 5.78897C9.53317 6.48095 10.7115 6.604 11.8007 5.76133C11.9609 5.63636 11.9973 5.394 11.882 5.22018C11.7666 5.04637 11.5436 5.00661 11.3835 5.13195C10.6188 5.72876 9.72944 5.72005 8.6651 5.10431C8.24735 4.87378 7.9182 5.54113 8.32915 5.78897Z" fill="#A88EC3" stroke="#A88EC3" stroke-width="0.3"/>
</svg>
