<svg width="53" height="48" viewBox="0 0 53 48" fill="none" xmlns="http://www.w3.org/2000/svg">
<path d="M13.29 3.41992C13.5873 3.3216 13.9074 3.48254 14.0059 3.7793C14.4326 5.06472 15.0483 5.89533 15.8223 6.27539C16.287 6.50349 16.7263 6.54466 17.2568 6.59375C17.8761 6.65108 18.5907 6.71688 19.4727 7.10742C20.1303 7.3987 20.7269 7.82577 21.25 8.37793L21.4697 8.62207L21.4834 8.6416C21.496 8.6576 21.5068 8.67438 21.5146 8.68652C21.5217 8.69749 21.5327 8.71429 21.542 8.73242L21.5645 8.78418V8.78516L21.583 8.83594L21.5938 8.8877C21.5969 8.90452 21.6009 8.92523 21.6025 8.94727L21.6016 8.94434C21.6021 8.94707 21.604 8.95562 21.6045 8.96582V8.97266C21.6053 8.99373 21.6422 9.9406 21.6787 10.8838C21.697 11.3568 21.7158 11.8288 21.7295 12.1826C21.7363 12.3596 21.7421 12.5072 21.7461 12.6104C21.7481 12.6616 21.7489 12.7019 21.75 12.7295C21.7505 12.7433 21.7517 12.7546 21.752 12.7617V12.7725C21.8053 14.1491 21.3194 15.4646 20.3838 16.4756C19.448 17.4867 18.1729 18.0736 16.7959 18.127L16.0898 18.1543C16.0223 18.1569 15.9546 18.1582 15.8877 18.1582C13.1339 18.1585 10.842 15.974 10.7344 13.1992L10.584 9.29883C10.5095 7.37677 11.4918 5.61051 13.1221 4.6543C13.0549 4.4881 12.9904 4.31556 12.9307 4.13574C12.8323 3.83905 12.9934 3.51844 13.29 3.41992ZM13.6299 5.66992C12.3974 6.42477 11.6588 7.78059 11.7158 9.25488L11.8662 13.1553C11.9523 15.3734 13.8296 17.108 16.0459 17.0225L16.752 16.9951C17.8269 16.9535 18.8212 16.4961 19.5518 15.707C20.2823 14.9177 20.6617 13.8912 20.6201 12.8164L20.4805 9.21777C20.0457 8.74432 19.554 8.3819 19.0137 8.14258C18.3034 7.82811 17.7247 7.77471 17.1523 7.72168C16.5845 7.66911 15.9792 7.61397 15.3232 7.29199C14.6502 6.9615 14.0861 6.41442 13.6299 5.66992Z" fill="#A88EC3" stroke="#A88EC3" stroke-width="0.2"/>
<path d="M16.7676 0.102539C17.7437 0.0798999 19.6565 0.261116 21.4209 1.72266C23.8424 3.72876 24.1767 6.65561 24.2217 7.50293V7.53223L24.2373 15.7734C24.2379 16.0862 23.9846 16.3403 23.6719 16.3408H23.6709C23.3587 16.3407 23.105 16.0877 23.1045 15.7754L23.0898 7.55176L23.0596 7.19336C22.947 6.1879 22.4946 4.08286 20.6982 2.59473C19.2166 1.36734 17.6084 1.21625 16.7812 1.23438H16.7793L15.3066 1.23633C11.8299 1.24592 9.00379 4.08874 9.00879 7.57422L9.02539 15.7168C9.02601 16.0295 8.7726 16.2835 8.45996 16.2842H8.45898C8.14673 16.2842 7.89321 16.0311 7.89258 15.7188L7.87695 7.57617L7.88574 7.19336C8.07954 3.26091 11.3302 0.114613 15.3037 0.103516H15.3047L16.7656 0.102539L16.7676 0.101562V0.102539Z" fill="#A88EC3" stroke="#A88EC3" stroke-width="0.2"/>
<path d="M29.0586 37.5234C29.8678 37.391 30.6897 37.6198 31.3145 38.1504C31.9391 38.6809 32.2978 39.4549 32.2979 40.2744V44.626C32.2976 46.1629 31.0469 47.4131 29.5098 47.4131H10.709L10.6875 47.4141H2.8916C1.35425 47.4141 0.103698 46.1641 0.103516 44.627V40.2754C0.103516 39.4556 0.461619 38.6808 1.08594 38.1504C1.71043 37.62 2.53274 37.391 3.3418 37.5234L16.2002 39.6318L29.0586 37.5234ZM3.1582 38.6416C2.67789 38.5633 2.19012 38.6988 1.81934 39.0137C1.44871 39.3286 1.23536 39.7883 1.23535 40.2754V44.627C1.23553 45.5394 1.97893 46.2822 2.8916 46.2822H8.45117C8.10688 45.8188 7.90047 45.2465 7.90039 44.626V43.3613C7.90039 41.9897 8.88362 40.8323 10.2373 40.6104L12.7021 40.2061L3.1582 38.6416ZM29.5107 38.6191C29.4215 38.6192 29.3318 38.6269 29.2422 38.6416L10.4209 41.7275C9.61677 41.8594 9.0332 42.5466 9.0332 43.3613V44.626C9.03339 45.5383 9.77598 46.2803 10.6885 46.2803H29.5098C30.4223 46.2803 31.1649 45.5383 31.165 44.626V40.2744C31.165 39.7878 30.9529 39.3277 30.582 39.0127C30.2803 38.7564 29.9003 38.6191 29.5107 38.6191Z" fill="#A88EC3" stroke="#A88EC3" stroke-width="0.2"/>
<path d="M20.1768 19.4629C22.9561 19.4629 25.2175 21.7244 25.2178 24.5049V35.9941C25.2176 36.3067 24.964 36.5605 24.6514 36.5605C24.3387 36.5605 24.0851 36.3067 24.085 35.9941V24.5049C24.0847 22.3489 22.3313 20.5947 20.1768 20.5947H12.2637C10.1075 20.5948 8.35279 22.349 8.35254 24.5049V35.9941C8.35239 36.3067 8.09878 36.5605 7.78613 36.5605C7.4737 36.5603 7.22088 36.3066 7.2207 35.9941V24.5049C7.22095 21.7244 9.48281 19.463 12.2637 19.4629H20.1768Z" fill="#A88EC3" stroke="#A88EC3" stroke-width="0.2"/>
<mask id="path-5-outside-1_29_1886" maskUnits="userSpaceOnUse" x="24.8672" y="10.71" width="28" height="28" fill="black">
<rect fill="white" x="24.8672" y="10.71" width="28" height="28"/>
<path d="M52.3529 30.8014C51.9259 30.5826 51.2622 30.2519 50.4328 29.9076L50.3113 29.8572C48.5731 29.1351 47.0678 28.5113 45.1405 28.3821C45.5527 28.1086 45.9464 27.8165 46.3173 27.5056C48.2635 25.8698 49.6178 23.8021 50.8126 21.9777C51.3903 21.0955 51.819 20.35 52.0911 19.866C52.1862 19.6969 52.1666 19.4866 52.0419 19.3379C51.9173 19.1892 51.7134 19.1334 51.5305 19.1975C50.7242 19.48 49.8993 19.808 49.0786 20.1724L48.9403 20.2338C47.0204 21.0859 45.0352 21.9671 43.0524 23.6568C42.6057 24.0374 42.176 24.4455 41.7658 24.8777C41.9004 24.0322 41.9795 23.1838 41.9985 22.3403C42.0579 19.6975 41.5311 17.5925 40.9734 15.364L40.9681 15.343C40.6883 14.225 40.3605 13.1091 39.9937 12.0265C39.9304 11.8399 39.7565 11.7131 39.5594 11.71C39.3604 11.7086 39.1846 11.828 39.1154 12.0125C38.7104 13.0936 38.3464 14.21 38.0337 15.3309C37.4823 17.3068 36.8573 19.5464 36.8181 22.3665C36.8069 23.1788 36.8463 23.9995 36.933 24.8206C36.5317 24.3657 36.1093 23.9348 35.6682 23.532C33.7579 21.7881 31.8078 20.8415 29.9219 19.9262L29.7602 19.8477C28.9418 19.4502 28.1288 19.0947 27.344 18.7912C27.1635 18.7214 26.9586 18.7703 26.8292 18.9141C26.6998 19.0579 26.6726 19.2668 26.761 19.4389C27.1234 20.1449 27.5292 20.8699 27.9678 21.5945C29.1006 23.4579 30.3847 25.57 32.2753 27.2695C32.6383 27.5946 33.0236 27.9007 33.427 28.1883C31.4871 28.2545 29.971 28.8227 28.2203 29.4803L28.0836 29.5316C27.4296 29.7771 26.7916 30.0487 26.1332 30.3617C25.9634 30.4425 25.8587 30.6174 25.8677 30.8052C25.8768 30.993 25.9978 31.157 26.1746 31.2211C26.5816 31.3686 27.2411 31.5918 28.0725 31.8181L28.2442 31.8648C29.9692 32.3345 31.3811 32.719 32.9614 32.719C33.211 32.719 33.4649 32.7094 33.7248 32.689C34.0454 32.6639 34.367 32.6231 34.6885 32.567C34.042 33.4088 33.6441 34.2917 33.1976 35.2837L33.1196 35.4568C32.9032 35.9366 32.7112 36.4192 32.5487 36.8913C32.4876 37.0686 32.5389 37.2653 32.6786 37.3904C32.7659 37.4685 32.8772 37.5093 32.9897 37.5093C33.0573 37.5093 33.1254 37.4945 33.189 37.4644C33.6232 37.259 34.0534 37.0377 34.4676 36.8068C35.7512 36.0916 36.8597 35.4739 37.8373 34.3533C38.0905 34.063 38.3243 33.7522 38.5323 33.4295C38.6718 33.2131 38.6095 32.9245 38.393 32.7851C38.1766 32.6455 37.8881 32.7079 37.7485 32.9243C37.5647 33.2094 37.3581 33.4839 37.1345 33.7403C36.2637 34.7385 35.2708 35.2918 34.0136 35.9924C33.9649 36.0195 33.9159 36.0465 33.8667 36.0734C33.8996 35.9974 33.9339 35.9196 33.9698 35.8401L34.0481 35.6664C34.5888 34.4651 35.016 33.5162 35.8799 32.6058C36.0583 32.4177 36.2484 32.2382 36.4448 32.0721C36.446 32.0711 36.4468 32.0698 36.448 32.0687C36.4629 32.0559 36.4755 32.0413 36.4885 32.0268C36.4963 32.0182 36.5052 32.0104 36.5122 32.0013C36.5214 31.9895 36.5283 31.9762 36.5363 31.9636C36.5445 31.9505 36.5538 31.9381 36.5607 31.9244C36.566 31.9138 36.5691 31.9022 36.5736 31.8912C36.5803 31.8746 36.5879 31.8584 36.5927 31.8413C36.5969 31.8264 36.5983 31.8109 36.6009 31.7956C36.6034 31.7815 36.6071 31.7677 36.6083 31.7535C36.6094 31.7393 36.6079 31.7248 36.6077 31.7104C36.6076 31.6945 36.6084 31.6786 36.6066 31.6627C36.6053 31.6516 36.6018 31.6406 36.5997 31.6295C36.596 31.6102 36.5928 31.5908 36.5866 31.5719C36.5861 31.5704 36.5861 31.5689 36.5856 31.5674C36.5819 31.5564 36.576 31.547 36.5716 31.5365C36.5646 31.52 36.5583 31.5033 36.5494 31.4875C36.5401 31.471 36.5288 31.4564 36.5178 31.4415C36.5114 31.4328 36.5067 31.4234 36.4996 31.415C36.4986 31.4139 36.4974 31.4131 36.4965 31.412C36.483 31.3964 36.4677 31.383 36.4525 31.3695C36.4445 31.3624 36.4374 31.3542 36.4291 31.3478C36.4153 31.3371 36.4001 31.3289 36.3853 31.3199C36.3742 31.3131 36.3638 31.3051 36.3523 31.2994C36.3351 31.2907 36.3167 31.2849 36.2986 31.2784C36.2888 31.275 36.2795 31.2701 36.2695 31.2673C36.2456 31.2606 36.2208 31.2569 36.1958 31.254C36.1912 31.2535 36.1866 31.252 36.1819 31.2516C36.1629 31.25 36.1436 31.2515 36.1243 31.2523C36.1131 31.2528 36.102 31.2519 36.0909 31.2532C36.0782 31.2546 36.0655 31.2585 36.0527 31.2611C36.0348 31.2647 36.0169 31.2676 35.9994 31.2733C35.9979 31.2738 35.9963 31.2739 35.9949 31.2744C35.2198 31.5352 34.4315 31.6984 33.6519 31.7595C31.9078 31.8962 30.474 31.5055 28.4892 30.9651L28.3174 30.9184C28.0682 30.8506 27.8352 30.7831 27.6207 30.7181C27.8833 30.6083 28.146 30.5043 28.4113 30.4047L28.5482 30.3533C30.244 29.7163 31.7084 29.1662 33.5297 29.117C34.0661 29.1025 34.604 29.13 35.1304 29.1988C35.1445 29.2007 35.1582 29.1995 35.1722 29.2C35.1784 29.2003 35.1844 29.2014 35.1908 29.2014C35.193 29.2014 35.195 29.2008 35.1972 29.2007C35.2233 29.2004 35.2487 29.1976 35.2738 29.193C35.2793 29.192 35.285 29.1913 35.2905 29.1901C35.3147 29.1847 35.338 29.1772 35.3608 29.1682C35.3664 29.1659 35.372 29.1641 35.3775 29.1617C35.3998 29.1519 35.4207 29.1401 35.4412 29.127C35.446 29.1239 35.4509 29.1212 35.4556 29.1179C35.4758 29.1039 35.4944 29.0881 35.5121 29.0711C35.5159 29.0675 35.5199 29.0642 35.5235 29.0605C35.5405 29.0431 35.5556 29.0242 35.5698 29.0042C35.5732 28.9995 35.5768 28.995 35.5801 28.9901C35.5924 28.9713 35.6027 28.9513 35.6123 28.9306C35.6159 28.9229 35.6198 28.9154 35.623 28.9074C35.6301 28.8894 35.6354 28.8706 35.6403 28.8515C35.6435 28.8392 35.6468 28.8272 35.649 28.8146C35.65 28.8085 35.6523 28.8031 35.6531 28.7969C35.6546 28.7857 35.6535 28.7748 35.6541 28.7636C35.6548 28.7535 35.6571 28.744 35.6571 28.7338C35.6571 28.7265 35.656 28.7195 35.6557 28.7123C35.6553 28.7059 35.6549 28.6997 35.6544 28.6934C35.6407 28.5372 35.5501 28.397 35.4102 28.3224C34.4899 27.8318 33.6445 27.2439 32.8981 26.5756C31.1103 24.9684 29.8641 22.9186 28.7651 21.111C28.5723 20.7924 28.386 20.4736 28.207 20.1566C28.5859 20.3229 28.9686 20.4998 29.3529 20.6865L29.5147 20.7651C31.4247 21.6922 33.2289 22.5679 35.0393 24.2207C35.8541 24.9646 36.6029 25.8094 37.2646 26.7316C37.2705 26.7398 37.2779 26.7461 37.2842 26.7539C37.2958 26.768 37.3073 26.7823 37.3204 26.7949C37.3308 26.805 37.3421 26.8134 37.3532 26.8222C37.3655 26.8321 37.3776 26.8422 37.3909 26.8508C37.4032 26.8587 37.4161 26.8651 37.4291 26.8718C37.4429 26.879 37.4566 26.8863 37.4711 26.8921C37.4841 26.8973 37.4973 26.9009 37.5106 26.9048C37.5262 26.9095 37.5416 26.9143 37.5577 26.9173C37.5717 26.9199 37.5859 26.9208 37.6001 26.9222C37.6156 26.9236 37.6308 26.9254 37.6466 26.9253C37.6642 26.9252 37.6816 26.9228 37.6991 26.9207C37.7094 26.9195 37.7195 26.92 37.7299 26.918C37.7324 26.9176 37.7344 26.9164 37.7369 26.916C37.7545 26.9124 37.7717 26.9063 37.789 26.9006C37.8015 26.8964 37.8145 26.8932 37.8266 26.8881C37.839 26.8827 37.8508 26.8753 37.8629 26.8688C37.8785 26.8604 37.8943 26.8524 37.9087 26.8424C37.9108 26.841 37.9132 26.8402 37.9152 26.8387C37.9238 26.8325 37.9305 26.8248 37.9385 26.8181C37.9522 26.8069 37.9659 26.7959 37.9781 26.7832C37.9888 26.7723 37.9976 26.7603 38.007 26.7486C38.0163 26.7369 38.0257 26.7255 38.0339 26.7131C38.0424 26.6999 38.0492 26.6861 38.0563 26.6722C38.063 26.6593 38.0699 26.6466 38.0754 26.633C38.0809 26.619 38.0848 26.6048 38.0891 26.5904C38.0934 26.5758 38.0978 26.5614 38.1007 26.5464C38.1035 26.5315 38.1045 26.5165 38.1059 26.5013C38.1072 26.4866 38.109 26.472 38.1089 26.457C38.1088 26.4395 38.1065 26.4222 38.1044 26.4047C38.1031 26.3942 38.1037 26.3839 38.1017 26.3734C37.8504 25.0429 37.7324 23.6992 37.7506 22.3794C37.7881 19.6804 38.3696 17.5967 38.932 15.5815C39.1141 14.9288 39.3139 14.2777 39.5295 13.6345C39.7227 14.2745 39.9013 14.9215 40.0635 15.5694L40.0687 15.5904C40.6343 17.8503 41.1228 19.8021 41.0661 22.3194C41.0353 23.6903 40.8419 25.0761 40.4914 26.4385C40.443 26.6158 40.5022 26.8125 40.6571 26.9313C40.7187 26.9785 40.7887 27.0059 40.8602 27.0185C40.8708 27.0204 40.8814 27.0224 40.8919 27.0235C40.9053 27.0249 40.9186 27.0258 40.932 27.026C40.9353 27.0261 40.9386 27.0266 40.9419 27.0266C40.9487 27.0266 40.9553 27.0253 40.962 27.025C40.9797 27.0242 40.9973 27.0234 41.0148 27.0206C41.0245 27.019 41.0338 27.0161 41.0433 27.014C41.0743 27.007 41.1043 26.9969 41.1334 26.9836C41.1433 26.9792 41.1535 26.9756 41.163 26.9705C41.1749 26.964 41.1859 26.9559 41.1972 26.9484C41.2098 26.9401 41.2223 26.9319 41.2341 26.9224C41.2433 26.9149 41.2519 26.9067 41.2606 26.8984C41.2742 26.8857 41.2869 26.8721 41.2989 26.8577C41.3027 26.8531 41.3073 26.8497 41.3109 26.845C42.0141 25.9279 42.8036 25.094 43.6573 24.3665C45.5372 22.7645 47.4596 21.9112 49.3187 21.086L49.4572 21.0246C49.8454 20.8523 50.2342 20.6884 50.6214 20.5339C50.4471 20.8203 50.2507 21.1337 50.0324 21.4669C48.8728 23.2375 47.5585 25.2443 45.7178 26.7914C44.9558 27.4301 44.0925 27.9884 43.152 28.4507C43.061 28.4954 42.9917 28.5607 42.9462 28.6507C42.9454 28.6521 42.9445 28.6535 42.9437 28.6549C42.9434 28.6555 42.943 28.656 42.9427 28.6566C42.9407 28.6603 42.9374 28.6668 42.9356 28.6706C42.9311 28.6799 42.929 28.6896 42.9252 28.699C42.9184 28.7154 42.9117 28.7316 42.9068 28.7488C42.9025 28.764 42.9002 28.7793 42.8975 28.7947C42.895 28.8087 42.8921 28.8224 42.891 28.8367C42.8891 28.8586 42.8898 28.8801 42.8909 28.9018C42.8913 28.9082 42.8902 28.9144 42.8909 28.9209C42.8911 28.9226 42.8917 28.9241 42.8919 28.9258C42.908 29.0811 42.9991 29.2253 43.1488 29.2981C43.2155 29.3306 43.2861 29.3461 43.3554 29.346C43.3885 29.346 43.4209 29.3412 43.4529 29.3344C43.9655 29.2857 44.4879 29.2759 45.0064 29.3069C46.8151 29.4146 48.2695 30.0187 49.9535 30.7182L50.0752 30.7688C50.3549 30.8849 50.6152 30.9995 50.8532 31.1085C50.6202 31.1708 50.3864 31.2295 50.1528 31.2843L49.9287 31.3371C47.9226 31.8094 46.473 32.1506 44.8007 31.9465C43.989 31.8473 43.1765 31.6297 42.3855 31.2996C42.3806 31.2976 42.3756 31.297 42.3707 31.2952C42.3545 31.289 42.3381 31.2844 42.3214 31.2802C42.3078 31.2767 42.2943 31.273 42.2807 31.2708C42.2653 31.2683 42.25 31.2674 42.2345 31.2665C42.2196 31.2655 42.2048 31.2645 42.19 31.265C42.175 31.2655 42.1603 31.2676 42.1454 31.2696C42.1307 31.2715 42.1162 31.2732 42.1019 31.2765C42.0868 31.2799 42.0722 31.285 42.0575 31.29C42.044 31.2946 42.0305 31.2988 42.0175 31.3046C42.0034 31.3108 41.9902 31.3185 41.9767 31.3261C41.9636 31.3336 41.9506 31.3409 41.9382 31.3496C41.9267 31.3577 41.916 31.367 41.9051 31.3762C41.8921 31.3873 41.8794 31.3985 41.8677 31.411C41.864 31.4148 41.8598 31.4176 41.8563 31.4215C41.8503 31.4283 41.8463 31.4361 41.8407 31.4431C41.8305 31.4561 41.8207 31.4692 41.8118 31.4834C41.8029 31.4976 41.7955 31.5122 41.7883 31.527C41.7844 31.5351 41.7792 31.542 41.7757 31.5504C41.7737 31.5552 41.7731 31.5602 41.7712 31.5651C41.7651 31.5813 41.7605 31.5977 41.7562 31.6144C41.7527 31.628 41.7491 31.6416 41.7468 31.6553C41.7444 31.6705 41.7434 31.6856 41.7425 31.7009C41.7415 31.7161 41.7405 31.7311 41.741 31.7462C41.7415 31.7607 41.7435 31.7749 41.7454 31.7894C41.7474 31.8045 41.7492 31.8196 41.7526 31.8344C41.7559 31.849 41.7608 31.863 41.7655 31.8771C41.7703 31.8912 41.7747 31.9052 41.7808 31.9187C41.7868 31.9324 41.7943 31.9453 41.8017 31.9584C41.8093 31.9718 41.8168 31.9851 41.8257 31.9977C41.8337 32.0092 41.843 32.0199 41.8522 32.0307C41.8632 32.0436 41.8744 32.0563 41.8868 32.068C41.8907 32.0717 41.8935 32.076 41.8975 32.0796C42.1218 32.2774 42.3366 32.4921 42.5358 32.7178C43.3826 33.6771 43.798 34.6904 44.279 35.8636L44.3404 36.0134C44.3737 36.0945 44.4056 36.1742 44.4361 36.2523C44.3869 36.2234 44.3365 36.1935 44.2848 36.1626C43.0584 35.4281 42.0897 34.848 41.2445 33.8105C41.0195 33.534 40.8147 33.2395 40.6359 32.9353C40.5056 32.7132 40.2197 32.6391 39.9977 32.7694C39.7757 32.8998 39.7014 33.1856 39.8319 33.4076C40.0345 33.7525 40.2665 34.0861 40.5214 34.3992C41.47 35.5638 42.5524 36.212 43.8057 36.9626C44.3749 37.3033 44.8059 37.5319 45.0671 37.6637C45.1336 37.6972 45.2055 37.7136 45.277 37.7136C45.3856 37.7136 45.4933 37.6757 45.5794 37.6023C45.7223 37.4806 45.7783 37.2852 45.7215 37.1063C45.5938 36.704 45.4324 36.2174 45.2031 35.6592L45.1419 35.5099C44.7407 34.5314 44.3574 33.5972 43.7135 32.7013C44.0373 32.775 44.3623 32.8323 44.6876 32.8721C45.0729 32.9191 45.4441 32.9407 45.8096 32.9407C47.1869 32.9407 48.4827 32.6356 50.1424 32.2448L50.3663 32.1921C51.0094 32.041 51.6542 31.862 52.2828 31.6603C52.4625 31.6027 52.5897 31.4424 52.6051 31.2543C52.6204 31.0662 52.5209 30.8875 52.3529 30.8014Z"/>
</mask>
<path d="M52.3529 30.8014C51.9259 30.5826 51.2622 30.2519 50.4328 29.9076L50.3113 29.8572C48.5731 29.1351 47.0678 28.5113 45.1405 28.3821C45.5527 28.1086 45.9464 27.8165 46.3173 27.5056C48.2635 25.8698 49.6178 23.8021 50.8126 21.9777C51.3903 21.0955 51.819 20.35 52.0911 19.866C52.1862 19.6969 52.1666 19.4866 52.0419 19.3379C51.9173 19.1892 51.7134 19.1334 51.5305 19.1975C50.7242 19.48 49.8993 19.808 49.0786 20.1724L48.9403 20.2338C47.0204 21.0859 45.0352 21.9671 43.0524 23.6568C42.6057 24.0374 42.176 24.4455 41.7658 24.8777C41.9004 24.0322 41.9795 23.1838 41.9985 22.3403C42.0579 19.6975 41.5311 17.5925 40.9734 15.364L40.9681 15.343C40.6883 14.225 40.3605 13.1091 39.9937 12.0265C39.9304 11.8399 39.7565 11.7131 39.5594 11.71C39.3604 11.7086 39.1846 11.828 39.1154 12.0125C38.7104 13.0936 38.3464 14.21 38.0337 15.3309C37.4823 17.3068 36.8573 19.5464 36.8181 22.3665C36.8069 23.1788 36.8463 23.9995 36.933 24.8206C36.5317 24.3657 36.1093 23.9348 35.6682 23.532C33.7579 21.7881 31.8078 20.8415 29.9219 19.9262L29.7602 19.8477C28.9418 19.4502 28.1288 19.0947 27.344 18.7912C27.1635 18.7214 26.9586 18.7703 26.8292 18.9141C26.6998 19.0579 26.6726 19.2668 26.761 19.4389C27.1234 20.1449 27.5292 20.8699 27.9678 21.5945C29.1006 23.4579 30.3847 25.57 32.2753 27.2695C32.6383 27.5946 33.0236 27.9007 33.427 28.1883C31.4871 28.2545 29.971 28.8227 28.2203 29.4803L28.0836 29.5316C27.4296 29.7771 26.7916 30.0487 26.1332 30.3617C25.9634 30.4425 25.8587 30.6174 25.8677 30.8052C25.8768 30.993 25.9978 31.157 26.1746 31.2211C26.5816 31.3686 27.2411 31.5918 28.0725 31.8181L28.2442 31.8648C29.9692 32.3345 31.3811 32.719 32.9614 32.719C33.211 32.719 33.4649 32.7094 33.7248 32.689C34.0454 32.6639 34.367 32.6231 34.6885 32.567C34.042 33.4088 33.6441 34.2917 33.1976 35.2837L33.1196 35.4568C32.9032 35.9366 32.7112 36.4192 32.5487 36.8913C32.4876 37.0686 32.5389 37.2653 32.6786 37.3904C32.7659 37.4685 32.8772 37.5093 32.9897 37.5093C33.0573 37.5093 33.1254 37.4945 33.189 37.4644C33.6232 37.259 34.0534 37.0377 34.4676 36.8068C35.7512 36.0916 36.8597 35.4739 37.8373 34.3533C38.0905 34.063 38.3243 33.7522 38.5323 33.4295C38.6718 33.2131 38.6095 32.9245 38.393 32.7851C38.1766 32.6455 37.8881 32.7079 37.7485 32.9243C37.5647 33.2094 37.3581 33.4839 37.1345 33.7403C36.2637 34.7385 35.2708 35.2918 34.0136 35.9924C33.9649 36.0195 33.9159 36.0465 33.8667 36.0734C33.8996 35.9974 33.9339 35.9196 33.9698 35.8401L34.0481 35.6664C34.5888 34.4651 35.016 33.5162 35.8799 32.6058C36.0583 32.4177 36.2484 32.2382 36.4448 32.0721C36.446 32.0711 36.4468 32.0698 36.448 32.0687C36.4629 32.0559 36.4755 32.0413 36.4885 32.0268C36.4963 32.0182 36.5052 32.0104 36.5122 32.0013C36.5214 31.9895 36.5283 31.9762 36.5363 31.9636C36.5445 31.9505 36.5538 31.9381 36.5607 31.9244C36.566 31.9138 36.5691 31.9022 36.5736 31.8912C36.5803 31.8746 36.5879 31.8584 36.5927 31.8413C36.5969 31.8264 36.5983 31.8109 36.6009 31.7956C36.6034 31.7815 36.6071 31.7677 36.6083 31.7535C36.6094 31.7393 36.6079 31.7248 36.6077 31.7104C36.6076 31.6945 36.6084 31.6786 36.6066 31.6627C36.6053 31.6516 36.6018 31.6406 36.5997 31.6295C36.596 31.6102 36.5928 31.5908 36.5866 31.5719C36.5861 31.5704 36.5861 31.5689 36.5856 31.5674C36.5819 31.5564 36.576 31.547 36.5716 31.5365C36.5646 31.52 36.5583 31.5033 36.5494 31.4875C36.5401 31.471 36.5288 31.4564 36.5178 31.4415C36.5114 31.4328 36.5067 31.4234 36.4996 31.415C36.4986 31.4139 36.4974 31.4131 36.4965 31.412C36.483 31.3964 36.4677 31.383 36.4525 31.3695C36.4445 31.3624 36.4374 31.3542 36.4291 31.3478C36.4153 31.3371 36.4001 31.3289 36.3853 31.3199C36.3742 31.3131 36.3638 31.3051 36.3523 31.2994C36.3351 31.2907 36.3167 31.2849 36.2986 31.2784C36.2888 31.275 36.2795 31.2701 36.2695 31.2673C36.2456 31.2606 36.2208 31.2569 36.1958 31.254C36.1912 31.2535 36.1866 31.252 36.1819 31.2516C36.1629 31.25 36.1436 31.2515 36.1243 31.2523C36.1131 31.2528 36.102 31.2519 36.0909 31.2532C36.0782 31.2546 36.0655 31.2585 36.0527 31.2611C36.0348 31.2647 36.0169 31.2676 35.9994 31.2733C35.9979 31.2738 35.9963 31.2739 35.9949 31.2744C35.2198 31.5352 34.4315 31.6984 33.6519 31.7595C31.9078 31.8962 30.474 31.5055 28.4892 30.9651L28.3174 30.9184C28.0682 30.8506 27.8352 30.7831 27.6207 30.7181C27.8833 30.6083 28.146 30.5043 28.4113 30.4047L28.5482 30.3533C30.244 29.7163 31.7084 29.1662 33.5297 29.117C34.0661 29.1025 34.604 29.13 35.1304 29.1988C35.1445 29.2007 35.1582 29.1995 35.1722 29.2C35.1784 29.2003 35.1844 29.2014 35.1908 29.2014C35.193 29.2014 35.195 29.2008 35.1972 29.2007C35.2233 29.2004 35.2487 29.1976 35.2738 29.193C35.2793 29.192 35.285 29.1913 35.2905 29.1901C35.3147 29.1847 35.338 29.1772 35.3608 29.1682C35.3664 29.1659 35.372 29.1641 35.3775 29.1617C35.3998 29.1519 35.4207 29.1401 35.4412 29.127C35.446 29.1239 35.4509 29.1212 35.4556 29.1179C35.4758 29.1039 35.4944 29.0881 35.5121 29.0711C35.5159 29.0675 35.5199 29.0642 35.5235 29.0605C35.5405 29.0431 35.5556 29.0242 35.5698 29.0042C35.5732 28.9995 35.5768 28.995 35.5801 28.9901C35.5924 28.9713 35.6027 28.9513 35.6123 28.9306C35.6159 28.9229 35.6198 28.9154 35.623 28.9074C35.6301 28.8894 35.6354 28.8706 35.6403 28.8515C35.6435 28.8392 35.6468 28.8272 35.649 28.8146C35.65 28.8085 35.6523 28.8031 35.6531 28.7969C35.6546 28.7857 35.6535 28.7748 35.6541 28.7636C35.6548 28.7535 35.6571 28.744 35.6571 28.7338C35.6571 28.7265 35.656 28.7195 35.6557 28.7123C35.6553 28.7059 35.6549 28.6997 35.6544 28.6934C35.6407 28.5372 35.5501 28.397 35.4102 28.3224C34.4899 27.8318 33.6445 27.2439 32.8981 26.5756C31.1103 24.9684 29.8641 22.9186 28.7651 21.111C28.5723 20.7924 28.386 20.4736 28.207 20.1566C28.5859 20.3229 28.9686 20.4998 29.3529 20.6865L29.5147 20.7651C31.4247 21.6922 33.2289 22.5679 35.0393 24.2207C35.8541 24.9646 36.6029 25.8094 37.2646 26.7316C37.2705 26.7398 37.2779 26.7461 37.2842 26.7539C37.2958 26.768 37.3073 26.7823 37.3204 26.7949C37.3308 26.805 37.3421 26.8134 37.3532 26.8222C37.3655 26.8321 37.3776 26.8422 37.3909 26.8508C37.4032 26.8587 37.4161 26.8651 37.4291 26.8718C37.4429 26.879 37.4566 26.8863 37.4711 26.8921C37.4841 26.8973 37.4973 26.9009 37.5106 26.9048C37.5262 26.9095 37.5416 26.9143 37.5577 26.9173C37.5717 26.9199 37.5859 26.9208 37.6001 26.9222C37.6156 26.9236 37.6308 26.9254 37.6466 26.9253C37.6642 26.9252 37.6816 26.9228 37.6991 26.9207C37.7094 26.9195 37.7195 26.92 37.7299 26.918C37.7324 26.9176 37.7344 26.9164 37.7369 26.916C37.7545 26.9124 37.7717 26.9063 37.789 26.9006C37.8015 26.8964 37.8145 26.8932 37.8266 26.8881C37.839 26.8827 37.8508 26.8753 37.8629 26.8688C37.8785 26.8604 37.8943 26.8524 37.9087 26.8424C37.9108 26.841 37.9132 26.8402 37.9152 26.8387C37.9238 26.8325 37.9305 26.8248 37.9385 26.8181C37.9522 26.8069 37.9659 26.7959 37.9781 26.7832C37.9888 26.7723 37.9976 26.7603 38.007 26.7486C38.0163 26.7369 38.0257 26.7255 38.0339 26.7131C38.0424 26.6999 38.0492 26.6861 38.0563 26.6722C38.063 26.6593 38.0699 26.6466 38.0754 26.633C38.0809 26.619 38.0848 26.6048 38.0891 26.5904C38.0934 26.5758 38.0978 26.5614 38.1007 26.5464C38.1035 26.5315 38.1045 26.5165 38.1059 26.5013C38.1072 26.4866 38.109 26.472 38.1089 26.457C38.1088 26.4395 38.1065 26.4222 38.1044 26.4047C38.1031 26.3942 38.1037 26.3839 38.1017 26.3734C37.8504 25.0429 37.7324 23.6992 37.7506 22.3794C37.7881 19.6804 38.3696 17.5967 38.932 15.5815C39.1141 14.9288 39.3139 14.2777 39.5295 13.6345C39.7227 14.2745 39.9013 14.9215 40.0635 15.5694L40.0687 15.5904C40.6343 17.8503 41.1228 19.8021 41.0661 22.3194C41.0353 23.6903 40.8419 25.0761 40.4914 26.4385C40.443 26.6158 40.5022 26.8125 40.6571 26.9313C40.7187 26.9785 40.7887 27.0059 40.8602 27.0185C40.8708 27.0204 40.8814 27.0224 40.8919 27.0235C40.9053 27.0249 40.9186 27.0258 40.932 27.026C40.9353 27.0261 40.9386 27.0266 40.9419 27.0266C40.9487 27.0266 40.9553 27.0253 40.962 27.025C40.9797 27.0242 40.9973 27.0234 41.0148 27.0206C41.0245 27.019 41.0338 27.0161 41.0433 27.014C41.0743 27.007 41.1043 26.9969 41.1334 26.9836C41.1433 26.9792 41.1535 26.9756 41.163 26.9705C41.1749 26.964 41.1859 26.9559 41.1972 26.9484C41.2098 26.9401 41.2223 26.9319 41.2341 26.9224C41.2433 26.9149 41.2519 26.9067 41.2606 26.8984C41.2742 26.8857 41.2869 26.8721 41.2989 26.8577C41.3027 26.8531 41.3073 26.8497 41.3109 26.845C42.0141 25.9279 42.8036 25.094 43.6573 24.3665C45.5372 22.7645 47.4596 21.9112 49.3187 21.086L49.4572 21.0246C49.8454 20.8523 50.2342 20.6884 50.6214 20.5339C50.4471 20.8203 50.2507 21.1337 50.0324 21.4669C48.8728 23.2375 47.5585 25.2443 45.7178 26.7914C44.9558 27.4301 44.0925 27.9884 43.152 28.4507C43.061 28.4954 42.9917 28.5607 42.9462 28.6507C42.9454 28.6521 42.9445 28.6535 42.9437 28.6549C42.9434 28.6555 42.943 28.656 42.9427 28.6566C42.9407 28.6603 42.9374 28.6668 42.9356 28.6706C42.9311 28.6799 42.929 28.6896 42.9252 28.699C42.9184 28.7154 42.9117 28.7316 42.9068 28.7488C42.9025 28.764 42.9002 28.7793 42.8975 28.7947C42.895 28.8087 42.8921 28.8224 42.891 28.8367C42.8891 28.8586 42.8898 28.8801 42.8909 28.9018C42.8913 28.9082 42.8902 28.9144 42.8909 28.9209C42.8911 28.9226 42.8917 28.9241 42.8919 28.9258C42.908 29.0811 42.9991 29.2253 43.1488 29.2981C43.2155 29.3306 43.2861 29.3461 43.3554 29.346C43.3885 29.346 43.4209 29.3412 43.4529 29.3344C43.9655 29.2857 44.4879 29.2759 45.0064 29.3069C46.8151 29.4146 48.2695 30.0187 49.9535 30.7182L50.0752 30.7688C50.3549 30.8849 50.6152 30.9995 50.8532 31.1085C50.6202 31.1708 50.3864 31.2295 50.1528 31.2843L49.9287 31.3371C47.9226 31.8094 46.473 32.1506 44.8007 31.9465C43.989 31.8473 43.1765 31.6297 42.3855 31.2996C42.3806 31.2976 42.3756 31.297 42.3707 31.2952C42.3545 31.289 42.3381 31.2844 42.3214 31.2802C42.3078 31.2767 42.2943 31.273 42.2807 31.2708C42.2653 31.2683 42.25 31.2674 42.2345 31.2665C42.2196 31.2655 42.2048 31.2645 42.19 31.265C42.175 31.2655 42.1603 31.2676 42.1454 31.2696C42.1307 31.2715 42.1162 31.2732 42.1019 31.2765C42.0868 31.2799 42.0722 31.285 42.0575 31.29C42.044 31.2946 42.0305 31.2988 42.0175 31.3046C42.0034 31.3108 41.9902 31.3185 41.9767 31.3261C41.9636 31.3336 41.9506 31.3409 41.9382 31.3496C41.9267 31.3577 41.916 31.367 41.9051 31.3762C41.8921 31.3873 41.8794 31.3985 41.8677 31.411C41.864 31.4148 41.8598 31.4176 41.8563 31.4215C41.8503 31.4283 41.8463 31.4361 41.8407 31.4431C41.8305 31.4561 41.8207 31.4692 41.8118 31.4834C41.8029 31.4976 41.7955 31.5122 41.7883 31.527C41.7844 31.5351 41.7792 31.542 41.7757 31.5504C41.7737 31.5552 41.7731 31.5602 41.7712 31.5651C41.7651 31.5813 41.7605 31.5977 41.7562 31.6144C41.7527 31.628 41.7491 31.6416 41.7468 31.6553C41.7444 31.6705 41.7434 31.6856 41.7425 31.7009C41.7415 31.7161 41.7405 31.7311 41.741 31.7462C41.7415 31.7607 41.7435 31.7749 41.7454 31.7894C41.7474 31.8045 41.7492 31.8196 41.7526 31.8344C41.7559 31.849 41.7608 31.863 41.7655 31.8771C41.7703 31.8912 41.7747 31.9052 41.7808 31.9187C41.7868 31.9324 41.7943 31.9453 41.8017 31.9584C41.8093 31.9718 41.8168 31.9851 41.8257 31.9977C41.8337 32.0092 41.843 32.0199 41.8522 32.0307C41.8632 32.0436 41.8744 32.0563 41.8868 32.068C41.8907 32.0717 41.8935 32.076 41.8975 32.0796C42.1218 32.2774 42.3366 32.4921 42.5358 32.7178C43.3826 33.6771 43.798 34.6904 44.279 35.8636L44.3404 36.0134C44.3737 36.0945 44.4056 36.1742 44.4361 36.2523C44.3869 36.2234 44.3365 36.1935 44.2848 36.1626C43.0584 35.4281 42.0897 34.848 41.2445 33.8105C41.0195 33.534 40.8147 33.2395 40.6359 32.9353C40.5056 32.7132 40.2197 32.6391 39.9977 32.7694C39.7757 32.8998 39.7014 33.1856 39.8319 33.4076C40.0345 33.7525 40.2665 34.0861 40.5214 34.3992C41.47 35.5638 42.5524 36.212 43.8057 36.9626C44.3749 37.3033 44.8059 37.5319 45.0671 37.6637C45.1336 37.6972 45.2055 37.7136 45.277 37.7136C45.3856 37.7136 45.4933 37.6757 45.5794 37.6023C45.7223 37.4806 45.7783 37.2852 45.7215 37.1063C45.5938 36.704 45.4324 36.2174 45.2031 35.6592L45.1419 35.5099C44.7407 34.5314 44.3574 33.5972 43.7135 32.7013C44.0373 32.775 44.3623 32.8323 44.6876 32.8721C45.0729 32.9191 45.4441 32.9407 45.8096 32.9407C47.1869 32.9407 48.4827 32.6356 50.1424 32.2448L50.3663 32.1921C51.0094 32.041 51.6542 31.862 52.2828 31.6603C52.4625 31.6027 52.5897 31.4424 52.6051 31.2543C52.6204 31.0662 52.5209 30.8875 52.3529 30.8014Z" fill="#A88EC3"/>
<path d="M52.3529 30.8014C51.9259 30.5826 51.2622 30.2519 50.4328 29.9076L50.3113 29.8572C48.5731 29.1351 47.0678 28.5113 45.1405 28.3821C45.5527 28.1086 45.9464 27.8165 46.3173 27.5056C48.2635 25.8698 49.6178 23.8021 50.8126 21.9777C51.3903 21.0955 51.819 20.35 52.0911 19.866C52.1862 19.6969 52.1666 19.4866 52.0419 19.3379C51.9173 19.1892 51.7134 19.1334 51.5305 19.1975C50.7242 19.48 49.8993 19.808 49.0786 20.1724L48.9403 20.2338C47.0204 21.0859 45.0352 21.9671 43.0524 23.6568C42.6057 24.0374 42.176 24.4455 41.7658 24.8777C41.9004 24.0322 41.9795 23.1838 41.9985 22.3403C42.0579 19.6975 41.5311 17.5925 40.9734 15.364L40.9681 15.343C40.6883 14.225 40.3605 13.1091 39.9937 12.0265C39.9304 11.8399 39.7565 11.7131 39.5594 11.71C39.3604 11.7086 39.1846 11.828 39.1154 12.0125C38.7104 13.0936 38.3464 14.21 38.0337 15.3309C37.4823 17.3068 36.8573 19.5464 36.8181 22.3665C36.8069 23.1788 36.8463 23.9995 36.933 24.8206C36.5317 24.3657 36.1093 23.9348 35.6682 23.532C33.7579 21.7881 31.8078 20.8415 29.9219 19.9262L29.7602 19.8477C28.9418 19.4502 28.1288 19.0947 27.344 18.7912C27.1635 18.7214 26.9586 18.7703 26.8292 18.9141C26.6998 19.0579 26.6726 19.2668 26.761 19.4389C27.1234 20.1449 27.5292 20.8699 27.9678 21.5945C29.1006 23.4579 30.3847 25.57 32.2753 27.2695C32.6383 27.5946 33.0236 27.9007 33.427 28.1883C31.4871 28.2545 29.971 28.8227 28.2203 29.4803L28.0836 29.5316C27.4296 29.7771 26.7916 30.0487 26.1332 30.3617C25.9634 30.4425 25.8587 30.6174 25.8677 30.8052C25.8768 30.993 25.9978 31.157 26.1746 31.2211C26.5816 31.3686 27.2411 31.5918 28.0725 31.8181L28.2442 31.8648C29.9692 32.3345 31.3811 32.719 32.9614 32.719C33.211 32.719 33.4649 32.7094 33.7248 32.689C34.0454 32.6639 34.367 32.6231 34.6885 32.567C34.042 33.4088 33.6441 34.2917 33.1976 35.2837L33.1196 35.4568C32.9032 35.9366 32.7112 36.4192 32.5487 36.8913C32.4876 37.0686 32.5389 37.2653 32.6786 37.3904C32.7659 37.4685 32.8772 37.5093 32.9897 37.5093C33.0573 37.5093 33.1254 37.4945 33.189 37.4644C33.6232 37.259 34.0534 37.0377 34.4676 36.8068C35.7512 36.0916 36.8597 35.4739 37.8373 34.3533C38.0905 34.063 38.3243 33.7522 38.5323 33.4295C38.6718 33.2131 38.6095 32.9245 38.393 32.7851C38.1766 32.6455 37.8881 32.7079 37.7485 32.9243C37.5647 33.2094 37.3581 33.4839 37.1345 33.7403C36.2637 34.7385 35.2708 35.2918 34.0136 35.9924C33.9649 36.0195 33.9159 36.0465 33.8667 36.0734C33.8996 35.9974 33.9339 35.9196 33.9698 35.8401L34.0481 35.6664C34.5888 34.4651 35.016 33.5162 35.8799 32.6058C36.0583 32.4177 36.2484 32.2382 36.4448 32.0721C36.446 32.0711 36.4468 32.0698 36.448 32.0687C36.4629 32.0559 36.4755 32.0413 36.4885 32.0268C36.4963 32.0182 36.5052 32.0104 36.5122 32.0013C36.5214 31.9895 36.5283 31.9762 36.5363 31.9636C36.5445 31.9505 36.5538 31.9381 36.5607 31.9244C36.566 31.9138 36.5691 31.9022 36.5736 31.8912C36.5803 31.8746 36.5879 31.8584 36.5927 31.8413C36.5969 31.8264 36.5983 31.8109 36.6009 31.7956C36.6034 31.7815 36.6071 31.7677 36.6083 31.7535C36.6094 31.7393 36.6079 31.7248 36.6077 31.7104C36.6076 31.6945 36.6084 31.6786 36.6066 31.6627C36.6053 31.6516 36.6018 31.6406 36.5997 31.6295C36.596 31.6102 36.5928 31.5908 36.5866 31.5719C36.5861 31.5704 36.5861 31.5689 36.5856 31.5674C36.5819 31.5564 36.576 31.547 36.5716 31.5365C36.5646 31.52 36.5583 31.5033 36.5494 31.4875C36.5401 31.471 36.5288 31.4564 36.5178 31.4415C36.5114 31.4328 36.5067 31.4234 36.4996 31.415C36.4986 31.4139 36.4974 31.4131 36.4965 31.412C36.483 31.3964 36.4677 31.383 36.4525 31.3695C36.4445 31.3624 36.4374 31.3542 36.4291 31.3478C36.4153 31.3371 36.4001 31.3289 36.3853 31.3199C36.3742 31.3131 36.3638 31.3051 36.3523 31.2994C36.3351 31.2907 36.3167 31.2849 36.2986 31.2784C36.2888 31.275 36.2795 31.2701 36.2695 31.2673C36.2456 31.2606 36.2208 31.2569 36.1958 31.254C36.1912 31.2535 36.1866 31.252 36.1819 31.2516C36.1629 31.25 36.1436 31.2515 36.1243 31.2523C36.1131 31.2528 36.102 31.2519 36.0909 31.2532C36.0782 31.2546 36.0655 31.2585 36.0527 31.2611C36.0348 31.2647 36.0169 31.2676 35.9994 31.2733C35.9979 31.2738 35.9963 31.2739 35.9949 31.2744C35.2198 31.5352 34.4315 31.6984 33.6519 31.7595C31.9078 31.8962 30.474 31.5055 28.4892 30.9651L28.3174 30.9184C28.0682 30.8506 27.8352 30.7831 27.6207 30.7181C27.8833 30.6083 28.146 30.5043 28.4113 30.4047L28.5482 30.3533C30.244 29.7163 31.7084 29.1662 33.5297 29.117C34.0661 29.1025 34.604 29.13 35.1304 29.1988C35.1445 29.2007 35.1582 29.1995 35.1722 29.2C35.1784 29.2003 35.1844 29.2014 35.1908 29.2014C35.193 29.2014 35.195 29.2008 35.1972 29.2007C35.2233 29.2004 35.2487 29.1976 35.2738 29.193C35.2793 29.192 35.285 29.1913 35.2905 29.1901C35.3147 29.1847 35.338 29.1772 35.3608 29.1682C35.3664 29.1659 35.372 29.1641 35.3775 29.1617C35.3998 29.1519 35.4207 29.1401 35.4412 29.127C35.446 29.1239 35.4509 29.1212 35.4556 29.1179C35.4758 29.1039 35.4944 29.0881 35.5121 29.0711C35.5159 29.0675 35.5199 29.0642 35.5235 29.0605C35.5405 29.0431 35.5556 29.0242 35.5698 29.0042C35.5732 28.9995 35.5768 28.995 35.5801 28.9901C35.5924 28.9713 35.6027 28.9513 35.6123 28.9306C35.6159 28.9229 35.6198 28.9154 35.623 28.9074C35.6301 28.8894 35.6354 28.8706 35.6403 28.8515C35.6435 28.8392 35.6468 28.8272 35.649 28.8146C35.65 28.8085 35.6523 28.8031 35.6531 28.7969C35.6546 28.7857 35.6535 28.7748 35.6541 28.7636C35.6548 28.7535 35.6571 28.744 35.6571 28.7338C35.6571 28.7265 35.656 28.7195 35.6557 28.7123C35.6553 28.7059 35.6549 28.6997 35.6544 28.6934C35.6407 28.5372 35.5501 28.397 35.4102 28.3224C34.4899 27.8318 33.6445 27.2439 32.8981 26.5756C31.1103 24.9684 29.8641 22.9186 28.7651 21.111C28.5723 20.7924 28.386 20.4736 28.207 20.1566C28.5859 20.3229 28.9686 20.4998 29.3529 20.6865L29.5147 20.7651C31.4247 21.6922 33.2289 22.5679 35.0393 24.2207C35.8541 24.9646 36.6029 25.8094 37.2646 26.7316C37.2705 26.7398 37.2779 26.7461 37.2842 26.7539C37.2958 26.768 37.3073 26.7823 37.3204 26.7949C37.3308 26.805 37.3421 26.8134 37.3532 26.8222C37.3655 26.8321 37.3776 26.8422 37.3909 26.8508C37.4032 26.8587 37.4161 26.8651 37.4291 26.8718C37.4429 26.879 37.4566 26.8863 37.4711 26.8921C37.4841 26.8973 37.4973 26.9009 37.5106 26.9048C37.5262 26.9095 37.5416 26.9143 37.5577 26.9173C37.5717 26.9199 37.5859 26.9208 37.6001 26.9222C37.6156 26.9236 37.6308 26.9254 37.6466 26.9253C37.6642 26.9252 37.6816 26.9228 37.6991 26.9207C37.7094 26.9195 37.7195 26.92 37.7299 26.918C37.7324 26.9176 37.7344 26.9164 37.7369 26.916C37.7545 26.9124 37.7717 26.9063 37.789 26.9006C37.8015 26.8964 37.8145 26.8932 37.8266 26.8881C37.839 26.8827 37.8508 26.8753 37.8629 26.8688C37.8785 26.8604 37.8943 26.8524 37.9087 26.8424C37.9108 26.841 37.9132 26.8402 37.9152 26.8387C37.9238 26.8325 37.9305 26.8248 37.9385 26.8181C37.9522 26.8069 37.9659 26.7959 37.9781 26.7832C37.9888 26.7723 37.9976 26.7603 38.007 26.7486C38.0163 26.7369 38.0257 26.7255 38.0339 26.7131C38.0424 26.6999 38.0492 26.6861 38.0563 26.6722C38.063 26.6593 38.0699 26.6466 38.0754 26.633C38.0809 26.619 38.0848 26.6048 38.0891 26.5904C38.0934 26.5758 38.0978 26.5614 38.1007 26.5464C38.1035 26.5315 38.1045 26.5165 38.1059 26.5013C38.1072 26.4866 38.109 26.472 38.1089 26.457C38.1088 26.4395 38.1065 26.4222 38.1044 26.4047C38.1031 26.3942 38.1037 26.3839 38.1017 26.3734C37.8504 25.0429 37.7324 23.6992 37.7506 22.3794C37.7881 19.6804 38.3696 17.5967 38.932 15.5815C39.1141 14.9288 39.3139 14.2777 39.5295 13.6345C39.7227 14.2745 39.9013 14.9215 40.0635 15.5694L40.0687 15.5904C40.6343 17.8503 41.1228 19.8021 41.0661 22.3194C41.0353 23.6903 40.8419 25.0761 40.4914 26.4385C40.443 26.6158 40.5022 26.8125 40.6571 26.9313C40.7187 26.9785 40.7887 27.0059 40.8602 27.0185C40.8708 27.0204 40.8814 27.0224 40.8919 27.0235C40.9053 27.0249 40.9186 27.0258 40.932 27.026C40.9353 27.0261 40.9386 27.0266 40.9419 27.0266C40.9487 27.0266 40.9553 27.0253 40.962 27.025C40.9797 27.0242 40.9973 27.0234 41.0148 27.0206C41.0245 27.019 41.0338 27.0161 41.0433 27.014C41.0743 27.007 41.1043 26.9969 41.1334 26.9836C41.1433 26.9792 41.1535 26.9756 41.163 26.9705C41.1749 26.964 41.1859 26.9559 41.1972 26.9484C41.2098 26.9401 41.2223 26.9319 41.2341 26.9224C41.2433 26.9149 41.2519 26.9067 41.2606 26.8984C41.2742 26.8857 41.2869 26.8721 41.2989 26.8577C41.3027 26.8531 41.3073 26.8497 41.3109 26.845C42.0141 25.9279 42.8036 25.094 43.6573 24.3665C45.5372 22.7645 47.4596 21.9112 49.3187 21.086L49.4572 21.0246C49.8454 20.8523 50.2342 20.6884 50.6214 20.5339C50.4471 20.8203 50.2507 21.1337 50.0324 21.4669C48.8728 23.2375 47.5585 25.2443 45.7178 26.7914C44.9558 27.4301 44.0925 27.9884 43.152 28.4507C43.061 28.4954 42.9917 28.5607 42.9462 28.6507C42.9454 28.6521 42.9445 28.6535 42.9437 28.6549C42.9434 28.6555 42.943 28.656 42.9427 28.6566C42.9407 28.6603 42.9374 28.6668 42.9356 28.6706C42.9311 28.6799 42.929 28.6896 42.9252 28.699C42.9184 28.7154 42.9117 28.7316 42.9068 28.7488C42.9025 28.764 42.9002 28.7793 42.8975 28.7947C42.895 28.8087 42.8921 28.8224 42.891 28.8367C42.8891 28.8586 42.8898 28.8801 42.8909 28.9018C42.8913 28.9082 42.8902 28.9144 42.8909 28.9209C42.8911 28.9226 42.8917 28.9241 42.8919 28.9258C42.908 29.0811 42.9991 29.2253 43.1488 29.2981C43.2155 29.3306 43.2861 29.3461 43.3554 29.346C43.3885 29.346 43.4209 29.3412 43.4529 29.3344C43.9655 29.2857 44.4879 29.2759 45.0064 29.3069C46.8151 29.4146 48.2695 30.0187 49.9535 30.7182L50.0752 30.7688C50.3549 30.8849 50.6152 30.9995 50.8532 31.1085C50.6202 31.1708 50.3864 31.2295 50.1528 31.2843L49.9287 31.3371C47.9226 31.8094 46.473 32.1506 44.8007 31.9465C43.989 31.8473 43.1765 31.6297 42.3855 31.2996C42.3806 31.2976 42.3756 31.297 42.3707 31.2952C42.3545 31.289 42.3381 31.2844 42.3214 31.2802C42.3078 31.2767 42.2943 31.273 42.2807 31.2708C42.2653 31.2683 42.25 31.2674 42.2345 31.2665C42.2196 31.2655 42.2048 31.2645 42.19 31.265C42.175 31.2655 42.1603 31.2676 42.1454 31.2696C42.1307 31.2715 42.1162 31.2732 42.1019 31.2765C42.0868 31.2799 42.0722 31.285 42.0575 31.29C42.044 31.2946 42.0305 31.2988 42.0175 31.3046C42.0034 31.3108 41.9902 31.3185 41.9767 31.3261C41.9636 31.3336 41.9506 31.3409 41.9382 31.3496C41.9267 31.3577 41.916 31.367 41.9051 31.3762C41.8921 31.3873 41.8794 31.3985 41.8677 31.411C41.864 31.4148 41.8598 31.4176 41.8563 31.4215C41.8503 31.4283 41.8463 31.4361 41.8407 31.4431C41.8305 31.4561 41.8207 31.4692 41.8118 31.4834C41.8029 31.4976 41.7955 31.5122 41.7883 31.527C41.7844 31.5351 41.7792 31.542 41.7757 31.5504C41.7737 31.5552 41.7731 31.5602 41.7712 31.5651C41.7651 31.5813 41.7605 31.5977 41.7562 31.6144C41.7527 31.628 41.7491 31.6416 41.7468 31.6553C41.7444 31.6705 41.7434 31.6856 41.7425 31.7009C41.7415 31.7161 41.7405 31.7311 41.741 31.7462C41.7415 31.7607 41.7435 31.7749 41.7454 31.7894C41.7474 31.8045 41.7492 31.8196 41.7526 31.8344C41.7559 31.849 41.7608 31.863 41.7655 31.8771C41.7703 31.8912 41.7747 31.9052 41.7808 31.9187C41.7868 31.9324 41.7943 31.9453 41.8017 31.9584C41.8093 31.9718 41.8168 31.9851 41.8257 31.9977C41.8337 32.0092 41.843 32.0199 41.8522 32.0307C41.8632 32.0436 41.8744 32.0563 41.8868 32.068C41.8907 32.0717 41.8935 32.076 41.8975 32.0796C42.1218 32.2774 42.3366 32.4921 42.5358 32.7178C43.3826 33.6771 43.798 34.6904 44.279 35.8636L44.3404 36.0134C44.3737 36.0945 44.4056 36.1742 44.4361 36.2523C44.3869 36.2234 44.3365 36.1935 44.2848 36.1626C43.0584 35.4281 42.0897 34.848 41.2445 33.8105C41.0195 33.534 40.8147 33.2395 40.6359 32.9353C40.5056 32.7132 40.2197 32.6391 39.9977 32.7694C39.7757 32.8998 39.7014 33.1856 39.8319 33.4076C40.0345 33.7525 40.2665 34.0861 40.5214 34.3992C41.47 35.5638 42.5524 36.212 43.8057 36.9626C44.3749 37.3033 44.8059 37.5319 45.0671 37.6637C45.1336 37.6972 45.2055 37.7136 45.277 37.7136C45.3856 37.7136 45.4933 37.6757 45.5794 37.6023C45.7223 37.4806 45.7783 37.2852 45.7215 37.1063C45.5938 36.704 45.4324 36.2174 45.2031 35.6592L45.1419 35.5099C44.7407 34.5314 44.3574 33.5972 43.7135 32.7013C44.0373 32.775 44.3623 32.8323 44.6876 32.8721C45.0729 32.9191 45.4441 32.9407 45.8096 32.9407C47.1869 32.9407 48.4827 32.6356 50.1424 32.2448L50.3663 32.1921C51.0094 32.041 51.6542 31.862 52.2828 31.6603C52.4625 31.6027 52.5897 31.4424 52.6051 31.2543C52.6204 31.0662 52.5209 30.8875 52.3529 30.8014Z" stroke="#A88EC3" stroke-width="0.4" mask="url(#path-5-outside-1_29_1886)"/>
<path d="M39.1621 35.1514C39.4739 35.1516 39.7266 35.4038 39.7275 35.7158L39.7441 41.002C39.7451 41.3147 39.4924 41.5693 39.1797 41.5703H39.1787C38.8667 41.5703 38.6133 41.3181 38.6123 41.0059L38.5957 35.7188C38.5948 35.4061 38.8475 35.1523 39.1602 35.1514H39.1621Z" fill="#A88EC3" stroke="#A88EC3" stroke-width="0.2"/>
</svg>
