<svg width="44" height="48" viewBox="0 0 44 48" fill="none" xmlns="http://www.w3.org/2000/svg">
<path d="M4.99657 40.4134C5.24508 40.864 5.12569 41.4491 4.72106 41.7463C4.71133 41.7463 4.71133 41.7463 4.71133 41.7564C4.55737 41.8554 4.39422 41.905 4.2208 41.905C3.92692 41.905 3.66113 41.7575 3.48717 41.5045C3.47799 41.4921 3.46664 41.4827 3.45854 41.4691C3.33159 41.2409 3.27648 40.9832 3.33159 40.7154C3.37697 40.4577 3.51364 40.2395 3.72163 40.0908C4.1214 39.7936 4.71133 39.9328 4.97442 40.3686C4.98361 40.3834 4.98847 40.3987 4.99657 40.4134ZM2.20197 42.9076C2.18468 42.8946 2.1701 42.8787 2.15173 42.8669C1.73413 42.5891 1.15231 42.7478 0.908124 43.2036C0.30901 44.2941 0 45.4336 0 46.5836C0 47.1286 0.408953 47.5744 0.908124 47.5744C1.40729 47.5744 1.81571 47.1286 1.81571 46.5836C1.81571 45.8004 2.03396 45.0072 2.46074 44.224C2.71249 43.7781 2.58661 43.1995 2.20197 42.9076ZM42.8785 41.4886C41.4539 45.1853 38.1671 47.5744 34.4995 47.5744C34.2667 47.5744 34.0365 47.5621 33.808 47.5426C33.7383 47.5615 33.667 47.5744 33.5919 47.5744C33.4499 47.5744 33.3164 47.5349 33.1965 47.4706C32.2603 47.3226 31.37 47.0195 30.5483 46.5836C28.1421 45.3068 26.3264 42.9017 25.6798 40.0053C24.7954 39.7246 23.6107 39.3672 22.3525 39.0405C21.1175 38.7238 20.2548 37.5442 20.2548 36.1765V35.8427C19.3061 36.3794 18.2921 36.6719 17.25 36.6719C16.196 36.6719 15.1837 36.3806 14.2447 35.8498V36.1765C14.2447 37.5442 13.3831 38.7238 12.1481 39.0405C10.3324 39.5064 8.65284 40.0513 7.8171 40.3291C7.34548 40.4872 6.82741 40.1905 6.68208 39.6751C6.67992 39.6662 6.67938 39.6574 6.67722 39.6485C6.61402 39.399 6.64049 39.1425 6.74583 38.9219C6.8636 38.6837 7.0543 38.5156 7.2812 38.4365C7.96242 38.2083 9.74194 37.6238 11.7305 37.1084C12.1481 37.0093 12.429 36.6224 12.429 36.1765V34.4344C11.4361 33.4188 10.5842 32.0977 9.93264 30.5489C9.92886 30.5466 9.92508 30.5448 9.92183 30.5419C4.15706 26.069 5.31531 21.0772 6.38766 18.671C4.60923 15.4632 5.36447 12.0549 8.54587 8.99577C9.03964 7.43347 11.6376 0 16.343 0C21.0062 0 23.5259 1.92619 24.0342 5.88414C25.1719 7.02712 29.174 11.6214 29.0508 19.6223C28.9476 26.2837 25.112 29.9963 24.5998 30.4622C23.9364 32.0676 23.0677 33.4135 22.0629 34.4373V36.1771C22.0629 36.623 22.3536 37.0093 22.7712 37.109C23.7344 37.3626 24.6479 37.6286 25.4269 37.8656C25.4258 37.7984 25.4221 37.7318 25.4221 37.6639C25.4221 32.2027 29.4986 27.7528 34.5006 27.7528C37.8506 27.7528 40.9191 29.7551 42.5073 32.9859C42.7439 33.4618 42.5711 34.0657 42.1356 34.3241C42.1189 34.3335 42.1016 34.3382 42.0843 34.3459C41.6554 34.5529 41.1189 34.3659 40.9001 33.9171C39.629 31.3398 37.1785 29.7351 34.5001 29.7351C30.504 29.7439 27.2448 33.3014 27.2362 37.6633C27.2367 37.9287 27.2497 38.1912 27.274 38.4501C27.308 38.8205 27.3674 39.182 27.4468 39.5353C27.5349 39.9269 27.6494 40.3073 27.7888 40.6741C28.6305 42.8881 30.3646 44.602 32.4964 45.2779C32.8162 45.3793 33.1446 45.4578 33.4812 45.5102C33.7853 45.558 34.0954 45.5846 34.4104 45.5899C34.4401 45.5905 34.4698 45.5922 34.4995 45.5922C37.4313 45.5922 40.0644 43.6796 41.1994 40.7254V40.7154C41.3918 40.2477 41.8947 40.0136 42.3372 40.1834C42.3539 40.1899 42.3712 40.1929 42.3879 40.2005C42.852 40.4087 43.0692 40.9832 42.8785 41.4886ZM8.58639 24.6931C8.58315 24.6182 8.58477 24.5433 8.59665 24.469C9.15903 21.0654 11.2746 18.2876 15.4246 15.5033C15.5456 15.4207 15.6666 15.3393 15.786 15.2597C15.7866 15.2591 15.7876 15.2591 15.7882 15.2585C15.7898 15.2574 15.7914 15.2562 15.793 15.255C15.8395 15.2243 15.8908 15.2055 15.9411 15.1848C15.9519 15.1807 15.9616 15.1736 15.9724 15.1695C16.7546 14.6446 17.4402 14.1374 18.042 13.6502C21.7793 10.6271 22.2693 8.39951 22.3066 7.59153C22.3082 7.5526 22.3093 7.51545 22.3093 7.48301C22.3093 7.12797 22.2968 6.79003 22.2666 6.46861C22.2661 6.46271 22.2671 6.45622 22.2666 6.44973C22.0478 4.12545 21.1699 1.98163 16.3414 1.98163C14.2588 1.98163 12.5333 4.43802 11.4139 6.74521C13.624 5.27373 15.6104 4.42741 15.726 4.37905C16.1901 4.18206 16.7184 4.43449 16.9 4.94582C17.0804 5.45656 16.8486 6.03041 16.3803 6.22798C16.3441 6.24331 12.6759 7.80974 9.93912 10.3074C9.92778 10.318 9.91427 10.3251 9.90238 10.3351C7.60695 12.4725 6.81876 14.6163 7.53781 16.7277C9.35243 14.1268 11.582 12.4082 11.6905 12.3256C12.1011 12.0124 12.6673 12.1227 12.9541 12.5704C13.2415 13.0186 13.1411 13.6367 12.7305 13.9498C12.7024 13.9717 9.91373 16.1237 8.2428 19.0985C8.232 19.1168 8.21741 19.1304 8.20607 19.1481C7.22609 21.069 6.67884 23.6999 8.54425 26.427C8.50914 26.0938 8.49725 25.7736 8.49725 25.4356C8.49725 25.4008 8.49887 25.3666 8.50265 25.3318C8.52426 25.1154 8.55343 24.9031 8.58639 24.6931ZM23.9699 8.73922C23.4632 10.906 21.681 13.2309 18.7967 15.4974C20.2224 15.9332 21.6783 16.7412 22.9008 17.8984C22.9143 17.9113 22.9273 17.9255 22.9408 17.9385C23.0991 18.09 23.2536 18.2469 23.4032 18.4103C23.413 18.4209 23.4238 18.4303 23.4335 18.441C23.4605 18.4704 23.4832 18.5023 23.5097 18.5318C23.635 18.6733 23.7582 18.8178 23.8765 18.9676C23.91 19.0107 23.9418 19.0549 23.9748 19.0985C24.0926 19.2537 24.2076 19.4117 24.3168 19.5757C24.3351 19.6028 24.3519 19.6305 24.3697 19.6576C25.119 20.8048 25.6554 22.1577 25.8413 23.7164C25.8629 23.8951 25.8791 24.0762 25.8915 24.259C25.9196 24.6094 25.9374 24.9638 25.9315 25.3253C26.6241 23.8391 27.1978 21.9165 27.2329 19.5886C27.315 14.2937 25.3648 10.656 23.9699 8.73922ZM17.2495 34.6897C18.2111 34.6897 19.1506 34.3382 20.0138 33.6989C20.3882 33.4217 20.7469 33.0903 21.0873 32.7075C21.8755 31.8217 22.5621 30.6687 23.0856 29.2957C23.0964 29.2279 23.1142 29.1612 23.1391 29.0952C23.2655 28.7118 23.9829 25.993 24.0963 24.6619C24.0866 24.3717 24.0607 24.0927 24.024 23.8208C23.4735 19.7449 20.0182 17.6996 17.5039 17.213C17.4823 17.2089 17.4613 17.2054 17.4402 17.2013C17.3592 17.1865 17.2792 17.1729 17.2009 17.1611C17.1658 17.1558 17.1306 17.1505 17.0961 17.1464C17.0291 17.1376 16.9632 17.1299 16.8978 17.1234C16.8627 17.1199 16.8265 17.1157 16.7919 17.1128C16.7103 17.1063 16.6304 17.1016 16.5521 17.0992C16.5396 17.0992 16.5261 17.0975 16.5137 17.0975C16.5121 17.0975 16.511 17.0975 16.5094 17.0975C12.7991 19.5586 10.9067 21.9141 10.4043 24.6966C10.407 24.732 10.4107 24.7662 10.414 24.8016C10.6938 28.112 11.8083 30.9358 13.3761 32.7075C13.7132 33.0885 14.0708 33.4205 14.4457 33.6989C15.3068 34.3359 16.256 34.6897 17.2495 34.6897ZM42.6148 36.2455C42.5986 36.2467 42.5835 36.252 42.5678 36.2538C42.349 36.2839 42.141 36.3877 41.9892 36.5729C41.825 36.771 41.7434 37.0187 41.7532 37.2859C41.7796 37.8084 42.1659 38.2213 42.6521 38.2266C42.6553 38.2266 42.658 38.2278 42.6613 38.2278H42.698C43.1972 38.1983 43.5872 37.7418 43.5694 37.1874C43.5413 36.6419 43.0789 36.206 42.6148 36.2455ZM35.1748 33.0366C35.6686 33.637 38.1309 36.7297 38.1309 38.6542C38.1309 40.8404 36.5021 42.6192 34.499 42.6192C33.9663 42.6192 33.4623 42.4906 33.0063 42.2647C32.2538 41.8926 31.6385 41.2486 31.2641 40.4471C31.0123 39.908 30.8676 39.3 30.8676 38.6542C30.8676 36.7297 33.3299 33.637 33.8237 33.0366C34.1673 32.6173 34.8307 32.6173 35.1748 33.0366ZM36.3147 38.6542C36.3147 38.0402 35.4638 36.5546 34.499 35.2335C33.5363 36.5475 32.6833 38.0225 32.6833 38.6542C32.6833 39.7476 33.4985 40.637 34.499 40.637C35.5 40.637 36.3147 39.7476 36.3147 38.6542Z" fill="#A88EC3"/>
</svg>
