<svg width="54" height="52" viewBox="0 0 54 52" fill="none" xmlns="http://www.w3.org/2000/svg">
<path d="M19.0303 1.76172C22.8325 0.178249 27.1313 -0.36423 30.6475 0.703125C35.187 1.95102 38.6696 3.95256 40.9551 6.68945C43.2426 9.42894 44.3205 12.8932 44.0752 17.042C44.0346 18.4076 44.1987 20.425 44.3945 21.8164C44.807 24.7804 46.7834 28.4287 48.624 30.7568L48.9902 31.2051L48.9941 31.21C50.2654 32.8596 51.407 34.3285 51.71 36.6875L51.7588 37.1719V37.1777C51.8114 38.5272 51.4885 40.14 50.749 41.418C50.0077 42.699 48.8358 43.6591 47.1973 43.6484V43.6494C46.8213 43.6494 46.4338 43.5964 46.0771 43.4883V43.4873C45.5279 43.3258 44.965 43.1981 44.4014 43.0742C44.5269 43.2267 44.6736 43.4139 44.8281 43.6221C45.1568 44.0647 45.5329 44.6146 45.8477 45.1543C46.16 45.6899 46.4205 46.2311 46.5049 46.6514C46.5466 46.8593 46.5514 47.0651 46.4697 47.2285C46.3805 47.407 46.2082 47.4992 45.9844 47.5117H29.8633C29.1282 48.7214 27.8034 49.3211 26.4873 49.3213C25.171 49.3213 23.8455 48.7215 23.1104 47.5117H22.0801C22.111 47.5772 22.1425 47.6415 22.1768 47.7051H22.1758C22.3952 48.0944 22.0959 48.6026 21.6465 48.5889H21.6416C21.3056 48.5683 21.1229 48.3289 21.0078 48.0947C20.9499 47.9768 20.9028 47.8492 20.8613 47.7344C20.8316 47.6521 20.804 47.5776 20.7764 47.5117H6.97949C6.7554 47.4992 6.58304 47.4065 6.49414 47.2275C6.41289 47.0638 6.41783 46.8577 6.45996 46.6494C6.54522 46.2284 6.80626 45.6865 7.11914 45.1504C7.43456 44.6099 7.81145 44.0594 8.13965 43.6172C8.29521 43.4076 8.44178 43.219 8.56738 43.0664C8.0021 43.1858 7.43744 43.3172 6.88672 43.4873L6.88477 43.4883C5.93491 43.7639 5.08307 43.7009 4.3457 43.3965C3.61061 43.0929 2.99806 42.5532 2.51465 41.8887C1.54984 40.5622 1.08317 38.7169 1.18359 37.1631V37.1621C1.37357 34.5237 2.58266 32.9698 3.94922 31.21L3.95215 31.2051C5.86795 28.9289 8.0662 25.0711 8.53711 21.8984L8.53809 21.8936L8.6084 21.4707C8.93033 19.3697 8.82952 17.4534 8.88574 15.5156C8.94558 13.454 9.18454 11.3911 10.3223 9.13672C11.8918 5.98287 15.2273 3.34554 19.0303 1.76172ZM26.4756 42.4385C22.7062 42.5616 22.7048 48.019 26.4756 48.1426C30.2384 48.0206 30.237 42.56 26.4756 42.4385ZM29.5596 35.7617C27.5502 36.266 25.4234 36.3031 23.3936 35.8301L22.9268 38.1553L22.9248 38.1621L22.9229 38.1699C22.5939 39.2334 21.6596 39.95 20.6006 39.9941H20.5996L17.2246 40.1182H17.2227C13.2668 40.2183 9.51614 42.7091 7.88184 46.3115H20.6064C20.718 46.1325 20.9149 46.047 21.1016 46.0469C21.2884 46.0469 21.4861 46.1323 21.5977 46.3115H22.5479C21.8707 43.8188 23.8424 41.2092 26.4639 41.248H26.4678C29.0904 41.2088 31.0508 43.8193 30.3828 46.3115H31.2842C31.3582 45.9751 31.4004 45.6328 31.4004 45.291C31.4004 44.9596 31.6647 44.6953 31.9961 44.6953H32.0049L32.0137 44.6973C32.2443 44.7253 32.4075 44.8284 32.5039 44.9912C32.5947 45.1445 32.6149 45.3312 32.6094 45.5068C32.6038 45.6847 32.5708 45.8725 32.5391 46.04C32.5218 46.1312 32.5055 46.2148 32.4922 46.29H45.0713C43.6822 43.2587 40.7389 40.9312 37.4766 40.3027L37.4717 40.3018V40.3008C36.9028 40.1699 35.9406 40.108 34.9541 40.0703C33.9779 40.0331 32.9775 40.0197 32.3604 39.9834V39.9824C31.2932 39.9375 30.3697 39.2236 30.0508 38.2119L30.0469 38.1963L29.5596 35.7617ZM12.334 21.2764C11.6492 21.3468 10.6127 21.3991 9.83496 21.3008C9.48773 25.0164 7.09232 29.3309 4.89648 31.9473C3.51046 33.7366 2.54626 34.9885 2.37402 37.2666C2.31921 38.4561 2.64706 39.9516 3.35645 41.0332C3.71052 41.5731 4.15525 42.003 4.68652 42.2451C5.21492 42.4858 5.84092 42.5467 6.57227 42.3311L6.57324 42.3301C7.75766 41.9902 8.95162 41.7319 10.1348 41.5352C11.5336 40.4275 13.1677 39.6385 14.9014 39.2266L15.252 39.1484C15.8994 39.0004 16.9007 38.9335 17.8926 38.8936C18.8963 38.8531 19.8868 38.84 20.5449 38.8037H20.5459C21.1041 38.7757 21.596 38.4046 21.7646 37.8682L22.2344 35.499C19.0553 34.3634 16.1219 31.7229 14.5928 29.0781L14.5918 29.0762C13.1906 26.5807 12.4521 23.8048 12.334 21.2764ZM40.6494 20.1084C40.8156 26.8598 36.8296 33.3438 30.708 35.417L31.208 37.9062C31.3649 38.3912 31.8466 38.7658 32.418 38.7939H32.4189C32.7794 38.8145 33.6864 38.8396 34.5938 38.8721C35.4942 38.9043 36.4029 38.9433 36.749 38.9912H36.748C38.9579 39.2522 41.0627 40.1459 42.7969 41.5361C43.9879 41.7422 45.223 41.99 46.4395 42.3506L46.707 42.4111C47.3193 42.5248 47.8513 42.4415 48.3086 42.2236C48.8336 41.9734 49.2714 41.5407 49.6191 41.001C50.3159 39.9194 50.6338 38.4363 50.5791 37.2568L50.5381 36.8428C50.2849 34.8266 49.3542 33.6127 48.0625 31.9424V31.9414C46.0334 29.5358 43.6984 25.3827 43.2275 21.9824V21.9785L43.0166 20.1162C42.2595 20.1938 41.3119 20.1736 40.6494 20.1084ZM22.8604 10.4307C21.9114 11.4822 21.2209 12.679 20.5322 13.9004C19.8311 15.1438 19.1303 16.4134 18.1611 17.5449H18.1602C17.0314 18.8496 15.5087 19.9755 13.5088 20.9756C13.5746 23.3659 14.2193 25.8855 15.5156 28.2969C16.5895 30.1888 18.1158 31.7672 20.2646 33.2168H20.2637C23.0718 35.0335 26.5868 35.4639 29.8389 34.4619L29.8408 34.4609C35.7732 32.7037 39.6616 26.4652 39.4492 19.9805C35.9729 19.5687 33.2774 18.0078 31.0977 15.5908L31.0957 15.5879C29.309 13.5171 25.9234 11.2605 22.8604 10.4307ZM14.334 5.96973C13.1084 7.00842 12.1156 8.26842 11.3867 9.67578C10.4676 11.4832 10.1945 13.1853 10.1084 14.9062C10.0653 15.7685 10.0688 16.6324 10.0625 17.5205C10.0565 18.3615 10.0389 19.2218 9.96387 20.1113C11.0258 20.2366 12.3785 20.0689 12.7324 20.0234C14.7172 19.0592 16.1933 17.9874 17.2598 16.7588C18.1439 15.7265 18.8048 14.5343 19.4834 13.3252C20.1256 12.1809 20.7855 11.0235 21.6592 10.002C20.1636 9.41461 16.8649 7.9923 14.334 5.96973ZM33.7012 2.99609C30.1099 1.43234 25.9937 0.803603 22.6172 1.85059L22.6123 1.85254C19.6662 2.67423 17.2146 3.79628 15.29 5.20508C18.3647 7.39536 20.3057 8.24284 22.0312 8.86133C23.792 9.49242 25.3562 9.89451 27.6602 11.2393L28.2422 11.5947C29.5378 12.4212 30.4161 13.2289 31.2246 14.0352C32.1477 14.9556 32.9701 15.8633 34.2256 16.8066H34.2266C35.827 17.9483 37.8203 18.6351 40.1289 18.8506L40.1338 18.8516C40.1362 18.8518 40.1386 18.8523 40.1406 18.8525C40.1448 18.8531 40.1502 18.8536 40.1562 18.8545C40.169 18.8563 40.1865 18.8591 40.209 18.8623C40.2539 18.8687 40.3189 18.8776 40.4004 18.8877C40.5637 18.908 40.7951 18.9333 41.0703 18.9531C41.5864 18.9903 42.254 19.0062 42.9209 18.9375C42.7919 15.6754 43.169 12.8639 41.5547 9.67578L41.5527 9.67188C40.3263 7.04615 37.2947 4.56091 33.7012 2.99609Z" fill="#A88EC3" stroke="#A88EC3" stroke-width="0.3"/>
<path d="M50.25 14.1729C50.5814 14.1729 50.8457 14.4372 50.8457 14.7686V16.2803C50.8457 16.6116 50.5814 16.876 50.25 16.876C49.9186 16.876 49.6543 16.6116 49.6543 16.2803V14.7686C49.6543 14.4372 49.9186 14.1729 50.25 14.1729Z" fill="#A88EC3" stroke="#A88EC3" stroke-width="0.3"/>
<path d="M50.25 17.8896C50.3922 17.8897 50.5399 17.936 50.6543 18.0352C50.7717 18.137 50.8456 18.2878 50.8457 18.4746V19.9863C50.8457 20.1732 50.7717 20.3238 50.6543 20.4258C50.5399 20.5251 50.3923 20.5713 50.25 20.5713C50.1077 20.5713 49.9601 20.5251 49.8457 20.4258C49.7283 20.3238 49.6543 20.1732 49.6543 19.9863V18.4746C49.6544 18.2878 49.7283 18.137 49.8457 18.0352C49.9601 17.936 50.1078 17.8896 50.25 17.8896Z" fill="#A88EC3" stroke="#A88EC3" stroke-width="0.3"/>
<path d="M52.8613 16.7764C53.0481 16.7765 53.1989 16.8504 53.3008 16.9678C53.3999 17.0821 53.4463 17.2299 53.4463 17.3721C53.4463 17.5143 53.3999 17.662 53.3008 17.7764C53.1989 17.8937 53.0481 17.9667 52.8613 17.9668H51.3486C51.1619 17.9667 51.0111 17.8937 50.9092 17.7764C50.81 17.662 50.7637 17.5143 50.7637 17.3721C50.7637 17.2299 50.81 17.0821 50.9092 16.9678C51.0111 16.8504 51.1619 16.7765 51.3486 16.7764H52.8613Z" fill="#A88EC3" stroke="#A88EC3" stroke-width="0.3"/>
<path d="M49.1504 16.7764C49.3371 16.7765 49.488 16.8504 49.5898 16.9678C49.689 17.0821 49.7354 17.2299 49.7354 17.3721C49.7353 17.5143 49.689 17.662 49.5898 17.7764C49.488 17.8937 49.3371 17.9667 49.1504 17.9668H47.6377C47.4509 17.9667 47.3001 17.8937 47.1982 17.7764C47.0991 17.662 47.0527 17.5143 47.0527 17.3721C47.0527 17.2299 47.0991 17.0821 47.1982 16.9678C47.3001 16.8504 47.4509 16.7765 47.6377 16.7764H49.1504Z" fill="#A88EC3" stroke="#A88EC3" stroke-width="0.3"/>
<path d="M10.2656 31.8232C10.597 31.8233 10.8613 32.0876 10.8613 32.4189V33.9307C10.8613 34.262 10.597 34.5264 10.2656 34.5264C9.94689 34.5264 9.66992 34.2643 9.66992 33.9307V32.4189C9.66992 32.0876 9.93426 31.8232 10.2656 31.8232Z" fill="#A88EC3" stroke="#A88EC3" stroke-width="0.3"/>
<path d="M10.2812 35.54C10.4235 35.54 10.5712 35.5864 10.6855 35.6855C10.8029 35.7874 10.8769 35.9382 10.877 36.125V37.6396C10.8737 37.8276 10.7992 37.9789 10.6816 38.0811C10.5668 38.1809 10.4187 38.2264 10.2764 38.2256C10.1341 38.2247 9.98723 38.1775 9.87402 38.0771C9.75802 37.9743 9.68555 37.823 9.68555 37.6367V36.125C9.68563 35.9382 9.7596 35.7874 9.87695 35.6855C9.99132 35.5864 10.139 35.54 10.2812 35.54Z" fill="#A88EC3" stroke="#A88EC3" stroke-width="0.3"/>
<path d="M12.8613 34.4346C13.0481 34.4347 13.1989 34.5087 13.3008 34.626C13.3999 34.7403 13.4463 34.8881 13.4463 35.0303C13.4463 35.1725 13.3999 35.3202 13.3008 35.4346C13.1989 35.5519 13.0481 35.6249 12.8613 35.625H11.3486C11.1619 35.6249 11.0111 35.5519 10.9092 35.4346C10.81 35.3202 10.7637 35.1725 10.7637 35.0303C10.7637 34.8881 10.81 34.7403 10.9092 34.626C11.0111 34.5086 11.1619 34.4347 11.3486 34.4346H12.8613Z" fill="#A88EC3" stroke="#A88EC3" stroke-width="0.3"/>
<path d="M9.16797 34.4346C9.35486 34.4346 9.50557 34.5084 9.60742 34.626C9.70667 34.7405 9.75278 34.8886 9.75195 35.0312C9.75109 35.1738 9.70346 35.3215 9.60254 35.4355C9.49897 35.5525 9.34661 35.6249 9.1582 35.625H7.64551C7.45875 35.6249 7.30794 35.5519 7.20605 35.4346C7.10688 35.3202 7.06056 35.1725 7.06055 35.0303C7.06055 34.8881 7.1069 34.7403 7.20605 34.626C7.30794 34.5086 7.45875 34.4347 7.64551 34.4346H9.16797Z" fill="#A88EC3" stroke="#A88EC3" stroke-width="0.3"/>
<path d="M3.36719 14.1729C3.69854 14.1729 3.96289 14.4372 3.96289 14.7686V16.2803C3.96289 16.6116 3.69854 16.876 3.36719 16.876C3.03582 16.876 2.77148 16.6116 2.77148 16.2803V14.7686C2.77148 14.4372 3.03582 14.1729 3.36719 14.1729Z" fill="#A88EC3" stroke="#A88EC3" stroke-width="0.3"/>
<path d="M3.36719 17.8896C3.50941 17.8897 3.65712 17.936 3.77148 18.0352C3.88884 18.137 3.9628 18.2878 3.96289 18.4746V19.9863C3.96289 20.1732 3.88884 20.3238 3.77148 20.4258C3.65709 20.5251 3.50952 20.5713 3.36719 20.5713C3.22485 20.5713 3.0773 20.5251 2.96289 20.4258C2.84552 20.3238 2.77148 20.1732 2.77148 19.9863V18.4746C2.77157 18.2878 2.84554 18.137 2.96289 18.0352C3.07726 17.936 3.22496 17.8896 3.36719 17.8896Z" fill="#A88EC3" stroke="#A88EC3" stroke-width="0.3"/>
<path d="M5.96289 16.7764C6.14959 16.7765 6.30048 16.8505 6.40234 16.9678C6.50146 17.0821 6.54688 17.2299 6.54688 17.3721C6.54686 17.5143 6.50148 17.662 6.40234 17.7764C6.30048 17.8937 6.14959 17.9667 5.96289 17.9668H4.4502C4.26177 17.9667 4.10935 17.8944 4.00586 17.7773C3.90493 17.663 3.85743 17.515 3.85742 17.3721C3.85742 17.2291 3.90496 17.0811 4.00586 16.9668C4.10935 16.8497 4.26177 16.7764 4.4502 16.7764H5.96289Z" fill="#A88EC3" stroke="#A88EC3" stroke-width="0.3"/>
<path d="M2.25391 16.7764C2.58527 16.7764 2.84961 17.0407 2.84961 17.3721C2.84958 17.7034 2.58525 17.9668 2.25391 17.9668H0.742188C0.410841 17.9668 0.146514 17.7034 0.146484 17.3721C0.146484 17.0407 0.410823 16.7764 0.742188 16.7764H2.25391Z" fill="#A88EC3" stroke="#A88EC3" stroke-width="0.3"/>
<path d="M24.209 29.7637L24.3359 29.8057L24.3467 29.8115L24.5234 29.8984C24.9653 30.0914 25.606 30.2142 26.2822 30.2275C27.0539 30.2428 27.8432 30.1146 28.4072 29.8105L28.416 29.8057V29.8066C28.6825 29.6855 28.9898 29.7761 29.1543 30.0029L29.2158 30.1084L29.2178 30.1143C29.3243 30.3751 29.2446 30.6726 29.0186 30.8359L28.9131 30.8975C27.3093 31.6302 25.4518 31.6189 23.8496 30.8975H23.8486C23.677 30.8183 23.569 30.6879 23.5234 30.5381C23.479 30.3919 23.4968 30.2376 23.5557 30.1074C23.6145 29.9772 23.7185 29.8619 23.8564 29.7988C23.9626 29.7503 24.0834 29.7356 24.209 29.7637Z" fill="#A88EC3" stroke="#A88EC3" stroke-width="0.3"/>
<path d="M22.5703 22.4639C22.7217 22.4672 22.8627 22.5308 22.9688 22.626C23.0748 22.7213 23.1541 22.8549 23.1719 23.0059C23.1901 23.1607 23.1425 23.3217 23.0166 23.4609L23.0156 23.46C22.5127 24.0446 21.721 24.3031 20.9561 24.291C20.1911 24.2789 19.4201 23.9964 18.96 23.458V23.457C18.8363 23.3186 18.7886 23.1594 18.8066 23.0059C18.8244 22.8549 18.9037 22.7213 19.0098 22.626C19.1158 22.5308 19.2567 22.4672 19.4082 22.4639C19.5247 22.4613 19.6415 22.4947 19.7461 22.5693L19.8467 22.6582L19.8516 22.6631H19.8506C20.0674 22.9197 20.4909 23.0863 20.9502 23.0986C21.4074 23.1108 21.8579 22.9684 22.1299 22.6602L22.1328 22.6582C22.2595 22.5215 22.4151 22.4606 22.5703 22.4639Z" fill="#A88EC3" stroke="#A88EC3" stroke-width="0.3"/>
<path d="M33.334 22.4658C33.4851 22.4672 33.6254 22.5316 33.7314 22.626C33.8375 22.7205 33.917 22.8528 33.9365 23.0029C33.9564 23.1568 33.9123 23.3181 33.7891 23.458L33.7871 23.46H33.7861C33.6624 23.5949 33.0291 24.2588 31.8965 24.3047C31.2963 24.3546 30.7535 24.147 30.3691 23.9307C30.176 23.8219 30.019 23.7099 29.9111 23.6221C29.8573 23.5783 29.8143 23.5387 29.7842 23.5088C29.7699 23.4945 29.7562 23.4796 29.7451 23.4658C29.7403 23.4598 29.7304 23.4483 29.7227 23.4336C29.722 23.4323 29.7227 23.4298 29.7217 23.4277C29.6146 23.2956 29.571 23.1488 29.5879 23.0049C29.6057 22.8542 29.6848 22.7207 29.791 22.626C29.8975 22.5312 30.0393 22.4672 30.1914 22.4658C30.3449 22.4645 30.4981 22.5271 30.623 22.6621C30.6372 22.6762 31.0847 23.1433 31.8467 23.1152C32.1809 23.1009 32.4377 22.9991 32.6143 22.8955C32.7025 22.8437 32.7705 22.7913 32.8184 22.75C32.8423 22.7293 32.8617 22.7118 32.875 22.6982C32.8816 22.6916 32.8869 22.6858 32.8906 22.6816C32.8924 22.6797 32.8935 22.6779 32.8945 22.6768C32.8956 22.6756 32.8965 22.6748 32.8965 22.6748L32.9004 22.6689C33.0238 22.5289 33.1788 22.4645 33.334 22.4658Z" fill="#A88EC3" stroke="#A88EC3" stroke-width="0.3"/>
<path d="M18.1025 19.8613C19.1298 19.1606 20.8337 18.5359 22.751 18.6943L22.75 18.6953C22.9357 18.7062 23.0814 18.7869 23.1758 18.9102C23.2681 19.0308 23.3049 19.1824 23.2959 19.3252C23.2868 19.4681 23.2309 19.6143 23.123 19.7227C23.04 19.806 22.9308 19.8625 22.8018 19.8799L22.666 19.8838C19.5257 19.6711 18.1592 21.4097 18.1094 21.4678C17.9959 21.6171 17.8188 21.6963 17.6436 21.6963H17.6318L17.6201 21.6943C17.4023 21.6601 17.2255 21.5772 17.1279 21.4277C17.028 21.2744 17.0379 21.0923 17.1025 20.9219C17.2291 20.5887 17.5945 20.2079 18.1025 19.8613Z" fill="#A88EC3" stroke="#A88EC3" stroke-width="0.3"/>
<path d="M30.1299 18.6846C33.4625 18.4724 35.1726 20.1191 35.6064 20.6094L35.7148 20.7402L35.7168 20.7432C35.9097 21.0049 35.8555 21.3751 35.5947 21.5703L35.5957 21.5713L35.5928 21.5723L35.5918 21.5742L35.5908 21.5732C35.327 21.7778 34.9544 21.7228 34.7607 21.46L34.7598 21.458C34.7595 21.4577 34.7581 21.4553 34.7549 21.4512C34.7515 21.4468 34.7464 21.4411 34.7402 21.4336C34.7278 21.4184 34.7099 21.397 34.6865 21.3711C34.6398 21.3193 34.5714 21.2483 34.4805 21.165C34.2983 20.9981 34.0256 20.7824 33.6562 20.5752C32.9189 20.1614 31.7904 19.7781 30.2109 19.8848H30.209C30.0211 19.8946 29.8655 19.8307 29.7559 19.7197C29.6488 19.6114 29.5943 19.4666 29.5859 19.3242C29.5694 19.0402 29.7425 18.7194 30.126 18.6846H30.1299Z" fill="#A88EC3" stroke="#A88EC3" stroke-width="0.3"/>
<path d="M28.8896 49.5811C29.1782 49.4172 29.5387 49.5135 29.7041 49.8027C29.8692 50.0916 29.7723 50.4535 29.4824 50.6191L29.4785 50.6211C28.9896 50.8811 28.4432 51.1398 27.8691 51.2373L27.8584 51.2393H27.8467C27.4977 51.246 27.2892 50.9885 27.2539 50.7246C27.2185 50.46 27.3529 50.1569 27.6943 50.0732C28.1041 49.963 28.506 49.793 28.8896 49.5811Z" fill="#A88EC3" stroke="#A88EC3" stroke-width="0.3"/>
<path d="M21.1846 43.1611L21.2764 43.1738L21.2842 43.1748L21.292 43.1777C21.6072 43.2739 21.7866 43.6033 21.6914 43.9209L21.6924 43.9219C21.5723 44.3322 21.5121 44.7646 21.502 45.1982L21.501 45.2012C21.4872 45.518 21.2259 45.7803 20.8955 45.7803H20.8896C20.5729 45.7665 20.3107 45.505 20.3105 45.1748V45.1641L20.3125 45.1543C20.3296 45.0296 20.3359 44.8489 20.3496 44.6309C20.3629 44.4192 20.3828 44.1802 20.4277 43.9609C20.4719 43.7454 20.5446 43.5285 20.6758 43.374C20.7433 43.2946 20.8282 43.2292 20.9326 43.1924C21.0108 43.1649 21.0952 43.1546 21.1846 43.1611Z" fill="#A88EC3" stroke="#A88EC3" stroke-width="0.3"/>
<path d="M25.1123 50.0449L25.1152 50.0459C25.5367 50.1663 25.9683 50.2265 26.3994 50.2266C26.5864 50.2266 26.7377 50.2999 26.8389 50.418C26.9372 50.5329 26.9811 50.6811 26.9795 50.8232C26.9778 50.9655 26.9301 51.1127 26.8301 51.2266C26.7274 51.3433 26.5765 51.417 26.3896 51.417H26.3809L26.3721 51.416C26.2466 51.4013 26.066 51.397 25.8477 51.3857C25.6357 51.3748 25.3967 51.3573 25.1768 51.3145C24.9605 51.2723 24.7421 51.2019 24.5859 51.0723C24.5057 51.0055 24.4395 50.9213 24.4014 50.8174C24.3633 50.7135 24.356 50.5986 24.3779 50.4746L24.3799 50.4629H24.3809C24.4548 50.1795 24.7197 50.0099 24.9941 50.0264L25.1123 50.0449Z" fill="#A88EC3" stroke="#A88EC3" stroke-width="0.3"/>
<path d="M30.7158 47.7734C30.882 47.4853 31.2421 47.3901 31.5303 47.5547L31.5371 47.5586L31.5439 47.5635C31.6458 47.6372 31.7206 47.7244 31.7656 47.8252C31.8107 47.9262 31.8225 48.0321 31.8115 48.1357C31.7902 48.3371 31.6828 48.539 31.5576 48.7197C31.4303 48.9035 31.2714 49.083 31.1279 49.2393C30.9803 49.4001 30.8552 49.5311 30.7773 49.6309L30.7705 49.6387L30.7637 49.6455C30.6285 49.7773 30.4686 49.8327 30.3125 49.8223C30.1602 49.812 30.0225 49.7401 29.9219 49.6387C29.8212 49.5372 29.7503 49.3989 29.7412 49.2471C29.7319 49.0916 29.7885 48.9333 29.9209 48.8008L29.9229 48.7988C30.2322 48.4994 30.4931 48.1479 30.7158 47.7734Z" fill="#A88EC3" stroke="#A88EC3" stroke-width="0.3"/>
<path d="M22.0771 48.7119C22.2821 48.519 22.593 48.4947 22.8242 48.6484L22.918 48.7256L22.9199 48.7275C23.2207 49.0382 23.5613 49.3088 23.9316 49.5293C24.1962 49.6795 24.2595 49.9704 24.1953 50.2031C24.131 50.4357 23.927 50.653 23.623 50.6387L23.6074 50.6377L23.5928 50.6338C23.2784 50.5537 23.0027 50.3781 22.7559 50.1807C22.512 49.9856 22.2789 49.754 22.0693 49.5645L22.0605 49.5557C21.8401 49.3214 21.8401 48.9489 22.0742 48.7148L22.0771 48.7119Z" fill="#A88EC3" stroke="#A88EC3" stroke-width="0.3"/>
<path d="M26.0547 38.3926C26.1757 38.3799 26.3001 38.4075 26.415 38.4795L26.5273 38.5674L26.5293 38.5693L27.2021 39.2432C27.4368 39.4778 27.4368 39.8523 27.2021 40.0869L26.54 40.749C26.341 40.9537 26.061 40.9582 25.8535 40.8555C25.6989 40.7788 25.5676 40.6334 25.5312 40.4482C24.254 40.6846 23.1067 41.4193 22.3555 42.5244C22.2976 42.6161 22.2236 42.7426 22.1279 42.8398C22.0271 42.9423 21.8902 43.0267 21.7061 43.0195H21.7002C21.5397 43.0072 21.4056 42.9543 21.3057 42.8652C21.2055 42.7758 21.1497 42.6584 21.1309 42.5361C21.0952 42.3039 21.1884 42.0472 21.3604 41.8604C22.3396 40.4184 23.8668 39.4763 25.5566 39.2324C25.5257 39.1641 25.5078 39.093 25.5059 39.0205C25.5017 38.8626 25.5651 38.7147 25.6621 38.6035C25.7592 38.4923 25.8973 38.409 26.0547 38.3926Z" fill="#A88EC3" stroke="#A88EC3" stroke-width="0.3"/>
<path d="M26.4355 43.3994C26.7589 43.3995 27.0409 43.6563 27.0303 43.9951V45.2891C27.0303 45.508 26.9197 45.7036 26.7275 45.8135H26.7266L25.7744 46.3516C25.6115 46.4446 25.4439 46.4559 25.2969 46.4043C25.1539 46.354 25.0413 46.2482 24.9717 46.124C24.902 45.9996 24.8704 45.8471 24.9014 45.6982C24.9331 45.5459 25.0279 45.4074 25.1904 45.3145L25.8398 44.9434V43.9951C25.8398 43.6637 26.1042 43.3994 26.4355 43.3994Z" fill="#A88EC3" stroke="#A88EC3" stroke-width="0.3"/>
</svg>
