<svg width="43" height="52" viewBox="0 0 43 52" fill="none" xmlns="http://www.w3.org/2000/svg">
<path d="M4.78906 40.3163C4.78906 40.7363 5.08858 41.077 5.45789 41.077H12.1879C12.5571 41.077 12.8567 40.7363 12.8567 40.3163C12.8567 39.8962 12.5571 39.5557 12.1879 39.5557H5.45789C5.08858 39.5557 4.78906 39.8962 4.78906 40.3163Z" fill="#A88EC3"/>
<path d="M5.45789 37.4217H10.9092C11.2785 37.4217 11.578 37.0812 11.578 36.661C11.578 36.241 11.2785 35.9004 10.9092 35.9004H5.45789C5.08858 35.9004 4.78906 36.241 4.78906 36.661C4.78906 37.0812 5.08858 37.4217 5.45789 37.4217Z" fill="#A88EC3"/>
<path d="M5.45789 33.7752H10.3335C10.7028 33.7752 11.0023 33.4346 11.0023 33.0146C11.0023 32.5944 10.7028 32.2539 10.3335 32.2539H5.45789C5.08858 32.2539 4.78906 32.5944 4.78906 33.0146C4.78906 33.4346 5.08858 33.7752 5.45789 33.7752Z" fill="#A88EC3"/>
<path d="M37.761 22.7444C36.6176 22.1845 35.4551 21.9016 34.3056 21.9016C31.5428 21.9016 28.9963 23.5617 27.1896 26.5C25.3829 23.5618 22.8365 21.9016 20.0735 21.9016C19.2175 21.9016 18.3542 22.0588 17.4879 22.3746C16.8113 19.5396 15.2442 17.1328 13.9259 15.6845C14.6267 15.472 15.1453 14.7456 15.1453 13.8819V10.5306C15.1453 9.50106 14.4093 8.6643 13.5047 8.6643H11.904V4.61343H16.5755L20.6305 6.82818C20.9053 6.97846 21.1987 7.05371 21.5021 7.05371C22.2769 7.05371 22.9932 6.54059 23.3271 5.74553C23.8079 4.60091 23.3809 3.22466 22.3765 2.67898L18.0364 0.306763C17.7291 0.106066 17.38 0 17.0243 0H4.30836C3.19011 0 2.28044 1.03485 2.28044 2.30579C2.28044 3.57858 3.19011 4.61343 4.30836 4.61343H6.2262V8.6643H4.3231C3.41851 8.6643 2.68239 9.50106 2.68239 10.5306V13.8819C2.68239 14.7453 3.20083 15.4717 3.90153 15.6844C2.16385 17.5836 0.00650926 21.1084 0 25.144V48.4538C0 50.5881 0.944512 51.8112 2.59126 51.8112H15.2363C16.8833 51.8112 17.828 50.5881 17.828 48.4538V45.6791C19.8519 47.8073 22.3341 49.6645 25.1823 51.1293C25.9837 51.5415 26.5557 51.8112 27.1824 51.8112C27.8083 51.8112 28.3834 51.5398 29.1892 51.1249C36.5364 47.3456 41.4523 40.9639 42.3378 34.065C43.0576 28.9067 41.3549 24.6787 37.761 22.7444ZM4.30836 3.09116C3.92776 3.09116 3.61819 2.73909 3.61819 2.30568C3.61819 1.87314 3.92786 1.52119 4.30836 1.52119H17.0242C17.1494 1.52119 17.272 1.5593 17.3788 1.63259C17.3963 1.64413 17.4141 1.65469 17.4324 1.66537L21.7983 4.05076C22.1386 4.23567 22.2831 4.70175 22.1203 5.08909C21.9634 5.46326 21.54 5.63663 21.2085 5.45619L17.0171 3.1663C16.9268 3.11686 16.828 3.09127 16.7277 3.09127H4.30836V3.09116ZM10.5662 4.61343V8.6643H7.56395V4.61343H10.5662ZM4.02013 10.5306C4.02013 10.3439 4.15894 10.1856 4.3232 10.1856H13.5047C13.6689 10.1856 13.8077 10.3439 13.8077 10.5306V13.8819C13.8077 14.0694 13.6689 14.2269 13.5047 14.2269H4.3231C4.15884 14.2269 4.02004 14.0694 4.02004 13.8819L4.02013 10.5306ZM16.4903 48.4538C16.4903 50.0679 15.8878 50.2899 15.2364 50.2899H2.59135C1.94014 50.2899 1.33775 50.0679 1.33775 48.4538V25.1449C1.34493 20.6157 4.6634 16.576 5.97128 15.7492H11.8555C11.9173 15.7881 11.9825 15.8325 12.0523 15.8854C13.3798 16.8905 15.5242 19.7277 16.2397 22.959C14.3357 24.1079 13.0092 25.9467 12.3523 28.2415H3.1388C2.7695 28.2415 2.46998 28.5821 2.46998 29.0022V44.4045C2.46998 44.8247 2.7694 45.1652 3.1388 45.1652H15.4654C15.8347 45.1652 16.1342 44.8247 16.1342 44.4045V43.6952C16.2507 43.8478 16.3695 43.9994 16.4903 44.1499V48.4538ZM12.0402 34.0561C12.3843 36.7381 13.3345 39.3399 14.7966 41.7406V43.6439H3.80744V29.7628H12.0257C11.8286 31.0895 11.8274 32.532 12.0402 34.0561ZM41.0157 33.8358C40.0492 41.3636 33.9881 46.9863 28.638 49.7389C27.8972 50.1201 27.5113 50.2899 27.1824 50.2899C26.8549 50.2899 26.4541 50.114 25.7331 49.7424C20.3873 46.9935 14.3304 41.3709 13.3623 33.8262C12.7314 29.3065 14.1187 25.7729 17.146 24.142C18.1214 23.6652 19.1064 23.4228 20.0734 23.4228C22.6936 23.4228 25.0152 25.1538 26.6106 28.2963C26.73 28.5316 26.9508 28.6767 27.1896 28.6767C27.4286 28.6767 27.6493 28.5316 27.7687 28.2963C29.3641 25.1538 31.6856 23.4228 34.3056 23.4228C35.2726 23.4228 36.2573 23.6652 37.2107 24.1304C40.2604 25.7728 41.6476 29.3064 41.0157 33.8358Z" fill="#A88EC3"/>
<path d="M31.0268 35.4991H30.1837V34.5402C30.1837 32.3308 28.6841 31.1748 27.203 31.1748C25.7218 31.1748 24.2223 32.3308 24.2223 34.5402V35.4991H23.3797C21.4379 35.4991 20.4219 37.2042 20.4219 38.8892C20.4219 40.5742 21.4379 42.2804 23.3797 42.2804H24.2223V43.2392C24.2223 45.4486 25.7219 46.6037 27.203 46.6037C28.6841 46.6037 30.1837 45.4486 30.1837 43.2392V42.2804H31.0268C32.9499 42.2804 33.9561 40.5733 33.9561 38.8876C33.9561 38.0154 33.6971 37.1964 33.2271 36.5818C32.6855 35.8731 31.9248 35.4991 31.0268 35.4991ZM31.0268 40.759H29.5149C29.1456 40.759 28.8461 41.0996 28.8461 41.5197V43.2391C28.8461 44.5126 28.021 45.0824 27.2031 45.0824C26.3852 45.0824 25.5601 44.5128 25.5601 43.2391V41.5197C25.5601 41.0996 25.2605 40.759 24.8912 40.759H23.3798C22.2605 40.759 21.7595 39.8197 21.7595 38.8892C21.7595 37.9588 22.2605 37.0203 23.3798 37.0203H24.8912C25.2605 37.0203 25.5601 36.6799 25.5601 36.2598V34.5403C25.5601 33.2666 26.3852 32.697 27.2031 32.697C28.021 32.697 28.8461 33.2665 28.8461 34.5403V36.2598C28.8461 36.6799 29.1456 37.0203 29.5149 37.0203H31.0268C31.5334 37.0203 31.9342 37.2087 32.2179 37.5794C32.4726 37.9128 32.6185 38.3895 32.6185 38.8876C32.6185 39.5827 32.2832 40.759 31.0268 40.759Z" fill="#A88EC3"/>
</svg>
