<svg width="43" height="41" viewBox="0 0 43 41" fill="none" xmlns="http://www.w3.org/2000/svg">
<path d="M29.922 35.8953H7.75232C6.99064 35.8953 6.26315 35.5316 5.8062 34.9224L0.48558 27.8295C-0.319181 26.7567 -0.100959 25.2291 0.972111 24.4245C1.49184 24.0346 2.13217 23.8706 2.77572 23.9624C3.41893 24.0543 3.98793 24.3912 4.37774 24.911L8.96865 31.031H29.922C31.2633 31.031 32.3546 32.1221 32.3546 33.4632C32.3546 34.8042 31.2633 35.8953 29.922 35.8953ZM2.42923 25.2556C2.18984 25.2556 1.95794 25.3324 1.76312 25.4786C1.27139 25.8474 1.17139 26.5473 1.54003 27.0388L6.86073 34.1317C7.07014 34.4108 7.40336 34.5774 7.75232 34.5774H29.922C30.5366 34.5774 31.0365 34.0776 31.0365 33.4631C31.0365 32.8486 30.5366 32.3488 29.922 32.3488H8.63913C8.4317 32.3488 8.23638 32.2511 8.11191 32.0852L3.32329 25.7016C3.14461 25.4634 2.88396 25.309 2.58921 25.267C2.53575 25.2594 2.48228 25.2556 2.42923 25.2556Z" fill="#A88EC3"/>
<path d="M9.06528 40.331C8.70133 40.331 8.40625 40.0359 8.40625 39.6721V35.239C8.40625 34.8751 8.70133 34.5801 9.06528 34.5801C9.42923 34.5801 9.72432 34.8751 9.72432 35.239V39.6721C9.72432 40.0359 9.42923 40.331 9.06528 40.331Z" fill="#A88EC3"/>
<path d="M30.3622 40.331C29.9982 40.331 29.7031 40.0359 29.7031 39.6721V35.239C29.7031 34.8751 29.9982 34.5801 30.3622 34.5801C30.7261 34.5801 31.0212 34.8751 31.0212 35.239V39.6721C31.0212 40.0359 30.7261 40.331 30.3622 40.331Z" fill="#A88EC3"/>
<path d="M36.5835 40.8608H1.11216C0.748207 40.8608 0.453125 40.5658 0.453125 40.2019C0.453125 39.838 0.748207 39.543 1.11216 39.543H36.5836C36.9476 39.543 37.2426 39.838 37.2426 40.2019C37.2426 40.5658 36.9475 40.8608 36.5835 40.8608Z" fill="#A88EC3"/>
<path d="M40.0909 24.3233C40.015 24.3233 39.9391 24.3102 39.8664 24.2838L16.5207 15.8295C16.1785 15.7056 16.0015 15.3277 16.1255 14.9855L16.7512 13.2585C19.1944 6.51457 26.6697 3.01543 33.4147 5.45801L33.5344 5.50141C36.8018 6.68465 39.4128 9.06925 40.8864 12.216C42.36 15.3627 42.5197 18.8948 41.3362 22.1617L40.7105 23.8888C40.6509 24.0531 40.5286 24.187 40.3703 24.2612C40.282 24.3024 40.1866 24.3233 40.0909 24.3233ZM17.5892 14.8148L39.6957 22.8204L40.0969 21.7128C41.1605 18.7769 41.0169 15.6026 39.6927 12.7747C38.3684 9.94684 36.0218 7.80373 33.0854 6.74033L32.9656 6.69692C26.9042 4.50201 20.1862 7.64658 17.9905 13.7072L17.5892 14.8148Z" fill="#A88EC3"/>
<path d="M34.254 22.2081C34.1795 22.2081 34.1037 22.1955 34.0296 22.1686C33.6874 22.0447 33.5104 21.6668 33.6344 21.3247L34.2384 19.6575C35.3336 16.6344 35.7758 13.5907 35.4836 11.0867C35.2142 8.77798 34.3182 7.18531 33.0251 6.71707C30.198 5.69304 25.9749 9.88857 23.8047 15.8791L23.2007 17.5463C23.0767 17.8884 22.6988 18.0652 22.3566 17.9414C22.0144 17.8174 21.8375 17.4396 21.9615 17.0974L22.5655 15.4302C25.0623 8.53855 29.8533 4.16717 33.474 5.47799C35.2799 6.13196 36.4585 8.06965 36.7928 10.934C37.1083 13.6371 36.6412 16.8946 35.4776 20.1063L34.8736 21.7735C34.7766 22.0415 34.5236 22.2081 34.254 22.2081Z" fill="#A88EC3"/>
<path d="M20.9013 40.8583C20.8269 40.8583 20.7511 40.8456 20.677 40.8188C20.3348 40.6949 20.1578 40.3171 20.2818 39.9749L32.6376 5.86617C32.6404 5.85835 32.6433 5.85069 32.6465 5.84303L33.242 4.19839C33.366 3.85625 33.7438 3.67933 34.086 3.80321C34.4282 3.92708 34.6053 4.30489 34.4814 4.64711L33.8777 6.31407C33.8748 6.32189 33.8718 6.32964 33.8687 6.33738L21.5211 40.4235C21.424 40.6916 21.171 40.8583 20.9013 40.8583Z" fill="#A88EC3"/>
<path d="M7.75707 12.848C4.94876 12.848 2.66406 10.5637 2.66406 7.75604C2.66406 4.94834 4.94876 2.66406 7.75707 2.66406C10.5653 2.66406 12.85 4.94834 12.85 7.75604C12.85 10.5637 10.5654 12.848 7.75707 12.848ZM7.75707 3.98188C5.67559 3.98188 3.98213 5.67495 3.98213 7.75604C3.98213 9.83713 5.67559 11.5302 7.75707 11.5302C9.83854 11.5302 11.5319 9.83713 11.5319 7.75604C11.5319 5.67495 9.83854 3.98188 7.75707 3.98188Z" fill="#A88EC3"/>
<path d="M7.74497 3.97776C7.38102 3.97776 7.08594 3.68273 7.08594 3.31885V0.658911C7.08594 0.295027 7.38102 0 7.74497 0C8.10892 0 8.404 0.295027 8.404 0.658911V3.31877C8.404 3.68273 8.109 3.97776 7.74497 3.97776Z" fill="#A88EC3"/>
<path d="M7.74497 15.5011C7.38102 15.5011 7.08594 15.2061 7.08594 14.8422V12.1823C7.08594 11.8185 7.38102 11.5234 7.74497 11.5234C8.10892 11.5234 8.404 11.8185 8.404 12.1823V14.8422C8.404 15.2061 8.109 15.5011 7.74497 15.5011Z" fill="#A88EC3"/>
<path d="M10.8857 5.27863C10.7169 5.27863 10.5483 5.2143 10.4196 5.08565C10.1622 4.82834 10.1622 4.41117 10.4196 4.15387L12.3008 2.27309C12.5582 2.0157 12.9754 2.01578 13.2327 2.27309C13.4902 2.53039 13.4902 2.94756 13.2327 3.20487L11.3516 5.08565C11.223 5.2143 11.0543 5.27863 10.8857 5.27863Z" fill="#A88EC3"/>
<path d="M2.74503 13.429C2.57632 13.429 2.40769 13.3647 2.27901 13.236C2.02158 12.9787 2.02158 12.5615 2.27901 12.3042L4.16014 10.4234C4.41758 10.1661 4.83491 10.1661 5.0921 10.4234C5.34953 10.6808 5.34953 11.0979 5.0921 11.3552L3.21097 13.236C3.08237 13.3647 2.91366 13.429 2.74503 13.429Z" fill="#A88EC3"/>
<path d="M14.835 8.41157H12.1747C11.8107 8.41157 11.5156 8.11654 11.5156 7.75266C11.5156 7.38878 11.8107 7.09375 12.1747 7.09375H14.835C15.199 7.09375 15.494 7.38878 15.494 7.75266C15.494 8.11654 15.199 8.41157 14.835 8.41157Z" fill="#A88EC3"/>
<path d="M3.31938 8.41157H0.659033C0.295082 8.41157 0 8.11654 0 7.75266C0 7.38878 0.295082 7.09375 0.659033 7.09375H3.31938C3.68333 7.09375 3.97841 7.38878 3.97841 7.75266C3.97841 8.11654 3.68333 8.41157 3.31938 8.41157Z" fill="#A88EC3"/>
<path d="M12.7668 13.429C12.5982 13.429 12.4294 13.3647 12.3008 13.236L10.4196 11.3552C10.1622 11.0979 10.1622 10.6808 10.4196 10.4234C10.677 10.1661 11.0942 10.1661 11.3516 10.4234L13.2327 12.3042C13.4902 12.5615 13.4902 12.9787 13.2327 13.236C13.1041 13.3647 12.9355 13.429 12.7668 13.429Z" fill="#A88EC3"/>
<path d="M4.62616 5.27859C4.45753 5.27859 4.28882 5.21427 4.16014 5.08562L2.27901 3.20484C2.02158 2.94753 2.02158 2.53036 2.27901 2.27306C2.53637 2.01575 2.95362 2.01575 3.21097 2.27306L5.0921 4.15383C5.34953 4.41114 5.34953 4.82831 5.0921 5.08562C4.9635 5.21427 4.79487 5.27859 4.62616 5.27859Z" fill="#A88EC3"/>
</svg>
