<svg width="44" height="64" viewBox="0 0 44 64" fill="none" xmlns="http://www.w3.org/2000/svg">
<path d="M23.9672 20.4596V19.85C23.9672 19.8271 23.9672 19.8043 23.9672 19.7738V10.3327L26.5952 11.8338C26.8795 11.9938 27.2407 11.8947 27.402 11.6204L28.7698 9.27348C28.8467 9.13633 28.8697 8.97631 28.8313 8.82391C28.7852 8.67151 28.693 8.54197 28.5547 8.46577L25.9267 6.96464L28.5547 5.46351C28.693 5.38731 28.7852 5.25777 28.8313 5.10537C28.8774 4.95297 28.8467 4.79295 28.7698 4.65579L27.402 2.30885C27.3252 2.17169 27.1946 2.08025 27.0409 2.03453C26.8949 1.99643 26.7258 2.01167 26.5952 2.09549L23.9672 3.59662V0.586736C23.9672 0.259078 23.6982 0 23.3755 0H20.6399C20.3095 0 20.0482 0.266698 20.0482 0.586736V3.59662L17.4202 2.09549C17.2819 2.01929 17.1205 1.99643 16.9668 2.03453C16.8131 2.07263 16.6825 2.17169 16.6133 2.30885L15.2455 4.65579C15.1687 4.79295 15.1533 4.95297 15.1841 5.10537C15.2302 5.25015 15.3301 5.38731 15.4607 5.46351L18.0887 6.96464L15.4607 8.46577C15.3301 8.54197 15.2302 8.67151 15.1841 8.82391C15.1457 8.97631 15.1687 9.13633 15.2455 9.27348L16.6133 11.6204C16.7747 11.9024 17.1359 11.9938 17.4202 11.8338L20.0482 10.3327V19.7738C20.0482 19.7966 20.0482 19.8119 20.0482 19.8347V20.4596C8.8292 21.4502 0 30.8151 0 42.1841C0 53.553 9.87426 64 22 64C34.1257 64 44 54.2084 44 42.1841C44 30.1598 35.1708 21.4426 23.9518 20.4596H23.9672ZM22.0077 60.1214C11.9951 60.1214 3.91897 52.1129 3.91897 42.1841C3.91897 32.2553 11.9951 24.2467 22.0077 24.2467C32.0203 24.2467 40.0964 32.2553 40.0964 42.1841C40.0964 52.1129 32.0203 60.1214 22.0077 60.1214Z" fill="#A88EC3"/>
</svg>
