<svg width="34" height="34" viewBox="0 0 34 34" fill="none" xmlns="http://www.w3.org/2000/svg">
<path d="M28.0372 22.8147L26.6281 25.5964L25.8982 25.2597C25.7586 25.1953 25.5993 25.188 25.4544 25.2393C25.3094 25.2906 25.1903 25.3965 25.1223 25.5345L21.6686 32.5418C21.6315 32.6115 21.6088 32.6879 21.6019 32.7665C21.5949 32.8452 21.6039 32.9244 21.6281 32.9995C21.6523 33.0746 21.6914 33.1441 21.743 33.2039C21.7946 33.2636 21.8577 33.3124 21.9285 33.3473C21.9993 33.3822 22.0764 33.4025 22.1552 33.4071C22.234 33.4116 22.3129 33.4003 22.3872 33.3738C22.4616 33.3473 22.5298 33.3061 22.588 33.2527C22.6461 33.1993 22.6929 33.1348 22.7257 33.063L25.9259 26.571L32.4666 29.5897L31.087 32.5571C31.0212 32.6989 31.0144 32.8611 31.0682 33.0079C31.1219 33.1548 31.2318 33.2742 31.3736 33.3401C31.4513 33.3765 31.536 33.3952 31.6218 33.3949C31.7342 33.3951 31.8444 33.3631 31.9392 33.3027C32.0341 33.2423 32.1097 33.1561 32.1571 33.0541L33.7855 29.5502C33.8184 29.4796 33.837 29.4031 33.8402 29.3253C33.8434 29.2474 33.8311 29.1697 33.8041 29.0966C33.7771 29.0235 33.7358 28.9565 33.6828 28.8995C33.6297 28.8424 33.5658 28.7965 33.4949 28.7643L32.097 28.1192L33.3422 25.3482C33.4052 25.2076 33.4108 25.048 33.3577 24.9035C33.3046 24.7589 33.197 24.6409 33.058 24.5746L32.6706 24.3895L33.5226 22.3088C33.5789 22.1716 33.5814 22.0181 33.5296 21.8791C33.4778 21.7401 33.3755 21.6258 33.2431 21.5588L30.7262 20.2871C30.5878 20.2171 30.4274 20.2045 30.2797 20.2519C30.1321 20.2994 30.0091 20.4031 29.9374 20.5406L28.8761 22.58L28.8172 22.5511C28.6785 22.4846 28.5193 22.475 28.3735 22.5242C28.2278 22.5734 28.1071 22.6777 28.0372 22.8147ZM27.6993 26.0899L28.8284 23.8612L32.0327 25.3888L31.0304 27.6252L27.6993 26.0899ZM30.7168 21.6001L32.2273 22.3666L31.6082 23.8789L29.9439 23.0853L30.7168 21.6001Z" fill="#A88EC3"/>
<path d="M24.471 31.4069L24.0807 32.1988C24.0155 32.3384 24.0076 32.4981 24.0587 32.6435C24.1098 32.7889 24.2158 32.9085 24.354 32.9768C24.4922 33.045 24.6516 33.0564 24.7981 33.0085C24.9446 32.9606 25.0666 32.8572 25.1378 32.7206L25.5281 31.9287C25.5933 31.7891 25.6011 31.6294 25.5501 31.484C25.499 31.3386 25.393 31.219 25.2548 31.1507C25.1166 31.0825 24.9571 31.0711 24.8106 31.119C24.6641 31.1669 24.5422 31.2703 24.471 31.4069Z" fill="#A88EC3"/>
<path d="M25.3207 31.0177C25.4609 31.0868 25.6229 31.0974 25.771 31.047C25.919 30.9967 26.041 30.8897 26.1101 30.7494L27.0134 28.9187C27.0496 28.8491 27.0717 28.7729 27.0781 28.6947C27.0846 28.6164 27.0753 28.5377 27.0509 28.4631C27.0265 28.3884 26.9875 28.3194 26.9361 28.2601C26.8846 28.2008 26.8219 28.1523 26.7515 28.1175C26.6811 28.0828 26.6044 28.0624 26.5261 28.0577C26.4477 28.053 26.3692 28.0639 26.2951 28.09C26.221 28.116 26.1529 28.1566 26.0947 28.2093C26.0365 28.262 25.9894 28.3258 25.9563 28.3969L25.053 30.2282C24.9839 30.3684 24.9732 30.5303 25.0234 30.6784C25.0736 30.8264 25.1805 30.9485 25.3207 31.0177Z" fill="#A88EC3"/>
<path d="M5.81754 23.0135C6.69678 25.1653 8.10666 27.0594 9.91569 28.5191V32.9917C9.91569 33.1481 9.9778 33.2981 10.0884 33.4086C10.1989 33.5192 10.3489 33.5813 10.5053 33.5813C10.6616 33.5813 10.8116 33.5192 10.9222 33.4086C11.0327 33.2981 11.0948 33.1481 11.0948 32.9917V29.3056C12.0476 29.8521 13.0783 30.2497 14.1512 30.4848C14.2349 30.5029 14.3216 30.5029 14.4053 30.4848C15.482 30.2499 16.516 29.8506 17.4711 29.3009V32.9923C17.4711 33.1487 17.5332 33.2987 17.6438 33.4092C17.7544 33.5198 17.9043 33.5819 18.0607 33.5819C18.2171 33.5819 18.367 33.5198 18.4776 33.4092C18.5882 33.2987 18.6503 33.1487 18.6503 32.9923V28.5002C19.8144 27.5876 20.8077 26.476 21.584 25.2168C21.6673 25.0844 21.6945 24.9244 21.6598 24.7719C21.6251 24.6194 21.5312 24.487 21.3989 24.4037C21.2665 24.3205 21.1065 24.2932 20.954 24.3279C20.8015 24.3626 20.6691 24.4565 20.5858 24.5889C19.9055 25.7589 18.9962 26.7797 17.9122 27.5901C16.8283 28.4005 15.592 28.984 14.2774 29.3056C10.9805 28.5309 8.47771 26.2108 6.83751 22.4091C6.00273 20.3965 5.44634 18.2794 5.18375 16.1164C6.48081 14.3606 8.88982 11.099 10.8732 8.4635C11.6255 8.24417 15.1635 7.55671 19.7097 12.3017C21.1972 13.8953 22.7758 15.4013 24.4376 16.8121C24.5587 16.911 24.7142 16.9576 24.8698 16.9418C25.0253 16.926 25.1683 16.849 25.2671 16.7278C25.3659 16.6066 25.4125 16.4512 25.3967 16.2956C25.3809 16.14 25.304 15.9971 25.1828 15.8983C23.5587 14.5177 22.0156 13.0446 20.5611 11.4863C17.0301 7.79962 13.9543 7.11097 12.1101 7.12336C12.8555 6.50169 13.7271 6.04951 14.6646 5.79815C15.6021 5.54679 16.5831 5.50226 17.5395 5.66765C17.6908 5.69922 17.8485 5.67011 17.9785 5.5866C18.1086 5.50308 18.2006 5.37183 18.2349 5.2211C18.2691 5.07038 18.2428 4.91224 18.1616 4.78072C18.0804 4.64921 17.9508 4.55485 17.8007 4.51795C16.3479 4.25106 14.8492 4.39919 13.4767 4.94534C12.1043 5.49149 10.9136 6.41352 10.0413 7.60564C7.18064 11.4056 3.34427 16.6264 3.30712 16.6801C3.24327 16.7677 3.20481 16.8712 3.19596 16.9792C3.18711 17.0873 3.20822 17.1957 3.25696 17.2925C3.30571 17.3893 3.38021 17.4708 3.47227 17.5281C3.56433 17.5853 3.67039 17.616 3.77878 17.6169C3.93256 17.6124 4.07834 17.5474 4.18441 17.4359C4.37115 18.5378 4.62954 19.6263 4.95794 20.6946C2.57369 18.3527 1.38628 15.8216 1.42932 13.1478C1.5325 6.68882 8.72651 1.36952 8.79903 1.31646C8.92545 1.22435 9.01011 1.0858 9.03438 0.931281C9.05865 0.776759 9.02054 0.618925 8.92844 0.4925C8.83634 0.366075 8.69779 0.281415 8.54328 0.257145C8.38876 0.232875 8.23093 0.270983 8.10451 0.363084C7.78908 0.593025 0.366315 6.07506 0.251347 13.1231C0.192389 16.7266 2.06901 20.0537 5.81754 23.0135Z" fill="#A88EC3" stroke="#A88EC3" stroke-width="0.5"/>
<path d="M26.1792 17.2608C26.144 17.3302 26.123 17.4059 26.1172 17.4835C26.1115 17.5611 26.1211 17.639 26.1456 17.7128C26.1701 17.7867 26.209 17.8549 26.26 17.9137C26.311 17.9724 26.3732 18.0205 26.4428 18.0551C26.5125 18.0897 26.5883 18.1102 26.6659 18.1154C26.7435 18.1206 26.8214 18.1103 26.8951 18.0853C26.9687 18.0602 27.0367 18.0208 27.095 17.9694C27.1534 17.9179 27.201 17.8555 27.2351 17.7855C31.7383 8.71466 20.5729 0.445627 20.4585 0.363084C20.3321 0.270983 20.1742 0.232875 20.0197 0.257145C19.8652 0.281415 19.7267 0.366075 19.6346 0.4925C19.5425 0.618925 19.5044 0.776759 19.5286 0.931281C19.5529 1.0858 19.6376 1.22435 19.764 1.31646C19.8695 1.3931 30.239 9.08316 26.1792 17.2608Z" fill="#A88EC3" stroke="#A88EC3" stroke-width="0.5"/>
<path d="M7.61893 17.0192C7.50135 17.1223 7.42953 17.2678 7.41925 17.4238C7.40896 17.5798 7.46107 17.7335 7.5641 17.8511C7.86737 18.2085 8.246 18.4943 8.67281 18.688C9.09961 18.8817 9.56401 18.9784 10.0327 18.9714C10.9272 18.9524 11.7985 18.6832 12.5478 18.1943C12.6781 18.1078 12.7688 17.9731 12.7998 17.8198C12.8308 17.6665 12.7996 17.5072 12.7132 17.3768C12.6267 17.2465 12.492 17.1558 12.3387 17.1248C12.1854 17.0938 12.026 17.125 11.8957 17.2114C11.809 17.2704 9.77324 18.5805 8.45082 17.0717C8.34744 16.9545 8.20173 16.8831 8.04574 16.8732C7.88974 16.8634 7.73622 16.9159 7.61893 17.0192Z" fill="#A88EC3"/>
<path d="M20.9979 17.8515C21.0918 17.7331 21.1367 17.583 21.1232 17.4324C21.1097 17.2818 21.0389 17.1422 20.9253 17.0423C20.8118 16.9425 20.6642 16.8901 20.5131 16.896C20.362 16.9018 20.219 16.9655 20.1135 17.0739C18.7899 18.5815 16.7565 17.2714 16.6686 17.2142C16.5384 17.1339 16.3822 17.1073 16.2328 17.1401C16.0834 17.1729 15.9526 17.2624 15.868 17.3898C15.7834 17.5172 15.7516 17.6725 15.7793 17.8229C15.807 17.9732 15.8921 18.107 16.0165 18.1959C16.7658 18.6849 17.6371 18.9541 18.5317 18.9729C19 18.9795 19.464 18.8824 19.8904 18.6885C20.3168 18.4946 20.695 18.2088 20.9979 17.8515Z" fill="#A88EC3"/>
<path d="M14.2693 22.8109H14.2993C14.5531 22.8051 14.8029 22.7472 15.0333 22.6408C15.2638 22.5344 15.4699 22.3818 15.6389 22.1924C15.6931 22.1371 15.7358 22.0716 15.7647 21.9998C15.7936 21.9279 15.8081 21.8511 15.8073 21.7737C15.8065 21.6962 15.7905 21.6197 15.7601 21.5485C15.7297 21.4772 15.6856 21.4126 15.6303 21.3584C15.575 21.3042 15.5095 21.2615 15.4377 21.2326C15.3658 21.2037 15.289 21.1892 15.2116 21.19C15.1341 21.1908 15.0576 21.2068 14.9863 21.2372C14.9151 21.2676 14.8505 21.3117 14.7963 21.367C14.7352 21.4417 14.6598 21.5035 14.5746 21.5488C14.4894 21.5941 14.396 21.6221 14.2999 21.6311C14.1024 21.6109 13.9185 21.5216 13.7805 21.3788C13.7282 21.3217 13.6651 21.2755 13.5949 21.2427C13.5247 21.21 13.4487 21.1914 13.3713 21.1881C13.2939 21.1847 13.2167 21.1966 13.1439 21.2231C13.0711 21.2496 13.0042 21.2902 12.9471 21.3425C12.89 21.3949 12.8438 21.4579 12.8111 21.5282C12.7784 21.5984 12.7598 21.6743 12.7564 21.7517C12.753 21.8291 12.765 21.9064 12.7915 21.9792C12.818 22.052 12.8585 22.1188 12.9109 22.1759C13.266 22.5533 13.752 22.7805 14.2693 22.8109Z" fill="#A88EC3"/>
<path d="M12.1235 25.7891C12.7931 26.2629 13.5887 26.5265 14.4087 26.5461C14.8024 26.5522 15.1934 26.4805 15.5593 26.3352C15.9252 26.19 16.2589 25.9739 16.5412 25.6995C16.5954 25.6433 16.638 25.577 16.6664 25.5043C16.6948 25.4317 16.7084 25.3541 16.7066 25.2761C16.7048 25.1981 16.6875 25.1212 16.6558 25.0499C16.624 24.9786 16.5785 24.9144 16.5217 24.8608C16.4649 24.8073 16.3981 24.7656 16.3251 24.7381C16.2521 24.7105 16.1743 24.6978 16.0963 24.7006C16.0183 24.7033 15.9417 24.7215 15.8708 24.7542C15.7999 24.7868 15.7362 24.8331 15.6834 24.8905C15.6733 24.9017 14.5962 26.0072 12.7744 24.8027C12.6439 24.7228 12.4876 24.6968 12.3383 24.73C12.189 24.7633 12.0584 24.8533 11.9743 24.9811C11.8901 25.1088 11.8588 25.2642 11.8871 25.4146C11.9154 25.5649 12.001 25.6983 12.1259 25.7867L12.1235 25.7891Z" fill="#A88EC3"/>
<path d="M9.05752 14.8794C9.19857 14.7396 9.3659 14.6293 9.54986 14.5546C9.73381 14.48 9.93074 14.4425 10.1293 14.4444C10.3278 14.4463 10.5239 14.4876 10.7064 14.5658C10.8889 14.644 11.0541 14.7576 11.1924 14.9C11.3105 14.9969 11.4616 15.0441 11.6139 15.0317C11.7662 15.0194 11.9077 14.9484 12.0087 14.8337C12.1096 14.7191 12.1622 14.5697 12.1552 14.4171C12.1482 14.2645 12.0822 14.1206 11.9712 14.0156C11.4681 13.5327 10.7966 13.2647 10.0993 13.2686C9.40188 13.2724 8.73343 13.5478 8.23566 14.0362C8.17759 14.0896 8.13081 14.154 8.09809 14.2258C8.06537 14.2975 8.04737 14.3751 8.04515 14.4539C8.04294 14.5327 8.05655 14.6112 8.08519 14.6846C8.11383 14.7581 8.15692 14.825 8.21189 14.8816C8.26687 14.9381 8.33262 14.983 8.40526 15.0137C8.47791 15.0443 8.55596 15.0601 8.6348 15.06C8.71365 15.06 8.79168 15.0441 8.86429 15.0134C8.9369 14.9827 9.00261 14.9377 9.05752 14.8811V14.8794Z" fill="#A88EC3"/>
<path d="M17.3907 14.8794C17.5317 14.7396 17.6991 14.6293 17.883 14.5546C18.067 14.48 18.2639 14.4425 18.4624 14.4444C18.6609 14.4463 18.8571 14.4876 19.0396 14.5658C19.2221 14.644 19.3872 14.7576 19.5255 14.9C19.6438 14.9953 19.7944 15.0412 19.9457 15.0283C20.0971 15.0153 20.2376 14.9444 20.338 14.8303C20.4383 14.7163 20.4908 14.5679 20.4844 14.4161C20.4781 14.2643 20.4133 14.1208 20.3038 14.0156C19.8006 13.5327 19.1292 13.2647 18.4318 13.2686C17.7344 13.2724 17.066 13.5478 16.5682 14.0362C16.4582 14.1457 16.3958 14.2942 16.3945 14.4495C16.3933 14.6047 16.4534 14.7542 16.5617 14.8654C16.6699 14.9767 16.8177 15.0407 16.9729 15.0436C17.1281 15.0466 17.2783 14.9882 17.3907 14.8811V14.8794Z" fill="#A88EC3"/>
<path d="M24.4225 18.0068L23.0335 17.3866C22.891 17.3241 22.7297 17.3204 22.5845 17.3764C22.4394 17.4323 22.3222 17.5434 22.2586 17.6854C22.195 17.8273 22.19 17.9887 22.2448 18.1342C22.2996 18.2798 22.4098 18.3979 22.5512 18.4626L23.942 19.0828C24.0847 19.1469 24.247 19.1516 24.3932 19.096C24.5393 19.0404 24.6574 18.929 24.7214 18.7863C24.7855 18.6436 24.7902 18.4813 24.7346 18.3351C24.679 18.189 24.5676 18.0709 24.4249 18.0068H24.4225Z" fill="#A88EC3"/>
<path d="M26.2757 18.8397C26.1332 18.7772 25.9718 18.7735 25.8267 18.8295C25.6816 18.8855 25.5644 18.9965 25.5008 19.1385C25.4372 19.2804 25.4322 19.4418 25.487 19.5874C25.5418 19.733 25.652 19.851 25.7934 19.9157L27.7797 20.8072C27.8552 20.8414 27.9373 20.8591 28.0202 20.8591C28.1553 20.8593 28.2864 20.8132 28.3916 20.7284C28.4968 20.6435 28.5696 20.5252 28.5979 20.393C28.6262 20.2609 28.6083 20.1231 28.5472 20.0026C28.486 19.8821 28.3853 19.7863 28.262 19.7312L26.2757 18.8397Z" fill="#A88EC3"/>
<path d="M21.0132 20.2956C20.9937 20.3705 20.9891 20.4486 20.9997 20.5253C21.0104 20.602 21.036 20.6759 21.0752 20.7427C21.1144 20.8095 21.1664 20.8679 21.2282 20.9146C21.29 20.9613 21.3604 20.9954 21.4353 21.0149L22.9971 21.4223C23.0731 21.445 23.1529 21.4522 23.2317 21.4434C23.3105 21.4346 23.3868 21.4099 23.4558 21.371C23.5249 21.332 23.5854 21.2795 23.6337 21.2166C23.6821 21.1537 23.7172 21.0817 23.737 21.0049C23.7569 20.9282 23.761 20.8481 23.7492 20.7697C23.7374 20.6913 23.7099 20.616 23.6684 20.5485C23.6268 20.4809 23.572 20.4225 23.5074 20.3766C23.4427 20.3307 23.3694 20.2983 23.2919 20.2814L21.7301 19.874C21.5792 19.8352 21.419 19.8578 21.2847 19.9368C21.1503 20.0158 21.0527 20.1448 21.0132 20.2956Z" fill="#A88EC3"/>
<path d="M26.7066 22.368C26.8501 22.3681 26.9887 22.3159 27.0965 22.2212C27.2043 22.1264 27.2738 21.9956 27.292 21.8533C27.3102 21.7109 27.2759 21.5668 27.1955 21.448C27.1151 21.3291 26.9941 21.2437 26.8552 21.2077L25.2391 20.7855C25.1632 20.7628 25.0834 20.7556 25.0045 20.7644C24.9257 20.7732 24.8495 20.7978 24.7804 20.8368C24.7113 20.8758 24.6508 20.9283 24.6025 20.9911C24.5542 21.054 24.5191 21.126 24.4992 21.2028C24.4794 21.2796 24.4752 21.3596 24.487 21.4381C24.4988 21.5165 24.5263 21.5917 24.5679 21.6593C24.6094 21.7268 24.6642 21.7853 24.7289 21.8312C24.7936 21.8771 24.8669 21.9095 24.9443 21.9264L26.5616 22.3485C26.6089 22.3609 26.6576 22.3675 26.7066 22.368Z" fill="#A88EC3"/>
<path d="M20.842 23.2308L22.053 23.4584C22.0891 23.4652 22.1258 23.4686 22.1626 23.4684C22.3096 23.4684 22.4512 23.4134 22.5597 23.3144C22.6682 23.2153 22.7359 23.0793 22.7494 22.933C22.7629 22.7867 22.7213 22.6407 22.6327 22.5234C22.5441 22.4062 22.415 22.3263 22.2705 22.2993L21.0601 22.0717C20.9064 22.0428 20.7475 22.0761 20.6184 22.1643C20.4892 22.2526 20.4004 22.3885 20.3715 22.5422C20.3426 22.6959 20.3759 22.8548 20.4641 22.984C20.5524 23.1131 20.6883 23.2019 20.842 23.2308Z" fill="#A88EC3"/>
<path d="M23.6574 22.5609C23.5813 22.5466 23.5032 22.5475 23.4274 22.5634C23.3516 22.5793 23.2797 22.61 23.2158 22.6537C23.1519 22.6975 23.0972 22.7533 23.0548 22.8182C23.0125 22.883 22.9834 22.9556 22.9691 23.0317C22.9548 23.1078 22.9557 23.186 22.9716 23.2618C22.9875 23.3375 23.0182 23.4095 23.0619 23.4734C23.1502 23.6025 23.2862 23.6912 23.4399 23.72L25.4344 24.095C25.4706 24.1018 25.5073 24.1052 25.5441 24.105C25.6909 24.1047 25.8323 24.0495 25.9406 23.9504C26.0489 23.8512 26.1163 23.7153 26.1297 23.569C26.143 23.4228 26.1013 23.2769 26.0128 23.1598C25.9242 23.0427 25.7951 22.9628 25.6508 22.9359L23.6574 22.5609Z" fill="#A88EC3"/>
</svg>
