<svg width="39" height="46" viewBox="0 0 39 46" fill="none" xmlns="http://www.w3.org/2000/svg">
<path d="M24.0684 36.126C24.0672 36.1275 24.0672 36.1298 24.0664 36.1309C24.0652 36.1324 24.0639 36.1333 24.0635 36.1338C24.0641 36.1331 24.0654 36.1296 24.0684 36.126ZM24.0684 36.126C24.071 36.1225 24.0755 36.1182 24.0791 36.1123L24.0781 36.1113C24.0554 36.1499 24.0305 36.1839 24.0039 36.2129L23.9766 36.2393C23.9468 36.2678 23.914 36.2945 23.877 36.3174C23.8783 36.3165 23.8798 36.3161 23.8809 36.3154M24.0459 20.1719L24.0449 20.1699C24.0449 20.1699 24.0452 20.171 24.0459 20.1719C24.0465 20.1727 24.0476 20.1741 24.0488 20.1758C24.051 20.1788 24.054 20.1837 24.0576 20.1895L24.0596 20.1914L24.0635 20.1973C25.3829 22.5827 26.0791 25.3401 26.0791 28.1709C26.0791 30.9777 25.3934 33.7151 24.0947 36.0869C24.0935 36.0893 24.0909 36.0921 24.0889 36.0957L24.0898 36.0967C24.0835 36.108 24.0768 36.1171 24.0723 36.123C24.0713 36.1243 24.0692 36.1249 24.0684 36.126M22.9863 18.9902L22.9873 18.9912C22.9853 18.9963 22.9833 19.0002 22.9824 19.002L22.9814 19.0029L22.9863 18.9932V18.9902ZM23.8809 36.3154L23.8633 36.3271L23.7959 36.3594C23.7736 36.3685 23.7514 36.3756 23.7295 36.3818C23.7191 36.3848 23.7104 36.3878 23.7061 36.3887C23.705 36.3889 23.7039 36.3885 23.7031 36.3887L23.7012 36.3896H23.7002C23.664 36.398 23.6261 36.403 23.5869 36.4043C23.5963 36.404 23.6035 36.403 23.6074 36.4023H23.6113C23.6102 36.4026 23.6038 36.4033 23.5967 36.4043C23.5891 36.4054 23.5778 36.4072 23.5645 36.4072C23.552 36.4072 23.5417 36.4062 23.5352 36.4053L23.5293 36.4043C23.5324 36.4047 23.5371 36.404 23.543 36.4043L23.4492 36.3936L23.4482 36.3926C23.4474 36.3925 23.4463 36.3927 23.4453 36.3926C23.4398 36.3917 23.4277 36.3895 23.4131 36.3857C23.4196 36.3874 23.4253 36.3891 23.4287 36.3896C23.4304 36.3899 23.4319 36.3905 23.4326 36.3906C23.4318 36.3905 23.429 36.3902 23.4258 36.3896C23.4214 36.3889 23.4147 36.3876 23.4072 36.3857L23.4004 36.3838V36.3828L21.8682 35.9473L22.9199 37.0947L22.9219 37.0967C22.9754 37.1553 23.0148 37.2231 23.041 37.2949C23.0406 37.2939 23.0404 37.2929 23.04 37.292C23.0414 37.2953 23.0435 37.2994 23.0449 37.3037H23.0439C23.0923 37.4433 23.0871 37.5975 23.0264 37.7373L23.0283 37.7383C23.0304 37.7332 23.0314 37.7282 23.0322 37.7256C23.0326 37.7244 23.033 37.7233 23.0332 37.7227V37.7236C23.033 37.7244 23.0327 37.726 23.0322 37.7275C23.0313 37.7305 23.0295 37.7349 23.0273 37.7402L23.0234 37.75L22.96 37.8574H22.959C22.5489 38.4074 22.1056 38.9164 21.6377 39.3877C23.7092 40.4569 26.2194 40.2368 28.0928 38.7617L28.0996 38.7568L30.209 37.2285C33.3805 34.9305 35.4897 31.4236 35.998 27.6104C36.0833 26.9715 36.126 26.406 36.126 25.9287C36.126 25.5449 36.1175 25.1581 36.1006 24.7803V24.7793L35.9678 22.8096C35.3897 22.2852 34.8336 21.7374 34.3145 21.1738C34.0905 20.9307 34.1058 20.5522 34.3486 20.3281L34.3496 20.3271C34.5927 20.1051 34.9702 20.1193 35.1943 20.3623V20.3633C35.5703 20.7716 35.9671 21.1716 36.3779 21.5605C36.9147 20.0695 37.8228 16.6592 36.4678 13.3311C36.367 13.0829 36.446 12.8076 36.6426 12.6455L36.4902 12.3418C36.4436 12.3531 36.3965 12.3603 36.3496 12.3604C36.1485 12.3604 35.9506 12.2579 35.8379 12.0723C33.8513 8.80754 30.5767 8.64043 29.4258 8.69141C29.2387 8.9521 28.8791 9.02119 28.6094 8.84082C28.4598 8.74095 26.511 7.47007 23.7871 7.01855C21.0719 6.56849 17.5871 6.93186 14.3291 10.0928C14.2099 10.2085 14.0905 10.3286 13.9717 10.4521C13.8542 10.5739 13.6974 10.6356 13.541 10.6357C13.4504 10.6357 13.3606 10.6123 13.2773 10.5713L12.917 10.9834C13.0658 11.1897 13.0734 11.4748 12.9131 11.6895L12.6816 12.0117L12.5068 12.2705C12.3368 12.5314 12.179 12.7969 12.0371 13.0635L12.0381 13.0645C11.998 13.1398 11.9428 13.2022 11.8799 13.252C12.2304 13.2189 12.5838 13.2012 12.9395 13.2012C16.779 13.2012 20.4108 15.1067 22.9072 18.415C22.9346 18.4512 22.9558 18.4886 22.9727 18.5254L22.9844 18.5547C22.9849 18.5562 22.984 18.5546 22.9834 18.5527C22.9828 18.5511 22.9818 18.5482 22.9805 18.5449C23.0076 18.6096 23.0242 18.6788 23.0273 18.75V18.7715C23.0272 18.7737 23.0264 18.7756 23.0264 18.7764C23.0262 18.8419 23.0152 18.9075 22.9932 18.9717L22.9941 18.9727C22.9917 18.9799 22.9883 18.9857 22.9863 18.9902C22.9653 19.0448 22.9347 19.0961 22.8965 19.1445C22.8915 19.1535 22.8842 19.1637 22.875 19.1748L22.8682 19.1836L21.6699 20.4727L23.3525 19.9189L23.3564 19.918C23.3611 19.9165 23.365 19.9148 23.3682 19.9141C23.3709 19.9134 23.3734 19.9125 23.375 19.9121L23.374 19.9131C23.3724 19.9134 23.3701 19.9143 23.3672 19.915C23.365 19.9156 23.3622 19.9162 23.3594 19.917C23.3892 19.9078 23.4194 19.9031 23.4287 19.9014H23.4268C23.4273 19.9012 23.4284 19.9007 23.4297 19.9004C23.4307 19.9001 23.4321 19.8998 23.4336 19.8994C23.4396 19.898 23.4542 19.8946 23.4717 19.8926C23.4903 19.8904 23.5067 19.8905 23.5137 19.8906H23.5918L23.6006 19.8916C23.6074 19.8925 23.6132 19.8939 23.6162 19.8945H23.6152L23.7051 19.9121L23.707 19.9131C23.7144 19.9153 23.721 19.9172 23.7256 19.9189C23.7301 19.9207 23.7345 19.9231 23.7363 19.9238C23.7379 19.9245 23.7383 19.9248 23.7383 19.9248L23.8086 19.9531H23.8096C23.838 19.9675 23.8684 19.9894 23.8711 19.9912L23.875 19.9932C23.8802 19.9963 23.8922 20.0036 23.9053 20.0137L23.9062 20.0146C23.9201 20.0254 23.9314 20.036 23.9385 20.043L23.9531 20.0566L23.9541 20.0586H23.9551L23.9619 20.0654C23.968 20.0709 23.9792 20.0817 23.9912 20.0957L24.0156 20.127C24.0166 20.1283 24.0169 20.1299 24.0176 20.1309C24.0182 20.1318 24.0192 20.1323 24.0195 20.1328C24.0223 20.1366 24.0335 20.153 24.0459 20.1719M23.8809 36.3154C23.8824 36.3144 23.884 36.314 23.8848 36.3135C23.8858 36.3127 23.8865 36.312 23.8857 36.3125C23.8854 36.3128 23.8831 36.3138 23.8809 36.3154ZM22.9434 37.126C22.9445 37.1278 22.9453 37.1301 22.9463 37.1318C22.9426 37.1254 22.9365 37.1182 22.9297 37.1094C22.9344 37.1154 22.9398 37.1203 22.9434 37.126Z" fill="white" stroke="#A88EC3" stroke-width="0.4"/>
<path d="M26.4141 0.99707C27.7265 0.99707 28.9513 1.58396 29.7754 2.6084C29.9384 2.81134 30.2054 2.87647 30.4375 2.7959L30.8369 3.58301C30.6313 3.72015 30.5239 3.97549 30.5889 4.22852C30.6791 4.5783 30.7246 4.94124 30.7246 5.30664C30.7246 6.08969 30.5102 6.8463 30.1113 7.5127C29.3691 7.47308 28.8816 7.53502 28.8545 7.53906C28.8286 7.54282 28.8044 7.54987 28.7812 7.55664C27.7595 6.99026 25.2238 5.77772 22.1279 5.70996C22.1139 5.57444 22.1045 5.44004 22.1045 5.30664C22.1046 2.93058 24.0378 0.997298 26.4141 0.99707Z" fill="white" stroke="#A88EC3" stroke-width="0.4"/>
<path d="M29.7041 39.0713C29.6353 40.2727 29.6793 42.1649 30.3018 44.2744C30.422 44.6818 30.5851 45.0719 30.7842 45.4414H18.9111C19.1104 45.0721 19.2743 44.682 19.3945 44.2744C19.7232 43.1603 19.9162 41.9932 19.9824 40.8027C20.2302 40.6237 20.4738 40.4359 20.7119 40.2373C21.8494 40.9136 23.116 41.2548 24.3818 41.2549H24.3828C25.9516 41.2546 27.5139 40.7373 28.8135 39.7158L28.8145 39.7168L29.7041 39.0713Z" fill="white" stroke="#A88EC3" stroke-width="0.4"/>
<path d="M27.125 1.27539C28.4411 1.27539 29.6666 1.82663 30.5605 2.79883C30.73 2.98307 30.9018 3.3448 31.042 3.71387C31.1105 3.89426 31.1689 4.06815 31.2129 4.20898L31.2988 4.50684C31.389 4.85757 31.4355 5.2204 31.4355 5.58496C31.4355 6.3681 31.2211 7.12475 30.8223 7.79102C30.0818 7.75125 29.595 7.81325 29.5664 7.81738C29.5402 7.8212 29.5156 7.82811 29.4922 7.83496C28.4706 7.26841 25.9349 6.05611 22.8389 5.98828C22.825 5.85309 22.8154 5.71866 22.8154 5.58496C22.8156 3.20884 24.7489 1.27553 27.125 1.27539Z" fill="white" stroke="#A88EC3" stroke-width="0.4"/>
<path d="M12.9434 14.3916C16.2398 14.3916 19.3839 15.9676 21.6436 18.7402L19.2168 21.3545C19.0314 21.5545 19.0043 21.8543 19.1514 22.084C19.2638 22.2597 19.4561 22.3604 19.6553 22.3604C19.7177 22.3603 19.7807 22.3501 19.8418 22.3301L23.248 21.208C24.3186 23.3118 24.8857 25.7053 24.8857 28.165C24.8857 30.6122 24.3234 32.9952 23.2627 35.0918L20.166 34.21C19.9077 34.1363 19.6335 34.244 19.4932 34.4717C19.353 34.6993 19.3806 34.9921 19.5615 35.1895L21.6982 37.5205C19.4348 40.3365 16.2704 41.9375 12.9434 41.9375C9.52028 41.9374 6.29414 40.2586 4.01953 37.3057L6.1377 34.9824C6.29804 34.8065 6.33724 34.5558 6.24512 34.3428L6.19727 34.2539C6.04907 34.0256 5.76487 33.9257 5.50684 34.0117L2.57422 34.9824C1.54799 32.9121 1.00098 30.5678 1.00098 28.1641C1.00101 27.0188 1.12359 25.8806 1.36426 24.7812L1.36328 24.7803C1.38652 24.6751 1.49206 24.2935 1.59766 23.918L1.83789 23.0918C2.03705 22.5131 2.27494 21.9484 2.54199 21.4043L5.51758 22.333C5.57639 22.3514 5.63706 22.3604 5.69629 22.3604C5.89203 22.3602 6.08025 22.2632 6.19336 22.0938C6.34075 21.8727 6.32502 21.5805 6.1543 21.377L4.09766 18.9219C6.36714 16.0336 9.56611 14.3916 12.9434 14.3916ZM16.6943 31.335C16.2727 31.3373 15.785 31.4188 15.2646 31.5049C14.5705 31.6198 13.801 31.7471 12.9854 31.7471C12.1695 31.7471 11.4003 31.6198 10.7061 31.5049C10.1856 31.4188 9.69807 31.3373 9.27637 31.335C8.85251 31.3326 8.46105 31.4096 8.1543 31.6699C7.83356 31.9422 7.6875 32.3513 7.6875 32.8467C7.6875 33.9245 8.31935 34.8965 9.2832 35.5908C10.2487 36.2862 11.565 36.7178 12.9854 36.7178C14.4056 36.7178 15.7211 36.2861 16.6865 35.5908C17.6505 34.8965 18.2822 33.9246 18.2822 32.8467C18.2822 32.3511 18.137 31.9412 17.8164 31.6689C17.5098 31.4089 17.1181 31.3326 16.6943 31.335ZM8.45801 22.708C7.40396 22.5706 6.36141 22.7467 5.52246 23.2119C4.6406 23.7012 4.07595 24.4577 3.95996 25.3486C3.84372 26.2433 4.21613 27.1021 4.88379 27.7656C5.55137 28.4291 6.5211 28.9073 7.63281 29.0518C7.86599 29.0821 8.09864 29.0967 8.32812 29.0967C9.03573 29.0966 9.71956 28.9543 10.3174 28.6758L10.5684 28.5479C11.4503 28.0586 12.0158 27.3021 12.1318 26.4111C12.248 25.5167 11.8754 24.6576 11.208 23.9941C10.5404 23.3306 9.56973 22.8526 8.45801 22.708ZM20.6826 23.2119C19.844 22.7468 18.8017 22.5707 17.748 22.708C16.6362 22.8526 15.6657 23.3306 14.998 23.9941C14.3303 24.6578 13.9579 25.5174 14.0742 26.4121C14.1903 27.3028 14.7559 28.0587 15.6377 28.5479C16.2915 28.9104 17.069 29.0967 17.8779 29.0967C17.9928 29.0967 18.1086 29.0935 18.2246 29.0859L18.5732 29.0518C19.6267 28.9147 20.5894 28.478 21.2812 27.8135C22.0085 27.1149 22.3622 26.2394 22.2461 25.3486C22.1301 24.4578 21.5645 23.7013 20.6826 23.2119ZM14.3105 15.0596C13.9828 15.0125 13.6791 15.2412 13.6328 15.5684C13.5868 15.895 13.8144 16.1979 14.1416 16.2441C15.9132 16.4961 17.5958 17.3077 19.0059 18.5957C19.1207 18.7003 19.2654 18.752 19.4092 18.752C19.5707 18.7519 19.7327 18.6866 19.8506 18.5576C20.0732 18.3136 20.0564 17.9349 19.8125 17.7119C18.228 16.2646 16.3252 15.3459 14.3096 15.0596H14.3105Z" fill="white" stroke="#A88EC3" stroke-width="0.4"/>
<path d="M29.8486 25.6152C29.8964 25.6152 29.939 25.6521 29.9443 25.7012C29.9484 25.7402 29.928 25.7768 29.8955 25.7949L29.8594 25.8066C29.8052 25.8122 29.7587 25.7736 29.7529 25.7217C29.7474 25.67 29.7849 25.6221 29.8359 25.6152L29.8369 25.6162C29.8426 25.6156 29.8463 25.6153 29.8486 25.6152Z" fill="white" stroke="#A88EC3" stroke-width="0.4"/>
<path d="M29.7627 24.4502C30.8007 24.3385 31.8269 24.6923 32.5762 25.4219C32.7338 25.5752 32.7371 25.8276 32.584 25.9854C32.4307 26.1429 32.1782 26.1468 32.0205 25.9932C31.4413 25.4297 30.6491 25.1564 29.8477 25.2422C29.0245 25.3307 28.2973 25.7824 27.8535 26.4824C27.7781 26.6018 27.6492 26.6679 27.5176 26.668C27.4446 26.668 27.3707 26.6481 27.3047 26.6064C27.1187 26.4885 27.0631 26.2416 27.1807 26.0557C27.7549 25.1495 28.6966 24.5647 29.7627 24.4502Z" fill="#A88EC3"/>
<path d="M29.7627 24.4502C30.8007 24.3385 31.8269 24.6923 32.5762 25.4219C32.7338 25.5752 32.7371 25.8276 32.584 25.9854C32.4307 26.1429 32.1782 26.1468 32.0205 25.9932C31.4413 25.4297 30.6491 25.1564 29.8477 25.2422C29.0245 25.3307 28.2973 25.7824 27.8535 26.4824C27.7781 26.6018 27.6492 26.6679 27.5176 26.668C27.4446 26.668 27.3707 26.6481 27.3047 26.6064C27.1187 26.4885 27.0631 26.2416 27.1807 26.0557C27.7549 25.1495 28.6966 24.5647 29.7627 24.4502Z" stroke="#A88EC3"/>
<path d="M29.7314 24.624C30.3312 24.5607 30.87 24.9949 30.9346 25.5938C30.9657 25.8841 30.8826 26.1692 30.6992 26.3965C30.516 26.6238 30.2552 26.7657 29.9648 26.7969C29.9255 26.8012 29.8861 26.8037 29.8477 26.8037C29.2971 26.8036 28.822 26.3867 28.7617 25.8271C28.6979 25.228 29.1332 24.6884 29.7314 24.624ZM29.8174 25.417C29.6554 25.4344 29.5373 25.5808 29.5547 25.7432C29.5723 25.9047 29.7164 26.0218 29.8799 26.0049C30.0422 25.9875 30.1599 25.8418 30.1426 25.6797C30.1262 25.528 29.9976 25.415 29.8486 25.415C29.8382 25.4151 29.8277 25.416 29.8174 25.417Z" fill="#A88EC3"/>
<path d="M29.7314 24.624C30.3312 24.5607 30.87 24.9949 30.9346 25.5938C30.9657 25.8841 30.8826 26.1692 30.6992 26.3965C30.516 26.6238 30.2552 26.7657 29.9648 26.7969C29.9255 26.8012 29.8861 26.8037 29.8477 26.8037C29.2971 26.8036 28.822 26.3867 28.7617 25.8271C28.6979 25.228 29.1332 24.6884 29.7314 24.624ZM29.8174 25.417C29.6554 25.4344 29.5373 25.5808 29.5547 25.7432C29.5723 25.9047 29.7164 26.0218 29.8799 26.0049C30.0422 25.9875 30.1599 25.8418 30.1426 25.6797C30.1262 25.528 29.9976 25.415 29.8486 25.415C29.8382 25.4151 29.8277 25.416 29.8174 25.417Z" stroke="#A88EC3"/>
<path d="M27.6299 22.4043C27.6947 22.3652 29.1876 21.4824 31.5762 21.7061C31.7953 21.7267 31.9559 21.9207 31.9355 22.1396C31.9154 22.3588 31.7225 22.52 31.502 22.5C29.3867 22.302 28.0533 23.079 28.04 23.0869C27.9765 23.125 27.9063 23.1435 27.8369 23.1436C27.7016 23.1436 27.5685 23.0737 27.4941 22.9492C27.3816 22.7609 27.4421 22.5177 27.6299 22.4043Z" fill="#A88EC3"/>
<path d="M27.6299 22.4043C27.6947 22.3652 29.1876 21.4824 31.5762 21.7061C31.7953 21.7267 31.9559 21.9207 31.9355 22.1396C31.9154 22.3588 31.7225 22.52 31.502 22.5C29.3867 22.302 28.0533 23.079 28.04 23.0869C27.9765 23.125 27.9063 23.1435 27.8369 23.1436C27.7016 23.1436 27.5685 23.0737 27.4941 22.9492C27.3816 22.7609 27.4421 22.5177 27.6299 22.4043Z" stroke="#A88EC3"/>
<path d="M28.7773 8.23535C28.8374 8.14439 28.9605 8.11883 29.0518 8.17871L29.0537 8.17969C29.055 8.18052 29.057 8.18184 29.0596 8.18359C29.0651 8.1873 29.0738 8.19342 29.085 8.20117L29.1836 8.27148C30.9284 9.54545 31.7117 11.6468 31.2285 13.7607C30.7412 15.8924 29.1074 17.4578 26.9619 17.8506C26.1838 17.9931 25.345 18.0654 24.4531 18.0654C23.7498 18.0654 23.0141 18.0212 22.249 17.9316C22.1538 17.9205 22.0821 17.8432 22.0742 17.751V17.7109C22.0853 17.6175 22.1644 17.5455 22.2559 17.5371H22.2949C23.9828 17.7346 25.5296 17.7104 26.8906 17.4609C28.8754 17.0975 30.3901 15.644 30.8408 13.6729C31.2877 11.7191 30.5624 9.77041 28.9492 8.59277C28.8835 8.54475 28.842 8.51632 28.832 8.50977H28.833C28.742 8.44935 28.7168 8.32694 28.7773 8.23535Z" fill="#A88EC3" stroke="#A88EC3" stroke-width="0.4"/>
<path d="M30.7002 14.3799C30.8058 14.3463 30.9167 14.4039 30.9502 14.5078L30.9521 14.5117C30.9527 14.5133 30.9532 14.5159 30.9541 14.5186C30.9559 14.5238 30.9587 14.5309 30.9619 14.54C30.9683 14.5585 30.9778 14.5853 30.9902 14.6191C31.0151 14.6867 31.0517 14.7842 31.1025 14.9082C31.2046 15.157 31.3624 15.5137 31.5869 15.9531C32.036 16.8322 32.754 18.0445 33.834 19.3936C33.9023 19.4793 33.8879 19.6036 33.8027 19.6719C33.7663 19.7011 33.7231 19.7157 33.6797 19.7158C33.6212 19.7158 33.5635 19.6902 33.5244 19.6416C31.3083 16.8734 30.6008 14.7145 30.5732 14.6289C30.5401 14.5252 30.5958 14.4131 30.6992 14.3789L30.7002 14.3799Z" fill="#A88EC3" stroke="#A88EC3" stroke-width="0.4"/>
<path d="M15.2939 31.709C16.345 31.5351 17.1753 31.3981 17.6836 31.8291C17.9459 32.0519 18.0791 32.3965 18.0791 32.8535C18.0791 34.8437 15.7453 36.5253 12.9824 36.5254C10.2195 36.5254 7.88477 34.8437 7.88477 32.8535C7.8848 32.3966 8.01789 32.0519 8.28027 31.8291C8.78875 31.3976 9.6195 31.5351 10.6709 31.709C11.3634 31.8237 12.1481 31.9541 12.9824 31.9541C13.8168 31.9541 14.6014 31.8237 15.2939 31.709ZM17.168 32.4365C16.9403 32.2444 16.1696 32.3715 15.4238 32.4951C14.7012 32.6146 13.8822 32.751 12.9824 32.751C12.0827 32.751 11.2636 32.6148 10.541 32.4951C10.0709 32.4173 9.58984 32.3379 9.24219 32.3379C9.0382 32.3379 8.87986 32.3655 8.7959 32.4365C8.72016 32.5009 8.68166 32.6413 8.68164 32.8535C8.68164 34.3848 10.6916 35.7285 12.9824 35.7285C15.2732 35.7285 17.2832 34.3848 17.2832 32.8535C17.2832 32.6413 17.2437 32.5009 17.168 32.4365Z" fill="#A88EC3"/>
<path d="M15.2939 31.709C16.345 31.5351 17.1753 31.3981 17.6836 31.8291C17.9459 32.0519 18.0791 32.3965 18.0791 32.8535C18.0791 34.8437 15.7453 36.5253 12.9824 36.5254C10.2195 36.5254 7.88477 34.8437 7.88477 32.8535C7.8848 32.3966 8.01789 32.0519 8.28027 31.8291C8.78875 31.3976 9.6195 31.5351 10.6709 31.709C11.3634 31.8237 12.1481 31.9541 12.9824 31.9541C13.8168 31.9541 14.6014 31.8237 15.2939 31.709ZM17.168 32.4365C16.9403 32.2444 16.1696 32.3715 15.4238 32.4951C14.7012 32.6146 13.8822 32.751 12.9824 32.751C12.0827 32.751 11.2636 32.6148 10.541 32.4951C10.0709 32.4173 9.58984 32.3379 9.24219 32.3379C9.0382 32.3379 8.87986 32.3655 8.7959 32.4365C8.72016 32.5009 8.68166 32.6413 8.68164 32.8535C8.68164 34.3848 10.6916 35.7285 12.9824 35.7285C15.2732 35.7285 17.2832 34.3848 17.2832 32.8535C17.2832 32.6413 17.2437 32.5009 17.168 32.4365Z" stroke="#A88EC3"/>
<path d="M17.7686 22.9131C18.7856 22.7805 19.7842 22.9516 20.5811 23.3936C21.4175 23.8578 21.9366 24.5637 22.043 25.3809C22.1494 26.198 21.8276 27.0131 21.1377 27.6758C20.4805 28.307 19.5586 28.7272 18.542 28.8594C18.3175 28.8886 18.0937 28.9033 17.873 28.9033C17.0939 28.9033 16.3504 28.7233 15.7295 28.3789C14.8931 27.9149 14.3741 27.2096 14.2676 26.3926C14.0544 24.753 15.6246 23.1919 17.7686 22.9131ZM18.4395 23.666C18.2525 23.666 18.0625 23.6783 17.8711 23.7031C16.163 23.9254 14.9014 25.0851 15.0576 26.2891C15.1305 26.8492 15.5063 27.3444 16.1162 27.6826C16.7648 28.0426 17.589 28.1797 18.4395 28.0693C19.2883 27.9588 20.0506 27.6147 20.5859 27.1006C21.0885 26.6177 21.3258 26.0433 21.2529 25.4834C21.1801 24.9233 20.8039 24.428 20.1943 24.0898C19.6914 23.8111 19.0827 23.666 18.4395 23.666Z" fill="#A88EC3"/>
<path d="M17.7686 22.9131C18.7856 22.7805 19.7842 22.9516 20.5811 23.3936C21.4175 23.8578 21.9366 24.5637 22.043 25.3809C22.1494 26.198 21.8276 27.0131 21.1377 27.6758C20.4805 28.307 19.5586 28.7272 18.542 28.8594C18.3175 28.8886 18.0937 28.9033 17.873 28.9033C17.0939 28.9033 16.3504 28.7233 15.7295 28.3789C14.8931 27.9149 14.3741 27.2096 14.2676 26.3926C14.0544 24.753 15.6246 23.1919 17.7686 22.9131ZM18.4395 23.666C18.2525 23.666 18.0625 23.6783 17.8711 23.7031C16.163 23.9254 14.9014 25.0851 15.0576 26.2891C15.1305 26.8492 15.5063 27.3444 16.1162 27.6826C16.7648 28.0426 17.589 28.1797 18.4395 28.0693C19.2883 27.9588 20.0506 27.6147 20.5859 27.1006C21.0885 26.6177 21.3258 26.0433 21.2529 25.4834C21.1801 24.9233 20.8039 24.428 20.1943 24.0898C19.6914 23.8111 19.0827 23.666 18.4395 23.666Z" stroke="#A88EC3"/>
<path d="M5.61621 23.3936C6.41326 22.9516 7.41162 22.7805 8.42871 22.9131C10.5724 23.1919 12.1429 24.753 11.9297 26.3926C11.8232 27.2097 11.304 27.9149 10.4678 28.3789C9.84672 28.7234 9.10316 28.9033 8.32422 28.9033C8.1035 28.9033 7.87995 28.8886 7.65527 28.8594C5.51162 28.5806 3.94134 27.0204 4.1543 25.3809C4.26071 24.5635 4.77971 23.8576 5.61621 23.3936ZM7.75684 23.666C7.1135 23.6661 6.50482 23.811 6.00195 24.0898C5.39254 24.428 5.01716 24.9235 4.94434 25.4834C4.78814 26.6873 6.04977 27.847 7.75781 28.0693C8.6075 28.1797 9.43175 28.0428 10.0811 27.6826C10.6906 27.3444 11.0668 26.849 11.1396 26.2891C11.2957 25.0853 10.0339 23.9255 8.32617 23.7031C8.13487 23.6783 7.94401 23.666 7.75684 23.666Z" fill="#A88EC3"/>
<path d="M5.61621 23.3936C6.41326 22.9516 7.41162 22.7805 8.42871 22.9131C10.5724 23.1919 12.1429 24.753 11.9297 26.3926C11.8232 27.2097 11.304 27.9149 10.4678 28.3789C9.84672 28.7234 9.10316 28.9033 8.32422 28.9033C8.1035 28.9033 7.87995 28.8886 7.65527 28.8594C5.51162 28.5806 3.94134 27.0204 4.1543 25.3809C4.26071 24.5635 4.77971 23.8576 5.61621 23.3936ZM7.75684 23.666C7.1135 23.6661 6.50482 23.811 6.00195 24.0898C5.39254 24.428 5.01716 24.9235 4.94434 25.4834C4.78814 26.6873 6.04977 27.847 7.75781 28.0693C8.6075 28.1797 9.43175 28.0428 10.0811 27.6826C10.6906 27.3444 11.0668 26.849 11.1396 26.2891C11.2957 25.0853 10.0339 23.9255 8.32617 23.7031C8.13487 23.6783 7.94401 23.666 7.75684 23.666Z" stroke="#A88EC3"/>
<path d="M2.0293 20.6436C2.08074 20.5466 2.20093 20.5103 2.29785 20.5615C2.39425 20.6128 2.43104 20.7322 2.37988 20.8291C2.11009 21.3391 1.86782 21.8712 1.65625 22.417L1.45508 22.9678C1.42702 23.0497 1.35048 23.1015 1.26758 23.1016C1.24669 23.1016 1.22511 23.0984 1.20312 23.0908C1.11251 23.0596 1.0594 22.9693 1.07129 22.8779L1.08008 22.8389C1.3409 22.0802 1.66038 21.3413 2.0293 20.6436Z" fill="#A88EC3" stroke="#A88EC3" stroke-width="0.4"/>
<path d="M0.817383 24.4658V24.4668C0.924118 24.4902 0.992078 24.5953 0.96875 24.7021C0.721828 25.83 0.596704 26.9973 0.59668 28.1709C0.59668 30.812 1.23332 33.391 2.44043 35.627C2.49231 35.7234 2.4567 35.8435 2.36035 35.8955H2.35938C2.32978 35.9116 2.29837 35.9189 2.2666 35.9189C2.19581 35.9189 2.12677 35.8809 2.09082 35.8145C0.854426 33.5233 0.200195 30.8799 0.200195 28.1709C0.200219 26.9683 0.328965 25.7721 0.582031 24.6172C0.605588 24.5109 0.708491 24.443 0.817383 24.4658Z" fill="#A88EC3" stroke="#A88EC3" stroke-width="0.4"/>
<path d="M36.54 22.3691C36.6408 22.3611 36.7415 22.4447 36.749 22.5547L36.8955 24.7344V24.7354C36.9133 25.134 36.9229 25.5322 36.9229 25.9277C36.9228 26.4403 36.8777 27.0413 36.7881 27.7148C36.2508 31.7438 34.0235 35.4473 30.6758 37.873L28.5791 39.3916L28.5732 39.3965C27.3441 40.365 25.8653 40.8543 24.3818 40.8545C23.049 40.8546 21.7113 40.4597 20.5449 39.6631L20.5439 39.6621C20.465 39.6078 20.4378 39.5068 20.4736 39.4219L20.4922 39.3867C20.5537 39.2965 20.6782 39.2733 20.7686 39.335C23.0858 40.9178 26.1248 40.8138 28.333 39.0791L28.334 39.0801L30.4434 37.5518C33.702 35.1906 35.8714 31.5863 36.3945 27.6621C36.4814 27.0111 36.5264 26.4273 36.5264 25.9277C36.5264 25.5381 36.5172 25.1456 36.5 24.7617V24.7578L36.3535 22.5811C36.3464 22.4714 36.4288 22.3775 36.5381 22.3701L36.54 22.3691Z" fill="#A88EC3" stroke="#A88EC3" stroke-width="0.4"/>
<path d="M12.2754 11.2119C12.3407 11.1245 12.4645 11.1063 12.5527 11.1719C12.6292 11.229 12.6533 11.3315 12.6143 11.415L12.5928 11.4502L12.3535 11.7832C12.1069 12.1388 11.8816 12.5068 11.6846 12.877C11.649 12.9435 11.5808 12.9823 11.5098 12.9824C11.4782 12.9824 11.4465 12.9747 11.417 12.959H11.416C11.3197 12.9076 11.2836 12.7873 11.335 12.6904C11.539 12.307 11.7717 11.925 12.0273 11.5566C12.1069 11.4419 12.1896 11.3274 12.2754 11.2129V11.2119Z" fill="#A88EC3" stroke="#A88EC3" stroke-width="0.4"/>
<path d="M13.7744 9.52148C17.2645 6.13493 21.0565 5.78707 23.9941 6.29102C25.4653 6.54339 26.7219 7.00981 27.6162 7.41699C28.0631 7.62049 28.4192 7.80946 28.665 7.94824C28.7879 8.01761 28.8837 8.07406 28.9492 8.11426C28.9817 8.1342 29.0069 8.14999 29.0244 8.16113L29.0508 8.17871C29.052 8.1795 29.0527 8.17969 29.0527 8.17969C29.1436 8.24068 29.1673 8.36327 29.1064 8.4541V8.45508C29.0454 8.54572 28.9229 8.57028 28.832 8.50977V8.50879C28.6619 8.39519 26.6573 7.08991 23.8525 6.625C21.1267 6.17321 17.6434 6.51678 14.3672 9.50879L14.0508 9.80664C13.9286 9.92537 13.8064 10.0481 13.6846 10.1748C13.6453 10.2155 13.5932 10.2363 13.541 10.2363C13.4913 10.2363 13.442 10.2178 13.4033 10.1807C13.3243 10.1044 13.3226 9.97827 13.3984 9.89941L13.3975 9.89844C13.5227 9.76859 13.6488 9.64339 13.7744 9.52148Z" fill="#A88EC3" stroke="#A88EC3" stroke-width="0.4"/>
<path d="M31.1182 3.88672C31.2251 3.85946 31.3328 3.9245 31.3604 4.03027C31.4669 4.44509 31.5215 4.87522 31.5215 5.30762C31.5214 6.31823 31.2263 7.29473 30.6689 8.13281C30.6311 8.18968 30.5686 8.22161 30.5039 8.22168C30.4662 8.22168 30.4283 8.21083 30.3945 8.18848C30.3145 8.13525 30.2853 8.034 30.3203 7.94824L30.3389 7.91309C30.853 7.14049 31.1249 6.23916 31.125 5.30762C31.125 5.00863 31.0967 4.71063 31.041 4.41895L30.9766 4.12891C30.9496 4.02287 31.0132 3.91492 31.1191 3.8877L31.1182 3.88672Z" fill="#A88EC3" stroke="#A88EC3" stroke-width="0.4"/>
<path d="M26.4141 0.200195C27.9693 0.200195 29.4204 0.89577 30.3965 2.10938C30.465 2.19459 30.4519 2.31889 30.3672 2.3877C30.2813 2.45655 30.1562 2.44308 30.0879 2.3584C29.1881 1.23967 27.8488 0.596787 26.415 0.59668C23.8177 0.59668 21.7042 2.70953 21.7041 5.30664C21.7041 5.59809 21.7312 5.89067 21.7842 6.17578C21.804 6.28276 21.7349 6.38577 21.6289 6.40723C21.6132 6.40994 21.6001 6.41113 21.5889 6.41113C21.4956 6.41113 21.4125 6.34438 21.3945 6.24902C21.3369 5.93989 21.3076 5.62261 21.3076 5.30664C21.3077 2.4911 23.5984 0.200436 26.4141 0.200195Z" fill="#A88EC3" stroke="#A88EC3" stroke-width="0.4"/>
<path d="M30.4824 37.6475C30.5895 37.6688 30.66 37.7731 30.6387 37.8809C30.6276 37.9373 30.0942 40.7496 31.0674 44.0488C31.2138 44.5451 31.4293 45.0156 31.708 45.4453C31.7598 45.5258 31.7463 45.6297 31.6807 45.6943L31.6494 45.7197C31.6161 45.7412 31.579 45.7509 31.542 45.751C31.4764 45.751 31.4128 45.7194 31.375 45.6611C31.0758 45.1996 30.844 44.6946 30.6865 44.1611C29.8044 41.1712 30.1151 38.626 30.2207 37.9658L30.249 37.8027C30.2706 37.6957 30.3762 37.6264 30.4824 37.6475Z" fill="#A88EC3" stroke="#A88EC3" stroke-width="0.4"/>
<path d="M19.4131 40.2891C19.5224 40.2932 19.6075 40.385 19.6035 40.4941V40.4951C19.5564 41.7556 19.3574 42.9893 19.0117 44.1611C18.8542 44.6948 18.6217 45.1989 18.3223 45.6602C18.2847 45.7182 18.2216 45.7509 18.1562 45.751C18.1194 45.751 18.0816 45.7406 18.0479 45.7188C17.9561 45.659 17.9305 45.5363 17.9902 45.4443C18.2687 45.0149 18.4841 44.5453 18.6309 44.0488C18.9677 42.9076 19.1611 41.7062 19.207 40.4795C19.2112 40.3735 19.3039 40.2869 19.4131 40.2891Z" fill="#A88EC3" stroke="#A88EC3" stroke-width="0.4"/>
<path d="M29.7383 7.89844C30.2471 7.9049 30.9489 7.96092 31.7324 8.15332C33.2977 8.53772 35.1851 9.46815 36.5176 11.6582C36.5746 11.752 36.5447 11.8738 36.4512 11.9307V11.9316C36.419 11.9513 36.3836 11.96 36.3486 11.96C36.2811 11.96 36.2158 11.9262 36.1787 11.8652C33.6562 7.71951 29.1672 8.30034 28.9697 8.32812C28.8615 8.3434 28.7606 8.26768 28.7451 8.16016V8.15918C28.7298 8.05102 28.8041 7.95056 28.9121 7.93457C28.9131 7.93444 28.918 7.93465 28.9268 7.93359C28.9367 7.93239 28.9518 7.93068 28.9707 7.92871C29.0087 7.92476 29.0644 7.91898 29.1357 7.91406C29.2784 7.90424 29.4841 7.89522 29.7383 7.89844Z" fill="#A88EC3" stroke="#A88EC3" stroke-width="0.4"/>
<path d="M36.9482 12.9209C37.0482 12.8799 37.1644 12.9281 37.2061 13.0303C38.8952 17.1797 37.3799 21.3003 36.9111 22.3955L36.7871 22.6709C36.7665 22.7129 36.7319 22.7458 36.6904 22.7646L36.6475 22.7783C36.6353 22.7807 36.6224 22.7822 36.6094 22.7822C36.5615 22.7822 36.5144 22.7648 36.4775 22.7324C35.8202 22.1507 35.1916 21.5341 34.6084 20.9014C34.5344 20.821 34.5381 20.6957 34.6182 20.6211L34.6191 20.6221C34.7006 20.5475 34.8254 20.5528 34.8994 20.6328C35.3493 21.1214 35.8271 21.5999 36.3242 22.0596L36.54 22.2588L36.6465 21.9844C37.1456 20.7006 38.2728 17.1178 36.9717 13.5273L36.8379 13.1797C36.7967 13.0781 36.846 12.962 36.9473 12.9209H36.9482Z" fill="#A88EC3" stroke="#A88EC3" stroke-width="0.4"/>
<path d="M5.62891 34.3975C5.71365 34.3692 5.80818 34.4019 5.85742 34.4775V34.4785C5.90649 34.5542 5.89868 34.653 5.83789 34.7197L3.38379 37.4111V37.4121C3.34487 37.4549 3.29128 37.4765 3.2373 37.4766C3.18958 37.4766 3.14178 37.4594 3.10352 37.4248C3.02257 37.3511 3.01587 37.2247 3.08984 37.1436L4.51855 35.5781L5.0332 35.0127L4.30762 35.2529L2.32812 35.9092C2.22394 35.9434 2.11169 35.8869 2.07715 35.7832C2.04274 35.6794 2.09919 35.5668 2.20312 35.5322L5.62891 34.3975Z" fill="#A88EC3" stroke="#A88EC3" stroke-width="0.4"/>
<path d="M20.0518 34.6016H20.0527L23.6191 35.6172C23.7243 35.6471 23.7858 35.757 23.7559 35.8623V35.8633C23.7257 35.9686 23.6162 36.0289 23.5117 35.999H23.5107L21.2979 35.3691L20.6182 35.1748L21.0957 35.6963L22.626 37.3652C22.6999 37.4459 22.6945 37.5713 22.6143 37.6455C22.5761 37.6804 22.5277 37.6982 22.4795 37.6982C22.4257 37.6982 22.3729 37.6762 22.334 37.6338L19.8516 34.9258C19.7918 34.8604 19.7825 34.7631 19.8291 34.6875C19.8756 34.6121 19.9662 34.5772 20.0518 34.6016Z" fill="#A88EC3" stroke="#A88EC3" stroke-width="0.4"/>
<path d="M3.19629 18.791C3.2805 18.7205 3.40569 18.7322 3.47559 18.8154L3.47656 18.8164L5.84277 21.6406C5.89924 21.708 5.90508 21.8046 5.85645 21.8779C5.81889 21.934 5.75641 21.9667 5.69141 21.9668C5.67178 21.9668 5.65118 21.9631 5.63184 21.957L2.20703 20.8887C2.10231 20.856 2.04374 20.745 2.07617 20.6406C2.1089 20.5359 2.21969 20.4775 2.32422 20.5098L4.4541 21.1748L5.10547 21.377L4.66699 20.8555L3.17188 19.0713V19.0703C3.10188 18.9864 3.11265 18.8613 3.19629 18.791Z" fill="#A88EC3" stroke="#A88EC3" stroke-width="0.4"/>
<path d="M22.2842 18.6416C22.3588 18.5614 22.4838 18.5569 22.5635 18.6309H22.5645C22.6446 18.7055 22.6488 18.8308 22.5742 18.9111L20.8486 20.7695L21.0576 21.0957L23.4766 20.2988H23.4775C23.5804 20.265 23.693 20.3214 23.7275 20.4258C23.7614 20.5298 23.7045 20.6415 23.6006 20.6758L19.7119 21.957C19.6916 21.9638 19.6708 21.9668 19.6504 21.9668C19.5842 21.9668 19.5204 21.9336 19.4834 21.876V21.875C19.4349 21.799 19.4433 21.6992 19.5049 21.6328L22.2842 18.6416Z" fill="#A88EC3" stroke="#A88EC3" stroke-width="0.4"/>
<path d="M3.12109 37.1172C3.21056 37.0534 3.33379 37.0741 3.39746 37.1631C5.74959 40.4497 9.22591 42.3447 12.9385 42.3447C16.5553 42.3447 19.974 40.5294 22.3203 37.3809L22.3193 37.3799C22.3853 37.2923 22.5101 37.2755 22.5977 37.3408C22.6855 37.4064 22.7038 37.5305 22.6387 37.6182C20.208 40.8794 16.671 42.7412 12.9385 42.7412C9.10772 42.7412 5.51173 40.798 3.0752 37.3936C3.01137 37.3044 3.03209 37.1808 3.12109 37.1172Z" fill="#A88EC3" stroke="#A88EC3" stroke-width="0.4"/>
<path d="M23.4434 20.3135C23.5383 20.2608 23.6598 20.2955 23.7129 20.3916C24.9982 22.7154 25.6787 25.406 25.6787 28.1719C25.6786 30.9175 25.0072 33.5909 23.7393 35.9033C23.703 35.9692 23.6348 36.0068 23.5645 36.0068C23.5324 36.0068 23.4998 35.9993 23.4688 35.9824H23.4697C23.3735 35.9295 23.3381 35.8086 23.3906 35.7129C24.6284 33.4561 25.2812 30.8485 25.2812 28.1719C25.2812 25.4757 24.6195 22.8508 23.3652 20.583C23.3191 20.4993 23.3401 20.3968 23.4102 20.3369L23.4434 20.3135Z" fill="#A88EC3" stroke="#A88EC3" stroke-width="0.4"/>
<path d="M12.9385 13.6016C16.6409 13.6016 20.1597 15.4382 22.5879 18.6562V18.6572C22.6453 18.7336 22.6392 18.838 22.5781 18.9072L22.5488 18.9346C22.4609 19.0006 22.337 18.9825 22.2715 18.8955C19.9274 15.789 16.5272 13.9982 12.9395 13.998C9.39333 13.998 6.04933 15.7358 3.70801 18.7637L3.48438 19.0605C3.44557 19.1134 3.38575 19.1416 3.32422 19.1416C3.30389 19.1416 3.28335 19.1391 3.26367 19.1328L3.20703 19.1035L3.17676 19.0762C3.1238 19.0176 3.1105 18.9322 3.14355 18.8604L3.16406 18.8262C5.59758 15.5001 9.16148 13.6017 12.9385 13.6016Z" fill="#A88EC3" stroke="#A88EC3" stroke-width="0.4"/>
<path d="M27.1445 32.9004C27.3054 32.7509 27.5582 32.7597 27.708 32.9209C27.8578 33.0818 27.8489 33.3336 27.6885 33.4834C26.8269 34.2856 25.7032 34.7275 24.5254 34.7275C24.4338 34.7275 24.3425 34.7249 24.252 34.7197C24.0324 34.7069 23.8648 34.5185 23.8779 34.2988C23.8904 34.0795 24.0813 33.9133 24.2979 33.9238C24.3728 33.9283 24.4493 33.9307 24.5254 33.9307C25.501 33.9306 26.4309 33.5646 27.1445 32.9004Z" fill="#A88EC3"/>
<path d="M27.1445 32.9004C27.3054 32.7509 27.5582 32.7597 27.708 32.9209C27.8578 33.0818 27.8489 33.3336 27.6885 33.4834C26.8269 34.2856 25.7032 34.7275 24.5254 34.7275C24.4338 34.7275 24.3425 34.7249 24.252 34.7197C24.0324 34.7069 23.8648 34.5185 23.8779 34.2988C23.8904 34.0795 24.0813 33.9133 24.2979 33.9238C24.3728 33.9283 24.4493 33.9307 24.5254 33.9307C25.501 33.9306 26.4309 33.5646 27.1445 32.9004Z" stroke="#A88EC3"/>
</svg>
