<svg width="24" height="28" viewBox="0 0 24 28" fill="none" xmlns="http://www.w3.org/2000/svg">
<mask id="path-1-inside-1_56_3179" fill="white">
<path d="M15.1304 24.1379H8.86958C8.58158 24.1379 8.34784 24.3542 8.34784 24.6207C8.34784 24.8872 8.58158 25.1035 8.86958 25.1035H15.1304C15.4184 25.1035 15.6522 24.8872 15.6522 24.6207C15.6522 24.3542 15.4184 24.1379 15.1304 24.1379Z"/>
</mask>
<path d="M15.1304 24.1379V23.1379H8.86958V24.1379V25.1379H15.1304V24.1379ZM8.86958 24.1379V23.1379C8.10383 23.1379 7.34784 23.7302 7.34784 24.6207H8.34784H9.34784C9.34784 24.9782 9.05933 25.1379 8.86958 25.1379V24.1379ZM8.34784 24.6207H7.34784C7.34784 25.5112 8.10383 26.1035 8.86958 26.1035V25.1035V24.1035C9.05933 24.1035 9.34784 24.2632 9.34784 24.6207H8.34784ZM8.86958 25.1035V26.1035H15.1304V25.1035V24.1035H8.86958V25.1035ZM15.1304 25.1035V26.1035C15.8962 26.1035 16.6522 25.5112 16.6522 24.6207H15.6522H14.6522C14.6522 24.2632 14.9407 24.1035 15.1304 24.1035V25.1035ZM15.6522 24.6207H16.6522C16.6522 23.7302 15.8962 23.1379 15.1304 23.1379V24.1379V25.1379C14.9407 25.1379 14.6522 24.9782 14.6522 24.6207H15.6522Z" fill="#662D91" mask="url(#path-1-inside-1_56_3179)"/>
<path d="M12.4781 20.7412H11.521L11.8257 15.9434C11.8833 15.9451 11.9412 15.9482 11.9995 15.9482C12.0578 15.9482 12.116 15.945 12.1734 15.9434L12.4781 20.7412Z" stroke="#662D91"/>
<path d="M13.8063 26.5688C13.4422 27.1169 12.7798 27.4995 11.9997 27.4995C11.2196 27.4994 10.5571 27.1169 10.1931 26.5688H13.8063Z" stroke="#662D91"/>
<path d="M21.0912 13.0449C20.6161 14.031 19.9511 14.9351 19.1147 15.709L16.9409 17.7197C16.0455 18.5482 15.4598 19.597 15.2455 20.7412H14.5268L14.1977 15.5732C15.5431 15.0997 16.671 14.204 17.3911 13.0518H20.8696C20.9441 13.0518 21.0179 13.0484 21.0912 13.0449Z" stroke="#662D91"/>
<path d="M14.1084 2.43066H14.6084C16.0752 2.43066 17.3155 3.34564 17.6641 4.59863L17.793 5.0625L18.2607 4.95117L18.626 4.86426C18.4927 4.9321 18.3613 5.00501 18.2344 5.08594L17.7812 5.375L18.1025 5.80664L18.6943 6.60156L18.9727 6.97461L19.3643 6.72461C19.8042 6.44391 20.3241 6.29305 20.8691 6.29297C22.3566 6.29297 23.4999 7.40409 23.5 8.68945C23.5 9.97492 22.3567 11.0859 20.8691 11.0859H18.1494C18.2054 10.7784 18.2393 10.462 18.2393 10.1377C18.2391 6.89789 15.4031 4.32715 12 4.32715C8.59687 4.32715 5.76091 6.89789 5.76074 10.1377C5.76074 10.462 5.79461 10.7784 5.85059 11.0859H2.08691C1.17488 11.0859 0.500035 10.4082 0.5 9.65527C0.5 8.9023 1.17486 8.22463 2.08691 8.22461C2.99899 8.22461 3.67383 8.90229 3.67383 9.65527V10.1553H5.71777V9.65527C5.71777 8.09649 4.60191 6.82176 3.12793 6.40723C3.31956 4.74652 4.85423 3.39666 6.78223 3.39648C7.37353 3.39648 7.9406 3.52383 8.46973 3.77539L8.4707 3.77637L8.95508 4.00586L9.39844 4.2168L9.61719 3.77734L9.84473 3.31934H9.8457C10.6207 1.76033 12.2551 0.689578 14.1084 0.524414V2.43066ZM18.5732 2.17578C19.1726 2.81607 19.5912 3.59956 19.7598 4.45605C19.7533 4.45751 19.7467 4.45848 19.7402 4.45996L19.6387 4.09082C19.4366 3.36426 19.0654 2.71617 18.5732 2.17578Z" stroke="#662D91"/>
<mask id="path-7-inside-2_56_3179" fill="white">
<path d="M16.1739 22.207H7.82609C7.53809 22.207 7.30435 22.4233 7.30435 22.6898C7.30435 22.9563 7.53809 23.1726 7.82609 23.1726H8.86957H15.1304H16.1739C16.4619 23.1726 16.6957 22.9563 16.6957 22.6898C16.6957 22.4233 16.4619 22.207 16.1739 22.207Z"/>
</mask>
<path d="M16.1739 22.207V21.207H7.82609V22.207V23.207H16.1739V22.207ZM7.82609 22.207V21.207C7.06034 21.207 6.30435 21.7993 6.30435 22.6898H7.30435H8.30435C8.30435 23.0473 8.01584 23.207 7.82609 23.207V22.207ZM7.30435 22.6898H6.30435C6.30435 23.5803 7.06034 24.1726 7.82609 24.1726V23.1726V22.1726C8.01584 22.1726 8.30435 22.3323 8.30435 22.6898H7.30435ZM7.82609 23.1726V24.1726H8.86957V23.1726V22.1726H7.82609V23.1726ZM8.86957 23.1726V24.1726H15.1304V23.1726V22.1726H8.86957V23.1726ZM15.1304 23.1726V24.1726H16.1739V23.1726V22.1726H15.1304V23.1726ZM16.1739 23.1726V24.1726C16.9397 24.1726 17.6957 23.5803 17.6957 22.6898H16.6957H15.6957C15.6957 22.3323 15.9842 22.1726 16.1739 22.1726V23.1726ZM16.6957 22.6898H17.6957C17.6957 21.7993 16.9397 21.207 16.1739 21.207V22.207V23.207C15.9842 23.207 15.6957 23.0473 15.6957 22.6898H16.6957Z" fill="#662D91" mask="url(#path-7-inside-2_56_3179)"/>
<path d="M6.60898 13.0515C7.32886 14.2038 8.45655 15.0985 9.80136 15.572L9.47324 20.741H8.75449C8.54022 19.5967 7.95363 18.548 7.0582 17.7195L4.88535 15.7078H4.88437C4.05385 14.9388 3.39025 14.0349 2.91367 13.0515H6.60898Z" stroke="#662D91"/>
</svg>
