<svg width="45" height="40" viewBox="0 0 45 40" fill="none" xmlns="http://www.w3.org/2000/svg">
<path d="M15.2559 0.700195H28.9004C29.2322 0.699622 29.5566 0.798841 29.8311 0.985352C30.1056 1.17198 30.3179 1.43722 30.4395 1.74609L30.4414 1.75098L31.4268 4.20312L31.6035 4.64258H36.1826V3.15625C36.1833 2.92331 36.2767 2.69987 36.4414 2.53516C36.5856 2.39104 36.7745 2.30162 36.9756 2.28125L37.0615 2.27734H39.4229L39.5098 2.28125C39.7109 2.30164 39.8998 2.39103 40.0439 2.53516C40.1881 2.67929 40.2774 2.8683 40.2979 3.06934L40.3027 3.15625V4.64258H41.0029C41.325 4.64253 41.6438 4.70594 41.9414 4.8291C42.2392 4.95239 42.5104 5.13345 42.7383 5.36133C42.966 5.58911 43.1463 5.85965 43.2695 6.15723C43.3928 6.45498 43.4561 6.77442 43.4561 7.09668V16.6475H39.3887C37.4612 15.6123 35.307 15.0692 33.1172 15.0703C32.6714 15.0696 32.2262 15.0938 31.7832 15.1406C31.1372 13.046 29.8312 11.2092 28.0488 9.91406C26.0961 8.49524 23.7015 7.81847 21.2949 8.00391C18.8883 8.18943 16.6263 9.22547 14.9141 10.9268C13.355 12.4759 12.3464 14.4846 12.0264 16.6475H0.700195V7.09668C0.700104 6.77441 0.763434 6.45498 0.886719 6.15723C1.01 5.85949 1.19108 5.5892 1.41895 5.36133C1.64681 5.13349 1.91712 4.95237 2.21484 4.8291C2.51255 4.70586 2.83208 4.64249 3.1543 4.64258H12.5527L12.7295 4.20312L13.7148 1.75098L13.7168 1.74609C13.8384 1.4372 14.0507 1.17199 14.3252 0.985352C14.5996 0.798824 14.924 0.699656 15.2559 0.700195ZM3.875 5.35742C3.53109 5.21497 3.15222 5.17745 2.78711 5.25C2.42189 5.32265 2.08558 5.50231 1.82227 5.76562C1.55918 6.02887 1.38023 6.36446 1.30762 6.72949C1.23502 7.09465 1.27256 7.47341 1.41504 7.81738C1.55756 8.16123 1.79891 8.45532 2.1084 8.66211C2.41795 8.86886 2.78204 8.97949 3.1543 8.97949V8.97852C3.40121 8.97869 3.64581 8.93121 3.87402 8.83691C4.10253 8.74244 4.31046 8.6035 4.48535 8.42871C4.66033 8.25373 4.79998 8.0451 4.89453 7.81641C4.96535 7.64496 5.01043 7.46424 5.02832 7.28027L5.03711 7.0957C5.03694 6.72373 4.92633 6.3601 4.71973 6.05078C4.51295 5.74132 4.21881 5.49995 3.875 5.35742Z" stroke="#A88EC3" stroke-width="1.4"/>
<path d="M20.0586 11.2373C21.3012 10.8733 22.6193 10.8522 23.873 11.1758C25.1269 11.4994 26.2704 12.1561 27.1816 13.0762C27.938 13.84 28.5102 14.7623 28.8613 15.7725C26.7675 16.4834 24.8785 17.703 23.3691 19.3291C21.8598 20.9551 20.7838 22.9295 20.2305 25.0703C19.1971 24.7952 18.2349 24.2932 17.417 23.5957C16.4317 22.7554 15.6924 21.6638 15.2764 20.4375C14.8605 19.2113 14.7831 17.8952 15.0537 16.6289C15.3244 15.3627 15.9326 14.1932 16.8135 13.2441C17.6945 12.295 18.8159 11.6014 20.0586 11.2373Z" stroke="#A88EC3" stroke-width="1.4"/>
<path d="M12.0283 19.6221C12.33 21.636 13.2271 23.5191 14.6152 25.0225C16.0067 26.5292 17.8177 27.5749 19.8066 28.0342C19.8033 28.1507 19.7998 28.2672 19.8008 28.3838V28.3848C19.8012 29.2085 19.8793 30.0296 20.0312 30.8379H3.1543C2.83208 30.838 2.51256 30.7746 2.21484 30.6514C1.91711 30.5281 1.64681 30.347 1.41895 30.1191C1.19107 29.8913 1.01 29.621 0.886719 29.3232C0.763434 29.0255 0.700107 28.7061 0.700195 28.3838V19.6221H12.0283Z" stroke="#A88EC3" stroke-width="1.4"/>
<path d="M43.458 19.6221V20.002C43.3535 19.8734 43.247 19.7465 43.1377 19.6221H43.458Z" stroke="#A88EC3" stroke-width="1.4"/>
<path d="M33.1162 18.0498C35.8576 18.0528 38.4864 19.1426 40.4248 21.0811C42.2421 22.8984 43.314 25.3223 43.4434 27.877L43.4561 28.3896C43.4559 30.4342 42.8498 32.4328 41.7139 34.1328C40.5779 35.8329 38.9632 37.1579 37.0742 37.9404C35.1851 38.7229 33.106 38.9281 31.1006 38.5293C29.095 38.1304 27.2526 37.1452 25.8066 35.6992C24.3608 34.2534 23.3756 32.4117 22.9766 30.4062C22.5776 28.4007 22.7829 26.3209 23.5654 24.4316C24.348 22.5426 25.673 20.928 27.373 19.792C29.073 18.6561 31.0717 18.05 33.1162 18.0498ZM28.0488 29.5322C27.6728 29.413 27.2645 29.4478 26.9141 29.6289C26.5635 29.8101 26.2988 30.1231 26.1787 30.499C26.0586 30.8748 26.0931 31.2829 26.2734 31.6338C26.4191 31.9197 28.2349 35.1992 33.1172 35.1992C38.042 35.1992 39.8472 31.8623 39.9648 31.627L39.9639 31.626C40.1396 31.2761 40.1713 30.8716 40.0508 30.499C39.9298 30.1253 39.6663 29.8141 39.3174 29.6338C38.9685 29.4536 38.5622 29.4187 38.1875 29.5361C37.8128 29.6537 37.4999 29.9145 37.3164 30.2617L37.3086 30.2754C37.2854 30.3159 36.2296 32.2227 33.1172 32.2227C29.9965 32.2226 28.9412 30.3019 28.9258 30.2754L28.9209 30.2656L28.8467 30.1387C28.6597 29.8519 28.378 29.6367 28.0488 29.5322ZM29.1748 23.3516C28.9276 23.3513 28.6825 23.4007 28.4541 23.4951C28.2256 23.5897 28.0177 23.7284 27.8428 23.9033C27.6679 24.0782 27.5291 24.2861 27.4346 24.5146C27.3637 24.6861 27.3187 24.8668 27.3008 25.0508L27.292 25.2344C27.292 25.6067 27.4026 25.9707 27.6094 26.2803C27.8162 26.5898 28.1102 26.8311 28.4541 26.9736C28.7981 27.1161 29.1768 27.1537 29.542 27.0811C29.9071 27.0084 30.2426 26.8296 30.5059 26.5664C30.7692 26.3031 30.9488 25.9668 31.0215 25.6016C31.094 25.2366 31.0564 24.8584 30.9141 24.5146C30.7716 24.1706 30.5303 23.8758 30.2207 23.6689C29.9111 23.4621 29.5471 23.3516 29.1748 23.3516ZM37.0596 23.3516C36.8126 23.3514 36.5681 23.4008 36.3398 23.4951C36.1112 23.5897 35.9025 23.7283 35.7275 23.9033C35.5528 24.0782 35.4138 24.2862 35.3193 24.5146C35.225 24.7428 35.1766 24.9875 35.1768 25.2344C35.1768 25.6066 35.2874 25.9707 35.4941 26.2803C35.7009 26.5897 35.9951 26.8311 36.3389 26.9736C36.6828 27.1161 37.0616 27.1536 37.4268 27.0811C37.7918 27.0084 38.1274 26.8295 38.3906 26.5664C38.6539 26.3031 38.8336 25.9668 38.9062 25.6016C38.9788 25.2366 38.9412 24.8585 38.7988 24.5146C38.6563 24.1706 38.4151 23.8758 38.1055 23.6689C37.7959 23.4622 37.4318 23.3516 37.0596 23.3516Z" stroke="#A88EC3" stroke-width="1.4"/>
</svg>
