<svg width="72" height="72" viewBox="0 0 72 72" fill="none" xmlns="http://www.w3.org/2000/svg">
<path d="M22.8912 13.1092C20.4397 15.5531 18.7244 18.6368 17.9407 22.0085C17.1571 25.3802 17.3368 28.9043 18.4593 32.1788C19.5818 35.4534 21.6019 38.3466 24.2892 40.5285C26.9766 42.7104 30.223 44.0932 33.6583 44.5192L33.6583 63.1184L27.7965 57.2566C27.3628 56.8229 26.7747 56.5793 26.1614 56.5793C25.5481 56.5793 24.96 56.8229 24.5263 57.2566C24.0927 57.6902 23.849 58.2784 23.849 58.8917C23.849 59.505 24.0927 60.0931 24.5263 60.5268L34.3368 70.3373C34.7705 70.771 35.3587 71.0146 35.9719 71.0146C36.5852 71.0146 37.1734 70.771 37.607 70.3373L47.4176 60.5268C47.8512 60.0931 48.0948 59.505 48.0948 58.8917C48.0948 58.2784 47.8512 57.6902 47.4176 57.2566C46.9839 56.8229 46.3958 56.5793 45.7825 56.5793C45.1692 56.5793 44.581 56.8229 44.1474 57.2566L38.2856 63.1184L38.2856 44.5192C41.2099 44.1551 44.005 43.0976 46.4379 41.4347C48.8709 39.7719 50.8714 37.5518 52.2728 34.9595C53.6743 32.3671 54.4361 29.4775 54.4949 26.5311C54.5537 23.5848 53.9077 20.667 52.6108 18.0208C51.3139 15.3746 49.4035 13.0765 47.0388 11.318C44.6741 9.55941 41.9235 8.39124 39.016 7.91073C36.1085 7.43022 33.1283 7.65128 30.3235 8.5555C27.5187 9.45973 24.9706 11.0209 22.8912 13.1092ZM45.7825 36.0004C43.8421 37.9408 41.37 39.2622 38.6787 39.7975C35.9873 40.3328 33.1977 40.0581 30.6625 39.008C28.1273 37.9579 25.9605 36.1796 24.436 33.898C22.9114 31.6164 22.0977 28.9339 22.0977 26.1899C22.0977 23.4458 22.9114 20.7634 24.436 18.4818C25.9605 16.2002 28.1273 14.4219 30.6625 13.3718C33.1977 12.3217 35.9873 12.0469 38.6787 12.5823C41.37 13.1176 43.8421 14.439 45.7825 16.3793C48.3844 18.9813 49.8461 22.5102 49.8461 26.1899C49.8461 29.8695 48.3844 33.3985 45.7825 36.0004Z" fill="#A88EC3"/>
</svg>
