<svg width="33" height="31" viewBox="0 0 33 31" fill="none" xmlns="http://www.w3.org/2000/svg">
<path d="M0.720703 16.7842H31.3532" stroke="#A88EC3" stroke-miterlimit="10" stroke-linecap="round" stroke-linejoin="round"/>
<path d="M1.04492 21.1445C2.91895 21.1445 2.91895 22.5347 4.79304 22.5347C6.66714 22.5347 6.66714 21.1445 8.5413 21.1445C10.4153 21.1445 10.4153 22.5347 12.2893 22.5347C14.1634 22.5347 14.1634 21.1445 16.0375 21.1445C17.9116 21.1445 17.9116 22.5347 19.7857 22.5347C21.6598 22.5347 21.6598 21.1445 23.5339 21.1445C25.4083 21.1445 25.4083 22.5347 27.2826 22.5347C29.1569 22.5347 29.1569 21.1445 31.0313 21.1445" stroke="#A88EC3" stroke-miterlimit="10" stroke-linecap="round" stroke-linejoin="round"/>
<path d="M0.72973 30.5121C1.13275 30.5121 1.45946 30.1854 1.45946 29.7824C1.45946 29.3794 1.13275 29.0527 0.72973 29.0527C0.326711 29.0527 0 29.3794 0 29.7824C0 30.1854 0.326711 30.5121 0.72973 30.5121Z" fill="#A88EC3"/>
<path d="M4.2727 27.1293C4.67572 27.1293 5.00243 26.8026 5.00243 26.3996C5.00243 25.9966 4.67572 25.6699 4.2727 25.6699C3.86968 25.6699 3.54297 25.9966 3.54297 26.3996C3.54297 26.8026 3.86968 27.1293 4.2727 27.1293Z" fill="#A88EC3"/>
<path d="M8.38598 30.5121C8.789 30.5121 9.11571 30.1854 9.11571 29.7824C9.11571 29.3794 8.789 29.0527 8.38598 29.0527C7.98296 29.0527 7.65625 29.3794 7.65625 29.7824C7.65625 30.1854 7.98296 30.5121 8.38598 30.5121Z" fill="#A88EC3"/>
<path d="M11.927 27.1293C12.33 27.1293 12.6567 26.8026 12.6567 26.3996C12.6567 25.9966 12.33 25.6699 11.927 25.6699C11.524 25.6699 11.1973 25.9966 11.1973 26.3996C11.1973 26.8026 11.524 27.1293 11.927 27.1293Z" fill="#A88EC3"/>
<path d="M16.0403 30.5121C16.4433 30.5121 16.77 30.1854 16.77 29.7824C16.77 29.3794 16.4433 29.0527 16.0403 29.0527C15.6373 29.0527 15.3105 29.3794 15.3105 29.7824C15.3105 30.1854 15.6373 30.5121 16.0403 30.5121Z" fill="#A88EC3"/>
<path d="M19.5813 27.1293C19.9843 27.1293 20.311 26.8026 20.311 26.3996C20.311 25.9966 19.9843 25.6699 19.5813 25.6699C19.1783 25.6699 18.8516 25.9966 18.8516 26.3996C18.8516 26.8026 19.1783 27.1293 19.5813 27.1293Z" fill="#A88EC3"/>
<path d="M23.6985 30.5121C24.1015 30.5121 24.4282 30.1854 24.4282 29.7824C24.4282 29.3794 24.1015 29.0527 23.6985 29.0527C23.2955 29.0527 22.9688 29.3794 22.9688 29.7824C22.9688 30.1854 23.2955 30.5121 23.6985 30.5121Z" fill="#A88EC3"/>
<path d="M27.2375 27.1293C27.6406 27.1293 27.9673 26.8026 27.9673 26.3996C27.9673 25.9966 27.6406 25.6699 27.2375 25.6699C26.8345 25.6699 26.5078 25.9966 26.5078 26.3996C26.5078 26.8026 26.8345 27.1293 27.2375 27.1293Z" fill="#A88EC3"/>
<path d="M31.3508 30.5121C31.7538 30.5121 32.0806 30.1854 32.0806 29.7824C32.0806 29.3794 31.7538 29.0527 31.3508 29.0527C30.9478 29.0527 30.6211 29.3794 30.6211 29.7824C30.6211 30.1854 30.9478 30.5121 31.3508 30.5121Z" fill="#A88EC3"/>
<path d="M24.9616 8.69916C24.9616 13.2274 21.2906 13.832 16.7621 13.832C12.2335 13.832 8.5625 13.2275 8.5625 8.69916C8.5625 4.17085 12.2335 0.5 16.7621 0.5C21.2906 0.5 24.9616 4.17092 24.9616 8.69916Z" stroke="#A88EC3" stroke-miterlimit="10" stroke-linecap="round" stroke-linejoin="round"/>
<path d="M21.9766 13.3467L30.0805 14.9299" stroke="#A88EC3" stroke-miterlimit="10" stroke-linecap="round" stroke-linejoin="round"/>
<path d="M8.61794 9.59042C8.61794 9.59042 6.73849 9.56478 6.37279 6.45631C6.37279 6.45631 5.94287 4.75955 3.26953 5.74962C3.26953 5.74962 3.83063 6.1787 3.66561 7.13575C3.50059 8.09281 3.23651 15.0895 8.61634 15.0895" stroke="#A88EC3" stroke-miterlimit="10" stroke-linecap="round" stroke-linejoin="round"/>
<path d="M5.01768 5.33298C5.01768 5.33298 5.38074 3.39996 3.73047 3.00391" stroke="#A88EC3" stroke-miterlimit="10" stroke-linecap="round" stroke-linejoin="round"/>
<path d="M5.92516 5.80977C5.92516 5.80977 7.22781 3.90178 5.80859 2.68066" stroke="#A88EC3" stroke-miterlimit="10" stroke-linecap="round" stroke-linejoin="round"/>
<path d="M20.9726 13.4918C17.2059 14.1372 13.8649 13.0151 12.8281 10.0925C11.9986 7.75441 13.2217 5.18665 15.5598 4.35721C17.4304 3.69362 19.4847 4.67201 20.1483 6.54247C20.6792 8.03884 19.8965 9.68221 18.4001 10.213C17.2029 10.6377 15.8881 10.0115 15.4634 8.81448C15.1236 7.8568 15.6246 6.805 16.5823 6.46532C17.3485 6.19354 18.19 6.59426 18.4618 7.36044C18.6792 7.97336 18.3586 8.64648 17.7457 8.8639" stroke="#A88EC3" stroke-miterlimit="10" stroke-linecap="round" stroke-linejoin="round"/>
</svg>
