<svg width="50" height="26" viewBox="0 0 50 26" fill="none" xmlns="http://www.w3.org/2000/svg">
<path d="M25 5.88204C24.5688 5.88204 24.2188 5.5258 24.2188 5.08685V0.795193C24.2188 0.356247 24.5688 0 25 0C25.4312 0 25.7812 0.356247 25.7812 0.795193V5.08685C25.7812 5.5258 25.4312 5.88204 25 5.88204Z" fill="#FFC20E"/>
<path d="M33.1146 8.095C32.9821 8.095 32.8478 8.0608 32.7247 7.98804C32.3509 7.76857 32.2231 7.28231 32.4388 6.90181L34.5466 3.18508C34.7626 2.80497 35.2388 2.67377 35.6138 2.89404C35.9876 3.11351 36.1153 3.59977 35.8997 3.98027L33.7919 7.697C33.647 7.95226 33.3845 8.095 33.1146 8.095Z" fill="#FFC20E"/>
<path d="M39.0536 14.1376C38.7837 14.1376 38.5212 13.9953 38.3763 13.7396C38.1606 13.3595 38.2884 12.8733 38.6622 12.6538L41.7646 10.8308C42.1388 10.6102 42.6157 10.7414 42.8317 11.1219C43.0474 11.5024 42.9196 11.9886 42.5458 12.2081L39.4435 14.0311C39.32 14.1034 39.1856 14.1376 39.0536 14.1376Z" fill="#FFC20E"/>
<path d="M45.2039 22.4H41.2305C40.7992 22.4 40.4492 22.0437 40.4492 21.6048C40.4492 21.1658 40.7992 20.8096 41.2305 20.8096H45.2039C45.6352 20.8096 45.9852 21.1658 45.9852 21.6048C45.9852 22.0437 45.6352 22.4 45.2039 22.4Z" fill="#FFC20E"/>
<path d="M8.77383 22.4H4.80078C4.36953 22.4 4.01953 22.0437 4.01953 21.6048C4.01953 21.1658 4.36953 20.8096 4.80078 20.8096H8.77383C9.20508 20.8096 9.55508 21.1658 9.55508 21.6048C9.55508 22.0437 9.20508 22.4 8.77383 22.4Z" fill="#FFC20E"/>
<path d="M16.8923 8.09548C16.6224 8.09548 16.3595 7.95275 16.2149 7.69789L14.1067 3.98116C13.8911 3.60066 14.0189 3.11439 14.3927 2.89492C14.7669 2.67505 15.2442 2.80546 15.4599 3.18596L17.5681 6.90269C17.7837 7.28319 17.656 7.76945 17.2821 7.98893C17.1591 8.06089 17.0247 8.09548 16.8923 8.09548Z" fill="#FFC20E"/>
<path d="M10.9493 14.1379C10.8169 14.1379 10.6825 14.1033 10.5595 14.0309L7.45713 12.2079C7.0833 11.9884 6.95557 11.5022 7.1712 11.1217C7.38682 10.7412 7.86455 10.6104 8.23838 10.8306L11.3407 12.6536C11.7146 12.8731 11.8423 13.3594 11.6267 13.7395C11.4821 13.9951 11.2196 14.1379 10.9493 14.1379Z" fill="#FFC20E"/>
<path d="M37.8379 21.6052C37.8379 22.8218 37.6738 23.9948 37.3691 25.112H12.627C12.3223 23.9948 12.1582 22.8218 12.1582 21.6052C12.1582 14.3848 17.9043 8.53223 24.998 8.53223C32.0918 8.53223 37.8379 14.3848 37.8379 21.6052Z" fill="#FFC20E"/>
<path d="M49.2188 25.9097H0.78125C0.35 25.9097 0 25.5535 0 25.1145C0 24.6756 0.35 24.3193 0.78125 24.3193H49.2188C49.65 24.3193 50 24.6756 50 25.1145C50 25.5535 49.65 25.9097 49.2188 25.9097Z" fill="#F15A24"/>
</svg>
