<svg width="18" height="20" viewBox="0 0 18 20" fill="none" xmlns="http://www.w3.org/2000/svg">
<path d="M17.8951 14.2574C17.7653 13.5049 17.5236 12.6171 17.241 11.5785L15.2641 4.31417C14.9369 3.11189 14.6649 2.11198 14.3407 1.34741C14.2939 1.23695 14.245 1.12886 14.1934 1.02344C15.6315 1.07905 16.5075 1.26388 17.1218 1.87818C18.0005 2.75686 18.0005 4.17107 18.0005 6.9995V10.9995C18.0005 12.3942 18.0005 13.4451 17.8951 14.2574Z" fill="white"/>
<path d="M0.742923 8.2265C0.0570732 5.70626 -0.285847 4.44614 0.296253 3.45342C0.878363 2.46069 2.15815 2.12305 4.71775 1.44775L7.43261 0.731488C9.9922 0.0561984 11.272 -0.281452 12.2802 0.291698C13.2885 0.864848 13.6314 2.12497 14.3172 4.6452L16.2571 11.7735C16.9429 14.2937 17.2858 15.5539 16.7037 16.5466C16.1216 17.5393 14.8418 17.877 12.2822 18.5522L9.5674 19.2685C7.00779 19.9438 5.72799 20.2815 4.71976 19.7083C3.71153 19.1352 3.36861 17.875 2.68277 15.3548L0.742923 8.2265Z" fill="white"/>
</svg>
