<svg width="54" height="62" viewBox="0 0 54 62" fill="none" xmlns="http://www.w3.org/2000/svg">
<path d="M2.41992 39.7158C2.82508 39.9249 3.30718 40.1209 3.69434 40.2793C4.34739 40.5447 5.06355 40.8367 5.57422 41.2285C5.83066 41.4253 6.04161 41.6513 6.16602 41.9189C6.29141 42.1889 6.32626 42.4949 6.24023 42.8408L6.23926 42.8438C5.94959 43.8476 5.57165 44.8247 5.10938 45.7617L5.1084 45.7607C5.03885 45.9195 5.00393 46.0913 5.00391 46.2646C5.00391 46.3958 5.02433 46.5261 5.06445 46.6504L5.11035 46.7725L5.1123 46.7754C5.23331 47.0752 5.46143 47.3187 5.75195 47.46L8.74609 47.8164C8.90514 47.8348 9.05526 47.8997 9.17676 48.0039C9.29821 48.1082 9.3855 48.2469 9.42773 48.4014C9.46905 48.5538 9.46494 48.7154 9.41504 48.8652C9.37755 48.9777 9.3155 49.0799 9.23438 49.165L9.14746 49.2441L8.15723 50.0234L8.15625 50.0225C8.10479 50.0685 8.04557 50.104 7.98047 50.127L7.98145 50.1279C7.73346 50.2383 7.52562 50.4235 7.3877 50.6572C7.26711 50.8618 7.20498 51.0949 7.20703 51.3311L7.21191 51.4326V51.4346C7.2285 51.687 7.32524 51.9277 7.48828 52.1211C7.65127 52.3143 7.87236 52.4498 8.11816 52.5088C8.23215 52.5258 8.34191 52.5651 8.44043 52.625C8.51639 52.6712 8.58435 52.7292 8.64258 52.7959L8.69727 52.8652L8.69922 52.8682C9.51868 54.1124 8.9848 55.3227 8.58789 56.2627L8.58398 56.2715C8.30234 56.7924 8.15208 57.3746 8.14648 57.9668C8.1552 58.2217 8.2189 58.472 8.33301 58.7002C8.44779 58.9297 8.6112 59.1316 8.81152 59.292C9.37737 59.7119 10.4161 59.9356 12.0479 59.9365C13.6765 59.9374 15.8742 59.7171 18.7344 59.2715C18.8395 59.2552 18.9474 59.259 19.0508 59.2842C19.1542 59.3094 19.252 59.3551 19.3379 59.418C19.4237 59.4808 19.4965 59.5605 19.5518 59.6514C19.607 59.7422 19.6439 59.8432 19.6602 59.9482C19.6764 60.0534 19.6717 60.1612 19.6465 60.2646C19.6213 60.3678 19.5763 60.4651 19.5137 60.5508C19.4508 60.6366 19.3712 60.7093 19.2803 60.7646C19.1897 60.8197 19.0891 60.8556 18.9844 60.8721L18.9854 60.873C16.709 61.2769 14.4058 61.5125 12.0947 61.5771H12.0918C10.0343 61.5771 8.70073 61.2534 7.81738 60.5801L7.81543 60.5791C7.44604 60.287 7.14289 59.9198 6.92578 59.502C6.7086 59.0838 6.58215 58.6237 6.55566 58.1533V58.1514C6.52577 57.2852 6.72109 56.4256 7.12207 55.6572C7.29983 55.2631 7.42821 54.9457 7.49219 54.6738C7.55184 54.4202 7.55038 54.2139 7.48633 54.0244C6.98369 53.8511 6.53979 53.5393 6.20898 53.1221C5.86726 52.691 5.6609 52.1682 5.61523 51.6201L5.60156 51.4346C5.58408 51.0032 5.66278 50.5723 5.83301 50.1738C5.99681 49.7906 6.2413 49.4477 6.54785 49.168L5.43652 49.04L5.42871 49.0391L5.4209 49.0371L5.24512 48.9873L5.23438 48.9844V48.9834C4.87054 48.8371 4.54 48.6191 4.2627 48.3418C3.9853 48.0644 3.76645 47.7341 3.62012 47.3701C3.47227 47.0042 3.40182 46.6113 3.41309 46.2168C3.42436 45.8223 3.51704 45.4341 3.68555 45.0771L3.68652 45.0762C4.09045 44.2536 4.42448 43.3987 4.68945 42.5215C4.20057 42.2043 3.67346 41.9501 3.12012 41.7666L3.11328 41.7646V41.7637C2.48698 41.5048 1.83855 41.2399 1.30664 40.9053C0.774464 40.5704 0.344167 40.1574 0.168945 39.5947L0.167969 39.5908C0.0884444 39.2968 0.0777143 38.9883 0.136719 38.6895C0.195727 38.3906 0.32248 38.109 0.507812 37.8672C0.841036 37.3718 1.30003 36.8145 1.82422 36.1855C3.98249 33.5984 7.16396 29.7787 6.43652 24.1992L6.35352 23.6533C5.53583 18.8954 7.14313 13.595 10.9707 8.29883C10.1207 7.19128 9.52198 5.91149 9.21973 4.54785V4.54688C9.04599 3.8478 9.01432 3.12084 9.12598 2.40918C9.23784 1.69639 9.49155 1.01341 9.87207 0.400391L9.87891 0.388672L9.95703 0.453125L9.87988 0.388672C10.0105 0.232009 10.196 0.13133 10.3984 0.106445C10.6011 0.0816479 10.806 0.135183 10.9707 0.255859C11.1352 0.376534 11.2478 0.555283 11.2852 0.755859C11.3221 0.954591 11.2816 1.15925 11.1738 1.33008C10.6675 2.22439 10.533 3.28241 10.7979 4.27539L10.7988 4.28125C11.2128 6.2302 12.9735 9.31148 18.9785 12.9883L19.5732 13.3457L19.5811 13.3496V13.3506L19.6787 13.4209L19.6855 13.4258L19.6914 13.4316C19.6901 13.4303 19.7111 13.4477 19.7607 13.4873C19.8076 13.5247 19.8764 13.5786 19.9678 13.6465C20.1508 13.7825 20.4232 13.9756 20.7861 14.208C21.5119 14.6728 22.6001 15.2964 24.0586 15.9434C26.9756 17.2373 31.3769 18.6245 37.334 19.0205H37.333C37.5448 19.0286 37.7451 19.1203 37.8896 19.2754C38.0347 19.431 38.1119 19.638 38.1045 19.8506C38.097 20.0634 38.0053 20.265 37.8496 20.4102C37.6947 20.5545 37.4889 20.6306 37.2773 20.624V20.625H37.2217C25.2778 19.8264 19.4003 15.2752 18.7031 14.7031C16.2304 13.3214 13.9726 11.5869 11.999 9.55566C9.49741 13.0783 6.97352 18.1385 7.87109 23.373L7.96387 23.9893C8.78269 30.2914 5.17233 34.6152 3.00293 37.2197L3.00195 37.2217C2.47678 37.8239 2.06504 38.3469 1.78027 38.7705L1.77637 38.7764C1.69651 38.8792 1.65274 39.005 1.65039 39.1348C1.68445 39.2099 1.76537 39.3002 1.89844 39.4004C2.03676 39.5045 2.21721 39.6112 2.41992 39.7158Z" fill="#A88EC3" stroke="#A88EC3" stroke-width="0.2"/>
<path d="M16.6357 4.62305C16.8381 4.59722 17.0428 4.64986 17.208 4.76953L17.2119 4.77246C17.3158 4.85555 27.6612 13.258 40.7051 14.0566H40.7041C40.9162 14.0635 41.1172 14.1541 41.2627 14.3086C41.4084 14.4635 41.4868 14.6702 41.4805 14.8828C41.474 15.0954 41.3833 15.2965 41.2285 15.4424C41.0743 15.5876 40.8689 15.6657 40.6572 15.6602V15.6611H40.6084V15.6602C27.0299 14.8294 16.6369 6.37373 16.1943 6.00977L16.1895 6.00488C16.0404 5.86546 15.9497 5.67436 15.9365 5.4707C15.9234 5.26708 15.9883 5.06563 16.1182 4.9082C16.248 4.75081 16.4333 4.64892 16.6357 4.62305Z" fill="#A88EC3" stroke="#A88EC3" stroke-width="0.2"/>
<path d="M49.3086 20.1016C50.3661 20.0357 51.4102 20.3684 52.2344 21.0342C53.0583 21.6997 53.6025 22.65 53.7607 23.6973C53.7874 23.8709 53.7568 24.0489 53.6729 24.2031L53.6641 24.2197L53.6592 24.2227C53.6575 24.2255 53.6558 24.2292 53.6533 24.2334C53.644 24.249 53.6309 24.2723 53.6133 24.3027C53.578 24.3638 53.5264 24.4532 53.4609 24.5684C53.3301 24.7986 53.1423 25.1316 52.9072 25.5469C52.4371 26.3775 51.7785 27.5385 51.0146 28.8682C49.487 31.5275 47.5356 34.8647 45.8174 37.5947V37.5957C45.7427 37.7122 45.6389 37.8074 45.5166 37.8721C45.3952 37.9362 45.2593 37.9672 45.1221 37.9639V37.9648L45.1201 37.9639L45.1191 37.9648V37.9639C44.9719 37.9637 44.3585 37.9527 43.6191 37.917C43.7437 37.976 43.8703 38.0305 43.999 38.0801H43.998C44.1163 38.1212 44.2234 38.1894 44.3105 38.2793C44.3984 38.3699 44.4637 38.48 44.501 38.6006V38.6016C44.5371 38.7222 44.5447 38.8496 44.5225 38.9736C44.5002 39.0977 44.449 39.2149 44.373 39.3154L44.3721 39.3145C44.3629 39.3301 44.3519 39.3494 44.3398 39.3672C44.3193 39.3973 44.2916 39.4379 44.2568 39.4863C44.187 39.5836 44.0889 39.7171 43.9697 39.877C43.7313 40.1967 43.4066 40.6245 43.0459 41.0889C42.3251 42.0168 41.4582 43.0949 40.8545 43.748C40.7807 43.8276 40.691 43.8915 40.5918 43.9355C40.4927 43.9795 40.3857 44.0034 40.2773 44.0049H38.3994L38.6875 44.2334L38.7471 44.2852C38.8795 44.4126 38.9649 44.5825 38.9873 44.7666C39.0129 44.9771 38.9535 45.1892 38.8232 45.3564V45.3574C38.7048 45.5074 36.2663 48.4973 30.1719 49.6396C28.1306 53.5578 26.6946 56.7588 26.085 58.1582L25.7588 58.917C25.6974 59.0618 25.595 59.1855 25.4639 59.2725C25.3327 59.3594 25.1788 59.405 25.0215 59.4053C24.9174 59.4065 24.8136 59.3879 24.7168 59.3496H24.7158C24.6182 59.3092 24.5297 59.2495 24.4551 59.1748C24.3805 59.1001 24.3215 59.0116 24.2812 58.9141C24.2411 58.8166 24.2205 58.7119 24.2207 58.6064C24.221 58.501 24.2416 58.3961 24.2822 58.2988C24.4416 57.894 26.0935 53.9545 28.7793 48.7969C27.7781 43.8053 28.5272 38.6211 30.9023 34.1172V34.1162C30.9607 34.0061 31.0441 33.9112 31.1455 33.8389C31.247 33.7666 31.3642 33.7185 31.4873 33.6992L31.5791 33.6895C31.6713 33.685 31.7638 33.6965 31.8525 33.7236C31.9413 33.7508 32.0246 33.7933 32.0986 33.8486L32.1689 33.9082L32.7012 34.4404L32.3672 32.1699L32.3584 32.0918C32.3485 31.9083 32.4026 31.726 32.5117 31.5762L32.5127 31.5752L33.6924 30.0088C36.5934 26.0572 40.5452 22.9988 45.0986 21.1826C46.4396 20.617 47.8572 20.2527 49.3047 20.1016H49.3086ZM49.4199 21.7412L49.4189 21.7402C48.1354 21.8672 46.878 22.1852 45.6875 22.6816H45.6855C41.4171 24.3852 37.7112 27.2514 34.9902 30.9551L34.9912 30.9561L34.0029 32.3203L34.6367 36.5859V36.5889C34.6558 36.7489 34.6261 36.9107 34.5518 37.0537C34.4774 37.1968 34.3618 37.3143 34.2197 37.3906C34.0709 37.4697 33.9004 37.5005 33.7334 37.4775C33.5664 37.4545 33.411 37.379 33.2891 37.2627L31.8174 35.8564C30.2988 39.1551 29.683 42.7953 30.0273 46.4082C33.8269 39.4527 39.2119 31.0678 45.2695 26.2051L45.2725 26.2031L45.4043 26.123C45.5431 26.0558 45.6993 26.0293 45.8545 26.0488C46.0613 26.0749 46.2505 26.1802 46.3809 26.3428C46.5112 26.5054 46.5724 26.7134 46.5527 26.9209C46.533 27.1282 46.4338 27.3198 46.2754 27.4551L46.2734 27.457C40.3125 32.2658 34.9008 40.8089 31.127 47.7959C33.2687 47.3147 35.2656 46.3336 36.9551 44.9307L35.5996 43.8633C35.4686 43.7614 35.3724 43.6217 35.3242 43.4629C35.2761 43.3038 35.2783 43.1332 35.3311 42.9756C35.3839 42.8178 35.4847 42.6801 35.6191 42.582C35.7535 42.4841 35.9148 42.43 36.0811 42.4277L39.877 42.3721C40.6601 41.4832 41.7804 40.0332 42.4824 39.127C41.611 38.6899 40.8413 38.0742 40.2266 37.3164L40.2227 37.3125C40.1237 37.1773 40.0701 37.0143 40.0684 36.8467C40.0667 36.6789 40.1173 36.5142 40.2139 36.377C40.3104 36.2396 40.4479 36.1363 40.6064 36.0811C40.7606 36.0274 40.9269 36.0229 41.084 36.0664H41.085C42.2814 36.2541 43.4902 36.3517 44.7012 36.3594C47.7227 31.528 51.3771 25.052 52.1221 23.6924C51.9702 23.1106 51.6233 22.5982 51.1377 22.2422C50.6417 21.8786 50.0336 21.7013 49.4199 21.7412Z" fill="#A88EC3" stroke="#A88EC3" stroke-width="0.2"/>
</svg>
