<svg width="43" height="61" viewBox="0 0 43 61" fill="none" xmlns="http://www.w3.org/2000/svg">
<path fill-rule="evenodd" clip-rule="evenodd" d="M1.32141 60.0182H16.9774C17.5956 60.0182 18.0957 59.5569 18.0957 58.9868C18.0957 58.4168 17.5956 57.9555 16.9774 57.9555H2.4397V49.7048H10.2677C10.8858 49.7048 11.386 49.2435 11.386 48.6735C11.386 48.1034 10.8858 47.6421 10.2677 47.6421H2.4397V42.4854C2.4397 41.9154 1.93953 41.4541 1.32141 41.4541C0.703297 41.4541 0.203125 41.9154 0.203125 42.4854V58.9868C0.203125 59.5569 0.703297 60.0182 1.32141 60.0182Z" fill="#A88EC3" stroke="white" stroke-width="0.4"/>
<path fill-rule="evenodd" clip-rule="evenodd" d="M13.625 46.6105C13.625 54.0031 20.1469 60.0179 28.1627 60.0179C36.1786 60.0179 42.7005 54.0031 42.7005 46.6105C42.7005 39.2179 36.1786 33.2031 28.1627 33.2031C20.1469 33.2031 13.625 39.2179 13.625 46.6105ZM40.4639 46.6105C40.4639 52.866 34.9445 57.9552 28.1627 57.9552C21.3798 57.9552 15.8616 52.866 15.8616 46.6105C15.8616 40.355 21.3798 35.2658 28.1627 35.2658C34.9445 35.2658 40.4639 40.355 40.4639 46.6105Z" fill="#A88EC3" stroke="white" stroke-width="0.4"/>
<path fill-rule="evenodd" clip-rule="evenodd" d="M21.8274 40.7746C21.5358 41.0435 21.4288 41.4383 21.5478 41.8029C21.6668 42.1665 21.9945 42.4405 22.3985 42.515L26.3518 43.2452C26.9503 43.356 27.5466 42.9974 27.6689 42.4364C27.7912 41.8785 27.3981 41.3346 26.793 41.2228L25.393 40.965C27.8349 39.9457 30.9451 40.4332 32.8978 42.233C34.5774 43.782 35.2392 45.9776 34.6647 48.1058C34.5162 48.6587 34.881 49.2177 35.4816 49.3557C35.5712 49.3758 35.6629 49.3859 35.7503 49.3859C36.2526 49.3859 36.7091 49.0726 36.8358 48.6033C37.5871 45.8084 36.6851 42.8091 34.4791 40.7746C31.1024 37.6585 25.2052 37.6585 21.8274 40.7746Z" fill="#A88EC3" stroke="white" stroke-width="0.4"/>
<path fill-rule="evenodd" clip-rule="evenodd" d="M33.9017 50.7046L29.9484 49.9744C29.3565 49.8596 28.7536 50.2232 28.6313 50.7832C28.509 51.3411 28.9021 51.885 29.5072 51.9968L30.905 52.2546C28.4609 53.2698 25.3529 52.7854 23.4014 50.9866C21.7228 49.4376 21.0621 47.242 21.6344 45.1128C21.7829 44.5609 21.417 44.0009 20.8175 43.8639C20.2256 43.729 19.6118 44.0623 19.4633 44.6173C18.712 47.4112 19.6151 50.4105 21.82 52.445C23.5095 54.0031 25.757 54.8612 28.1464 54.8612C30.5359 54.8612 32.7834 54.0031 34.4717 52.445C34.7644 52.1761 34.8714 51.7813 34.7513 51.4167C34.6312 51.0531 34.3058 50.7791 33.9017 50.7046Z" fill="#A88EC3" stroke="white" stroke-width="0.4"/>
<path fill-rule="evenodd" clip-rule="evenodd" d="M1.32141 35.2656C1.93953 35.2656 2.4397 34.8043 2.4397 34.2343V29.0776H27.042V30.1089C27.042 30.679 27.5422 31.1403 28.1603 31.1403C28.7784 31.1403 29.2786 30.679 29.2786 30.1089V23.9209C29.2786 21.0777 26.7712 18.7642 23.6872 18.7642C23.0701 18.7642 22.5689 18.302 22.5689 17.7329V5.35687C22.5689 4.78682 22.0687 4.32554 21.4506 4.32554H18.0957V2.26287H19.214C19.8321 2.26287 20.3323 1.80159 20.3323 1.23153C20.3323 0.661476 19.8321 0.200195 19.214 0.200195H10.2677C9.6496 0.200195 9.14943 0.661476 9.14943 1.23153C9.14943 1.80159 9.6496 2.26287 10.2677 2.26287H11.386V4.32554H8.03114C7.41302 4.32554 6.91285 4.78682 6.91285 5.35687V6.38821H3.55799C1.70801 6.38821 0.203125 7.77608 0.203125 9.48222C0.203125 11.1884 1.70801 12.5762 3.55799 12.5762H6.91285V17.7329C6.91285 18.302 6.41159 18.7642 5.79456 18.7642C4.2864 18.7642 2.88199 19.3071 1.85981 20.274C0.791755 21.2348 0.203125 22.53 0.203125 23.9209V34.2343C0.203125 34.8043 0.703297 35.2656 1.32141 35.2656ZM9.14943 10.5136H20.3323V12.5762H9.14943V10.5136ZM13.6226 2.26287H15.8592V4.32554H13.6226V2.26287ZM9.14943 6.38821H20.3323V8.45088H9.14943V6.38821ZM3.55799 10.5136C2.94096 10.5136 2.4397 10.0513 2.4397 9.48222C2.4397 8.91317 2.94096 8.45088 3.55799 8.45088H6.91285V10.5136H3.55799ZM3.44114 21.7324C4.05816 21.1482 4.89469 20.8269 5.79456 20.8269C7.64454 20.8269 9.14943 19.439 9.14943 17.7329V14.6389H20.3323V17.7329C20.3323 19.439 21.8372 20.8269 23.6872 20.8269C25.5372 20.8269 27.042 22.2148 27.042 23.9209V27.0149H2.4397V23.9209C2.4397 23.091 2.78807 22.3195 3.44114 21.7324Z" fill="#A88EC3" stroke="white" stroke-width="0.4"/>
<path d="M1.32141 39.3928C1.93903 39.3928 2.4397 38.931 2.4397 38.3614C2.4397 37.7918 1.93903 37.3301 1.32141 37.3301C0.7038 37.3301 0.203125 37.7918 0.203125 38.3614C0.203125 38.931 0.7038 39.3928 1.32141 39.3928Z" fill="#A88EC3" stroke="white" stroke-width="0.4"/>
</svg>
