<svg width="21" height="21" viewBox="0 0 21 21" fill="none" xmlns="http://www.w3.org/2000/svg">
<path d="M10.3003 12.7383C10.1279 12.7383 9.98819 12.878 9.98819 13.0504V14.1208L9.75008 13.8611C9.63359 13.7341 9.43613 13.7256 9.30915 13.8421C9.18214 13.9585 9.17359 14.156 9.29008 14.283L10.0703 15.1337C10.1294 15.1982 10.2128 15.2349 10.3003 15.2349C10.3877 15.2349 10.4712 15.1982 10.5303 15.1337L11.3105 14.283C11.4269 14.156 11.4184 13.9585 11.2914 13.8421C11.1644 13.7256 10.967 13.7341 10.8505 13.8611L10.6123 14.1208V13.0504C10.6123 12.878 10.4726 12.7383 10.3003 12.7383Z" fill="#A88EC3"/>
<path d="M6.86408 11.0831C7.50283 11.6742 8.4707 12.3528 10.3004 12.3528C12.1302 12.3528 13.0981 11.6742 13.7368 11.0831C14.3924 10.4764 15.5853 9.15572 15.6358 9.09982C15.7077 9.02017 15.7336 8.90914 15.7044 8.80588C15.6752 8.70263 15.595 8.62156 15.4921 8.59133C15.4087 8.56683 13.4398 7.99011 12.5544 7.88038C11.9771 7.80887 11.4668 7.93402 11.0166 8.04442C10.7517 8.10941 10.5015 8.17073 10.3005 8.17073C10.0995 8.17073 9.8493 8.10937 9.58439 8.04442C9.13414 7.93398 8.62393 7.80891 8.04658 7.88038C7.16118 7.99011 5.19228 8.56683 5.10888 8.59133C5.00589 8.62156 4.92573 8.70263 4.89655 8.80588C4.86733 8.90914 4.89327 9.02017 4.96517 9.09982C5.01561 9.15576 6.2086 10.4765 6.86416 11.0831H6.86408ZM13.3129 10.625C12.7231 11.1707 11.9041 11.7286 10.3004 11.7286C8.69668 11.7286 7.87767 11.1708 7.28796 10.625C7.0044 10.3626 6.60588 9.94984 6.2503 9.57196C6.64902 9.67015 7.13114 9.75764 7.67182 9.79412C8.0288 9.81819 8.35371 9.89176 8.69766 9.96966C9.17357 10.0774 9.66568 10.1889 10.3004 10.1889C10.9351 10.1889 11.4272 10.0774 11.9031 9.96966C12.247 9.89176 12.5719 9.81819 12.9289 9.79412C13.4696 9.75764 13.9518 9.67015 14.3505 9.57196C13.9949 9.94981 13.5964 10.3626 13.3128 10.625H13.3129ZM8.12328 8.49981C8.5866 8.44239 9.01824 8.54826 9.43568 8.65063C9.73824 8.72482 10.024 8.79492 10.3004 8.79492C10.5769 8.79492 10.8627 8.72486 11.1652 8.65063C11.5826 8.54826 12.0142 8.44235 12.4776 8.49981C12.9324 8.55618 13.7275 8.75408 14.3607 8.92366C13.9646 9.0305 13.4598 9.13275 12.887 9.17137C12.4816 9.19871 12.1174 9.28118 11.7653 9.36092C11.3229 9.46113 10.8654 9.56474 10.3005 9.56474C9.73559 9.56474 9.27808 9.46113 8.83563 9.36092C8.48353 9.28118 8.11942 9.19871 7.71395 9.17137C7.14121 9.13275 6.63634 9.0305 6.24024 8.92366C6.87352 8.75408 7.66858 8.55618 8.12335 8.49981H8.12328Z" fill="#A88EC3"/>
<path d="M5.51114 15.3357C5.39368 15.2096 5.19621 15.2025 5.07006 15.3201C4.94394 15.4375 4.93696 15.635 5.05445 15.7612C5.14281 15.856 5.2321 15.9491 5.31984 16.0378C5.38089 16.0995 5.46125 16.1304 5.54172 16.1304C5.62099 16.1304 5.70034 16.1004 5.76115 16.0402C5.88368 15.919 5.88474 15.7214 5.76357 15.5989C5.68017 15.5146 5.59524 15.4261 5.51114 15.3358V15.3357Z" fill="#A88EC3"/>
<path d="M7.14407 16.7626C7.04643 16.6968 6.94777 16.6269 6.85087 16.5549C6.71258 16.452 6.51707 16.4807 6.41424 16.619C6.31137 16.7573 6.34008 16.9528 6.47841 17.0557C6.58315 17.1336 6.6898 17.2091 6.79548 17.2803C6.84896 17.3163 6.90954 17.3335 6.9695 17.3335C7.06983 17.3335 7.16837 17.2852 7.22864 17.1957C7.32492 17.0527 7.28708 16.8588 7.14411 16.7625L7.14407 16.7626Z" fill="#A88EC3"/>
<path d="M15.0869 15.3386C15.0029 15.4286 14.9179 15.5172 14.8344 15.6017C14.7131 15.7242 14.7142 15.9218 14.8368 16.043C14.8976 16.1031 14.9769 16.1332 15.0562 16.1332C15.1366 16.1332 15.217 16.1023 15.2781 16.0405C15.366 15.9517 15.4552 15.8587 15.5434 15.7642C15.6609 15.6381 15.654 15.4406 15.5279 15.3231C15.4019 15.2055 15.2044 15.2125 15.0869 15.3385V15.3386Z" fill="#A88EC3"/>
<path d="M13.7463 16.5557C13.6493 16.6278 13.5508 16.6976 13.4534 16.763C13.3104 16.8592 13.2724 17.0531 13.3686 17.1961C13.4288 17.2857 13.5274 17.3341 13.6278 17.3341C13.6877 17.3341 13.7483 17.3169 13.8017 17.281C13.9071 17.2101 14.0138 17.1346 14.1186 17.0567C14.2569 16.9539 14.2858 16.7585 14.1829 16.6201C14.0802 16.4818 13.8846 16.4529 13.7463 16.5558V16.5557Z" fill="#A88EC3"/>
<path d="M12.1964 17.4241C12.0858 17.4665 11.9733 17.5055 11.862 17.5401C11.6975 17.5913 11.6056 17.7662 11.6567 17.9308C11.6983 18.0645 11.8216 18.1503 11.9547 18.1503C11.9854 18.1503 12.0166 18.1457 12.0474 18.1361C12.1715 18.0975 12.2967 18.0541 12.4197 18.0069C12.5807 17.9452 12.6612 17.7648 12.5995 17.6038C12.5378 17.4429 12.3573 17.3624 12.1964 17.4241V17.4241Z" fill="#A88EC3"/>
<path d="M8.73518 17.5392C8.62389 17.5045 8.51169 17.4655 8.40157 17.4232C8.24069 17.3614 8.06016 17.4417 7.99837 17.6027C7.93657 17.7636 8.01693 17.9441 8.17785 18.0059C8.30038 18.0529 8.42537 18.0964 8.54934 18.1351C8.58027 18.1447 8.61156 18.1493 8.64234 18.1493C8.77528 18.1493 8.89848 18.0637 8.94018 17.9301C8.99148 17.7655 8.89969 17.5905 8.73518 17.5392V17.5392Z" fill="#A88EC3"/>
<path d="M10.4753 17.7737C10.3586 17.7775 10.2389 17.7775 10.1222 17.7736C9.94958 17.7687 9.80571 17.9028 9.79998 18.0751C9.79428 18.2474 9.92926 18.3917 10.1015 18.3974C10.1674 18.3996 10.2344 18.4006 10.3007 18.4006C10.3656 18.4006 10.4312 18.3996 10.4957 18.3975C10.668 18.3918 10.8031 18.2476 10.7974 18.0753C10.7918 17.9031 10.6475 17.7681 10.4753 17.7736V17.7737Z" fill="#A88EC3"/>
<path d="M19.5527 8.74023C19.6347 8.5116 19.8779 8.38917 20.1084 8.45215H20.1191L20.1436 8.46094L20.2285 8.50195C20.4117 8.61362 20.4979 8.84187 20.4229 9.05176C20.352 9.24938 20.2872 9.48461 20.2227 9.71875C20.1628 9.93571 20.1047 10.144 20.042 10.3271C19.9795 10.5096 19.9085 10.6781 19.8174 10.8115C19.4601 11.3346 18.7405 12.1559 17.7832 13.0127C17.7764 13.2531 17.7844 13.9824 17.8164 14.8145C17.8515 15.7269 17.9143 16.7439 18.0137 17.3506C18.1178 17.9855 18.2694 18.5424 18.3955 18.9414C18.4585 19.1408 18.5157 19.301 18.5566 19.4111C18.5769 19.4658 18.5931 19.5082 18.6045 19.5371C18.6102 19.5516 18.6151 19.5628 18.6182 19.5703C18.6207 19.5765 18.6226 19.58 18.623 19.5811V19.582C18.7215 19.8168 18.6116 20.0873 18.377 20.1865C18.3187 20.2111 18.2574 20.2226 18.1973 20.2227C18.0174 20.2227 17.8461 20.117 17.7715 19.9404C17.7507 19.891 17.3287 18.8798 17.1025 17.5C16.9735 16.7124 16.9125 15.391 16.8877 14.6797C16.8842 14.5794 16.8838 14.4786 16.8809 14.3789C16.8789 14.3816 16.878 14.385 16.876 14.3877C16.7984 14.4914 16.7203 14.5936 16.6445 14.6914C16.5534 14.8091 16.417 14.8711 16.2793 14.8711C16.1806 14.8711 16.0811 14.8394 15.9971 14.7744C15.9144 14.7105 15.8604 14.6239 15.835 14.5303C14.2184 15.6121 12.2769 16.4863 10.2998 16.4863C8.29968 16.4863 6.35647 15.6261 4.74902 14.5645C4.72027 14.6433 4.67201 14.7162 4.60059 14.7715C4.51658 14.8365 4.41612 14.8682 4.31738 14.8682C4.17988 14.868 4.04315 14.8062 3.95215 14.6885C3.87659 14.5908 3.79826 14.4886 3.7207 14.3848C3.72 14.3838 3.71944 14.3828 3.71875 14.3818C3.71584 14.4806 3.71538 14.5804 3.71191 14.6797C3.68708 15.391 3.62616 16.7124 3.49707 17.5C3.27092 18.8795 2.84912 19.8906 2.82812 19.9404C2.75353 20.117 2.58218 20.2236 2.40234 20.2236C2.34225 20.2236 2.28106 20.2112 2.22266 20.1865C1.98773 20.0872 1.87737 19.8161 1.97656 19.5811C1.97702 19.58 1.97894 19.5765 1.98145 19.5703C1.98449 19.5628 1.98939 19.5516 1.99512 19.5371C2.00657 19.5082 2.02257 19.465 2.04297 19.4102C2.08387 19.3001 2.14113 19.1406 2.2041 18.9414C2.33024 18.5424 2.48184 17.9855 2.58594 17.3506C2.76977 16.2289 2.82495 13.7222 2.81543 13.0752C1.89018 12.2532 1.19914 11.467 0.855469 10.9639C0.761921 10.8269 0.681547 10.6335 0.607422 10.4229C0.532491 10.2099 0.459801 9.96523 0.386719 9.71875C0.315828 9.47973 0.243623 9.23825 0.176758 9.05176C0.0909013 8.81166 0.215967 8.54701 0.456055 8.46094C0.696234 8.37479 0.960784 8.5001 1.04688 8.74023C1.12305 8.95269 1.1999 9.21131 1.27246 9.45605C1.33005 9.65025 1.39349 9.86521 1.45605 10.0508C1.52088 10.243 1.57761 10.3829 1.61816 10.4424C2.11546 11.1706 3.34259 12.4514 4.85156 13.5195C6.17828 14.4586 8.19606 15.5625 10.2998 15.5625C12.4021 15.5625 14.434 14.4197 15.7803 13.4463C17.5312 12.1803 18.6916 10.8217 19.0547 10.29C19.0914 10.2362 19.1368 10.1241 19.1875 9.96777C19.2365 9.81661 19.2848 9.64153 19.3311 9.47363C19.398 9.23083 19.4694 8.97265 19.5527 8.74023ZM16.8438 13.7979C16.8522 13.8069 16.8596 13.8166 16.8672 13.8262C16.8669 13.8108 16.8665 13.7955 16.8662 13.7803C16.8587 13.7861 16.8513 13.792 16.8438 13.7979Z" fill="#A88EC3" stroke="#A88EC3" stroke-width="0.3"/>
<path d="M12.2666 4.3584C12.6606 4.33223 12.9977 4.47525 13.0361 4.49219C13.2188 4.57292 13.3011 4.78592 13.2207 4.96875C13.1402 5.15168 12.9273 5.23489 12.7441 5.1543H12.7422C12.7407 5.1537 12.7382 5.15249 12.7354 5.15137C12.7293 5.14902 12.7204 5.14557 12.709 5.1416C12.6858 5.1335 12.6526 5.12252 12.6123 5.1123C12.5311 5.09171 12.4232 5.07381 12.3145 5.08105C12.034 5.09983 11.8664 5.26966 11.5957 5.5752C11.3144 5.89278 10.9492 6.30744 10.3008 6.30762C9.65204 6.30762 9.28629 5.89286 9.00488 5.5752C8.73416 5.26965 8.56666 5.0998 8.28613 5.08105C8.17729 5.07384 8.06963 5.09164 7.98828 5.1123C7.90769 5.13277 7.85449 5.15528 7.85449 5.15527C7.67152 5.23336 7.45925 5.14957 7.37988 4.9668C7.30072 4.78424 7.38301 4.57253 7.56543 4.49219C7.60516 4.47471 7.94121 4.33241 8.33398 4.3584C8.93206 4.39822 9.27919 4.79258 9.54688 5.09473C9.82649 5.41036 9.99965 5.58301 10.3008 5.58301C10.6016 5.58285 10.7743 5.41017 11.0537 5.09473C11.3214 4.7926 11.6686 4.39822 12.2666 4.3584Z" fill="#A88EC3" stroke="#A88EC3" stroke-width="0.1"/>
<path d="M9.06934 0.0625C9.26231 0.114249 9.37669 0.31185 9.3252 0.504883C9.31647 0.537643 9.11329 1.2902 8.70898 2.02051C8.32701 2.71041 7.90715 3.21293 7.57227 3.61426C7.42279 3.79338 7.29556 3.94619 7.2002 4.08105C7.10963 4.20917 7.01758 4.40173 7.00195 4.59863C6.98667 4.79261 7.04536 4.99084 7.25488 5.14258C7.48977 5.31251 7.86385 5.41651 8.3418 5.43652C8.54151 5.44485 8.69673 5.61379 8.68848 5.81348C8.68033 6.00815 8.52018 6.16113 8.32715 6.16113C8.32202 6.16113 8.31708 6.16032 8.3125 6.16016H8.31152C7.69186 6.1342 7.19242 5.99083 6.83105 5.72949C6.46577 5.46524 6.29906 5.10343 6.28027 4.72949C6.26159 4.35705 6.38945 3.97416 6.60938 3.66309C6.7219 3.50393 6.85939 3.33879 7.0166 3.15039C7.33441 2.76951 7.7271 2.2987 8.0752 1.66992C8.25501 1.34515 8.39267 1.00846 8.48535 0.751953C8.53159 0.623954 8.56627 0.515661 8.58984 0.439453C8.60159 0.401465 8.61119 0.371354 8.61719 0.350586C8.62011 0.34048 8.62249 0.332639 8.62402 0.327148C8.62478 0.32445 8.62459 0.321789 8.625 0.320312L8.62598 0.318359C8.67782 0.125355 8.87625 0.010742 9.06934 0.0625Z" fill="#A88EC3" stroke="#A88EC3" stroke-width="0.1"/>
<path d="M11.5303 0.0615234C11.7233 0.0101147 11.922 0.125198 11.9736 0.318359V0.320312C11.974 0.321782 11.9748 0.324384 11.9756 0.327148C11.9771 0.332608 11.9795 0.340448 11.9824 0.350586C11.9884 0.371393 11.998 0.402307 12.0098 0.44043C12.0333 0.516579 12.0681 0.624254 12.1143 0.751953C12.2069 1.00844 12.3446 1.34515 12.5244 1.66992C12.8725 2.29871 13.2652 2.76946 13.583 3.15039C13.7403 3.33881 13.8777 3.50393 13.9902 3.66309C14.2101 3.97414 14.338 4.35707 14.3193 4.72949C14.3006 5.10343 14.1338 5.46524 13.7686 5.72949C13.4071 5.99089 12.907 6.13327 12.2871 6.15918L12.2881 6.16016C12.2829 6.16039 12.2774 6.16113 12.2725 6.16113C12.0794 6.16113 11.9193 6.00815 11.9111 5.81348C11.9029 5.61381 12.0581 5.44489 12.2578 5.43652C12.7357 5.4165 13.1099 5.31347 13.3447 5.14355C13.5544 4.99188 13.6118 4.79355 13.5967 4.59961C13.5812 4.40256 13.49 4.20924 13.3994 4.08105C13.304 3.94618 13.1768 3.79339 13.0273 3.61426C12.6925 3.21292 12.2726 2.71042 11.8906 2.02051L11.8721 1.9873V1.98633C11.4802 1.26687 11.2821 0.537067 11.2734 0.504883C11.2221 0.311863 11.3372 0.113166 11.5303 0.0615234Z" fill="#A88EC3" stroke="#A88EC3" stroke-width="0.1"/>
</svg>
