<svg width="33" height="30" viewBox="0 0 33 30" fill="none" xmlns="http://www.w3.org/2000/svg">
<path d="M16.0153 24.7883L15.6899 26.6854C15.6257 27.0584 15.6671 27.442 15.8096 27.7926C15.952 28.1432 16.1898 28.4469 16.4959 28.6693C16.802 28.8917 17.1642 29.0238 17.5415 29.0508C17.9188 29.0777 18.2962 28.9984 18.6307 28.8218L20.3344 27.926C20.4672 27.856 20.615 27.8194 20.765 27.8194C20.9151 27.8194 21.0629 27.856 21.1956 27.926L22.8993 28.8218C23.2338 28.9976 23.6108 29.0763 23.9876 29.049C24.3645 29.0217 24.7262 28.8894 25.0319 28.6672C25.3375 28.4449 25.5749 28.1415 25.7173 27.7913C25.8596 27.4411 25.9012 27.0581 25.8373 26.6854L25.5125 24.7883C25.487 24.6403 25.4979 24.4884 25.5441 24.3456C25.5904 24.2027 25.6706 24.0733 25.778 23.9684L27.1563 22.6239C27.4269 22.36 27.6182 22.0256 27.7087 21.6586C27.7992 21.2915 27.7853 20.9065 27.6686 20.5469C27.5518 20.1874 27.3369 19.8677 27.0481 19.624C26.7592 19.3802 26.408 19.2222 26.0341 19.1678L24.1298 18.8929C23.9813 18.8711 23.8403 18.8137 23.7189 18.7253C23.5975 18.637 23.4994 18.5205 23.4329 18.3859L22.5811 16.6592C22.4139 16.3201 22.1551 16.0346 21.8342 15.835C21.5133 15.6354 21.1429 15.5296 20.765 15.5296C20.3871 15.5296 20.0168 15.6354 19.6958 15.835C19.3749 16.0346 19.1162 16.3201 18.9489 16.6592L18.7555 17.0518C18.206 15.8388 17.3934 14.7635 16.3767 13.9039C15.36 13.0443 14.1647 12.4221 12.8777 12.0824C14.1289 11.3927 15.1153 10.3062 15.6816 8.99398C16.2478 7.68174 16.3617 6.21832 16.0053 4.83418C15.649 3.45005 14.8426 2.22383 13.7132 1.34863C12.5838 0.473437 11.1956 -0.00101128 9.76707 1.61846e-06C8.33857 0.00101452 6.95098 0.477432 5.82283 1.35423C4.69467 2.23102 3.89005 3.45838 3.53566 4.84303C3.18127 6.22767 3.29725 7.69092 3.86534 9.00236C4.43343 10.3138 5.42136 11.3989 6.67353 12.0868C4.76537 12.5849 3.07574 13.7011 1.86844 15.2613C0.661139 16.8214 0.00413269 18.7377 0 20.7108V23.9409C0 24.0867 0.0579019 24.2266 0.160968 24.3297C0.264034 24.4329 0.403821 24.4908 0.549579 24.4908H16.0114C16.0289 24.5891 16.0302 24.6896 16.0153 24.7883ZM19.9321 17.1448C20.0085 16.9897 20.1267 16.8591 20.2734 16.7678C20.4202 16.6765 20.5895 16.6281 20.7623 16.6281C20.935 16.6281 21.1044 16.6765 21.2511 16.7678C21.3978 16.8591 21.516 16.9897 21.5924 17.1448L22.4442 18.8714C22.5897 19.166 22.8045 19.4208 23.0701 19.6139C23.3358 19.807 23.6444 19.9327 23.9693 19.98L25.8736 20.255C26.0446 20.2798 26.2052 20.352 26.3372 20.4634C26.4693 20.5748 26.5676 20.721 26.6209 20.8854C26.6743 21.0497 26.6806 21.2258 26.6391 21.3936C26.5977 21.5614 26.5101 21.7142 26.3864 21.8348L25.0058 23.1804C24.7708 23.4103 24.5951 23.694 24.4941 24.007C24.3931 24.32 24.3697 24.6529 24.426 24.9769L24.7514 26.874C24.7807 27.0445 24.7617 27.2197 24.6967 27.38C24.6316 27.5402 24.523 27.679 24.3832 27.7807C24.2434 27.8824 24.0779 27.9429 23.9055 27.9553C23.7331 27.9678 23.5606 27.9317 23.4077 27.8512L21.704 26.9549C21.4134 26.8021 21.09 26.7223 20.7617 26.7223C20.4334 26.7223 20.1101 26.8021 19.8195 26.9549L18.1158 27.8512C17.9628 27.9316 17.7904 27.9675 17.6181 27.955C17.4458 27.9424 17.2804 27.8819 17.1407 27.7803C17.001 27.6786 16.8924 27.5399 16.8274 27.3797C16.7623 27.2196 16.7434 27.0444 16.7726 26.874L17.0985 24.9769C17.1641 24.5693 17.1027 24.1513 16.9226 23.7798C16.9097 23.7401 16.8922 23.7021 16.8704 23.6665C16.7771 23.4886 16.6576 23.3256 16.5159 23.1831L15.1381 21.837C15.0144 21.7163 14.9269 21.5634 14.8855 21.3955C14.8441 21.2277 14.8505 21.0516 14.9039 20.8872C14.9573 20.7228 15.0556 20.5766 15.1877 20.4651C15.3198 20.3537 15.4805 20.2815 15.6515 20.2566L17.5557 19.9817C17.8806 19.9342 18.1891 19.8085 18.4546 19.6154C18.7202 19.4223 18.9349 19.1676 19.0803 18.8731L19.1578 18.7158L19.1611 18.7092L19.9321 17.1448ZM9.17357 12.8864H10.3645L11.5258 17.2784L9.76711 20.0531L8.01286 17.2784L9.17357 12.8864ZM4.4307 6.4416C4.4307 5.38509 4.74382 4.35231 5.33046 3.47386C5.9171 2.59541 6.75091 1.91076 7.72644 1.50648C8.70198 1.10219 9.77542 0.996442 10.811 1.2026C11.8466 1.40875 12.7979 1.91755 13.5445 2.66465C14.2911 3.41176 14.7995 4.3636 15.0054 5.39982C15.2113 6.43604 15.1055 7.5101 14.7014 8.48615C14.2972 9.4622 13.6129 10.2964 12.7349 10.8833C11.8569 11.4702 10.8247 11.7834 9.76876 11.7833C8.35346 11.7815 6.99664 11.2182 5.99592 10.2168C4.9952 9.21537 4.4323 7.85771 4.4307 6.4416ZM1.09916 20.7108C1.10196 18.792 1.80862 16.9409 3.08507 15.5089C4.36151 14.0768 6.11892 13.1634 8.02385 12.9419L6.89062 17.2267C6.87126 17.2999 6.86722 17.3763 6.87876 17.4512C6.89029 17.526 6.91716 17.5977 6.95767 17.6617L9.30712 21.3723C9.35671 21.4506 9.42526 21.515 9.5064 21.5597C9.58753 21.6043 9.67863 21.6277 9.77123 21.6277C9.86384 21.6277 9.95494 21.6043 10.0361 21.5597C10.1172 21.515 10.1858 21.4506 10.2354 21.3723L12.5854 17.6633C12.6259 17.5993 12.6527 17.5277 12.6643 17.4528C12.6758 17.378 12.6718 17.3015 12.6524 17.2283L11.5197 12.9458C13.0241 13.1224 14.4452 13.7311 15.6112 14.6985C16.7773 15.6658 17.6384 16.9504 18.0905 18.3969C18.0232 18.5285 17.9255 18.6421 17.8054 18.7281C17.6853 18.8142 17.5464 18.8703 17.4002 18.8918L15.4959 19.1667C15.122 19.2211 14.7708 19.3791 14.482 19.6229C14.1931 19.8666 13.9782 20.1863 13.8614 20.5458C13.7447 20.9054 13.7308 21.2904 13.8213 21.6575C13.9118 22.0245 14.1032 22.3589 14.3737 22.6228L15.1596 23.3927H1.09916V20.7108Z" fill="#662D91"/>
<path d="M31.6744 1.38043H20.3717C20.0268 1.38043 19.6959 1.51747 19.4519 1.76143C19.2078 2.0054 19.0706 2.33632 19.0703 2.68148V10.9233C19.0706 11.2682 19.2076 11.5989 19.4513 11.8428C19.695 12.0867 20.0254 12.2239 20.3701 12.2244H22.3557C22.4089 12.2245 22.4598 12.2457 22.4974 12.2833C22.535 12.3209 22.5561 12.3719 22.5563 12.4251C22.556 12.682 22.6319 12.9333 22.7742 13.1472C22.9166 13.3611 23.1191 13.528 23.3561 13.6269C23.5932 13.7257 23.8542 13.752 24.1063 13.7026C24.3583 13.6531 24.59 13.53 24.7722 13.3489L25.8477 12.2826C25.8662 12.264 25.8882 12.2492 25.9125 12.2392C25.9367 12.2292 25.9627 12.2242 25.989 12.2244H31.6744C32.0191 12.2241 32.3497 12.0869 32.5935 11.843C32.8373 11.599 32.9744 11.2683 32.9747 10.9233V2.68148C32.9744 2.33651 32.8373 2.00575 32.5935 1.76182C32.3497 1.51789 32.0191 1.38072 31.6744 1.38043ZM31.8755 10.9233C31.8755 10.9767 31.8543 11.0279 31.8166 11.0656C31.7789 11.1034 31.7277 11.1246 31.6744 11.1246H25.9906C25.8207 11.1241 25.6523 11.1571 25.4952 11.2219C25.3381 11.2866 25.1953 11.3817 25.075 11.5018L24 12.5686C23.9717 12.5964 23.9358 12.6152 23.8968 12.6227C23.8579 12.6302 23.8176 12.626 23.781 12.6107C23.7444 12.5954 23.7131 12.5696 23.691 12.5366C23.669 12.5036 23.6572 12.4648 23.6571 12.4251C23.6567 12.0803 23.5196 11.7498 23.2759 11.506C23.0323 11.2622 22.7019 11.125 22.3573 11.1246H20.3717C20.3185 11.1244 20.2674 11.1032 20.2298 11.0654C20.1922 11.0277 20.1711 10.9766 20.1711 10.9233V2.68148C20.1711 2.6282 20.1922 2.57709 20.2298 2.53936C20.2674 2.50164 20.3185 2.48037 20.3717 2.48022H31.6744C31.7277 2.48022 31.7789 2.50143 31.8166 2.53917C31.8543 2.57691 31.8755 2.62811 31.8755 2.68148V10.9233Z" fill="#662D91"/>
<path d="M22.5067 5.3952C22.3611 5.3952 22.2214 5.45314 22.1184 5.55626C22.0154 5.65939 21.9575 5.79926 21.9575 5.9451V7.2533C21.9575 7.39914 22.0154 7.53901 22.1184 7.64213C22.2214 7.74526 22.3611 7.80319 22.5067 7.80319C22.6524 7.80319 22.7921 7.74526 22.8951 7.64213C22.9981 7.53901 23.0559 7.39914 23.0559 7.2533V5.9451C23.0559 5.79926 22.9981 5.65939 22.8951 5.55626C22.7921 5.45314 22.6524 5.3952 22.5067 5.3952Z" fill="#662D91"/>
<path d="M24.8505 5.3952C24.7048 5.3952 24.5651 5.45314 24.4621 5.55626C24.3591 5.65939 24.3013 5.79926 24.3013 5.9451V7.2533C24.3013 7.39914 24.3591 7.53901 24.4621 7.64213C24.5651 7.74526 24.7048 7.80319 24.8505 7.80319C24.9961 7.80319 25.1358 7.74526 25.2388 7.64213C25.3418 7.53901 25.3997 7.39914 25.3997 7.2533V5.9451C25.3997 5.79926 25.3418 5.65939 25.2388 5.55626C25.1358 5.45314 24.9961 5.3952 24.8505 5.3952Z" fill="#662D91"/>
<path d="M27.1952 5.3952C27.0495 5.3952 26.9098 5.45314 26.8069 5.55626C26.7039 5.65939 26.646 5.79926 26.646 5.9451V7.2533C26.646 7.39914 26.7039 7.53901 26.8069 7.64213C26.9098 7.74526 27.0495 7.80319 27.1952 7.80319C27.3408 7.80319 27.4805 7.74526 27.5835 7.64213C27.6865 7.53901 27.7444 7.39914 27.7444 7.2533V5.9451C27.7444 5.79926 27.6865 5.65939 27.5835 5.55626C27.4805 5.45314 27.3408 5.3952 27.1952 5.3952Z" fill="#662D91"/>
<path d="M29.5394 5.3952C29.3938 5.3952 29.2541 5.45314 29.1511 5.55626C29.0481 5.65939 28.9902 5.79926 28.9902 5.9451V7.2533C28.9902 7.39914 29.0481 7.53901 29.1511 7.64213C29.2541 7.74526 29.3938 7.80319 29.5394 7.80319C29.6851 7.80319 29.8248 7.74526 29.9278 7.64213C30.0308 7.53901 30.0886 7.39914 30.0886 7.2533V5.9451C30.0886 5.79926 30.0308 5.65939 29.9278 5.55626C29.8248 5.45314 29.6851 5.3952 29.5394 5.3952Z" fill="#662D91"/>
</svg>
