<svg width="41" height="54" viewBox="0 0 41 54" fill="none" xmlns="http://www.w3.org/2000/svg">
<path d="M37.7107 10.3938C36.7866 10.1034 35.9174 10.1594 35.1332 10.5646C34.7137 10.7811 34.3299 11.092 33.9762 11.4997C34.2366 9.93521 34.4368 8.70443 34.4999 8.23053C34.8645 5.49643 33.5868 3.60317 31.1684 3.29234C30.1264 3.15729 29.1585 3.38407 28.3634 3.9472C27.3791 4.64536 26.6771 5.86844 26.4851 7.21892C26.4577 7.41003 26.4111 7.7158 26.3508 8.10822C26.4056 6.33472 26.4467 4.88998 26.4632 4.20962C26.4906 3.06044 26.1205 2.10742 25.3609 1.37872C24.0887 0.155642 22.3037 0.102153 22.1035 0.0996094H22.0679C20.6832 0.0996094 18.0564 0.937958 17.7987 4.13832C17.7164 5.17536 17.6589 7.64958 17.6205 10.3965C17.4806 9.53012 17.3627 8.83704 17.286 8.44461C16.7568 5.78188 15.1938 4.58933 12.5095 4.79833C9.55642 5.02766 8.65702 7.70568 8.79685 10.134C8.87363 11.4183 9.84976 18.3264 10.4694 22.6323C9.60843 21.5264 8.65976 20.3008 8.0483 19.5109C6.38394 17.3577 4.14925 16.499 2.35327 17.3271C1.8652 17.5539 0.680689 18.2648 0.252928 19.9491C-0.410622 22.5609 1.08922 26.1613 4.70034 30.6333C9.64957 37.0926 10.187 43.4296 10.2336 45.198V52.3174C10.2336 52.7505 10.612 53.0996 11.0753 53.0996H31.8485C32.3146 53.0996 32.6903 52.748 32.6903 52.3174V45.5855C32.6903 42.5941 34.2532 37.6026 35.509 33.5915C36.1314 31.604 36.6688 29.8866 36.9704 28.5947C37.8341 24.8133 38.5086 22.0076 39.0022 19.9594C39.2901 18.7694 39.5122 17.8394 39.6739 17.1285C40.0907 15.2735 40.9599 11.4157 37.7134 10.394L37.7107 10.3938ZM11.9116 45.175C11.9034 44.854 11.8787 44.3953 11.8212 43.8245C12.6108 44.0844 13.1948 44.78 13.1948 45.6057C13.1948 46.4007 12.6629 47.0708 11.9089 47.3511V45.1751L11.9116 45.175ZM38.0202 16.8047C37.8612 17.508 37.6364 18.433 37.3512 19.6153C36.8577 21.6665 36.1804 24.477 35.314 28.2636C35.0261 29.4994 34.4695 31.2729 33.8826 33.1508C32.5967 37.2558 30.9981 42.3673 30.9981 45.5806V51.5279H11.9117V48.9951C13.6035 48.6689 14.8812 47.27 14.8812 45.601C14.8812 43.8301 13.4417 42.365 11.5936 42.1611C11.0644 39.0958 9.67427 34.4254 6.05493 29.7007C1.93378 24.5944 1.51423 21.7712 1.88717 20.3009C2.15863 19.2307 2.88526 18.8205 3.09914 18.7211C4.09997 18.2599 5.53676 18.9428 6.67741 20.4181C8.04016 22.1763 11.0673 26.0724 11.0673 26.0724C11.2921 26.3629 11.7034 26.475 12.0626 26.3399C12.4218 26.2074 12.6357 25.8634 12.5836 25.5093C11.6596 19.1696 10.5518 11.3163 10.4778 10.0423C10.4312 9.21932 10.4449 6.52346 12.6466 6.35275C14.4426 6.2126 15.2542 6.85472 15.6271 8.725C16.022 10.7125 17.53 21.1267 17.5465 21.2337C17.6068 21.6414 17.9989 21.9446 18.4376 21.9115C18.8791 21.8835 19.2246 21.5446 19.2246 21.1318C19.2246 20.9917 19.2547 7.03343 19.4768 4.25068C19.6825 1.71025 21.824 1.65416 22.0816 1.65924C22.4271 1.66179 23.4746 1.81468 24.1463 2.45937C24.5878 2.88235 24.7934 3.44292 24.777 4.16914C24.7166 6.82424 24.2533 21.0679 24.2478 21.2107C24.2341 21.6235 24.5713 21.9777 25.0127 22.0134C25.446 22.0516 25.8545 21.7611 25.9203 21.3509C25.9999 20.8566 27.8918 9.22969 28.1523 7.41823C28.2565 6.68692 28.6321 5.71609 29.3807 5.18609C29.8221 4.87267 30.3322 4.75801 30.9326 4.837C32.9178 5.09435 32.9698 6.94937 32.8273 8.03227C32.5915 9.80577 30.3239 22.903 30.2992 23.0354C30.2279 23.4533 30.5268 23.8508 30.9737 23.9298C31.4179 24.0088 31.8566 23.7412 31.9526 23.3284C31.9608 23.2902 32.8629 19.4783 33.754 15.9697C34.4614 13.1974 35.3361 12.2419 35.9448 11.9285C36.3095 11.7399 36.6961 11.7221 37.1677 11.8699C38.4866 12.2852 38.7252 13.6663 38.0177 16.7979L38.0202 16.8047ZM11.9222 33.8796C12.1114 34.2746 11.9167 34.7383 11.4917 34.9116C11.382 34.9574 11.2641 34.9778 11.1517 34.9778C10.8281 34.9778 10.521 34.8045 10.3812 34.5115C10.0137 33.742 9.61064 32.9775 9.17748 32.2361C8.95538 31.8564 9.10619 31.3799 9.51474 31.1735C9.92329 30.9671 10.436 31.1073 10.6581 31.4869C11.1133 32.2641 11.5383 33.0693 11.9249 33.8771L11.9222 33.8796ZM20.5399 35.0186C20.5399 33.8465 19.5144 32.8935 18.2531 32.8935C16.9918 32.8935 15.9663 33.8465 15.9663 35.0186C15.9663 36.1907 16.9918 37.1437 18.2531 37.1437C19.5144 37.1437 20.5399 36.1907 20.5399 35.0186ZM18.2531 35.5766C17.9213 35.5766 17.6526 35.3269 17.6526 35.0186C17.6526 34.7103 17.9213 34.4606 18.2531 34.4606C18.5849 34.4606 18.8536 34.7103 18.8536 35.0186C18.8536 35.3269 18.5849 35.5766 18.2531 35.5766ZM21.5407 44.0743C20.2794 44.0743 19.2539 45.0272 19.2539 46.1994C19.2539 47.3715 20.2794 48.3245 21.5407 48.3245C22.802 48.3245 23.8275 47.3715 23.8275 46.1994C23.8275 45.0272 22.802 44.0743 21.5407 44.0743ZM21.5407 46.7574C21.2089 46.7574 20.9402 46.5077 20.9402 46.1994C20.9402 45.8911 21.2089 45.6414 21.5407 45.6414C21.8725 45.6414 22.1412 45.8911 22.1412 46.1994C22.1412 46.5077 21.8725 46.7574 21.5407 46.7574ZM29.1385 26.6304C27.4796 26.6304 26.1305 27.8841 26.1305 29.4257C26.1305 30.9673 27.4796 32.221 29.1385 32.221C30.7974 32.221 32.1464 30.9673 32.1464 29.4257C32.1464 27.8841 30.7974 26.6304 29.1385 26.6304ZM29.1385 30.6564C28.4091 30.6564 27.8141 30.106 27.8141 29.4257C27.8141 28.7479 28.4064 28.195 29.1385 28.195C29.8679 28.195 30.4628 28.7454 30.4628 29.4257C30.4628 30.1035 29.8706 30.6564 29.1385 30.6564ZM27.3343 36.9935C26.073 36.9935 25.0475 37.9464 25.0475 39.1186C25.0475 40.2907 26.073 41.2436 27.3343 41.2436C28.5956 41.2436 29.6211 40.2907 29.6211 39.1186C29.6211 37.9464 28.5956 36.9935 27.3343 36.9935ZM27.3343 39.6766C27.0025 39.6766 26.7338 39.4269 26.7338 39.1186C26.7338 38.8102 27.0025 38.5605 27.3343 38.5605C27.6661 38.5605 27.9348 38.8102 27.9348 39.1186C27.9348 39.4269 27.6661 39.6766 27.3343 39.6766ZM20.0959 29.0537C21.3572 29.0537 22.3827 28.1008 22.3827 26.9286C22.3827 25.7565 21.3572 24.8035 20.0959 24.8035C18.8346 24.8035 17.8091 25.7565 17.8091 26.9286C17.8091 28.1008 18.8346 29.0537 20.0959 29.0537ZM20.0959 26.3706C20.4277 26.3706 20.6964 26.6203 20.6964 26.9286C20.6964 27.2369 20.4277 27.4866 20.0959 27.4866C19.7641 27.4866 19.4954 27.2369 19.4954 26.9286C19.4954 26.6203 19.7641 26.3706 20.0959 26.3706Z" fill="#A88EC3" stroke="#A88EC3" stroke-width="0.2"/>
</svg>
