<svg width="35" height="44" viewBox="0 0 35 44" fill="none" xmlns="http://www.w3.org/2000/svg">
<path d="M15.876 0.708984C17.0235 1.10203 18.0368 1.58905 18.9102 2.17383C19.7743 2.75253 20.465 3.37225 20.9648 4.03906C21.4478 4.68308 21.8366 5.3703 22.1279 6.09863L22.2314 6.37305C22.4607 7.01305 22.5958 7.65302 22.6318 8.29199L22.6533 8.80762C22.6622 9.14899 22.6604 9.48593 22.6475 9.81836L22.6191 10.3135C22.5712 10.9759 22.4677 11.5938 22.3047 12.165C22.2276 12.4347 22.1517 12.6898 22.0781 12.9297L21.8633 13.6045C21.7223 14.0271 21.5825 14.3784 21.4404 14.6436L21.3477 14.8398L21.3486 14.8408C21.3519 14.9058 21.3545 14.9885 21.3564 15.0869C21.3601 15.2717 21.3611 15.5232 21.3613 15.8398L21.3652 15.8359C21.7378 15.3354 22.1403 14.8736 22.5703 14.4512L22.9258 14.124C23.3045 13.7956 23.7536 13.4614 24.2695 13.1211H24.2705C24.9774 12.6557 25.7148 12.2957 26.4844 12.0449C27.274 11.7877 28.1857 11.6724 29.21 11.6885C30.2511 11.7046 31.3133 11.8982 32.3936 12.2637L32.7432 12.3818L32.7334 12.75C32.7066 13.8244 32.5733 14.8205 32.3301 15.7354L32.2197 16.1221C31.9104 17.1298 31.5067 17.9823 30.999 18.665C30.508 19.3252 29.9458 19.902 29.3145 20.3955C28.6815 20.8908 28.0137 21.2664 27.3086 21.5146C26.6411 21.7504 25.9759 21.9401 25.3135 22.082C24.8115 22.1896 24.3238 22.2592 23.8516 22.291L23.3848 22.3105C22.7977 22.3181 22.271 22.3098 21.8076 22.2861C21.4037 22.2655 21.0623 22.2342 20.7891 22.1924C20.5397 23.6528 20.2043 25.0782 19.7803 26.4688C19.834 26.4262 19.8891 26.3819 19.9463 26.3369C20.5365 25.8727 21.1468 25.4583 21.7793 25.0947C22.4284 24.7211 23.2219 24.3877 24.1523 24.0908C25.1025 23.7876 26.0479 23.6266 26.9844 23.6104C27.942 23.5935 28.9855 23.788 30.1084 24.1748C31.2517 24.5694 32.346 25.1909 33.3926 26.0303L33.6816 26.2617L33.5439 26.6055C33.0422 27.8598 32.4414 28.9522 31.7383 29.8779L31.7393 29.8789C31.0433 30.7968 30.3079 31.5172 29.5303 32.0215C28.7763 32.511 27.9792 32.8864 27.1406 33.1445C26.2998 33.4038 25.4709 33.5225 24.6562 33.498H24.6553C23.8819 33.4744 23.126 33.4092 22.3887 33.2988C21.6407 33.1876 20.9464 33.0116 20.3066 32.7686C20.0034 32.6536 19.7178 32.5424 19.4502 32.4365L18.7012 32.1328C18.2764 31.9559 17.9248 31.7865 17.6553 31.627C15.9382 34.9402 13.7651 37.5891 11.126 39.5557C8.35345 41.6217 5.31786 42.6694 2.03223 42.6855H2.0293C1.6116 42.6855 1.23932 42.5368 0.944336 42.2422H0.943359C0.648294 41.9466 0.5 41.5738 0.5 41.1562C0.500034 40.7384 0.649261 40.3655 0.951172 40.0752C1.24728 39.7901 1.61674 39.6502 2.02637 39.6494C4.55582 39.6347 6.91709 38.8511 9.11914 37.2822C11.0211 35.9276 12.6703 34.1189 14.0664 31.8477L14.0654 31.8486L13.6377 31.9629C13.0571 32.1075 12.3971 32.2105 11.6602 32.2734H11.6592C11.0002 32.3294 10.3568 32.3213 9.72949 32.248L9.46191 32.2129C8.82792 32.1191 8.17137 31.9292 7.49414 31.6484L7.20215 31.5225C6.4086 31.1658 5.66619 30.6889 4.97559 30.0947C4.27491 29.4919 3.60166 28.6898 2.95117 27.7031V27.7021C2.29639 26.7078 1.71309 25.5634 1.19922 24.2715L1.0166 23.8125L1.47266 23.624C3.24671 22.8923 4.92644 22.4431 6.50977 22.2842H6.51074C8.07143 22.1283 9.4126 22.1835 10.5186 22.4697C11.6035 22.7512 12.6063 23.2058 13.5244 23.834C14.4182 24.4455 15.1321 25.0625 15.6514 25.6885C15.9349 26.0307 16.2001 26.3895 16.4502 26.7617C16.9995 25.2357 17.4362 23.5833 17.7588 21.8027C17.5469 21.8175 17.2597 21.8308 16.9062 21.8408C16.6295 21.8487 16.3552 21.8516 16.084 21.8496L15.2793 21.8291C14.7315 21.8049 14.0868 21.7249 13.3486 21.5928C12.6001 21.4591 11.8987 21.2762 11.2451 21.0449C10.5765 20.8083 9.90025 20.4655 9.2168 20.0205C8.52387 19.5692 7.9156 19.0428 7.39551 18.4414C6.86196 17.8244 6.41931 17.0505 6.06055 16.1338C5.69786 15.2066 5.47096 14.1862 5.37598 13.0771L5.34473 12.708L5.68848 12.5703C6.78792 12.1304 7.8463 11.8402 8.8623 11.7041C9.86996 11.5695 10.7849 11.5734 11.5986 11.7314C12.3857 11.8841 13.1274 12.1257 13.8232 12.457C14.5222 12.7901 15.1293 13.2015 15.6377 13.6934C16.1168 14.1568 16.5579 14.6367 16.96 15.1338C17.3667 15.6364 17.7068 16.1445 17.9756 16.6582H17.9746C18.0907 16.8798 18.1977 17.0914 18.2969 17.292C18.3516 16.5033 18.3838 15.8156 18.3906 15.2275C18.3065 15.165 18.2113 15.0939 18.1045 15.0146H18.1035C17.8673 14.8392 17.4706 14.4768 16.9326 13.9541V13.9531C16.3748 13.4105 15.8731 12.8467 15.4297 12.2607C14.9752 11.6604 14.5456 10.9185 14.1387 10.042C13.7221 9.14447 13.4555 8.23609 13.3418 7.31836C13.2251 6.37699 13.3277 5.34153 13.6299 4.2207L13.7568 3.79297C14.083 2.79737 14.6048 1.82693 15.3135 0.881836L15.5322 0.59082L15.876 0.708984Z" stroke="#A88EC3"/>
</svg>
