<svg width="44" height="25" viewBox="0 0 44 25" fill="none" xmlns="http://www.w3.org/2000/svg">
<path d="M18.8539 3.86719C16.4553 3.86719 14.5039 6.03543 14.5039 8.70058C14.5039 11.3657 16.4554 13.534 18.8539 13.534C21.2525 13.534 23.2039 11.3657 23.2039 8.70058C23.2039 6.03543 21.2525 3.86719 18.8539 3.86719ZM18.8539 12.0534C17.1901 12.0534 15.8364 10.5494 15.8364 8.70058C15.8364 6.85176 17.1901 5.34772 18.8539 5.34772C20.5178 5.34772 21.8714 6.85176 21.8714 8.70058C21.8714 10.5494 20.5178 12.0534 18.8539 12.0534Z" fill="#A88EC3"/>
<path d="M43.2686 9.44908C43.1589 9.35246 40.5345 7.05575 36.422 4.72782C32.6118 2.57097 26.7683 0 20.568 0C16.8078 0 13.3865 0.761705 10.3989 2.26405C8.00293 3.46886 5.88363 5.14773 4.09991 7.25411C1.06806 10.8344 0.0667319 14.3783 0.0256117 14.5275C-0.0527206 14.8114 0.0517791 15.1196 0.295952 15.2831C0.53885 15.4456 0.850225 15.44 1.08072 15.2612C1.13314 15.2265 1.71791 14.855 2.96273 14.6751C4.18062 14.4993 6.28922 14.4761 9.41784 15.3659C11.8718 16.0639 15.0914 16.4335 18.5527 16.4335C19.5801 16.4335 20.6294 16.401 21.6854 16.3347C26.3877 16.0397 30.4128 15.1129 32.7287 13.7921C36.4715 11.6576 38.9076 9.43245 39.8356 8.5158C41.4215 9.64428 42.3514 10.4565 42.372 10.4746C42.654 10.7231 43.0835 10.6951 43.3311 10.4119C43.5788 10.1287 43.5508 9.69767 43.2686 9.44908ZM21.6006 14.9728C19.1377 15.1274 16.6702 15.0876 14.4495 14.8734C13.4138 14.1245 12.5521 13.1385 11.9512 12.0106C11.7742 11.6783 11.3622 11.5531 11.0314 11.7307C10.7004 11.9083 10.5756 12.3218 10.7525 12.654C11.1182 13.3404 11.5669 13.9818 12.0842 14.562C11.2547 14.4205 10.483 14.2507 9.78843 14.0532C7.59156 13.4283 5.82458 13.2164 4.43754 13.2164C3.34352 13.2164 2.48611 13.3483 1.84102 13.5137C2.39028 12.205 3.43094 10.1394 5.17209 8.09495C6.73959 6.25439 8.58099 4.76722 10.6504 3.66892C9.97135 5.02024 9.60985 6.52233 9.60985 8.06109C9.60985 8.67399 9.66694 9.28757 9.77951 9.88468C9.84128 10.2121 10.1263 10.4402 10.4466 10.4402C10.4885 10.4402 10.5311 10.4363 10.5737 10.4282C10.9426 10.3581 11.1849 10.0013 11.1152 9.63098C11.0183 9.11727 10.9692 8.58905 10.9692 8.06101C10.9692 6.07428 11.6707 4.15953 12.9447 2.64746C15.259 1.79647 17.8134 1.36428 20.568 1.36428C22.0246 1.36428 23.4631 1.51531 24.8592 1.77336C26.6569 3.36798 27.6846 5.64866 27.6846 8.06101C27.6846 10.6543 26.4684 13.1262 24.4237 14.709C23.5218 14.8227 22.5776 14.9115 21.6006 14.9728ZM32.0571 12.6057C30.7999 13.3228 28.9673 13.9159 26.758 14.3409C28.2145 12.5981 29.0438 10.3709 29.0438 8.06109C29.0438 5.96726 28.3777 3.95896 27.1706 2.30396C30.4997 3.21132 33.4793 4.63052 35.7271 5.90083C36.8297 6.52395 37.8277 7.14955 38.6953 7.72936C37.491 8.88846 35.1294 10.8535 32.0571 12.6057Z" fill="#A88EC3"/>
<path d="M0.367488 13.4598C0.465994 13.5101 0.571167 13.5339 0.674737 13.5339C0.920114 13.5339 1.1568 13.4003 1.27632 13.168C1.42429 12.8806 2.82885 10.2887 6.54994 7.82489C10.0874 5.48252 14.3682 4.24442 18.9296 4.24442C24.7891 4.24442 29.5315 6.0079 32.4779 7.48718C35.6832 9.09651 37.5209 10.7289 37.5391 10.7452C37.8158 10.9937 38.2426 10.9721 38.4924 10.6968C38.7424 10.4215 38.7208 9.99648 38.4442 9.74765C38.3657 9.67709 36.4835 7.99946 33.1313 6.30982C30.0453 4.75443 25.0766 2.90039 18.9297 2.90039C14.1013 2.90039 9.56182 4.21628 5.80191 6.70583C2.75955 8.72024 0.815109 11.116 0.0744203 12.5553C-0.0956638 12.8857 0.0356764 13.2907 0.367657 13.4598H0.367488Z" fill="#A88EC3"/>
<path d="M41.2706 11.7164C40.9778 11.5205 40.5809 11.5762 40.3557 11.8446C40.2931 11.9195 33.9515 19.3459 22.6665 20.9934C22.4029 21.0318 22.1365 21.0666 21.8745 21.0969C21.4988 21.1402 21.2302 21.4738 21.2743 21.8421C21.3184 22.2104 21.6582 22.4737 22.0343 22.4307C22.3102 22.3989 22.5907 22.3623 22.8681 22.3217C28.2838 21.5311 32.5733 19.4596 35.4759 17.6196C33.5356 19.3853 30.8507 21.3759 27.4314 22.8822C27.0864 23.0342 26.9324 23.4316 27.0873 23.7699C27.2014 24.0189 27.451 24.1664 27.7124 24.1664C27.8062 24.1664 27.9014 24.1474 27.9925 24.1073C32.7735 22.0011 36.1802 18.9941 38.1962 16.8423C40.3874 14.5036 41.4388 12.6754 41.4825 12.5988C41.6554 12.2952 41.5635 11.9126 41.2706 11.7166V11.7164Z" fill="#A88EC3"/>
</svg>
