<svg width="56" height="55" viewBox="0 0 56 55" fill="none" xmlns="http://www.w3.org/2000/svg">
<mask id="path-1-outside-1_29_1789" maskUnits="userSpaceOnUse" x="-0.796875" y="-0.799805" width="57" height="56" fill="black">
<rect fill="white" x="-0.796875" y="-0.799805" width="57" height="56"/>
<path d="M52.3115 37.548C52.1705 37.1951 52.3412 36.7952 52.6941 36.6543C53.047 36.5134 53.4468 36.6841 53.5878 37.037C53.9177 37.8607 54.1492 38.7257 54.274 39.6056C54.3279 39.9814 54.0667 40.3297 53.6909 40.3836C53.6577 40.3882 53.6256 40.3904 53.5935 40.3904C53.2567 40.3904 52.9622 40.143 52.9141 39.7993C52.8041 39.0282 52.6013 38.2709 52.3115 37.548ZM49.2685 33.4887C49.8803 33.9699 50.4348 34.5256 50.9171 35.1374C51.0523 35.3092 51.254 35.3998 51.4579 35.3998C51.6068 35.3998 51.7569 35.3516 51.883 35.252C52.1808 35.0171 52.2324 34.5852 51.9975 34.2861C51.4487 33.5884 50.8163 32.9571 50.1186 32.4083C49.8207 32.1735 49.3876 32.225 49.1527 32.5229C48.919 32.8219 48.9706 33.2538 49.2685 33.4887ZM44.6066 31.4929C45.3788 31.6029 46.1361 31.8057 46.8579 32.0944C46.9415 32.1276 47.0286 32.1437 47.1134 32.1437C47.3861 32.1437 47.6439 31.981 47.7515 31.7117C47.8925 31.3589 47.7218 30.959 47.3689 30.8181C46.5451 30.4881 45.6801 30.2567 44.8002 30.1307C44.4233 30.0768 44.0761 30.338 44.0223 30.7138C43.9696 31.0908 44.2308 31.4391 44.6066 31.4929ZM55.0726 45.3158C54.966 45.3754 54.8503 45.404 54.7369 45.404C54.4963 45.404 54.2626 45.278 54.1366 45.0535L53.8639 44.5688C53.2418 46.5314 52.0812 48.3027 50.5001 49.6638C48.4756 51.4064 45.8875 52.3665 43.2134 52.3665C39.0648 52.3665 35.4375 50.0934 33.5104 46.7273C31.5055 49.2926 29.4776 51.2403 27.4714 52.5223C25.4367 53.8215 23.3687 54.478 21.3133 54.478C21.0555 54.478 20.7989 54.4677 20.5422 54.4471C17.5611 54.2088 14.5582 52.5716 11.6149 49.5824C8.75177 46.6735 5.83939 42.3748 2.95909 36.8055C-0.381787 31.0805 -0.69571 24.4377 2.0746 18.0985C2.12845 17.9747 2.18688 17.8533 2.24302 17.7307L2.19949 12.9233C2.1548 8.03116 5.00646 3.63166 9.64084 1.44222C13.7539 -0.502043 18.2531 -0.141145 21.4771 2.3668C24.6289 1.52242 28.0305 1.6473 31.3405 2.7403C34.5393 3.79664 37.3382 5.66987 39.2195 8.01398C41.8157 11.2494 42.3278 14.9799 40.6482 18.3024C42.3278 22.2345 42.8342 26.3441 42.125 30.2555C42.2705 30.3609 42.3748 30.5236 42.4023 30.715C42.4561 31.0908 42.1949 31.4391 41.8191 31.4929C37.0278 32.1746 33.4142 36.345 33.4142 41.1936C33.4142 46.5967 37.8103 50.9916 43.2123 50.9916C47.6118 50.9916 51.3708 48.1331 52.5956 44.0326L51.8979 44.4245C51.5667 44.6101 51.1474 44.4932 50.9618 44.1621C50.7762 43.831 50.8931 43.4117 51.2242 43.2261L53.2567 42.0838C53.4159 41.9944 53.6038 41.9715 53.7791 42.0208C53.9544 42.07 54.1033 42.1869 54.1927 42.3462L55.335 44.3786C55.5206 44.7109 55.4037 45.1291 55.0726 45.3158ZM39.4395 18.9749C34.3858 19.0918 28.8978 19.6738 23.7995 21.1564C25.9889 21.8254 28.2138 23.072 30.3414 24.8375C32.8001 26.878 34.9643 29.4902 36.503 32.2617C37.753 31.3222 39.1874 30.652 40.7158 30.3025C41.449 26.6122 41.0091 22.7157 39.4395 18.9749ZM3.59381 15.1735C5.17488 12.5556 7.2509 10.1553 9.71531 8.12282C12.7067 5.65497 16.1347 3.84018 19.7047 2.82279C16.9882 1.22568 13.4812 1.14663 10.2274 2.68531C6.97936 4.21941 3.52621 7.71151 3.57433 12.9107L3.59381 15.1735ZM4.15406 36.1273L4.17124 36.1582C4.248 36.306 4.32477 36.4527 4.40038 36.5993C6.489 29.9451 11.1543 24.9486 18.2943 21.7349C23.9782 19.1766 31.0987 17.7868 39.4612 17.5978C41.3425 13.7941 39.4647 10.5151 38.1471 8.87326C35.0079 4.96182 28.1119 1.8478 21.5115 3.7806C21.4966 3.78518 21.4817 3.78862 21.4668 3.79206C13.6405 5.52551 6.52223 11.356 3.33488 18.6496C0.742149 24.5809 1.03316 30.7871 4.15406 36.1273ZM32.8391 45.3433C32.3235 44.059 32.0394 42.6589 32.0394 41.1936C32.0394 38.4863 33.0201 35.8752 34.8005 33.8405C35.0033 33.6079 35.2164 33.3868 35.4364 33.1725C32.6489 28.0237 26.9914 22.6446 21.2445 22.0214L21.248 21.9893C13.7768 24.7092 7.52014 29.6598 5.33757 38.3419C10.5242 47.7241 15.6695 52.6793 20.6499 53.078C24.6289 53.3965 28.7283 50.7934 32.8391 45.3433ZM43.1607 41.9326H47.7882C48.1674 41.9326 48.4756 41.6244 48.4756 41.2451C48.4756 40.8659 48.1674 40.5577 47.7882 40.5577H43.8481V34.8533C43.8481 34.474 43.5399 34.1658 43.1607 34.1658C42.7815 34.1658 42.4733 34.474 42.4733 34.8533V41.2451C42.4733 41.6255 42.7815 41.9326 43.1607 41.9326ZM25.5134 44.2904C22.7454 45.5496 19.998 45.5484 17.1166 44.287C16.7694 44.1346 16.3638 44.2927 16.2115 44.641C16.0591 44.9893 16.2172 45.3937 16.5655 45.5461C18.1947 46.2587 19.786 46.6162 21.3637 46.6162C22.9436 46.6162 24.5098 46.2587 26.0828 45.5427C26.4288 45.3857 26.5812 44.9778 26.4243 44.6318C26.2673 44.2858 25.8594 44.1335 25.5134 44.2904ZM18.9027 34.3996C19.1078 34.0799 19.015 33.6548 18.6953 33.4498C16.5723 32.0864 14.3302 32.0818 12.0331 33.436C11.7065 33.6285 11.5977 34.0501 11.7902 34.3778C11.9185 34.5955 12.1476 34.7158 12.3825 34.7158C12.5017 34.7158 12.6208 34.6848 12.7308 34.6207C14.596 33.5208 16.255 33.5162 17.9518 34.6069C18.2726 34.812 18.6976 34.7192 18.9027 34.3996ZM30.6278 33.4498C28.5049 32.0864 26.2627 32.0818 23.9656 33.436C23.6391 33.6285 23.5302 34.0501 23.7227 34.3778C23.851 34.5955 24.0801 34.7158 24.315 34.7158C24.4342 34.7158 24.5533 34.6848 24.6633 34.6207C26.5285 33.5208 28.1875 33.5162 29.8843 34.6069C30.2039 34.812 30.629 34.7192 30.8341 34.3996C31.0403 34.0799 30.9475 33.6548 30.6278 33.4498Z"/>
</mask>
<path d="M52.3115 37.548C52.1705 37.1951 52.3412 36.7952 52.6941 36.6543C53.047 36.5134 53.4468 36.6841 53.5878 37.037C53.9177 37.8607 54.1492 38.7257 54.274 39.6056C54.3279 39.9814 54.0667 40.3297 53.6909 40.3836C53.6577 40.3882 53.6256 40.3904 53.5935 40.3904C53.2567 40.3904 52.9622 40.143 52.9141 39.7993C52.8041 39.0282 52.6013 38.2709 52.3115 37.548ZM49.2685 33.4887C49.8803 33.9699 50.4348 34.5256 50.9171 35.1374C51.0523 35.3092 51.254 35.3998 51.4579 35.3998C51.6068 35.3998 51.7569 35.3516 51.883 35.252C52.1808 35.0171 52.2324 34.5852 51.9975 34.2861C51.4487 33.5884 50.8163 32.9571 50.1186 32.4083C49.8207 32.1735 49.3876 32.225 49.1527 32.5229C48.919 32.8219 48.9706 33.2538 49.2685 33.4887ZM44.6066 31.4929C45.3788 31.6029 46.1361 31.8057 46.8579 32.0944C46.9415 32.1276 47.0286 32.1437 47.1134 32.1437C47.3861 32.1437 47.6439 31.981 47.7515 31.7117C47.8925 31.3589 47.7218 30.959 47.3689 30.8181C46.5451 30.4881 45.6801 30.2567 44.8002 30.1307C44.4233 30.0768 44.0761 30.338 44.0223 30.7138C43.9696 31.0908 44.2308 31.4391 44.6066 31.4929ZM55.0726 45.3158C54.966 45.3754 54.8503 45.404 54.7369 45.404C54.4963 45.404 54.2626 45.278 54.1366 45.0535L53.8639 44.5688C53.2418 46.5314 52.0812 48.3027 50.5001 49.6638C48.4756 51.4064 45.8875 52.3665 43.2134 52.3665C39.0648 52.3665 35.4375 50.0934 33.5104 46.7273C31.5055 49.2926 29.4776 51.2403 27.4714 52.5223C25.4367 53.8215 23.3687 54.478 21.3133 54.478C21.0555 54.478 20.7989 54.4677 20.5422 54.4471C17.5611 54.2088 14.5582 52.5716 11.6149 49.5824C8.75177 46.6735 5.83939 42.3748 2.95909 36.8055C-0.381787 31.0805 -0.69571 24.4377 2.0746 18.0985C2.12845 17.9747 2.18688 17.8533 2.24302 17.7307L2.19949 12.9233C2.1548 8.03116 5.00646 3.63166 9.64084 1.44222C13.7539 -0.502043 18.2531 -0.141145 21.4771 2.3668C24.6289 1.52242 28.0305 1.6473 31.3405 2.7403C34.5393 3.79664 37.3382 5.66987 39.2195 8.01398C41.8157 11.2494 42.3278 14.9799 40.6482 18.3024C42.3278 22.2345 42.8342 26.3441 42.125 30.2555C42.2705 30.3609 42.3748 30.5236 42.4023 30.715C42.4561 31.0908 42.1949 31.4391 41.8191 31.4929C37.0278 32.1746 33.4142 36.345 33.4142 41.1936C33.4142 46.5967 37.8103 50.9916 43.2123 50.9916C47.6118 50.9916 51.3708 48.1331 52.5956 44.0326L51.8979 44.4245C51.5667 44.6101 51.1474 44.4932 50.9618 44.1621C50.7762 43.831 50.8931 43.4117 51.2242 43.2261L53.2567 42.0838C53.4159 41.9944 53.6038 41.9715 53.7791 42.0208C53.9544 42.07 54.1033 42.1869 54.1927 42.3462L55.335 44.3786C55.5206 44.7109 55.4037 45.1291 55.0726 45.3158ZM39.4395 18.9749C34.3858 19.0918 28.8978 19.6738 23.7995 21.1564C25.9889 21.8254 28.2138 23.072 30.3414 24.8375C32.8001 26.878 34.9643 29.4902 36.503 32.2617C37.753 31.3222 39.1874 30.652 40.7158 30.3025C41.449 26.6122 41.0091 22.7157 39.4395 18.9749ZM3.59381 15.1735C5.17488 12.5556 7.2509 10.1553 9.71531 8.12282C12.7067 5.65497 16.1347 3.84018 19.7047 2.82279C16.9882 1.22568 13.4812 1.14663 10.2274 2.68531C6.97936 4.21941 3.52621 7.71151 3.57433 12.9107L3.59381 15.1735ZM4.15406 36.1273L4.17124 36.1582C4.248 36.306 4.32477 36.4527 4.40038 36.5993C6.489 29.9451 11.1543 24.9486 18.2943 21.7349C23.9782 19.1766 31.0987 17.7868 39.4612 17.5978C41.3425 13.7941 39.4647 10.5151 38.1471 8.87326C35.0079 4.96182 28.1119 1.8478 21.5115 3.7806C21.4966 3.78518 21.4817 3.78862 21.4668 3.79206C13.6405 5.52551 6.52223 11.356 3.33488 18.6496C0.742149 24.5809 1.03316 30.7871 4.15406 36.1273ZM32.8391 45.3433C32.3235 44.059 32.0394 42.6589 32.0394 41.1936C32.0394 38.4863 33.0201 35.8752 34.8005 33.8405C35.0033 33.6079 35.2164 33.3868 35.4364 33.1725C32.6489 28.0237 26.9914 22.6446 21.2445 22.0214L21.248 21.9893C13.7768 24.7092 7.52014 29.6598 5.33757 38.3419C10.5242 47.7241 15.6695 52.6793 20.6499 53.078C24.6289 53.3965 28.7283 50.7934 32.8391 45.3433ZM43.1607 41.9326H47.7882C48.1674 41.9326 48.4756 41.6244 48.4756 41.2451C48.4756 40.8659 48.1674 40.5577 47.7882 40.5577H43.8481V34.8533C43.8481 34.474 43.5399 34.1658 43.1607 34.1658C42.7815 34.1658 42.4733 34.474 42.4733 34.8533V41.2451C42.4733 41.6255 42.7815 41.9326 43.1607 41.9326ZM25.5134 44.2904C22.7454 45.5496 19.998 45.5484 17.1166 44.287C16.7694 44.1346 16.3638 44.2927 16.2115 44.641C16.0591 44.9893 16.2172 45.3937 16.5655 45.5461C18.1947 46.2587 19.786 46.6162 21.3637 46.6162C22.9436 46.6162 24.5098 46.2587 26.0828 45.5427C26.4288 45.3857 26.5812 44.9778 26.4243 44.6318C26.2673 44.2858 25.8594 44.1335 25.5134 44.2904ZM18.9027 34.3996C19.1078 34.0799 19.015 33.6548 18.6953 33.4498C16.5723 32.0864 14.3302 32.0818 12.0331 33.436C11.7065 33.6285 11.5977 34.0501 11.7902 34.3778C11.9185 34.5955 12.1476 34.7158 12.3825 34.7158C12.5017 34.7158 12.6208 34.6848 12.7308 34.6207C14.596 33.5208 16.255 33.5162 17.9518 34.6069C18.2726 34.812 18.6976 34.7192 18.9027 34.3996ZM30.6278 33.4498C28.5049 32.0864 26.2627 32.0818 23.9656 33.436C23.6391 33.6285 23.5302 34.0501 23.7227 34.3778C23.851 34.5955 24.0801 34.7158 24.315 34.7158C24.4342 34.7158 24.5533 34.6848 24.6633 34.6207C26.5285 33.5208 28.1875 33.5162 29.8843 34.6069C30.2039 34.812 30.629 34.7192 30.8341 34.3996C31.0403 34.0799 30.9475 33.6548 30.6278 33.4498Z" fill="#A88EC3"/>
<path d="M52.3115 37.548C52.1705 37.1951 52.3412 36.7952 52.6941 36.6543C53.047 36.5134 53.4468 36.6841 53.5878 37.037C53.9177 37.8607 54.1492 38.7257 54.274 39.6056C54.3279 39.9814 54.0667 40.3297 53.6909 40.3836C53.6577 40.3882 53.6256 40.3904 53.5935 40.3904C53.2567 40.3904 52.9622 40.143 52.9141 39.7993C52.8041 39.0282 52.6013 38.2709 52.3115 37.548ZM49.2685 33.4887C49.8803 33.9699 50.4348 34.5256 50.9171 35.1374C51.0523 35.3092 51.254 35.3998 51.4579 35.3998C51.6068 35.3998 51.7569 35.3516 51.883 35.252C52.1808 35.0171 52.2324 34.5852 51.9975 34.2861C51.4487 33.5884 50.8163 32.9571 50.1186 32.4083C49.8207 32.1735 49.3876 32.225 49.1527 32.5229C48.919 32.8219 48.9706 33.2538 49.2685 33.4887ZM44.6066 31.4929C45.3788 31.6029 46.1361 31.8057 46.8579 32.0944C46.9415 32.1276 47.0286 32.1437 47.1134 32.1437C47.3861 32.1437 47.6439 31.981 47.7515 31.7117C47.8925 31.3589 47.7218 30.959 47.3689 30.8181C46.5451 30.4881 45.6801 30.2567 44.8002 30.1307C44.4233 30.0768 44.0761 30.338 44.0223 30.7138C43.9696 31.0908 44.2308 31.4391 44.6066 31.4929ZM55.0726 45.3158C54.966 45.3754 54.8503 45.404 54.7369 45.404C54.4963 45.404 54.2626 45.278 54.1366 45.0535L53.8639 44.5688C53.2418 46.5314 52.0812 48.3027 50.5001 49.6638C48.4756 51.4064 45.8875 52.3665 43.2134 52.3665C39.0648 52.3665 35.4375 50.0934 33.5104 46.7273C31.5055 49.2926 29.4776 51.2403 27.4714 52.5223C25.4367 53.8215 23.3687 54.478 21.3133 54.478C21.0555 54.478 20.7989 54.4677 20.5422 54.4471C17.5611 54.2088 14.5582 52.5716 11.6149 49.5824C8.75177 46.6735 5.83939 42.3748 2.95909 36.8055C-0.381787 31.0805 -0.69571 24.4377 2.0746 18.0985C2.12845 17.9747 2.18688 17.8533 2.24302 17.7307L2.19949 12.9233C2.1548 8.03116 5.00646 3.63166 9.64084 1.44222C13.7539 -0.502043 18.2531 -0.141145 21.4771 2.3668C24.6289 1.52242 28.0305 1.6473 31.3405 2.7403C34.5393 3.79664 37.3382 5.66987 39.2195 8.01398C41.8157 11.2494 42.3278 14.9799 40.6482 18.3024C42.3278 22.2345 42.8342 26.3441 42.125 30.2555C42.2705 30.3609 42.3748 30.5236 42.4023 30.715C42.4561 31.0908 42.1949 31.4391 41.8191 31.4929C37.0278 32.1746 33.4142 36.345 33.4142 41.1936C33.4142 46.5967 37.8103 50.9916 43.2123 50.9916C47.6118 50.9916 51.3708 48.1331 52.5956 44.0326L51.8979 44.4245C51.5667 44.6101 51.1474 44.4932 50.9618 44.1621C50.7762 43.831 50.8931 43.4117 51.2242 43.2261L53.2567 42.0838C53.4159 41.9944 53.6038 41.9715 53.7791 42.0208C53.9544 42.07 54.1033 42.1869 54.1927 42.3462L55.335 44.3786C55.5206 44.7109 55.4037 45.1291 55.0726 45.3158ZM39.4395 18.9749C34.3858 19.0918 28.8978 19.6738 23.7995 21.1564C25.9889 21.8254 28.2138 23.072 30.3414 24.8375C32.8001 26.878 34.9643 29.4902 36.503 32.2617C37.753 31.3222 39.1874 30.652 40.7158 30.3025C41.449 26.6122 41.0091 22.7157 39.4395 18.9749ZM3.59381 15.1735C5.17488 12.5556 7.2509 10.1553 9.71531 8.12282C12.7067 5.65497 16.1347 3.84018 19.7047 2.82279C16.9882 1.22568 13.4812 1.14663 10.2274 2.68531C6.97936 4.21941 3.52621 7.71151 3.57433 12.9107L3.59381 15.1735ZM4.15406 36.1273L4.17124 36.1582C4.248 36.306 4.32477 36.4527 4.40038 36.5993C6.489 29.9451 11.1543 24.9486 18.2943 21.7349C23.9782 19.1766 31.0987 17.7868 39.4612 17.5978C41.3425 13.7941 39.4647 10.5151 38.1471 8.87326C35.0079 4.96182 28.1119 1.8478 21.5115 3.7806C21.4966 3.78518 21.4817 3.78862 21.4668 3.79206C13.6405 5.52551 6.52223 11.356 3.33488 18.6496C0.742149 24.5809 1.03316 30.7871 4.15406 36.1273ZM32.8391 45.3433C32.3235 44.059 32.0394 42.6589 32.0394 41.1936C32.0394 38.4863 33.0201 35.8752 34.8005 33.8405C35.0033 33.6079 35.2164 33.3868 35.4364 33.1725C32.6489 28.0237 26.9914 22.6446 21.2445 22.0214L21.248 21.9893C13.7768 24.7092 7.52014 29.6598 5.33757 38.3419C10.5242 47.7241 15.6695 52.6793 20.6499 53.078C24.6289 53.3965 28.7283 50.7934 32.8391 45.3433ZM43.1607 41.9326H47.7882C48.1674 41.9326 48.4756 41.6244 48.4756 41.2451C48.4756 40.8659 48.1674 40.5577 47.7882 40.5577H43.8481V34.8533C43.8481 34.474 43.5399 34.1658 43.1607 34.1658C42.7815 34.1658 42.4733 34.474 42.4733 34.8533V41.2451C42.4733 41.6255 42.7815 41.9326 43.1607 41.9326ZM25.5134 44.2904C22.7454 45.5496 19.998 45.5484 17.1166 44.287C16.7694 44.1346 16.3638 44.2927 16.2115 44.641C16.0591 44.9893 16.2172 45.3937 16.5655 45.5461C18.1947 46.2587 19.786 46.6162 21.3637 46.6162C22.9436 46.6162 24.5098 46.2587 26.0828 45.5427C26.4288 45.3857 26.5812 44.9778 26.4243 44.6318C26.2673 44.2858 25.8594 44.1335 25.5134 44.2904ZM18.9027 34.3996C19.1078 34.0799 19.015 33.6548 18.6953 33.4498C16.5723 32.0864 14.3302 32.0818 12.0331 33.436C11.7065 33.6285 11.5977 34.0501 11.7902 34.3778C11.9185 34.5955 12.1476 34.7158 12.3825 34.7158C12.5017 34.7158 12.6208 34.6848 12.7308 34.6207C14.596 33.5208 16.255 33.5162 17.9518 34.6069C18.2726 34.812 18.6976 34.7192 18.9027 34.3996ZM30.6278 33.4498C28.5049 32.0864 26.2627 32.0818 23.9656 33.436C23.6391 33.6285 23.5302 34.0501 23.7227 34.3778C23.851 34.5955 24.0801 34.7158 24.315 34.7158C24.4342 34.7158 24.5533 34.6848 24.6633 34.6207C26.5285 33.5208 28.1875 33.5162 29.8843 34.6069C30.2039 34.812 30.629 34.7192 30.8341 34.3996C31.0403 34.0799 30.9475 33.6548 30.6278 33.4498Z" stroke="#A88EC3" stroke-width="0.4" mask="url(#path-1-outside-1_29_1789)"/>
</svg>
