<svg width="34" height="41" viewBox="0 0 34 41" fill="none" xmlns="http://www.w3.org/2000/svg">
<path d="M12.2342 3.64852C12.3276 3.64858 12.4201 3.63022 12.5065 3.59449C12.5928 3.55877 12.6712 3.50638 12.7373 3.44032C12.8034 3.37427 12.8557 3.29584 12.8915 3.20952C12.9272 3.1232 12.9456 3.03069 12.9455 2.93727V0.691136C12.9403 0.506058 12.8631 0.330317 12.7303 0.201259C12.5975 0.0722008 12.4196 0 12.2345 0C12.0493 0 11.8714 0.0722008 11.7387 0.201259C11.6059 0.330317 11.5287 0.506058 11.5234 0.691136V2.93755C11.5234 3.0309 11.5418 3.12334 11.5775 3.20958C11.6132 3.29583 11.6656 3.3742 11.7316 3.44022C11.7976 3.50624 11.8759 3.55862 11.9622 3.59436C12.0484 3.6301 12.1408 3.6485 12.2342 3.64852Z" fill="#A88EC3"/>
<path d="M6.98916 4.53004C7.08523 4.68989 7.24024 4.80561 7.42081 4.85229C7.60138 4.89897 7.79306 4.87287 7.95457 4.77961C8.11608 4.68635 8.2345 4.5334 8.28433 4.35369C8.33415 4.17398 8.31139 3.98189 8.22096 3.81879L7.0975 1.87373C7.0012 1.71436 6.84624 1.5991 6.66589 1.55271C6.48555 1.50631 6.2942 1.53249 6.13294 1.6256C5.97168 1.71872 5.85337 1.87136 5.80341 2.05074C5.75346 2.23012 5.77585 2.42193 5.86578 2.58498L6.98916 4.53004Z" fill="#A88EC3"/>
<path d="M1.91815 7.05641C2.16078 7.15663 3.97031 8.34769 4.21849 8.27493C4.37343 8.27187 4.52318 8.21857 4.64521 8.12306C4.76724 8.02755 4.85495 7.89499 4.89513 7.74533C4.93531 7.59567 4.92579 7.43701 4.868 7.29323C4.81022 7.14945 4.70729 7.02833 4.57471 6.94809L2.62918 5.82474C2.46615 5.73545 2.27463 5.71353 2.09563 5.76367C1.91663 5.8138 1.76437 5.93201 1.67144 6.09298C1.57851 6.25396 1.55229 6.44492 1.5984 6.62498C1.64451 6.80504 1.75928 6.9599 1.91815 7.05641Z" fill="#A88EC3"/>
<path d="M3.68932 12.1901C3.68937 12.0966 3.67101 12.0041 3.63529 11.9178C3.59956 11.8315 3.54717 11.7531 3.4811 11.687C3.41504 11.6209 3.3366 11.5686 3.25027 11.5328C3.16395 11.4971 3.07143 11.4787 2.978 11.4788H0.731437C0.63637 11.4761 0.541729 11.4925 0.453111 11.527C0.364493 11.5616 0.283698 11.6135 0.215504 11.6798C0.14731 11.7461 0.093103 11.8253 0.0560874 11.9129C0.0190719 12.0005 0 12.0947 0 12.1898C0 12.2849 0.0190719 12.379 0.0560874 12.4666C0.093103 12.5542 0.14731 12.6335 0.215504 12.6998C0.283698 12.766 0.364493 12.818 0.453111 12.8525C0.541729 12.887 0.63637 12.9034 0.731437 12.9007H2.978C3.07138 12.9008 3.16385 12.8825 3.25014 12.8468C3.33643 12.8111 3.41484 12.7587 3.4809 12.6927C3.54696 12.6267 3.59936 12.5484 3.63512 12.4621C3.67088 12.3759 3.6893 12.2834 3.68932 12.1901Z" fill="#A88EC3"/>
<path d="M3.8628 16.2017L1.9172 17.325C1.78461 17.4053 1.68166 17.5264 1.62386 17.6702C1.56607 17.8139 1.55654 17.9726 1.59672 18.1223C1.63691 18.2719 1.72462 18.4045 1.84667 18.5C1.96871 18.5955 2.11848 18.6488 2.27343 18.6518C2.51243 18.729 4.34052 17.5285 4.57384 17.4334C4.7327 17.3369 4.84747 17.182 4.89358 17.0019C4.93969 16.8219 4.91347 16.6309 4.82054 16.4699C4.72761 16.309 4.57535 16.1908 4.39635 16.1406C4.21735 16.0905 4.02584 16.1124 3.8628 16.2017Z" fill="#A88EC3"/>
<path d="M20.248 8.27462C20.3726 8.27468 20.495 8.24188 20.6028 8.17952L22.5484 7.05624C22.7083 6.96018 22.824 6.80519 22.8707 6.62464C22.9174 6.44408 22.8913 6.25242 22.798 6.09092C22.7048 5.92943 22.5518 5.81102 22.3721 5.7612C22.1923 5.71138 22.0002 5.73414 21.8371 5.82457L19.8918 6.94785C19.7592 7.02807 19.6563 7.14919 19.5985 7.29297C19.5407 7.43675 19.5311 7.59541 19.5713 7.74507C19.6115 7.89474 19.6992 8.0273 19.8213 8.1228C19.9433 8.2183 20.0931 8.27158 20.248 8.27462Z" fill="#A88EC3"/>
<path d="M16.5021 4.79311C16.6654 4.88718 16.8595 4.9126 17.0416 4.8638C17.2237 4.815 17.379 4.69596 17.4734 4.53279L18.597 2.58738C18.6456 2.50642 18.6777 2.41659 18.6912 2.32313C18.7048 2.22966 18.6996 2.13443 18.6759 2.04299C18.6523 1.95155 18.6107 1.86573 18.5535 1.79055C18.4963 1.71536 18.4248 1.65232 18.343 1.60509C18.2612 1.55786 18.1708 1.52739 18.0771 1.51546C17.9834 1.50353 17.8883 1.51038 17.7972 1.53561C17.7062 1.56085 17.6211 1.60395 17.547 1.66241C17.4728 1.72088 17.411 1.79353 17.3652 1.87613L16.2416 3.82183C16.1474 3.98517 16.1219 4.17924 16.1707 4.36138C16.2196 4.54351 16.3387 4.6988 16.5021 4.79311Z" fill="#A88EC3"/>
<path d="M12.2324 4.23242C13.382 4.23651 14.5176 4.48915 15.5605 4.97266C16.6035 5.45616 17.5295 6.15954 18.2754 7.03418C19.0212 7.90871 19.5691 8.93408 19.8818 10.04C20.1707 11.0616 20.2492 12.1297 20.1201 13.1816L21.5469 12.5928C21.6511 12.5494 21.7631 12.5274 21.876 12.5273C21.9889 12.5273 22.1008 12.5495 22.2051 12.5928L33.208 17.1396C33.3653 17.2047 33.5 17.3155 33.5947 17.457C33.6893 17.5985 33.7401 17.7654 33.7402 17.9355V23.9229C33.7401 29.7867 30.381 35.2034 24.7725 38.417L24.7422 38.4336L24.7275 38.4346C24.724 38.4362 24.7194 38.4387 24.7139 38.4414C24.6914 38.4526 24.6592 38.4701 24.6182 38.4932C24.5364 38.5391 24.4243 38.6049 24.292 38.6836C24.0284 38.8404 23.6832 39.0482 23.3418 39.249C23.0002 39.4499 22.6572 39.6467 22.3945 39.7803C22.2644 39.8464 22.1482 39.9 22.0596 39.9307C22.0172 39.9453 21.969 39.9594 21.9248 39.9619C21.9031 39.9631 21.8688 39.9627 21.833 39.9482L21.832 39.9473C21.8167 39.9462 21.802 39.9459 21.7891 39.9434C21.7494 39.9355 21.7044 39.9215 21.6592 39.9043C21.5675 39.8695 21.4507 39.8148 21.3203 39.749C21.0585 39.6168 20.7259 39.4306 20.3955 39.2402C20.0645 39.0495 19.733 38.8524 19.4736 38.6992C19.3437 38.6225 19.2321 38.5567 19.1475 38.5078C19.1052 38.4834 19.0699 38.464 19.043 38.4492C19.0295 38.4418 19.0183 38.436 19.0098 38.4316C19.0055 38.4295 19.0025 38.427 19 38.4258C18.9979 38.4248 18.9965 38.425 18.9961 38.4248L18.9805 38.417C13.3716 35.2035 10.0129 29.7868 10.0127 23.9229V19.8242C1.29514 17.1385 3.01294 4.42729 12.2295 4.23242H12.2324ZM11.7344 18.5107V23.9219C11.7365 30.2676 15.889 35.1091 21.876 38.0967C27.8623 35.1111 32.0147 30.2685 32.0176 23.9229V18.5107L21.876 14.3193C20.0122 15.0898 13.7563 17.675 11.7344 18.5107ZM18.4668 12.1943C18.1402 3.92524 6.3243 3.92445 5.99707 12.1943C5.99962 13.4913 6.40692 14.7552 7.16113 15.8105C7.87145 16.8044 8.85648 17.5666 9.99316 18.0049C9.99684 17.8704 10.0247 17.737 10.082 17.6133C10.1759 17.4109 10.3354 17.2457 10.5342 17.1445L10.5449 17.1396L18.2012 13.9746C18.3753 13.3971 18.466 12.7978 18.4668 12.1943Z" fill="#A88EC3" stroke="#A88EC3" stroke-width="0.3"/>
<path d="M21.6023 15.8061L13.4434 19.1774C13.3134 19.2311 13.2022 19.3221 13.124 19.4391C13.0457 19.556 13.0039 19.6935 13.0039 19.8342V23.9199C13.0039 28.6917 15.7938 33.1392 20.4664 35.8165C20.7012 35.9151 21.6008 36.5603 21.8735 36.5149C22.1395 36.5668 23.0443 35.9163 23.281 35.8165C27.9539 33.1389 30.7437 28.6913 30.7437 23.9199V19.8343C30.7436 19.6936 30.7018 19.5562 30.6236 19.4393C30.5453 19.3224 30.4342 19.2313 30.3042 19.1775L22.1454 15.8062C22.0593 15.7704 21.967 15.752 21.8738 15.752C21.7806 15.7519 21.6883 15.7703 21.6023 15.8061ZM29.3211 20.3099V23.9199C29.3741 28.4202 26.3506 32.687 21.8736 34.9847C17.3967 32.685 14.3731 28.4211 14.426 23.9198V20.3099L21.8736 17.2321L29.3211 20.3099Z" fill="#A88EC3"/>
<path d="M18.2481 25.9151C18.1602 25.7515 18.0118 25.6287 17.8346 25.5731C17.6574 25.5174 17.4655 25.5333 17.2999 25.6173C17.1342 25.7012 17.008 25.8466 16.9481 26.0224C16.8883 26.1982 16.8995 26.3904 16.9795 26.558L18.4207 29.4018C18.4685 29.496 18.5368 29.5785 18.6205 29.6431C18.7042 29.7076 18.8013 29.7527 18.9047 29.7751C19.008 29.7974 19.115 29.7965 19.218 29.7722C19.3209 29.748 19.4171 29.7011 19.4997 29.635L26.5907 23.9475C26.7313 23.8275 26.8196 23.6575 26.837 23.4735C26.8544 23.2895 26.7995 23.106 26.6839 22.9618C26.5684 22.8176 26.4012 22.724 26.2179 22.7009C26.0345 22.6778 25.8494 22.7269 25.7016 22.8379L19.2938 27.9777L18.2481 25.9151Z" fill="#A88EC3"/>
</svg>
