<svg width="33" height="24" viewBox="0 0 33 24" fill="none" xmlns="http://www.w3.org/2000/svg">
<path d="M31.5453 5.13291H29.605C29.4372 4.3982 29.0933 3.71287 28.6016 3.1332C28.11 2.55354 27.4845 2.09607 26.7766 1.79839C25.813 1.44304 24.7567 1.40634 23.7697 1.69394C23.3421 1.30816 22.8375 1.01285 22.2876 0.826546C21.7377 0.640247 21.1543 0.566977 20.574 0.611337C19.9282 0.675582 19.3088 0.895013 18.7711 1.25004C18.4504 0.845803 18.0358 0.521828 17.5617 0.304832C17.0876 0.0878354 16.5675 -0.0159656 16.0442 0.00198925C15.5209 0.0199441 15.0095 0.15914 14.5522 0.408099C14.0948 0.657057 13.7046 1.00865 13.4137 1.43387C12.8039 0.941559 12.0314 0.682971 11.2406 0.706422C10.4498 0.729872 9.69475 1.03376 9.1166 1.5613C8.75991 1.30246 8.34062 1.13836 7.89963 1.085C7.45865 1.03164 7.01104 1.09084 6.60046 1.25683C5.99954 1.51769 5.52744 1.99851 5.28572 2.59586C4.74971 2.42874 4.17675 2.41016 3.63058 2.54219C3.08441 2.67422 2.58646 2.95169 2.19213 3.34371C1.71002 3.82699 1.41675 4.46015 1.3634 5.13291H0.534667C0.392864 5.13291 0.25687 5.18793 0.1566 5.28587C0.0563308 5.38381 0 5.51664 0 5.65515C0.00374908 8.0793 0.807268 10.4377 2.2914 12.3807C3.77553 14.3236 5.86123 15.7476 8.23921 16.4415V17.8291C8.23882 18.2743 8.39341 18.7063 8.6776 19.0543C8.96179 19.4023 9.35869 19.6456 9.80311 19.7442C11.8576 20.1857 13.955 20.4088 16.0587 20.4095C16.4399 20.4095 16.8244 20.3991 17.2205 20.3829C17.3655 20.6616 17.5865 20.8959 17.859 21.0599C18.1315 21.2239 18.4451 21.3113 18.7652 21.3125H19.2517V22.3047C19.2522 22.6334 19.386 22.9485 19.624 23.181C19.8619 23.4134 20.1845 23.5441 20.521 23.5445H28.4325C28.769 23.5441 29.0916 23.4134 29.3296 23.181C29.5675 22.9485 29.7014 22.6334 29.7018 22.3047V21.3125H30.1878C30.6502 21.3121 31.0934 21.1325 31.4204 20.8132C31.7474 20.494 31.9313 20.061 31.9319 19.6094V11.8756C31.9308 11.5693 31.8449 11.2691 31.6833 11.0067C31.5217 10.7443 31.2904 10.5295 31.0139 10.3851C31.7159 8.90253 32.0797 7.28863 32.08 5.65515C32.08 5.51664 32.0237 5.38381 31.9234 5.28587C31.8231 5.18793 31.6871 5.13291 31.5453 5.13291ZM2.95564 4.07223C3.2657 3.76903 3.66939 3.57403 4.10429 3.5174C4.53918 3.46076 4.98107 3.54563 5.36164 3.75889C5.43789 3.79946 5.52311 3.82128 5.60993 3.82246C5.69676 3.82364 5.78257 3.80415 5.85995 3.76568C5.93803 3.72708 6.00542 3.67066 6.05643 3.6012C6.10743 3.53174 6.14054 3.4513 6.15294 3.36668C6.19575 3.12259 6.29629 2.89163 6.44656 2.69217C6.59684 2.49271 6.7927 2.33026 7.01857 2.21775C7.31511 2.10654 7.63946 2.08698 7.94776 2.1617C8.25606 2.23642 8.53342 2.40183 8.74234 2.63555C8.79344 2.69325 8.85729 2.73889 8.92906 2.76901C9.00083 2.79913 9.07867 2.81296 9.1567 2.80945C9.23461 2.80716 9.31106 2.78825 9.38069 2.75406C9.45033 2.71987 9.51147 2.67122 9.55984 2.61152C9.78734 2.3393 10.0746 2.12056 10.4004 1.97149C10.7262 1.82242 11.0821 1.74684 11.4419 1.75035C11.7668 1.77182 12.0836 1.85915 12.3721 2.00679C12.6606 2.15443 12.9145 2.35913 13.1175 2.60787C13.1752 2.67894 13.2508 2.73412 13.3369 2.76799C13.423 2.80185 13.5167 2.81323 13.6087 2.80101C13.7006 2.78878 13.7878 2.75337 13.8615 2.69826C13.9352 2.64315 13.993 2.57024 14.0291 2.48671C14.2077 2.05427 14.5165 1.68496 14.9146 1.4276C15.3127 1.17023 15.7814 1.03693 16.2587 1.04532C16.6532 1.08199 17.0334 1.20871 17.3686 1.41527C17.7038 1.62183 17.9845 1.90244 18.1883 2.23446C18.2263 2.30302 18.2796 2.36238 18.3442 2.40821C18.4088 2.45403 18.483 2.48514 18.5615 2.49927C18.64 2.51339 18.7208 2.51016 18.7978 2.48983C18.8749 2.46949 18.9463 2.43256 19.0069 2.38174C19.4728 1.97362 20.0578 1.71799 20.6798 1.6506C21.1543 1.62074 21.6297 1.69427 22.0715 1.86588C22.5133 2.03749 22.9106 2.30288 23.2345 2.64286C23.3053 2.71707 23.3967 2.76953 23.4975 2.79383C23.5984 2.81812 23.7043 2.81321 23.8023 2.77969C24.6326 2.47861 25.5454 2.47565 26.3778 2.77133C26.8859 2.99038 27.3389 3.31523 27.7051 3.72314C28.0713 4.13106 28.3418 4.6122 28.4977 5.13291H2.43755C2.48712 4.7336 2.66907 4.36109 2.95564 4.07223ZM1.0843 6.17739H29.1682H29.1816C29.1816 6.17739 29.2003 6.17739 29.2094 6.17739H30.9973C30.9226 7.56543 30.5588 8.924 29.928 10.1699H18.7668C18.3041 10.1705 17.8606 10.3505 17.5338 10.6703C17.2069 10.9901 17.0235 11.4237 17.0238 11.8756V15.8723H11.5274C8.84684 15.8693 6.26952 14.8622 4.32639 13.0586C2.38326 11.255 1.22231 8.79212 1.0827 6.17739H1.0843ZM10.0309 18.7227C9.82465 18.6757 9.64086 18.5617 9.50963 18.3994C9.3784 18.237 9.3075 18.036 9.30855 17.8291V16.7011C10.0393 16.8425 10.7824 16.9142 11.5274 16.9152H17.0238V19.3473C16.7377 19.3577 16.457 19.365 16.1822 19.365C14.1136 19.3774 12.0501 19.1619 10.0309 18.7227ZM28.6325 22.3032C28.6323 22.3549 28.6112 22.4045 28.5737 22.4411C28.5363 22.4777 28.4855 22.4984 28.4325 22.4985H20.5232C20.4702 22.4984 20.4194 22.4777 20.3819 22.4411C20.3445 22.4045 20.3234 22.3549 20.3232 22.3032V21.3109H28.6325V22.3032ZM30.8626 19.6084C30.8621 19.783 30.7909 19.9504 30.6644 20.0738C30.538 20.1972 30.3666 20.2667 30.1878 20.267H18.7668C18.588 20.2668 18.4166 20.1974 18.2902 20.0739C18.1638 19.9504 18.0927 19.783 18.0926 19.6084V11.8756C18.0923 11.7889 18.1095 11.703 18.1433 11.6228C18.177 11.5427 18.2266 11.4698 18.2893 11.4084C18.3519 11.347 18.4263 11.2982 18.5083 11.2649C18.5902 11.2316 18.6781 11.2145 18.7668 11.2144H30.1873H30.1921C30.1996 11.2144 30.206 11.2175 30.2129 11.2181C30.3874 11.2239 30.5527 11.2957 30.6739 11.4184C30.7952 11.5411 30.8628 11.7051 30.8626 11.8756V19.6084Z" fill="#A88EC3"/>
<path d="M9.47854 13.4721C7.67203 13.0388 6.07722 12.0027 4.9697 10.5429C4.52422 9.92485 4.18255 9.24135 3.95757 8.51815C3.91445 8.3876 3.82048 8.27886 3.69595 8.21543C3.57142 8.152 3.42634 8.13898 3.29206 8.17918C3.15778 8.21937 3.04508 8.30956 2.97833 8.43026C2.91157 8.55095 2.89611 8.69245 2.93529 8.82419C3.19356 9.6532 3.58559 10.4367 4.09659 11.145C5.35023 12.8066 7.1597 13.9872 9.21121 14.4822C9.25502 14.4933 9.30013 14.4989 9.34541 14.4989C9.47541 14.4986 9.60087 14.4521 9.6983 14.3681C9.79574 14.284 9.85849 14.1682 9.87481 14.0422C9.89113 13.9162 9.8599 13.7887 9.78696 13.6836C9.71403 13.5785 9.60438 13.503 9.47854 13.4711V13.4721Z" fill="#A88EC3"/>
<path d="M12.143 14.7893C12.2096 14.814 12.2803 14.8264 12.3515 14.8258C12.4211 14.8264 12.4901 14.8133 12.5544 14.7873C12.6187 14.7613 12.677 14.7229 12.7258 14.6744C12.7763 14.626 12.8165 14.5683 12.844 14.5047C12.8715 14.441 12.8859 14.3727 12.8862 14.3036C12.8859 14.2352 12.8715 14.1677 12.844 14.1049C12.8164 14.0421 12.7762 13.9853 12.7258 13.938C12.6247 13.8425 12.4895 13.7891 12.3488 13.7891C12.2082 13.7891 12.073 13.8425 11.9719 13.938C11.8723 14.0358 11.8164 14.1682 11.8164 14.3062C11.8164 14.4441 11.8723 14.5765 11.9719 14.6744C12.0207 14.7232 12.0788 14.7622 12.143 14.7893Z" fill="#A88EC3"/>
<path d="M24.4768 12.4199C24.3969 12.4199 24.318 12.4374 24.2459 12.4711C24.1738 12.5048 24.1104 12.5539 24.0603 12.6147C23.6823 13.0738 21.7949 15.4296 21.7949 16.7075C21.7949 17.4023 22.0775 18.0686 22.5804 18.5598C23.0834 19.0511 23.7655 19.3271 24.4768 19.3271C25.1881 19.3271 25.8702 19.0511 26.3732 18.5598C26.8761 18.0686 27.1587 17.4023 27.1587 16.7075C27.1587 15.4296 25.2719 13.0738 24.8939 12.6147C24.8437 12.5538 24.7802 12.5047 24.708 12.471C24.6358 12.4373 24.5568 12.4198 24.4768 12.4199ZM24.4768 18.2826C24.0493 18.2822 23.6394 18.1161 23.337 17.8208C23.0347 17.5255 22.8647 17.1251 22.8643 16.7075C22.8643 16.1419 23.7074 14.8139 24.4768 13.7976C25.2467 14.8134 26.0894 16.1409 26.0894 16.7075C26.0889 17.1251 25.9189 17.5255 25.6166 17.8208C25.3143 18.1161 24.9044 18.2822 24.4768 18.2826Z" fill="#A88EC3"/>
</svg>
