<svg width="32" height="32" viewBox="0 0 32 32" fill="none" xmlns="http://www.w3.org/2000/svg">
<path fill-rule="evenodd" clip-rule="evenodd" d="M31.4153 10.5855L21.4153 0.585547C20.9193 0.0895466 20.2003 -0.109453 19.5193 0.0585466C19.1603 0.146547 18.8393 0.331547 18.5853 0.585547C18.3583 0.812547 18.1873 1.09355 18.0893 1.40755C17.6363 2.87655 16.8533 4.15355 15.6943 5.31155C14.1463 6.85855 12.1303 8.03055 9.99726 9.26955C7.73326 10.5815 5.39426 11.9415 3.47726 13.8575C1.84826 15.4885 0.739258 17.3025 0.0892585 19.4085C-0.129742 20.1195 0.0612585 20.8885 0.585258 21.4145L10.5853 31.4145C11.0813 31.9105 11.8003 32.1095 12.4813 31.9415C12.8403 31.8515 13.1613 31.6685 13.4153 31.4145C13.6423 31.1875 13.8133 30.9065 13.9113 30.5905C14.3653 29.1215 15.1483 27.8445 16.3083 26.6865C17.8553 25.1395 19.8703 23.9695 22.0053 22.7315C24.2673 21.4175 26.6073 20.0575 28.5233 18.1415C30.1523 16.5125 31.2613 14.6965 31.9123 12.5905C32.1303 11.8805 31.9383 11.1085 31.4153 10.5855ZM12.0003 29.9995C8.68826 26.6875 5.31226 23.3105 2.00026 19.9995C4.84226 10.7985 17.1603 11.2005 20.0003 1.99955C23.3123 5.31055 26.6893 8.68755 30.0023 11.9995C27.1593 21.1985 14.8413 20.7985 12.0003 29.9995Z" fill="#662D91"/>
<path fill-rule="evenodd" clip-rule="evenodd" d="M19.5622 14.8996C19.2362 14.6266 18.9082 14.4406 18.5782 14.3486C18.2502 14.2566 17.9222 14.2196 17.5902 14.2436C17.2622 14.2686 16.9262 14.3436 16.5902 14.4726C16.2542 14.6036 15.9162 14.7456 15.5762 14.9106C15.0392 14.2936 14.5022 13.6836 13.9652 13.1176C14.2072 12.8986 14.4422 12.7876 14.6682 12.7796C14.8952 12.7696 15.1132 12.7936 15.3202 12.8456C15.5312 12.8986 15.7242 12.9436 15.9022 12.9786C16.0822 13.0136 16.2382 12.9746 16.3752 12.8596C16.5202 12.7346 16.6002 12.5726 16.6112 12.3776C16.6212 12.1806 16.5472 11.9886 16.3822 11.8016C16.1712 11.5596 15.9172 11.4126 15.6122 11.3586C15.3112 11.3056 15.0032 11.3096 14.6822 11.3796C14.3662 11.4516 14.0652 11.5706 13.7802 11.7386C13.4952 11.9066 13.2662 12.0786 13.0962 12.2466C13.0312 12.1846 12.9662 12.1236 12.9012 12.0626C12.8292 11.9966 12.7392 11.9606 12.6312 11.9626C12.5222 11.9626 12.4322 12.0096 12.3582 12.0956C12.2862 12.1796 12.2532 12.2776 12.2662 12.3806C12.2762 12.4876 12.3192 12.5696 12.3932 12.6326C12.4582 12.6876 12.5232 12.7416 12.5882 12.7986C12.3322 13.1076 12.1212 13.4486 11.9552 13.8086C11.7872 14.1696 11.6872 14.5276 11.6502 14.8746C11.6112 15.2246 11.6482 15.5446 11.7552 15.8416C11.8622 16.1406 12.0602 16.3946 12.3492 16.6346C12.8202 17.0256 13.3742 17.1916 14.0172 17.1546C14.6582 17.1156 15.3492 16.9246 16.0922 16.5256C16.6822 17.2076 17.2742 17.8846 17.8652 18.5136C17.6152 18.7246 17.3962 18.8456 17.2032 18.8846C17.0102 18.9256 16.8382 18.9216 16.6822 18.8746C16.5262 18.8256 16.3812 18.7556 16.2482 18.6656C16.1152 18.5736 15.9842 18.4956 15.8532 18.4316C15.7242 18.3676 15.5912 18.3316 15.4552 18.3296C15.3192 18.3276 15.1742 18.3936 15.0142 18.5306C14.8502 18.6736 14.7682 18.8396 14.7682 19.0266C14.7682 19.2126 14.8542 19.4016 15.0222 19.5926C15.1922 19.7836 15.4132 19.9446 15.6802 20.0716C15.9472 20.1986 16.2492 20.2786 16.5812 20.3006C16.9132 20.3236 17.2632 20.2736 17.6322 20.1366C18.0032 20.0016 18.3702 19.7576 18.7322 19.3946C18.9062 19.5646 19.0822 19.7266 19.2572 19.8826C19.3312 19.9466 19.4212 19.9786 19.5302 19.9706C19.6352 19.9666 19.7272 19.9176 19.8002 19.8296C19.8742 19.7396 19.9052 19.6406 19.8942 19.5366C19.8842 19.4316 19.8412 19.3506 19.7692 19.2926C19.5932 19.1516 19.4172 19.0036 19.2422 18.8476C19.5412 18.4806 19.7812 18.0936 19.9592 17.7106C20.1372 17.3256 20.2422 16.9546 20.2772 16.6106C20.3122 16.2646 20.2712 15.9526 20.1582 15.6696C20.0462 15.3826 19.8472 15.1366 19.5622 14.8996ZM13.9712 15.5776C13.6882 15.5896 13.4412 15.4956 13.2252 15.2866C13.1332 15.1986 13.0692 15.0916 13.0302 14.9646C12.9892 14.8376 12.9752 14.6986 12.9912 14.5466C13.0052 14.3966 13.0502 14.2396 13.1282 14.0816C13.2022 13.9236 13.3122 13.7656 13.4522 13.6126C13.9592 14.1166 14.4652 14.6696 14.9722 15.2416C14.5882 15.4526 14.2542 15.5656 13.9712 15.5776ZM18.6882 17.5796C18.5982 17.7456 18.4952 17.8936 18.3742 18.0226C17.8132 17.4566 17.2532 16.8346 16.6942 16.1966C16.8372 16.1326 16.9872 16.0656 17.1492 15.9976C17.3112 15.9296 17.4732 15.8846 17.6352 15.8566C17.8012 15.8316 17.9652 15.8386 18.1292 15.8776C18.2912 15.9186 18.4452 16.0066 18.5882 16.1456C18.7292 16.2866 18.8182 16.4326 18.8542 16.5906C18.8932 16.7506 18.8952 16.9126 18.8682 17.0786C18.8392 17.2456 18.7802 17.4116 18.6882 17.5796Z" fill="#662D91"/>
<path fill-rule="evenodd" clip-rule="evenodd" d="M14.7173 22.1795H14.7153C14.0903 22.6595 13.4803 23.1655 12.9153 23.7325C12.3723 24.2755 11.8813 24.8475 11.4543 25.4315L10.7703 26.3655L10.7723 26.3675C10.6473 26.5625 10.6683 26.8245 10.8383 26.9945C11.0333 27.1895 11.3523 27.1895 11.5483 26.9945C11.5783 26.9635 11.6023 26.9305 11.6223 26.8945L12.2613 26.0195C12.6573 25.4785 13.1153 24.9455 13.6223 24.4395C14.1833 23.8785 14.7033 23.4455 15.3363 22.9645L15.3343 22.9625C15.3523 22.9485 15.3693 22.9375 15.3853 22.9215C15.5813 22.7265 15.5813 22.4075 15.3853 22.2125C15.2043 22.0285 14.9143 22.0205 14.7173 22.1795Z" fill="#662D91"/>
<path fill-rule="evenodd" clip-rule="evenodd" d="M18.3783 7.71463C17.8553 8.23763 17.2883 8.70863 16.7003 9.15763C16.6593 9.18063 16.6183 9.20663 16.5833 9.24363C16.3863 9.44063 16.3863 9.76163 16.5833 9.95863C16.7743 10.1516 17.0833 10.1556 17.2823 9.97263L17.2863 9.97463C17.9113 9.49463 18.5203 8.98663 19.0853 8.42163C19.6283 7.87863 20.1183 7.30863 20.5463 6.72463L21.2303 5.78663L21.2283 5.78463C21.3983 5.58563 21.3903 5.28863 21.2033 5.10063C21.0063 4.90363 20.6873 4.90363 20.4903 5.10063C20.4533 5.13763 20.4263 5.18063 20.4023 5.22363L19.7383 6.13363C19.3413 6.67763 18.8843 7.20863 18.3783 7.71463Z" fill="#662D91"/>
</svg>
