<svg width="33" height="39" viewBox="0 0 33 39" fill="none" xmlns="http://www.w3.org/2000/svg">
<path d="M32.25 16.5C32.25 27.8041 20.5688 35.862 17.326 37.8815C17.0787 38.0374 16.7923 38.1202 16.5 38.1202C16.2077 38.1202 15.9213 38.0374 15.674 37.8815C12.4321 35.862 0.75 27.8041 0.75 16.5C0.75 7.80163 7.80163 0.75 16.5 0.75C25.1984 0.75 32.25 7.80163 32.25 16.5Z" fill="#8FBFFA"/>
<path d="M23.5 16.5C23.5 18.3565 22.7625 20.137 21.4497 21.4497C20.137 22.7625 18.3565 23.5 16.5 23.5C14.6435 23.5 12.863 22.7625 11.5503 21.4497C10.2375 20.137 9.5 18.3565 9.5 16.5C9.5 14.6435 10.2375 12.863 11.5503 11.5503C12.863 10.2375 14.6435 9.5 16.5 9.5C18.3565 9.5 20.137 10.2375 21.4497 11.5503C22.7625 12.863 23.5 14.6435 23.5 16.5Z" fill="white"/>
<path d="M32.25 16.5C32.25 27.8041 20.5688 35.862 17.326 37.8815C17.0787 38.0374 16.7923 38.1202 16.5 38.1202C16.2077 38.1202 15.9213 38.0374 15.674 37.8815C12.4321 35.862 0.75 27.8041 0.75 16.5C0.75 7.80163 7.80163 0.75 16.5 0.75C25.1984 0.75 32.25 7.80163 32.25 16.5Z" stroke="#2859C5" stroke-width="1.5" stroke-linecap="round" stroke-linejoin="round"/>
<path d="M21.4497 21.4497C22.7625 20.137 23.5 18.3565 23.5 16.5C23.5 14.6435 22.7625 12.863 21.4497 11.5503C20.137 10.2375 18.3565 9.5 16.5 9.5C14.6435 9.5 12.863 10.2375 11.5503 11.5503C10.2375 12.863 9.5 14.6435 9.5 16.5C9.5 18.3565 10.2375 20.137 11.5503 21.4497C12.863 22.7625 14.6435 23.5 16.5 23.5C18.3565 23.5 20.137 22.7625 21.4497 21.4497Z" stroke="#2859C5" stroke-width="1.5" stroke-linecap="round" stroke-linejoin="round"/>
</svg>
