<svg width="43" height="48" viewBox="0 0 43 48" fill="none" xmlns="http://www.w3.org/2000/svg">
<path d="M13.9482 2.31055C16.4235 2.31067 18.4412 4.19275 18.4414 6.52832V6.5293C18.4395 7.42561 18.1385 8.29358 17.5898 8.99902C21.7413 10.4421 24.7041 14.1423 24.7041 18.4883C24.7041 18.9523 24.65 19.29 24.5264 19.5068C24.4629 19.618 24.379 19.7005 24.2744 19.749C24.1707 19.7971 24.054 19.8082 23.9307 19.793C23.688 19.7628 23.3971 19.6274 23.0645 19.4277C22.7288 19.2262 22.3383 18.9512 21.8955 18.6289C20.1355 17.3478 17.5102 15.2985 13.9971 13.9766C13.8337 14.2936 13.5552 14.673 13.1934 15.085C12.7974 15.5357 12.2982 16.0314 11.7344 16.5361C10.6069 17.5455 9.21544 18.5956 7.86035 19.4023C6.50965 20.2064 5.17938 20.7788 4.17773 20.8125C3.67392 20.8295 3.2391 20.7104 2.93164 20.4014C2.62501 20.093 2.46289 19.6123 2.46289 18.9453C2.46311 14.454 5.80242 10.3598 10.2441 8.9082C9.73639 8.21877 9.45858 7.38598 9.45703 6.52734C9.45703 4.19321 11.4727 2.31055 13.9482 2.31055Z" fill="white" stroke="#A88EC3" stroke-width="0.2"/>
<path d="M7.14941 20.9082C7.21448 20.9083 7.2699 20.9344 7.30762 20.9785C7.34348 21.0205 7.3593 21.0733 7.35938 21.1221C7.35938 21.171 7.34357 21.2245 7.30762 21.2666C7.2699 21.3106 7.21441 21.3368 7.14941 21.3369C7.08419 21.3369 7.02801 21.3108 6.99023 21.2666C6.95428 21.2245 6.93945 21.171 6.93945 21.1221C6.93953 21.0733 6.95438 21.0205 6.99023 20.9785C7.02801 20.9342 7.08414 20.9082 7.14941 20.9082Z" fill="#A88EC3" stroke="#A88EC3" stroke-width="0.2"/>
<path d="M24.8271 26.5781C24.8741 26.5993 24.907 26.6345 24.9287 26.6729C24.9698 26.7459 24.9745 26.8363 24.9648 26.9082C24.926 27.1999 24.8901 27.4904 24.8574 27.7842V27.7852C24.713 29.0371 24.5967 30.3081 24.3311 31.5518C24.0793 32.7304 23.6481 33.8485 22.9697 34.8545C21.6132 36.8652 19.6022 38.2882 17.7666 39.7793C17.2393 40.2089 16.7002 40.6367 16.1152 40.998C15.544 41.3506 14.9015 41.663 14.209 41.7334C12.8109 41.8766 11.5779 40.9986 10.5713 40.2061C9.60762 39.4475 8.64136 38.6815 7.70312 37.8887C6.8098 37.134 5.94268 36.3217 5.23633 35.374C4.49163 34.3764 3.96541 33.2329 3.69141 32.0186C3.39343 30.6987 3.36672 29.3251 3.20703 28.0068L3.20508 27.9951H3.20605V27.9922H3.20703C3.19986 27.9034 3.23091 27.8144 3.27344 27.7422C3.31884 27.6651 3.38359 27.5942 3.45312 27.5449C3.51806 27.4989 3.60989 27.4564 3.70215 27.4814C3.80795 27.5102 3.8584 27.6088 3.87207 27.7217C3.91249 28.0546 3.94574 28.3876 3.97559 28.7207C4.07709 29.8555 4.15763 30.9798 4.45703 32.0625L4.59961 32.5234L4.74707 32.918C5.11748 33.827 5.66229 34.6544 6.31055 35.3975C7.05209 36.2475 7.91177 36.9853 8.79199 37.6992C9.24616 38.0675 9.70339 38.4266 10.1602 38.7939C10.6554 39.1921 11.1359 39.5972 11.6494 39.96C12.1905 40.342 12.7742 40.705 13.4043 40.8682C13.9782 41.0169 14.5562 40.9672 15.1113 40.7529C16.2873 40.2994 17.2467 39.3804 18.2432 38.5859C19.9878 37.1914 21.8352 35.8042 22.9043 33.8281C23.4404 32.8357 23.6905 31.7399 23.8652 30.6201C24.0534 29.4159 24.1504 28.2128 24.3125 26.9971C24.3241 26.9109 24.3682 26.8143 24.4268 26.7363C24.484 26.6601 24.5693 26.5841 24.6748 26.5645V26.5635C24.7279 26.5533 24.7802 26.557 24.8271 26.5781Z" fill="#A88EC3" stroke="#A88EC3" stroke-width="0.2"/>
<path d="M12.0693 0.382812C13.6708 0.011584 15.4705 -0.119946 16.959 0.788086L17.1836 0.933594C18.2854 1.68764 19.0686 2.85792 19.4121 4.1377C19.7605 5.42944 19.8975 6.81003 19.8916 8.1416C19.8913 8.20101 19.8873 8.34348 19.8555 8.47363C19.8396 8.53823 19.8151 8.60906 19.7744 8.66504C19.7318 8.72356 19.6655 8.77253 19.5742 8.77148C19.4884 8.7705 19.4228 8.72792 19.377 8.67383C19.3329 8.62171 19.304 8.55545 19.2842 8.49316C19.2446 8.36823 19.2334 8.22767 19.2334 8.15137L19.2275 7.70312C19.2232 7.55402 19.2166 7.40491 19.208 7.25586L19.1904 6.99121C19.1888 6.96902 19.1873 6.94642 19.1855 6.92383C19.1838 6.90121 19.1814 6.87769 19.1797 6.85449V6.85352C19.1634 6.67441 19.146 6.49626 19.125 6.31836C19.0826 5.96355 19.0298 5.61026 18.9619 5.26074C18.9532 5.21548 18.9439 5.17026 18.9346 5.125H18.9336C18.9309 5.11264 18.9292 5.10046 18.9277 5.09375L18.8711 4.85352C18.8316 4.69532 18.7875 4.539 18.7373 4.38477V4.38379C18.723 4.33888 18.7077 4.29536 18.6924 4.25293V4.25098L18.6914 4.25L18.6211 4.07812C18.5711 3.9637 18.5127 3.85233 18.4502 3.74121V3.74023C18.2906 3.46237 18.1035 3.20129 17.8916 2.96094L17.8906 2.95996C17.4694 2.47218 16.9486 2.0804 16.3633 1.81055C14.9843 1.17763 13.3155 1.41474 11.873 1.82227H11.8721C11.5256 1.91659 11.1903 2.04874 10.874 2.21875L10.875 2.21973C10.5625 2.39152 10.2828 2.61769 10.0078 2.85742C9.4801 3.31737 8.98129 3.87587 8.68652 4.50391V4.50488C8.6523 4.5767 8.62051 4.65036 8.59277 4.72559L8.56152 4.82129C8.55977 4.82633 8.55801 4.83126 8.55664 4.83496L8.55469 4.83691L8.55566 4.83789C8.5188 4.97309 8.48554 5.10788 8.45898 5.24414C8.45001 5.29093 8.44155 5.33781 8.43359 5.38477C8.43295 5.38961 8.43244 5.39535 8.43164 5.40137C8.42115 5.48135 8.41069 5.55999 8.40234 5.63867C8.38627 5.79111 8.37737 5.94416 8.36816 6.10059C8.36796 6.10455 8.36736 6.10813 8.36719 6.11133C8.36718 6.11261 8.36719 6.11391 8.36719 6.11523C8.36715 6.13088 8.3674 6.1511 8.36621 6.1709C8.36448 6.20002 8.36426 6.22962 8.36426 6.2627V6.50781L8.38379 6.95898C8.38543 6.97809 8.38792 7.00524 8.38965 7.02148C8.39287 7.05137 8.39598 7.08145 8.39941 7.11133C8.40814 7.18404 8.4181 7.26062 8.42871 7.3291C8.43378 7.36178 8.44053 7.39459 8.44727 7.42969C8.45389 7.46421 8.46122 7.50097 8.4668 7.53809C8.47639 7.60213 8.48196 7.64395 8.48535 7.66895C8.48696 7.68084 8.48859 7.68993 8.48926 7.69629C8.48948 7.69839 8.49016 7.70499 8.49023 7.71094C8.49025 7.71219 8.48938 7.71422 8.48926 7.7168L8.49414 7.74512C8.50742 7.8311 8.51325 7.93621 8.50195 8.04004C8.49076 8.14274 8.46166 8.25381 8.39551 8.3418C8.36516 8.38226 8.3266 8.41367 8.28027 8.42969C8.23302 8.44599 8.18537 8.44315 8.14355 8.42773C8.06427 8.39833 8.00835 8.32658 7.97852 8.25391C7.82425 7.87745 7.76157 7.47523 7.72168 7.08398C7.67427 6.62305 7.66186 6.1591 7.68457 5.69629V5.69531C7.72661 4.86576 7.88354 4.02769 8.28613 3.28223C8.68225 2.55046 9.26342 1.89565 9.90527 1.37598C10.5478 0.856072 11.2786 0.566099 12.0693 0.382812ZM8.37598 7.61426C8.37721 7.62268 8.37787 7.63052 8.37891 7.6377L8.44238 7.62793C8.43072 7.62066 8.41474 7.61329 8.39453 7.6123C8.38794 7.612 8.38182 7.61348 8.37598 7.61426ZM8.28516 6.98926L8.29004 7.03223C8.29038 7.03542 8.29067 7.0388 8.29102 7.04199C8.29653 7.0425 8.30161 7.04526 8.30664 7.04492C8.33315 7.03388 8.36457 7.00475 8.37207 6.99219C8.37333 6.98934 8.37374 6.98499 8.375 6.98145L8.28516 6.98926ZM19.2158 6.8252C19.2094 6.83289 19.2051 6.84354 19.2002 6.85254L19.2793 6.84668C19.2784 6.83658 19.2773 6.8265 19.2764 6.81641C19.2556 6.8153 19.2345 6.81674 19.2158 6.8252ZM8.27051 6.06445L8.35059 6.06836V6.06641C8.34577 6.05897 8.3332 6.04057 8.30859 6.0293C8.29706 6.02403 8.28498 6.02322 8.27344 6.02246C8.27261 6.03646 8.27133 6.05044 8.27051 6.06445ZM8.33203 5.38672V5.3877C8.33118 5.39415 8.32995 5.40077 8.3291 5.40723C8.35593 5.4104 8.38192 5.40587 8.40234 5.39746L8.33203 5.38672ZM19.001 5.04688C18.9863 5.05538 18.969 5.07164 18.958 5.08496V5.08594C18.9536 5.0913 18.9501 5.09602 18.9482 5.09961C18.9448 5.10774 18.9435 5.11596 18.9424 5.12207L19.0322 5.10352L19.0254 5.07129C19.0235 5.06274 19.0205 5.05444 19.0186 5.0459C19.0123 5.04635 19.0062 5.04553 19.001 5.04688ZM18.7646 4.16602C18.7318 4.18732 18.7051 4.22407 18.7012 4.24023C18.701 4.24177 18.7003 4.24339 18.7002 4.24512V4.24609V4.24805L18.7861 4.21875L18.7842 4.21289C18.778 4.19719 18.7709 4.1817 18.7646 4.16602Z" fill="#A88EC3" stroke="#A88EC3" stroke-width="0.2"/>
<path d="M9.01953 7.02637C11.9843 5.88153 15.2723 5.90083 18.2236 7.08008H18.2246C19.6268 7.64808 20.9125 8.46976 22.0166 9.50391C23.1216 10.5383 24.0311 11.7639 24.7012 13.1211C25.4037 14.5388 25.8241 16.0774 25.9746 17.6494V17.6504C26.0509 18.4727 26.0639 19.2997 26.0137 20.124C25.9796 20.7077 25.8777 21.2834 25.7637 21.8516L25.6475 22.417C25.6364 22.4706 25.6099 22.5476 25.5576 22.5977C25.5292 22.6248 25.4853 22.6502 25.4297 22.6475C25.3753 22.6447 25.3307 22.6156 25.2969 22.5801C25.2263 22.506 25.2027 22.4042 25.1963 22.3184C25.1897 22.2299 25.2003 22.1404 25.2129 22.0742L25.3281 21.4668C25.3655 21.2648 25.4012 21.0629 25.4316 20.8604C25.636 19.5 25.5618 18.058 25.2754 16.709C24.837 14.61 23.8403 12.6681 22.3896 11.0889C20.9391 9.50975 19.0885 8.35207 17.0342 7.7373C15.588 7.3055 14.0521 7.16234 12.5479 7.28516H12.5469C9.64788 7.51373 6.93402 8.79914 4.9209 10.8975C2.90766 12.996 1.73578 15.7611 1.62793 18.667V18.6914C1.62671 18.7135 1.62598 18.735 1.62598 18.7549V18.7588C1.62429 18.8032 1.62305 18.8481 1.62305 18.8926V19.1777L1.63477 19.4941C1.64105 19.5972 1.65019 19.6984 1.66113 19.7988L1.7041 20.1357C1.73624 20.3599 1.77512 20.583 1.82129 20.8047L1.89551 21.1367L2.06152 21.7842C2.16519 22.1632 2.2824 22.5404 2.41602 22.9092C2.6163 22.2343 2.95489 21.6066 3.39258 21.0479C3.91586 20.3806 4.53749 19.8248 5.1875 19.3086C5.51243 19.0505 5.84552 18.8017 6.17676 18.5537C6.50846 18.3054 6.83875 18.0572 7.16016 17.8008C7.91192 17.2011 8.65789 16.5925 9.30273 15.8887V15.8877C9.98538 15.1493 10.5392 14.3013 10.9395 13.3789L10.9424 13.3701L10.9473 13.3633C10.9757 13.3058 11.0278 13.2459 11.1104 13.2461C11.1956 13.2465 11.2511 13.3118 11.2803 13.3672L11.3037 13.4199C11.3365 13.5118 11.3388 13.6174 11.3223 13.7109L11.2939 13.8164C10.8798 14.9106 10.2615 15.9162 9.47266 16.7803C8.28388 18.0849 6.82254 19.0772 5.47852 20.1709C4.81696 20.7075 4.18962 21.2848 3.68555 21.9629H3.68457C3.44011 22.2856 3.23516 22.6373 3.07422 23.0088C2.92024 23.369 2.82574 23.7522 2.79395 24.1426C2.78972 24.1954 2.77374 24.256 2.75195 24.3115C2.73031 24.3666 2.69937 24.4251 2.65918 24.4697C2.62137 24.5115 2.55276 24.5638 2.46484 24.543C2.38323 24.5235 2.33052 24.4504 2.29492 24.3711C2.11921 23.9831 1.9803 23.5762 1.84473 23.1797C1.55254 22.328 1.31065 21.4478 1.17188 20.5527L1.11914 20.168C1.01154 19.2765 1.03387 18.3731 1.13574 17.4854C1.29308 16.1149 1.65515 14.7645 2.22656 13.5068L2.48438 12.9736C3.17265 11.6274 4.09599 10.415 5.20996 9.39258C6.32221 8.37473 7.61402 7.57207 9.01953 7.02637Z" fill="#A88EC3" stroke="#A88EC3" stroke-width="0.2"/>
<path d="M13.8076 11.873C13.9168 11.8269 14.0216 11.8487 14.0996 11.9092C14.1733 11.9664 14.2199 12.0545 14.2363 12.1436C14.2857 12.4146 14.3048 12.6905 14.2939 12.9658C14.2517 14.078 13.7664 15.1293 13.2539 16.0713L13.2529 16.0703C12.9997 16.5438 12.6894 16.9845 12.3271 17.3809L12.3262 17.3818C11.511 18.2655 10.5503 19.0064 9.61523 19.7373C8.522 20.5917 7.42356 21.4326 6.39648 22.3584H6.39551C5.40198 23.2526 4.43726 24.2648 3.76172 25.3789C3.46386 25.8702 3.22231 26.3689 3.0498 26.8838L2.97949 27.1055C2.82008 27.6402 2.73823 28.1948 2.73535 28.752L2.73926 28.9902V28.9912C2.74195 29.0883 2.70309 29.1914 2.64453 29.2715C2.58616 29.3512 2.49508 29.4249 2.38086 29.4346C2.25279 29.4455 2.16302 29.3801 2.11133 29.2959C2.06308 29.2173 2.04525 29.1207 2.04297 29.043C2.03832 28.8737 2.03986 28.7039 2.04785 28.5342C2.11507 27.1314 2.63739 25.817 3.39258 24.6572C4.15757 23.4821 5.15392 22.4722 6.19141 21.5508C7.22474 20.6338 8.32476 19.7975 9.40625 18.9502C9.89458 18.5676 10.3794 18.1826 10.8477 17.7793L11.1514 17.5127C11.444 17.2507 11.7068 16.9968 11.9658 16.7041V16.7031C12.1173 16.5336 12.2588 16.3555 12.3887 16.1689L12.4346 16.1016C12.4369 16.098 12.4391 16.0944 12.4414 16.0908C12.4421 16.0897 12.4431 16.0879 12.4443 16.0859C12.4471 16.0815 12.4502 16.0769 12.4531 16.0723C12.4761 16.0346 12.4981 15.9974 12.5195 15.96C12.6483 15.735 12.7714 15.5053 12.8887 15.2734C13.345 14.3716 13.7338 13.3803 13.5508 12.3867L13.4814 12.0107L13.5781 12.1279C13.5824 12.1165 13.5868 12.1048 13.5918 12.0938C13.6336 12.0024 13.7053 11.9164 13.8076 11.873ZM12.4707 16.0625L12.543 16.1133C12.5525 16.0977 12.5619 16.0821 12.5713 16.0664C12.5446 16.0555 12.5119 16.048 12.4961 16.0508C12.4882 16.0536 12.4776 16.0586 12.4707 16.0625Z" fill="#A88EC3" stroke="#A88EC3" stroke-width="0.2"/>
<path d="M13.9072 12.6094C14.0302 12.6021 14.1234 12.6704 14.1816 12.749C14.2392 12.8267 14.2718 12.9259 14.2744 13.0146L14.2822 13.126C14.2932 13.1781 14.3072 13.2298 14.3242 13.2803C14.3595 13.3709 14.4016 13.4587 14.4502 13.543L14.4512 13.5439C14.5811 13.7729 14.7535 13.9808 14.9375 14.1807H14.9385C15.3369 14.6144 15.7956 14.9915 16.2705 15.3477C17.312 16.1288 18.4384 16.7665 19.5469 17.4668L20.0381 17.7871C20.5227 18.1165 20.9877 18.4742 21.4307 18.8584L21.4316 18.8594C22.0143 19.3699 22.5664 19.9134 23.1123 20.458C23.5122 20.8565 23.8997 21.2583 24.2412 21.7139L24.3848 21.9131L24.6523 22.3174C24.9114 22.7271 25.1451 23.1529 25.3516 23.5918C25.8032 24.5476 26.2194 25.6241 26.2861 26.707C26.2914 26.7922 26.2732 26.8934 26.2266 26.9775C26.179 27.0632 26.0947 27.1419 25.9697 27.1494C25.845 27.1567 25.7519 27.0892 25.6943 27.0098C25.6379 26.9318 25.6069 26.8334 25.6016 26.748C25.5713 26.2643 25.4381 25.7713 25.2686 25.2607C25.0555 24.6271 24.7874 24.0133 24.4668 23.4268L24.4658 23.4258C24.2505 23.0212 24.0048 22.6339 23.7314 22.2666L23.4492 21.9062C23.2279 21.6423 22.9884 21.3917 22.7412 21.1465L21.9883 20.418C21.444 19.8895 20.8859 19.3776 20.2822 18.9229C19.6468 18.4454 18.9598 18.0373 18.2744 17.6221C17.274 17.0162 16.2756 16.3839 15.3691 15.6299C14.9442 15.276 14.5234 14.8915 14.1797 14.4453C13.8794 14.0549 13.6029 13.5795 13.5879 13.0488L13.584 12.9307L13.6006 12.9326C13.6099 12.8819 13.6251 12.83 13.6504 12.7832C13.6972 12.6969 13.7808 12.617 13.9072 12.6094ZM14.2744 13.127L14.1826 13.1416L14.1836 13.1436L14.1992 13.2031C14.2067 13.2012 14.2156 13.2015 14.2236 13.1973C14.2477 13.1845 14.2596 13.1657 14.2646 13.1562C14.2701 13.1461 14.2733 13.1375 14.2744 13.1328C14.2749 13.1309 14.2741 13.1287 14.2744 13.127Z" fill="#A88EC3" stroke="#A88EC3" stroke-width="0.2"/>
<path d="M1.96777 24.7627L2.12402 24.792L2.17578 24.8066L2.17871 24.8184C2.2086 24.8335 2.23634 24.8508 2.25781 24.876C2.29127 24.9153 2.30943 24.9619 2.31738 25.0078C2.3328 25.0972 2.31183 25.1949 2.27637 25.2783C2.24038 25.3628 2.1844 25.4456 2.11621 25.5039C2.0495 25.5609 1.95453 25.6068 1.85059 25.5791C1.54979 25.4986 1.24199 25.6227 1.00391 25.8447C0.913235 25.9311 0.83782 26.0328 0.78125 26.1445C0.780422 26.1481 0.779947 26.1517 0.779297 26.1553C0.779678 26.1666 0.779659 26.1815 0.779297 26.1924C0.778177 26.226 0.776367 26.2607 0.776367 26.2734C0.792948 26.7589 0.978015 27.2542 1.13965 27.7334C1.29186 28.1848 1.44635 28.6367 1.60742 29.084C1.79258 29.5994 2.07684 30.1228 2.49219 30.4668H2.49121C2.63187 30.5818 2.79218 30.6711 2.96387 30.7305H2.96484L3.15039 30.792C3.21718 30.8114 3.28767 30.8282 3.35742 30.8389C3.50024 30.8607 3.62079 30.8522 3.70215 30.8037C3.78958 30.7517 3.88879 30.7458 3.96973 30.7959C4.04715 30.844 4.08767 30.931 4.0918 31.0225V31.0234C4.09963 31.2205 3.97074 31.4169 3.81348 31.5098C3.61604 31.6273 3.3916 31.6486 3.17773 31.6279C3.07085 31.6176 2.96425 31.5971 2.8623 31.5703L2.57324 31.4785C2.32647 31.389 2.10108 31.2486 1.91211 31.0664V31.0654C1.39242 30.5779 1.09192 29.9231 0.881836 29.2725C0.79812 29.0132 0.70547 28.7571 0.613281 28.498C0.521296 28.2396 0.429628 27.9783 0.349609 27.7129C0.275928 27.469 0.183651 27.1822 0.135742 26.8936C0.0878359 26.6047 0.0823746 26.3017 0.188477 26.0244C0.321963 25.6755 0.600453 25.3173 0.943359 25.0713C1.24335 24.8561 1.6039 24.7193 1.96777 24.7627ZM0.760742 26.1807C0.75972 26.1822 0.758484 26.1843 0.756836 26.1865C0.755939 26.1877 0.754326 26.1897 0.75293 26.1914C0.751627 26.193 0.74944 26.1948 0.74707 26.1973C0.744795 26.1996 0.740592 26.2045 0.734375 26.209C0.73113 26.2113 0.72589 26.2147 0.719727 26.2178C0.713757 26.2207 0.704363 26.2245 0.692383 26.2266C0.687785 26.2274 0.682459 26.2245 0.676758 26.2246C0.676364 26.2343 0.677049 26.2438 0.676758 26.252C0.691998 26.2523 0.705977 26.2511 0.717773 26.2461C0.744951 26.2347 0.758421 26.2149 0.761719 26.21C0.766573 26.2028 0.769228 26.1964 0.770508 26.1934C0.772863 26.1877 0.774992 26.1831 0.775391 26.1816L0.761719 26.1787L0.760742 26.1807ZM0.676758 26.2051C0.688019 26.2062 0.698495 26.2059 0.707031 26.2041C0.721415 26.2011 0.732271 26.1951 0.738281 26.1914C0.744366 26.1877 0.749068 26.1842 0.751953 26.1816C0.753166 26.1806 0.753848 26.1787 0.754883 26.1777L0.676758 26.168C0.681363 26.1382 0.678202 26.1677 0.676758 26.2051Z" fill="#A88EC3" stroke="#A88EC3" stroke-width="0.2"/>
<path d="M25.7686 24.792C26.2323 24.6681 26.698 24.887 27.0342 25.1475C27.355 25.3968 27.6768 25.7888 27.7588 26.2168C27.8137 26.503 27.782 26.8034 27.7188 27.0908C27.6556 27.3779 27.5587 27.661 27.4795 27.9092C27.311 28.4373 27.1205 28.9611 26.9404 29.4814C26.721 30.1154 26.3771 30.7482 25.8389 31.1885C25.6384 31.3531 25.4135 31.451 25.1777 31.5244C24.8571 31.6241 24.4253 31.716 24.0771 31.5088C23.9971 31.4613 23.9267 31.3884 23.877 31.3057C23.8274 31.223 23.794 31.1234 23.7988 31.0225C23.8034 30.9308 23.845 30.8445 23.9219 30.7969C24.002 30.7474 24.1002 30.7518 24.1875 30.8037L24.2666 30.8359C24.3542 30.8593 24.4652 30.8563 24.5898 30.832C24.7516 30.8005 24.9155 30.7379 25.0371 30.6865L25.1582 30.6289C25.2759 30.5656 25.384 30.4857 25.4805 30.3926H25.4814C25.9127 29.9805 26.1775 29.4213 26.3623 28.8457C26.4332 28.6247 26.5113 28.4059 26.5889 28.1895C26.6666 27.9727 26.744 27.7579 26.8145 27.541C26.9002 27.2765 26.9798 27.0114 27.041 26.7432C27.0869 26.542 27.1289 26.3443 27.1123 26.1572C27.1121 26.156 27.1115 26.1546 27.1113 26.1533C27.111 26.1512 27.1106 26.1496 27.1104 26.1484C27.0905 26.1038 27.0674 26.0606 27.041 26.0195L26.9238 25.8789C26.8812 25.8352 26.8354 25.7943 26.7861 25.7578H26.7852C26.5612 25.5887 26.298 25.5093 26.041 25.5781L26.04 25.5771C25.9366 25.6038 25.8428 25.5579 25.7764 25.501C25.7082 25.4426 25.652 25.3609 25.6162 25.2764C25.5809 25.1928 25.5606 25.0943 25.5762 25.0049C25.593 24.9086 25.6538 24.8226 25.7686 24.792ZM27.207 26.1211C27.2067 26.1199 27.2064 26.1183 27.2061 26.1172C27.1993 26.1015 27.1911 26.0866 27.1836 26.0713C27.1791 26.0728 27.1743 26.074 27.1699 26.0762C27.1494 26.0864 27.1376 26.1009 27.1318 26.1094C27.1258 26.1182 27.1218 26.1263 27.1201 26.1309C27.118 26.1366 27.117 26.1419 27.1162 26.1455V26.1465C27.1163 26.1475 27.1161 26.1486 27.1162 26.1494L27.21 26.1406L27.207 26.1211Z" fill="#A88EC3" stroke="#A88EC3" stroke-width="0.2"/>
<path d="M15.5029 11.8555C15.5416 11.8562 15.5769 11.8688 15.6064 11.8906C15.6423 11.9171 15.6649 11.9531 15.6797 11.9834C15.7088 12.0433 15.7219 12.1143 15.7285 12.1494L15.7705 12.3047C15.8941 12.6569 16.1921 12.9431 16.5029 13.1846C16.878 13.4761 17.3003 13.6959 17.7334 13.9131C19.2686 14.6842 20.8184 15.463 22.2529 16.4277C22.9322 16.8841 23.6015 17.3927 24.1592 18.0059C24.6218 18.5153 25.0626 19.1825 25.0039 19.9375C25.0016 19.9674 24.9956 20.0231 24.9775 20.0762C24.9619 20.122 24.923 20.2064 24.8311 20.2275C24.7901 20.2369 24.7499 20.2321 24.7148 20.2139C24.6822 20.1968 24.6596 20.171 24.6445 20.1494C24.6214 20.116 24.606 20.0757 24.5967 20.0498C24.5963 20.0489 24.5958 20.0482 24.5957 20.0479C24.593 20.0415 24.588 20.0285 24.583 20.0156C24.573 19.9899 24.5595 19.9535 24.5557 19.9424L24.5195 19.8379C24.5136 19.8204 24.5093 19.8088 24.5049 19.7969C24.5045 19.796 24.5043 19.7949 24.5039 19.7939V19.792C24.4906 19.7603 24.4777 19.7306 24.4639 19.7012L24.4629 19.7002C24.3999 19.5646 24.3273 19.4335 24.2451 19.3086V19.3096C24.0325 18.9931 23.7674 18.7077 23.4834 18.4453C22.8673 17.8762 22.163 17.396 21.4482 16.9463C20.6904 16.4697 19.9063 16.0345 19.1133 15.6152C18.4164 15.2466 17.6747 14.906 16.9814 14.5088C16.1982 14.0601 15.4541 13.4196 15.3018 12.4688L15.291 12.4805L15.2764 12.2607C15.2735 12.2186 15.2756 12.1389 15.293 12.0645C15.3016 12.0273 15.3156 11.9849 15.3389 11.9482C15.3625 11.9111 15.402 11.8701 15.4629 11.8584L15.5029 11.8555ZM24.6533 19.9189C24.6198 19.9317 24.6028 19.9589 24.5967 19.9736C24.59 19.99 24.589 20.0046 24.5889 20.0088C24.5887 20.0144 24.5896 20.019 24.5898 20.0215C24.5904 20.0266 24.5915 20.0308 24.5918 20.0322V20.0342L24.6855 20.001C24.7004 20.0424 24.6655 19.9519 24.6533 19.9189ZM24.5742 19.707C24.5556 19.7114 24.5372 19.719 24.5215 19.7314C24.5132 19.7511 24.5106 19.7764 24.5098 19.79L24.5957 19.7559C24.5888 19.7395 24.5813 19.7234 24.5742 19.707Z" fill="#A88EC3" stroke="#A88EC3" stroke-width="0.2"/>
<path d="M6.90137 36.1309C7.00751 36.16 7.05612 36.2597 7.06836 36.3721C7.0981 36.6453 7.1174 36.9201 7.13477 37.1924C7.21506 38.4169 7.22202 39.6451 7.15527 40.8701L7.12207 41.3955C6.99238 43.1473 6.71769 44.9479 6.00684 46.5801H6.00586C5.97926 46.6409 5.93176 46.7265 5.86719 46.7959C5.8049 46.8628 5.70641 46.9356 5.58203 46.915C5.52352 46.9054 5.47518 46.8779 5.44043 46.8369C5.40702 46.7975 5.39061 46.7505 5.38281 46.707C5.36758 46.6222 5.38374 46.5296 5.41309 46.4619C5.79026 45.5965 6.02979 44.6785 6.19629 43.7461C6.47942 42.1588 6.55609 40.5353 6.52734 38.9209C6.51427 38.1822 6.4857 37.4414 6.40918 36.709L6.40332 36.6523C6.39347 36.5601 6.42785 36.4667 6.47266 36.3916C6.5185 36.3148 6.58293 36.2436 6.65234 36.1943C6.71695 36.1486 6.80937 36.1058 6.90137 36.1309Z" fill="#A88EC3" stroke="#A88EC3" stroke-width="0.2"/>
<path d="M20.8936 36.5117C20.9743 36.4703 21.0698 36.4636 21.1494 36.5049C21.2338 36.5488 21.2809 36.637 21.2764 36.7422C21.2647 37.0159 21.2614 37.2908 21.2588 37.5664C21.2458 38.6015 21.2755 39.6366 21.3486 40.6689L21.4365 41.6992V41.7002C21.5153 42.5174 21.6415 43.3294 21.8154 44.1318L21.9453 44.6729C22.0858 45.2115 22.2621 45.7404 22.5039 46.2354C22.5729 46.3767 22.5446 46.5263 22.4814 46.6465L22.4092 46.7559C22.3721 46.8007 22.2962 46.8639 22.2158 46.8984C22.1755 46.9157 22.1217 46.9316 22.0664 46.9229C22.0038 46.9129 21.9518 46.874 21.9219 46.8115V46.8105C21.5324 46.0125 21.2919 45.1564 21.1152 44.2969C20.7852 42.6904 20.656 41.0435 20.6084 39.4111C20.5858 38.6422 20.5779 37.8681 20.6074 37.0967H20.6055L20.6104 36.9922C20.6184 36.8176 20.7127 36.6044 20.8936 36.5117Z" fill="#A88EC3" stroke="#A88EC3" stroke-width="0.2"/>
<path d="M17.3328 26.5563C17.793 26.0322 18.5119 25.8498 19.1847 25.9625C19.8244 26.0699 20.4009 26.4194 21.0019 26.6476C21.1405 26.7004 21.2669 26.5769 21.3318 26.4646C21.377 26.386 21.4628 26.1393 21.3255 26.0876C20.6452 25.8292 20.0006 25.4414 19.2679 25.3504C18.4448 25.2482 17.6354 25.6052 17.095 26.2202C17.0124 26.3139 16.9253 26.5173 17.0134 26.6326C17.1064 26.7544 17.2627 26.6365 17.3331 26.5563H17.3328Z" fill="#A88EC3"/>
<path d="M19.0174 27.9625C19.6699 27.9625 20.1989 27.4377 20.1989 26.7903C20.1989 26.143 19.6699 25.6182 19.0174 25.6182C18.3649 25.6182 17.8359 26.143 17.8359 26.7903C17.8359 27.4377 18.3649 27.9625 19.0174 27.9625Z" fill="#A88EC3"/>
<path d="M16.6984 23.9776C17.5637 23.4414 18.5487 23.0278 19.5873 23.1532C20.1114 23.2161 20.5614 23.4342 20.9925 23.7277C21.4442 24.0349 21.8834 24.3618 22.3276 24.6801C22.5362 24.8294 22.8716 24.2779 22.6512 24.12C22.1831 23.785 21.7223 23.4355 21.2427 23.1178C20.7894 22.8178 20.2971 22.6105 19.7527 22.5555C18.6577 22.4445 17.6034 22.8788 16.6905 23.4447C16.5618 23.5246 16.4547 23.6844 16.4612 23.8407C16.4671 23.9717 16.5759 24.0542 16.699 23.9779L16.6984 23.9776Z" fill="#A88EC3"/>
<path d="M11.0334 26.2202C10.493 25.6055 9.6836 25.2482 8.86048 25.3503C8.12776 25.4414 7.48478 25.8288 6.80283 26.0876C6.56897 26.1763 6.87064 26.7449 7.12645 26.6476C7.72717 26.4184 8.30365 26.0699 8.94367 25.9625C9.61481 25.8498 10.3351 26.0326 10.7956 26.5563C10.8703 26.6411 11.0193 26.7495 11.1153 26.6326C11.206 26.5222 11.111 26.3083 11.0337 26.2202H11.0334Z" fill="#A88EC3"/>
<path d="M9.15021 27.9625C9.80271 27.9625 10.3317 27.4377 10.3317 26.7903C10.3317 26.143 9.80271 25.6182 9.15021 25.6182C8.49771 25.6182 7.96875 26.143 7.96875 26.7903C7.96875 27.4377 8.49771 27.9625 9.15021 27.9625Z" fill="#A88EC3"/>
<path d="M11.4545 23.4437C10.5416 22.8781 9.48694 22.4435 8.39228 22.5545C7.8479 22.6095 7.35527 22.8165 6.90228 23.1169C6.4221 23.4346 5.96124 23.7837 5.49383 24.1191C5.27437 24.2763 5.60749 24.8294 5.81744 24.6791C6.25374 24.3667 6.68511 24.0467 7.12763 23.7437C7.57014 23.4408 8.02412 23.2168 8.55769 23.1542C9.59601 23.0294 10.5813 23.4424 11.4466 23.9786C11.5675 24.0536 11.6779 23.9717 11.6844 23.8413C11.692 23.6861 11.5832 23.5243 11.4552 23.4454L11.4545 23.4437Z" fill="#A88EC3"/>
<path d="M11.1492 35.6118C11.7682 35.8862 12.4459 36.0376 13.1145 36.1263C14.1855 36.2671 15.29 36.1803 16.3172 35.8387C16.5453 35.7666 16.7675 35.677 16.9818 35.5705C17.3093 35.4005 17.0201 34.904 16.6916 35.074C16.6526 35.094 16.6127 35.112 16.573 35.1297C16.5635 35.1339 16.4983 35.1624 16.537 35.1457C16.5756 35.129 16.501 35.1605 16.4869 35.166C16.4214 35.1922 16.3552 35.2172 16.2884 35.241C15.8934 35.3809 15.4861 35.4834 15.0719 35.5469C14.0548 35.7051 13.0015 35.601 12.0169 35.3131C11.8613 35.2676 11.707 35.2171 11.555 35.1605C11.5124 35.1444 11.4702 35.1277 11.4279 35.111C11.3526 35.0815 11.4875 35.1372 11.4378 35.1153C11.2959 35.0524 11.1289 35.074 11.0447 35.2184C10.973 35.3409 11.0051 35.5486 11.1479 35.6115L11.1492 35.6118Z" fill="#A88EC3"/>
<path d="M14.8774 32.1977C14.6603 32.4085 14.3697 32.5263 14.0671 32.5263C13.7645 32.5263 13.4738 32.4085 13.2567 32.1977C12.9407 31.8941 12.4588 32.3749 12.7752 32.6792C13.122 33.0138 13.5851 33.2007 14.0669 33.2007C14.5488 33.2007 15.0119 33.0138 15.3586 32.6792C15.675 32.3749 15.1948 31.8931 14.8771 32.1977H14.8774Z" fill="#A88EC3"/>
<path d="M40.7422 32.3857C41.75 32.3858 42.5673 33.2023 42.5674 34.21V44.8877C42.5674 45.8954 41.75 46.7129 40.7422 46.7129H34.8418C33.8341 46.7128 33.0176 45.8954 33.0176 44.8877V34.21C33.0176 33.2023 33.8341 32.3859 34.8418 32.3857H40.7422Z" fill="white" stroke="#A88EC3" stroke-width="0.2"/>
<path d="M40.6377 32.0908C40.9106 32.0908 41.1839 32.1014 41.4619 32.1934L41.4629 32.1943C41.78 32.3025 42.0647 32.4895 42.2891 32.7383C42.4852 32.9559 42.6296 33.2144 42.7129 33.4941L42.7451 33.6152L42.7461 33.6182C42.7862 33.8186 42.8039 34.0232 42.7988 34.2275V44.7168L42.7871 44.9395C42.679 46.0419 41.7992 46.9866 40.6416 47.0078C40.6377 47.008 40.6338 47.0097 40.6299 47.0098H34.752C34.4833 47.0094 34.2174 46.954 33.9707 46.8477C33.7241 46.7413 33.502 46.5856 33.3174 46.3906C32.959 46.0139 32.7854 45.5074 32.7812 45V35.1738C32.7812 34.8484 32.7618 34.4972 32.79 34.1592V34.1582C32.8221 33.795 32.94 33.4443 33.1328 33.1348C33.3256 32.8254 33.5886 32.5658 33.9004 32.377L33.9014 32.376C34.2592 32.1629 34.6518 32.0908 35.0518 32.0908H40.6377ZM34.7256 32.8818C34.4459 32.9022 34.1855 32.9612 33.9619 33.1113C33.629 33.3353 33.451 33.6907 33.4473 34.0918V44.7402C33.4536 45.5947 34.1596 46.2159 35.0029 46.2178H40.8428C40.8453 46.2177 40.848 46.2168 40.8506 46.2168C41.3536 46.2103 41.8485 45.9405 42.041 45.4814C42.1065 45.3244 42.1304 45.1451 42.1367 44.9541C42.1432 44.7582 42.1309 44.5717 42.1309 44.377V35.0391C42.1309 34.9507 42.1343 34.8592 42.1367 34.7686C42.1391 34.6774 42.1411 34.5864 42.1406 34.4961C42.1399 34.3599 42.1325 34.2281 42.1113 34.1045L42.0859 33.9844C42.0118 33.7147 41.8633 33.4714 41.6582 33.2812C41.4529 33.091 41.1986 32.9617 40.9238 32.9082V32.9072C40.738 32.873 40.5491 32.8808 40.3438 32.8809H35.583C35.2942 32.8808 35.0096 32.8612 34.7256 32.8818Z" fill="#A88EC3" stroke="#A88EC3" stroke-width="0.2"/>
<path d="M39.8584 30.8799C40.0429 30.8799 40.2201 30.9526 40.3506 31.083C40.4811 31.2135 40.5546 31.3907 40.5547 31.5752V32.5859H35.0566V31.5752C35.0567 31.3907 35.1293 31.2135 35.2598 31.083C35.3902 30.9526 35.5675 30.88 35.752 30.8799H39.8584Z" fill="white" stroke="#A88EC3" stroke-width="0.2"/>
<path d="M35.8525 30.585C36.8889 30.5561 37.9354 30.585 38.9678 30.585H39.709C39.8367 30.585 40.0071 30.5713 40.1602 30.6133C40.392 30.6779 40.5498 30.8164 40.6475 30.9932C40.7435 31.167 40.7793 31.3738 40.7793 31.5771V32.3574C40.7793 32.4515 40.7497 32.5504 40.7021 32.6348C40.6547 32.7187 40.5849 32.797 40.4961 32.8428C40.4707 32.8558 40.4431 32.8632 40.416 32.8691C40.3903 32.8771 40.3632 32.8828 40.335 32.8828H35.0371C34.9496 32.8828 34.8903 32.8301 34.8584 32.7773C34.8277 32.7265 34.8154 32.6661 34.8154 32.6162C34.8154 32.3282 34.8131 32.0373 34.8154 31.748C34.8201 31.1763 35.222 30.6029 35.8525 30.585ZM39.7188 31.377C38.7129 31.3534 37.7062 31.377 36.6953 31.377C36.3361 31.3769 35.9884 31.3565 35.6406 31.376C35.6082 31.3777 35.5636 31.387 35.5264 31.4014C35.5082 31.4084 35.4949 31.4156 35.4863 31.4219C35.4771 31.4286 35.4789 31.4301 35.4814 31.4238C35.4762 31.4365 35.4726 31.4614 35.4736 31.5029C35.4741 31.5223 35.4753 31.5423 35.4766 31.5635C35.4778 31.5837 35.4795 31.607 35.4795 31.6279V32.0908H40.1123V31.793C40.1123 31.6635 40.0733 31.562 40.0098 31.4932C39.947 31.4252 39.8516 31.3801 39.7188 31.377Z" fill="#A88EC3" stroke="#A88EC3" stroke-width="0.2"/>
<path d="M40.2207 34.3809C40.6504 34.3811 40.999 34.7295 40.999 35.1592V44.5459C40.999 44.9756 40.6504 45.324 40.2207 45.3242H35.2725C34.8426 45.3242 34.4941 44.9757 34.4941 44.5459V35.1592C34.4941 34.7293 34.8426 34.3809 35.2725 34.3809H40.2207Z" fill="white" stroke="#A88EC3" stroke-width="0.2"/>
<path d="M38.9951 42.9795C39.0479 42.9796 39.0988 42.994 39.1396 43.0283C39.1797 43.0622 39.2007 43.107 39.21 43.1504C39.2277 43.2336 39.2074 43.33 39.1748 43.4121C39.1412 43.4968 39.0881 43.5824 39.0234 43.6484C38.9607 43.7125 38.874 43.7705 38.7725 43.7705H36.5908C36.5379 43.7705 36.4872 43.7561 36.4463 43.7217C36.406 43.6878 36.3843 43.6431 36.375 43.5996C36.3573 43.5164 36.3776 43.42 36.4102 43.3379C36.4438 43.2532 36.4968 43.1677 36.5615 43.1016C36.6242 43.0375 36.711 42.9797 36.8125 42.9795H38.9951Z" fill="#A88EC3" stroke="#A88EC3" stroke-width="0.2"/>
<path d="M39.4102 41.5234C39.463 41.5235 39.5138 41.5379 39.5547 41.5723C39.5948 41.6061 39.6157 41.6509 39.625 41.6943C39.6427 41.7776 39.6224 41.8739 39.5898 41.9561C39.5563 42.0406 39.504 42.1263 39.4395 42.1924C39.3767 42.2566 39.2892 42.3145 39.1875 42.3145H36.1221C36.0692 42.3145 36.0184 42.3 35.9775 42.2656C35.9372 42.2317 35.9156 42.1871 35.9062 42.1436C35.8885 42.0603 35.9088 41.964 35.9414 41.8818C35.975 41.7972 36.0281 41.7116 36.0928 41.6455C36.1555 41.5814 36.2423 41.5236 36.3438 41.5234H39.4102Z" fill="#A88EC3" stroke="#A88EC3" stroke-width="0.2"/>
<path d="M41.4512 19.1729C41.7232 19.1729 41.9843 19.2804 42.1768 19.4727L42.3613 19.6582L42.4297 19.7334C42.5792 19.9161 42.6621 20.1457 42.6621 20.3838C42.6621 20.6559 42.5536 20.9169 42.3613 21.1094L40.4414 23.0303L40.3711 23.1016L38.7334 21.4639L38.8047 21.3936L40.7246 19.4727C40.9172 19.2803 41.179 19.1729 41.4512 19.1729Z" fill="white" stroke="#A88EC3" stroke-width="0.2"/>
<path d="M36.082 24.2598L37.5781 25.7549L37.6484 25.8252L37.5781 25.8965L30.5029 32.9707C30.4678 33.0059 30.4258 33.0337 30.3799 33.0527C30.3339 33.0718 30.2842 33.082 30.2344 33.082C30.1848 33.082 30.1357 33.0717 30.0898 33.0527C30.0439 33.0337 30.002 33.0058 29.9668 32.9707C29.9502 32.9541 29.9299 32.9406 29.9082 32.9316C29.8866 32.9227 29.8633 32.918 29.8398 32.918C29.8164 32.918 29.7932 32.9227 29.7715 32.9316C29.7498 32.9406 29.7295 32.9541 29.7129 32.9707L28.9443 33.7393C28.9092 33.7744 28.8672 33.8023 28.8213 33.8213C28.7754 33.8403 28.7264 33.8506 28.6768 33.8506C28.627 33.8506 28.5772 33.8403 28.5312 33.8213C28.4853 33.8022 28.4433 33.7744 28.4082 33.7393L28.0967 33.4277C28.0616 33.3926 28.0337 33.3506 28.0146 33.3047C27.9957 33.2589 27.9864 33.2097 27.9863 33.1602C27.9863 33.1104 27.9956 33.0606 28.0146 33.0146C28.0337 32.9687 28.0615 32.9268 28.0967 32.8916L28.8662 32.123C28.8827 32.1065 28.8953 32.0861 28.9043 32.0645C28.9132 32.0428 28.918 32.0195 28.918 31.9961C28.9179 31.9727 28.9133 31.9494 28.9043 31.9277C28.8954 31.9063 28.8826 31.8866 28.8662 31.8701C28.831 31.8349 28.8023 31.793 28.7832 31.7471C28.7641 31.7011 28.7549 31.6513 28.7549 31.6016C28.7549 31.552 28.7643 31.5028 28.7832 31.457C28.8023 31.411 28.831 31.3692 28.8662 31.334L36.0117 24.1885L36.082 24.2598Z" fill="white" stroke="#A88EC3" stroke-width="0.2"/>
<path d="M36.1416 23.9395C36.1498 23.9405 36.1579 23.9415 36.166 23.9434C36.1835 23.9472 36.1997 23.9533 36.2158 23.9609C36.2217 23.9637 36.2276 23.9664 36.2334 23.9697C36.2469 23.9776 36.2586 23.9873 36.2705 23.998C36.2773 24.0037 36.2864 24.0071 36.293 24.0137L37.7891 25.5098L37.8232 25.5527C37.8894 25.658 37.8555 25.7864 37.8193 25.8701C37.7743 25.9742 37.701 26.0705 37.6514 26.1201L36.1748 27.5967L33.7783 29.9922L30.8281 32.9424C30.8027 32.9677 30.7772 32.9954 30.75 33.0244C30.7231 33.0531 30.6943 33.0836 30.665 33.1133C30.6071 33.1719 30.5407 33.2311 30.4658 33.2773C30.3518 33.3517 30.2165 33.3856 30.0811 33.3721H30.0762C30.0053 33.3619 29.9498 33.3342 29.9043 33.3057C29.8821 33.2918 29.8614 33.2774 29.8438 33.2646C29.8254 33.2513 29.8102 33.2404 29.7949 33.2305L29.7939 33.2295C29.7805 33.2207 29.7716 33.2169 29.7666 33.2148L29.7656 33.2168C29.7562 33.2245 29.7454 33.236 29.7275 33.2539L29.1748 33.8066C29.0816 33.9 28.9613 34.0176 28.8232 34.0869C28.6784 34.1596 28.5073 34.182 28.3291 34.0742V34.0732C28.2707 34.0375 28.2184 33.9896 28.1738 33.9443C28.1514 33.9215 28.1296 33.8976 28.1094 33.876C28.0887 33.8539 28.0693 33.8339 28.0508 33.8154C27.9684 33.7327 27.8391 33.6267 27.7891 33.4658C27.7248 33.2578 27.7721 33.073 27.8613 32.916C27.9484 32.7629 28.0791 32.6299 28.1904 32.5186L28.6416 32.0664C28.4669 31.8194 28.5315 31.5051 28.665 31.2871L28.667 31.2832C28.7266 31.1956 28.7965 31.1151 28.875 31.0439L30.251 29.668L32.6279 27.292L34.8877 25.0322L35.8086 24.1104C35.8409 24.07 35.8801 24.0332 35.9229 24.0029C35.9308 23.9969 35.9388 23.9907 35.9473 23.9854C35.9514 23.9828 35.9558 23.9809 35.96 23.9785C35.9756 23.9695 35.992 23.9624 36.0088 23.9561C36.0099 23.9556 36.0106 23.9545 36.0117 23.9541C36.0129 23.9537 36.0144 23.9535 36.0156 23.9531C36.0354 23.9463 36.0555 23.9421 36.0762 23.9395C36.0814 23.9388 36.0866 23.9389 36.0918 23.9385C36.1016 23.9378 36.1112 23.9352 36.1211 23.9355C36.128 23.9358 36.1348 23.9387 36.1416 23.9395ZM30.1748 30.6035L29.4238 31.3535L29.252 31.5244C29.2585 31.5327 29.2669 31.5414 29.2734 31.5518C29.4245 31.7914 29.3632 32.0904 29.2334 32.3027L29.1738 32.3877C29.0355 32.5608 28.8501 32.7183 28.708 32.8604L28.4883 33.0801L28.6162 33.208C28.6348 33.2266 28.6564 33.2514 28.6738 33.2705C28.6932 33.2918 28.7116 33.3109 28.7295 33.3262C28.7476 33.3417 28.7612 33.35 28.7705 33.3535H28.7734C28.7798 33.3475 28.7885 33.3402 28.7979 33.3301C28.8085 33.3186 28.8191 33.3063 28.8301 33.2939C28.8402 33.2826 28.8514 33.2697 28.8613 33.2598L29.1348 32.9873C29.2073 32.9148 29.2711 32.8429 29.3496 32.7617C29.4238 32.685 29.5039 32.6073 29.5938 32.543L29.6836 32.4873C29.7772 32.4398 29.8822 32.4172 29.9883 32.4229H29.9912C30.1409 32.4351 30.2315 32.522 30.3037 32.5703C30.3037 32.5703 30.3066 32.5714 30.3115 32.5732C30.3167 32.5752 30.3224 32.5772 30.3281 32.5781C30.3318 32.5787 30.3348 32.5781 30.3369 32.5781C30.3429 32.5737 30.3523 32.5663 30.3652 32.5518C30.3769 32.5387 30.4004 32.5098 30.4189 32.4912L31.8818 31.0293L37.0088 25.9023L35.9424 24.8359L30.1748 30.6035Z" fill="#A88EC3" stroke="#A88EC3" stroke-width="0.2"/>
<path d="M37.7491 20.203L41.6294 24.0829L39.4113 26.3008L35.531 22.4209L37.7491 20.203Z" fill="white" stroke="#A88EC3" stroke-width="0.2"/>
<path d="M37.624 20.0459C37.7229 19.9471 37.9003 19.8986 38.0293 20.0273L41.7686 23.7666V23.7676C41.8785 23.8787 41.8402 24.0324 41.7988 24.1279C41.7538 24.2319 41.6805 24.3283 41.6309 24.3779L39.6338 26.375C39.6 26.4175 39.559 26.4561 39.5137 26.4873C39.508 26.4915 39.5021 26.4952 39.4961 26.499C39.4883 26.5038 39.4807 26.5085 39.4727 26.5127C39.4614 26.5187 39.4503 26.5246 39.4385 26.5293C39.4355 26.5305 39.4327 26.5331 39.4297 26.5342C39.4225 26.5368 39.4146 26.537 39.4072 26.5391C39.3956 26.5423 39.384 26.545 39.3721 26.5469C39.3607 26.5487 39.3494 26.5495 39.3379 26.5498C39.3315 26.55 39.3247 26.552 39.3184 26.5518C39.3137 26.5516 39.3093 26.5493 39.3047 26.5488C39.2918 26.5475 39.2793 26.5454 39.2666 26.542C39.2551 26.539 39.2443 26.535 39.2334 26.5303C39.2227 26.5256 39.2126 26.52 39.2021 26.5137C39.1927 26.5077 39.1835 26.5016 39.1748 26.4941C39.1666 26.4876 39.1563 26.4824 39.1484 26.4746L38.6924 26.0186L35.4102 22.7344L35.4092 22.7334C35.2996 22.6223 35.3376 22.4685 35.3789 22.373C35.424 22.269 35.4972 22.1727 35.5469 22.123L37.624 20.0459ZM37.6299 20.9004L36.1885 22.3408L39.4971 25.6494L39.5469 25.6006H39.5479L40.9893 24.1592L40.7705 23.9404L37.6797 20.8506L37.6299 20.9004Z" fill="#A88EC3" stroke="#A88EC3" stroke-width="0.2"/>
<path d="M34.8183 22.206C35.0583 21.9659 35.4476 21.9653 35.6877 22.2053L39.6336 26.1508C39.8737 26.3909 39.8737 26.7807 39.6336 27.0208L39.5307 27.1237C39.2906 27.3637 38.9013 27.3631 38.6613 27.123L34.7154 23.1775C34.4754 22.9374 34.4754 22.5489 34.7154 22.3088L34.8183 22.206Z" fill="white" stroke="#A88EC3" stroke-width="0.2"/>
<path d="M39.4434 26.7363L39.4805 26.7441C39.4772 26.7487 39.4746 26.7558 39.4688 26.7617L39.4258 26.8047C39.4234 26.8026 39.4201 26.8011 39.418 26.7988C39.3928 26.7722 39.3909 26.7414 39.3906 26.7363C39.3904 26.7321 39.3904 26.7278 39.3906 26.7246L39.4424 26.7363M39.4688 26.7617L39.4424 26.7363M39.4688 26.7617L39.4434 26.7363M39.4688 26.7617L39.4424 26.7363M39.4688 26.7617L39.4434 26.7363M39.4424 26.7363H39.4434M39.4424 26.7363L39.4414 26.7344L39.4434 26.7363M39.4424 26.7363H39.4434M35.248 21.7471C35.4738 21.7122 35.7071 21.7729 35.9053 21.9648C36.1326 22.1852 36.3547 22.4143 36.5762 22.6357L39.1748 25.2334C39.3921 25.4506 39.6244 25.6692 39.8389 25.8975C40.0184 26.0887 40.0721 26.3289 40.043 26.5625C40.014 26.7943 39.9039 27.0231 39.751 27.2051C39.5983 27.3867 39.396 27.5296 39.1768 27.5811C38.9531 27.6335 38.7165 27.5886 38.5127 27.4023C38.5066 27.3968 38.5025 27.3896 38.4971 27.3838C38.4887 27.3771 38.4787 27.3722 38.4707 27.3643L35.0566 23.9502C34.9626 23.8561 34.8637 23.7673 34.7598 23.668C34.6584 23.5711 34.5563 23.4685 34.4697 23.3555V23.3545C34.1551 22.9407 34.3356 22.4005 34.6543 22.0732C34.8167 21.9065 35.026 21.7815 35.248 21.7471ZM35.1689 22.5176C35.1429 22.5166 35.1171 22.5218 35.0928 22.5312C35.0684 22.5408 35.0459 22.5548 35.0273 22.5732L35.0244 22.5771L35.0234 22.5762C35.0087 22.5896 34.9963 22.6039 34.9795 22.6211C34.98 22.6708 35.0123 22.7288 35.0723 22.793C35.1242 22.8487 35.1759 22.8966 35.2334 22.9541L37.4102 25.1299L38.9814 26.7021C39.0392 26.7525 39.1048 26.788 39.167 26.7988C39.2289 26.8095 39.2875 26.7976 39.3398 26.75C39.3561 26.7352 39.369 26.7194 39.3877 26.7002C39.3879 26.6811 39.3863 26.6623 39.3789 26.6445L39.3389 26.5771C39.3235 26.5561 39.3063 26.5364 39.2871 26.5186L39.2832 26.5146C39.2124 26.4419 39.1411 26.3715 39.0674 26.2979L38.0967 25.3281L35.7412 22.9727C35.6966 22.9281 35.6484 22.8737 35.6016 22.8223C35.5536 22.7696 35.5052 22.7174 35.4551 22.6709C35.351 22.5745 35.2575 22.5199 35.1719 22.5186L35.1689 22.5176ZM34.8994 22.5596C34.8922 22.567 34.8881 22.5741 34.8848 22.5791L34.9766 22.5986C34.977 22.5934 34.9788 22.58 34.9746 22.5645C34.9721 22.5552 34.9654 22.5359 34.9473 22.5186C34.946 22.5174 34.9437 22.5167 34.9424 22.5156C34.9278 22.5299 34.9137 22.5451 34.8994 22.5596Z" fill="#A88EC3" stroke="#A88EC3" stroke-width="0.2"/>
<path d="M28.1943 35.1064L28.1963 35.1084C28.1972 35.1096 28.1986 35.112 28.2002 35.1143C28.2036 35.119 28.2086 35.126 28.2148 35.1348C28.2278 35.153 28.2465 35.1797 28.2705 35.2139C28.319 35.2829 28.3887 35.3833 28.4717 35.5059C28.6375 35.7508 28.8588 36.0875 29.0801 36.4551C29.3012 36.8224 29.524 37.2223 29.6914 37.5928C29.8571 37.9594 29.9756 38.3118 29.9756 38.5781V38.6777H29.9688C29.9386 39.1309 29.7459 39.5593 29.4209 39.8799C29.0725 40.2234 28.6026 40.416 28.1133 40.416C27.624 40.416 27.1541 40.2234 26.8057 39.8799C26.4573 39.5362 26.2586 39.0684 26.252 38.5791V38.5781C26.252 38.3117 26.3705 37.9594 26.5361 37.5928C26.7035 37.2223 26.9254 36.8223 27.1465 36.4551C27.3678 36.0875 27.5891 35.7507 27.7549 35.5059C27.8378 35.3834 27.9076 35.2829 27.9561 35.2139C27.9802 35.1795 27.9997 35.153 28.0127 35.1348C28.0191 35.1258 28.024 35.119 28.0273 35.1143C28.029 35.1119 28.0304 35.1096 28.0312 35.1084L28.0322 35.1074V35.1064L28.1133 34.9941L28.1943 35.1064Z" fill="white" stroke="#A88EC3" stroke-width="0.2"/>
<path d="M37.7881 35.9893C38.7532 35.9893 39.5361 36.7713 39.5361 37.7363C39.5361 38.7014 38.7532 39.4834 37.7881 39.4834C36.823 39.4833 36.041 38.7013 36.041 37.7363C36.041 36.7713 36.823 35.9893 37.7881 35.9893Z" fill="white" stroke="#A88EC3" stroke-width="0.2"/>
</svg>
