<svg width="20" height="22" viewBox="0 0 20 22" fill="none" xmlns="http://www.w3.org/2000/svg">
<path d="M4.6555 0.150391C4.30803 0.150391 4.00463 0.357037 3.88261 0.67681L0.443415 9.69068C-0.08225 11.0684 0.105297 12.5522 0.958063 13.7615C1.81075 14.971 3.15838 15.6646 4.6555 15.6646C6.15253 15.6646 7.50017 14.971 8.35285 13.7616C9.20562 12.5523 9.39316 11.0685 8.8675 9.69076L5.42839 0.676893C5.30636 0.357037 5.00296 0.150391 4.6555 0.150391ZM7.80398 13.3878C7.07791 14.4176 5.93027 15.0083 4.6555 15.0083C3.38065 15.0083 2.23308 14.4176 1.50685 13.3878C0.780615 12.3579 0.62103 11.0944 1.06857 9.92112L4.50776 0.907248C4.5424 0.816517 4.62261 0.806673 4.6555 0.806673C4.68838 0.806673 4.76851 0.816435 4.80323 0.907248L8.24234 9.92112C8.68997 11.0944 8.53021 12.3579 7.80398 13.3878Z" fill="#A88EC3" stroke="#A88EC3" stroke-width="0.3"/>
<path d="M4.49418 13.0382C3.57372 13.0382 2.82487 12.3022 2.82487 11.3975C2.82487 11.2629 2.84164 11.1293 2.87478 11.0004C2.91993 10.8246 2.8116 10.6463 2.6329 10.602C2.45378 10.5573 2.27258 10.664 2.2275 10.8397C2.18085 11.0212 2.15723 11.2088 2.15723 11.3975C2.15723 12.6641 3.20564 13.6945 4.49426 13.6945C4.67863 13.6945 4.82812 13.5476 4.82812 13.3664C4.82812 13.1852 4.67855 13.0382 4.49418 13.0382Z" fill="#A88EC3" stroke="#A88EC3" stroke-width="0.3"/>
<path d="M18.7132 19.6678C19.566 18.4584 19.7535 16.9746 19.2278 15.5969L15.7887 6.58306C15.6666 6.26329 15.3632 6.05664 15.0158 6.05664C14.6683 6.05664 14.3649 6.26329 14.2429 6.58306L10.8038 15.5969C10.2781 16.9746 10.4656 18.4585 11.3184 19.6678C12.1711 20.8772 13.5187 21.5708 15.0158 21.5708C16.5128 21.5708 17.8605 20.8772 18.7132 19.6678ZM11.8672 19.294C11.1411 18.2641 10.9813 17.0006 11.4289 15.8274L14.868 6.8135C14.9027 6.72277 14.9829 6.71292 15.0158 6.71292C15.0487 6.71292 15.1288 6.72268 15.1635 6.8135L18.6027 15.8274C19.0502 17.0006 18.8906 18.2641 18.1644 19.294C17.4383 20.3239 16.2906 20.9145 15.0158 20.9145C13.741 20.9145 12.5933 20.3238 11.8672 19.294Z" fill="#A88EC3" stroke="#A88EC3" stroke-width="0.3"/>
<path d="M15.1874 19.2764C15.1874 19.0952 15.0379 18.9482 14.8536 18.9482C13.9331 18.9482 13.1842 18.2122 13.1842 17.3075C13.1842 17.1728 13.201 17.0393 13.2342 16.9106C13.2795 16.7348 13.1712 16.5564 12.9925 16.512C12.8141 16.4678 12.6323 16.5739 12.587 16.7495C12.5402 16.9309 12.5166 17.1186 12.5166 17.3075C12.5166 18.5741 13.565 19.6045 14.8536 19.6045C15.0379 19.6045 15.1874 19.4576 15.1874 19.2764Z" fill="#A88EC3" stroke="#A88EC3" stroke-width="0.3"/>
</svg>
