<svg width="43" height="57" viewBox="0 0 43 57" fill="none" xmlns="http://www.w3.org/2000/svg">
<path d="M16.0266 37.8401C15.6705 37.8401 15.3906 37.5603 15.3906 37.2041V31.7473C15.3906 31.3912 15.6705 31.1113 16.0266 31.1113C16.3828 31.1113 16.6626 31.3912 16.6626 31.7473V37.2041C16.6626 37.5603 16.3828 37.8401 16.0266 37.8401Z" fill="#A88EC3" stroke="#A88EC3" stroke-width="0.3"/>
<path d="M26.7532 37.8389C26.397 37.8389 26.1172 37.5591 26.1172 37.2029V31.3645C26.1172 31.0084 26.397 30.7285 26.7532 30.7285C27.1093 30.7285 27.3892 31.0084 27.3892 31.3645V37.2029C27.3892 37.5591 27.1093 37.8389 26.7532 37.8389Z" fill="#A88EC3" stroke="#A88EC3" stroke-width="0.3"/>
<path d="M21.1123 34.6217C19.0772 34.6217 17.0547 33.5532 14.6762 31.4163C11.8905 28.9105 10.2243 25.5143 10.1098 22.1181V22.1054C10.0971 21.7492 10.3769 21.4567 10.7331 21.4567C11.0765 21.4439 11.3818 21.7238 11.3818 22.0799V22.0927C11.4962 25.1454 12.9972 28.2109 15.5284 30.4877C17.6526 32.4084 19.3061 33.2861 20.8961 33.3497C22.5115 33.426 24.2032 32.6501 26.3656 30.8566C29.2275 28.4907 30.9447 25.0945 30.9574 21.7747C30.9574 21.4185 31.2372 21.1387 31.5934 21.1387C31.9495 21.1387 32.2293 21.4185 32.2293 21.7747C32.2166 25.4634 30.3214 29.2285 27.1796 31.836C24.941 33.6804 23.0203 34.6217 21.1123 34.6217Z" fill="#A88EC3"/>
<path d="M10.7571 22.7307C10.5281 22.7307 10.2992 22.6035 10.1974 22.3872C10.1592 22.3236 9.37062 20.7973 9.19255 18.4568C9.02719 16.3072 9.34518 13.0509 11.8764 9.68013C13.8988 6.99624 16.9007 5.26635 19.928 5.05011C22.5864 4.87203 25.0667 5.83874 27.0764 7.87391C27.1019 7.89935 27.1146 7.92479 27.14 7.95023C28.4756 9.7946 29.455 10.0617 30.3327 10.2907C31.2485 10.5324 32.2025 10.7868 32.8512 12.6693C33.5762 14.7935 34.4666 18.8638 32.1389 22.1201C31.9735 22.3491 31.681 22.4508 31.4139 22.3491C31.1467 22.26 30.9687 21.9929 30.9941 21.7131C31.3121 16.7778 27.4708 15.5058 25.1558 15.1878C19.7499 14.4501 12.4106 17.4138 11.3931 22.2219C11.3422 22.489 11.1259 22.6798 10.8588 22.718C10.8079 22.7307 10.7825 22.7307 10.7571 22.7307ZM20.5385 6.30937C20.3604 6.30937 20.1824 6.30937 20.0043 6.32209C17.3459 6.50017 14.6875 8.05199 12.8813 10.4433C9.93029 14.3737 10.2356 18.1515 10.7571 20.2121C11.711 18.355 13.5045 16.7396 15.9721 15.544C18.8722 14.1321 22.3702 13.5342 25.3084 13.9413C27.4326 14.2338 29.1752 15.0225 30.3836 16.2436C31.2358 17.0958 31.7954 18.1388 32.0753 19.3472C32.724 17.0195 32.1516 14.5645 31.6428 13.1018C31.2103 11.8552 30.8033 11.7535 30.002 11.5372C29.048 11.2828 27.7251 10.9267 26.1352 8.75158C24.5198 7.14888 22.5991 6.30937 20.5385 6.30937Z" fill="#A88EC3" stroke="#A88EC3" stroke-width="0.3"/>
<path d="M17.7795 21.8501H15.261C14.9048 21.8501 14.625 21.5703 14.625 21.2141C14.625 20.858 14.9048 20.5781 15.261 20.5781H17.7795C18.1356 20.5781 18.4155 20.858 18.4155 21.2141C18.4155 21.5703 18.1229 21.8501 17.7795 21.8501Z" fill="#A88EC3"/>
<path d="M27.1467 21.8501H24.6282C24.272 21.8501 23.9922 21.5703 23.9922 21.2141C23.9922 20.858 24.272 20.5781 24.6282 20.5781H27.1467C27.5028 20.5781 27.7827 20.858 27.7827 21.2141C27.7827 21.5703 27.5028 21.8501 27.1467 21.8501Z" fill="#A88EC3"/>
<path d="M21.1817 29.0378C18.9303 29.0378 17.0859 27.5877 17.0859 25.7942C17.0859 25.438 17.3658 25.1582 17.7219 25.1582C18.0781 25.1582 18.3579 25.438 18.3579 25.7942C18.3579 26.8627 19.6426 27.7658 21.1817 27.7658C22.7208 27.7658 24.0055 26.8627 24.0055 25.7942C24.0055 25.438 24.2853 25.1582 24.6414 25.1582C24.9976 25.1582 25.2774 25.438 25.2774 25.7942C25.2774 27.5877 23.4458 29.0378 21.1817 29.0378Z" fill="#A88EC3"/>
<path d="M10.1985 56.3697C9.84233 56.3697 9.5625 56.0899 9.5625 55.7337V51.6379C9.5625 51.2818 9.84233 51.002 10.1985 51.002C10.5546 51.002 10.8345 51.2818 10.8345 51.6379V55.7337C10.8345 56.0899 10.5546 56.3697 10.1985 56.3697Z" fill="#A88EC3" stroke="#A88EC3" stroke-width="0.3"/>
<path d="M32.5735 56.3697C32.2173 56.3697 31.9375 56.0899 31.9375 55.7337V51.6379C31.9375 51.2818 32.2173 51.002 32.5735 51.002C32.9296 51.002 33.2095 51.2818 33.2095 51.6379V55.7337C33.2095 56.0899 32.9296 56.3697 32.5735 56.3697Z" fill="#A88EC3" stroke="#A88EC3" stroke-width="0.3"/>
<path d="M42.0233 56.3712H0.786027C0.607952 56.3712 0.429876 56.2949 0.315398 56.1677C0.200921 56.0405 0.137323 55.8624 0.150043 55.6843L1.0277 46.4116C1.2821 43.6895 1.94352 41.489 2.99925 39.8608C4.39842 37.673 6.44629 36.5664 9.09199 36.5664H16.0242C16.3804 36.5664 16.6602 36.8462 16.6602 37.2024C16.6602 37.5586 16.3804 37.8384 16.0242 37.8384H9.07927C4.14403 37.8384 2.66854 42.5702 2.28695 46.5388L1.47289 55.1119H41.311L40.4969 46.5388C39.9372 40.6113 37.8003 37.8511 33.7936 37.8511H26.7596C26.4035 37.8511 26.1237 37.5713 26.1237 37.2151C26.1237 36.859 26.4035 36.5791 26.7596 36.5791H33.7936C36.5157 36.5791 38.5762 37.6858 39.9245 39.8608C40.8912 41.4381 41.5018 43.575 41.7689 46.4243L42.6465 55.697C42.6593 55.8751 42.6084 56.0532 42.4812 56.1804C42.3667 56.2949 42.2014 56.3712 42.0233 56.3712Z" fill="#A88EC3" stroke="#A88EC3" stroke-width="0.3"/>
<path d="M21.4101 42.4676C21.2575 42.4676 21.1176 42.4167 20.9904 42.3149L15.6099 37.6849C15.3428 37.456 15.3174 37.0489 15.5463 36.7818C15.7753 36.5147 16.1823 36.4893 16.4494 36.7182L21.4101 40.9921L26.3708 36.7182C26.6379 36.4893 27.0322 36.5147 27.2739 36.7818C27.5029 37.0489 27.4774 37.4433 27.2103 37.6849L21.8299 42.3149C21.7027 42.4167 21.55 42.4676 21.4101 42.4676Z" fill="#A88EC3" stroke="#A88EC3" stroke-width="0.3"/>
<path d="M17.7367 47.909H6.47973C6.12358 47.909 5.84375 47.6292 5.84375 47.273V44.5891C5.84375 44.233 6.12358 43.9531 6.47973 43.9531H17.7494C18.1055 43.9531 18.3854 44.233 18.3854 44.5891V47.273C18.3727 47.6292 18.0928 47.909 17.7367 47.909ZM7.11572 46.637H17.1134V45.2251H7.11572V46.637Z" fill="#A88EC3"/>
<path d="M21.3938 3.39395C21.0376 3.39395 20.7578 3.11411 20.7578 2.75796V0.786382C20.7578 0.430227 21.0376 0.150391 21.3938 0.150391C21.7499 0.150391 22.0298 0.430227 22.0298 0.786382V2.74524C22.0298 3.10139 21.7372 3.39395 21.3938 3.39395Z" fill="#A88EC3" stroke="#A88EC3" stroke-width="0.3"/>
<path d="M27.3455 4.76995C27.2438 4.76995 27.1293 4.74451 27.0275 4.68091C26.7222 4.50283 26.6205 4.12124 26.7986 3.81596L27.778 2.1115C27.9561 1.80623 28.3376 1.70447 28.6429 1.88255C28.9482 2.06062 29.0499 2.44222 28.8719 2.7475L27.8925 4.45195C27.778 4.65547 27.5617 4.76995 27.3455 4.76995Z" fill="#A88EC3" stroke="#A88EC3" stroke-width="0.3"/>
<path d="M31.7986 8.92773C31.5824 8.92773 31.3662 8.81325 31.2517 8.60973C31.0736 8.30446 31.1754 7.92286 31.4806 7.74479L33.1851 6.76536C33.4904 6.58728 33.8847 6.68904 34.05 6.99432C34.2281 7.29959 34.1263 7.68119 33.8211 7.85927L32.1166 8.83869C32.0149 8.90229 31.9004 8.92773 31.7986 8.92773Z" fill="#A88EC3" stroke="#A88EC3" stroke-width="0.3"/>
<path d="M14.908 4.50237C14.6917 4.50237 14.4755 4.38789 14.361 4.18437L13.3689 2.47992C13.1908 2.17464 13.2926 1.78033 13.5978 1.61497C13.9031 1.43689 14.2847 1.53865 14.4628 1.84393L15.4422 3.54838C15.6203 3.85366 15.5185 4.24797 15.2132 4.41333C15.1242 4.47693 15.0097 4.50237 14.908 4.50237Z" fill="#A88EC3" stroke="#A88EC3" stroke-width="0.3"/>
<path d="M10.3888 8.63281C10.287 8.63281 10.1726 8.60737 10.0708 8.54377L8.37908 7.56434C8.07381 7.38627 7.97205 7.00467 8.15012 6.69939C8.3282 6.39412 8.70979 6.29236 9.01506 6.47044L10.7195 7.44986C11.0248 7.62794 11.1265 8.00954 10.9485 8.31481C10.8213 8.51833 10.6177 8.63281 10.3888 8.63281Z" fill="#A88EC3" stroke="#A88EC3" stroke-width="0.3"/>
<path d="M7.46223 34.9296H3.15026C2.79411 34.9296 2.51427 34.6498 2.51427 34.2936V29.4983H1.00063C0.758954 29.4983 0.53 29.3584 0.428242 29.1421C0.326485 28.9259 0.351924 28.6588 0.50456 28.468L4.81654 23.0366C4.93101 22.884 5.12181 22.7949 5.3126 22.7949C5.5034 22.7949 5.6942 22.884 5.80867 23.0366L10.1206 28.468C10.2733 28.6588 10.2987 28.9259 10.197 29.1421C10.0952 29.3584 9.86626 29.4983 9.62458 29.4983H8.11094V34.2936C8.09822 34.6498 7.80567 34.9296 7.46223 34.9296ZM3.78624 33.6577H6.82625V28.8623C6.82625 28.5061 7.10608 28.2263 7.46223 28.2263H8.30173L5.3126 24.4612L2.31076 28.2263H3.15026C3.50641 28.2263 3.78624 28.5061 3.78624 28.8623V33.6577Z" fill="#A88EC3" stroke="#A88EC3" stroke-width="0.3"/>
<path d="M39.681 34.9296H35.369C35.0129 34.9296 34.733 34.6498 34.733 34.2936V29.4983H33.2194C32.9777 29.4983 32.7487 29.3584 32.647 29.1421C32.5452 28.9259 32.5707 28.6588 32.7233 28.468L37.0353 23.0366C37.1498 22.884 37.3406 22.7949 37.5314 22.7949C37.7221 22.7949 37.9129 22.884 38.0274 23.0366L42.3394 28.468C42.492 28.6588 42.5175 28.9259 42.4157 29.1421C42.314 29.3584 42.085 29.4983 41.8433 29.4983H40.3297V34.2936C40.317 34.6498 40.0371 34.9296 39.681 34.9296ZM36.005 33.6577H39.045V28.8623C39.045 28.5061 39.3248 28.2263 39.681 28.2263H40.5205L37.5314 24.4612L34.5422 28.2263H35.3817C35.7379 28.2263 36.0177 28.5061 36.0177 28.8623L36.005 33.6577Z" fill="#A88EC3" stroke="#A88EC3" stroke-width="0.3"/>
</svg>
