<svg width="55" height="56" viewBox="0 0 55 56" fill="none" xmlns="http://www.w3.org/2000/svg">
<path d="M39.1316 33.1154L31.0405 36.6563L27.5033 44.7467L23.9646 36.6563L15.875 33.1154L23.9646 29.5797L27.5033 21.4863L31.0405 29.5797L39.1316 33.1154Z" stroke="#A88EC3" stroke-width="2" stroke-miterlimit="10" stroke-linecap="round" stroke-linejoin="round"/>
<path d="M48.7278 27.5183V22.2178C48.7278 21.0248 48.6069 19.8661 48.4173 18.7299C51.882 18.0289 53.9993 16.7015 53.9993 16.7015C53.9993 16.7015 48.3172 13.9288 43.434 8.19453C43.434 8.19453 43.2108 7.96011 42.8756 7.61222C42.577 7.29792 42.2664 6.99631 41.9484 6.69545C41.7177 6.48268 41.4669 6.25946 41.2108 6.03102C41.104 5.93546 41.0055 5.84513 40.8943 5.76226C40.2978 5.25162 39.6654 4.76412 39.0734 4.42444C38.945 4.35351 38.8472 4.29528 38.7263 4.22585C37.749 3.61592 36.7278 3.07168 35.6527 2.62524C35.3496 2.49161 34.8375 2.32513 34.8375 2.32513C32.5568 1.48227 30.0954 1 27.5175 1C15.8019 1 6.30426 10.5014 6.30426 22.217V27.5616C6.28783 27.5616 6.28186 27.5556 6.27141 27.5556C3.35985 27.5556 1 29.9155 1 32.827C1 35.7371 3.35911 38.0999 6.27141 38.0999C6.51329 38.0999 6.73949 38.0529 6.97167 38.0253C9.29868 47.2183 17.5996 54.0314 27.5175 54.0314C37.4437 54.0314 45.7558 47.2041 48.0679 37.9909C48.2896 38.0193 48.5039 38.0551 48.7286 38.0551C51.6401 38.0551 54 35.7013 54 32.7867C53.9985 29.8804 51.6394 27.5183 48.7278 27.5183Z" stroke="#A88EC3" stroke-width="2" stroke-miterlimit="10" stroke-linecap="round" stroke-linejoin="round"/>
<path d="M40.1641 18.7801C48.2268 20.3053 53.9805 16.7002 53.9805 16.7002" stroke="#A88EC3" stroke-width="2" stroke-miterlimit="10" stroke-linecap="round" stroke-linejoin="round"/>
</svg>
