<svg width="34" height="43" viewBox="0 0 34 43" fill="none" xmlns="http://www.w3.org/2000/svg">
<path d="M22.4484 10.8557C20.3632 10.8557 18.3453 11.4365 16.5778 12.5374C16.1615 11.8519 15.5445 11.3075 14.8112 10.9933V4.79442C14.8103 2.26102 12.8035 0.200195 10.3364 0.200195H7.0155C4.54842 0.200195 2.54155 2.26102 2.54155 4.79442V10.9925C1.16767 11.5828 0.199219 12.9763 0.199219 14.5991V38.0108C0.199219 40.1651 1.90603 41.9178 4.00393 41.9178H13.3471C15.445 41.9178 17.1518 40.1651 17.1518 38.0108V32.8021C18.7777 33.6849 20.5907 34.1488 22.4476 34.1488C28.7017 34.1488 33.7892 28.9236 33.7892 22.5023C33.7892 16.0809 28.7025 10.8557 22.4484 10.8557ZM3.55299 4.79442C3.55299 2.834 5.1064 1.23883 7.0155 1.23883H10.3364C12.2455 1.23883 13.7989 2.834 13.7989 4.79442V10.7207C13.6506 10.7025 13.5005 10.6921 13.3471 10.6921H4.00477C3.85221 10.6921 3.70134 10.7025 3.55299 10.7207V4.79442ZM16.1412 38.0117C16.1412 39.5939 14.8879 40.88 13.348 40.88H4.00477C2.46401 40.88 1.2115 39.593 1.2115 38.0117V14.5991C1.2115 13.0169 2.46485 11.7308 4.00477 11.7308H13.348C14.8887 11.7308 16.1412 13.0178 16.1412 14.5991V38.0117ZM22.4484 33.111C20.5747 33.111 18.7499 32.5926 17.1527 31.612V14.5991C17.1527 14.214 17.097 13.8418 16.9959 13.4904C18.6302 12.4448 20.5073 11.8935 22.4484 11.8935C28.1445 11.8935 32.7786 16.6522 32.7786 22.5014C32.7795 28.3515 28.1454 33.111 22.4484 33.111ZM19.7799 14.793C19.8903 15.0561 19.7715 15.3617 19.5152 15.475C19.2767 15.5806 19.1562 15.617 19.0769 15.6412C19.0626 15.6455 19.0508 15.649 19.0399 15.6533C19.0053 15.6715 18.8443 15.7953 18.776 15.8472C18.685 15.9165 18.5788 15.9502 18.4735 15.9502C18.3192 15.9502 18.1675 15.8784 18.068 15.7416C17.9011 15.5114 17.9467 15.186 18.1709 15.0146C18.4979 14.7636 18.5797 14.709 18.7878 14.645C18.8485 14.6268 18.9311 14.6009 19.1157 14.5195C19.3728 14.4078 19.6703 14.5299 19.7799 14.793ZM19.7807 30.2115C19.699 30.4089 19.5119 30.5266 19.3155 30.5266C19.2489 30.5266 19.1815 30.5127 19.1174 30.485C18.9278 30.4019 18.8426 30.376 18.7811 30.3569C18.5729 30.2929 18.4979 30.2427 18.17 29.9908C17.9467 29.8186 17.9011 29.4931 18.068 29.2638C18.2358 29.0344 18.5518 28.9877 18.776 29.159C18.8435 29.211 19.0011 29.3322 19.0382 29.3521C19.0449 29.3547 19.0567 29.3573 19.071 29.3616C19.1461 29.385 19.2725 29.4239 19.5144 29.5295C19.7706 29.6429 19.8903 29.9475 19.7807 30.2115ZM28.4109 17.9228C28.244 17.6925 28.2895 17.368 28.5137 17.1957C28.7379 17.0243 29.0548 17.0711 29.2217 17.3013C29.6212 17.8509 29.9584 18.449 30.2214 19.08C30.3318 19.3431 30.2129 19.6486 29.9559 19.762C29.8909 19.7906 29.8235 19.8044 29.7569 19.8044C29.5605 19.8044 29.3743 19.6867 29.2917 19.4902C29.0599 18.9346 28.7632 18.4075 28.4109 17.9228ZM21.0054 14.4546C20.9726 14.1698 21.1706 13.911 21.4479 13.8773C22.1113 13.7959 22.7847 13.7959 23.4497 13.8781C23.7271 13.9128 23.9251 14.1707 23.8914 14.4554C23.8602 14.7194 23.6419 14.9124 23.3899 14.9124C23.3697 14.9124 23.3494 14.9116 23.3292 14.909C22.7443 14.8363 22.1517 14.8363 21.5685 14.9081C21.2912 14.9427 21.0391 14.7393 21.0054 14.4546ZM30.8468 23.5305C30.8156 23.7945 30.5973 23.9875 30.3453 23.9875C30.325 23.9875 30.3048 23.9866 30.2846 23.9841C30.0073 23.9494 29.8092 23.6915 29.8429 23.4067C29.9129 22.8061 29.9137 22.1976 29.8438 21.5987C29.8109 21.3139 30.009 21.0551 30.2863 21.0213C30.5636 20.9876 30.8156 21.191 30.8484 21.4757C30.9268 22.1561 30.9268 22.8476 30.8468 23.5305ZM27.6169 16.2739C27.5174 16.4098 27.3657 16.4825 27.2115 16.4825C27.1061 16.4825 26.9999 16.4488 26.9089 16.3787C26.4386 16.0169 25.9244 15.7131 25.3833 15.475C25.1262 15.3625 25.0074 15.057 25.1169 14.793C25.2265 14.529 25.524 14.407 25.7811 14.5195C26.3964 14.7895 26.9805 15.1349 27.5157 15.546C27.7391 15.7183 27.7846 16.0437 27.6169 16.2739ZM30.2222 25.9237C29.9592 26.5564 29.6229 27.1553 29.2226 27.705C29.1231 27.8408 28.9714 27.9127 28.8171 27.9127C28.7118 27.9127 28.6056 27.8789 28.5145 27.8088C28.2912 27.6366 28.2457 27.3111 28.4126 27.0818C28.7649 26.5988 29.0607 26.0717 29.2925 25.5152C29.4021 25.2512 29.6996 25.1291 29.9559 25.2417C30.2129 25.355 30.3318 25.6606 30.2222 25.9237ZM23.8914 30.5499C23.9243 30.8347 23.7262 31.0935 23.4489 31.1273C23.1185 31.1679 22.7856 31.1878 22.4526 31.1878C22.1163 31.1878 21.7809 31.1671 21.4471 31.1264C21.1698 31.0918 20.9717 30.8338 21.0054 30.5491C21.0391 30.2643 21.2903 30.0609 21.5676 30.0955C22.1526 30.1683 22.7451 30.1683 23.3292 30.0964C23.6074 30.0627 23.8585 30.2652 23.8914 30.5499ZM27.616 28.7297C27.7829 28.96 27.7374 29.2854 27.5132 29.4568C26.978 29.867 26.3956 30.2124 25.7811 30.4833C25.7162 30.5119 25.6479 30.5257 25.5814 30.5257C25.385 30.5257 25.1987 30.408 25.1161 30.2115C25.0057 29.9484 25.1245 29.6429 25.3808 29.5295C25.9219 29.2906 26.4352 28.9868 26.9064 28.625C27.1322 28.4536 27.4492 28.5004 27.616 28.7297ZM14.5575 19.2548L14.5583 19.2539C12.3947 17.973 9.93519 18.05 8.05644 19.4331C7.4934 19.1328 6.81152 18.8679 5.84644 18.7753C4.88978 18.6836 3.86233 18.9649 2.89387 19.2834C2.68484 19.3526 2.54239 19.5525 2.54239 19.7776V36.4252C2.54239 38.0307 3.81428 39.3368 5.3778 39.3368H11.9758C13.5393 39.3368 14.8112 38.0307 14.8112 36.4252V19.7031C14.8103 19.5171 14.7134 19.3465 14.5575 19.2548ZM13.2696 19.7698C12.4537 20.2458 11.8325 20.406 11.6285 20.4484C10.3583 20.7141 9.74218 20.4458 9.03501 20.0173C10.4595 19.1665 12.0205 19.2721 13.2696 19.7698ZM5.75119 19.8087C6.927 19.9221 7.59708 20.3393 8.24524 20.7426C9.11593 21.2845 10.017 21.8453 11.83 21.4662C12.1452 21.4004 12.8734 21.2022 13.7989 20.657V25.0997C11.2012 24.3389 9.49943 25.2451 8.09774 26.1773C7.27763 26.7226 6.0226 27.1441 3.55215 25.6398V20.1593C4.30905 19.9256 5.08027 19.7447 5.75119 19.8087ZM11.9749 38.2982H5.37696C4.37142 38.2982 3.55299 37.4577 3.55299 36.4252V26.8308C4.63776 27.4211 5.61044 27.7145 6.49798 27.7145C7.27173 27.7145 7.98227 27.492 8.64813 27.0489C10.017 26.1384 11.4456 25.3923 13.7989 26.1851V36.426C13.7989 37.4586 12.9813 38.2982 11.9749 38.2982Z" fill="#A88EC3" stroke="#A88EC3" stroke-width="0.4"/>
</svg>
