<svg width="32" height="41" viewBox="0 0 32 41" fill="none" xmlns="http://www.w3.org/2000/svg">
<path d="M15.5488 0.100586C15.8533 0.100492 16.1362 0.257358 16.2939 0.515625C17.4153 2.35893 18.8839 4.29823 20.4609 6.29883C22.0367 8.29778 23.7219 10.3595 25.2715 12.4404C28.3675 16.5981 30.9989 20.8844 30.999 25.2051C30.999 33.6142 24.0716 40.4463 15.5488 40.4463C7.02626 40.4461 0.0996094 33.6141 0.0996094 25.2051C0.0997433 20.8843 2.73109 16.5981 5.82715 12.4404C7.37673 10.3595 9.06192 8.29778 10.6377 6.29883C12.2147 4.29826 13.6824 2.3589 14.8037 0.515625C14.9613 0.257364 15.2444 0.100554 15.5488 0.100586ZM15.5488 2.44629C13.1969 6.02664 9.99238 9.74504 7.22656 13.459C5.70862 15.4974 4.36093 17.5289 3.39258 19.5049C2.42405 21.4813 1.83796 23.397 1.83789 25.2051C1.83789 32.6808 7.96577 38.7284 15.5488 38.7285C23.132 38.7285 29.2598 32.6809 29.2598 25.2051C29.2597 23.397 28.6746 21.4813 27.7061 19.5049C26.7377 17.5288 25.3891 15.4975 23.8711 13.459C21.1054 9.745 17.9007 6.02666 15.5488 2.44629Z" fill="#A88EC3" stroke="#A88EC3" stroke-width="0.2"/>
</svg>
