<svg width="33" height="29" viewBox="0 0 33 29" fill="none" xmlns="http://www.w3.org/2000/svg">
<path d="M20.9776 28.3932H8.02529C5.06694 28.3932 2.20844 27.163 0.182364 25.0177C-0.000697498 24.8239 -0.0509496 24.5394 0.0544495 24.2943C0.160175 24.0492 0.40132 23.8906 0.668244 23.8906H28.3347C28.6016 23.8906 28.8428 24.0492 28.9485 24.2943C29.0539 24.5394 29.0036 24.8239 28.8206 25.0177C27.8038 26.0946 26.602 26.9333 25.2484 27.5112C23.8883 28.0963 22.4509 28.3932 20.9776 28.3932ZM2.43327 25.2272C4.04199 26.4033 6.00705 27.0566 8.02529 27.0566H20.9776C22.2682 27.0566 23.5281 26.7962 24.7221 26.2829C25.3829 26.0006 26.0019 25.6476 26.5746 25.2272H2.43327Z" fill="#A88EC3"/>
<path d="M19.5757 25.2248H9.42735C9.33729 25.2248 9.2482 25.2066 9.16565 25.1713C4.12574 23.0251 0.869141 18.1002 0.869141 12.6242C0.869141 12.1308 0.901772 11.6106 0.969319 11.034C1.00848 10.6972 1.294 10.4434 1.63304 10.4434H27.3703C27.7097 10.4434 27.9949 10.6976 28.034 11.0347C28.1013 11.6123 28.1339 12.1321 28.1339 12.6242C28.1339 18.1002 24.8773 23.0254 19.8374 25.1713C19.7548 25.2066 19.6657 25.2248 19.5757 25.2248ZM9.56571 23.8882H19.4373C23.913 21.9251 26.7973 17.5187 26.7973 12.6242C26.7973 12.3556 26.7862 12.0763 26.7637 11.78H2.23933C2.21681 12.076 2.20572 12.3553 2.20572 12.6242C2.20572 17.5184 5.09 21.9247 9.56571 23.8882Z" fill="#A88EC3"/>
<path d="M27.5663 19.5813C26.8194 19.5813 26.1458 19.3163 25.6574 18.8082C25.4015 18.542 25.4097 18.119 25.6756 17.8632C25.9422 17.6077 26.3648 17.6155 26.6206 17.8815C26.9855 18.261 27.5852 18.3498 28.2669 18.1246C29.6074 17.672 30.7429 16.1327 30.7429 14.7644C30.7429 14.1963 30.5468 13.7427 30.1908 13.4872C29.8143 13.2164 29.2807 13.1772 28.6904 13.3756C28.462 13.45 28.2408 13.5574 28.0261 13.6967C27.7157 13.8971 27.3026 13.8086 27.1016 13.4993C26.9009 13.1896 26.9894 12.7758 27.299 12.5748C27.6113 12.3725 27.938 12.2152 28.2698 12.1072C29.2576 11.7734 30.244 11.8801 30.9704 12.4012C31.6857 12.9148 32.0795 13.7541 32.0795 14.7644C32.0795 16.7178 30.5909 18.7505 28.6904 19.392C28.307 19.519 27.9278 19.5813 27.5663 19.5813Z" fill="#A88EC3"/>
<path d="M14.8988 9.54562C14.5297 9.54562 14.2305 9.24638 14.2305 8.8773C14.2305 3.98245 18.2128 0 23.1075 0C23.4765 0 23.7758 0.299239 23.7758 0.668311C23.7758 3.03709 22.8517 5.26556 21.1738 6.94351C19.4959 8.62147 17.2675 9.54562 14.8988 9.54562ZM22.4072 1.36893C18.807 1.70178 15.9322 4.57669 15.5994 8.17701C17.3468 8.01646 18.9702 7.25711 20.2288 5.99848C21.4873 4.73985 22.2467 3.11639 22.4072 1.36893Z" fill="#A88EC3"/>
<path d="M14.9001 9.54562C12.5317 9.54562 10.3034 8.62147 8.62546 6.94351C6.94755 5.26556 6.02344 3.03709 6.02344 0.668311C6.02344 0.299239 6.32267 0 6.69173 0C11.5864 0 15.5684 3.98245 15.5684 8.8773C15.5684 9.24638 15.2692 9.54562 14.9001 9.54562ZM7.39199 1.36893C7.55254 3.11639 8.31187 4.73985 9.57046 5.99848C10.829 7.25711 12.4521 8.01646 14.1995 8.17701C13.8667 4.57669 10.9922 1.70178 7.39199 1.36893Z" fill="#A88EC3"/>
<path d="M14.8995 9.54632C14.6711 9.54632 14.4577 9.42949 14.335 9.23598C14.318 9.20923 12.6134 6.55034 10.538 5.68428C10.1974 5.542 10.0365 5.15074 10.1788 4.81006C10.3207 4.46938 10.7119 4.30752 11.0529 4.45078C12.7096 5.14226 14.0948 6.68413 14.8502 7.66017C15.6474 6.42438 17.2039 4.3767 18.9014 4.11336C19.2662 4.05723 19.6076 4.30654 19.6643 4.67137C19.7208 5.0362 19.4708 5.37786 19.1063 5.43432C17.8533 5.62848 16.2211 7.84552 15.4869 9.19715C15.374 9.40535 15.1589 9.53783 14.922 9.54599C14.9145 9.54632 14.907 9.54632 14.8995 9.54632Z" fill="#A88EC3"/>
</svg>
