<svg width="39" height="49" viewBox="0 0 39 49" fill="none" xmlns="http://www.w3.org/2000/svg">
<path d="M22.4275 48.1747H16.1732C11.9737 48.209 7.9282 46.5956 4.90479 43.6809C1.88138 40.7662 0.121077 36.7823 0.0016642 32.5844C-0.0289869 30.4789 0.364042 28.3887 1.15738 26.4382C1.95072 24.4876 3.12817 22.7165 4.61973 21.2302C5.9306 19.9209 7.4596 18.85 9.13812 18.0656C9.87206 17.7385 10.4969 17.2079 10.9385 16.5367C11.3801 15.8654 11.6201 15.0816 11.6299 14.2781V9.96731C11.6299 9.74703 11.7174 9.53576 11.8732 9.37999C12.0289 9.22423 12.2402 9.13672 12.4605 9.13672H25.7499C25.9701 9.13672 26.1814 9.22423 26.3372 9.37999C26.4929 9.53576 26.5804 9.74703 26.5804 9.96731V14.2781C26.5917 15.0823 26.8321 15.8666 27.2735 16.5389C27.7149 17.2113 28.3388 17.7438 29.0722 18.0739C32.3354 19.5856 34.9844 22.1665 36.5806 25.3893C38.1767 28.6121 38.6242 32.2834 37.849 35.7952C37.0737 39.307 35.1223 42.4487 32.3177 44.7001C29.5132 46.9514 26.0239 48.1772 22.4275 48.1747ZM13.2911 10.7979V14.2781C13.2832 15.3963 12.9562 16.4891 12.3485 17.4278C11.7408 18.3666 10.8777 19.1123 9.86073 19.5773C7.38623 20.7203 5.29545 22.5551 3.84077 24.8602C2.38608 27.1653 1.62967 29.8422 1.66284 32.5678C1.7542 40.2591 8.30753 46.5135 16.1732 46.5135H22.4275C25.6448 46.5124 28.7653 45.4127 31.2724 43.3963C33.7795 41.3798 35.5227 38.5677 36.2136 35.4254C36.9044 32.2831 36.5014 28.999 35.0714 26.117C33.6413 23.235 31.2698 20.9277 28.3496 19.5773C27.332 19.1131 26.4683 18.3676 25.8605 17.4287C25.2527 16.4897 24.9261 15.3966 24.9193 14.2781V10.7979H13.2911Z" fill="#A88EC3"/>
<path d="M24.0867 7.47535H14.1196C13.8994 7.47535 13.6881 7.38784 13.5323 7.23207C13.3766 7.07631 13.2891 6.86504 13.2891 6.64476V0.830594C13.2891 0.610307 13.3766 0.399042 13.5323 0.243275C13.6881 0.0875088 13.8994 0 14.1196 0H24.0867C24.307 0 24.5182 0.0875088 24.674 0.243275C24.8298 0.399042 24.9173 0.610307 24.9173 0.830594V6.64476C24.9173 6.86504 24.8298 7.07631 24.674 7.23207C24.5182 7.38784 24.307 7.47535 24.0867 7.47535ZM14.9502 5.81416H23.2561V1.66119H14.9502V5.81416Z" fill="#A88EC3"/>
<path d="M28.2402 10.798H9.96731C9.74702 10.798 9.53576 10.7105 9.37999 10.5547C9.22423 10.399 9.13672 10.1877 9.13672 9.96743V6.64505C9.13672 6.42476 9.22423 6.2135 9.37999 6.05773C9.53576 5.90196 9.74702 5.81445 9.96731 5.81445H28.2402C28.4605 5.81445 28.6718 5.90196 28.8275 6.05773C28.9833 6.2135 29.0708 6.42476 29.0708 6.64505V9.96743C29.0708 10.1877 28.9833 10.399 28.8275 10.5547C28.6718 10.7105 28.4605 10.798 28.2402 10.798ZM10.7979 9.13683H27.4096V7.47564H10.7979V9.13683Z" fill="#A88EC3"/>
<path d="M19.1061 39.0396C18.0898 39.0393 17.0905 38.7792 16.2029 38.2841C15.3154 37.789 14.5691 37.0753 14.0349 36.2107C13.5007 35.3462 13.1963 34.3594 13.1506 33.3442C13.1049 32.3289 13.3194 31.3188 13.7737 30.4097L18.3669 21.2234C18.4366 21.0873 18.5425 20.9731 18.6729 20.8934C18.8033 20.8137 18.9532 20.7715 19.1061 20.7715C19.259 20.7715 19.4089 20.8137 19.5393 20.8934C19.6697 20.9731 19.7756 21.0873 19.8453 21.2234L24.4385 30.4097C24.8928 31.3188 25.1073 32.3289 25.0616 33.3442C25.0159 34.3594 24.7115 35.3462 24.1773 36.2107C23.6431 37.0753 22.8968 37.789 22.0092 38.2841C21.1217 38.7792 20.1224 39.0393 19.1061 39.0396ZM19.1061 23.4577L15.2605 31.149C14.9314 31.8049 14.7756 32.5342 14.8078 33.2673C14.84 34.0005 15.0593 34.7132 15.4447 35.3378C15.8301 35.9623 16.3688 36.4779 17.0097 36.8355C17.6505 37.193 18.3722 37.3808 19.1061 37.3808C19.84 37.3808 20.5616 37.193 21.2025 36.8355C21.8433 36.4779 22.3821 35.9623 22.7675 35.3378C23.1529 34.7132 23.3721 34.0005 23.4044 33.2673C23.4366 32.5342 23.2808 31.8049 22.9517 31.149L19.1061 23.4577Z" fill="#A88EC3"/>
</svg>
