<svg width="43" height="51" viewBox="0 0 43 51" fill="none" xmlns="http://www.w3.org/2000/svg">
<path fill-rule="evenodd" clip-rule="evenodd" d="M39.626 39.9852C38.3125 36.9134 36.4366 34.1531 34.8503 32.1223C34.5914 32.9393 34.2644 33.7576 33.8877 34.5053C34.6871 34.4101 35.1665 34.7299 35.4009 34.963C35.9502 35.508 36.0863 36.3924 35.7858 37.4533C35.6282 38.0081 35.3567 38.669 34.9756 39.4213L38.6054 43.7165C38.8756 44.0369 38.8429 44.5212 38.5304 44.7995C38.3887 44.9258 38.2142 44.9885 38.0409 44.9885C37.8318 44.9885 37.6245 44.8979 37.4758 44.7231L33.5096 40.0285C33.3029 39.7844 33.2671 39.4354 33.4201 39.1526C33.8775 38.3007 34.1912 37.5841 34.35 37.0229C34.5063 36.4739 34.4395 36.1451 34.3619 36.0686C34.309 36.0162 34.096 35.9845 33.7206 36.1113C33.2821 36.2603 32.7089 36.5774 32.0141 37.0545C31.8856 37.1581 31.7552 37.2494 31.6234 37.3265C31.6222 37.3265 31.6222 37.3265 31.6222 37.3265C31.5888 37.3459 31.5535 37.3621 31.5188 37.3757C31.5138 37.3776 31.5088 37.3795 31.5036 37.3815C31.469 37.3938 31.4331 37.4042 31.3973 37.4113C31.3935 37.4113 31.3891 37.4126 31.3852 37.4132C31.3481 37.4197 31.3128 37.4235 31.2756 37.4249C31.2743 37.4249 31.2737 37.4249 31.2737 37.4249C31.2365 37.4256 31.2006 37.4235 31.1648 37.4184C31.159 37.4184 31.1527 37.4178 31.1458 37.4165C31.1112 37.4113 31.0772 37.4029 31.0432 37.3932C31.0382 37.3919 31.0331 37.3899 31.0281 37.388C30.9947 37.3777 30.962 37.364 30.9298 37.3478C30.9279 37.3478 30.9266 37.3472 30.9248 37.3459C30.892 37.3297 30.8606 37.3103 30.8303 37.2883C30.8259 37.2845 30.8214 37.2812 30.8158 37.278C30.7862 37.256 30.7585 37.2314 30.7327 37.2042C30.7301 37.2036 30.7282 37.2023 30.7277 37.2003C29.0998 35.5295 28.6192 35.3716 28.57 35.3586C28.5145 35.3483 28.4635 35.3321 28.4119 35.3081C27.6704 34.9753 26.8206 35.1391 26.2474 35.7282C25.6754 36.3159 25.5147 37.1893 25.8404 37.9512C27.9262 42.7053 31.3356 46.4153 35.9677 48.9718C37.118 49.3971 38.3842 49.1329 39.2832 48.2765C41.9121 45.7719 41.1266 43.4938 39.626 39.9852ZM26.8598 42.8446C25.0166 44.5775 23.0422 46.0037 21.2167 46.9185C19.4055 46.0109 17.4464 44.5971 15.6126 42.8816C16.5449 41.5486 17.3525 40.1109 18.0297 38.5682C18.6036 37.2217 18.3201 35.6804 17.3084 34.6414C16.3155 33.6217 14.8508 33.3221 13.5581 33.8704C13.1525 33.9746 12.5288 34.317 11.18 35.6454C10.2275 34.7022 9.18995 32.5071 8.71748 30.3325C8.70557 30.2801 8.68782 30.2296 8.66715 30.1817C8.66773 30.084 8.66902 29.9868 8.67404 29.8911C8.81136 26.7145 10.4568 24.2131 13.0755 23.202C15.6722 22.1979 18.5852 22.9702 20.6773 25.2165C20.8178 25.3679 21.013 25.4541 21.2166 25.4541C21.4213 25.4541 21.6167 25.3681 21.7571 25.2165C23.8493 22.9701 26.7622 22.1979 29.3589 23.202C31.9777 24.2131 33.6231 26.7146 33.7611 29.8911C33.768 30.0574 33.7699 30.229 33.7667 30.3985C33.2874 32.5523 32.2617 34.7112 31.3199 35.6454C29.9712 34.317 29.3469 33.9745 28.9412 33.8704C27.6485 33.3221 26.184 33.6217 25.1911 34.6414C24.1794 35.6804 23.8966 37.2217 24.4737 38.5747C25.1431 40.1011 25.9407 41.5239 26.8598 42.8446ZM16.6633 37.9441C16.9846 37.1893 16.824 36.3161 16.2519 35.7282C15.6787 35.1391 14.8295 34.9753 14.0874 35.3081C14.0358 35.3321 13.9822 35.3495 13.9261 35.3599C13.8801 35.3716 13.3994 35.5295 11.7716 37.2003C11.771 37.2023 11.769 37.2036 11.7672 37.2042C11.7414 37.2313 11.713 37.2559 11.684 37.2774C11.6783 37.2812 11.6733 37.2858 11.6683 37.2884C11.638 37.3104 11.6078 37.3298 11.5744 37.346C11.5725 37.3473 11.5694 37.3479 11.5674 37.3493C11.5365 37.3641 11.5057 37.3765 11.4735 37.3881C11.4666 37.3901 11.4609 37.392 11.454 37.3939C11.4219 37.403 11.3879 37.4114 11.3551 37.4166C11.3475 37.4179 11.3393 37.4185 11.3311 37.4198C11.2971 37.4237 11.2625 37.4257 11.2272 37.425C11.2247 37.425 11.2216 37.425 11.2184 37.425C11.1845 37.4237 11.1511 37.4198 11.1171 37.4133C11.1121 37.4127 11.1058 37.4114 11.1 37.4108C11.0654 37.4043 11.0314 37.394 10.9974 37.3817C10.9911 37.3797 10.9854 37.3778 10.9785 37.3746C10.9445 37.361 10.9104 37.3461 10.8771 37.3267C10.8771 37.3267 10.8771 37.3267 10.8758 37.3267C10.7442 37.2497 10.6138 37.1583 10.4852 37.0548C9.7904 36.5777 9.21587 36.2605 8.77867 36.1116C8.40382 35.9853 8.18966 36.0164 8.13734 36.0689C8.0598 36.1453 7.99301 36.4741 8.14925 37.0231C8.30923 37.5843 8.62172 38.3017 9.0803 39.1528C9.2321 39.4358 9.19625 39.7846 8.98956 40.0287L5.02331 44.7233C4.87465 44.8982 4.66738 44.9888 4.45823 44.9888C4.28494 44.9888 4.11048 44.926 3.96871 44.7998C3.65622 44.5214 3.62353 44.0372 3.89374 43.7168L7.52357 39.4215C7.14242 38.6693 6.87162 38.0083 6.71409 37.4535C6.41293 36.3925 6.54967 35.5082 7.09898 34.9632C7.33265 34.7302 7.81212 34.4104 8.61156 34.5055C8.23485 33.7578 7.90788 32.9395 7.64899 32.1226C6.06272 34.1533 4.18732 36.9137 2.87325 39.9854C1.37269 43.4941 0.587732 45.7721 3.21598 48.2767C4.11562 49.1332 5.3811 49.3973 6.53145 48.9714C11.1637 46.4153 14.573 42.7054 16.6633 37.9441ZM14.0369 21.3498C16.5548 20.9064 19.1623 21.7162 21.2166 23.6155C23.2879 21.7006 25.9218 20.8927 28.4586 21.3601L29.1157 19.4789C27.1427 13.3399 26.5385 12.9717 25.1053 12.099C24.4753 11.7158 23.6432 11.2076 22.5256 10.1873C21.5965 11.0192 20.426 11.7255 19.0161 12.3054C19.0048 12.3093 18.994 12.3152 18.9827 12.3178C15.9545 13.3937 14.1351 15.7351 13.4246 19.4697L14.0369 21.3498ZM12.4608 17.2157C11.4906 14.1523 12.04 10.7693 14.0358 8.1507C14.9782 6.91555 16.1594 5.96072 17.4722 5.32172C17.5409 5.29976 17.6064 5.26928 17.6662 5.2292C18.8744 4.67505 20.1879 4.38441 21.5272 4.38441C22.2416 4.38441 22.9641 4.46733 23.6817 4.63629C23.5752 6.18284 23.0164 7.49431 21.9934 8.58714C21.9884 8.59362 21.9826 8.59746 21.9776 8.60262C21.9732 8.60778 21.9694 8.61366 21.9644 8.6181C21.1184 9.51341 19.958 10.2624 18.4763 10.8729C15.5319 11.9236 13.5153 14.0533 12.4608 17.2157ZM18.1147 3.41866C18.1355 3.41158 18.1557 3.40318 18.1765 3.39598C20.2131 2.7253 22.3695 2.6755 24.4288 3.24778L24.4099 3.0355C24.3331 2.18098 23.6464 1.53683 22.8117 1.53683H19.7476C18.9129 1.53683 18.2256 2.18098 18.1494 3.0355L18.1147 3.41866ZM25.1274 5.21888C27.2976 6.40423 28.984 8.38386 29.83 10.779C30.5797 12.8979 30.6219 15.1992 29.9818 17.3219C28.3351 12.4952 27.5508 11.8019 25.8682 10.7771C25.2697 10.4139 24.5471 9.97121 23.5632 9.07782C24.4288 7.96566 24.951 6.67675 25.1274 5.21888ZM40.3 49.4035C39.4017 50.2586 38.2526 50.7092 37.0785 50.7092C36.516 50.7092 35.947 50.605 35.3977 50.3927C35.3669 50.3816 35.3372 50.3674 35.3077 50.3519C32.3097 48.705 29.7904 46.6018 27.7727 44.0686C25.7386 45.9647 23.5457 47.5132 21.5298 48.4661C21.4315 48.5134 21.3238 48.5367 21.2167 48.5367C21.1102 48.5367 21.0038 48.5134 20.9049 48.4661C18.9035 47.5197 16.7232 45.9828 14.6986 44.1023C12.6853 46.6212 10.1761 48.7115 7.19193 50.3519C7.16297 50.3674 7.13273 50.3816 7.1019 50.3927C6.55259 50.605 5.98366 50.7092 5.42116 50.7092C4.24757 50.7092 3.09781 50.2586 2.19957 49.4035C0.639813 47.9172 -0.0777682 46.2872 0.00666002 44.4227C0.0784765 42.8186 0.727394 41.1853 1.50465 39.3675C3.07889 35.6859 5.40726 32.4525 7.17173 30.3013C7.17114 30.1408 7.17301 29.9796 7.1799 29.8229C7.34187 26.0677 9.39932 22.9791 12.5497 21.7621C12.5636 21.7575 12.5762 21.753 12.5907 21.7485L11.9658 19.8337C10.8797 17.8812 10.3846 15.6666 10.5352 13.4223C10.6876 11.148 11.4909 8.99826 12.8585 7.20379C13.8627 5.88704 15.1207 4.82805 16.5539 4.08225L16.6604 2.89498C16.8085 1.24487 18.1357 0 19.7478 0H22.812C24.424 0 25.7513 1.24487 25.8988 2.89498L25.9938 3.95529C28.4091 5.327 30.2839 7.56103 31.2365 10.254C32.3427 13.3821 32.1077 16.8571 30.5933 19.7979L29.9035 21.7705C33.0432 22.9927 35.0931 26.0761 35.2556 29.8229C35.2606 29.9543 35.2632 30.0884 35.2632 30.2224C37.0347 32.3735 39.402 35.6414 40.9952 39.3675C41.7726 41.1853 42.4215 42.8186 42.4933 44.4227C42.578 46.2872 41.8599 47.9172 40.3 49.4035ZM16.6273 17.9518C16.2953 18.2048 15.8273 18.135 15.5809 17.7938C15.3346 17.454 15.4033 16.9729 15.734 16.7198C17.0872 15.6847 18.904 15.6847 20.2559 16.7198C20.5879 16.9729 20.6565 17.454 20.4096 17.7938C20.2628 17.9971 20.0379 18.1045 19.8092 18.1045C19.6537 18.1045 19.4974 18.054 19.3638 17.9518C18.5456 17.3257 17.4463 17.3257 16.6273 17.9518ZM22.1496 17.7938C21.9026 17.454 21.9713 16.9729 22.3021 16.7198C23.6553 15.6847 25.4727 15.6847 26.8253 16.7198C27.156 16.9729 27.2247 17.454 26.979 17.7938C26.7314 18.135 26.2639 18.205 25.932 17.9518C25.1136 17.3257 24.0137 17.3257 23.1953 17.9518C23.0617 18.054 22.9043 18.1045 22.75 18.1045C22.5219 18.1045 22.2964 17.9971 22.1496 17.7938Z" fill="#A88EC3"/>
</svg>
