<svg width="34" height="54" viewBox="0 0 34 54" fill="none" xmlns="http://www.w3.org/2000/svg">
<path d="M7.4013 9.03001C6.90877 9.03001 6.50904 9.42784 6.50904 9.92002V13.5361H5.2108C2.33772 13.5361 0 15.8679 0 18.7338V48.2028C0 51.0686 2.33772 53.4004 5.2108 53.4004H20.2008C23.0792 53.4004 25.4205 51.0686 25.4205 48.2028V37.5565L27.1898 38.4883C27.321 38.5569 27.4638 38.5907 27.6065 38.5907C27.7912 38.5907 27.975 38.5337 28.1303 38.4216C28.406 38.2222 28.5434 37.8849 28.4863 37.5503L27.9768 34.5857L30.1379 32.4915C30.3814 32.2547 30.4698 31.9014 30.3654 31.5792C30.261 31.2579 29.9826 31.0221 29.6462 30.9722L26.6563 30.5326L25.4205 28.0228V18.7338C25.4205 15.8679 23.0783 13.5361 20.2008 13.5361H18.9061V9.92002C18.9061 9.42784 18.5064 9.03001 18.0138 9.03001H16.6085V5.38098H25.1805C25.673 5.38098 26.0727 4.98315 26.0727 4.49097V0.890007C26.0727 0.397833 25.673 0 25.1805 0H7.4013C6.90877 0 6.50904 0.397833 6.50904 0.890007V4.49187C6.50904 4.98404 6.90877 5.38187 7.4013 5.38187H8.8066V9.0309H7.4013V9.03001ZM23.636 28.0219L22.3922 30.5326L19.4013 30.9722C19.0658 31.0221 18.7874 31.257 18.6821 31.5792C18.5777 31.9014 18.6661 32.2556 18.9097 32.4915L21.0707 34.5857L20.5612 37.5503C20.5041 37.884 20.6415 38.2222 20.9163 38.4216C21.1912 38.621 21.5552 38.6468 21.8559 38.4883L23.6351 37.5547V41.6879H1.78452V25.2406H23.636V28.0219ZM20.2008 51.6195H5.2108C3.32099 51.6195 1.78452 50.086 1.78452 48.2019V43.467H23.636V48.2019C23.636 50.086 22.095 51.6195 20.2008 51.6195ZM27.5985 32.4701L26.3966 33.6343C26.186 33.839 26.0888 34.1344 26.1387 34.4237L26.4216 36.0702L24.9449 35.2932C24.9137 35.2772 24.8798 35.2683 24.8476 35.2558C24.8191 35.2452 24.7914 35.2309 24.7611 35.2229C24.7138 35.2105 24.6665 35.2051 24.6183 35.2007C24.5934 35.198 24.5693 35.1918 24.5443 35.1918C24.4881 35.1909 24.4327 35.1989 24.3774 35.2078C24.3596 35.2105 24.3417 35.2105 24.3248 35.214C24.2516 35.2309 24.1811 35.2567 24.1133 35.2923L22.6259 36.0729L22.9097 34.4228C22.9596 34.1335 22.8624 33.839 22.6518 33.6334L21.4499 32.4692L23.1158 32.2245C23.4058 32.1818 23.6556 32.0002 23.785 31.7385L24.5264 30.2415L25.2625 31.7368C25.3919 31.9993 25.6427 32.1818 25.9326 32.2245L27.5985 32.4692V32.4701ZM23.6369 18.7329V23.4597H1.78452V18.7329C1.78452 16.8487 3.32188 15.3152 5.2108 15.3152H20.2008C22.095 15.3152 23.6369 16.8487 23.6369 18.7329ZM17.1225 13.5308H8.29356V10.8082H17.1225V13.5308ZM8.29356 1.78001H24.2882V3.60186H8.29356V1.78001ZM10.5911 5.38187H14.824V9.0309H10.5911V5.38187Z" fill="#A88EC3"/>
<path d="M29.8768 17.2596C31.9245 17.2596 33.5903 15.5988 33.5903 13.5562C33.5903 11.7753 31.0724 8.61224 30.5683 7.99725C30.2292 7.5825 29.5252 7.58339 29.1861 7.99725C28.682 8.61224 26.1641 11.7753 26.1641 13.5562C26.1641 15.5988 27.8299 17.2596 29.8768 17.2596ZM29.8768 10.0131C30.8966 11.3944 31.8058 12.9323 31.8058 13.5553C31.8058 14.6153 30.9403 15.4786 29.8768 15.4786C28.8132 15.4786 27.9486 14.6153 27.9486 13.5553C27.9486 12.9323 28.8569 11.3935 29.8768 10.0131Z" fill="#A88EC3"/>
<path d="M3.52507 40.8829H11.4118C11.9043 40.8829 12.304 40.4851 12.304 39.9929C12.304 39.5007 11.9043 39.1029 11.4118 39.1029H4.41733V34.6244C4.41733 34.1322 4.0176 33.7344 3.52507 33.7344C3.03254 33.7344 2.63281 34.1322 2.63281 34.6244V39.9929C2.63281 40.4851 3.03254 40.8829 3.52507 40.8829Z" fill="#A88EC3"/>
</svg>
