<svg width="47" height="47" viewBox="0 0 47 47" fill="none" xmlns="http://www.w3.org/2000/svg">
<path d="M42.1758 1.00195C42.8993 1.02218 43.7368 1.1938 44.332 1.78906C44.9273 2.38442 45.0984 3.22122 45.1182 3.94434C45.1386 4.69578 45.002 5.51756 44.793 6.29199C44.5821 7.07301 44.2851 7.85025 43.9531 8.52344C43.6695 9.09855 43.3359 9.64803 42.9746 10.0615L42.8184 10.2305C42.3195 10.7342 38.6662 14.154 34.1426 18.376L37.9268 40.7441C37.9871 41.1008 37.9615 41.4669 37.8516 41.8115C37.7416 42.156 37.5506 42.469 37.2949 42.7246L35.7773 44.2432C35.6249 44.3957 35.4382 44.5096 35.2334 44.5771C35.0287 44.6447 34.8109 44.6636 34.5977 44.6318C34.3844 44.6 34.1811 44.5189 34.0049 44.3945C33.8287 44.27 33.6843 44.1054 33.583 43.915L24.6855 27.1914C21.4918 30.1653 18.5474 32.9039 16.5195 34.79L16.1045 42.2734C16.0735 42.8302 15.8386 43.3567 15.4443 43.751L14.4297 44.7646L14.4287 44.7637C14.2851 44.909 14.1092 45.0184 13.9141 45.0801C13.7091 45.1448 13.4907 45.1558 13.2803 45.1123C13.0697 45.0687 12.8733 44.9717 12.7109 44.8311C12.5488 44.6904 12.4256 44.5105 12.3525 44.3086L12.3486 44.2998L12.3467 44.292L9.66797 36.4541L1.84863 33.792L1.83105 33.7861C1.62882 33.7132 1.44851 33.5891 1.30762 33.4268C1.16685 33.2644 1.07005 33.0688 1.02637 32.8584C0.982667 32.6479 0.993955 32.4297 1.05859 32.2246L1.11621 32.0742C1.17937 31.9377 1.26748 31.8141 1.375 31.708H1.37402L2.38867 30.6934C2.7822 30.3 3.30678 30.0648 3.8623 30.0332L11.3184 29.6084C13.2027 27.5797 15.9444 24.6302 18.9209 21.4307L2.20605 12.5381C2.01561 12.4368 1.85103 12.2924 1.72656 12.1162C1.60209 11.94 1.52111 11.7368 1.48926 11.5234C1.45745 11.3102 1.47547 11.0924 1.54297 10.8877L1.60254 10.7373C1.67044 10.5914 1.76356 10.4581 1.87793 10.3438L3.39648 8.82617C3.65218 8.5705 3.9651 8.3795 4.30957 8.26953C4.65415 8.15955 5.02032 8.13403 5.37695 8.19434L27.7295 11.9756C31.8036 7.61075 35.1431 4.04929 35.8867 3.30566C36.3118 2.88059 36.9374 2.48959 37.5947 2.16504C38.2681 1.83258 39.0457 1.53564 39.8271 1.3252C40.6021 1.11651 41.424 0.980983 42.1758 1.00195Z" stroke="#A88EC3" stroke-width="2"/>
</svg>
