<svg width="41" height="49" viewBox="0 0 41 49" fill="none" xmlns="http://www.w3.org/2000/svg">
<path d="M17.3511 0.271484C23.5235 -0.275197 28.3596 1.02335 31.6968 4.15918C36.2008 8.39249 36.3731 14.4519 36.3716 15.4141C36.7491 16.5782 37.0125 17.4607 36.603 18.8672C36.588 18.9188 36.5862 19.0029 36.6118 19.126C36.6369 19.2465 36.6851 19.3912 36.7534 19.5557C36.89 19.8846 37.1019 20.2781 37.3501 20.6943C37.846 21.526 38.478 22.4315 38.9224 23.0684C39.4174 23.7772 39.8912 24.456 40.1782 24.9648C40.4921 25.5207 40.5367 26.1791 40.3003 26.7695V26.7705C40.0568 27.377 39.5351 27.8391 38.9048 28.0088V28.0098C38.8666 28.02 38.8281 28.0266 38.7896 28.0303L37.3687 28.1621C37.3511 28.1638 37.3409 28.1696 37.3345 28.1748C37.3268 28.1811 37.3207 28.1894 37.3169 28.1963C37.3134 28.2027 37.3102 28.2119 37.3091 28.2217C37.3082 28.2299 37.3087 28.2418 37.3169 28.2578L37.8706 29.3389L37.9272 29.4609C38.1821 30.0799 38.026 30.8035 37.5259 31.2617L37.5171 31.2695L37.5161 31.2686L37.3267 31.418L37.3667 31.498C37.6945 32.1654 37.5022 32.9758 36.9097 33.4258L36.5181 33.7227C36.4327 33.83 36.3947 33.909 36.3784 33.9746C36.3618 34.0416 36.3646 34.1097 36.3833 34.2051V34.2061L36.6411 35.5244C36.8402 36.5398 36.5684 37.5732 35.896 38.3594C35.2239 39.1451 34.243 39.5808 33.2095 39.5342V39.5332L29.3071 39.4629H29.2974C29.2929 39.4628 29.2884 39.462 29.2856 39.4619C29.2824 39.4618 29.2801 39.4619 29.2788 39.4619L26.8657 39.417C26.8647 39.417 26.8637 39.417 26.8628 39.417C26.8075 39.417 26.7594 39.4491 26.7378 39.498L22.8042 48.5303L22.7446 48.668L22.6069 48.6084L21.6118 48.1748L21.4741 48.1143L21.5337 47.9766L25.3774 39.1494C24.3803 39.0297 23.6549 38.9219 23.5913 38.9121H23.5903C23.4582 38.8982 22.3776 38.7761 21.1157 38.4805C19.8272 38.1786 18.3147 37.6887 17.4468 36.9258C17.0023 36.5349 16.6402 35.9067 16.3452 35.1943C16.0489 34.4787 15.8142 33.6613 15.6304 32.876C15.2629 31.3059 15.0974 29.8479 15.0659 29.5488L15.0649 29.4082C15.0957 29.0871 15.3492 28.8214 15.6821 28.7861H15.8247C16.1464 28.8188 16.4091 29.0686 16.4438 29.4023C16.522 30.1405 16.7257 31.5261 17.0522 32.8506C17.2155 33.5127 17.4083 34.156 17.6304 34.6943C17.8545 35.2374 18.101 35.6555 18.3618 35.8848C18.6379 36.1274 19.0401 36.3472 19.5151 36.542C19.9885 36.7361 20.5258 36.902 21.064 37.04C22.1406 37.3163 23.212 37.4791 23.77 37.5381H23.7759V37.5391C23.8469 37.5494 27.0258 38.0331 29.3169 38.0762L33.2495 38.1494H33.2524C33.8678 38.1734 34.4476 37.9213 34.8433 37.459C35.2392 36.9965 35.399 36.3886 35.2817 35.791L35.0229 34.4727C34.8595 33.6397 35.2309 33.0921 35.5112 32.7666C35.5435 32.7292 35.5799 32.6958 35.6177 32.667L36.0718 32.3223C36.1372 32.2726 36.1588 32.1821 36.1226 32.1084L36.0728 32.0088C35.5836 32.0995 35.0972 32.1494 34.6235 32.1494C34.3264 32.1494 34.0345 32.1309 33.7505 32.0947L33.4692 32.0527C33.0925 31.9871 32.8391 31.6284 32.9048 31.251C32.9706 30.8733 33.3308 30.6242 33.7056 30.6865H33.7065C34.2313 30.7776 35.0796 30.8278 36.1538 30.5762L36.6216 30.21C36.6364 30.1948 36.6553 30.1635 36.6616 30.1162C36.6679 30.0686 36.6612 30.0168 36.6382 29.9717L36.0835 28.8887C35.8635 28.4593 35.8703 27.9507 36.1021 27.5283C36.3339 27.1058 36.7596 26.8269 37.2397 26.7822L38.5894 26.6553C38.7807 26.5894 38.9372 26.4428 39.0132 26.2539C39.0821 26.0811 39.0796 25.8903 39.0063 25.7188L38.9712 25.6465C38.7184 25.1983 38.2685 24.5544 37.7856 23.8623C36.9555 22.673 36.2464 21.6265 35.7856 20.7383C35.3296 19.859 35.0939 19.093 35.272 18.4805C35.4243 17.9574 35.4513 17.5545 35.3989 17.1504C35.3457 16.7401 35.2103 16.3233 35.0288 15.7646C35.007 15.6977 34.9828 15.5879 34.9849 15.5029C34.9849 15.5029 34.9848 15.502 34.9849 15.501C34.9849 15.5 34.9858 15.4987 34.9858 15.4971V15.4248C34.9856 15.3757 34.9847 15.3043 34.9819 15.2129C34.9764 15.0301 34.9633 14.7667 34.9341 14.4395C34.8757 13.7849 34.7523 12.8747 34.4927 11.8389C34.0055 9.89503 33.0405 7.51667 31.1343 5.5498L30.7407 5.16211C27.7222 2.33059 23.267 1.13965 17.4731 1.65234C11.3552 2.19395 6.95015 4.14594 4.34717 7.42773C0.682571 12.0482 1.54852 18.169 1.83838 20.207L1.90674 20.7168V20.7178C2.17403 23.0838 3.37439 25.8791 5.39111 28.8018C5.97866 29.6535 6.41266 30.364 6.75928 30.9453L6.95361 31.2959C7.86445 33.0744 7.85331 35.1877 6.8999 36.9023V36.9033C6.893 36.9155 6.86135 36.9707 6.8501 36.9883L6.84814 36.9912L3.34619 42.1572C3.13168 42.4742 2.70064 42.5571 2.3833 42.3418C2.06673 42.127 1.98363 41.6966 2.19775 41.3799H2.19873L5.69678 36.2188C6.46363 34.8296 6.41907 33.0796 5.56885 31.6553C5.23241 31.0919 4.81368 30.4069 4.24951 29.5889C2.11599 26.4963 0.825193 23.4827 0.529785 20.873V20.8721C0.516849 20.7545 0.494004 20.5983 0.466309 20.4033C0.160915 18.2608 -0.78262 11.6649 3.26123 6.56641C6.12731 2.95352 10.8789 0.844462 17.3511 0.271484Z" fill="#A88EC3" stroke="#A88EC3" stroke-width="0.3"/>
<path d="M36.1519 24.9492C36.4462 24.8779 36.7385 25.0555 36.8101 25.3467C36.8808 25.6337 36.7084 25.9241 36.4243 26.001C36.4031 26.0079 36.2082 26.0752 36.0083 26.3125C35.9006 26.44 35.7471 26.5059 35.5923 26.5059C35.469 26.5058 35.3453 26.4635 35.2437 26.3779C35.0146 26.1846 34.9852 25.8417 35.1782 25.6123C35.6063 25.1049 36.0638 24.9709 36.1519 24.9492Z" fill="#A88EC3"/>
<path d="M36.1519 24.9492C36.4462 24.8779 36.7385 25.0555 36.8101 25.3467C36.8808 25.6337 36.7084 25.9241 36.4243 26.001C36.4031 26.0079 36.2082 26.0752 36.0083 26.3125C35.9006 26.44 35.7471 26.5059 35.5923 26.5059C35.469 26.5058 35.3453 26.4635 35.2437 26.3779C35.0146 26.1846 34.9852 25.8417 35.1782 25.6123C35.6063 25.1049 36.0638 24.9709 36.1519 24.9492Z" stroke="#A88EC3"/>
<path d="M29.0386 15.7949C30.2665 14.5139 32.5101 14.5233 34.9438 15.6211C35.3431 15.801 35.5197 16.2691 35.3403 16.668L35.3413 16.6689C35.2093 16.9633 34.9196 17.1367 34.6177 17.1367C34.5357 17.1367 34.453 17.1239 34.3726 17.0977L34.2925 17.0664C33.5486 16.7306 32.7083 16.4721 31.9526 16.4111C31.1903 16.3497 30.5665 16.4921 30.1841 16.8916C29.881 17.2086 29.3783 17.2184 29.063 16.917C28.7462 16.6141 28.7348 16.1113 29.0376 15.7949H29.0386Z" fill="#A88EC3" stroke="#A88EC3" stroke-width="0.5"/>
<path d="M29.9277 19.2607C31.9853 17.4358 34.3944 17.9044 34.5 17.9258C34.7938 17.9862 34.9833 18.2736 34.9229 18.5674C34.8623 18.8607 34.5747 19.0496 34.2832 18.9893C34.2634 18.9852 34.1545 18.9665 33.9863 18.9531C34.0407 19.1223 34.0742 19.3126 34.0742 19.5205C34.0742 19.7942 34.0207 20.0415 33.9297 20.2432C33.9736 20.2462 34.0143 20.2506 34.0596 20.2529C34.3591 20.2686 34.5894 20.5238 34.5742 20.8232C34.5588 21.113 34.3191 21.3378 34.0322 21.3379C34.0228 21.3379 34.0133 21.3384 34.0039 21.3379C32.0482 21.236 31.0614 20.5683 30.6035 20.1006C30.5084 20.1697 30.3995 20.21 30.2881 20.21C30.1386 20.2099 29.9889 20.1482 29.8818 20.0273C29.6831 19.803 29.703 19.4596 29.9277 19.2607ZM32.4688 19.0947C32.1681 19.1745 31.8486 19.2944 31.5254 19.4658C31.7192 19.6241 32.0217 19.8135 32.4727 19.9688C32.4395 19.8303 32.4199 19.6808 32.4199 19.5205C32.4199 19.3688 32.439 19.2271 32.4688 19.0947Z" fill="#A88EC3"/>
<path d="M29.9277 19.2607C31.9853 17.4358 34.3944 17.9044 34.5 17.9258C34.7938 17.9862 34.9833 18.2736 34.9229 18.5674C34.8623 18.8607 34.5747 19.0496 34.2832 18.9893C34.2634 18.9852 34.1545 18.9665 33.9863 18.9531C34.0407 19.1223 34.0742 19.3126 34.0742 19.5205C34.0742 19.7942 34.0207 20.0415 33.9297 20.2432C33.9736 20.2462 34.0143 20.2506 34.0596 20.2529C34.3591 20.2686 34.5894 20.5238 34.5742 20.8232C34.5588 21.113 34.3191 21.3378 34.0322 21.3379C34.0228 21.3379 34.0133 21.3384 34.0039 21.3379C32.0482 21.236 31.0614 20.5683 30.6035 20.1006C30.5084 20.1697 30.3995 20.21 30.2881 20.21C30.1386 20.2099 29.9889 20.1482 29.8818 20.0273C29.6831 19.803 29.703 19.4596 29.9277 19.2607ZM32.4688 19.0947C32.1681 19.1745 31.8486 19.2944 31.5254 19.4658C31.7192 19.6241 32.0217 19.8135 32.4727 19.9688C32.4395 19.8303 32.4199 19.6808 32.4199 19.5205C32.4199 19.3688 32.439 19.2271 32.4688 19.0947Z" stroke="#A88EC3"/>
<path d="M12.5386 15.3252C13.9312 15.1918 15.283 15.7678 15.686 16.6641C15.809 16.9377 15.6872 17.2588 15.4136 17.3818C15.1395 17.5044 14.8188 17.3824 14.6958 17.1094C14.5335 16.7488 13.6788 16.3073 12.6421 16.4062C11.9113 16.4766 10.6193 16.8775 10.1733 18.7725C9.36278 22.2194 12.1152 23.1917 12.2329 23.2314C12.3705 23.2779 12.4847 23.3781 12.5483 23.5088C12.612 23.6398 12.6215 23.7916 12.5728 23.9287C12.2128 24.9388 12.7338 25.8108 13.3696 26.1934C14.0834 26.6225 14.885 26.4703 15.5112 25.7852C15.7133 25.5635 16.0572 25.5485 16.2778 25.751C16.4989 25.9532 16.5148 26.2964 16.313 26.5176C15.7111 27.1757 14.954 27.5176 14.1909 27.5176C13.7216 27.5176 13.2502 27.3886 12.8101 27.124C11.7293 26.4741 11.1994 25.2599 11.4194 24.0508C10.431 23.5337 8.30125 21.9865 9.11572 18.5234C9.73924 15.8737 11.7168 15.4041 12.5386 15.3252Z" fill="#A88EC3"/>
<path d="M12.5386 15.3252C13.9312 15.1918 15.283 15.7678 15.686 16.6641C15.809 16.9377 15.6872 17.2588 15.4136 17.3818C15.1395 17.5044 14.8188 17.3824 14.6958 17.1094C14.5335 16.7488 13.6788 16.3073 12.6421 16.4062C11.9113 16.4766 10.6193 16.8775 10.1733 18.7725C9.36278 22.2194 12.1152 23.1917 12.2329 23.2314C12.3705 23.2779 12.4847 23.3781 12.5483 23.5088C12.612 23.6398 12.6215 23.7916 12.5728 23.9287C12.2128 24.9388 12.7338 25.8108 13.3696 26.1934C14.0834 26.6225 14.885 26.4703 15.5112 25.7852C15.7133 25.5635 16.0572 25.5485 16.2778 25.751C16.4989 25.9532 16.5148 26.2964 16.313 26.5176C15.7111 27.1757 14.954 27.5176 14.1909 27.5176C13.7216 27.5176 13.2502 27.3886 12.8101 27.124C11.7293 26.4741 11.1994 25.2599 11.4194 24.0508C10.431 23.5337 8.30125 21.9865 9.11572 18.5234C9.73924 15.8737 11.7168 15.4041 12.5386 15.3252Z" stroke="#A88EC3"/>
<path d="M14.7661 20.4375C14.9352 20.1902 15.2734 20.1252 15.521 20.2939C15.7692 20.4626 15.8332 20.8009 15.6646 21.0488C15.4939 21.2999 15.4358 21.5807 15.4878 21.9072C15.5348 22.2033 15.3339 22.481 15.0376 22.5283C15.009 22.5331 14.9797 22.5352 14.9517 22.5352C14.6892 22.5352 14.458 22.3454 14.4155 22.0781C14.3201 21.4821 14.4416 20.9147 14.7661 20.4375Z" fill="#A88EC3"/>
<path d="M14.7661 20.4375C14.9352 20.1902 15.2734 20.1252 15.521 20.2939C15.7692 20.4626 15.8332 20.8009 15.6646 21.0488C15.4939 21.2999 15.4358 21.5807 15.4878 21.9072C15.5348 22.2033 15.3339 22.481 15.0376 22.5283C15.009 22.5331 14.9797 22.5352 14.9517 22.5352C14.6892 22.5352 14.458 22.3454 14.4155 22.0781C14.3201 21.4821 14.4416 20.9147 14.7661 20.4375Z" stroke="#A88EC3"/>
<path d="M23.5513 25.7764C23.7246 25.7385 23.915 25.798 24.0396 25.9229C24.0665 25.9498 24.0886 25.9769 24.105 26.0039C24.1266 26.0364 24.1428 26.0691 24.1587 26.1016C24.1698 26.134 24.1802 26.1668 24.186 26.1992C24.1966 26.2371 24.1968 26.2707 24.1968 26.3086C24.1967 26.379 24.1862 26.4498 24.1587 26.5146C24.1317 26.5797 24.0882 26.6391 24.0396 26.6934C23.9367 26.7912 23.8007 26.8516 23.6538 26.8516C23.6215 26.8516 23.5836 26.8454 23.5513 26.8398C23.5131 26.8345 23.4801 26.824 23.4478 26.8076C23.4154 26.7967 23.382 26.7805 23.355 26.7588C23.3222 26.7371 23.2956 26.715 23.2739 26.6934C23.2199 26.6391 23.1818 26.5797 23.1548 26.5146C23.1278 26.4498 23.1109 26.379 23.1108 26.3086C23.1108 26.2707 23.1157 26.2371 23.1216 26.1992C23.1321 26.1667 23.1384 26.1341 23.1548 26.1016C23.1659 26.0691 23.181 26.0363 23.2026 26.0039C23.2244 25.9769 23.2469 25.9499 23.2739 25.9229C23.2956 25.8959 23.3222 25.8738 23.355 25.8574C23.382 25.8357 23.4154 25.8199 23.4478 25.8037C23.4801 25.7928 23.5131 25.7819 23.5513 25.7764Z" fill="#A88EC3"/>
<path d="M23.5513 25.7764C23.7246 25.7385 23.915 25.798 24.0396 25.9229C24.0665 25.9498 24.0886 25.9769 24.105 26.0039C24.1266 26.0364 24.1428 26.0691 24.1587 26.1016C24.1698 26.134 24.1802 26.1668 24.186 26.1992C24.1966 26.2371 24.1968 26.2707 24.1968 26.3086C24.1967 26.379 24.1862 26.4498 24.1587 26.5146C24.1317 26.5797 24.0882 26.6391 24.0396 26.6934C23.9367 26.7912 23.8007 26.8516 23.6538 26.8516C23.6215 26.8516 23.5836 26.8454 23.5513 26.8398C23.5131 26.8345 23.4801 26.824 23.4478 26.8076C23.4154 26.7967 23.382 26.7805 23.355 26.7588C23.3222 26.7371 23.2956 26.715 23.2739 26.6934C23.2199 26.6391 23.1818 26.5797 23.1548 26.5146C23.1278 26.4498 23.1109 26.379 23.1108 26.3086C23.1108 26.2707 23.1157 26.2371 23.1216 26.1992C23.1321 26.1667 23.1384 26.1341 23.1548 26.1016C23.1659 26.0691 23.181 26.0363 23.2026 26.0039C23.2244 25.9769 23.2469 25.9499 23.2739 25.9229C23.2956 25.8959 23.3222 25.8738 23.355 25.8574C23.382 25.8357 23.4154 25.8199 23.4478 25.8037C23.4801 25.7928 23.5131 25.7819 23.5513 25.7764Z" stroke="#A88EC3"/>
<path d="M28.0952 28.2412C28.128 28.252 28.1665 28.2626 28.1987 28.2734C28.2311 28.2896 28.2645 28.3061 28.2915 28.3223C28.3185 28.344 28.3508 28.3665 28.3726 28.3936C28.4213 28.4426 28.4656 28.5022 28.4927 28.5674C28.5196 28.6325 28.5356 28.7031 28.5356 28.7734C28.5356 28.92 28.4754 29.0616 28.3726 29.1592C28.3509 29.1862 28.3184 29.2073 28.2915 29.2236C28.2645 29.2454 28.2311 29.2619 28.1987 29.2783C28.1664 29.2892 28.128 29.3004 28.0952 29.3057C28.063 29.3164 28.0249 29.3164 27.9927 29.3164C27.9169 29.3164 27.8454 29.3054 27.7808 29.2783C27.7157 29.251 27.6556 29.2079 27.6069 29.1592C27.5036 29.0561 27.4497 28.92 27.4497 28.7734C27.4497 28.6325 27.5038 28.4914 27.6069 28.3936C27.6557 28.3395 27.7156 28.3005 27.7808 28.2734C27.8782 28.2356 27.9872 28.2196 28.0952 28.2412Z" fill="#A88EC3"/>
<path d="M28.0952 28.2412C28.128 28.252 28.1665 28.2626 28.1987 28.2734C28.2311 28.2896 28.2645 28.3061 28.2915 28.3223C28.3185 28.344 28.3508 28.3665 28.3726 28.3936C28.4213 28.4426 28.4656 28.5022 28.4927 28.5674C28.5196 28.6325 28.5356 28.7031 28.5356 28.7734C28.5356 28.92 28.4754 29.0616 28.3726 29.1592C28.3509 29.1862 28.3184 29.2073 28.2915 29.2236C28.2645 29.2454 28.2311 29.2619 28.1987 29.2783C28.1664 29.2892 28.128 29.3004 28.0952 29.3057C28.063 29.3164 28.0249 29.3164 27.9927 29.3164C27.9169 29.3164 27.8454 29.3054 27.7808 29.2783C27.7157 29.251 27.6556 29.2079 27.6069 29.1592C27.5036 29.0561 27.4497 28.92 27.4497 28.7734C27.4497 28.6325 27.5038 28.4914 27.6069 28.3936C27.6557 28.3395 27.7156 28.3005 27.7808 28.2734C27.8782 28.2356 27.9872 28.2196 28.0952 28.2412Z" stroke="#A88EC3"/>
<path d="M20.0913 27.9473C20.2864 27.866 20.5309 27.9143 20.6831 28.0664C20.7319 28.1152 20.7703 28.175 20.7974 28.2402C20.8244 28.3055 20.8403 28.3767 20.8403 28.4473C20.8402 28.5936 20.7804 28.7346 20.6831 28.832C20.5797 28.9352 20.4384 28.9902 20.2974 28.9902C20.2269 28.9902 20.1565 28.9791 20.0913 28.9521C20.0208 28.9251 19.9657 28.8811 19.9116 28.832C19.8138 28.7346 19.7545 28.5936 19.7544 28.4473C19.7544 28.3767 19.7655 28.3055 19.7983 28.2402C19.8254 28.1752 19.8629 28.1151 19.9116 28.0664C19.9657 28.0121 20.0208 27.9746 20.0913 27.9473Z" fill="#A88EC3"/>
<path d="M20.0913 27.9473C20.2864 27.866 20.5309 27.9143 20.6831 28.0664C20.7319 28.1152 20.7703 28.175 20.7974 28.2402C20.8244 28.3055 20.8403 28.3767 20.8403 28.4473C20.8402 28.5936 20.7804 28.7346 20.6831 28.832C20.5797 28.9352 20.4384 28.9902 20.2974 28.9902C20.2269 28.9902 20.1565 28.9791 20.0913 28.9521C20.0208 28.9251 19.9657 28.8811 19.9116 28.832C19.8138 28.7346 19.7545 28.5936 19.7544 28.4473C19.7544 28.3767 19.7655 28.3055 19.7983 28.2402C19.8254 28.1752 19.8629 28.1151 19.9116 28.0664C19.9657 28.0121 20.0208 27.9746 20.0913 27.9473Z" stroke="#A88EC3"/>
<path d="M23.5513 30.9238C23.7246 30.8913 23.915 30.9455 24.0396 31.0703C24.0882 31.1245 24.1317 31.184 24.1587 31.249C24.1862 31.3141 24.1967 31.3847 24.1968 31.4551C24.1968 31.6016 24.1428 31.7377 24.0396 31.8408C23.9367 31.9387 23.8007 31.999 23.6538 31.999C23.6215 31.999 23.5836 31.9929 23.5513 31.9873C23.5131 31.982 23.4801 31.9715 23.4478 31.9551C23.4154 31.9442 23.382 31.928 23.355 31.9062C23.3222 31.8901 23.2956 31.8625 23.2739 31.8408C23.171 31.7377 23.1108 31.6017 23.1108 31.4551C23.1109 31.3847 23.1278 31.3141 23.1548 31.249C23.1818 31.1839 23.2199 31.1246 23.2739 31.0703C23.2956 31.0486 23.3222 31.0266 23.355 31.0049C23.382 30.9831 23.4154 30.9669 23.4478 30.9561C23.4801 30.9399 23.5131 30.9294 23.5513 30.9238Z" fill="#A88EC3"/>
<path d="M23.5513 30.9238C23.7246 30.8913 23.915 30.9455 24.0396 31.0703C24.0882 31.1245 24.1317 31.184 24.1587 31.249C24.1862 31.3141 24.1967 31.3847 24.1968 31.4551C24.1968 31.6016 24.1428 31.7377 24.0396 31.8408C23.9367 31.9387 23.8007 31.999 23.6538 31.999C23.6215 31.999 23.5836 31.9929 23.5513 31.9873C23.5131 31.982 23.4801 31.9715 23.4478 31.9551C23.4154 31.9442 23.382 31.928 23.355 31.9062C23.3222 31.8901 23.2956 31.8625 23.2739 31.8408C23.171 31.7377 23.1108 31.6017 23.1108 31.4551C23.1109 31.3847 23.1278 31.3141 23.1548 31.249C23.1818 31.1839 23.2199 31.1246 23.2739 31.0703C23.2956 31.0486 23.3222 31.0266 23.355 31.0049C23.382 30.9831 23.4154 30.9669 23.4478 30.9561C23.4801 30.9399 23.5131 30.9294 23.5513 30.9238Z" stroke="#A88EC3"/>
<path d="M27.1338 32.5742C27.1661 32.5851 27.1991 32.5966 27.2314 32.6074C27.2643 32.6236 27.2972 32.6391 27.3301 32.6553C27.3571 32.677 27.3841 32.6993 27.4111 32.7266C27.5092 32.8241 27.5684 32.9657 27.5684 33.1123C27.5683 33.2533 27.5092 33.3947 27.4111 33.4922C27.3841 33.5194 27.3571 33.5411 27.3301 33.5625C27.2972 33.5789 27.2643 33.5949 27.2314 33.6113C27.1992 33.6222 27.1661 33.6337 27.1338 33.6445C27.0958 33.6498 27.0634 33.6494 27.0254 33.6494C26.8844 33.6494 26.743 33.5953 26.6396 33.4922C26.5422 33.3947 26.4825 33.2533 26.4824 33.1123C26.4824 32.9657 26.5422 32.8241 26.6396 32.7266C26.6943 32.6722 26.7541 32.6345 26.8193 32.6074C26.9168 32.564 27.0252 32.5526 27.1338 32.5742Z" fill="#A88EC3"/>
<path d="M27.1338 32.5742C27.1661 32.5851 27.1991 32.5966 27.2314 32.6074C27.2643 32.6236 27.2972 32.6391 27.3301 32.6553C27.3571 32.677 27.3841 32.6993 27.4111 32.7266C27.5092 32.8241 27.5684 32.9657 27.5684 33.1123C27.5683 33.2533 27.5092 33.3947 27.4111 33.4922C27.3841 33.5194 27.3571 33.5411 27.3301 33.5625C27.2972 33.5789 27.2643 33.5949 27.2314 33.6113C27.1992 33.6222 27.1661 33.6337 27.1338 33.6445C27.0958 33.6498 27.0634 33.6494 27.0254 33.6494C26.8844 33.6494 26.743 33.5953 26.6396 33.4922C26.5422 33.3947 26.4825 33.2533 26.4824 33.1123C26.4824 32.9657 26.5422 32.8241 26.6396 32.7266C26.6943 32.6722 26.7541 32.6345 26.8193 32.6074C26.9168 32.564 27.0252 32.5526 27.1338 32.5742Z" stroke="#A88EC3"/>
<path d="M25.7979 10.9941C25.9988 10.7932 26.363 10.7933 26.5693 10.9941C26.6669 11.0973 26.7265 11.2333 26.7266 11.3799C26.7266 11.5209 26.6669 11.6625 26.5693 11.7656C26.4659 11.8632 26.3247 11.9229 26.1836 11.9229C26.0426 11.9228 25.9007 11.8632 25.7979 11.7656C25.7003 11.6625 25.6406 11.5265 25.6406 11.3799C25.6406 11.3092 25.6576 11.239 25.6846 11.1738C25.7116 11.1033 25.7491 11.0429 25.7979 10.9941Z" fill="#A88EC3"/>
<path d="M25.7979 10.9941C25.9988 10.7932 26.363 10.7933 26.5693 10.9941C26.6669 11.0973 26.7265 11.2333 26.7266 11.3799C26.7266 11.5209 26.6669 11.6625 26.5693 11.7656C26.4659 11.8632 26.3247 11.9229 26.1836 11.9229C26.0426 11.9228 25.9007 11.8632 25.7979 11.7656C25.7003 11.6625 25.6406 11.5265 25.6406 11.3799C25.6406 11.3092 25.6576 11.239 25.6846 11.1738C25.7116 11.1033 25.7491 11.0429 25.7979 10.9941Z" stroke="#A88EC3"/>
<path d="M30.8491 11.1465C30.8872 11.1573 30.9198 11.1688 30.9526 11.1797C30.985 11.1959 31.0184 11.2123 31.0454 11.2285C31.0776 11.2502 31.1048 11.2719 31.1323 11.2988C31.2298 11.3966 31.2895 11.5378 31.2896 11.6787C31.2896 11.8253 31.2298 11.9613 31.1323 12.0645C31.1048 12.0917 31.0777 12.1135 31.0454 12.1299C31.0184 12.1516 30.985 12.1681 30.9526 12.1846C30.9199 12.1954 30.8871 12.2057 30.8491 12.2109C30.8168 12.2217 30.7788 12.2217 30.7466 12.2217C30.7085 12.2217 30.6757 12.2218 30.6382 12.2109C30.6054 12.2056 30.5727 12.1954 30.5347 12.1846C30.5023 12.1681 30.4748 12.1516 30.4419 12.1299C30.4149 12.1135 30.3878 12.0917 30.3608 12.0645C30.3116 12.0157 30.2687 11.9558 30.2417 11.8906C30.2147 11.8201 30.2036 11.7548 30.2036 11.6787C30.2036 11.6083 30.2147 11.5378 30.2417 11.4727C30.2687 11.4076 30.3116 11.3478 30.3608 11.2988C30.3878 11.2719 30.415 11.2502 30.4419 11.2285C30.4748 11.2123 30.5023 11.1959 30.5347 11.1797C30.5728 11.1688 30.6053 11.1573 30.6382 11.1465C30.7085 11.1357 30.7788 11.1357 30.8491 11.1465Z" fill="#A88EC3"/>
<path d="M30.8491 11.1465C30.8872 11.1573 30.9198 11.1688 30.9526 11.1797C30.985 11.1959 31.0184 11.2123 31.0454 11.2285C31.0776 11.2502 31.1048 11.2719 31.1323 11.2988C31.2298 11.3966 31.2895 11.5378 31.2896 11.6787C31.2896 11.8253 31.2298 11.9613 31.1323 12.0645C31.1048 12.0917 31.0777 12.1135 31.0454 12.1299C31.0184 12.1516 30.985 12.1681 30.9526 12.1846C30.9199 12.1954 30.8871 12.2057 30.8491 12.2109C30.8168 12.2217 30.7788 12.2217 30.7466 12.2217C30.7085 12.2217 30.6757 12.2218 30.6382 12.2109C30.6054 12.2056 30.5727 12.1954 30.5347 12.1846C30.5023 12.1681 30.4748 12.1516 30.4419 12.1299C30.4149 12.1135 30.3878 12.0917 30.3608 12.0645C30.3116 12.0157 30.2687 11.9558 30.2417 11.8906C30.2147 11.8201 30.2036 11.7548 30.2036 11.6787C30.2036 11.6083 30.2147 11.5378 30.2417 11.4727C30.2687 11.4076 30.3116 11.3478 30.3608 11.2988C30.3878 11.2719 30.415 11.2502 30.4419 11.2285C30.4748 11.2123 30.5023 11.1959 30.5347 11.1797C30.5728 11.1688 30.6053 11.1573 30.6382 11.1465C30.7085 11.1357 30.7788 11.1357 30.8491 11.1465Z" stroke="#A88EC3"/>
<path d="M22.9478 17.4688C23.1269 17.4362 23.3109 17.4904 23.436 17.6152C23.4848 17.6693 23.5291 17.7287 23.5562 17.7939C23.5831 17.8588 23.5991 17.9296 23.5991 18C23.5991 18.1466 23.5389 18.2826 23.436 18.3857C23.3379 18.4888 23.1972 18.5439 23.0503 18.5439C23.018 18.5439 22.9801 18.543 22.9478 18.5322C22.9149 18.5267 22.8771 18.5158 22.8442 18.5049C22.8119 18.4887 22.7785 18.4729 22.7515 18.4512C22.7192 18.4347 22.6921 18.4127 22.6704 18.3857C22.5671 18.2826 22.5073 18.1465 22.5073 18C22.5074 17.9296 22.5243 17.8588 22.5513 17.7939C22.5788 17.729 22.616 17.6692 22.6704 17.6152C22.6921 17.5936 22.7192 17.5715 22.7515 17.5498C22.7785 17.5281 22.8119 17.5118 22.8442 17.501C22.8771 17.4846 22.9149 17.474 22.9478 17.4688Z" fill="#A88EC3"/>
<path d="M22.9478 17.4688C23.1269 17.4362 23.3109 17.4904 23.436 17.6152C23.4848 17.6693 23.5291 17.7287 23.5562 17.7939C23.5831 17.8588 23.5991 17.9296 23.5991 18C23.5991 18.1466 23.5389 18.2826 23.436 18.3857C23.3379 18.4888 23.1972 18.5439 23.0503 18.5439C23.018 18.5439 22.9801 18.543 22.9478 18.5322C22.9149 18.5267 22.8771 18.5158 22.8442 18.5049C22.8119 18.4887 22.7785 18.4729 22.7515 18.4512C22.7192 18.4347 22.6921 18.4127 22.6704 18.3857C22.5671 18.2826 22.5073 18.1465 22.5073 18C22.5074 17.9296 22.5243 17.8588 22.5513 17.7939C22.5788 17.729 22.616 17.6692 22.6704 17.6152C22.6921 17.5936 22.7192 17.5715 22.7515 17.5498C22.7785 17.5281 22.8119 17.5118 22.8442 17.501C22.8771 17.4846 22.9149 17.474 22.9478 17.4688Z" stroke="#A88EC3"/>
<path d="M29.2041 8.19824C29.3833 8.16563 29.5682 8.21984 29.6934 8.34473C29.7965 8.44775 29.8563 8.58868 29.8564 8.72949C29.8564 8.87604 29.7967 9.01211 29.6934 9.11523C29.5958 9.21308 29.4536 9.27344 29.3125 9.27344C29.275 9.27339 29.2368 9.26726 29.2041 9.26172C29.1718 9.2564 29.1338 9.24562 29.1016 9.22949C29.0687 9.21862 29.0358 9.20241 29.0088 9.18066C28.976 9.16448 28.9494 9.13691 28.9277 9.11523C28.8737 9.06649 28.8356 9.00697 28.8086 8.93652C28.7815 8.8713 28.7646 8.80029 28.7646 8.72949C28.7648 8.58859 28.825 8.44776 28.9277 8.34473C28.9494 8.32302 28.976 8.30074 29.0088 8.2793C29.0358 8.25755 29.0687 8.24134 29.1016 8.23047C29.1338 8.21436 29.1718 8.20382 29.2041 8.19824Z" fill="#A88EC3"/>
<path d="M29.2041 8.19824C29.3833 8.16563 29.5682 8.21984 29.6934 8.34473C29.7965 8.44775 29.8563 8.58868 29.8564 8.72949C29.8564 8.87604 29.7967 9.01211 29.6934 9.11523C29.5958 9.21308 29.4536 9.27344 29.3125 9.27344C29.275 9.27339 29.2368 9.26726 29.2041 9.26172C29.1718 9.2564 29.1338 9.24562 29.1016 9.22949C29.0687 9.21862 29.0358 9.20241 29.0088 9.18066C28.976 9.16448 28.9494 9.13691 28.9277 9.11523C28.8737 9.06649 28.8356 9.00697 28.8086 8.93652C28.7815 8.8713 28.7646 8.80029 28.7646 8.72949C28.7648 8.58859 28.825 8.44776 28.9277 8.34473C28.9494 8.32302 28.976 8.30074 29.0088 8.2793C29.0358 8.25755 29.0687 8.24134 29.1016 8.23047C29.1338 8.21436 29.1718 8.20382 29.2041 8.19824Z" stroke="#A88EC3"/>
</svg>
