<svg width="20" height="20" viewBox="0 0 20 20" fill="none" xmlns="http://www.w3.org/2000/svg">
<path fill-rule="evenodd" clip-rule="evenodd" d="M15.2919 7.16206C16.0554 7.9255 16.4371 8.93112 16.4371 9.93711C16.4371 10.9431 16.0554 11.9487 15.2919 12.7122C14.7826 13.2215 14.1629 13.5613 13.5064 13.7308C12.9428 13.8765 12.3527 13.8954 11.783 13.7885L12.1617 14.4912C12.232 14.6219 12.1828 14.7845 12.0525 14.8549C11.9218 14.9252 11.7592 14.876 11.6889 14.7457L11.0127 13.4914C10.9423 13.3607 10.9915 13.1981 11.1219 13.1277L12.3762 12.4515C12.5069 12.3812 12.6695 12.4304 12.7398 12.5607C12.8102 12.691 12.761 12.854 12.6307 12.9244L11.9764 13.2772C12.4408 13.3514 12.9178 13.3295 13.3737 13.2119C13.9369 13.0666 14.4701 12.7733 14.9114 12.332C15.5695 11.6739 15.8985 10.8059 15.8985 9.9375C15.8985 9.06912 15.5695 8.20151 14.9114 7.54301C14.2533 6.8849 13.3853 6.55585 12.5169 6.55585C11.6485 6.55585 10.7809 6.8849 10.1224 7.54301L8.11271 9.5527C8.17114 9.66841 8.20458 9.79911 8.20458 9.9375C8.20458 10.4096 7.8194 10.7943 7.34773 10.7943C6.87606 10.7943 6.49089 10.4092 6.49089 9.9375C6.49089 9.46583 6.87606 9.08065 7.34773 9.08065C7.48612 9.08065 7.61682 9.11371 7.73253 9.17252L9.74222 7.16283C10.5057 6.3994 11.5113 6.01768 12.5173 6.01768C13.5233 6.01768 14.5289 6.3994 15.2923 7.16283L15.2919 7.16206ZM10.1228 12.7118L12.1325 10.7021C12.2482 10.7605 12.3789 10.794 12.5173 10.794C12.9893 10.794 13.3741 10.4088 13.3741 9.93711C13.3741 9.46544 12.9889 9.08027 12.5173 9.08027C12.0456 9.08027 11.6604 9.46544 11.6604 9.93711C11.6604 10.0755 11.6935 10.2062 11.7523 10.3219L9.7426 12.3316C9.08449 12.9897 8.2165 13.3188 7.34812 13.3188C6.47974 13.3188 5.61213 12.9897 4.95363 12.3316C4.29552 11.6735 3.96647 10.8055 3.96647 9.93711C3.96647 9.06873 4.29552 8.20112 4.95363 7.54263C5.40032 7.09594 5.9431 6.80072 6.51664 6.65733C6.96525 6.54509 7.43307 6.5251 7.88821 6.59775L7.23395 6.95025C7.10325 7.0206 7.05443 7.18321 7.12478 7.3139C7.19512 7.4446 7.35773 7.49342 7.48843 7.42308L8.74275 6.7469C8.87345 6.67655 8.92227 6.51395 8.85193 6.38325L8.17575 5.12892C8.1054 4.99822 7.9428 4.9494 7.8121 5.01975C7.6814 5.0901 7.63258 5.2527 7.70293 5.3834L8.08157 6.08572C7.52072 5.98 6.94103 5.99692 6.38594 6.13569C5.72014 6.30252 5.09048 6.64426 4.57268 7.16206C3.80925 7.9255 3.42753 8.93112 3.42753 9.93711C3.42753 10.9431 3.80925 11.9487 4.57268 12.7122C5.33612 13.4756 6.34173 13.8573 7.34735 13.8573C8.35296 13.8573 9.35896 13.4756 10.122 12.7122L10.1228 12.7118ZM3.92726 4.23017C3.95071 4.23286 3.97377 4.23248 3.99607 4.2294L5.44914 4.05719C5.59675 4.03989 5.70208 3.90612 5.68439 3.7585C5.6671 3.61089 5.53332 3.50556 5.38571 3.52325L4.69723 3.60474L5.81202 2.48995C6.94641 1.35556 8.43907 0.788173 9.93212 0.788173C11.4252 0.788173 12.9178 1.35556 14.0522 2.48995L14.6388 3.07656C14.7438 3.18151 14.9141 3.18151 15.0194 3.07656C15.1243 2.97162 15.1243 2.80132 15.0194 2.696L14.4328 2.10939C13.1934 0.869668 11.5628 0.25 9.9325 0.25C8.30222 0.25 6.67156 0.869668 5.43184 2.10939L4.31705 3.22456L4.39855 2.53608C4.41584 2.38847 4.31052 2.25508 4.16329 2.2374C4.01567 2.2201 3.88228 2.32543 3.8646 2.47265L3.69162 3.93149C3.67432 4.0791 3.77965 4.21249 3.92688 4.23017H3.92726ZM15.9381 15.6441C15.9147 15.6414 15.8916 15.6417 15.8693 15.6448L14.4163 15.817C14.2686 15.8343 14.1633 15.9681 14.181 16.1157C14.1983 16.2633 14.3321 16.3687 14.4797 16.351L15.1682 16.2695L14.053 17.3843C12.9186 18.5187 11.4259 19.0861 9.93289 19.0861V19.0872C8.44061 19.0872 6.94795 18.5194 5.81279 17.3847L5.22618 16.7981C5.12123 16.6931 4.95094 16.6931 4.84561 16.7981C4.74067 16.903 4.74067 17.0733 4.84561 17.1786L5.43222 17.7652C6.67117 19.0042 8.30184 19.6235 9.93289 19.6235V19.6246C11.5632 19.6246 13.1938 19.0049 14.4336 17.7652L15.5483 16.6504L15.4668 17.3389C15.4495 17.4865 15.5549 17.6199 15.7021 17.6376C15.8497 17.6549 15.9831 17.5496 16.0008 17.4023L16.1738 15.9435C16.1911 15.7959 16.0857 15.6625 15.9385 15.6448L15.9381 15.6441ZM17.7602 5.43645L16.6454 4.32128L17.3339 4.40277C17.4815 4.42007 17.6149 4.31474 17.6326 4.16752C17.6499 4.0199 17.5446 3.88651 17.3973 3.86883L15.9385 3.69584C15.7909 3.67855 15.6575 3.78387 15.6398 3.9311C15.6371 3.95455 15.6375 3.97762 15.6406 3.99991L15.8128 5.45298C15.8301 5.60059 15.9639 5.70592 16.1115 5.68824C16.2591 5.67094 16.3644 5.53717 16.3468 5.38955L16.2653 4.70108L17.38 5.81586C18.5144 6.95025 19.0818 8.44291 19.0818 9.93596C19.0818 11.429 18.5144 12.9217 17.38 14.0561L16.7934 14.6427C16.6885 14.7476 16.6885 14.9179 16.7934 15.0232C16.8984 15.1282 17.0687 15.1282 17.174 15.0232L17.7606 14.4366C19.0003 13.1969 19.62 11.5666 19.62 9.93596C19.62 8.3053 19.0003 6.67502 17.7606 5.4353L17.7602 5.43645ZM4.05719 14.4251C4.03989 14.2775 3.90612 14.1722 3.7585 14.1898C3.61089 14.2071 3.50556 14.3409 3.52325 14.4885L3.60474 15.177L2.48995 14.0622C1.35556 12.9278 0.788173 11.4352 0.788173 9.94211H0.78702C0.78702 8.44983 1.35479 6.95717 2.48957 5.82201L3.07618 5.2354C3.18112 5.13046 3.18112 4.96017 3.07618 4.85484C2.97123 4.7499 2.80094 4.7499 2.69561 4.85484L2.109 5.44145C0.870436 6.68001 0.251153 8.31068 0.251153 9.94173H0.25C0.25 11.572 0.869668 13.2027 2.10939 14.4424L3.22417 15.5572L2.5357 15.4757C2.38808 15.4584 2.25469 15.5637 2.23701 15.7109C2.21971 15.8586 2.32504 15.9919 2.47227 16.0096L3.9311 16.1826C4.07872 16.1999 4.21211 16.0946 4.22979 15.9474C4.23248 15.9239 4.2321 15.9008 4.22902 15.8785L4.05681 14.4255L4.05719 14.4251Z" fill="#A88EC3" stroke="#A88EC3" stroke-width="0.5"/>
</svg>
