<svg width="53" height="52" viewBox="0 0 53 52" fill="none" xmlns="http://www.w3.org/2000/svg">
<path d="M0.75 24.5801H51.75" stroke="#A88EC3" stroke-width="1.5" stroke-miterlimit="10" stroke-linecap="round" stroke-linejoin="round"/>
<path d="M0.75 29.3809C7.12492 29.3809 7.12492 31.5502 13.4997 31.5502C19.8745 31.5502 19.8745 29.3809 26.2494 29.3809C32.6245 29.3809 32.6245 31.5502 38.9996 31.5502C45.3748 31.5502 45.3748 29.3809 51.7499 29.3809" stroke="#A88EC3" stroke-width="1.5" stroke-miterlimit="10" stroke-linecap="round" stroke-linejoin="round"/>
<path d="M4.11692 39.0792C5.33029 39.0792 6.31392 38.396 6.31392 37.5533C6.31392 36.7105 5.33029 36.0273 4.11692 36.0273C2.90355 36.0273 1.91992 36.7105 1.91992 37.5533C1.91992 38.396 2.90355 39.0792 4.11692 39.0792Z" stroke="#A88EC3" stroke-width="1.5" stroke-miterlimit="10" stroke-linecap="round" stroke-linejoin="round"/>
<path d="M15.3728 39.0792C16.5861 39.0792 17.5698 38.396 17.5698 37.5533C17.5698 36.7105 16.5861 36.0273 15.3728 36.0273C14.1594 36.0273 13.1758 36.7105 13.1758 37.5533C13.1758 38.396 14.1594 39.0792 15.3728 39.0792Z" stroke="#A88EC3" stroke-width="1.5" stroke-miterlimit="10" stroke-linecap="round" stroke-linejoin="round"/>
<path d="M26.6247 39.0792C27.8381 39.0792 28.8217 38.396 28.8217 37.5533C28.8217 36.7105 27.8381 36.0273 26.6247 36.0273C25.4114 36.0273 24.4277 36.7105 24.4277 37.5533C24.4277 38.396 25.4114 39.0792 26.6247 39.0792Z" stroke="#A88EC3" stroke-width="1.5" stroke-miterlimit="10" stroke-linecap="round" stroke-linejoin="round"/>
<path d="M37.8786 39.0792C39.092 39.0792 40.0756 38.396 40.0756 37.5533C40.0756 36.7105 39.092 36.0273 37.8786 36.0273C36.6653 36.0273 35.6816 36.7105 35.6816 37.5533C35.6816 38.396 36.6653 39.0792 37.8786 39.0792Z" stroke="#A88EC3" stroke-width="1.5" stroke-miterlimit="10" stroke-linecap="round" stroke-linejoin="round"/>
<path d="M9.74583 46.2706C10.9592 46.2706 11.9428 45.5875 11.9428 44.7447C11.9428 43.9019 10.9592 43.2188 9.74583 43.2188C8.53246 43.2188 7.54883 43.9019 7.54883 44.7447C7.54883 45.5875 8.53246 46.2706 9.74583 46.2706Z" stroke="#A88EC3" stroke-width="1.5" stroke-miterlimit="10" stroke-linecap="round" stroke-linejoin="round"/>
<path d="M20.9978 46.2706C22.2111 46.2706 23.1948 45.5875 23.1948 44.7447C23.1948 43.9019 22.2111 43.2188 20.9978 43.2188C19.7844 43.2188 18.8008 43.9019 18.8008 44.7447C18.8008 45.5875 19.7844 46.2706 20.9978 46.2706Z" stroke="#A88EC3" stroke-width="1.5" stroke-miterlimit="10" stroke-linecap="round" stroke-linejoin="round"/>
<path d="M32.2517 46.2706C33.4651 46.2706 34.4487 45.5875 34.4487 44.7447C34.4487 43.9019 33.4651 43.2188 32.2517 43.2188C31.0383 43.2188 30.0547 43.9019 30.0547 44.7447C30.0547 45.5875 31.0383 46.2706 32.2517 46.2706Z" stroke="#A88EC3" stroke-width="1.5" stroke-miterlimit="10" stroke-linecap="round" stroke-linejoin="round"/>
<path d="M43.5056 46.2706C44.719 46.2706 45.7026 45.5875 45.7026 44.7447C45.7026 43.9019 44.719 43.2188 43.5056 43.2188C42.2922 43.2188 41.3086 43.9019 41.3086 44.7447C41.3086 45.5875 42.2922 46.2706 43.5056 46.2706Z" stroke="#A88EC3" stroke-width="1.5" stroke-miterlimit="10" stroke-linecap="round" stroke-linejoin="round"/>
<path d="M49.1306 39.0792C50.344 39.0792 51.3276 38.396 51.3276 37.5533C51.3276 36.7105 50.344 36.0273 49.1306 36.0273C47.9172 36.0273 46.9336 36.7105 46.9336 37.5533C46.9336 38.396 47.9172 39.0792 49.1306 39.0792Z" stroke="#A88EC3" stroke-width="1.5" stroke-miterlimit="10" stroke-linecap="round" stroke-linejoin="round"/>
<path d="M2.79297 50.75H4.11766" stroke="#A88EC3" stroke-width="1.5" stroke-miterlimit="10" stroke-linecap="round" stroke-linejoin="round"/>
<path d="M14.709 50.75H16.0336" stroke="#A88EC3" stroke-width="1.5" stroke-miterlimit="10" stroke-linecap="round" stroke-linejoin="round"/>
<path d="M25.9629 50.75H27.2876" stroke="#A88EC3" stroke-width="1.5" stroke-miterlimit="10" stroke-linecap="round" stroke-linejoin="round"/>
<path d="M37.2148 50.75H38.5395" stroke="#A88EC3" stroke-width="1.5" stroke-miterlimit="10" stroke-linecap="round" stroke-linejoin="round"/>
<path d="M48.4688 50.75H49.7933" stroke="#A88EC3" stroke-width="1.5" stroke-miterlimit="10" stroke-linecap="round" stroke-linejoin="round"/>
<path d="M31.6174 14.3603C31.6174 16.9806 29.214 19.3639 26.2491 19.3639C23.2843 19.3639 20.8809 16.9806 20.8809 14.3603C20.8809 9.05343 26.2491 0.75 26.2491 0.75C26.2491 0.75 31.6174 9.05343 31.6174 14.3603Z" stroke="#A88EC3" stroke-width="1.5" stroke-miterlimit="10" stroke-linecap="round" stroke-linejoin="round"/>
<path d="M14.2884 12.619C14.2884 14.1796 12.8571 15.5989 11.0915 15.5989C9.32585 15.5989 7.89453 14.1796 7.89453 12.619C7.89453 9.45868 11.0915 4.51367 11.0915 4.51367C11.0915 4.51367 14.2884 9.45868 14.2884 12.619Z" stroke="#A88EC3" stroke-width="1.5" stroke-miterlimit="10" stroke-linecap="round" stroke-linejoin="round"/>
<path d="M45.3548 12.619C45.3548 14.1796 43.9235 15.5989 42.1579 15.5989C40.3923 15.5989 38.9609 14.1796 38.9609 12.619C38.9609 9.45868 42.1579 4.51367 42.1579 4.51367C42.1579 4.51367 45.3548 9.45868 45.3548 12.619Z" stroke="#A88EC3" stroke-width="1.5" stroke-miterlimit="10" stroke-linecap="round" stroke-linejoin="round"/>
</svg>
