<svg width="55" height="67" viewBox="0 0 55 67" fill="none" xmlns="http://www.w3.org/2000/svg">
<mask id="path-1-outside-1_29_1785" maskUnits="userSpaceOnUse" x="-0.898438" y="-0.900391" width="56" height="68" fill="black">
<rect fill="white" x="-0.898438" y="-0.900391" width="56" height="68"/>
<path fill-rule="evenodd" clip-rule="evenodd" d="M44.8782 10.309C43.4044 10.309 42.2093 9.11388 42.2093 7.64014C42.2093 6.47516 42.9654 5.44581 44.0714 5.09544V4.93941C44.0714 3.87822 45.6849 3.87822 45.6849 4.93941V5.09544C46.7909 5.44581 47.5471 6.47516 47.5471 7.64014C47.5471 8.70134 45.9336 8.70134 45.9336 7.64014C45.9336 6.25049 43.8228 6.25049 43.8228 7.64014C43.8228 8.22332 44.295 8.69555 44.8782 8.69555C46.3519 8.69555 47.5471 9.89071 47.5471 11.3644C47.5471 12.5294 46.7909 13.5588 45.6849 13.9092V14.0652C45.6849 15.1264 44.0714 15.1264 44.0714 14.0652V13.9092C42.9654 13.5588 42.2093 12.5294 42.2093 11.3644C42.2093 10.3033 43.8228 10.3033 43.8228 11.3644C43.8228 12.7541 45.9336 12.7541 45.9336 11.3644C45.9336 10.7813 45.4613 10.309 44.8782 10.309ZM33.4831 4.64871C31.6692 5.29847 29.1892 5.46153 27.287 5.46153C25.3847 5.46153 22.9055 5.29847 21.0909 4.64871C21.3671 6.11541 21.6435 7.58198 21.9197 9.04854C22.4399 9.47073 22.8122 10.0401 23.0152 10.6691C24.3031 10.8046 25.7523 10.8806 27.287 10.8806C28.8216 10.8806 30.271 10.8046 31.5589 10.6691C31.7619 10.0401 32.1342 9.47073 32.6544 9.04854C32.9306 7.58198 33.2069 6.11541 33.4832 4.64871H33.4831ZM34.6569 7.11127L35.4031 3.14962C35.441 3.03039 35.4604 2.90731 35.4604 2.7805C35.4604 0.335169 28.9599 0.0996094 27.2868 0.0996094C25.6138 0.0996094 19.1132 0.335169 19.1132 2.7805C19.1132 2.90731 19.1328 3.03039 19.1706 3.14962L19.9249 7.15469C18.8553 7.44593 16.4569 8.09073 16.4569 9.50216C16.4569 10.0429 16.4985 10.6789 16.5425 11.3526C16.7779 14.9546 17.09 17.3856 13.2745 18.3459C10.2992 19.0946 9.49635 21.5777 10.0077 24.3557C10.6685 27.9419 12.2784 32.592 13.2984 36.2216C12.4468 35.0368 11.4883 33.513 10.4988 32.509C9.67857 31.6768 8.89814 31.544 7.80773 31.8378C7.69608 29.1004 7.69953 26.1665 7.369 23.4746C6.85681 19.2777 1.23356 18.7233 0.881525 23.2928C0.527703 27.8874 -0.295585 36.5626 0.328532 40.9015C0.887039 44.7858 3.10687 48.3858 6.19534 50.7799C7.72269 51.9639 9.37257 53.4518 9.78015 55.4199C9.91991 56.0948 9.90516 56.7418 9.8255 57.3262L7.11346 58.3008C6.70739 58.4464 6.49086 58.8851 6.61656 59.2932L6.6156 59.2935L8.58539 65.6817C8.72516 66.1366 9.22605 66.3699 9.66382 66.1879L23.8618 61.0858C24.2678 60.9402 24.4844 60.5015 24.3587 60.0934L24.3596 60.0931L22.3898 53.7049C22.2501 53.25 21.7492 53.0166 21.3114 53.1987L20.6891 53.4223C20.7256 53.018 20.7737 52.5934 20.8229 52.16C21.0661 50.0168 21.3317 47.6749 20.4327 45.6372C20.3204 45.3827 20.1904 45.1253 20.0457 44.8658C24.8581 45.5778 29.7406 45.529 34.5506 44.8239C34.3964 45.0976 34.2584 45.369 34.14 45.6372C33.241 47.6749 33.5066 50.0168 33.7498 52.16C33.799 52.5934 33.8471 53.018 33.8836 53.4223L33.2613 53.1987C32.8235 53.0166 32.3226 53.25 32.1829 53.7049L30.2131 60.0931L30.214 60.0934C30.0883 60.5015 30.3049 60.9402 30.7109 61.0858L44.909 66.1879C45.3468 66.3699 45.8477 66.1366 45.9875 65.6817L47.9573 59.2935L47.9563 59.2932C48.0821 58.8851 47.8655 58.4464 47.4594 58.3008L44.7475 57.3262C44.6678 56.7418 44.6531 56.0948 44.7928 55.4199C45.2004 53.4518 46.8503 51.9637 48.3777 50.7799C49.0456 50.262 49.6598 49.7861 50.5594 48.718C52.5218 46.3882 53.8067 43.9464 54.2446 40.9015C54.8687 36.5627 54.0454 27.8874 53.6916 23.2928C53.3396 18.7233 47.7162 19.2777 47.2041 23.4746C46.8736 26.1665 46.8772 29.1004 46.7654 31.8378C45.675 31.544 44.8946 31.6769 44.0743 32.509C43.0848 33.5129 42.1263 35.0366 41.2747 36.2215C42.2931 32.5982 43.9071 27.9329 44.5654 24.3555C45.0768 21.5776 44.2739 19.0944 41.2987 18.3458C38.9121 17.7451 38.1099 17.0741 37.9564 14.2183C39.5183 16.5061 42.0958 17.8769 44.8776 17.8769C49.5027 17.8769 53.2525 14.1271 53.2525 9.50202C53.2525 4.87697 49.5027 1.12717 44.8776 1.12717C40.8852 1.12717 37.4436 3.95072 36.6648 7.85503C36.0247 7.54297 35.3336 7.32753 34.6565 7.111L34.6569 7.11127ZM36.4235 11.2589C35.3717 11.7114 34.1425 11.9443 33.01 12.1112C33.041 12.3242 33.1054 12.5342 33.2055 12.7325C33.4436 13.1522 33.2614 13.6896 32.8124 13.8741C31.113 14.5774 29.1189 14.8661 27.287 14.8661C25.455 14.8661 23.4605 14.5761 21.7616 13.8741C21.3125 13.6896 21.1303 13.1522 21.3685 12.7325C21.4686 12.5344 21.5329 12.3242 21.5639 12.1112C20.4315 11.9443 19.2023 11.7112 18.1505 11.2589C18.448 15.8111 18.6196 18.6628 13.6656 19.909C11.5617 20.4384 11.2391 22.16 11.5901 24.0658C12.4273 28.6181 14.5927 34.874 15.8984 39.5201C16.8977 40.6719 17.9183 41.8151 18.8334 43.0355C24.4545 44.0535 30.1458 43.9823 35.7664 43.001C36.6753 41.7934 37.6857 40.6614 38.6757 39.5201C39.9816 34.8737 42.1468 28.6183 42.984 24.0658C43.335 22.16 43.0124 20.4384 40.9085 19.909C35.9545 18.6628 36.1259 15.811 36.4235 11.2589ZM31.414 12.3041C31.4296 12.4196 31.4508 12.5347 31.4776 12.6491C30.1443 13.0721 28.6813 13.2526 27.2868 13.2526C25.8924 13.2526 24.4292 13.0713 23.0962 12.6488C23.123 12.5345 23.1441 12.4194 23.1596 12.3041C24.425 12.4263 25.8214 12.4941 27.2867 12.4941C28.752 12.4941 30.1487 12.4262 31.414 12.3041ZM20.2242 8.74296C20.4315 9.84344 20.2342 9.64247 21.0094 10.3871C20.5132 10.2966 18.0705 9.79409 18.0705 9.50229C18.0705 9.34392 19.3098 8.99134 20.2242 8.74296ZM33.5644 10.3869C34.3625 9.62028 34.1466 9.82014 34.3572 8.70202C35.2624 8.9912 36.5032 9.39065 36.5032 9.50216C36.5032 9.79409 34.0605 10.2965 33.5643 10.3869H33.5644ZM44.8782 2.7408C41.1438 2.7408 38.1168 5.76779 38.1168 9.50216C38.1168 13.2365 41.1438 16.2635 44.8782 16.2635C48.6125 16.2635 51.6395 13.2365 51.6395 9.50216C51.6395 5.76779 48.6125 2.7408 44.8782 2.7408ZM28.8121 7.2651C29.7903 6.86303 30.4018 8.35041 29.4234 8.75247C28.181 9.26646 26.4256 9.27252 25.1671 8.75247C24.1889 8.35041 24.8002 6.86303 25.7784 7.2651C26.6193 7.61244 27.9712 7.61285 28.812 7.2651H28.8121ZM33.8391 2.759C33.7058 3.46623 28.1221 3.84789 27.287 3.84789C26.4518 3.84789 20.8683 3.46623 20.7349 2.759C21.2101 2.07658 26.408 1.7131 27.287 1.7131C28.166 1.7131 33.3637 2.07658 33.8391 2.759ZM26.4802 16.9334C26.4802 15.8722 28.0937 15.8722 28.0937 16.9334V17.0955C29.2083 17.4464 29.9709 18.4828 29.9709 19.656C29.9709 20.7172 28.3574 20.7172 28.3574 19.656C28.3574 18.2465 26.2166 18.2465 26.2166 19.656C26.2166 20.2475 26.6957 20.7265 27.287 20.7265C28.769 20.7265 29.9709 21.9284 29.9709 23.4104C29.9709 24.5836 29.2081 25.62 28.0937 25.9709V26.133C28.0937 27.1942 26.4802 27.1942 26.4802 26.133V25.9709C25.3657 25.62 24.6031 24.5836 24.6031 23.4104C24.6031 22.3492 26.2166 22.3492 26.2166 23.4104C26.2166 24.8199 28.3574 24.8199 28.3574 23.4104C28.3574 22.8189 27.8783 22.34 27.287 22.34C25.805 22.34 24.6031 21.138 24.6031 19.656C24.6031 18.4828 25.3658 17.4464 26.4802 17.0955V16.9334ZM48.0832 35.9309C48.8281 32.1782 48.3335 27.5507 48.8036 23.6851C49.428 21.0365 51.8977 20.9823 52.0849 23.4126C52.4288 27.8768 53.2547 36.4742 52.6505 40.6745C52.257 43.4108 51.0935 45.5915 49.3309 47.6842C48.5501 48.6113 47.9968 49.0402 47.395 49.5067C45.5246 50.9566 43.7162 52.6914 43.2178 55.0985C43.0997 55.6693 43.0644 56.2148 43.0811 56.7272L35.5396 54.017C35.5076 53.3605 35.4307 52.6828 35.3513 51.9834C35.1314 50.0456 34.8912 47.9279 35.6155 46.2863C36.8263 43.5419 39.8947 40.8422 41.7416 38.3205C42.7791 36.9042 44.0656 34.8102 45.2218 33.6372C46.5978 32.2412 46.6713 34.7659 46.5013 35.622C46.3253 36.5087 45.8402 37.5877 45.4703 38.4111C44.9263 39.6218 44.3012 40.8391 43.8838 41.6114C43.686 41.9774 43.5395 42.2349 43.4301 42.4142C43.3362 42.5681 43.2789 42.6516 43.244 42.6924C42.5567 43.4954 43.7793 44.5417 44.4667 43.7386C44.5537 43.6373 44.6616 43.486 44.8041 43.2526C44.9311 43.0446 45.0925 42.7616 45.302 42.3739C45.726 41.5894 46.3668 40.3401 46.9389 39.0665C47.3651 38.1181 47.8799 36.9553 48.0834 35.9308L48.0832 35.9309ZM33.4733 54.982C37.7149 56.5063 41.955 58.0298 46.1942 59.5533L44.6984 64.4044L31.9775 59.8331L33.4733 54.982ZM5.77039 23.6854C6.2484 27.617 5.76557 32.2779 6.49072 35.9312C6.52614 36.1094 6.57066 36.2904 6.62497 36.4723C6.85212 37.2328 7.22428 38.1527 7.63516 39.0671C8.20745 40.3407 8.84825 41.59 9.27209 42.3744C9.4816 42.762 9.643 43.0451 9.76995 43.2531C9.91247 43.4866 10.0205 43.6378 10.1074 43.7391C10.7946 44.5423 12.0173 43.496 11.3301 42.6929C11.2951 42.6521 11.2379 42.5688 11.144 42.4148C11.0346 42.2353 10.8881 41.9779 10.6903 41.6119C10.2729 40.8396 9.64783 39.6224 9.10379 38.4117C8.72309 37.5644 8.37864 36.7134 8.16913 36.0124C8.13054 35.8831 8.09856 35.7527 8.07265 35.6226C7.94267 34.9677 7.97368 34.3473 8.09374 33.8765C8.26314 33.2118 8.70269 32.9789 9.35217 33.6377C10.5083 34.8107 11.795 36.9047 12.8324 38.3211C14.6792 40.8428 17.7477 43.5423 18.9584 46.2868C19.6826 47.9285 19.4424 50.0462 19.2227 51.984C19.1433 52.6834 19.0665 53.3611 19.0344 54.0176L11.4929 56.7277C11.5096 56.2155 11.4744 55.6698 11.3562 55.0991C10.8577 52.6919 9.04935 50.9571 7.17893 49.5072C4.41823 47.3672 2.42293 44.1488 1.92342 40.675C1.31929 36.4748 2.1452 27.8773 2.48909 23.4131C2.67627 20.983 5.146 21.037 5.77039 23.6856V23.6854ZM8.37975 59.5536C12.619 58.0301 16.8592 56.5066 21.1007 54.9823L22.5965 59.8334L9.87553 64.4047L8.37975 59.5536ZM35.9199 33.2304C36.1183 33.9746 34.4234 35.0193 33.8623 35.3082C32.5425 35.9875 30.9222 36.4216 29.4306 36.486C28.7744 36.5142 26.8766 36.4556 26.65 35.6941L26.5905 35.4722C27.2376 35.6394 28.0095 35.7093 28.8513 35.6729C30.5782 35.5986 32.4213 35.1062 33.9512 34.3186C34.7172 33.9243 35.367 33.4683 35.8551 32.9884L35.9199 33.2303V33.2304ZM36.8403 30.4398L37.4775 32.8182C37.9396 34.5892 35.9538 36.0417 34.5995 36.7389C33.0697 37.5265 31.2269 38.0187 29.4998 38.0931C28.1909 38.1495 26.3023 37.9634 25.4404 36.8275C23.9143 37.0678 22.2807 37.0355 20.7739 36.7006C19.3076 36.3746 17.0283 35.4765 17.0283 33.671C17.0283 32.9345 16.955 31.7548 17.0339 31.0718C17.0809 30.0732 17.8799 29.2269 19.148 28.6597C21.2863 27.7031 24.4131 27.6288 26.6819 28.2812C27.4768 28.5097 28.162 28.8258 28.6843 29.205C30.363 28.5926 32.3978 28.2483 34.1338 28.5263C35.2023 28.6975 36.5889 29.2452 36.8403 30.4401V30.4398ZM24.8716 35.2827C23.6565 35.4392 22.3157 35.3968 21.1205 35.1312C20.5645 35.0075 18.642 34.4281 18.642 33.671V33.4157C19.2243 33.7448 19.9517 34.0122 20.774 34.195C22.0319 34.4747 23.3588 34.5395 24.6411 34.4222L24.8717 35.2827H24.8716ZM26.8631 31.9945C28.5428 30.6295 31.7447 29.7722 33.8817 30.1143C34.6581 30.2386 35.1833 30.4819 35.2726 30.8147C35.4715 31.557 33.7135 32.6307 33.2137 32.8879C31.8941 33.5672 30.2734 34.0015 28.7821 34.0656C28.1836 34.0914 26.2463 34.0405 26.0065 33.2916C25.9231 32.9586 26.2561 32.4876 26.8633 31.9943L26.8631 31.9945ZM25.8484 30.7465C25.0616 31.3859 24.5545 32.1036 24.4201 32.8241C23.3372 32.9171 22.1823 32.8616 21.1204 32.6256C20.2898 32.4409 19.6039 32.1647 19.1419 31.8314C18.8926 31.6515 18.6553 31.4491 18.6407 31.1251C18.6738 30.7924 19.1117 30.4375 19.8032 30.1282C21.5987 29.325 24.3341 29.2835 26.2405 29.8316C26.4664 29.8965 26.6777 29.9682 26.8728 30.0456C26.4918 30.2675 26.1479 30.5032 25.8483 30.7467L25.8484 30.7465Z"/>
</mask>
<path fill-rule="evenodd" clip-rule="evenodd" d="M44.8782 10.309C43.4044 10.309 42.2093 9.11388 42.2093 7.64014C42.2093 6.47516 42.9654 5.44581 44.0714 5.09544V4.93941C44.0714 3.87822 45.6849 3.87822 45.6849 4.93941V5.09544C46.7909 5.44581 47.5471 6.47516 47.5471 7.64014C47.5471 8.70134 45.9336 8.70134 45.9336 7.64014C45.9336 6.25049 43.8228 6.25049 43.8228 7.64014C43.8228 8.22332 44.295 8.69555 44.8782 8.69555C46.3519 8.69555 47.5471 9.89071 47.5471 11.3644C47.5471 12.5294 46.7909 13.5588 45.6849 13.9092V14.0652C45.6849 15.1264 44.0714 15.1264 44.0714 14.0652V13.9092C42.9654 13.5588 42.2093 12.5294 42.2093 11.3644C42.2093 10.3033 43.8228 10.3033 43.8228 11.3644C43.8228 12.7541 45.9336 12.7541 45.9336 11.3644C45.9336 10.7813 45.4613 10.309 44.8782 10.309ZM33.4831 4.64871C31.6692 5.29847 29.1892 5.46153 27.287 5.46153C25.3847 5.46153 22.9055 5.29847 21.0909 4.64871C21.3671 6.11541 21.6435 7.58198 21.9197 9.04854C22.4399 9.47073 22.8122 10.0401 23.0152 10.6691C24.3031 10.8046 25.7523 10.8806 27.287 10.8806C28.8216 10.8806 30.271 10.8046 31.5589 10.6691C31.7619 10.0401 32.1342 9.47073 32.6544 9.04854C32.9306 7.58198 33.2069 6.11541 33.4832 4.64871H33.4831ZM34.6569 7.11127L35.4031 3.14962C35.441 3.03039 35.4604 2.90731 35.4604 2.7805C35.4604 0.335169 28.9599 0.0996094 27.2868 0.0996094C25.6138 0.0996094 19.1132 0.335169 19.1132 2.7805C19.1132 2.90731 19.1328 3.03039 19.1706 3.14962L19.9249 7.15469C18.8553 7.44593 16.4569 8.09073 16.4569 9.50216C16.4569 10.0429 16.4985 10.6789 16.5425 11.3526C16.7779 14.9546 17.09 17.3856 13.2745 18.3459C10.2992 19.0946 9.49635 21.5777 10.0077 24.3557C10.6685 27.9419 12.2784 32.592 13.2984 36.2216C12.4468 35.0368 11.4883 33.513 10.4988 32.509C9.67857 31.6768 8.89814 31.544 7.80773 31.8378C7.69608 29.1004 7.69953 26.1665 7.369 23.4746C6.85681 19.2777 1.23356 18.7233 0.881525 23.2928C0.527703 27.8874 -0.295585 36.5626 0.328532 40.9015C0.887039 44.7858 3.10687 48.3858 6.19534 50.7799C7.72269 51.9639 9.37257 53.4518 9.78015 55.4199C9.91991 56.0948 9.90516 56.7418 9.8255 57.3262L7.11346 58.3008C6.70739 58.4464 6.49086 58.8851 6.61656 59.2932L6.6156 59.2935L8.58539 65.6817C8.72516 66.1366 9.22605 66.3699 9.66382 66.1879L23.8618 61.0858C24.2678 60.9402 24.4844 60.5015 24.3587 60.0934L24.3596 60.0931L22.3898 53.7049C22.2501 53.25 21.7492 53.0166 21.3114 53.1987L20.6891 53.4223C20.7256 53.018 20.7737 52.5934 20.8229 52.16C21.0661 50.0168 21.3317 47.6749 20.4327 45.6372C20.3204 45.3827 20.1904 45.1253 20.0457 44.8658C24.8581 45.5778 29.7406 45.529 34.5506 44.8239C34.3964 45.0976 34.2584 45.369 34.14 45.6372C33.241 47.6749 33.5066 50.0168 33.7498 52.16C33.799 52.5934 33.8471 53.018 33.8836 53.4223L33.2613 53.1987C32.8235 53.0166 32.3226 53.25 32.1829 53.7049L30.2131 60.0931L30.214 60.0934C30.0883 60.5015 30.3049 60.9402 30.7109 61.0858L44.909 66.1879C45.3468 66.3699 45.8477 66.1366 45.9875 65.6817L47.9573 59.2935L47.9563 59.2932C48.0821 58.8851 47.8655 58.4464 47.4594 58.3008L44.7475 57.3262C44.6678 56.7418 44.6531 56.0948 44.7928 55.4199C45.2004 53.4518 46.8503 51.9637 48.3777 50.7799C49.0456 50.262 49.6598 49.7861 50.5594 48.718C52.5218 46.3882 53.8067 43.9464 54.2446 40.9015C54.8687 36.5627 54.0454 27.8874 53.6916 23.2928C53.3396 18.7233 47.7162 19.2777 47.2041 23.4746C46.8736 26.1665 46.8772 29.1004 46.7654 31.8378C45.675 31.544 44.8946 31.6769 44.0743 32.509C43.0848 33.5129 42.1263 35.0366 41.2747 36.2215C42.2931 32.5982 43.9071 27.9329 44.5654 24.3555C45.0768 21.5776 44.2739 19.0944 41.2987 18.3458C38.9121 17.7451 38.1099 17.0741 37.9564 14.2183C39.5183 16.5061 42.0958 17.8769 44.8776 17.8769C49.5027 17.8769 53.2525 14.1271 53.2525 9.50202C53.2525 4.87697 49.5027 1.12717 44.8776 1.12717C40.8852 1.12717 37.4436 3.95072 36.6648 7.85503C36.0247 7.54297 35.3336 7.32753 34.6565 7.111L34.6569 7.11127ZM36.4235 11.2589C35.3717 11.7114 34.1425 11.9443 33.01 12.1112C33.041 12.3242 33.1054 12.5342 33.2055 12.7325C33.4436 13.1522 33.2614 13.6896 32.8124 13.8741C31.113 14.5774 29.1189 14.8661 27.287 14.8661C25.455 14.8661 23.4605 14.5761 21.7616 13.8741C21.3125 13.6896 21.1303 13.1522 21.3685 12.7325C21.4686 12.5344 21.5329 12.3242 21.5639 12.1112C20.4315 11.9443 19.2023 11.7112 18.1505 11.2589C18.448 15.8111 18.6196 18.6628 13.6656 19.909C11.5617 20.4384 11.2391 22.16 11.5901 24.0658C12.4273 28.6181 14.5927 34.874 15.8984 39.5201C16.8977 40.6719 17.9183 41.8151 18.8334 43.0355C24.4545 44.0535 30.1458 43.9823 35.7664 43.001C36.6753 41.7934 37.6857 40.6614 38.6757 39.5201C39.9816 34.8737 42.1468 28.6183 42.984 24.0658C43.335 22.16 43.0124 20.4384 40.9085 19.909C35.9545 18.6628 36.1259 15.811 36.4235 11.2589ZM31.414 12.3041C31.4296 12.4196 31.4508 12.5347 31.4776 12.6491C30.1443 13.0721 28.6813 13.2526 27.2868 13.2526C25.8924 13.2526 24.4292 13.0713 23.0962 12.6488C23.123 12.5345 23.1441 12.4194 23.1596 12.3041C24.425 12.4263 25.8214 12.4941 27.2867 12.4941C28.752 12.4941 30.1487 12.4262 31.414 12.3041ZM20.2242 8.74296C20.4315 9.84344 20.2342 9.64247 21.0094 10.3871C20.5132 10.2966 18.0705 9.79409 18.0705 9.50229C18.0705 9.34392 19.3098 8.99134 20.2242 8.74296ZM33.5644 10.3869C34.3625 9.62028 34.1466 9.82014 34.3572 8.70202C35.2624 8.9912 36.5032 9.39065 36.5032 9.50216C36.5032 9.79409 34.0605 10.2965 33.5643 10.3869H33.5644ZM44.8782 2.7408C41.1438 2.7408 38.1168 5.76779 38.1168 9.50216C38.1168 13.2365 41.1438 16.2635 44.8782 16.2635C48.6125 16.2635 51.6395 13.2365 51.6395 9.50216C51.6395 5.76779 48.6125 2.7408 44.8782 2.7408ZM28.8121 7.2651C29.7903 6.86303 30.4018 8.35041 29.4234 8.75247C28.181 9.26646 26.4256 9.27252 25.1671 8.75247C24.1889 8.35041 24.8002 6.86303 25.7784 7.2651C26.6193 7.61244 27.9712 7.61285 28.812 7.2651H28.8121ZM33.8391 2.759C33.7058 3.46623 28.1221 3.84789 27.287 3.84789C26.4518 3.84789 20.8683 3.46623 20.7349 2.759C21.2101 2.07658 26.408 1.7131 27.287 1.7131C28.166 1.7131 33.3637 2.07658 33.8391 2.759ZM26.4802 16.9334C26.4802 15.8722 28.0937 15.8722 28.0937 16.9334V17.0955C29.2083 17.4464 29.9709 18.4828 29.9709 19.656C29.9709 20.7172 28.3574 20.7172 28.3574 19.656C28.3574 18.2465 26.2166 18.2465 26.2166 19.656C26.2166 20.2475 26.6957 20.7265 27.287 20.7265C28.769 20.7265 29.9709 21.9284 29.9709 23.4104C29.9709 24.5836 29.2081 25.62 28.0937 25.9709V26.133C28.0937 27.1942 26.4802 27.1942 26.4802 26.133V25.9709C25.3657 25.62 24.6031 24.5836 24.6031 23.4104C24.6031 22.3492 26.2166 22.3492 26.2166 23.4104C26.2166 24.8199 28.3574 24.8199 28.3574 23.4104C28.3574 22.8189 27.8783 22.34 27.287 22.34C25.805 22.34 24.6031 21.138 24.6031 19.656C24.6031 18.4828 25.3658 17.4464 26.4802 17.0955V16.9334ZM48.0832 35.9309C48.8281 32.1782 48.3335 27.5507 48.8036 23.6851C49.428 21.0365 51.8977 20.9823 52.0849 23.4126C52.4288 27.8768 53.2547 36.4742 52.6505 40.6745C52.257 43.4108 51.0935 45.5915 49.3309 47.6842C48.5501 48.6113 47.9968 49.0402 47.395 49.5067C45.5246 50.9566 43.7162 52.6914 43.2178 55.0985C43.0997 55.6693 43.0644 56.2148 43.0811 56.7272L35.5396 54.017C35.5076 53.3605 35.4307 52.6828 35.3513 51.9834C35.1314 50.0456 34.8912 47.9279 35.6155 46.2863C36.8263 43.5419 39.8947 40.8422 41.7416 38.3205C42.7791 36.9042 44.0656 34.8102 45.2218 33.6372C46.5978 32.2412 46.6713 34.7659 46.5013 35.622C46.3253 36.5087 45.8402 37.5877 45.4703 38.4111C44.9263 39.6218 44.3012 40.8391 43.8838 41.6114C43.686 41.9774 43.5395 42.2349 43.4301 42.4142C43.3362 42.5681 43.2789 42.6516 43.244 42.6924C42.5567 43.4954 43.7793 44.5417 44.4667 43.7386C44.5537 43.6373 44.6616 43.486 44.8041 43.2526C44.9311 43.0446 45.0925 42.7616 45.302 42.3739C45.726 41.5894 46.3668 40.3401 46.9389 39.0665C47.3651 38.1181 47.8799 36.9553 48.0834 35.9308L48.0832 35.9309ZM33.4733 54.982C37.7149 56.5063 41.955 58.0298 46.1942 59.5533L44.6984 64.4044L31.9775 59.8331L33.4733 54.982ZM5.77039 23.6854C6.2484 27.617 5.76557 32.2779 6.49072 35.9312C6.52614 36.1094 6.57066 36.2904 6.62497 36.4723C6.85212 37.2328 7.22428 38.1527 7.63516 39.0671C8.20745 40.3407 8.84825 41.59 9.27209 42.3744C9.4816 42.762 9.643 43.0451 9.76995 43.2531C9.91247 43.4866 10.0205 43.6378 10.1074 43.7391C10.7946 44.5423 12.0173 43.496 11.3301 42.6929C11.2951 42.6521 11.2379 42.5688 11.144 42.4148C11.0346 42.2353 10.8881 41.9779 10.6903 41.6119C10.2729 40.8396 9.64783 39.6224 9.10379 38.4117C8.72309 37.5644 8.37864 36.7134 8.16913 36.0124C8.13054 35.8831 8.09856 35.7527 8.07265 35.6226C7.94267 34.9677 7.97368 34.3473 8.09374 33.8765C8.26314 33.2118 8.70269 32.9789 9.35217 33.6377C10.5083 34.8107 11.795 36.9047 12.8324 38.3211C14.6792 40.8428 17.7477 43.5423 18.9584 46.2868C19.6826 47.9285 19.4424 50.0462 19.2227 51.984C19.1433 52.6834 19.0665 53.3611 19.0344 54.0176L11.4929 56.7277C11.5096 56.2155 11.4744 55.6698 11.3562 55.0991C10.8577 52.6919 9.04935 50.9571 7.17893 49.5072C4.41823 47.3672 2.42293 44.1488 1.92342 40.675C1.31929 36.4748 2.1452 27.8773 2.48909 23.4131C2.67627 20.983 5.146 21.037 5.77039 23.6856V23.6854ZM8.37975 59.5536C12.619 58.0301 16.8592 56.5066 21.1007 54.9823L22.5965 59.8334L9.87553 64.4047L8.37975 59.5536ZM35.9199 33.2304C36.1183 33.9746 34.4234 35.0193 33.8623 35.3082C32.5425 35.9875 30.9222 36.4216 29.4306 36.486C28.7744 36.5142 26.8766 36.4556 26.65 35.6941L26.5905 35.4722C27.2376 35.6394 28.0095 35.7093 28.8513 35.6729C30.5782 35.5986 32.4213 35.1062 33.9512 34.3186C34.7172 33.9243 35.367 33.4683 35.8551 32.9884L35.9199 33.2303V33.2304ZM36.8403 30.4398L37.4775 32.8182C37.9396 34.5892 35.9538 36.0417 34.5995 36.7389C33.0697 37.5265 31.2269 38.0187 29.4998 38.0931C28.1909 38.1495 26.3023 37.9634 25.4404 36.8275C23.9143 37.0678 22.2807 37.0355 20.7739 36.7006C19.3076 36.3746 17.0283 35.4765 17.0283 33.671C17.0283 32.9345 16.955 31.7548 17.0339 31.0718C17.0809 30.0732 17.8799 29.2269 19.148 28.6597C21.2863 27.7031 24.4131 27.6288 26.6819 28.2812C27.4768 28.5097 28.162 28.8258 28.6843 29.205C30.363 28.5926 32.3978 28.2483 34.1338 28.5263C35.2023 28.6975 36.5889 29.2452 36.8403 30.4401V30.4398ZM24.8716 35.2827C23.6565 35.4392 22.3157 35.3968 21.1205 35.1312C20.5645 35.0075 18.642 34.4281 18.642 33.671V33.4157C19.2243 33.7448 19.9517 34.0122 20.774 34.195C22.0319 34.4747 23.3588 34.5395 24.6411 34.4222L24.8717 35.2827H24.8716ZM26.8631 31.9945C28.5428 30.6295 31.7447 29.7722 33.8817 30.1143C34.6581 30.2386 35.1833 30.4819 35.2726 30.8147C35.4715 31.557 33.7135 32.6307 33.2137 32.8879C31.8941 33.5672 30.2734 34.0015 28.7821 34.0656C28.1836 34.0914 26.2463 34.0405 26.0065 33.2916C25.9231 32.9586 26.2561 32.4876 26.8633 31.9943L26.8631 31.9945ZM25.8484 30.7465C25.0616 31.3859 24.5545 32.1036 24.4201 32.8241C23.3372 32.9171 22.1823 32.8616 21.1204 32.6256C20.2898 32.4409 19.6039 32.1647 19.1419 31.8314C18.8926 31.6515 18.6553 31.4491 18.6407 31.1251C18.6738 30.7924 19.1117 30.4375 19.8032 30.1282C21.5987 29.325 24.3341 29.2835 26.2405 29.8316C26.4664 29.8965 26.6777 29.9682 26.8728 30.0456C26.4918 30.2675 26.1479 30.5032 25.8483 30.7467L25.8484 30.7465Z" fill="#A88EC3"/>
<path fill-rule="evenodd" clip-rule="evenodd" d="M44.8782 10.309C43.4044 10.309 42.2093 9.11388 42.2093 7.64014C42.2093 6.47516 42.9654 5.44581 44.0714 5.09544V4.93941C44.0714 3.87822 45.6849 3.87822 45.6849 4.93941V5.09544C46.7909 5.44581 47.5471 6.47516 47.5471 7.64014C47.5471 8.70134 45.9336 8.70134 45.9336 7.64014C45.9336 6.25049 43.8228 6.25049 43.8228 7.64014C43.8228 8.22332 44.295 8.69555 44.8782 8.69555C46.3519 8.69555 47.5471 9.89071 47.5471 11.3644C47.5471 12.5294 46.7909 13.5588 45.6849 13.9092V14.0652C45.6849 15.1264 44.0714 15.1264 44.0714 14.0652V13.9092C42.9654 13.5588 42.2093 12.5294 42.2093 11.3644C42.2093 10.3033 43.8228 10.3033 43.8228 11.3644C43.8228 12.7541 45.9336 12.7541 45.9336 11.3644C45.9336 10.7813 45.4613 10.309 44.8782 10.309ZM33.4831 4.64871C31.6692 5.29847 29.1892 5.46153 27.287 5.46153C25.3847 5.46153 22.9055 5.29847 21.0909 4.64871C21.3671 6.11541 21.6435 7.58198 21.9197 9.04854C22.4399 9.47073 22.8122 10.0401 23.0152 10.6691C24.3031 10.8046 25.7523 10.8806 27.287 10.8806C28.8216 10.8806 30.271 10.8046 31.5589 10.6691C31.7619 10.0401 32.1342 9.47073 32.6544 9.04854C32.9306 7.58198 33.2069 6.11541 33.4832 4.64871H33.4831ZM34.6569 7.11127L35.4031 3.14962C35.441 3.03039 35.4604 2.90731 35.4604 2.7805C35.4604 0.335169 28.9599 0.0996094 27.2868 0.0996094C25.6138 0.0996094 19.1132 0.335169 19.1132 2.7805C19.1132 2.90731 19.1328 3.03039 19.1706 3.14962L19.9249 7.15469C18.8553 7.44593 16.4569 8.09073 16.4569 9.50216C16.4569 10.0429 16.4985 10.6789 16.5425 11.3526C16.7779 14.9546 17.09 17.3856 13.2745 18.3459C10.2992 19.0946 9.49635 21.5777 10.0077 24.3557C10.6685 27.9419 12.2784 32.592 13.2984 36.2216C12.4468 35.0368 11.4883 33.513 10.4988 32.509C9.67857 31.6768 8.89814 31.544 7.80773 31.8378C7.69608 29.1004 7.69953 26.1665 7.369 23.4746C6.85681 19.2777 1.23356 18.7233 0.881525 23.2928C0.527703 27.8874 -0.295585 36.5626 0.328532 40.9015C0.887039 44.7858 3.10687 48.3858 6.19534 50.7799C7.72269 51.9639 9.37257 53.4518 9.78015 55.4199C9.91991 56.0948 9.90516 56.7418 9.8255 57.3262L7.11346 58.3008C6.70739 58.4464 6.49086 58.8851 6.61656 59.2932L6.6156 59.2935L8.58539 65.6817C8.72516 66.1366 9.22605 66.3699 9.66382 66.1879L23.8618 61.0858C24.2678 60.9402 24.4844 60.5015 24.3587 60.0934L24.3596 60.0931L22.3898 53.7049C22.2501 53.25 21.7492 53.0166 21.3114 53.1987L20.6891 53.4223C20.7256 53.018 20.7737 52.5934 20.8229 52.16C21.0661 50.0168 21.3317 47.6749 20.4327 45.6372C20.3204 45.3827 20.1904 45.1253 20.0457 44.8658C24.8581 45.5778 29.7406 45.529 34.5506 44.8239C34.3964 45.0976 34.2584 45.369 34.14 45.6372C33.241 47.6749 33.5066 50.0168 33.7498 52.16C33.799 52.5934 33.8471 53.018 33.8836 53.4223L33.2613 53.1987C32.8235 53.0166 32.3226 53.25 32.1829 53.7049L30.2131 60.0931L30.214 60.0934C30.0883 60.5015 30.3049 60.9402 30.7109 61.0858L44.909 66.1879C45.3468 66.3699 45.8477 66.1366 45.9875 65.6817L47.9573 59.2935L47.9563 59.2932C48.0821 58.8851 47.8655 58.4464 47.4594 58.3008L44.7475 57.3262C44.6678 56.7418 44.6531 56.0948 44.7928 55.4199C45.2004 53.4518 46.8503 51.9637 48.3777 50.7799C49.0456 50.262 49.6598 49.7861 50.5594 48.718C52.5218 46.3882 53.8067 43.9464 54.2446 40.9015C54.8687 36.5627 54.0454 27.8874 53.6916 23.2928C53.3396 18.7233 47.7162 19.2777 47.2041 23.4746C46.8736 26.1665 46.8772 29.1004 46.7654 31.8378C45.675 31.544 44.8946 31.6769 44.0743 32.509C43.0848 33.5129 42.1263 35.0366 41.2747 36.2215C42.2931 32.5982 43.9071 27.9329 44.5654 24.3555C45.0768 21.5776 44.2739 19.0944 41.2987 18.3458C38.9121 17.7451 38.1099 17.0741 37.9564 14.2183C39.5183 16.5061 42.0958 17.8769 44.8776 17.8769C49.5027 17.8769 53.2525 14.1271 53.2525 9.50202C53.2525 4.87697 49.5027 1.12717 44.8776 1.12717C40.8852 1.12717 37.4436 3.95072 36.6648 7.85503C36.0247 7.54297 35.3336 7.32753 34.6565 7.111L34.6569 7.11127ZM36.4235 11.2589C35.3717 11.7114 34.1425 11.9443 33.01 12.1112C33.041 12.3242 33.1054 12.5342 33.2055 12.7325C33.4436 13.1522 33.2614 13.6896 32.8124 13.8741C31.113 14.5774 29.1189 14.8661 27.287 14.8661C25.455 14.8661 23.4605 14.5761 21.7616 13.8741C21.3125 13.6896 21.1303 13.1522 21.3685 12.7325C21.4686 12.5344 21.5329 12.3242 21.5639 12.1112C20.4315 11.9443 19.2023 11.7112 18.1505 11.2589C18.448 15.8111 18.6196 18.6628 13.6656 19.909C11.5617 20.4384 11.2391 22.16 11.5901 24.0658C12.4273 28.6181 14.5927 34.874 15.8984 39.5201C16.8977 40.6719 17.9183 41.8151 18.8334 43.0355C24.4545 44.0535 30.1458 43.9823 35.7664 43.001C36.6753 41.7934 37.6857 40.6614 38.6757 39.5201C39.9816 34.8737 42.1468 28.6183 42.984 24.0658C43.335 22.16 43.0124 20.4384 40.9085 19.909C35.9545 18.6628 36.1259 15.811 36.4235 11.2589ZM31.414 12.3041C31.4296 12.4196 31.4508 12.5347 31.4776 12.6491C30.1443 13.0721 28.6813 13.2526 27.2868 13.2526C25.8924 13.2526 24.4292 13.0713 23.0962 12.6488C23.123 12.5345 23.1441 12.4194 23.1596 12.3041C24.425 12.4263 25.8214 12.4941 27.2867 12.4941C28.752 12.4941 30.1487 12.4262 31.414 12.3041ZM20.2242 8.74296C20.4315 9.84344 20.2342 9.64247 21.0094 10.3871C20.5132 10.2966 18.0705 9.79409 18.0705 9.50229C18.0705 9.34392 19.3098 8.99134 20.2242 8.74296ZM33.5644 10.3869C34.3625 9.62028 34.1466 9.82014 34.3572 8.70202C35.2624 8.9912 36.5032 9.39065 36.5032 9.50216C36.5032 9.79409 34.0605 10.2965 33.5643 10.3869H33.5644ZM44.8782 2.7408C41.1438 2.7408 38.1168 5.76779 38.1168 9.50216C38.1168 13.2365 41.1438 16.2635 44.8782 16.2635C48.6125 16.2635 51.6395 13.2365 51.6395 9.50216C51.6395 5.76779 48.6125 2.7408 44.8782 2.7408ZM28.8121 7.2651C29.7903 6.86303 30.4018 8.35041 29.4234 8.75247C28.181 9.26646 26.4256 9.27252 25.1671 8.75247C24.1889 8.35041 24.8002 6.86303 25.7784 7.2651C26.6193 7.61244 27.9712 7.61285 28.812 7.2651H28.8121ZM33.8391 2.759C33.7058 3.46623 28.1221 3.84789 27.287 3.84789C26.4518 3.84789 20.8683 3.46623 20.7349 2.759C21.2101 2.07658 26.408 1.7131 27.287 1.7131C28.166 1.7131 33.3637 2.07658 33.8391 2.759ZM26.4802 16.9334C26.4802 15.8722 28.0937 15.8722 28.0937 16.9334V17.0955C29.2083 17.4464 29.9709 18.4828 29.9709 19.656C29.9709 20.7172 28.3574 20.7172 28.3574 19.656C28.3574 18.2465 26.2166 18.2465 26.2166 19.656C26.2166 20.2475 26.6957 20.7265 27.287 20.7265C28.769 20.7265 29.9709 21.9284 29.9709 23.4104C29.9709 24.5836 29.2081 25.62 28.0937 25.9709V26.133C28.0937 27.1942 26.4802 27.1942 26.4802 26.133V25.9709C25.3657 25.62 24.6031 24.5836 24.6031 23.4104C24.6031 22.3492 26.2166 22.3492 26.2166 23.4104C26.2166 24.8199 28.3574 24.8199 28.3574 23.4104C28.3574 22.8189 27.8783 22.34 27.287 22.34C25.805 22.34 24.6031 21.138 24.6031 19.656C24.6031 18.4828 25.3658 17.4464 26.4802 17.0955V16.9334ZM48.0832 35.9309C48.8281 32.1782 48.3335 27.5507 48.8036 23.6851C49.428 21.0365 51.8977 20.9823 52.0849 23.4126C52.4288 27.8768 53.2547 36.4742 52.6505 40.6745C52.257 43.4108 51.0935 45.5915 49.3309 47.6842C48.5501 48.6113 47.9968 49.0402 47.395 49.5067C45.5246 50.9566 43.7162 52.6914 43.2178 55.0985C43.0997 55.6693 43.0644 56.2148 43.0811 56.7272L35.5396 54.017C35.5076 53.3605 35.4307 52.6828 35.3513 51.9834C35.1314 50.0456 34.8912 47.9279 35.6155 46.2863C36.8263 43.5419 39.8947 40.8422 41.7416 38.3205C42.7791 36.9042 44.0656 34.8102 45.2218 33.6372C46.5978 32.2412 46.6713 34.7659 46.5013 35.622C46.3253 36.5087 45.8402 37.5877 45.4703 38.4111C44.9263 39.6218 44.3012 40.8391 43.8838 41.6114C43.686 41.9774 43.5395 42.2349 43.4301 42.4142C43.3362 42.5681 43.2789 42.6516 43.244 42.6924C42.5567 43.4954 43.7793 44.5417 44.4667 43.7386C44.5537 43.6373 44.6616 43.486 44.8041 43.2526C44.9311 43.0446 45.0925 42.7616 45.302 42.3739C45.726 41.5894 46.3668 40.3401 46.9389 39.0665C47.3651 38.1181 47.8799 36.9553 48.0834 35.9308L48.0832 35.9309ZM33.4733 54.982C37.7149 56.5063 41.955 58.0298 46.1942 59.5533L44.6984 64.4044L31.9775 59.8331L33.4733 54.982ZM5.77039 23.6854C6.2484 27.617 5.76557 32.2779 6.49072 35.9312C6.52614 36.1094 6.57066 36.2904 6.62497 36.4723C6.85212 37.2328 7.22428 38.1527 7.63516 39.0671C8.20745 40.3407 8.84825 41.59 9.27209 42.3744C9.4816 42.762 9.643 43.0451 9.76995 43.2531C9.91247 43.4866 10.0205 43.6378 10.1074 43.7391C10.7946 44.5423 12.0173 43.496 11.3301 42.6929C11.2951 42.6521 11.2379 42.5688 11.144 42.4148C11.0346 42.2353 10.8881 41.9779 10.6903 41.6119C10.2729 40.8396 9.64783 39.6224 9.10379 38.4117C8.72309 37.5644 8.37864 36.7134 8.16913 36.0124C8.13054 35.8831 8.09856 35.7527 8.07265 35.6226C7.94267 34.9677 7.97368 34.3473 8.09374 33.8765C8.26314 33.2118 8.70269 32.9789 9.35217 33.6377C10.5083 34.8107 11.795 36.9047 12.8324 38.3211C14.6792 40.8428 17.7477 43.5423 18.9584 46.2868C19.6826 47.9285 19.4424 50.0462 19.2227 51.984C19.1433 52.6834 19.0665 53.3611 19.0344 54.0176L11.4929 56.7277C11.5096 56.2155 11.4744 55.6698 11.3562 55.0991C10.8577 52.6919 9.04935 50.9571 7.17893 49.5072C4.41823 47.3672 2.42293 44.1488 1.92342 40.675C1.31929 36.4748 2.1452 27.8773 2.48909 23.4131C2.67627 20.983 5.146 21.037 5.77039 23.6856V23.6854ZM8.37975 59.5536C12.619 58.0301 16.8592 56.5066 21.1007 54.9823L22.5965 59.8334L9.87553 64.4047L8.37975 59.5536ZM35.9199 33.2304C36.1183 33.9746 34.4234 35.0193 33.8623 35.3082C32.5425 35.9875 30.9222 36.4216 29.4306 36.486C28.7744 36.5142 26.8766 36.4556 26.65 35.6941L26.5905 35.4722C27.2376 35.6394 28.0095 35.7093 28.8513 35.6729C30.5782 35.5986 32.4213 35.1062 33.9512 34.3186C34.7172 33.9243 35.367 33.4683 35.8551 32.9884L35.9199 33.2303V33.2304ZM36.8403 30.4398L37.4775 32.8182C37.9396 34.5892 35.9538 36.0417 34.5995 36.7389C33.0697 37.5265 31.2269 38.0187 29.4998 38.0931C28.1909 38.1495 26.3023 37.9634 25.4404 36.8275C23.9143 37.0678 22.2807 37.0355 20.7739 36.7006C19.3076 36.3746 17.0283 35.4765 17.0283 33.671C17.0283 32.9345 16.955 31.7548 17.0339 31.0718C17.0809 30.0732 17.8799 29.2269 19.148 28.6597C21.2863 27.7031 24.4131 27.6288 26.6819 28.2812C27.4768 28.5097 28.162 28.8258 28.6843 29.205C30.363 28.5926 32.3978 28.2483 34.1338 28.5263C35.2023 28.6975 36.5889 29.2452 36.8403 30.4401V30.4398ZM24.8716 35.2827C23.6565 35.4392 22.3157 35.3968 21.1205 35.1312C20.5645 35.0075 18.642 34.4281 18.642 33.671V33.4157C19.2243 33.7448 19.9517 34.0122 20.774 34.195C22.0319 34.4747 23.3588 34.5395 24.6411 34.4222L24.8717 35.2827H24.8716ZM26.8631 31.9945C28.5428 30.6295 31.7447 29.7722 33.8817 30.1143C34.6581 30.2386 35.1833 30.4819 35.2726 30.8147C35.4715 31.557 33.7135 32.6307 33.2137 32.8879C31.8941 33.5672 30.2734 34.0015 28.7821 34.0656C28.1836 34.0914 26.2463 34.0405 26.0065 33.2916C25.9231 32.9586 26.2561 32.4876 26.8633 31.9943L26.8631 31.9945ZM25.8484 30.7465C25.0616 31.3859 24.5545 32.1036 24.4201 32.8241C23.3372 32.9171 22.1823 32.8616 21.1204 32.6256C20.2898 32.4409 19.6039 32.1647 19.1419 31.8314C18.8926 31.6515 18.6553 31.4491 18.6407 31.1251C18.6738 30.7924 19.1117 30.4375 19.8032 30.1282C21.5987 29.325 24.3341 29.2835 26.2405 29.8316C26.4664 29.8965 26.6777 29.9682 26.8728 30.0456C26.4918 30.2675 26.1479 30.5032 25.8483 30.7467L25.8484 30.7465Z" stroke="#A88EC3" stroke-width="0.2" mask="url(#path-1-outside-1_29_1785)"/>
</svg>
