<svg width="34" height="35" viewBox="0 0 34 35" fill="none" xmlns="http://www.w3.org/2000/svg">
<path d="M16.4972 19.0607C16.1082 19.4445 12.6998 22.8779 12.6998 25.0905C12.6903 25.6605 12.7944 26.2267 13.006 26.7561C13.2176 27.2855 13.5325 27.7675 13.9322 28.1739C14.332 28.5804 14.8087 28.9031 15.3346 29.1235C15.8604 29.3438 16.4248 29.4572 16.9949 29.4571C17.565 29.457 18.1294 29.3434 18.6552 29.123C19.181 28.9025 19.6576 28.5796 20.0572 28.173C20.4569 27.7665 20.7716 27.2844 20.9831 26.755C21.1945 26.2255 21.2985 25.6593 21.2888 25.0893C21.2888 22.8767 17.8792 19.4432 17.4914 19.0595C17.359 18.9286 17.1803 18.8552 16.9941 18.8555C16.8079 18.8557 16.6293 18.9295 16.4972 19.0607ZM16.9945 27.9716C16.2304 27.9709 15.4977 27.6669 14.9575 27.1265C14.4172 26.5861 14.1135 25.8534 14.1129 25.0893C14.1129 24.0102 15.7187 21.9382 16.9941 20.5764C18.2691 21.9382 19.8749 24.0094 19.8749 25.0893C19.8743 25.8532 19.5708 26.5857 19.0308 27.1261C18.4908 27.6665 17.7585 27.9706 16.9945 27.9716Z" fill="#A88EC3" stroke="#A88EC3" stroke-width="0.4"/>
<path d="M30.4019 14.3031V10.3336C30.4013 9.81316 30.1943 9.31419 29.8263 8.94619C29.4583 8.57818 28.9594 8.3712 28.4389 8.37067H28.4111C28.1646 6.99431 27.1793 4.04809 23.2587 4.03396L21.741 4.03072C14.6269 4.01982 13.2817 3.92125 13.1075 0.866764C13.102 0.768497 13.0759 0.672478 13.0311 0.58486C12.9863 0.497243 12.9236 0.419961 12.8472 0.357967C12.7707 0.295973 12.6821 0.250634 12.5872 0.224857C12.4922 0.19908 12.3928 0.193433 12.2955 0.208279C10.011 0.556104 6.17325 2.08759 5.54911 8.37067C5.02877 8.37142 4.52997 8.57848 4.16207 8.94645C3.79418 9.31442 3.58722 9.81326 3.58658 10.3336V14.3031C2.63864 14.4702 1.77976 14.9656 1.16043 15.7025C0.541095 16.4393 0.200817 17.3706 0.199219 18.3332V30.5333C0.200822 31.6186 0.632659 32.659 1.40007 33.4264C2.16748 34.1938 3.20785 34.6256 4.29314 34.6273H29.6933C30.7792 34.6262 31.8203 34.1944 32.5882 33.4265C33.3561 32.6587 33.788 31.6176 33.7892 30.5317V18.3316C33.7873 17.3693 33.4469 16.4383 32.8276 15.7018C32.2083 14.9653 31.3496 14.4701 30.4019 14.3031ZM4.99889 12.7171H28.9863V14.236H4.99889V12.7171ZM11.7776 1.75511C12.3355 5.43132 15.2603 5.43455 21.7385 5.44465L23.2531 5.44788C25.9803 5.45919 26.764 7.29851 26.9895 8.37067H6.96909C7.36741 4.73647 9.01565 2.47015 11.7776 1.75511ZM5.54749 9.78459H28.4389C28.5845 9.7847 28.7241 9.84257 28.827 9.94551C28.93 10.0484 28.9878 10.188 28.9879 10.3336V11.3031H4.99889V10.3336C4.99899 10.1881 5.05681 10.0486 5.15966 9.94565C5.26251 9.84273 5.40199 9.78481 5.54749 9.78459ZM32.3753 30.5317C32.3744 31.2427 32.0916 31.9244 31.5888 32.4271C31.086 32.9298 30.4043 33.2126 29.6933 33.2133H4.29314C3.58219 33.2125 2.90061 32.9297 2.3979 32.427C1.89518 31.9242 1.61238 31.2427 1.61153 30.5317V18.3316C1.61228 17.6206 1.89503 16.9389 2.39775 16.4361C2.90048 15.9333 3.58212 15.6504 4.29314 15.6496H29.6933C30.4044 15.6503 31.0861 15.9331 31.5889 16.4359C32.0917 16.9387 32.3745 17.6205 32.3753 18.3316V30.5317Z" fill="#A88EC3" stroke="#A88EC3" stroke-width="0.4"/>
</svg>
