<svg width="43" height="43" viewBox="0 0 43 43" fill="none" xmlns="http://www.w3.org/2000/svg">
<path d="M36.3778 35.0251C35.4449 34.6341 34.4663 34.2237 33.5565 33.7841L33.7252 33.5316C33.8666 33.3227 33.8853 33.0544 33.7741 32.8282C33.6629 32.602 33.4389 32.4529 33.1873 32.4371C32.9356 32.4217 32.6953 32.5422 32.5568 32.753L32.3067 33.1283C31.4259 32.6884 30.6642 32.0419 30.0874 31.244C29.0327 29.5448 28.13 27.7557 27.3902 25.8978C27.6184 22.9319 27.3307 19.949 26.5399 17.0811C26.3692 16.513 25.8329 16.1345 25.2399 16.1637C25.2065 16.1653 25.177 16.1714 25.1439 16.1734C25.1966 13.275 27.3536 8.6729 31.182 3.35426C31.6447 2.71321 31.709 1.86715 31.3488 1.16344C30.9885 0.459727 30.2641 0.0172569 29.4736 0.0175783H17.2274C16.3018 0.0182209 15.4859 0.623605 15.2169 1.50887C14.0195 5.55665 11.026 9.73265 9.17463 12.0552C7.92259 11.8643 6.72101 12.6227 6.35433 13.8347C5.98316 14.6046 5.45901 15.291 4.81371 15.852C3.60763 17.092 2.10622 18.6351 2.10622 21.0762V22.5685C2.06444 22.5787 2.02267 22.5961 1.98089 22.608C1.92947 22.6231 1.87934 22.6385 1.82792 22.6565C1.72348 22.6935 1.6216 22.7362 1.52198 22.7844C1.47924 22.8046 1.4365 22.8217 1.3944 22.8442C1.25107 22.92 1.11481 23.008 0.986909 23.1077C0.973412 23.1183 0.962164 23.1321 0.948667 23.143C0.833619 23.2378 0.726926 23.3422 0.630195 23.4557C0.595166 23.4968 0.564637 23.5431 0.531536 23.5871C0.458265 23.6844 0.392707 23.7876 0.33454 23.8949C0.304332 23.9511 0.276052 24.0087 0.249379 24.0691C0.196354 24.1921 0.152648 24.3187 0.118262 24.4486C0.101551 24.5099 0.0816265 24.5678 0.0684505 24.6324C0.0234596 24.848 0.000642769 25.0678 0 25.2879C0 28.1197 18.5874 39.9283 20.0448 40.657C22.3187 41.7807 24.8472 42.2904 27.3793 42.1348H38.6537C38.8655 42.1332 39.0769 42.1152 39.2858 42.0805C39.3195 42.0757 39.3533 42.0709 39.3867 42.0648C39.5805 42.0298 39.7711 41.98 39.9571 41.9154C40.0063 41.8987 40.0532 41.8787 40.1014 41.8595C40.2775 41.7913 40.4482 41.71 40.6114 41.6152C40.6294 41.6046 40.6461 41.5921 40.6638 41.5812C40.8255 41.4806 40.9781 41.3669 41.1208 41.2409C41.1391 41.2252 41.16 41.2142 41.1783 41.1982C41.1864 41.1911 41.1912 41.1811 41.1989 41.1737C41.3117 41.07 41.4174 40.9585 41.5148 40.8402C42.0123 40.3107 42.2176 39.5703 42.0637 38.8602C41.6572 37.2381 39.2106 36.2127 36.3778 35.0251ZM40.7024 39.2017C40.7204 39.2744 40.7589 39.4916 40.4829 39.8704C36.8511 38.7779 33.0963 38.1459 29.3071 37.9897C30.2163 36.8724 31.0014 35.6594 31.6489 34.3728C33.0047 35.1038 34.4027 35.7539 35.835 36.3201C38.0058 37.2297 40.4662 38.2612 40.7021 39.2021L40.7024 39.2017ZM30.4586 33.6061C29.6825 35.1703 28.7026 36.6247 27.5444 37.9315C27.2369 37.9264 26.9422 37.9232 26.6771 37.9232C25.9733 37.918 25.2727 37.8271 24.5908 37.6526C26.4168 36.2111 28.0201 34.5084 29.3492 32.5994C29.6812 32.9744 30.0533 33.3121 30.4586 33.6061ZM20.0271 35.4544C24.0805 33.4699 26.4345 31.5422 27.7935 30.0564C28.0078 30.4529 28.2428 30.8748 28.5044 31.325C27.0322 33.574 25.1647 35.5376 22.9923 37.1211C21.9476 36.6719 20.9536 36.1134 20.0271 35.4544ZM26.4515 27.32C26.6147 27.6975 26.8284 28.1651 27.1016 28.7187C25.8589 30.2061 23.4316 32.3099 18.7587 34.5029C18.2085 34.0608 17.6818 33.6029 17.1843 33.1434C22.3265 31.1094 25.1908 28.6355 26.4515 27.32ZM16.5631 1.90732C16.6537 1.61683 16.923 1.41986 17.2274 1.42147H29.4736C29.7381 1.41729 29.981 1.56542 30.0983 1.80224C30.2214 2.03713 30.1996 2.32151 30.0424 2.53487C27.6148 5.9069 23.69 12.0375 23.734 16.3607C23.6383 16.3816 23.5537 16.4115 23.4618 16.4353C23.3815 16.4565 23.3018 16.4773 23.224 16.5005C23.0151 16.5622 22.8178 16.6306 22.6295 16.7048C22.5765 16.7261 22.5218 16.7447 22.4704 16.7665C22.2586 16.8555 22.0517 16.9558 21.8508 17.0676C21.8344 17.0766 21.8161 17.0843 21.8001 17.0937C21.604 17.2055 21.4147 17.3292 21.2338 17.4641C21.1773 17.5062 21.1297 17.5509 21.0763 17.594C20.9716 17.6794 20.8704 17.7646 20.7794 17.852C20.718 17.9111 20.6624 17.9706 20.6068 18.031C20.5313 18.1126 20.4625 18.1936 20.3989 18.2752C20.3568 18.3295 20.3137 18.3828 20.2765 18.4375C20.1858 18.5657 20.1058 18.7009 20.0374 18.8423C19.599 19.7334 18.7902 20.386 17.8264 20.6263C16.5885 20.9351 15.3165 21.0865 14.0407 21.0762C13.4456 21.0932 12.8735 20.8455 12.4789 20.3995C11.1247 18.9182 11.1179 15.3643 11.2326 14.0568C11.2317 13.9292 11.2169 13.8026 11.1876 13.6786C11.1751 13.623 11.1526 13.5706 11.1349 13.5166C11.1153 13.4524 11.0922 13.3894 11.0655 13.3277C11.0344 13.2637 10.9997 13.2017 10.9614 13.1416C10.9331 13.0954 10.9055 13.0491 10.8727 13.0044C10.8277 12.9434 10.7789 12.8849 10.7271 12.829C10.6892 12.7878 10.6497 12.748 10.6082 12.7091C10.5771 12.6802 10.5523 12.6468 10.5192 12.6195C12.4477 10.1603 15.3529 5.99816 16.5631 1.90732ZM5.82023 16.8308C6.62428 16.1293 7.26154 15.2576 7.68639 14.2788C7.81718 13.7673 8.28573 13.4148 8.81341 13.4308C8.88668 13.4308 8.95995 13.4366 9.03226 13.4479C9.12192 13.4639 9.20965 13.4887 9.29449 13.5218C9.33402 13.5365 9.37162 13.5529 9.40794 13.5706C9.44875 13.5902 9.4886 13.6117 9.52716 13.6352C9.5654 13.6583 9.60204 13.6837 9.63707 13.7113C9.65956 13.7303 9.6811 13.7502 9.70134 13.7718C9.72866 13.7971 9.7534 13.8251 9.7759 13.855C9.80643 13.8955 9.82571 13.9433 9.83149 13.9935C9.81253 14.2007 9.39283 19.1026 11.4412 21.3455C12.1 22.0858 13.05 22.5003 14.0407 22.4801C15.4354 22.4904 16.826 22.3239 18.1792 21.9849C18.6925 21.8516 19.1806 21.636 19.6254 21.3468C20.3539 20.8792 20.9375 20.2173 21.3103 19.4358C21.3498 19.3536 21.3967 19.2752 21.4507 19.2013C21.4623 19.1845 21.48 19.1662 21.4928 19.1486C21.5488 19.074 21.6092 19.003 21.6734 18.9355C21.6956 18.9121 21.7236 18.888 21.748 18.8642C21.8181 18.7957 21.8942 18.7263 21.9807 18.6569C22.017 18.6277 22.0591 18.5984 22.0986 18.5692C22.1828 18.5069 22.2734 18.4448 22.3714 18.3841C22.4274 18.3491 22.4884 18.3153 22.5495 18.2816C22.6427 18.2296 22.7426 18.1794 22.8471 18.1306C22.9274 18.0933 23.0113 18.057 23.0984 18.022C23.1983 17.9818 23.3056 17.9449 23.4143 17.9082C23.5194 17.8732 23.6257 17.8395 23.7395 17.8086C23.8533 17.7778 23.9747 17.7524 24.0965 17.7267C24.218 17.701 24.3372 17.6753 24.4671 17.655C24.7055 17.6181 24.952 17.5863 25.2207 17.5708C25.9299 20.226 26.1915 22.9807 25.9942 25.722C25.4295 26.4144 22.5308 29.6438 16.0679 32.0692C15.3371 31.3404 14.6841 30.6447 14.1368 30.059C13.7464 29.6406 13.4096 29.2801 13.1325 29.0031C11.2217 27.0925 5.08719 23.6404 3.51026 22.7674V21.0762C3.51026 19.2054 4.68453 17.9982 5.82023 16.8308ZM27.3793 40.7309C25.0658 40.8849 22.7526 40.426 20.673 39.401C17.5391 37.8345 1.88994 27.1596 1.40404 25.2879C1.40372 25.1519 1.4185 25.0163 1.44839 24.8836C1.45739 24.8432 1.47249 24.8104 1.48406 24.7731C1.50495 24.7014 1.53162 24.6317 1.56376 24.5646C1.58272 24.5299 1.60361 24.4964 1.6261 24.464C1.65792 24.4135 1.69391 24.3657 1.73312 24.3207C1.7585 24.2927 1.78486 24.2673 1.81185 24.2429C1.85202 24.2063 1.89508 24.1725 1.94008 24.142C1.96803 24.1231 1.99567 24.1038 2.02427 24.0877C2.07087 24.0614 2.1194 24.0379 2.16889 24.0173C2.1946 24.0067 2.22063 23.9942 2.24601 23.9849C2.30032 23.9659 2.3556 23.9499 2.41152 23.9367C2.42758 23.9328 2.44462 23.927 2.46004 23.9238C2.52174 23.911 2.58409 23.901 2.64676 23.8943C3.79949 24.5308 10.3007 28.1567 12.1402 29.996C12.4079 30.264 12.7334 30.6129 13.111 31.0168C15.196 33.2491 18.6632 36.9505 22.7918 38.5478C22.7989 38.5514 22.8059 38.5523 22.8124 38.5556C24.0419 39.0488 25.3524 39.3104 26.6771 39.3271C30.6344 39.3123 34.5781 39.7837 38.42 40.7309H27.3793Z" fill="#A88EC3"/>
<path d="M23.8728 21.7783C23.8728 22.1658 23.5585 22.4801 23.1709 22.4801C22.783 22.4801 22.4688 22.1658 22.4688 21.7783C22.4688 21.3904 22.783 21.0762 23.1709 21.0762C23.5585 21.0762 23.8728 21.3904 23.8728 21.7783Z" fill="#A88EC3"/>
<path d="M35.8025 11.2509C35.8025 11.6385 35.4882 11.9527 35.1006 11.9527C34.7127 11.9527 34.3984 11.6385 34.3984 11.2509C34.3984 10.8631 34.7127 10.5488 35.1006 10.5488C35.4882 10.5488 35.8025 10.8631 35.8025 11.2509Z" fill="#A88EC3"/>
<path d="M32.1198 11.7778C31.919 11.9787 31.8589 12.2804 31.9675 12.5429C32.0761 12.8051 32.3322 12.9761 32.616 12.9761C32.9001 12.9761 33.1559 12.8051 33.2648 12.5429C33.3735 12.2804 33.3134 11.9787 33.1125 11.7778C32.8384 11.5037 32.3939 11.5037 32.1198 11.7778Z" fill="#A88EC3"/>
<path d="M32.2869 14.7565C32.2869 15.1443 31.9726 15.4586 31.5847 15.4586C31.1971 15.4586 30.8828 15.1443 30.8828 14.7565C30.8828 14.3689 31.1971 14.0547 31.5847 14.0547C31.9726 14.0547 32.2869 14.3689 32.2869 14.7565Z" fill="#A88EC3"/>
<path d="M32.1198 16.7446C31.919 16.9455 31.8589 17.2472 31.9675 17.5097C32.0761 17.7719 32.3322 17.9429 32.616 17.9429C32.9001 17.9429 33.1559 17.7719 33.2648 17.5097C33.3735 17.2472 33.3134 16.9455 33.1125 16.7446C32.8384 16.4705 32.3939 16.4705 32.1198 16.7446Z" fill="#A88EC3"/>
<path d="M35.8025 18.2646C35.8025 18.6521 35.4882 18.9667 35.1006 18.9667C34.7127 18.9667 34.3984 18.6521 34.3984 18.2646C34.3984 17.8771 34.7127 17.5625 35.1006 17.5625C35.4882 17.5625 35.8025 17.8771 35.8025 18.2646Z" fill="#A88EC3"/>
<path d="M39.3103 14.7565C39.3103 15.1443 38.996 15.4586 38.6081 15.4586C38.2205 15.4586 37.9062 15.1443 37.9062 14.7565C37.9062 14.3689 38.2205 14.0547 38.6081 14.0547C38.996 14.0547 39.3103 14.3689 39.3103 14.7565Z" fill="#A88EC3"/>
<path d="M38.0891 12.7708C38.2899 12.57 38.35 12.2679 38.2411 12.0057C38.1325 11.7435 37.8767 11.5723 37.5926 11.5723C37.3088 11.5723 37.0527 11.7435 36.9441 12.0057C36.8354 12.2679 36.8955 12.57 37.0961 12.7708C37.3705 13.0449 37.815 13.0449 38.0891 12.7708Z" fill="#A88EC3"/>
<path d="M1.645 9.603C1.64917 9.60718 1.65464 9.60815 1.65914 9.61232C3.85984 11.7996 7.41638 11.7919 9.60744 9.59465C11.7985 7.39772 11.7959 3.84125 9.60165 1.64722C7.40738 -0.546821 3.85052 -0.549391 1.65335 1.64143C-0.544136 3.83225 -0.55217 7.3884 1.63568 9.58887C1.63986 9.59304 1.64082 9.59883 1.645 9.603ZM9.82854 5.63202C9.83111 7.20846 8.95185 8.6538 7.55103 9.37647C6.14988 10.0988 4.4624 9.97735 3.17951 9.06124L6.1126 6.12847C6.24436 5.99673 6.31827 5.81839 6.31827 5.63202V1.48366C8.34255 1.82716 9.825 3.57905 9.82854 5.63202ZM4.91423 1.48366V5.34154L2.18682 8.06866C1.34388 6.88938 1.16906 5.35889 1.72373 4.01959C2.27808 2.68061 3.48416 1.72176 4.91423 1.48366Z" fill="#A88EC3"/>
<path d="M37.4114 18.0619C37.6871 18.328 38.1248 18.3241 38.3957 18.0532C38.6663 17.7827 38.6702 17.3447 38.4041 17.0693L35.596 14.2615C35.3206 13.9955 34.8829 13.9993 34.612 14.2699C34.3411 14.5408 34.3372 14.9787 34.6033 15.2541L37.4114 18.0619Z" fill="#A88EC3"/>
<path d="M35.8025 25.2877C35.8025 24.9002 35.4882 24.5859 35.1006 24.5859C34.7127 24.5859 34.3984 24.9002 34.3984 25.2877V26.6916C34.3984 27.0795 34.7127 27.3937 35.1006 27.3937C35.4882 27.3937 35.8025 27.0795 35.8025 26.6916V25.2877Z" fill="#A88EC3"/>
<path d="M35.8002 21.7423C38.5295 21.4714 40.8501 19.6344 41.7396 17.0403C42.6292 14.4462 41.9241 11.5719 39.9352 9.68349L40.567 8.87149C40.7209 8.67355 40.7575 8.40845 40.6631 8.17581C40.5683 7.94349 40.3568 7.77929 40.1084 7.74523C39.8597 7.71085 39.6119 7.81175 39.458 8.01001L38.8268 8.82136C37.9128 8.24201 36.8768 7.8834 35.8002 7.77447V7.0367H37.2042C37.5921 7.0367 37.9064 6.72244 37.9064 6.33492C37.9064 5.94707 37.5921 5.63281 37.2042 5.63281H32.9921C32.6045 5.63281 32.2902 5.94707 32.2902 6.33492C32.2902 6.72244 32.6045 7.0367 32.9921 7.0367H34.3961V7.77447C30.8091 8.13468 28.0781 11.1536 28.0781 14.7582C28.0781 18.3632 30.8091 21.3818 34.3961 21.7423V22.4798C34.3961 22.8676 34.7104 23.1819 35.0983 23.1819C35.4859 23.1819 35.8002 22.8676 35.8002 22.4798V21.7423ZM29.4818 14.7582C29.4818 11.6568 31.9965 9.14269 35.0983 9.14269C38.2001 9.14269 40.7145 11.6568 40.7145 14.7582C40.7145 17.8597 38.2001 20.3741 35.0983 20.3741C31.9978 20.3706 29.4857 17.8584 29.4818 14.7582Z" fill="#A88EC3"/>
<path d="M35.0932 28.7969C34.7053 28.7969 34.391 29.1111 34.391 29.499V29.7756C34.3914 29.9145 34.3502 30.0497 34.2731 30.1651L34.106 30.4161C33.9639 30.6246 33.945 30.8932 34.0562 31.1198C34.1674 31.3463 34.3917 31.496 34.6433 31.5115C34.8953 31.5269 35.136 31.4061 35.2742 31.1946L35.4416 30.9443C35.6723 30.5982 35.7957 30.1918 35.7951 29.7756V29.499C35.7951 29.1111 35.4808 28.7969 35.0932 28.7969Z" fill="#A88EC3"/>
<path d="M16.8564 40.7324H5.62373C5.23617 40.7324 4.92188 41.0467 4.92188 41.4345C4.92188 41.822 5.23617 42.1363 5.62373 42.1363H16.8564C17.2439 42.1363 17.5582 41.822 17.5582 41.4345C17.5582 41.0467 17.2439 40.7324 16.8564 40.7324Z" fill="#A88EC3"/>
<path d="M9.8286 37.9219H0.702181C0.314294 37.9219 0 38.2361 0 38.6237C0 39.0115 0.314294 39.3258 0.702181 39.3258H9.8286C10.2162 39.3258 10.5305 39.0115 10.5305 38.6237C10.5305 38.2361 10.2162 37.9219 9.8286 37.9219Z" fill="#A88EC3"/>
</svg>
