<svg width="54" height="44" viewBox="0 0 54 44" fill="none" xmlns="http://www.w3.org/2000/svg">
<path d="M52.588 1.75175C48.5448 0.42273 37.9138 -2.09449 26.5203 3.35362C14.9672 8.88095 10.392 18.8354 8.96452 22.8577C8.86699 23.1394 8.92019 23.4474 9.09752 23.6762C9.27485 23.9139 9.54972 24.0547 9.85118 24.0283C14.8431 23.7731 19.7285 22.7521 24.3746 20.9918C28.3823 19.4955 32.124 17.4976 35.5376 15.0244C34.6687 16.3182 33.7111 17.568 32.6737 18.765C31.2373 20.4109 29.6679 21.9159 28.0188 23.2362C27.7439 23.4474 27.4513 23.6762 27.1676 23.8963C16.9267 31.6592 5.4179 31.8528 0.94029 31.5712C0.532428 31.5624 0.151166 31.8088 0.0359008 32.2049C-0.0793645 32.5921 0.0891001 33.0146 0.452629 33.217C1.51662 33.8067 9.02659 37.7674 18.7621 37.7674C21.9274 37.7674 25.3411 37.3449 28.8345 36.2536C29.8098 35.9543 30.7053 35.6199 31.5654 35.259C33.2146 39.0876 36.3799 42.0097 41.026 43.9285C41.1413 43.9725 41.2477 43.9901 41.3718 43.9901C41.4871 43.9901 41.6023 43.9725 41.7087 43.9285C55.7622 38.1459 51.923 24.9525 51.8787 24.8204C51.7989 24.5476 51.5861 24.3276 51.3112 24.2395L46.8868 22.7697C47.5784 21.7663 48.2522 20.7189 48.864 19.5924C48.8818 19.5571 48.8995 19.5219 48.9084 19.4779C51.6393 14.3467 53.1288 8.51129 53.1998 2.5967C53.2086 2.21823 52.9604 1.87497 52.588 1.75175ZM47.3035 18.7386C47.2858 18.7738 47.268 18.809 47.2503 18.8442C46.6031 20.0236 45.9026 21.1502 45.1578 22.1976L41.6467 21.0358C41.6467 21.0358 41.2654 20.9742 41.0881 21.0358L31.4058 24.2395C31.1309 24.3276 30.9181 24.5476 30.8383 24.8204C30.8383 24.8292 30.8295 24.8556 30.8117 24.8996C30.8117 24.9085 30.8117 24.9261 30.8029 24.9349C30.794 24.9789 30.7851 25.0141 30.7674 25.0669C30.7585 25.0933 30.7585 25.1285 30.7497 25.1549C30.7319 25.2077 30.7231 25.2605 30.7053 25.3309C30.6965 25.3661 30.6876 25.4101 30.6787 25.4453C30.661 25.5158 30.6521 25.5862 30.6344 25.6654C30.6255 25.7182 30.6167 25.771 30.5989 25.8238C30.5901 25.903 30.5723 25.9822 30.5546 26.079C30.5457 26.1407 30.5369 26.2023 30.528 26.2727C30.5103 26.3607 30.4925 26.4575 30.4837 26.5631C30.4659 26.6335 30.4571 26.704 30.4482 26.7832C30.4393 26.8888 30.4216 26.9944 30.4127 27.1C30.4039 27.188 30.395 27.276 30.3861 27.3553C30.3773 27.4697 30.3595 27.5841 30.3507 27.7073C30.3507 27.8041 30.3418 27.8922 30.3329 27.989C30.3241 28.1122 30.3241 28.2354 30.3152 28.3674C30.3152 28.4643 30.3152 28.5699 30.3063 28.6755V29.406C30.3152 29.538 30.3152 29.6789 30.3241 29.8285C30.3329 29.9429 30.3329 30.0573 30.3418 30.1717C30.3507 30.3214 30.3684 30.471 30.3773 30.6206C30.395 30.735 30.4039 30.8583 30.4127 30.9727C30.4305 31.1311 30.4571 31.2895 30.4837 31.4391C30.5014 31.5624 30.5103 31.6856 30.5369 31.8088C30.5635 31.976 30.5989 32.1345 30.6255 32.2929C30.6521 32.4249 30.6787 32.5481 30.7053 32.6714C30.7408 32.8386 30.7851 33.0058 30.8295 33.173C30.8649 33.3051 30.8915 33.4283 30.9359 33.5515C30.9359 33.5779 30.9447 33.5955 30.9536 33.6219C30.1201 33.9652 29.2512 34.282 28.3025 34.5725C18.7532 37.565 9.88665 35.2502 5.04551 33.3755C11.2255 33.1554 20.0389 31.5184 28.2493 25.2869C28.5419 25.0669 28.8433 24.8292 29.1271 24.6092C30.8649 23.2186 32.5052 21.6431 34.0125 19.918C36.2026 17.4008 38.0557 14.6371 39.5275 11.715C39.7226 11.3366 39.6162 10.8789 39.2704 10.6148C38.9335 10.3596 38.4636 10.3772 38.1444 10.6677C33.9327 14.4347 29.0916 17.348 23.7451 19.3459C19.6931 20.8774 15.4548 21.8279 11.1191 22.18C12.9013 17.8321 17.3966 9.67309 27.2917 4.93789C37.5592 0.0266633 47.1794 1.93658 51.4087 3.2216C51.2403 8.66972 49.8305 14.021 47.3035 18.7386Z" fill="#A88EC3"/>
</svg>
