<svg width="39" height="38" viewBox="0 0 39 38" fill="none" xmlns="http://www.w3.org/2000/svg">
<path d="M31.6192 37.6542H19.992C9.61043 37.6542 1.16406 29.2084 1.16406 18.8271C1.16406 8.44579 9.61035 0 19.992 0C26.1957 0 32.0004 3.05652 35.5192 8.17588C35.7258 8.47682 35.6499 8.88856 35.3487 9.09548C35.048 9.30131 34.6358 9.22569 34.429 8.92492C31.1573 4.16457 25.76 1.32244 19.9919 1.32244C10.3393 1.32244 2.48654 9.17491 2.48654 18.827C2.48654 28.4792 10.3392 36.3316 19.9919 36.3316H31.6191C31.9844 36.3316 32.2803 36.6276 32.2803 36.9929C32.2804 37.3582 31.9844 37.6542 31.6192 37.6542Z" fill="#A88EC3"/>
<path d="M5.4038 23.6032C5.11659 23.6032 4.85209 23.4144 4.76893 23.1244C4.36905 21.7324 4.16602 20.286 4.16602 18.8259C4.16602 15.3542 5.28554 12.0714 7.4037 9.33177C7.62801 9.0438 8.04281 8.98955 8.33155 9.21326C8.62038 9.43664 8.67353 9.85176 8.45032 10.1408C6.51247 12.6467 5.48857 15.6496 5.48857 18.8258C5.48857 20.1625 5.67406 21.4858 6.03978 22.759C6.14049 23.11 5.93796 23.4763 5.58717 23.577C5.52579 23.5947 5.46433 23.6032 5.4038 23.6032Z" fill="#A88EC3"/>
<path d="M23.2674 37.6571C23.1972 37.6571 23.1259 37.6457 23.0556 37.6219C16.8737 35.5313 12.1486 30.7848 10.092 24.6002C7.20198 15.907 11.9229 6.48318 20.6162 3.59298C24.0192 2.46136 27.6579 2.72322 30.8639 4.32888C34.0696 5.93479 36.4585 8.69292 37.5899 12.0953C38.5058 14.8506 38.294 17.798 36.9937 20.3941C35.6928 22.9903 33.4589 24.9248 30.7037 25.8408C26.0825 27.3784 21.0759 24.8685 19.5394 20.2487C18.9588 18.5016 19.0424 16.6425 19.7755 15.0137C20.4905 13.209 21.996 11.8572 23.8935 11.3329C25.2109 10.97 26.5882 11.1402 27.7759 11.8133C28.9632 12.4867 29.8176 13.5821 30.1813 14.8979C30.8013 17.1413 29.4807 19.4709 27.2371 20.091C25.3684 20.6073 23.4347 19.5077 22.9196 17.6433C22.4877 16.0813 23.4078 14.4588 24.9701 14.027C26.2906 13.6628 27.6607 14.439 28.0259 15.7594C28.123 16.1115 27.9164 16.4757 27.5645 16.5731C27.2137 16.6703 26.8479 16.4641 26.7509 16.1118C26.5804 15.4942 25.9397 15.1323 25.3224 15.3015C24.4627 15.5393 23.957 16.4315 24.1947 17.2909C24.516 18.453 25.7233 19.1388 26.8847 18.8162C28.4253 18.3905 29.3321 16.7908 28.9063 15.2503C28.6372 14.2749 28.0037 13.4628 27.1234 12.9638C26.243 12.4647 25.2217 12.3372 24.2458 12.6078C22.7511 13.0207 21.5656 14.0854 20.9931 15.5287C20.385 16.8818 20.3185 18.4001 20.7947 19.8313C22.0997 23.7586 26.3567 25.8915 30.2862 24.586C32.7066 23.7813 34.6687 22.0822 35.811 19.8019C36.9532 17.5215 37.1392 14.9328 36.3343 12.5127C35.3145 9.4456 33.1611 6.95892 30.2712 5.51136C27.3806 4.06363 24.0996 3.82796 21.0334 4.84785C13.0325 7.50815 8.68714 16.1817 11.3473 24.1827C13.2717 29.9706 17.6935 34.4124 23.4792 36.3691C23.8253 36.486 24.0108 36.8614 23.894 37.2073C23.8006 37.4833 23.5433 37.6571 23.2674 37.6571Z" fill="#A88EC3"/>
<path d="M25.015 29.5732C23.6769 29.5732 22.5879 28.4387 22.5879 27.0444C22.5879 25.65 23.6769 24.5156 25.015 24.5156C26.353 24.5156 27.442 25.65 27.442 27.0444C27.442 28.4387 26.353 29.5732 25.015 29.5732ZM25.015 25.8381C24.4059 25.8381 23.9104 26.3793 23.9104 27.0444C23.9104 27.7095 24.4059 28.2507 25.015 28.2507C25.6241 28.2507 26.1195 27.7095 26.1195 27.0444C26.1195 26.3793 25.6241 25.8381 25.015 25.8381Z" fill="#A88EC3"/>
<path d="M26.9913 37.6507H23.0453C22.68 37.6507 22.384 37.3547 22.384 36.9894V33.9701C19.5461 33.3486 17.5851 31.574 16.6706 30.0536C16.235 29.3302 16.4093 28.393 17.0762 27.8743C17.7405 27.358 18.6834 27.4127 19.2698 28.0001C20.9926 29.7238 22.7471 30.4579 23.161 30.615H26.8755C27.2868 30.4587 29.0423 29.7248 30.7662 28.0001C31.3521 27.4127 32.2954 27.358 32.9598 27.8741C33.6263 28.3927 33.8008 29.3297 33.3658 30.0534C32.4515 31.574 30.4904 33.3486 27.6525 33.9701V36.9894C27.6526 37.3547 27.3565 37.6507 26.9913 37.6507ZM23.7066 36.3282H26.33V33.4222C26.33 33.097 26.5666 32.8201 26.888 32.7693C29.5786 32.3425 31.4131 30.7347 32.2325 29.3722C32.3229 29.2214 32.2867 29.0262 32.1477 28.9178C32.0124 28.813 31.8171 28.8197 31.7014 28.9352C29.5052 31.1328 27.2898 31.8742 27.1969 31.9047C27.1303 31.9265 27.061 31.9376 26.9913 31.9376H23.0454C22.9756 31.9376 22.9064 31.9265 22.8398 31.9047C22.7468 31.8743 20.531 31.1328 18.3348 28.9352C18.219 28.8198 18.0238 28.8122 17.8884 28.9182C17.7494 29.0262 17.7133 29.2212 17.8042 29.3721C18.6236 30.7347 20.4581 32.3426 23.1487 32.7693C23.47 32.8201 23.7066 33.097 23.7066 33.4222V36.3282Z" fill="#A88EC3"/>
<path d="M7.92724 37.6556H0.661349C0.345227 37.6556 0.0734412 37.4319 0.0124887 37.1218C-0.0485485 36.8115 0.11888 36.5018 0.411266 36.3822C0.638629 36.2884 5.97744 34.0096 3.87937 28.5551C3.74865 28.2141 3.91862 27.8316 4.25967 27.7006C4.59961 27.5694 4.98287 27.7393 5.11419 28.0804C6.71574 32.2443 4.70803 34.9105 2.95567 36.3332H7.92716C8.29245 36.3332 8.58839 36.6292 8.58839 36.9945C8.58848 37.3596 8.29245 37.6556 7.92724 37.6556Z" fill="#A88EC3"/>
</svg>
