<svg width="35" height="37" viewBox="0 0 35 37" fill="none" xmlns="http://www.w3.org/2000/svg">
<path d="M17.4609 36.0236H16.3237C14.2191 36.0248 12.1347 35.646 10.19 34.9087C8.24529 34.1714 6.47831 33.0901 4.99015 31.7267C3.50199 30.3633 2.32183 28.7445 1.51719 26.9629C0.712544 25.1814 0.299196 23.272 0.300786 21.3439V17.3068C0.300786 17.1545 0.366847 17.0084 0.484435 16.9007C0.602023 16.7929 0.761507 16.7324 0.927802 16.7324H32.8609C33.0272 16.7324 33.1866 16.7929 33.3042 16.9007C33.4218 17.0084 33.4879 17.1545 33.4879 17.3068V21.3439C33.4896 23.2723 33.0763 25.1821 32.2715 26.964C31.4666 28.7459 30.2861 30.3649 28.7975 31.7284C27.3089 33.0918 25.5413 34.173 23.5961 34.9101C21.6508 35.6471 19.566 36.0255 17.4609 36.0236ZM1.55482 17.8812V21.3439C1.55482 28.8048 8.18328 34.8748 16.3255 34.8748H17.4627C25.6054 34.8748 32.2338 28.8048 32.2338 21.3439V17.8812H1.55482Z" fill="#A88EC3" stroke="#A88EC3" stroke-width="0.6"/>
<path d="M3.21442 17.8759C3.10553 17.8758 2.99854 17.8497 2.90398 17.8003C2.80942 17.7508 2.73055 17.6796 2.67514 17.5938C2.61973 17.5079 2.58969 17.4103 2.58797 17.3106C2.58625 17.2108 2.61291 17.1124 2.66534 17.025C3.66239 15.3667 5.11818 13.9779 6.88652 12.998C8.65485 12.0182 10.6735 11.4818 12.7397 11.4428L20.6737 11.284C22.5107 11.2492 24.3038 10.7635 25.8661 9.87763C27.4284 8.99175 28.7026 7.73809 29.5558 6.24743C29.5968 6.17557 29.6539 6.11246 29.7233 6.06225C29.7928 6.01205 29.8731 5.97588 29.9589 5.95613C30.2868 5.88187 30.465 6.02588 30.7606 6.26425C30.9702 6.43328 31.182 6.62037 31.3903 6.82017C32.0318 7.43269 32.5796 8.12208 33.0188 8.8695C33.7761 10.1857 34.0421 11.5289 33.8097 12.8623C33.5141 14.5559 32.4097 16.1942 30.5268 17.7302C30.4655 17.7812 30.3937 17.8206 30.3157 17.846C30.2376 17.8714 30.1549 17.8824 30.0721 17.8784C29.9894 17.8744 29.9084 17.8554 29.8338 17.8225C29.7591 17.7896 29.6923 17.7435 29.6372 17.6868C29.5822 17.6301 29.5399 17.564 29.5128 17.4923C29.4858 17.4206 29.4745 17.3447 29.4797 17.269C29.4849 17.1932 29.5064 17.1192 29.543 17.0511C29.5796 16.983 29.6305 16.9223 29.6929 16.8723C31.7128 15.2243 32.7021 13.504 32.6331 11.7595C32.5534 9.74544 31.0898 8.15357 30.2711 7.41589C29.2601 8.91744 27.8545 10.1631 26.1828 11.039C24.5111 11.9149 22.6265 12.3932 20.701 12.4303L12.767 12.5891C9.01298 12.6646 5.5635 14.576 3.76486 17.5776C3.71076 17.668 3.63112 17.7434 3.53427 17.7959C3.43742 17.8483 3.32695 17.876 3.21442 17.8759Z" fill="#A88EC3" stroke="#A88EC3" stroke-width="0.6"/>
<path d="M32.8609 21.4789H0.927798C0.761503 21.4789 0.602019 21.4183 0.48443 21.3106C0.366842 21.2029 0.300781 21.0568 0.300781 20.9045C0.300781 20.7521 0.366842 20.606 0.48443 20.4983C0.602019 20.3906 0.761503 20.3301 0.927798 20.3301H32.8609C33.0272 20.3301 33.1866 20.3906 33.3042 20.4983C33.4218 20.606 33.4879 20.7521 33.4879 20.9045C33.4879 21.0568 33.4218 21.2029 33.3042 21.3106C33.1866 21.4183 33.0272 21.4789 32.8609 21.4789Z" fill="#A88EC3" stroke="#A88EC3" stroke-width="0.6"/>
<path d="M12.3708 6.36215C10.4477 6.36215 8.88281 4.93521 8.88281 3.18087C8.88281 1.42653 10.4477 0 12.3708 0C14.294 0 15.8593 1.42694 15.8593 3.18087C15.8593 4.9348 14.2944 6.36215 12.3708 6.36215ZM12.3708 1.14877C11.9327 1.15161 11.5052 1.27323 11.1424 1.4983C10.7796 1.72337 10.4976 2.04181 10.3321 2.41347C10.1666 2.78512 10.1249 3.19335 10.2123 3.58668C10.2998 3.98001 10.5123 4.34082 10.8233 4.62362C11.1343 4.90642 11.5297 5.09855 11.9596 5.17577C12.3896 5.25299 12.835 5.21185 13.2395 5.05754C13.644 4.90323 13.9895 4.64265 14.2326 4.30868C14.4756 3.9747 14.6053 3.58227 14.6052 3.18087C14.6024 2.64017 14.3656 2.12257 13.9467 1.74162C13.5278 1.36067 12.9611 1.14746 12.3708 1.14877Z" fill="#A88EC3"/>
<path d="M6.25775 10.3328C5.76904 10.331 5.29188 10.1965 4.88653 9.94641C4.48117 9.69632 4.16579 9.34181 3.98019 8.92766C3.7946 8.5135 3.74712 8.05825 3.84374 7.61939C3.94036 7.18053 4.17676 6.77773 4.52308 6.46185C4.86941 6.14597 5.31014 5.93116 5.78962 5.84456C6.26911 5.75795 6.76586 5.80342 7.21716 5.97523C7.66845 6.14704 8.05407 6.43749 8.32531 6.8099C8.59656 7.18231 8.74127 7.62 8.74119 8.06769C8.73905 8.66955 8.47638 9.24605 8.0108 9.6707C7.54522 10.0954 6.91476 10.3335 6.25775 10.3328ZM6.25775 6.95092C6.01709 6.95279 5.78241 7.01986 5.58329 7.1437C5.38417 7.26754 5.22952 7.4426 5.13882 7.64682C5.04813 7.85104 5.02545 8.07528 5.07365 8.29129C5.12185 8.5073 5.23876 8.7054 5.40966 8.86064C5.58055 9.01589 5.79779 9.12132 6.03398 9.16365C6.27018 9.20598 6.51477 9.18332 6.73693 9.09852C6.95909 9.01373 7.14889 8.87059 7.28239 8.68715C7.4159 8.5037 7.48715 8.28817 7.48716 8.06769C7.4855 7.77034 7.35511 7.48574 7.12462 7.27636C6.89412 7.06698 6.58236 6.94994 6.25775 6.95092Z" fill="#A88EC3"/>
<path d="M19.2538 8.63751C18.7652 8.63565 18.288 8.50119 17.8827 8.25112C17.4773 8.00105 17.1619 7.64657 16.9763 7.23244C16.7907 6.8183 16.7432 6.36308 16.8398 5.92423C16.9364 5.48538 17.1727 5.08258 17.519 4.76668C17.8653 4.45078 18.306 4.23595 18.7854 4.14929C19.2649 4.06264 19.7616 4.10805 20.2129 4.2798C20.6642 4.45155 21.0499 4.74193 21.3212 5.11429C21.5925 5.48665 21.7373 5.92429 21.7373 6.37197C21.7353 6.9739 21.4726 7.5505 21.0071 7.97525C20.5415 8.39999 19.9109 8.63817 19.2538 8.63751ZM19.2538 5.25561C19.0132 5.25747 18.7785 5.32456 18.5793 5.44842C18.3802 5.57228 18.2256 5.74736 18.1349 5.9516C18.0442 6.15585 18.0215 6.38011 18.0698 6.59613C18.118 6.81215 18.235 7.01025 18.4059 7.16548C18.5769 7.3207 18.7941 7.4261 19.0304 7.46838C19.2666 7.51067 19.5112 7.48795 19.7333 7.40309C19.9555 7.31823 20.1453 7.17503 20.2787 6.99154C20.4122 6.80804 20.4833 6.59246 20.4832 6.37197C20.4815 6.07469 20.351 5.79019 20.1206 5.5809C19.8901 5.37161 19.5784 5.25463 19.2538 5.25561Z" fill="#A88EC3"/>
</svg>
