<svg width="53" height="57" viewBox="0 0 53 57" fill="none" xmlns="http://www.w3.org/2000/svg">
<path d="M51.1029 36.6532C50.2608 35.6968 49.0463 35.1485 47.7707 35.1485H44.0623C43.8541 35.1485 43.7344 35.0265 43.6816 34.9537C43.6384 34.8941 43.545 34.7327 43.6118 34.5277L43.8317 33.8678C43.8457 33.8264 43.8564 33.7837 43.8642 33.7408L44.6348 29.467C44.6926 29.1407 44.7219 28.8092 44.7219 28.4829C44.7219 26.1822 43.2765 24.0875 41.1227 23.2692C40.0562 22.8667 38.8614 22.9294 37.8456 23.4392C36.8301 23.9484 36.0673 24.8685 35.7517 25.9648L34.684 29.7075L33.3887 31.1846V27.3708C33.3887 25.8133 32.1308 24.5475 30.5777 24.5275V22.7495C30.5777 20.5234 29.3882 18.5749 27.6154 17.4902V13.5267C27.6154 11.9432 26.3242 10.6551 24.7375 10.6551H23.2897V5.44969H25.9412C26.4475 5.44969 26.8576 5.0395 26.8576 4.53325V0.916435C26.8576 0.410188 26.4475 0 25.9412 0H6.04245C2.71052 0 0 2.71052 0 6.04245V7.31925C0 7.8255 0.410188 8.23569 0.916435 8.23569H4.53952C5.04576 8.23569 5.45595 7.8255 5.45595 7.31925V6.04245C5.45595 5.71549 5.71907 5.44969 6.04245 5.44969H17.8401V10.6551H16.398C14.8112 10.6551 13.5204 11.9432 13.5204 13.5267V17.4885C11.7459 18.5727 10.5551 20.5222 10.5551 22.7495V24.5278C9.00005 24.5491 7.74078 25.8142 7.74078 27.3708V46.9948C7.74078 49.4675 9.74965 51.4791 12.2191 51.4791H23.3588L23.3509 54.0915C23.3503 54.3349 23.4464 54.5688 23.6182 54.7412C23.7903 54.9136 24.0239 55.0106 24.2673 55.0106H29.2012C30.3262 56.1651 31.8733 56.819 33.511 56.819H43.1518C46.9545 56.819 50.4377 53.7517 50.9159 49.9827L52.1742 40.1525C52.3359 38.8859 51.9454 37.6102 51.1029 36.6532ZM6.04245 3.61682C4.70837 3.61682 3.62308 4.70508 3.62308 6.04245V6.40282H1.83287V6.04245C1.83287 3.72123 3.72123 1.83287 6.04245 1.83287H25.0248V3.61682H22.3733C21.8671 3.61682 21.4569 4.02701 21.4569 4.53325V10.6551H19.6729V4.53325C19.6729 4.02701 19.2627 3.61682 18.7565 3.61682H6.04245ZM15.3533 13.5267C15.3533 12.9539 15.8219 12.4879 16.398 12.4879H24.7375C25.3138 12.4879 25.7825 12.9539 25.7825 13.5267V16.7411C25.3404 16.6401 24.8822 16.5818 24.4099 16.5818H23.4058V14.7853C23.4058 14.279 22.9956 13.8688 22.4894 13.8688C21.9831 13.8688 21.5729 14.279 21.5729 14.7853V16.5818H19.5629V14.7853C19.5629 14.279 19.1527 13.8688 18.6464 13.8688C18.1402 13.8688 17.73 14.279 17.73 14.7853V16.5818H16.7229C16.2516 16.5818 15.7945 16.6397 15.3533 16.7403V13.5267ZM12.388 22.7495C12.388 20.3594 14.3327 18.4146 16.7229 18.4146H24.4099C26.8001 18.4146 28.7448 20.3594 28.7448 22.7495V24.5209H12.388V22.7495ZM23.4058 36.0623L23.3644 49.6462H12.2191C10.7604 49.6462 9.57365 48.4568 9.57365 46.9948V27.3708C9.57365 26.8117 10.0313 26.3568 10.5939 26.3568H30.5416C31.1009 26.3568 31.5559 26.8117 31.5559 27.3708V33.2747L29.9127 35.1485H24.3222C23.8172 35.1485 23.4073 35.5572 23.4058 36.0623ZM50.3562 39.9198L49.0976 49.7509C48.7313 52.6378 46.064 54.9861 43.1518 54.9861H33.511C32.2674 54.9861 31.1 54.4462 30.3086 53.5044C30.1344 53.2973 29.8775 53.1777 29.6069 53.1777H25.1865L25.236 36.9814H30.328C30.592 36.9814 30.8429 36.8677 31.0171 36.669L36.198 30.7608C36.2872 30.6591 36.3528 30.5386 36.3901 30.4082L37.5136 26.4698C37.6902 25.8565 38.0998 25.3622 38.6675 25.0773C39.2358 24.7918 39.8784 24.759 40.4741 24.9836C41.9186 25.5322 42.889 26.9385 42.889 28.4829C42.889 28.7027 42.869 28.9262 42.8305 29.1449L42.0722 33.3508L41.8714 33.9535C41.642 34.6557 41.7643 35.4319 42.1981 36.03C42.6366 36.6347 43.3162 36.9814 44.0623 36.9814H47.7707C48.5201 36.9814 49.233 37.3033 49.7271 37.8644C50.222 38.4261 50.4511 39.1755 50.3562 39.9198Z" fill="#A88EC3"/>
</svg>
