<svg width="41" height="62" viewBox="0 0 41 62" fill="none" xmlns="http://www.w3.org/2000/svg">
<path fill-rule="evenodd" clip-rule="evenodd" d="M20.191 40.7318C18.2934 40.7318 16.5041 39.9918 15.1641 38.6492C14.8919 38.377 14.8919 37.9383 15.1641 37.6661C15.4363 37.3938 15.8751 37.3965 16.1473 37.6661C17.2283 38.7471 18.6634 39.3417 20.1936 39.3417C21.7212 39.3417 23.1564 38.747 24.2373 37.6661C24.5096 37.3965 24.9483 37.3965 25.2205 37.6661C25.4927 37.9383 25.4927 38.377 25.2205 38.6492C23.8779 39.9918 22.0913 40.7318 20.1936 40.7318H20.191Z" fill="#A88EC3" stroke="#A88EC3" stroke-width="0.4"/>
<path fill-rule="evenodd" clip-rule="evenodd" d="M28.1401 56.0877H12.2639C11.8807 56.0877 11.5688 55.7758 11.5688 55.3926V44.8845C11.5688 44.5013 11.8807 44.1895 12.2639 44.1895C12.6471 44.1895 12.959 44.5013 12.959 44.8845V54.6978H27.4448V45.0537C27.4448 44.6704 27.7567 44.3586 28.1398 44.3586C28.5231 44.3586 28.8349 44.6705 28.8349 45.0537V55.3926C28.8349 55.7759 28.5233 56.0877 28.1401 56.0877Z" fill="#A88EC3" stroke="#A88EC3" stroke-width="0.4"/>
<path fill-rule="evenodd" clip-rule="evenodd" d="M19.6466 5.12817C16.2372 5.12817 13.293 6.17215 11.2529 7.17377C8.99317 8.27851 6.98451 9.76911 5.28775 11.6113C2.90649 14.1934 1.5956 17.5473 1.5956 21.0544V51.1736C1.5956 53.1161 3.30027 54.6966 5.39614 54.6966H35.0261C37.1166 54.6966 38.8134 53.1108 38.8134 51.1603V18.8003V18.7871C38.8267 18.166 38.7606 17.529 38.6179 16.8366C37.5395 12.074 33.3267 11.3393 33.147 11.3102C33.0017 11.2864 32.8669 11.2177 32.7638 11.1146C28.2285 6.5503 23.6216 5.12817 19.6466 5.12817ZM35.0235 56.0863H5.39357C2.52862 56.0863 0.200195 53.8821 0.200195 51.1731V21.054C0.200195 17.1953 1.64323 13.5086 4.25974 10.6669C6.07544 8.69793 8.22152 7.10429 10.6372 5.92289C15.3601 3.60239 24.6054 1.06253 33.5966 9.98244C34.6485 10.215 38.8243 11.4519 39.9714 16.5369C39.9714 16.5396 39.974 16.5448 39.974 16.5501C40.1405 17.343 40.2119 18.083 40.1987 18.8072V51.159C40.1987 53.876 37.8755 56.0854 35.0212 56.0854L35.0235 56.0863Z" fill="#A88EC3" stroke="#A88EC3" stroke-width="0.4"/>
<path fill-rule="evenodd" clip-rule="evenodd" d="M6.86788 33.4676C7.23789 40.8864 13.269 46.9175 20.3205 46.9175C27.2766 46.9175 33.4349 40.7621 33.7759 33.4757V20.6049C31.9311 20.6419 30.1947 19.9759 28.7015 18.6597C27.9377 17.9857 27.38 17.2642 27.0496 16.7752C26.9941 16.696 26.9466 16.622 26.9016 16.5532C21.8193 20.2031 16.4855 21.1229 12.8414 21.2418C10.0452 21.3317 7.83571 20.9828 6.67278 20.7397L6.871 33.4677L6.86788 33.4676ZM20.3232 48.3079C16.5174 48.3079 12.8699 46.7301 10.0526 43.8678C7.29338 41.061 5.67058 37.3873 5.48032 33.5261V33.5023L5.27154 19.8676C5.26889 19.6456 5.36932 19.4368 5.5464 19.3047C5.72083 19.1699 5.95077 19.1276 6.16221 19.191C6.18864 19.199 8.95051 19.9866 12.8515 19.8518C16.43 19.7302 21.7344 18.7867 26.6952 14.9809C26.9066 14.8196 27.1868 14.7932 27.4246 14.9095C27.5726 14.9809 27.6863 15.1051 27.7523 15.2478C27.8396 15.4249 30.0147 19.7144 34.3888 19.1673C34.587 19.1409 34.7852 19.2043 34.9358 19.3338C35.0865 19.4659 35.1711 19.6562 35.1711 19.8544V33.4891V33.5208C34.9966 37.3821 33.3739 41.056 30.6067 43.8652C27.7893 46.7275 24.1368 48.3053 20.3286 48.3053L20.3232 48.3079Z" fill="#A88EC3" stroke="#A88EC3" stroke-width="0.4"/>
<path fill-rule="evenodd" clip-rule="evenodd" d="M14.144 27.6134C12.6904 27.6134 11.2341 27.0584 10.1241 25.951C9.85187 25.6788 9.85187 25.24 10.1241 24.9678C10.3963 24.6956 10.835 24.6956 11.1072 24.9678C12.7802 26.6435 15.5051 26.6435 17.1781 24.9678C17.4503 24.6956 17.889 24.6956 18.1612 24.9678C18.4335 25.2401 18.4335 25.6788 18.1612 25.951C17.0539 27.0584 15.5976 27.6134 14.1413 27.6134H14.144Z" fill="#A88EC3" stroke="#A88EC3" stroke-width="0.4"/>
<path fill-rule="evenodd" clip-rule="evenodd" d="M26.2353 27.6134C24.7791 27.6134 23.3254 27.0584 22.2154 25.951C21.9432 25.6788 21.9432 25.24 22.2154 24.9678C22.4876 24.6956 22.9264 24.6956 23.1986 24.9678C24.8742 26.6435 27.5964 26.6435 29.2694 24.9678C29.5416 24.6956 29.9804 24.6956 30.2526 24.9678C30.5248 25.2401 30.5248 25.6788 30.2526 25.951C29.1452 27.0584 27.6889 27.6134 26.2327 27.6134H26.2353Z" fill="#A88EC3" stroke="#A88EC3" stroke-width="0.4"/>
<path fill-rule="evenodd" clip-rule="evenodd" d="M29.3932 32.9858H28.7219C28.3387 32.9858 28.0269 32.674 28.0269 32.2908C28.0269 31.9075 28.3387 31.5957 28.7219 31.5957H29.3932C29.7765 31.5957 30.0883 31.9076 30.0883 32.2908C30.0883 32.674 29.7764 32.9858 29.3932 32.9858Z" fill="#A88EC3" stroke="#A88EC3" stroke-width="0.4"/>
<path fill-rule="evenodd" clip-rule="evenodd" d="M29.8161 35.227H29.1448C28.7589 35.227 28.4497 34.9152 28.4497 34.532C28.4497 34.1487 28.7589 33.8369 29.1448 33.8369H29.8161C30.1993 33.8369 30.5111 34.1488 30.5111 34.532C30.5111 34.9152 30.1993 35.227 29.8161 35.227Z" fill="#A88EC3" stroke="#A88EC3" stroke-width="0.4"/>
<path fill-rule="evenodd" clip-rule="evenodd" d="M26.005 33.5112H25.3337C24.9505 33.5112 24.6387 33.1993 24.6387 32.8162C24.6387 32.4329 24.9505 32.1211 25.3337 32.1211H26.005C26.3883 32.1211 26.7001 32.433 26.7001 32.8162C26.7001 33.1994 26.3882 33.5112 26.005 33.5112Z" fill="#A88EC3" stroke="#A88EC3" stroke-width="0.4"/>
<path fill-rule="evenodd" clip-rule="evenodd" d="M30.7521 37.7192H30.0676C29.6844 37.7192 29.3726 37.4074 29.3726 37.0242C29.3726 36.6409 29.6844 36.3291 30.0676 36.3291H30.7521C31.1354 36.3291 31.4472 36.641 31.4472 37.0242C31.4472 37.4074 31.1353 37.7192 30.7521 37.7192Z" fill="#A88EC3" stroke="#A88EC3" stroke-width="0.4"/>
<path fill-rule="evenodd" clip-rule="evenodd" d="M27.5089 36.5991H26.8376C26.4544 36.5991 26.1426 36.2872 26.1426 35.904C26.1426 35.5208 26.4544 35.209 26.8376 35.209H27.5089C27.8922 35.209 28.204 35.5209 28.204 35.904C28.204 36.2873 27.8921 36.5991 27.5089 36.5991Z" fill="#A88EC3" stroke="#A88EC3" stroke-width="0.4"/>
<path fill-rule="evenodd" clip-rule="evenodd" d="M20.2039 60.9267C19.818 60.9267 19.5088 60.6148 19.5088 60.2316V0.895257C19.5088 0.512029 19.818 0.200195 20.2039 0.200195C20.5871 0.200195 20.8989 0.512063 20.8989 0.895257V60.2316C20.8989 60.6148 20.587 60.9267 20.2039 60.9267Z" fill="#A88EC3" stroke="#A88EC3" stroke-width="0.4"/>
</svg>
