<svg width="43" height="43" viewBox="0 0 43 43" fill="none" xmlns="http://www.w3.org/2000/svg">
<path d="M17.5625 3.51001V4.91401C17.5625 5.84492 17.9323 6.73771 18.5906 7.39596C19.2488 8.05422 20.1416 8.42402 21.0725 8.42402C22.0034 8.42402 22.8962 8.05422 23.5544 7.39596C24.2127 6.73771 24.5825 5.84492 24.5825 4.91401V3.51001C24.5825 2.5791 24.2127 1.68631 23.5544 1.02806C22.8962 0.369803 22.0034 0 21.0725 0C20.1416 0 19.2488 0.369803 18.5906 1.02806C17.9323 1.68631 17.5625 2.5791 17.5625 3.51001ZM23.1785 3.51001V4.91401C23.1785 5.47256 22.9566 6.00823 22.5617 6.40318C22.1667 6.79813 21.631 7.02002 21.0725 7.02002C20.514 7.02002 19.9783 6.79813 19.5833 6.40318C19.1884 6.00823 18.9665 5.47256 18.9665 4.91401V3.51001C18.9665 2.95146 19.1884 2.41579 19.5833 2.02084C19.9783 1.62589 20.514 1.404 21.0725 1.404C21.631 1.404 22.1667 1.62589 22.5617 2.02084C22.9566 2.41579 23.1785 2.95146 23.1785 3.51001Z" fill="#A88EC3"/>
<path d="M38.61 11.2321H35.802C35.0573 11.2321 34.343 11.528 33.8164 12.0546C33.2898 12.5812 32.994 13.2954 32.994 14.0401V21.0602H28.08V13.3381C28.0789 12.4076 27.7087 11.5154 27.0507 10.8574C26.3927 10.1994 25.5006 9.82924 24.57 9.82812H16.848C15.9174 9.82924 15.0253 10.1994 14.3673 10.8574C13.7093 11.5154 13.3391 12.4076 13.338 13.3381V21.0602H9.126V14.0401C9.126 13.2954 8.83016 12.5812 8.30356 12.0546C7.77695 11.528 7.06273 11.2321 6.318 11.2321H3.51C2.57943 11.2332 1.6873 11.6034 1.02929 12.2614C0.371275 12.9194 0.00111468 13.8116 8.00226e-09 14.7421V28.0802C-2.48046e-05 28.2446 0.0576534 28.4038 0.162978 28.53C0.268303 28.6562 0.414593 28.7415 0.576342 28.7709L7.7557 30.076L8.424 41.4596C8.43457 41.6385 8.51318 41.8066 8.6437 41.9294C8.77422 42.0523 8.94678 42.1205 9.126 42.1202H14.742C14.9282 42.1202 15.1067 42.0462 15.2384 41.9146C15.37 41.7829 15.444 41.6044 15.444 41.4182V26.6762C15.444 26.5196 15.3916 26.3675 15.2951 26.2441C15.1987 26.1207 15.0638 26.0331 14.9119 25.9952L12.636 25.4259V25.2722H18.954V40.7162H16.146V42.1202H26.676V41.4182C26.676 41.6044 26.75 41.7829 26.8816 41.9146C27.0133 42.0462 27.1918 42.1202 27.378 42.1202H32.994C33.1732 42.1205 33.3458 42.0523 33.4763 41.9294C33.6068 41.8066 33.6854 41.6385 33.696 41.4596L34.3657 30.076L41.5451 28.7709C41.7066 28.7412 41.8525 28.6558 41.9576 28.5296C42.0626 28.4034 42.1201 28.2444 42.12 28.0802V14.7421C42.1189 13.8116 41.7487 12.9194 41.0907 12.2614C40.4327 11.6034 39.5406 11.2332 38.61 11.2321ZM14.742 13.3381C14.742 12.7796 14.9639 12.2439 15.3588 11.849C15.7538 11.454 16.2895 11.2321 16.848 11.2321H24.57C25.1285 11.2321 25.6642 11.454 26.0592 11.849C26.4541 12.2439 26.676 12.7796 26.676 13.3381V21.0602H25.272V14.7421H23.868V21.0602H17.55V14.7421H16.146V21.0602H14.742V13.3381ZM1.404 14.7421C1.404 14.1836 1.62588 13.6479 2.02083 13.253C2.41578 12.858 2.95145 12.6361 3.51 12.6361H6.318C6.69036 12.6361 7.04748 12.7841 7.31078 13.0474C7.57408 13.3107 7.722 13.6678 7.722 14.0401V21.3894L4.212 20.5119V16.1461H2.808V21.0602C2.80804 21.2167 2.86044 21.3688 2.95686 21.4922C3.05328 21.6156 3.18818 21.7032 3.34012 21.7411L11.232 23.7144V25.1318L1.404 23.2855V14.7421ZM9.828 40.7162H9.78799L9.126 29.4428C9.11675 29.2858 9.05506 29.1364 8.9508 29.0187C8.84655 28.9009 8.70578 28.8216 8.55106 28.7934L1.404 27.4947V24.7141L11.232 26.5568V40.7162H9.828ZM14.04 40.7162H12.636V26.8734L14.04 27.2244V40.7162ZM12.1039 22.4852L12.0203 22.4642H30.0997L30.0161 22.4852C29.8642 22.5231 29.7293 22.6107 29.6329 22.7341C29.5364 22.8575 29.484 23.0096 29.484 23.1662V23.8682H12.636V23.1662C12.636 23.0096 12.5836 22.8575 12.4871 22.7341C12.3907 22.6107 12.2558 22.5231 12.1039 22.4852ZM20.358 40.7162V25.2722H21.762V40.7162H20.358ZM27.2081 25.9952C27.0562 26.0331 26.9213 26.1207 26.8249 26.2441C26.7284 26.3675 26.676 26.5196 26.676 26.6762V40.7162H23.166V25.2722H29.484V25.4259L27.2081 25.9952ZM28.08 40.7162V27.2244L29.484 26.8734V40.7162H28.08ZM33.5703 28.7934C33.4156 28.8216 33.2749 28.9009 33.1706 29.0187C33.0663 29.1364 33.0047 29.2858 32.9954 29.4428L32.332 40.7162H30.888V26.5568L40.716 24.7141V27.4947L33.5703 28.7934ZM40.716 23.2855L30.888 25.1318V23.7144L38.7799 21.7411C38.9318 21.7032 39.0667 21.6156 39.1631 21.4922C39.2596 21.3688 39.312 21.2167 39.312 21.0602V16.1461H37.908V20.5119L34.398 21.3894V14.0401C34.398 13.6678 34.5459 13.3107 34.8092 13.0474C35.0725 12.7841 35.4296 12.6361 35.802 12.6361H38.61C39.1685 12.6361 39.7042 12.858 40.0992 13.253C40.4941 13.6479 40.716 14.1836 40.716 14.7421V23.2855Z" fill="#A88EC3"/>
<path d="M36.5178 9.82832C37.4484 9.8272 38.3405 9.45704 38.9985 8.79903C39.6565 8.14102 40.0267 7.24888 40.0278 6.31831V4.9143C40.0278 3.98339 39.658 3.09061 38.9998 2.43235C38.3415 1.7741 37.4487 1.4043 36.5178 1.4043C35.5869 1.4043 34.6941 1.7741 34.0359 2.43235C33.3776 3.09061 33.0078 3.98339 33.0078 4.9143V6.31831C33.0089 7.24888 33.3791 8.14102 34.0371 8.79903C34.6951 9.45704 35.5872 9.8272 36.5178 9.82832ZM34.4118 4.9143C34.4118 4.35576 34.6337 3.82009 35.0286 3.42513C35.4236 3.03018 35.9593 2.8083 36.5178 2.8083C37.0764 2.8083 37.612 3.03018 38.007 3.42513C38.4019 3.82009 38.6238 4.35576 38.6238 4.9143V6.31831C38.6238 6.87686 38.4019 7.41253 38.007 7.80748C37.612 8.20243 37.0764 8.42431 36.5178 8.42431C35.9593 8.42431 35.4236 8.20243 35.0286 7.80748C34.6337 7.41253 34.4118 6.87686 34.4118 6.31831V4.9143Z" fill="#A88EC3"/>
<path d="M2.125 6.31831C2.125 7.24922 2.4948 8.142 3.15306 8.80026C3.81131 9.45851 4.70409 9.82832 5.635 9.82832C6.56591 9.82832 7.45869 9.45851 8.11694 8.80026C8.7752 8.142 9.145 7.24922 9.145 6.31831V4.9143C9.145 3.98339 8.7752 3.09061 8.11694 2.43235C7.45869 1.7741 6.56591 1.4043 5.635 1.4043C4.70409 1.4043 3.81131 1.7741 3.15306 2.43235C2.4948 3.09061 2.125 3.98339 2.125 4.9143V6.31831ZM3.529 4.9143C3.529 4.35576 3.75088 3.82009 4.14583 3.42513C4.54078 3.03018 5.07645 2.8083 5.635 2.8083C6.19355 2.8083 6.72922 3.03018 7.12417 3.42513C7.51912 3.82009 7.741 4.35576 7.741 4.9143V6.31831C7.741 6.87686 7.51912 7.41253 7.12417 7.80748C6.72922 8.20243 6.19355 8.42431 5.635 8.42431C5.07645 8.42431 4.54078 8.20243 4.14583 7.80748C3.75088 7.41253 3.529 6.87686 3.529 6.31831V4.9143Z" fill="#A88EC3"/>
<path d="M20.3516 12.6367H21.7556V14.0407H20.3516V12.6367Z" fill="#A88EC3"/>
<path d="M20.3516 15.4434H21.7556V16.8474H20.3516V15.4434Z" fill="#A88EC3"/>
<path d="M20.3516 18.252H21.7556V19.656H20.3516V18.252Z" fill="#A88EC3"/>
<path d="M10.5312 2.80859H11.9353V4.2126H10.5312V2.80859Z" fill="#A88EC3"/>
<path d="M14.0234 2.10156H15.4274V3.50557H14.0234V2.10156Z" fill="#A88EC3"/>
<path d="M30.1797 2.80859H31.5837V4.2126H30.1797V2.80859Z" fill="#A88EC3"/>
<path d="M26.6797 2.10156H28.0837V3.50557H26.6797V2.10156Z" fill="#A88EC3"/>
</svg>
