<svg width="44" height="60" viewBox="0 0 44 60" fill="none" xmlns="http://www.w3.org/2000/svg">
<path d="M12.5155 9.12713C12.6817 9.12713 12.8497 9.07933 12.9981 8.97957L14.1203 8.22467C15.6823 7.17396 16.6148 5.42273 16.6148 3.54022V0.865974C16.6148 0.387725 16.2271 0 15.7488 0C15.2706 0 14.8828 0.387725 14.8828 0.865974V3.54022C14.8828 4.84518 14.2363 6.05916 13.1534 6.78762L12.0312 7.54252C11.6343 7.80947 11.529 8.34764 11.796 8.74449C11.9633 8.99296 12.2368 9.12713 12.5155 9.12713Z" fill="#A88EC3"/>
<path d="M9.29249 16.685C8.99839 17.0622 9.06571 17.6063 9.44295 17.9004C9.82007 18.1943 10.3643 18.127 10.6584 17.7499C10.8176 17.5457 11.047 17.4173 11.3044 17.3884C11.5622 17.3594 11.8141 17.4337 12.0147 17.5975L13.4528 18.7712C14.0641 19.2701 14.803 19.5129 15.5378 19.5129C16.4933 19.5129 17.4418 19.1021 18.0933 18.3093C18.9601 17.2545 19.0919 15.8017 18.4289 14.6082L17.21 12.4144C16.9778 11.9963 16.4507 11.8456 16.0323 12.0779C15.6142 12.3102 15.4636 12.8374 15.6958 13.2555L16.9147 15.4493C17.2301 16.017 17.1674 16.708 16.7551 17.2098C16.207 17.8769 15.2168 17.9753 14.548 17.4294L13.1098 16.2557C12.5451 15.7948 11.835 15.586 11.1108 15.6673C10.3864 15.7487 9.74074 16.1102 9.29249 16.685Z" fill="#A88EC3"/>
<path d="M33.8749 41.6573C32.4049 42.1601 30.8956 42.5502 29.3891 42.8169L23.9606 43.7782C20.9073 44.3188 17.793 43.4862 15.4169 41.4939C13.0406 39.5016 11.6779 36.5805 11.6779 33.4797V30.8523L18.2493 28.5831C18.7104 28.4239 19.0489 28.0446 19.1551 27.5685C19.2612 27.0925 19.1158 26.6053 18.7662 26.2654L17.2405 24.7818C15.4256 23.0173 13.0652 22.0011 10.5512 21.8904L7.23922 16.9879C6.72585 16.2281 6.5396 15.314 6.71476 14.4139C6.89005 13.5139 7.4055 12.7362 8.16644 12.2244L9.92457 11.0417C10.3214 10.7747 10.4267 10.2366 10.1598 9.83984C9.8927 9.44288 9.35462 9.33758 8.95786 9.60465L7.19962 10.7873C6.05439 11.5578 5.27833 12.7283 5.0146 14.083C4.75087 15.4377 5.03122 16.8137 5.80383 17.9575L8.52797 21.9897C7.83331 22.2039 7.25747 22.7173 6.9711 23.4161C6.6225 24.2665 6.77146 25.2334 7.35966 25.9396L8.08388 26.8089L7.81495 27.3886C7.41785 28.2444 7.53621 29.2345 8.12406 29.9727L8.34957 30.2558C8.75337 30.7628 9.33014 31.0779 9.9457 31.1639V31.2633L8.66908 34.2945C8.48352 34.7352 8.69032 35.243 9.13107 35.4287C9.24076 35.4749 9.35473 35.4968 9.46674 35.4968C9.69398 35.4968 9.91222 35.4051 10.0741 35.2454C10.5021 38.1865 11.9905 40.8813 14.3039 42.8209C15.3132 43.6672 16.4376 44.3317 17.6304 44.8069C17.548 44.9562 17.5081 45.131 17.5269 45.3135C17.5727 45.7592 17.9489 46.0909 18.3873 46.0909C18.4169 46.0909 18.4469 46.0894 18.4769 46.0863C18.4769 46.0863 23.5639 45.6071 24.2625 45.4833L27.7905 44.8587L30.8344 49.7615C30.8664 49.8131 30.897 49.8653 30.9278 49.9176L30.9641 49.9791C31.1258 50.2522 31.4141 50.404 31.71 50.404C31.86 50.404 32.0121 50.365 32.1504 50.2831C32.5619 50.0394 32.6981 49.5083 32.4543 49.0967L32.4204 49.0392C32.3828 48.9755 32.3453 48.9119 32.3061 48.8486L29.6271 44.5335L29.6907 44.5222C31.2846 44.24 32.8809 43.8273 34.435 43.296C34.8875 43.1413 35.1289 42.6489 34.9742 42.1964C34.8199 41.744 34.3275 41.5027 33.8749 41.6573ZM8.57393 24.073C8.68882 23.7925 8.95902 23.6114 9.26213 23.6114H10.0918C12.2234 23.6114 14.2432 24.3949 15.8144 25.8209C13.8849 25.4165 11.919 25.3641 9.9576 25.6672L9.4523 25.7454L8.69067 24.8311C8.51389 24.6189 8.46908 24.3285 8.57393 24.073ZM9.7046 29.1768L9.47921 28.8938C9.30266 28.6721 9.26709 28.3746 9.38637 28.1174L9.69098 27.4609L10.2221 27.3788C12.0947 27.0893 13.9713 27.1623 15.8081 27.5937L10.5293 29.4165C10.2317 29.5193 9.90044 29.4229 9.7046 29.1768Z" fill="#A88EC3"/>
<path d="M43.3293 37.4969C43.0434 37.1135 42.5009 37.0343 42.1173 37.3201C40.6234 38.4336 39.0065 39.4168 37.3113 40.2424C36.8813 40.4517 36.7024 40.97 36.9119 41.4C37.0617 41.7079 37.3702 41.887 37.691 41.887C37.8183 41.887 37.9475 41.8588 38.0696 41.7994C39.8617 40.9266 41.572 39.8867 43.1524 38.7087C43.536 38.4229 43.6152 37.8802 43.3293 37.4969Z" fill="#A88EC3"/>
<path d="M32.9244 52.1387C32.4611 52.2576 32.1819 52.7295 32.3008 53.1928C32.558 54.1945 32.6884 55.2231 32.6884 56.2501V58.2415C32.6884 58.7197 33.0761 59.1075 33.5544 59.1075C34.0326 59.1075 34.4204 58.7197 34.4204 58.2415V56.2501C34.4204 55.078 34.2717 53.9045 33.9785 52.7622C33.8596 52.299 33.3878 52.0199 32.9244 52.1387Z" fill="#A88EC3"/>
<path d="M10.3767 47.31C9.97229 47.0543 9.43755 47.1749 9.18179 47.5789L7.77225 49.807L7.66233 49.3765C7.54397 48.9132 7.07274 48.6335 6.6089 48.7519C6.14553 48.8702 5.86574 49.3419 5.98422 49.8052L6.59135 52.1817C6.69089 52.5713 7.04133 52.8335 7.42966 52.8335C7.48462 52.8335 7.54028 52.8283 7.59616 52.8173L10.0037 52.3477C10.4731 52.2562 10.7794 51.8015 10.6878 51.332C10.5963 50.8626 10.1416 50.5569 9.67207 50.6479L9.23606 50.733L10.6456 48.5049C10.9012 48.1005 10.7808 47.5656 10.3767 47.31Z" fill="#A88EC3"/>
<path d="M6.37714 41.3539C6.38003 40.8756 5.99459 40.4856 5.51632 40.4827L2.87981 40.4669L3.18673 40.1458C3.5172 39.8 3.50473 39.2519 3.1589 38.9214C2.81319 38.5912 2.26494 38.6035 1.93447 38.9494L0.239844 40.7227C-0.0772336 41.0546 -0.0802354 41.5761 0.232686 41.9117L1.90583 43.7052C2.07638 43.8879 2.30755 43.9804 2.5393 43.9804C2.75095 43.9804 2.96295 43.9034 3.12992 43.7477C3.47968 43.4214 3.49861 42.8735 3.17241 42.5236L2.86942 42.1988L5.50593 42.2146H5.51124C5.98709 42.2146 6.37425 41.8303 6.37714 41.3539Z" fill="#A88EC3"/>
<path d="M15.0913 44.4436C14.0774 44.2663 13.1414 43.8621 12.3094 43.242C11.9258 42.9562 11.3833 43.0354 11.0975 43.4189C10.8117 43.8024 10.8908 44.3451 11.2744 44.6308C12.3111 45.4033 13.5277 45.9285 14.7931 46.1498C14.8435 46.1585 14.8937 46.1628 14.9432 46.1628C15.3561 46.1628 15.7217 45.8664 15.7952 45.4458C15.8777 44.9746 15.5625 44.5259 15.0913 44.4436Z" fill="#A88EC3"/>
<path d="M9.56872 42.1835C9.70255 42.1835 9.83846 42.1523 9.96559 42.0866C10.3905 41.8672 10.5569 41.3447 10.3373 40.9198C9.86548 40.0068 9.60891 38.9893 9.59528 37.9774C9.58882 37.4992 9.19426 37.1172 8.71772 37.1231C8.23944 37.1296 7.8569 37.5224 7.86336 38.0006C7.88057 39.2801 8.20399 40.5644 8.79866 41.7149C8.95258 42.0126 9.25511 42.1835 9.56872 42.1835Z" fill="#A88EC3"/>
</svg>
