<svg width="44" height="54" viewBox="0 0 44 54" fill="none" xmlns="http://www.w3.org/2000/svg">
<path d="M22.4375 0.799805C31.0791 0.800011 38.1209 7.84193 38.1211 16.4834C38.1211 19.0293 36.7624 22.4096 34.7031 26.0215C32.9182 29.1521 30.6646 32.3602 28.498 35.1943L27.5781 36.3828C26.8266 37.3378 25.8571 38.0414 24.7617 38.4639L23.6152 38.9062L24.4844 39.7764L28.6406 43.9316C28.7733 44.0643 28.8169 44.2751 28.75 44.4541C28.6591 44.6489 28.4828 44.7578 28.2939 44.7578H22.917V52.6602C22.917 52.9196 22.697 53.1404 22.4375 53.1406C22.1779 53.1406 21.957 52.9198 21.957 52.6602V44.7578H16.5801C16.3971 44.7578 16.2396 44.6618 16.1582 44.5273L16.1289 44.4678C16.0525 44.2642 16.1009 44.0641 16.2334 43.9316L20.3896 39.7764L21.2598 38.9062L20.1123 38.4639C19.0169 38.0414 18.0474 37.3378 17.2959 36.3828C14.8616 33.2679 12.2102 29.5856 10.1709 26.0088C8.11129 22.3963 6.75293 19.0202 6.75293 16.4834C6.75312 7.8418 13.7957 0.799805 22.4375 0.799805ZM22.4375 4.26758C21.2944 4.26758 20.3576 5.20453 20.3574 6.34766V11.4336C20.3575 12.5768 21.2943 13.5137 22.4375 13.5137C23.5805 13.5135 24.5175 12.5767 24.5176 11.4336V6.34766C24.5174 5.20466 23.5805 4.26779 22.4375 4.26758ZM18.0703 6.00391C16.9272 6.00407 15.9903 6.94084 15.9902 8.08398V9.67969C15.9902 10.8229 16.9272 11.7596 18.0703 11.7598C19.2136 11.7598 20.1504 10.823 20.1504 9.67969V8.08398C20.1504 6.94074 19.2136 6.00391 18.0703 6.00391ZM26.7861 6.00391C25.6429 6.00391 24.7061 6.94074 24.7061 8.08398V9.67969C24.7061 10.823 25.6429 11.7598 26.7861 11.7598C27.9294 11.7597 28.8662 10.823 28.8662 9.67969V8.08398C28.8662 6.94075 27.9294 6.00393 26.7861 6.00391Z" stroke="#A88EC3" stroke-width="1.6"/>
<path d="M6.60742 33.7783C6.81799 33.7783 6.95696 33.8628 7.02344 33.9541L7.04688 33.9941L8.39551 36.7256L8.58203 37.1025L8.99805 37.1631L12.0146 37.6016L12.0166 37.6025C12.2058 37.6297 12.3544 37.7513 12.418 37.9287C12.4708 38.1092 12.4139 38.3107 12.2969 38.4219L12.2891 38.4297L10.1152 40.5518L9.81445 40.8447L9.88477 41.2578L10.3936 44.2559L10.3945 44.2637C10.43 44.4629 10.3496 44.6355 10.2158 44.7285C10.1095 44.8015 10.0045 44.831 9.91992 44.8311C9.80743 44.8311 9.75419 44.8137 9.70703 44.7881L9.69629 44.7822L6.99512 43.3623L6.62305 43.166L6.25098 43.3623L3.5498 44.7822L3.54102 44.7871C3.41985 44.8526 3.22623 44.8557 3.0459 44.7383C2.88506 44.6049 2.82387 44.4133 2.85059 44.2686L2.85254 44.2559L3.36035 41.2578L3.43066 40.8447L3.13086 40.5518L0.956055 38.4297L0.948242 38.4219C0.813326 38.2935 0.770413 38.0924 0.820312 37.9482L0.823242 37.9395C0.889295 37.7417 1.03355 37.6281 1.21191 37.6025L1.21387 37.6016L4.23047 37.1631L4.64648 37.1025L4.83301 36.7256L6.18262 33.9902L6.18652 33.9824C6.23163 33.8884 6.36621 33.7784 6.60742 33.7783Z" stroke="#A88EC3" stroke-width="1.6"/>
<path d="M37.3887 33.7783C37.5992 33.7783 37.7382 33.8628 37.8047 33.9541L37.8281 33.9941L39.1768 36.7256L39.3633 37.1025L39.7793 37.1631L42.793 37.6006V37.6016C42.9631 37.6268 43.1164 37.7465 43.1816 37.9297C43.2313 38.1008 43.188 38.3143 43.0664 38.4678L40.916 40.5488L40.6133 40.8418L40.6836 41.2578L41.1924 44.2559L41.1934 44.2637C41.2288 44.4629 41.1484 44.6355 41.0146 44.7285C40.9084 44.8015 40.8034 44.831 40.7188 44.8311C40.6063 44.8311 40.553 44.8137 40.5059 44.7881L40.4951 44.7822L37.7939 43.3623L37.4219 43.166L37.0488 43.3623L34.3486 44.7822L34.3398 44.7871C34.2187 44.8526 34.0251 44.8557 33.8447 44.7383C33.6839 44.6049 33.6227 44.4133 33.6494 44.2686L33.6514 44.2559L34.1592 41.2578L34.2305 40.8418L33.9277 40.5488L31.7354 38.4277L31.7295 38.4219C31.5946 38.2935 31.5517 38.0924 31.6016 37.9482L31.6074 37.9316L31.6123 37.9141C31.6592 37.7559 31.7957 37.6309 31.9932 37.6025L31.9951 37.6016L35.0117 37.1631L35.4277 37.1025L35.6143 36.7256L36.9639 33.9902L36.9678 33.9824C37.0129 33.8884 37.1475 33.7784 37.3887 33.7783Z" stroke="#A88EC3" stroke-width="1.6"/>
</svg>
