<svg width="55" height="55" viewBox="0 0 55 55" fill="none" xmlns="http://www.w3.org/2000/svg">
<path d="M23.5714 0.00290718C10.5734 0.00290718 0 10.5757 0 23.573C0 36.5704 10.5734 47.1431 23.5714 47.1431C29.5073 47.1431 34.9368 44.9365 39.083 41.3058L52.3176 54.5396C52.9314 55.1535 53.9258 55.1535 54.5396 54.5396C55.1534 53.9258 55.1535 52.9315 54.5396 52.3146L41.3051 39.0808C44.939 34.9315 47.1396 29.5051 47.1396 23.5701C47.1396 10.5728 36.5663 0 23.5682 0L23.5714 0.00290718ZM23.5714 3.14559C34.8723 3.14559 44 12.2727 44 23.573C44 34.8733 34.8723 44.0004 23.5714 44.0004C12.2705 44.0004 3.14286 34.8733 3.14286 23.573C3.14286 12.2727 12.2705 3.14559 23.5714 3.14559Z" fill="#A88EC3"/>
</svg>
