<svg width="46" height="64" viewBox="0 0 46 64" fill="none" xmlns="http://www.w3.org/2000/svg">
<path d="M23 0C10.3217 0 0 10.097 0 22.4993C-3.86352e-07 34.2274 9.23111 43.8884 20.9556 44.9049V51.0004H14.8202C14.5517 51.0004 14.2859 51.0521 14.0378 51.1526C13.7898 51.2531 13.5644 51.4005 13.3746 51.5862C13.1847 51.7719 13.0341 51.9923 12.9314 52.235C12.8287 52.4776 12.7758 52.7377 12.7758 53.0003C12.7755 53.2631 12.8282 53.5234 12.9308 53.7663C13.0335 54.0092 13.184 54.2299 13.3739 54.4158C13.5637 54.6017 13.7892 54.7492 14.0374 54.8498C14.2856 54.9504 14.5516 55.0022 14.8202 55.0022H20.9556V62.0001C20.9556 62.2627 21.0084 62.5228 21.1112 62.7654C21.2139 63.008 21.3645 63.2285 21.5544 63.4142C21.7442 63.5999 21.9696 63.7473 22.2176 63.8478C22.4657 63.9483 22.7315 64 23 64C23.2685 64 23.5343 63.9483 23.7824 63.8478C24.0304 63.7473 24.2558 63.5999 24.4456 63.4142C24.6355 63.2285 24.7861 63.008 24.8888 62.7654C24.9916 62.5228 25.0444 62.2627 25.0444 62.0001V55.0022L31.1718 55.0022C31.4404 55.0022 31.7065 54.9504 31.9546 54.8498C32.2028 54.7492 32.4283 54.6017 32.6181 54.4158C32.808 54.2299 32.9586 54.0092 33.0612 53.7663C33.1638 53.5234 33.2165 53.2631 33.2162 53.0003C33.2162 52.7377 33.1634 52.4776 33.0606 52.235C32.9579 51.9923 32.8073 51.7719 32.6174 51.5862C32.4276 51.4005 32.2022 51.2531 31.9542 51.1526C31.7061 51.0521 31.4403 51.0004 31.1718 51.0004L25.0444 51.0004V44.9049C36.7689 43.8884 46 34.2274 46 22.4993C46 10.097 35.6783 -7.88206e-07 23 0ZM23 4.00183C33.4685 4.00183 41.9091 12.2587 41.9091 22.4993C41.9091 32.74 33.4685 40.9988 23 40.9987C12.5315 40.9987 4.08889 32.74 4.08889 22.4993C4.08889 12.2587 12.5315 4.00183 23 4.00183Z" fill="#A88EC3"/>
</svg>
