<svg width="45" height="54" viewBox="0 0 45 54" fill="none" xmlns="http://www.w3.org/2000/svg">
<path d="M33.0068 25.8936C33.3676 25.8936 33.6895 26.1438 33.6895 26.4863V27.5049C33.6892 28.7692 32.481 29.7703 31.0312 29.7705H13.8555C12.4056 29.7704 11.1975 28.7693 11.1973 27.5049V26.4863C11.1973 26.1438 11.5192 25.8936 11.8799 25.8936C12.2405 25.8937 12.5625 26.1439 12.5625 26.4863V27.5049C12.5628 28.0853 13.1265 28.5848 13.8555 28.585H31.0312C31.7602 28.5848 32.324 28.0853 32.3242 27.5049V26.4863C32.3242 26.1439 32.6462 25.8936 33.0068 25.8936Z" fill="#A88EC3" stroke="#A88EC3" stroke-width="0.2"/>
<path d="M31.0312 0.100586C32.4811 0.100797 33.6893 1.10172 33.6895 2.36621V3.38477C33.6895 3.72728 33.3676 3.97754 33.0068 3.97754C32.6462 3.97745 32.3242 3.72722 32.3242 3.38477V2.36621C32.3241 1.78573 31.7603 1.28634 31.0312 1.28613H13.8555C13.1264 1.28629 12.5627 1.7857 12.5625 2.36621V3.38477C12.5625 3.72719 12.2405 3.9774 11.8799 3.97754C11.5192 3.97754 11.1973 3.72728 11.1973 3.38477V2.36621C11.1974 1.10183 12.4058 0.100742 13.8555 0.100586H31.0312Z" fill="#A88EC3" stroke="#A88EC3" stroke-width="0.2"/>
<path d="M40.625 2.79199C42.896 2.79199 44.7734 4.35779 44.7734 6.31641V23.5547C44.7732 25.5131 42.896 27.0791 40.625 27.0791H4.25098C1.98016 27.079 0.103737 25.5131 0.103516 23.5547V6.31641C0.103516 4.35784 1.98003 2.79206 4.25098 2.79199H40.625ZM4.25098 3.97754C2.70049 3.97761 1.46875 5.04201 1.46875 6.31641V23.5547C1.46897 24.8289 2.70079 25.8935 4.25098 25.8936H40.625C42.1754 25.8936 43.407 24.829 43.4072 23.5547V6.31641C43.4072 5.04197 42.1754 3.97754 40.625 3.97754H4.25098Z" fill="#A88EC3" stroke="#A88EC3" stroke-width="0.2"/>
<path d="M40.8408 10.1279C41.2014 10.1281 41.5234 10.3783 41.5234 10.7207V19.1523C41.5234 19.4949 41.2014 19.745 40.8408 19.7451C40.4801 19.7451 40.1582 19.4949 40.1582 19.1523V10.7207C40.1582 10.3782 40.4801 10.1279 40.8408 10.1279Z" fill="#A88EC3" stroke="#A88EC3" stroke-width="0.2"/>
<path d="M0.404297 9.03711C0.58721 8.93034 0.816986 8.90703 1.02246 8.97266L4.47559 10.0762C4.73469 10.159 4.92179 10.3757 4.92188 10.6328V19.2363C4.92188 19.4935 4.73497 19.7102 4.47559 19.793L1.02246 20.8965C0.945445 20.9213 0.865545 20.9336 0.786133 20.9336C0.652933 20.9336 0.519347 20.9001 0.404297 20.833C0.221063 20.7257 0.103543 20.5433 0.103516 20.3408V9.5293C0.103516 9.32689 0.220699 9.14433 0.404297 9.03711ZM1.46875 19.4902L3.55664 18.8223V11.0469L1.46875 10.3789V19.4902Z" fill="#A88EC3" stroke="#A88EC3" stroke-width="0.2"/>
<path d="M19.9326 15.998C20.2343 16.0581 20.4741 16.2935 20.4639 16.5938C20.4441 17.1683 20.4158 17.6443 20.2607 18.041C20.1025 18.4458 19.8153 18.7608 19.2979 19.0264C19.1882 19.0823 19.0678 19.1084 18.9502 19.1084C18.7271 19.1083 18.5016 19.0127 18.3701 18.8291C18.1627 18.5396 18.2814 18.1697 18.6025 18.0049C18.7046 17.9525 18.7784 17.9076 18.8359 17.8545C18.8918 17.8029 18.9355 17.7397 18.9707 17.6475C19.0441 17.4548 19.0783 17.1428 19.0986 16.5586C19.1103 16.2165 19.444 15.9736 19.8008 15.9834L19.9326 15.998Z" fill="#A88EC3" stroke="#A88EC3" stroke-width="0.2"/>
<path d="M25.0635 15.9834C25.4217 15.9767 25.7525 16.2154 25.7646 16.5576C25.7857 17.1428 25.82 17.4556 25.8936 17.6484C25.9288 17.7407 25.9727 17.803 26.0283 17.8545C26.0858 17.9077 26.1597 17.9526 26.2617 18.0049C26.5826 18.1697 26.7007 18.5395 26.4932 18.8291C26.3616 19.0126 26.1363 19.1084 25.9131 19.1084C25.7953 19.1084 25.675 19.0825 25.5654 19.0264V19.0254C25.0495 18.7605 24.7628 18.4464 24.6045 18.042C24.4494 17.6455 24.421 17.1693 24.4004 16.5947C24.3878 16.2517 24.7019 15.9927 25.0625 15.9834H25.0635Z" fill="#A88EC3" stroke="#A88EC3" stroke-width="0.2"/>
<path d="M25.2764 18.3018C25.4118 17.9998 25.7915 17.8584 26.127 17.9551C27.6076 18.3803 29.2608 18.8844 30.6123 19.373C31.2877 19.6172 31.89 19.8581 32.3584 20.084C32.5926 20.197 32.7958 20.3074 32.958 20.4131C33.1185 20.5177 33.2459 20.6226 33.3242 20.7266C33.3999 20.8271 33.4675 20.9701 33.5293 21.1396C33.5917 21.3107 33.6503 21.5151 33.7051 21.7422C33.8147 22.1963 33.912 22.748 33.9951 23.3213C34.1614 24.4686 34.275 25.7103 34.335 26.4443C34.3486 26.6142 34.2784 26.7786 34.1475 26.8975C34.0177 27.0147 33.8386 27.081 33.6543 27.0811H11.2236C11.0396 27.0811 10.8608 27.0161 10.7305 26.8984V26.8975C10.5998 26.7789 10.5282 26.6155 10.542 26.4453C10.6019 25.7106 10.7165 24.4687 10.8828 23.3213C10.9659 22.748 11.0623 22.1963 11.1719 21.7422C11.2267 21.5151 11.2853 21.3107 11.3477 21.1396C11.4094 20.9702 11.4771 20.8271 11.5527 20.7266C11.6311 20.6225 11.7593 20.5177 11.9199 20.4131C12.0821 20.3074 12.2844 20.1969 12.5186 20.084C12.987 19.858 13.5892 19.6173 14.2646 19.373C15.6161 18.8844 17.2694 18.3803 18.75 17.9551V17.9541C19.0772 17.8604 19.4479 17.993 19.5918 18.2822C19.8273 18.7554 20.2778 19.105 20.8203 19.3369C21.3625 19.5686 21.988 19.6788 22.5566 19.6787C23.8916 19.6787 24.8955 19.1511 25.2764 18.3018ZM18.6465 19.2354C16.8648 19.7569 15.4406 20.2244 14.4258 20.5996C13.9123 20.7895 13.5048 20.9555 13.209 21.0918C13.061 21.16 12.942 21.2207 12.8525 21.2725C12.7676 21.3216 12.715 21.3588 12.6885 21.3848C12.6672 21.4164 12.6401 21.4757 12.6094 21.5674C12.578 21.661 12.5452 21.7811 12.5117 21.9238C12.4448 22.2094 12.3759 22.5818 12.3086 23.0107C12.1786 23.839 12.0551 24.874 11.96 25.8945H32.917C32.822 24.874 32.6982 23.839 32.5674 23.0098C32.4996 22.5803 32.4301 22.2074 32.3623 21.9209C32.3284 21.7775 32.2956 21.6568 32.2637 21.5625C32.2327 21.4712 32.2046 21.4117 32.1826 21.3789C32.1571 21.3539 32.1057 21.3165 32.0205 21.2676C31.9318 21.2167 31.814 21.1563 31.667 21.0889C31.3729 20.954 30.9673 20.7894 30.4561 20.6006C29.4459 20.2275 28.0277 19.7611 26.2529 19.2412C25.5271 20.2607 24.1631 20.8641 22.5566 20.8643H22.5557C20.9228 20.8642 19.4288 20.2337 18.6465 19.2354Z" fill="#A88EC3" stroke="#A88EC3" stroke-width="0.2"/>
<path d="M17.9512 12.3291C18.5133 12.2743 19.0192 12.5085 19.2529 12.958C19.2662 12.9835 19.2772 13.01 19.2861 13.0371L19.292 13.0537L19.3184 13.1768C19.3447 13.4613 19.1292 13.7179 18.8223 13.793C18.6782 13.8282 18.5298 13.8188 18.3965 13.7754C18.4209 13.809 18.4463 13.8428 18.4727 13.876C18.543 13.9642 18.6167 14.0462 18.6865 14.1113C18.7495 14.17 18.8058 14.2087 18.8486 14.2305C18.9742 14.221 19.1025 14.2412 19.2178 14.292C19.3856 14.3661 19.515 14.4995 19.5664 14.665C19.7496 15.255 20.0069 15.7825 20.2861 16.1514C21.0431 17.1505 22.0019 17.4102 22.4336 17.4102C22.8653 17.4101 23.8243 17.1505 24.5811 16.1514C24.8604 15.7825 25.1166 15.2548 25.2998 14.665C25.3513 14.4994 25.4815 14.3661 25.6494 14.292C25.7645 14.2415 25.8925 14.2213 26.0176 14.2305C26.0604 14.2088 26.1165 14.1702 26.1797 14.1113C26.2496 14.0462 26.3242 13.9643 26.3945 13.876C26.4207 13.8431 26.4445 13.8087 26.4688 13.7754C26.3355 13.8186 26.1877 13.8282 26.0439 13.793H26.043C25.6925 13.7066 25.4617 13.3834 25.5752 13.0527L25.5801 13.0381L25.6143 12.958C25.8479 12.5086 26.352 12.2749 26.915 12.3291C27.4741 12.383 27.9589 12.7104 28.0596 13.1602C28.0933 13.311 28.0738 13.4778 28.0244 13.6436C27.9747 13.8102 27.8924 13.9829 27.7939 14.1484C27.5973 14.479 27.3275 14.7939 27.0908 14.9932C26.8795 15.171 26.6765 15.2803 26.4902 15.3457C26.2834 15.9071 26.0229 16.4072 25.7217 16.8047C24.7222 18.1239 23.331 18.5957 22.4336 18.5957C21.5361 18.5957 20.1451 18.1233 19.1455 16.8037C18.8442 16.4059 18.582 15.9065 18.375 15.3447C18.1893 15.2792 17.9872 15.1696 17.7764 14.9922C17.5397 14.7929 17.2699 14.479 17.0732 14.1484C16.9747 13.9829 16.8925 13.8103 16.8428 13.6436C16.7934 13.4778 16.7739 13.311 16.8076 13.1602C16.9079 12.7107 17.3923 12.3833 17.9512 12.3291Z" fill="#A88EC3" stroke="#A88EC3" stroke-width="0.2"/>
<path d="M22.3721 6.94824C23.3178 6.94828 24.1907 7.1545 24.8115 7.52637C25.9389 7.58485 26.771 8.26883 27.1523 8.86133C27.7763 9.83097 27.6993 10.6994 27.6504 11.2578C27.6407 11.3679 27.6321 11.466 27.6299 11.5547C27.6227 11.8541 27.5284 12.1525 27.4043 12.4307C27.3421 12.57 27.2712 12.7059 27.1992 12.8359L26.9854 13.2051C26.9305 13.2977 26.8804 13.3829 26.8379 13.46C26.7212 13.6708 26.4777 13.7949 26.2227 13.7949H26.1914C25.925 13.7845 25.68 13.6385 25.582 13.4092V13.4082C25.5673 13.374 25.3998 12.9816 25.2412 12.6426C25.0547 12.2434 24.7474 11.6855 24.5127 11.3926V11.3916C24.2761 11.1204 23.9268 10.8483 23.6084 10.6455C22.9404 11.1182 22.1597 11.3235 21.4189 11.5166L21.3184 11.543C21.1248 11.5935 20.8747 11.6193 20.5986 11.6475C20.4217 11.6655 20.1604 11.693 20.0244 11.7207C19.9794 11.7792 19.9149 11.8801 19.8447 12.0088C19.7645 12.1559 19.6796 12.3323 19.6104 12.5059C19.5293 12.7089 19.441 12.9289 19.373 13.0977C19.3391 13.182 19.3095 13.2541 19.2891 13.3047C19.279 13.3297 19.2711 13.3497 19.2656 13.3633C19.2629 13.37 19.2612 13.3754 19.2598 13.3789C19.2591 13.3806 19.2582 13.3819 19.2578 13.3828L19.2568 13.3838V13.3848C19.1656 13.6104 18.9324 13.7585 18.6729 13.7783C18.4141 13.7987 18.1555 13.687 18.0205 13.4824C17.5685 12.7969 17.2946 12.0863 17.2344 11.4268C17.2017 11.0676 17.2967 10.5144 17.5117 9.94238C17.7275 9.36848 18.0686 8.76285 18.542 8.30371C19.4223 7.44987 20.8561 6.94824 22.3721 6.94824ZM22.3721 8.13379C21.2418 8.13379 20.1654 8.50813 19.5596 9.0957C19.2155 9.42947 18.9643 9.88894 18.8037 10.3203C18.642 10.7545 18.5786 11.1437 18.5957 11.333C18.6003 11.3831 18.608 11.4338 18.6162 11.4854C18.6723 11.3836 18.7343 11.2812 18.8008 11.1846C18.9227 11.0075 19.0654 10.8421 19.2246 10.7422C19.3623 10.6559 19.5276 10.6026 19.7246 10.5635C19.9213 10.5244 20.1571 10.4985 20.4385 10.4697C20.5313 10.4603 20.6343 10.4494 20.7246 10.4385C20.8174 10.4273 20.8894 10.4162 20.9238 10.4072L21.0244 10.3818V10.3809C21.8507 10.1653 22.5298 9.98663 23.0127 9.50586V9.50488C23.1479 9.37069 23.338 9.30283 23.5273 9.30273C23.6363 9.30273 23.7474 9.32478 23.8496 9.37207C24.4661 9.65842 25.1892 10.1984 25.6133 10.6895V10.6904L25.625 10.7041L25.626 10.7051C25.8412 10.9716 26.0653 11.3482 26.2432 11.6777C26.2554 11.6243 26.2635 11.5746 26.2646 11.5293C26.2674 11.4116 26.278 11.2909 26.2891 11.167C26.3343 10.6519 26.3819 10.0957 25.9609 9.44141C25.954 9.43055 25.828 9.23765 25.5957 9.05273C25.364 8.86841 25.0309 8.6954 24.6055 8.70898L24.6045 8.70801C24.4386 8.71361 24.2696 8.66529 24.1387 8.56934C23.7747 8.30259 23.1166 8.13383 22.3721 8.13379Z" fill="#A88EC3" stroke="#A88EC3" stroke-width="0.2"/>
<path d="M28.2324 23.0801C28.5787 22.9913 28.9631 23.1516 29.0781 23.4707C29.452 24.5102 29.6309 25.5294 29.6074 26.499C29.5993 26.8366 29.2795 27.08 28.9248 27.0801C28.9211 27.0801 28.9152 27.0793 28.9092 27.0791V27.0781C28.549 27.0711 28.2338 26.8159 28.2422 26.4736C28.2624 25.6365 28.1063 24.7453 27.7754 23.8252C27.657 23.4958 27.8825 23.1702 28.2324 23.0801Z" fill="#A88EC3" stroke="#A88EC3" stroke-width="0.2"/>
<path d="M16.6758 23.0801C17.0254 23.1703 17.2509 23.496 17.1328 23.8252C16.8019 24.7453 16.6458 25.6365 16.666 26.4736C16.6744 26.8164 16.3578 27.0718 15.9971 27.0781L15.998 27.0791C15.9922 27.0793 15.986 27.0801 15.9824 27.0801C15.6279 27.0799 15.3089 26.8365 15.3008 26.499C15.2772 25.5294 15.4553 24.5102 15.8291 23.4707C15.9441 23.1516 16.3297 22.991 16.6758 23.0801Z" fill="#A88EC3" stroke="#A88EC3" stroke-width="0.2"/>
<path d="M24.6846 28.585C25.0451 28.5852 25.3672 28.8354 25.3672 29.1777V36.5068C25.3672 36.8492 25.0451 37.0994 24.6846 37.0996H20.208C19.8473 37.0996 19.5254 36.8493 19.5254 36.5068V29.1777C19.5254 28.8352 19.8473 28.585 20.208 28.585H24.6846ZM20.8906 35.9141H24.002V29.7705H20.8906V35.9141Z" fill="#A88EC3" stroke="#A88EC3" stroke-width="0.2"/>
<path d="M25.0713 35.915C25.8717 35.915 26.5527 36.4691 26.5527 37.1836V52.2275C26.5526 52.942 25.8716 53.4961 25.0713 53.4961H19.7949C18.9948 53.4959 18.3146 52.9418 18.3145 52.2275V37.1836C18.3145 36.4692 18.9946 35.9152 19.7949 35.915H25.0713ZM19.7949 37.1006C19.715 37.1007 19.6797 37.1533 19.6797 37.1836V52.2275C19.6798 52.2579 19.7151 52.3095 19.7949 52.3096H25.0713C25.1512 52.3096 25.1874 52.2579 25.1875 52.2275V37.1836C25.1875 37.1532 25.1514 37.1006 25.0713 37.1006H19.7949Z" fill="#A88EC3" stroke="#A88EC3" stroke-width="0.2"/>
</svg>
