<svg width="33" height="33" viewBox="0 0 33 33" fill="none" xmlns="http://www.w3.org/2000/svg">
<path d="M0.557641 23.4969C0.557641 27.9155 4.1468 31.5104 8.55884 31.5104C9.3316 31.5104 10.0768 31.3945 10.7843 31.1895C12.4648 31.7685 14.2291 32.0686 16.0343 32.0686C17.8406 32.0686 19.6077 31.77 21.2905 31.1896C21.9979 31.3946 22.7428 31.5104 23.5154 31.5104C27.9269 31.5104 31.5161 27.9155 31.5161 23.4969C31.5161 22.7302 31.4017 21.9908 31.1995 21.2883C31.7799 19.6059 32.08 17.8406 32.08 16.0343C32.08 14.2269 31.7795 12.4601 31.1982 10.7765C31.4029 10.0695 31.5187 9.32501 31.5187 8.5529C31.5187 4.14112 27.9238 0.551959 23.505 0.551959C22.727 0.551959 21.9766 0.668526 21.265 0.876531C17.9319 -0.289984 14.1588 -0.294651 10.8124 0.87738C10.0998 0.668754 9.34835 0.551959 8.56929 0.551959C4.15045 0.551959 0.555552 4.14112 0.555552 8.5529C0.555552 9.33095 0.672511 10.0812 0.880288 10.793C0.300065 12.475 0 14.2362 0 16.0343C0 17.8367 0.299216 19.5981 0.87709 21.2772C0.672804 21.9829 0.557641 22.7262 0.557641 23.4969ZM1.62697 23.4969C1.62697 19.6781 4.73133 16.5712 8.5486 16.5656C8.55558 16.5656 8.5623 16.5666 8.56929 16.5666C8.59017 16.5666 8.61054 16.5653 8.6309 16.563H14.7408L10.7372 20.567C10.5283 20.7758 10.5283 21.1142 10.7372 21.323C10.8416 21.4275 10.9784 21.4797 11.1152 21.4797C11.252 21.4797 11.3888 21.4275 11.4932 21.323L15.4991 17.3168V23.4985C15.4991 23.5 15.4993 23.5014 15.4993 23.5029C15.4992 23.72 15.4876 23.9354 15.4677 24.1492C15.4665 24.162 15.4667 24.1753 15.4654 24.1882C15.4459 24.3856 15.4147 24.5805 15.3786 24.7741C15.3727 24.8057 15.3695 24.8383 15.3632 24.8698C15.3276 25.047 15.2811 25.2211 15.2319 25.3943C15.2187 25.4405 15.2089 25.4881 15.1948 25.5339C15.1462 25.6923 15.0874 25.8471 15.0276 26.0015C15.0053 26.0589 14.9865 26.1181 14.9627 26.1748C14.903 26.3173 14.8338 26.4558 14.7646 26.5942C14.7325 26.6582 14.704 26.7243 14.6699 26.7873C14.6012 26.9147 14.5234 27.0375 14.4465 27.1608C14.4034 27.2299 14.3638 27.3015 14.3183 27.369C14.2465 27.4756 14.1662 27.5773 14.0883 27.6804C14.0281 27.7597 13.9716 27.8419 13.9082 27.9185C13.8566 27.9811 13.7984 28.0393 13.7445 28.1003C13.5062 28.3684 13.2518 28.6217 12.9752 28.8503C12.9633 28.8597 12.9516 28.8706 12.9396 28.8799C12.9375 28.8817 12.9356 28.883 12.9335 28.8848C12.7903 29.0012 12.641 29.1102 12.4887 29.2151C12.3916 29.2846 12.2899 29.3427 12.1901 29.4051C12.092 29.4655 11.9954 29.5281 11.8942 29.5838C11.7228 29.6763 11.5476 29.763 11.3617 29.8391C11.286 29.8769 11.2202 29.9054 11.1335 29.9377C10.9706 30.003 10.8077 30.0568 10.6338 30.1111C10.6133 30.1175 10.597 30.131 10.5777 30.1398C10.576 30.1405 10.5742 30.1408 10.5725 30.1416C9.9347 30.3352 9.25906 30.4411 8.55884 30.4411C4.73681 30.4411 1.62697 27.326 1.62697 23.4969ZM12.3631 30.5505C12.3922 30.5351 12.4182 30.5142 12.4471 30.4983C12.671 30.3735 12.8882 30.2386 13.0983 30.0936C13.1009 30.0917 13.104 30.0903 13.1066 30.0884C13.2769 29.9787 13.4481 29.8505 13.61 29.713C13.6189 29.7061 13.6284 29.6972 13.6373 29.6903C13.6484 29.6812 13.6594 29.6719 13.6704 29.6627C13.8411 29.5277 14.0142 29.3735 14.2261 29.1613C14.3766 29.0096 14.5151 28.8496 14.6519 28.6886C14.6818 28.6536 14.715 28.6215 14.7444 28.586C14.8265 28.486 14.8987 28.3801 14.9756 28.277C15.0561 28.1691 15.1403 28.0642 15.2154 27.9523C15.2736 27.8655 15.323 27.7743 15.3776 27.6856C15.4602 27.5517 15.545 27.4196 15.6197 27.2807C15.6616 27.2027 15.6957 27.1213 15.7349 27.0421C15.812 26.8867 15.8901 26.7321 15.9572 26.5713C15.9818 26.512 16.0003 26.4504 16.0235 26.3906C16.0283 26.3782 16.0324 26.3656 16.0371 26.3533C16.724 28.145 18.0286 29.6331 19.698 30.5414C17.3018 31.1358 14.7456 31.1465 12.3631 30.5505ZM23.5154 30.4411C19.707 30.4411 16.6044 27.3594 16.5715 23.5586C16.5736 23.5387 16.5747 23.5186 16.5747 23.4985V17.3167L20.581 21.323C20.6854 21.4275 20.8222 21.4797 20.959 21.4797C21.0958 21.4797 21.2326 21.4275 21.3371 21.323C21.5459 21.1142 21.5459 20.7758 21.3371 20.567L17.3331 16.563H23.4423C23.4632 16.5653 23.4841 16.5666 23.505 16.5666C23.5061 16.5666 23.5071 16.5665 23.5082 16.5665C23.5126 16.5666 23.5162 16.569 23.5206 16.569C23.5342 16.569 23.5475 16.5675 23.5611 16.5674C27.362 16.5923 30.4468 19.6901 30.4468 23.4969C30.4468 27.326 27.3374 30.4411 23.5154 30.4411ZM26.3869 16.0383C28.148 15.3663 29.6206 14.0872 30.5305 12.4018C30.5383 12.3876 30.5471 12.374 30.5549 12.3597C30.8538 13.553 31.0107 14.7827 31.0107 16.0343C31.0107 17.2832 30.8543 18.5101 30.5567 19.7008C29.654 18.033 28.1722 16.7283 26.3869 16.0383ZM30.4494 8.5529C30.4494 9.26731 30.3409 9.95686 30.1397 10.606C30.1355 10.617 30.126 10.6245 30.1225 10.636C30.0382 10.9089 29.9336 11.1703 29.8195 11.4256C29.7612 11.5533 29.7034 11.6813 29.6377 11.8048C29.6225 11.8338 29.6062 11.862 29.5907 11.8908C28.5269 13.8226 26.572 15.1973 24.2823 15.4535C24.2756 15.4542 24.2691 15.4552 24.2624 15.4559C24.0393 15.4802 23.8129 15.4934 23.584 15.496C23.584 15.496 23.5841 15.496 23.584 15.496C23.5605 15.4929 23.5363 15.4913 23.5123 15.4913H17.3268L21.3308 11.4873C21.5397 11.2784 21.5397 10.9401 21.3308 10.7313C21.1219 10.5224 20.7836 10.5224 20.5747 10.7313L16.5747 14.7313V8.55577C16.5747 8.55101 16.5738 8.54644 16.5737 8.54171C16.5786 5.45716 18.6094 2.84025 21.4036 1.949C21.42 1.94449 21.4352 1.9382 21.4511 1.93216C22.1004 1.73032 22.7902 1.62129 23.505 1.62129C27.3343 1.62129 30.4494 4.73087 30.4494 8.5529ZM19.6954 1.51938C18.0262 2.42695 16.7222 3.91461 16.0369 5.70632C15.3517 3.91513 14.0483 2.42783 12.38 1.52023C14.7661 0.916508 17.3164 0.918368 19.6954 1.51938ZM8.56929 1.62129C12.3875 1.62129 15.4939 4.7249 15.5001 8.54171C15.5 8.54644 15.4991 8.55101 15.4991 8.55577V14.7313L11.499 10.7313C11.2901 10.5224 10.9518 10.5224 10.7429 10.7313C10.5341 10.9401 10.5341 11.2784 10.7429 11.4873L14.7469 15.4913H8.56145C8.53753 15.4913 8.51361 15.4928 8.49022 15.496C4.69742 15.4533 1.62489 12.3555 1.62489 8.5529C1.62489 4.73087 4.73995 1.62129 8.56929 1.62129ZM1.06933 16.0343C1.06933 14.7886 1.22617 13.5625 1.52503 12.371C2.43269 14.0389 3.91934 15.3428 5.70926 16.0299C3.91677 16.7165 2.42848 18.0221 1.52167 19.6931C1.22539 18.5048 1.06933 17.2805 1.06933 16.0343Z" fill="#A88EC3"/>
</svg>
