<svg width="43" height="48" viewBox="0 0 43 48" fill="none" xmlns="http://www.w3.org/2000/svg">
<mask id="path-1-outside-1_29_1583" maskUnits="userSpaceOnUse" x="-0.796875" y="-0.799805" width="44" height="48" fill="black">
<rect fill="white" x="-0.796875" y="-0.799805" width="44" height="48"/>
<path fill-rule="evenodd" clip-rule="evenodd" d="M42.3231 26.8265C42.3231 25.3654 41.2827 24.1427 39.9042 23.8587V23.1583C39.9042 17.9592 37.7141 13.0016 33.8754 9.46482C34.6118 8.48475 35.1214 7.4782 35.1214 6.43453C35.1214 5.16098 34.1042 4.12475 32.854 4.12475C32.0742 4.12475 31.5677 4.42885 31.1968 4.86218C30.826 4.42882 30.3185 4.12475 29.5397 4.12475C28.5872 4.12475 27.7692 4.72657 27.4344 5.57739C27.0508 5.44178 26.662 5.31888 26.2721 5.20866C26.5285 4.56975 26.6758 3.9245 26.6758 3.27287C26.6758 1.57867 25.3249 0.200195 23.6645 0.200195C22.5192 0.200195 21.8125 0.671682 21.2636 1.44092C20.7148 0.671681 20.0081 0.200195 18.8627 0.200195C17.2024 0.200195 15.8515 1.57867 15.8515 3.27287C15.8515 3.92555 15.9988 4.5708 16.2552 5.20972C15.8642 5.3199 15.4754 5.44283 15.0918 5.5795C14.757 4.72762 13.9401 4.12475 12.9865 4.12475C12.2077 4.12475 11.7002 4.42884 11.3294 4.86218C10.9585 4.42882 10.4521 4.12475 9.67224 4.12475C8.42199 4.12475 7.40481 5.16098 7.40481 6.43453C7.40481 7.47924 7.9155 8.48685 8.65296 9.468C4.81743 13.0047 2.62841 17.9613 2.62841 23.1583V23.8576C1.24678 24.1384 0.203125 25.3632 0.203125 26.8264C0.203125 28.2907 1.24678 29.5145 2.62841 29.7953V46.3813C2.62841 46.7182 2.90178 46.9916 3.2387 46.9916H7.46425C7.46744 46.9916 7.47167 46.9926 7.47483 46.9926C7.47907 46.9926 7.48436 46.9916 7.4886 46.9916H35.0451C35.0494 46.9916 35.0547 46.9926 35.0589 46.9926C35.0621 46.9926 35.0663 46.9916 35.0695 46.9916H39.2949C39.6319 46.9916 39.9052 46.7182 39.9052 46.3813V29.7931C41.2826 29.5102 42.3231 28.2876 42.3231 26.8265ZM29.5398 5.34433C29.9922 5.34433 30.2592 5.4789 30.6481 6.27672C30.7498 6.48651 30.9627 6.61897 31.1969 6.61897C31.43 6.61897 31.643 6.48654 31.7447 6.27672C32.1335 5.4789 32.4016 5.34433 32.854 5.34433C33.4315 5.34433 33.9009 5.83278 33.9009 6.43354C33.9009 7.74843 32.5913 9.21589 31.1969 10.6569C29.8026 9.21589 28.4919 7.74843 28.4919 6.43354C28.4919 5.83386 28.9623 5.34433 29.5398 5.34433ZM27.2957 6.8277C27.5118 8.62784 29.1605 10.3199 30.7593 11.9601C30.8748 12.0777 31.0316 12.1445 31.1969 12.1445C31.3611 12.1445 31.519 12.0777 31.6334 11.9601C32.1314 11.4483 32.6347 10.9324 33.0988 10.409C36.6556 13.7126 38.6836 18.3237 38.6836 23.1584V23.8588C37.8042 24.04 37.0625 24.6026 36.6408 25.3665C32.2532 23.6013 25.4267 19.0728 24.6203 7.89149C25.0335 7.37232 25.4054 6.84996 25.7169 6.32337C26.2488 6.46534 26.7765 6.63487 27.2957 6.8277ZM14.9722 30.7171L16.6632 27.1391L25.8685 27.1391L27.5595 30.7172L14.9722 30.7171ZM22.4991 31.9377V45.7711H20.0325V31.9377H22.4991ZM23.7197 31.9377H28.5226C28.7324 31.9377 28.9263 31.8307 29.0386 31.6538C29.1499 31.4768 29.1637 31.2554 29.0746 31.0668L26.8072 26.2681C26.7055 26.0552 26.4915 25.9185 26.2552 25.9185H16.2764C16.0412 25.9185 15.8261 26.0552 15.7255 26.2681L13.457 31.0668C13.368 31.2554 13.3818 31.4768 13.493 31.6538C13.6053 31.8307 13.8003 31.9377 14.009 31.9377H18.8119V45.7711H8.36277C9.78574 41.8677 11.5912 33.9784 5.90887 28.242C6.1335 27.8192 6.26064 27.3371 6.26064 26.8265C6.26064 26.73 6.25535 26.6336 6.24687 26.5393C8.35535 25.7012 11.2172 24.1617 13.7251 21.4302C16.6802 18.2114 18.4559 14.0982 19.0175 9.19042C19.5981 9.82825 20.2148 10.4608 20.8261 11.087C20.9405 11.2046 21.0984 11.2714 21.2626 11.2714C21.4269 11.2714 21.5847 11.2046 21.6991 11.087C22.3126 10.4576 22.9314 9.82403 23.5131 9.18302C24.0725 14.0919 25.8483 18.204 28.8002 21.4239C31.3071 24.1575 34.1699 25.6981 36.2773 26.5372C36.2678 26.6326 36.2636 26.729 36.2636 26.8265C36.2636 27.3393 36.3918 27.8224 36.6175 28.2463C30.9415 33.9826 32.7448 41.8698 34.1678 45.771H23.7186L23.7197 31.9377ZM18.8617 1.4209C19.7189 1.4209 20.1522 1.77267 20.7138 2.92546C20.8166 3.13524 21.0295 3.2677 21.2626 3.2677C21.4957 3.2677 21.7087 3.13527 21.8115 2.92546C22.373 1.77267 22.8064 1.4209 23.6635 1.4209C24.651 1.4209 25.4541 2.25158 25.4541 3.27296C25.4541 5.34647 23.3923 7.59376 21.2626 9.78596C19.1329 7.59378 17.071 5.34647 17.071 3.27296C17.0711 2.25158 17.8742 1.4209 18.8617 1.4209ZM9.67125 5.34437C10.1237 5.34437 10.3917 5.47894 10.7806 6.27676C10.8823 6.48654 11.0953 6.619 11.3284 6.619C11.5625 6.619 11.7755 6.48657 11.8772 6.27676C12.2661 5.47894 12.5331 5.34437 12.9855 5.34437C13.563 5.34437 14.0334 5.83281 14.0334 6.43358C14.0334 7.74847 12.7228 9.21593 11.3284 10.6569C9.93407 9.21593 8.62447 7.74847 8.62447 6.43358C8.62444 5.8339 9.09382 5.34437 9.67125 5.34437ZM9.43074 10.4121C9.8927 10.9335 10.3949 11.4494 10.8919 11.9591C11.0063 12.0767 11.1642 12.1434 11.3284 12.1434C11.4937 12.1434 11.6505 12.0767 11.766 11.9591C13.3637 10.32 15.0113 8.62893 15.2285 6.82984C15.7477 6.63593 16.2775 6.46748 16.8104 6.32444C17.1219 6.85314 17.497 7.37762 17.9113 7.89893C17.1018 19.0771 10.2762 23.6045 5.8855 25.3676C5.46485 24.6047 4.72532 24.041 3.848 23.8588V23.1563C3.84803 18.3259 5.876 13.7158 9.43074 10.4121ZM1.42272 26.8266C1.42272 25.8295 2.23431 25.0179 3.23134 25.0179C4.22837 25.0179 5.03996 25.8295 5.03996 26.8266C5.03996 27.8236 4.22837 28.6352 3.23134 28.6352C2.23431 28.6352 1.42272 27.8236 1.42272 26.8266ZM3.84801 29.7922C4.32481 29.6937 4.76029 29.4818 5.1258 29.1872C10.4246 34.647 8.39449 42.3064 7.05945 45.7701H3.84801V29.7922ZM35.4732 45.7711C34.1381 42.3086 32.1081 34.6523 37.4036 29.1915C37.7702 29.485 38.2067 29.6969 38.6846 29.7943V45.7711L35.4732 45.7711ZM39.2938 28.6352C38.2968 28.6352 37.4852 27.8236 37.4852 26.8266C37.4852 25.8295 38.2968 25.0179 39.2938 25.0179C40.2909 25.0179 41.1025 25.8295 41.1025 26.8266C41.1025 27.8236 40.2909 28.6352 39.2938 28.6352Z"/>
</mask>
<path fill-rule="evenodd" clip-rule="evenodd" d="M42.3231 26.8265C42.3231 25.3654 41.2827 24.1427 39.9042 23.8587V23.1583C39.9042 17.9592 37.7141 13.0016 33.8754 9.46482C34.6118 8.48475 35.1214 7.4782 35.1214 6.43453C35.1214 5.16098 34.1042 4.12475 32.854 4.12475C32.0742 4.12475 31.5677 4.42885 31.1968 4.86218C30.826 4.42882 30.3185 4.12475 29.5397 4.12475C28.5872 4.12475 27.7692 4.72657 27.4344 5.57739C27.0508 5.44178 26.662 5.31888 26.2721 5.20866C26.5285 4.56975 26.6758 3.9245 26.6758 3.27287C26.6758 1.57867 25.3249 0.200195 23.6645 0.200195C22.5192 0.200195 21.8125 0.671682 21.2636 1.44092C20.7148 0.671681 20.0081 0.200195 18.8627 0.200195C17.2024 0.200195 15.8515 1.57867 15.8515 3.27287C15.8515 3.92555 15.9988 4.5708 16.2552 5.20972C15.8642 5.3199 15.4754 5.44283 15.0918 5.5795C14.757 4.72762 13.9401 4.12475 12.9865 4.12475C12.2077 4.12475 11.7002 4.42884 11.3294 4.86218C10.9585 4.42882 10.4521 4.12475 9.67224 4.12475C8.42199 4.12475 7.40481 5.16098 7.40481 6.43453C7.40481 7.47924 7.9155 8.48685 8.65296 9.468C4.81743 13.0047 2.62841 17.9613 2.62841 23.1583V23.8576C1.24678 24.1384 0.203125 25.3632 0.203125 26.8264C0.203125 28.2907 1.24678 29.5145 2.62841 29.7953V46.3813C2.62841 46.7182 2.90178 46.9916 3.2387 46.9916H7.46425C7.46744 46.9916 7.47167 46.9926 7.47483 46.9926C7.47907 46.9926 7.48436 46.9916 7.4886 46.9916H35.0451C35.0494 46.9916 35.0547 46.9926 35.0589 46.9926C35.0621 46.9926 35.0663 46.9916 35.0695 46.9916H39.2949C39.6319 46.9916 39.9052 46.7182 39.9052 46.3813V29.7931C41.2826 29.5102 42.3231 28.2876 42.3231 26.8265ZM29.5398 5.34433C29.9922 5.34433 30.2592 5.4789 30.6481 6.27672C30.7498 6.48651 30.9627 6.61897 31.1969 6.61897C31.43 6.61897 31.643 6.48654 31.7447 6.27672C32.1335 5.4789 32.4016 5.34433 32.854 5.34433C33.4315 5.34433 33.9009 5.83278 33.9009 6.43354C33.9009 7.74843 32.5913 9.21589 31.1969 10.6569C29.8026 9.21589 28.4919 7.74843 28.4919 6.43354C28.4919 5.83386 28.9623 5.34433 29.5398 5.34433ZM27.2957 6.8277C27.5118 8.62784 29.1605 10.3199 30.7593 11.9601C30.8748 12.0777 31.0316 12.1445 31.1969 12.1445C31.3611 12.1445 31.519 12.0777 31.6334 11.9601C32.1314 11.4483 32.6347 10.9324 33.0988 10.409C36.6556 13.7126 38.6836 18.3237 38.6836 23.1584V23.8588C37.8042 24.04 37.0625 24.6026 36.6408 25.3665C32.2532 23.6013 25.4267 19.0728 24.6203 7.89149C25.0335 7.37232 25.4054 6.84996 25.7169 6.32337C26.2488 6.46534 26.7765 6.63487 27.2957 6.8277ZM14.9722 30.7171L16.6632 27.1391L25.8685 27.1391L27.5595 30.7172L14.9722 30.7171ZM22.4991 31.9377V45.7711H20.0325V31.9377H22.4991ZM23.7197 31.9377H28.5226C28.7324 31.9377 28.9263 31.8307 29.0386 31.6538C29.1499 31.4768 29.1637 31.2554 29.0746 31.0668L26.8072 26.2681C26.7055 26.0552 26.4915 25.9185 26.2552 25.9185H16.2764C16.0412 25.9185 15.8261 26.0552 15.7255 26.2681L13.457 31.0668C13.368 31.2554 13.3818 31.4768 13.493 31.6538C13.6053 31.8307 13.8003 31.9377 14.009 31.9377H18.8119V45.7711H8.36277C9.78574 41.8677 11.5912 33.9784 5.90887 28.242C6.1335 27.8192 6.26064 27.3371 6.26064 26.8265C6.26064 26.73 6.25535 26.6336 6.24687 26.5393C8.35535 25.7012 11.2172 24.1617 13.7251 21.4302C16.6802 18.2114 18.4559 14.0982 19.0175 9.19042C19.5981 9.82825 20.2148 10.4608 20.8261 11.087C20.9405 11.2046 21.0984 11.2714 21.2626 11.2714C21.4269 11.2714 21.5847 11.2046 21.6991 11.087C22.3126 10.4576 22.9314 9.82403 23.5131 9.18302C24.0725 14.0919 25.8483 18.204 28.8002 21.4239C31.3071 24.1575 34.1699 25.6981 36.2773 26.5372C36.2678 26.6326 36.2636 26.729 36.2636 26.8265C36.2636 27.3393 36.3918 27.8224 36.6175 28.2463C30.9415 33.9826 32.7448 41.8698 34.1678 45.771H23.7186L23.7197 31.9377ZM18.8617 1.4209C19.7189 1.4209 20.1522 1.77267 20.7138 2.92546C20.8166 3.13524 21.0295 3.2677 21.2626 3.2677C21.4957 3.2677 21.7087 3.13527 21.8115 2.92546C22.373 1.77267 22.8064 1.4209 23.6635 1.4209C24.651 1.4209 25.4541 2.25158 25.4541 3.27296C25.4541 5.34647 23.3923 7.59376 21.2626 9.78596C19.1329 7.59378 17.071 5.34647 17.071 3.27296C17.0711 2.25158 17.8742 1.4209 18.8617 1.4209ZM9.67125 5.34437C10.1237 5.34437 10.3917 5.47894 10.7806 6.27676C10.8823 6.48654 11.0953 6.619 11.3284 6.619C11.5625 6.619 11.7755 6.48657 11.8772 6.27676C12.2661 5.47894 12.5331 5.34437 12.9855 5.34437C13.563 5.34437 14.0334 5.83281 14.0334 6.43358C14.0334 7.74847 12.7228 9.21593 11.3284 10.6569C9.93407 9.21593 8.62447 7.74847 8.62447 6.43358C8.62444 5.8339 9.09382 5.34437 9.67125 5.34437ZM9.43074 10.4121C9.8927 10.9335 10.3949 11.4494 10.8919 11.9591C11.0063 12.0767 11.1642 12.1434 11.3284 12.1434C11.4937 12.1434 11.6505 12.0767 11.766 11.9591C13.3637 10.32 15.0113 8.62893 15.2285 6.82984C15.7477 6.63593 16.2775 6.46748 16.8104 6.32444C17.1219 6.85314 17.497 7.37762 17.9113 7.89893C17.1018 19.0771 10.2762 23.6045 5.8855 25.3676C5.46485 24.6047 4.72532 24.041 3.848 23.8588V23.1563C3.84803 18.3259 5.876 13.7158 9.43074 10.4121ZM1.42272 26.8266C1.42272 25.8295 2.23431 25.0179 3.23134 25.0179C4.22837 25.0179 5.03996 25.8295 5.03996 26.8266C5.03996 27.8236 4.22837 28.6352 3.23134 28.6352C2.23431 28.6352 1.42272 27.8236 1.42272 26.8266ZM3.84801 29.7922C4.32481 29.6937 4.76029 29.4818 5.1258 29.1872C10.4246 34.647 8.39449 42.3064 7.05945 45.7701H3.84801V29.7922ZM35.4732 45.7711C34.1381 42.3086 32.1081 34.6523 37.4036 29.1915C37.7702 29.485 38.2067 29.6969 38.6846 29.7943V45.7711L35.4732 45.7711ZM39.2938 28.6352C38.2968 28.6352 37.4852 27.8236 37.4852 26.8266C37.4852 25.8295 38.2968 25.0179 39.2938 25.0179C40.2909 25.0179 41.1025 25.8295 41.1025 26.8266C41.1025 27.8236 40.2909 28.6352 39.2938 28.6352Z" fill="#A88EC3"/>
<path fill-rule="evenodd" clip-rule="evenodd" d="M42.3231 26.8265C42.3231 25.3654 41.2827 24.1427 39.9042 23.8587V23.1583C39.9042 17.9592 37.7141 13.0016 33.8754 9.46482C34.6118 8.48475 35.1214 7.4782 35.1214 6.43453C35.1214 5.16098 34.1042 4.12475 32.854 4.12475C32.0742 4.12475 31.5677 4.42885 31.1968 4.86218C30.826 4.42882 30.3185 4.12475 29.5397 4.12475C28.5872 4.12475 27.7692 4.72657 27.4344 5.57739C27.0508 5.44178 26.662 5.31888 26.2721 5.20866C26.5285 4.56975 26.6758 3.9245 26.6758 3.27287C26.6758 1.57867 25.3249 0.200195 23.6645 0.200195C22.5192 0.200195 21.8125 0.671682 21.2636 1.44092C20.7148 0.671681 20.0081 0.200195 18.8627 0.200195C17.2024 0.200195 15.8515 1.57867 15.8515 3.27287C15.8515 3.92555 15.9988 4.5708 16.2552 5.20972C15.8642 5.3199 15.4754 5.44283 15.0918 5.5795C14.757 4.72762 13.9401 4.12475 12.9865 4.12475C12.2077 4.12475 11.7002 4.42884 11.3294 4.86218C10.9585 4.42882 10.4521 4.12475 9.67224 4.12475C8.42199 4.12475 7.40481 5.16098 7.40481 6.43453C7.40481 7.47924 7.9155 8.48685 8.65296 9.468C4.81743 13.0047 2.62841 17.9613 2.62841 23.1583V23.8576C1.24678 24.1384 0.203125 25.3632 0.203125 26.8264C0.203125 28.2907 1.24678 29.5145 2.62841 29.7953V46.3813C2.62841 46.7182 2.90178 46.9916 3.2387 46.9916H7.46425C7.46744 46.9916 7.47167 46.9926 7.47483 46.9926C7.47907 46.9926 7.48436 46.9916 7.4886 46.9916H35.0451C35.0494 46.9916 35.0547 46.9926 35.0589 46.9926C35.0621 46.9926 35.0663 46.9916 35.0695 46.9916H39.2949C39.6319 46.9916 39.9052 46.7182 39.9052 46.3813V29.7931C41.2826 29.5102 42.3231 28.2876 42.3231 26.8265ZM29.5398 5.34433C29.9922 5.34433 30.2592 5.4789 30.6481 6.27672C30.7498 6.48651 30.9627 6.61897 31.1969 6.61897C31.43 6.61897 31.643 6.48654 31.7447 6.27672C32.1335 5.4789 32.4016 5.34433 32.854 5.34433C33.4315 5.34433 33.9009 5.83278 33.9009 6.43354C33.9009 7.74843 32.5913 9.21589 31.1969 10.6569C29.8026 9.21589 28.4919 7.74843 28.4919 6.43354C28.4919 5.83386 28.9623 5.34433 29.5398 5.34433ZM27.2957 6.8277C27.5118 8.62784 29.1605 10.3199 30.7593 11.9601C30.8748 12.0777 31.0316 12.1445 31.1969 12.1445C31.3611 12.1445 31.519 12.0777 31.6334 11.9601C32.1314 11.4483 32.6347 10.9324 33.0988 10.409C36.6556 13.7126 38.6836 18.3237 38.6836 23.1584V23.8588C37.8042 24.04 37.0625 24.6026 36.6408 25.3665C32.2532 23.6013 25.4267 19.0728 24.6203 7.89149C25.0335 7.37232 25.4054 6.84996 25.7169 6.32337C26.2488 6.46534 26.7765 6.63487 27.2957 6.8277ZM14.9722 30.7171L16.6632 27.1391L25.8685 27.1391L27.5595 30.7172L14.9722 30.7171ZM22.4991 31.9377V45.7711H20.0325V31.9377H22.4991ZM23.7197 31.9377H28.5226C28.7324 31.9377 28.9263 31.8307 29.0386 31.6538C29.1499 31.4768 29.1637 31.2554 29.0746 31.0668L26.8072 26.2681C26.7055 26.0552 26.4915 25.9185 26.2552 25.9185H16.2764C16.0412 25.9185 15.8261 26.0552 15.7255 26.2681L13.457 31.0668C13.368 31.2554 13.3818 31.4768 13.493 31.6538C13.6053 31.8307 13.8003 31.9377 14.009 31.9377H18.8119V45.7711H8.36277C9.78574 41.8677 11.5912 33.9784 5.90887 28.242C6.1335 27.8192 6.26064 27.3371 6.26064 26.8265C6.26064 26.73 6.25535 26.6336 6.24687 26.5393C8.35535 25.7012 11.2172 24.1617 13.7251 21.4302C16.6802 18.2114 18.4559 14.0982 19.0175 9.19042C19.5981 9.82825 20.2148 10.4608 20.8261 11.087C20.9405 11.2046 21.0984 11.2714 21.2626 11.2714C21.4269 11.2714 21.5847 11.2046 21.6991 11.087C22.3126 10.4576 22.9314 9.82403 23.5131 9.18302C24.0725 14.0919 25.8483 18.204 28.8002 21.4239C31.3071 24.1575 34.1699 25.6981 36.2773 26.5372C36.2678 26.6326 36.2636 26.729 36.2636 26.8265C36.2636 27.3393 36.3918 27.8224 36.6175 28.2463C30.9415 33.9826 32.7448 41.8698 34.1678 45.771H23.7186L23.7197 31.9377ZM18.8617 1.4209C19.7189 1.4209 20.1522 1.77267 20.7138 2.92546C20.8166 3.13524 21.0295 3.2677 21.2626 3.2677C21.4957 3.2677 21.7087 3.13527 21.8115 2.92546C22.373 1.77267 22.8064 1.4209 23.6635 1.4209C24.651 1.4209 25.4541 2.25158 25.4541 3.27296C25.4541 5.34647 23.3923 7.59376 21.2626 9.78596C19.1329 7.59378 17.071 5.34647 17.071 3.27296C17.0711 2.25158 17.8742 1.4209 18.8617 1.4209ZM9.67125 5.34437C10.1237 5.34437 10.3917 5.47894 10.7806 6.27676C10.8823 6.48654 11.0953 6.619 11.3284 6.619C11.5625 6.619 11.7755 6.48657 11.8772 6.27676C12.2661 5.47894 12.5331 5.34437 12.9855 5.34437C13.563 5.34437 14.0334 5.83281 14.0334 6.43358C14.0334 7.74847 12.7228 9.21593 11.3284 10.6569C9.93407 9.21593 8.62447 7.74847 8.62447 6.43358C8.62444 5.8339 9.09382 5.34437 9.67125 5.34437ZM9.43074 10.4121C9.8927 10.9335 10.3949 11.4494 10.8919 11.9591C11.0063 12.0767 11.1642 12.1434 11.3284 12.1434C11.4937 12.1434 11.6505 12.0767 11.766 11.9591C13.3637 10.32 15.0113 8.62893 15.2285 6.82984C15.7477 6.63593 16.2775 6.46748 16.8104 6.32444C17.1219 6.85314 17.497 7.37762 17.9113 7.89893C17.1018 19.0771 10.2762 23.6045 5.8855 25.3676C5.46485 24.6047 4.72532 24.041 3.848 23.8588V23.1563C3.84803 18.3259 5.876 13.7158 9.43074 10.4121ZM1.42272 26.8266C1.42272 25.8295 2.23431 25.0179 3.23134 25.0179C4.22837 25.0179 5.03996 25.8295 5.03996 26.8266C5.03996 27.8236 4.22837 28.6352 3.23134 28.6352C2.23431 28.6352 1.42272 27.8236 1.42272 26.8266ZM3.84801 29.7922C4.32481 29.6937 4.76029 29.4818 5.1258 29.1872C10.4246 34.647 8.39449 42.3064 7.05945 45.7701H3.84801V29.7922ZM35.4732 45.7711C34.1381 42.3086 32.1081 34.6523 37.4036 29.1915C37.7702 29.485 38.2067 29.6969 38.6846 29.7943V45.7711L35.4732 45.7711ZM39.2938 28.6352C38.2968 28.6352 37.4852 27.8236 37.4852 26.8266C37.4852 25.8295 38.2968 25.0179 39.2938 25.0179C40.2909 25.0179 41.1025 25.8295 41.1025 26.8266C41.1025 27.8236 40.2909 28.6352 39.2938 28.6352Z" stroke="#A88EC3" stroke-width="0.4" mask="url(#path-1-outside-1_29_1583)"/>
</svg>
