<svg width="54" height="51" viewBox="0 0 54 51" fill="none" xmlns="http://www.w3.org/2000/svg">
<path fill-rule="evenodd" clip-rule="evenodd" d="M41.5133 50.3135C41.1091 50.3135 40.767 50.0026 40.767 49.5983C40.767 49.1941 41.1091 48.8831 41.5133 48.8831C47.0795 48.8831 51.6196 44.3431 51.6196 38.7769V22.98C51.6196 11.1013 41.9487 1.43042 30.07 1.43042C26.1518 1.43042 22.3581 2.48769 19.0308 4.50894C21.2698 6.59238 22.6691 9.54651 22.6691 12.8427C22.6691 19.093 17.6004 24.1928 11.3501 24.1928C10.355 24.1928 9.39103 24.0684 8.48924 23.8196V38.7769C8.48924 44.3431 13.0293 48.8831 18.5955 48.8831C18.9997 48.8831 19.3418 49.1941 19.3418 49.5983C19.3418 50.0026 18.9997 50.3135 18.5955 50.3135C12.2208 50.3135 7.05882 45.1516 7.05882 38.7769V23.3532C2.92304 21.6429 0 17.5693 0 12.8427C0 6.59238 5.09977 1.49261 11.3501 1.49261C13.7445 1.49261 15.9834 2.23892 17.8181 3.54496C21.4874 1.21275 25.7165 0 30.0389 0C42.7261 0 53.05 10.3239 53.05 22.98V38.7769C53.05 45.1516 47.888 50.3135 41.5133 50.3135ZM10.3861 16.0145C10.1684 16.0145 9.98186 15.9212 9.85747 15.7968L6.84115 12.7805C6.56128 12.5006 6.56128 12.0342 6.84115 11.7543C7.12101 11.4745 7.58746 11.4745 7.86732 11.7543L10.3861 14.2731L17.2273 7.40088C17.5071 7.12101 17.9736 7.12101 18.2534 7.40088C18.5333 7.68074 18.5333 8.14719 18.2534 8.42705L10.8836 15.7968C10.7593 15.9523 10.5727 16.0145 10.3861 16.0145ZM11.319 19.9326C7.40088 19.9326 4.19798 16.7608 4.19798 12.8427C4.19798 8.92459 7.40088 5.75278 11.319 5.75278C11.7232 5.75278 12.0342 6.06375 12.0342 6.46799C12.0342 6.87224 11.7232 7.18321 11.319 7.18321C8.20938 7.18321 5.6595 9.73309 5.6595 12.8427C5.6595 15.9523 8.20938 18.5022 11.319 18.5022C14.4286 18.5022 16.9785 15.9523 16.9785 12.8427C16.9785 12.4385 17.2894 12.1275 17.6937 12.1275C18.0979 12.1275 18.4089 12.4385 18.4089 12.8427C18.4089 16.7608 15.2371 19.9326 11.319 19.9326ZM11.3501 2.95413C5.87717 2.95413 1.43042 7.40088 1.43042 12.8427C1.43042 18.2845 5.87717 22.7313 11.3501 22.7313C16.7919 22.7313 21.2387 18.2845 21.2387 12.8427C21.2387 7.40088 16.7919 2.95413 11.3501 2.95413ZM30.0389 43.0681C28.6395 43.0681 27.2713 42.6328 26.2451 41.8243C25.8409 41.5133 25.7787 40.9225 26.0897 40.5183C26.4317 40.114 27.0225 40.0518 27.4268 40.3628C28.1109 40.9225 29.0438 41.2024 30.0389 41.2024C31.065 41.2024 31.9979 40.9225 32.7131 40.3628C33.1174 40.0518 33.7082 40.114 34.0192 40.5183C34.3301 40.9225 34.2679 41.5133 33.8637 41.8243C32.8375 42.6328 31.4693 43.0681 30.0389 43.0681ZM19.1241 32.8686C18.8443 32.8686 18.5955 32.7442 18.4089 32.4955C18.0669 32.0912 18.1601 31.5315 18.5644 31.1894C19.5906 30.3809 20.9277 29.9456 22.3581 29.9456C23.7574 29.9456 25.1257 30.3809 26.1518 31.1894C26.5561 31.5315 26.6183 32.0912 26.3073 32.4955C25.9964 32.8997 25.4055 32.993 25.0013 32.682C24.2861 32.1223 23.3532 31.8113 22.3581 31.8113C21.3319 31.8113 20.3991 32.1223 19.7149 32.682C19.5284 32.8064 19.3418 32.8686 19.1241 32.8686ZM34.0503 32.8686C33.7704 32.8686 33.4905 32.7442 33.304 32.4955C32.993 32.0912 33.0552 31.5315 33.4594 31.1894C34.4856 30.3809 35.8538 29.9456 37.2532 29.9456C38.6836 29.9456 40.0207 30.3809 41.078 31.1894C41.4822 31.5315 41.5444 32.0912 41.2335 32.4955C40.9225 32.8997 40.3317 32.993 39.9274 32.682C39.2122 32.1223 38.2793 31.8113 37.2532 31.8113C36.2581 31.8113 35.3252 32.1223 34.61 32.682C34.4545 32.8064 34.2679 32.8686 34.0503 32.8686ZM29.8212 49.816C21.1454 49.816 14.0865 42.7572 14.0865 34.1125V27.2402C14.0865 26.8982 14.3353 26.5872 14.6774 26.525C14.8018 26.4939 29.3237 23.2599 32.7753 16.2322C32.9308 15.9523 33.2418 15.7968 33.5527 15.8279C33.8637 15.8901 34.1125 16.1389 34.1436 16.4499C34.2057 16.7297 35.263 23.3221 45.0272 26.525C45.3382 26.6494 45.5247 26.9292 45.5247 27.2402V34.1125C45.5247 42.7572 38.4659 49.816 29.8212 49.816ZM15.5481 27.7999V34.0814C15.5481 41.9487 21.9539 48.3545 29.8212 48.3545C37.6885 48.3545 44.0632 41.9487 44.0632 34.0814V27.7377C36.7556 25.1568 34.1125 20.7411 33.1796 18.3467C28.9194 24.255 18.1912 27.1469 15.5481 27.7999Z" fill="#A88EC3"/>
</svg>
