<svg width="50" height="50" viewBox="0 0 50 50" fill="none" xmlns="http://www.w3.org/2000/svg">
<g clip-path="url(#clip0_19_370)">
<path d="M46.8342 27.3946C44.4044 28.7016 41.6272 29.4453 38.6766 29.4503C29.5159 29.4659 21.7896 22.1364 21.3435 12.9785C21.1386 8.77142 22.4329 4.87367 24.7378 1.77279C25.3651 0.928845 24.5869 -0.226916 23.57 0.0388065C14.5104 2.40648 7.81904 10.6397 7.78916 20.4423C7.77598 24.7767 9.07988 28.8162 11.3196 32.1836L34.1585 41.0093C40.5797 39.372 45.8258 34.792 48.3795 28.7885C48.7876 27.8291 47.7519 26.9009 46.8342 27.3946Z" fill="#FFC20E"/>
<path d="M34.1592 41.0091C33.8464 39.9958 33.3387 39.0448 32.6573 38.2182C31.7038 37.0612 30.4478 36.1886 29.0476 35.6957C28.5561 33.852 27.5191 32.1825 26.0622 30.9159C24.315 29.3971 22.0766 28.5605 19.7591 28.5605C18.0422 28.5605 16.3566 29.0195 14.8847 29.8879C13.8289 30.5107 12.9013 31.3315 12.154 32.2976C11.8791 32.2429 11.6008 32.2061 11.3203 32.1834C15.1318 37.914 21.6556 41.6966 29.0251 41.6626C30.7964 41.6544 32.5162 41.428 34.1592 41.0091Z" fill="#FFC20E"/>
<path d="M5.36299 49.0646H26.3346C29.6599 49.0646 32.8475 46.5839 32.8475 42.5127C32.4647 39.7525 30.3695 37.54 27.6689 36.9834C27.0943 33.1299 23.7719 30.1738 19.7583 30.1738C16.7978 30.1738 14.2147 31.7835 12.8315 34.1741C12.1799 33.9148 11.4698 33.7708 10.7257 33.7708C7.63926 33.7708 5.12734 36.2235 5.02871 39.286C2.52734 39.44 0.491113 41.3081 0.078125 43.7303C0.0782227 47.2849 2.71064 49.0646 5.36299 49.0646Z" fill="#ECF4FF"/>
<path d="M33.3539 16.2304H46.6101C48.1679 16.2304 49.8761 14.9589 49.8761 12.8688C49.4973 11.5029 48.2854 10.4836 46.8213 10.3936C46.759 8.45781 45.1712 6.90742 43.2202 6.90742C42.7499 6.90742 42.3011 6.99844 41.8891 7.1624C41.0147 5.65127 39.382 4.63379 37.5106 4.63379C34.9736 4.63379 32.8735 6.50234 32.5104 8.93818C30.9136 9.26728 29.6514 10.5122 29.2969 12.0995C29.297 14.6327 31.369 16.2304 33.3539 16.2304Z" fill="#ECF4FF"/>
<path d="M46.6103 15.3517H33.3541C31.3692 15.3517 29.7104 13.9601 29.2972 12.0996C29.2318 12.3924 29.1973 12.6969 29.1973 13.0094C29.1973 15.3051 31.0583 17.1662 33.3541 17.1662H46.6103C48.4824 17.1662 50.0001 15.6485 50.0001 13.7764C50.0001 13.462 49.9564 13.158 49.8764 12.8691C49.4795 14.3005 48.1681 15.3517 46.6103 15.3517Z" fill="#DAEAFF"/>
<path d="M26.3344 48.1855H5.36279C2.71045 48.1855 0.509375 46.2596 0.0780273 43.7302C0.0276367 44.0253 0 44.3279 0 44.6373C0 47.5991 2.40098 50.0001 5.36279 50.0001H26.3344C29.9663 50.0001 32.9105 47.0559 32.9105 43.4239C32.9105 43.1146 32.8886 42.8105 32.8473 42.5127C32.4068 45.7169 29.6597 48.1855 26.3344 48.1855Z" fill="#DAEAFF"/>
</g>
<defs>
<clipPath id="clip0_19_370">
<rect width="50" height="50" fill="white"/>
</clipPath>
</defs>
</svg>
