<svg width="26" height="19" viewBox="0 0 26 19" fill="none" xmlns="http://www.w3.org/2000/svg">
<path d="M25.8697 5.55213C25.8367 5.31827 25.6742 5.15104 25.447 5.11706C23.9845 4.8832 22.522 4.94983 21.0596 5.31826C19.8243 5.61876 18.6869 6.12044 17.614 6.82335C17.3867 5.88658 17.0935 4.9838 16.639 4.14764C15.8265 2.54194 14.656 1.17144 13.2597 0.099948C13.0972 -0.033316 12.837 -0.033316 12.6745 0.099948C11.4723 1.00273 10.4973 2.10673 9.71654 3.41061C9.06656 4.48063 8.61209 5.61861 8.35183 6.82181C7.53935 6.28614 6.62911 5.8524 5.71887 5.55058C4.06089 5.0149 2.27331 4.88165 0.552146 5.14949C0.324905 5.18346 0.162416 5.35069 0.129397 5.58456C-0.129583 7.32482 -9.36784e-05 9.16434 0.520395 10.8708C1.07262 12.6437 2.01588 14.282 3.31585 15.5874C4.5828 16.8913 6.17604 17.8947 7.89889 18.4643C9.00335 18.8328 10.1738 19 11.3445 19C11.8967 19 12.4489 18.966 13.0024 18.8667C13.5547 18.9334 14.1069 19 14.6604 19C15.8309 19 17.0001 18.8328 18.106 18.4643C19.8287 17.896 21.4206 16.9252 22.689 15.5874C23.956 14.2835 24.931 12.6438 25.4845 10.8708C25.9999 9.16447 26.1294 7.32478 25.8704 5.55212L25.8697 5.55213ZM12.9994 1.17132C15.4698 3.1781 16.9324 6.25484 16.9324 9.49881C16.9324 12.475 15.6972 15.2854 13.6178 17.2922C13.6826 15.8877 13.5201 14.4492 13.0973 13.1114C12.5451 11.3384 11.6018 9.70016 10.3019 8.39475C9.97686 8.06028 9.61885 7.72582 9.26214 7.45798C9.74963 4.9495 11.0494 2.74297 12.9994 1.17132ZM12.5449 17.8945C9.42444 18.2617 6.27221 17.1577 4.02911 14.8504C1.78718 12.5431 0.714513 9.2976 1.07116 6.08775C4.19161 5.7193 7.34384 6.8233 9.58563 9.13191C11.8288 11.4392 12.9016 14.6833 12.5449 17.8945ZM21.9697 14.8504C19.955 16.9238 17.2241 18.0278 14.397 17.9612C15.3073 17.0584 16.0867 16.021 16.672 14.8504C17.4844 13.212 17.9389 11.3385 17.9389 9.49895C17.9389 8.96327 17.9059 8.42893 17.8412 7.92723C19.9206 6.45612 22.3911 5.81984 24.9263 6.12166C25.2843 9.33175 24.1786 12.5757 21.9697 14.8504Z" fill="#A88EC3"/>
</svg>
