<svg width="51" height="50" viewBox="0 0 51 50" fill="none" xmlns="http://www.w3.org/2000/svg">
<path d="M49.9148 24.9238H44.2215C43.9343 24.9238 43.702 25.1516 43.702 25.4331C43.702 25.7146 43.9343 25.9424 44.2215 25.9424H49.3953V29.3287H1.60533V25.9424H35.8479C36.135 25.9424 36.3674 25.7146 36.3674 25.4331C36.3674 25.1516 36.1351 24.9238 35.8479 24.9238H1.08587C0.798795 24.9238 0.566406 25.1516 0.566406 25.4331V29.838C0.566406 30.1194 0.798695 30.3473 1.08587 30.3473H49.9149C50.202 30.3473 50.4343 30.1195 50.4343 29.838V25.4331C50.4342 25.1516 50.202 24.9238 49.9148 24.9238Z" fill="#A88EC3" stroke="#A88EC3" stroke-width="0.2"/>
<path d="M40.3925 24.9238C40.1054 24.9238 39.873 25.1516 39.873 25.4331C39.873 25.7146 40.1053 25.9424 40.3925 25.9424H42.133C42.4201 25.9424 42.6524 25.7146 42.6524 25.4331C42.6524 25.1516 42.4202 24.9238 42.133 24.9238H40.3925Z" fill="#A88EC3" stroke="#A88EC3" stroke-width="0.2"/>
<path d="M49.915 32.9781C48.6787 32.9781 48.0299 33.6276 47.5084 34.1493C46.3438 35.3151 45.366 35.3384 44.1781 34.1493C42.6242 32.5947 40.9753 32.5378 39.3655 34.1498C38.1989 35.3175 37.2231 35.336 36.0387 34.1493C34.4848 32.5947 32.836 32.5378 31.2261 34.1498C30.062 35.3151 29.0871 35.3384 27.9003 34.1493C26.3429 32.5913 24.6965 32.5409 23.0898 34.1498C21.9358 35.305 20.9612 35.3472 19.765 34.1498C18.2119 32.5945 16.5638 32.5378 14.954 34.1498C13.7974 35.3075 12.822 35.3447 11.6282 34.1498C10.0749 32.5944 8.42648 32.5378 6.8167 34.1498C5.65555 35.3121 4.67988 35.3406 3.49144 34.1498C2.96998 33.6276 2.32162 32.9781 1.08587 32.9781C0.798795 32.9781 0.566406 33.2059 0.566406 33.4874C0.566406 33.769 0.798695 33.9967 1.08587 33.9967C1.88484 33.9967 2.26584 34.3786 2.74875 34.8625C4.30614 36.4205 5.95258 36.4709 7.55928 34.862C8.72322 33.697 9.69879 33.6734 10.8855 34.8625C12.4394 36.4171 14.0868 36.474 15.6966 34.862C16.8606 33.6968 17.8356 33.6734 19.0223 34.8625C20.6057 36.4466 22.2479 36.4477 23.8324 34.8625C24.9933 33.6992 25.9679 33.6711 27.1576 34.862C28.7108 36.4174 30.3581 36.4738 31.9687 34.8625C33.1321 33.6968 34.1093 33.6734 35.2959 34.8625C36.8791 36.4464 38.5235 36.4477 40.108 34.8625C41.2667 33.7016 42.2436 33.6693 43.4363 34.862C44.9897 36.4175 46.6392 36.4738 48.2499 34.8625C48.7333 34.3786 49.1153 33.9967 49.9148 33.9967C50.2019 33.9967 50.4342 33.769 50.4342 33.4874C50.4342 33.2059 50.2022 32.9781 49.915 32.9781Z" fill="#A88EC3" stroke="#A88EC3" stroke-width="0.2"/>
<path d="M11.3128 37.6276C11.3128 36.6166 10.4738 35.7939 9.44241 35.7939C8.41464 35.7939 7.57812 36.6165 7.57812 37.6276C7.57812 38.6388 8.41464 39.4613 9.44241 39.4613C10.4737 39.4613 11.3128 38.6388 11.3128 37.6276ZM8.61705 37.6276C8.61705 37.178 8.9874 36.8125 9.44241 36.8125C9.90102 36.8125 10.2739 37.178 10.2739 37.6276C10.2739 38.0772 9.90102 38.4428 9.44241 38.4428C8.9874 38.4428 8.61705 38.0772 8.61705 37.6276Z" fill="#A88EC3" stroke="#A88EC3" stroke-width="0.2"/>
<path d="M19.3401 37.6276C19.3401 36.6166 18.5011 35.7939 17.4698 35.7939C16.442 35.7939 15.6055 36.6165 15.6055 37.6276C15.6055 38.6388 16.442 39.4613 17.4698 39.4613C18.5011 39.4613 19.3401 38.6388 19.3401 37.6276ZM16.6444 37.6276C16.6444 37.178 17.0147 36.8125 17.4698 36.8125C17.9284 36.8125 18.3012 37.178 18.3012 37.6276C18.3012 38.0772 17.9284 38.4428 17.4698 38.4428C17.0147 38.4428 16.6444 38.0772 16.6444 37.6276Z" fill="#A88EC3" stroke="#A88EC3" stroke-width="0.2"/>
<path d="M27.367 37.6276C27.367 36.6166 26.528 35.7939 25.4966 35.7939C24.4688 35.7939 23.6328 36.6165 23.6328 37.6276C23.6328 38.6388 24.4688 39.4613 25.4966 39.4613C26.528 39.4613 27.367 38.6388 27.367 37.6276ZM24.6718 37.6276C24.6718 37.178 25.0417 36.8125 25.4967 36.8125C25.9553 36.8125 26.3281 37.178 26.3281 37.6276C26.3281 38.0772 25.9553 38.4428 25.4967 38.4428C25.0416 38.4428 24.6718 38.0772 24.6718 37.6276Z" fill="#A88EC3" stroke="#A88EC3" stroke-width="0.2"/>
<path d="M33.5259 35.7939C32.4981 35.7939 31.6621 36.6165 31.6621 37.6276C31.6621 38.6388 32.4981 39.4613 33.5259 39.4613C34.5572 39.4613 35.3963 38.6388 35.3963 37.6276C35.3963 36.6166 34.5572 35.7939 33.5259 35.7939ZM33.5259 38.4428C33.0709 38.4428 32.701 38.0772 32.701 37.6276C32.701 37.178 33.0709 36.8125 33.5259 36.8125C33.9845 36.8125 34.3573 37.178 34.3573 37.6276C34.3573 38.0772 33.9845 38.4428 33.5259 38.4428Z" fill="#A88EC3" stroke="#A88EC3" stroke-width="0.2"/>
<path d="M43.4236 37.6276C43.4236 36.6166 42.5846 35.7939 41.5532 35.7939C40.5255 35.7939 39.6895 36.6165 39.6895 37.6276C39.6895 38.6388 40.5255 39.4613 41.5532 39.4613C42.5845 39.4613 43.4236 38.6388 43.4236 37.6276ZM40.7284 37.6276C40.7284 37.178 41.0982 36.8125 41.5532 36.8125C42.0118 36.8125 42.3847 37.178 42.3847 37.6276C42.3847 38.0772 42.0118 38.4428 41.5532 38.4428C41.0982 38.4428 40.7284 38.0772 40.7284 37.6276Z" fill="#A88EC3" stroke="#A88EC3" stroke-width="0.2"/>
<path d="M5.42824 40.4531C4.40047 40.4531 3.56445 41.2757 3.56445 42.2868C3.56445 43.298 4.40047 44.1205 5.42824 44.1205C6.4595 44.1205 7.29861 43.298 7.29861 42.2868C7.29861 41.2757 6.4596 40.4531 5.42824 40.4531ZM5.42824 43.102C4.97323 43.102 4.60338 42.7364 4.60338 42.2868C4.60338 41.8372 4.97323 41.4717 5.42824 41.4717C5.88685 41.4717 6.25968 41.8372 6.25968 42.2868C6.25968 42.7364 5.88685 43.102 5.42824 43.102Z" fill="#A88EC3" stroke="#A88EC3" stroke-width="0.2"/>
<path d="M13.4556 44.1205C14.4874 44.1205 15.3265 43.298 15.3265 42.2868C15.3265 41.2757 14.4874 40.4531 13.4556 40.4531C12.4278 40.4531 11.5918 41.2757 11.5918 42.2868C11.5918 43.298 12.4278 44.1205 13.4556 44.1205ZM13.4556 41.4717C13.9142 41.4717 14.2875 41.8372 14.2875 42.2868C14.2875 42.7364 13.9142 43.102 13.4556 43.102C13.0006 43.102 12.6307 42.7364 12.6307 42.2868C12.6307 41.8372 13.0005 41.4717 13.4556 41.4717Z" fill="#A88EC3" stroke="#A88EC3" stroke-width="0.2"/>
<path d="M23.3538 42.2868C23.3538 41.2758 22.5148 40.4531 21.4829 40.4531C20.4552 40.4531 19.6191 41.2757 19.6191 42.2868C19.6191 43.298 20.4552 44.1205 21.4829 44.1205C22.5147 44.1205 23.3538 43.2979 23.3538 42.2868ZM20.6581 42.2868C20.6581 41.8372 21.0279 41.4717 21.4829 41.4717C21.9415 41.4717 22.3149 41.8372 22.3149 42.2868C22.3149 42.7364 21.9415 43.102 21.4829 43.102C21.0279 43.102 20.6581 42.7364 20.6581 42.2868Z" fill="#A88EC3" stroke="#A88EC3" stroke-width="0.2"/>
<path d="M31.3811 42.2868C31.3811 41.2758 30.5421 40.4531 29.5103 40.4531C28.4825 40.4531 27.6465 41.2757 27.6465 42.2868C27.6465 43.298 28.4825 44.1205 29.5103 44.1205C30.5421 44.1205 31.3811 43.2979 31.3811 42.2868ZM28.6854 42.2868C28.6854 41.8372 29.0553 41.4717 29.5103 41.4717C29.9689 41.4717 30.3422 41.8372 30.3422 42.2868C30.3422 42.7364 29.9689 43.102 29.5103 43.102C29.0553 43.102 28.6854 42.7364 28.6854 42.2868Z" fill="#A88EC3" stroke="#A88EC3" stroke-width="0.2"/>
<path d="M37.5396 44.1205C38.5714 44.1205 39.4104 43.298 39.4104 42.2868C39.4104 41.2757 38.5714 40.4531 37.5396 40.4531C36.5118 40.4531 35.6758 41.2757 35.6758 42.2868C35.6758 43.298 36.5118 44.1205 37.5396 44.1205ZM37.5396 41.4717C37.9982 41.4717 38.3715 41.8372 38.3715 42.2868C38.3715 42.7364 37.9982 43.102 37.5396 43.102C37.0846 43.102 36.7147 42.7364 36.7147 42.2868C36.7147 41.8372 37.0846 41.4717 37.5396 41.4717Z" fill="#A88EC3" stroke="#A88EC3" stroke-width="0.2"/>
<path d="M47.4378 42.2868C47.4378 41.2758 46.5988 40.4531 45.5669 40.4531C44.5391 40.4531 43.7031 41.2757 43.7031 42.2868C43.7031 43.298 44.5391 44.1205 45.5669 44.1205C46.5988 44.1205 47.4378 43.2979 47.4378 42.2868ZM44.7422 42.2868C44.7422 41.8372 45.112 41.4717 45.567 41.4717C46.0256 41.4717 46.399 41.8372 46.399 42.2868C46.399 42.7364 46.0256 43.102 45.567 43.102C45.1119 43.102 44.7422 42.7364 44.7422 42.2868Z" fill="#A88EC3" stroke="#A88EC3" stroke-width="0.2"/>
<path d="M33.8841 9.43135H29.9777L28.0351 6.1335C27.9423 5.97588 27.7709 5.87891 27.5852 5.87891H23.3971C23.2115 5.87891 23.04 5.97588 22.9472 6.1335L21.0051 9.43135H17.116C16.9303 9.43135 16.7589 9.52832 16.666 9.68594L14.5735 13.2389C14.4807 13.3965 14.4807 13.5905 14.5735 13.7481L16.666 17.3011C16.7589 17.4587 16.9303 17.5557 17.116 17.5557H21.0051L22.9472 20.8535C23.04 21.0111 23.2115 21.1081 23.3971 21.1081H27.5852C27.7709 21.1081 27.9423 21.0111 28.0351 20.8535L29.9777 17.5557H33.8841C34.0698 17.5557 34.2412 17.4587 34.334 17.3011L36.4265 13.7481C36.5194 13.5905 36.5194 13.3965 36.4265 13.2389L34.3341 9.68594C34.2413 9.52832 34.0698 9.43135 33.8841 9.43135ZM23.6969 6.89736H27.2854L29.0782 9.94053L27.2854 12.9842H23.6969L21.9046 9.94053L23.6969 6.89736ZM15.623 13.4936L17.4158 10.4499H21.0038L22.7966 13.4936L21.0038 16.5372H17.4158L15.623 13.4936ZM27.2854 20.0897H23.6969L21.9046 17.0466L23.6969 14.0028H27.2854L29.0782 17.0465L27.2854 20.0897ZM33.5844 16.5372H29.9959L28.2036 13.4936L29.9959 10.4499H33.5844L35.3772 13.4936L33.5844 16.5372Z" fill="#A88EC3" stroke="#A88EC3" stroke-width="0.2"/>
</svg>
