<svg width="20" height="18" viewBox="0 0 20 18" fill="none" xmlns="http://www.w3.org/2000/svg">
<path d="M0.970936 3.21408C3.36408 3.21408 4.57678 2.87017 5.75078 2.53591C6.84414 2.22414 7.87945 1.92845 10.0017 1.92845C12.1239 1.92845 13.156 2.22414 14.2526 2.53269C15.4266 2.86696 16.6425 3.21408 19.0324 3.21408C19.5646 3.21408 20 2.78018 20 2.24985C20 1.71953 19.5646 1.28563 19.0324 1.28563C16.9102 1.28563 15.8781 0.989936 14.7815 0.681385C13.6075 0.347121 12.3916 0 10.0017 0C7.61175 0 6.39583 0.343906 5.22183 0.67817C4.12847 0.989936 3.09316 1.28563 0.970936 1.28563C0.438767 1.28563 0.00335693 1.71953 0.00335693 2.24985C0.00335693 2.78018 0.438767 3.21408 0.970936 3.21408Z" fill="#A88EC3"/>
<path d="M9.51782 17.8704C9.97903 18.1372 10.5725 17.9797 10.8402 17.5169C10.9692 17.2951 11.0047 17.0348 10.9369 16.7841C10.8692 16.5366 10.7112 16.3277 10.4854 16.1991C10.3338 16.1123 10.1661 16.0706 10.0016 16.0706C9.66618 16.0706 9.34043 16.2441 9.16304 16.5527C9.03403 16.7744 8.99855 17.0348 9.06628 17.2855C9.13401 17.533 9.29205 17.7419 9.51782 17.8704Z" fill="#A88EC3"/>
<path d="M15.9684 17.8704C16.4296 18.1372 17.023 17.9797 17.2907 17.5169C17.4197 17.2951 17.4552 17.0348 17.3875 16.7841C17.3198 16.5366 17.1617 16.3277 16.936 16.1991C16.7844 16.1123 16.6167 16.0706 16.4522 16.0706C16.1167 16.0706 15.791 16.2441 15.6136 16.5527C15.4846 16.7744 15.4491 17.0348 15.5168 17.2855C15.5846 17.533 15.7426 17.7419 15.9684 17.8704Z" fill="#A88EC3"/>
<path d="M12.743 13.692C13.2042 13.9587 13.7977 13.8013 14.0654 13.3384C14.1944 13.1167 14.2299 12.8563 14.1622 12.6056C14.0944 12.3581 13.9364 12.1492 13.7106 12.0207C13.559 11.9339 13.3913 11.8921 13.2268 11.8921C12.8914 11.8921 12.5656 12.0656 12.3883 12.3742C12.2592 12.596 12.2238 12.8563 12.2915 13.107C12.3592 13.3545 12.5173 13.5634 12.743 13.692Z" fill="#A88EC3"/>
<path d="M6.29247 13.692C6.75369 13.9587 7.34713 13.8013 7.61483 13.3384C7.74384 13.1167 7.77932 12.8563 7.71159 12.6056C7.64386 12.3581 7.48582 12.1492 7.26005 12.0207C7.10847 11.9339 6.94075 11.8921 6.77626 11.8921C6.44084 11.8921 6.11509 12.0656 5.9377 12.3742C5.80869 12.596 5.77321 12.8563 5.84094 13.107C5.90867 13.3545 6.06671 13.5634 6.29247 13.692Z" fill="#A88EC3"/>
<path d="M3.06725 17.8704C3.52847 18.1372 4.12191 17.9765 4.38961 17.5169C4.51862 17.2951 4.5541 17.0348 4.48637 16.7841C4.41864 16.5366 4.2606 16.3277 4.03483 16.1991C3.88325 16.1123 3.71553 16.0706 3.55104 16.0706C3.21562 16.0706 2.88986 16.2441 2.71248 16.5527C2.58346 16.7744 2.54799 17.0348 2.61572 17.2855C2.68345 17.533 2.84149 17.7419 3.06725 17.8704Z" fill="#A88EC3"/>
<path d="M0.970804 9.64217C2.45765 9.64217 3.23494 8.98007 3.85742 8.44653C4.39281 7.99013 4.71533 7.71372 5.48617 7.71372C6.25701 7.71372 6.57954 7.99013 7.11493 8.44653C7.74063 8.98007 8.5147 9.64217 10.0015 9.64217C11.4884 9.64217 12.2657 8.98007 12.8882 8.44653C13.4235 7.99013 13.7461 7.71372 14.5137 7.71372C15.2813 7.71372 15.607 7.99013 16.1424 8.44653C16.7649 8.98007 17.5422 9.64217 19.0291 9.64217C19.5612 9.64217 19.9966 9.20827 19.9966 8.67795C19.9966 8.14762 19.5612 7.71372 19.0291 7.71372C18.2582 7.71372 17.9357 7.43731 17.4003 6.98092C16.7778 6.44738 16.0005 5.78528 14.5137 5.78528C13.0268 5.78528 12.2528 6.44738 11.6271 6.98092C11.0917 7.43731 10.7692 7.71372 9.99832 7.71372C9.22748 7.71372 8.90495 7.43731 8.36956 6.98092C7.74386 6.44738 6.96979 5.78528 5.48295 5.78528C3.9961 5.78528 3.21881 6.44738 2.59634 6.98092C2.06094 7.43731 1.73842 7.71372 0.967579 7.71372C0.435411 7.71372 0 8.14762 0 8.67795C0 9.20827 0.435411 9.64217 0.967579 9.64217H0.970804Z" fill="#A88EC3"/>
</svg>
