<svg width="38" height="36" viewBox="0 0 38 36" fill="none" xmlns="http://www.w3.org/2000/svg">
<path d="M16.7717 1.38197C17.3704 -0.460655 19.9772 -0.460658 20.5759 1.38196L23.6131 10.7295C23.8809 11.5535 24.6488 12.1115 25.5152 12.1115H35.3438C37.2813 12.1115 38.0868 14.5907 36.5194 15.7295L28.5679 21.5066C27.8669 22.0159 27.5736 22.9186 27.8414 23.7426L30.8786 33.0902C31.4773 34.9328 29.3683 36.465 27.8009 35.3262L19.8494 29.5491C19.1484 29.0399 18.1992 29.0399 17.4983 29.5491L9.54678 35.3262C7.97935 36.465 5.87039 34.9328 6.4691 33.0902L9.50629 23.7426C9.77404 22.9186 9.48072 22.0159 8.77975 21.5066L0.82827 15.7295C-0.739157 14.5907 0.0663934 12.1115 2.00384 12.1115H11.8324C12.6989 12.1115 13.4668 11.5535 13.7345 10.7295L16.7717 1.38197Z" fill="#F1C338"/>
</svg>
