<svg width="55" height="57" viewBox="0 0 55 57" fill="none" xmlns="http://www.w3.org/2000/svg">
<path d="M40.7812 7.21387C41.197 7.21387 41.5342 7.55105 41.5342 7.9668C41.534 8.3824 41.1969 8.71973 40.7812 8.71973H39.8252C39.4096 8.71973 39.0724 8.3824 39.0723 7.9668C39.0723 7.55105 39.4094 7.21387 39.8252 7.21387H40.7812Z" fill="#A88EC3" stroke="#A88EC3" stroke-width="0.2"/>
<path d="M53.9785 7.2041C54.3942 7.20413 54.7314 7.5413 54.7314 7.95703C54.7313 8.37262 54.3941 8.70993 53.9785 8.70996H53.0205C52.6048 8.70996 52.2677 8.37264 52.2676 7.95703C52.2676 7.54129 52.6047 7.2041 53.0205 7.2041H53.9785Z" fill="#A88EC3" stroke="#A88EC3" stroke-width="0.2"/>
<path d="M41.29 10.3369C41.6388 10.1789 42.0559 10.3093 42.25 10.6475C42.4578 11.0071 42.3354 11.4678 41.9746 11.6758L41.9727 11.6777C41.594 11.8833 41.3871 12.0187 41.2217 12.1133C41.0575 12.2072 40.9401 12.2559 40.7705 12.2559C40.0017 12.2556 39.7279 11.2341 40.3936 10.8506L41.2217 10.3721L41.29 10.3369Z" fill="#A88EC3" stroke="#A88EC3" stroke-width="0.2"/>
<path d="M52.7129 3.74023C53.0625 3.5823 53.4789 3.7154 53.6729 4.05176C53.8806 4.41165 53.7572 4.87224 53.3975 5.08008L52.5684 5.55859C52.2094 5.76616 51.7482 5.64375 51.54 5.2832C51.3322 4.92335 51.4557 4.46279 51.8154 4.25488L52.6445 3.77637L52.7129 3.74023Z" fill="#A88EC3" stroke="#A88EC3" stroke-width="0.2"/>
<path d="M43.1914 12.8867C43.3992 12.5274 43.8589 12.4027 44.2197 12.6113C44.5796 12.8192 44.703 13.2807 44.4951 13.6406L44.0166 14.4688C43.8774 14.71 43.6245 14.8455 43.3643 14.8457C42.7896 14.8457 42.4222 14.2191 42.7129 13.7158L43.1914 12.8867Z" fill="#A88EC3" stroke="#A88EC3" stroke-width="0.2"/>
<path d="M49.7832 1.46289C49.9908 1.10454 50.4511 0.977339 50.8125 1.1875C51.172 1.39553 51.2956 1.85532 51.0879 2.21582L50.6094 3.04395C50.4011 3.40436 49.94 3.52697 49.5811 3.31934C49.2212 3.11147 49.098 2.65168 49.3057 2.29102L49.7832 1.46289Z" fill="#A88EC3" stroke="#A88EC3" stroke-width="0.2"/>
<path d="M46.8955 13.3301C47.3111 13.3302 47.6484 13.6674 47.6484 14.083V15.0391C47.6484 15.4547 47.3111 15.7918 46.8955 15.792C46.4798 15.792 46.1426 15.4548 46.1426 15.0391V14.083C46.1426 13.6673 46.4798 13.3301 46.8955 13.3301Z" fill="#A88EC3" stroke="#A88EC3" stroke-width="0.2"/>
<path d="M46.8955 0.121094C47.3111 0.121259 47.6484 0.458378 47.6484 0.874023V1.83203C47.6484 2.24765 47.3111 2.5848 46.8955 2.58496C46.4798 2.58496 46.1426 2.24776 46.1426 1.83203V0.874023C46.1426 0.458276 46.4798 0.121094 46.8955 0.121094Z" fill="#A88EC3" stroke="#A88EC3" stroke-width="0.2"/>
<path d="M49.5811 12.6113C49.9426 12.4027 50.4015 12.5274 50.6094 12.8867V12.8877L51.0879 13.7158C51.3794 14.2219 51.009 14.8456 50.4365 14.8457C50.1761 14.8457 49.9225 14.7101 49.7832 14.4688L49.3057 13.6406V13.6396C49.0982 13.2792 49.221 12.8184 49.5811 12.6113Z" fill="#A88EC3" stroke="#A88EC3" stroke-width="0.2"/>
<path d="M43.0566 1.15234C43.406 0.994566 43.8219 1.12486 44.0166 1.46289L44.4951 2.29102C44.7028 2.65068 44.5795 3.11036 44.2188 3.31836L44.2197 3.31934C43.8598 3.52757 43.3973 3.40384 43.1904 3.04395L42.7119 2.21582C42.5043 1.8562 42.6267 1.3955 42.9873 1.1875L43.0566 1.15234Z" fill="#A88EC3" stroke="#A88EC3" stroke-width="0.2"/>
<path d="M51.54 10.6475C51.7468 10.2889 52.2071 10.1621 52.5684 10.3721L53.3975 10.8506C54.0641 11.2357 53.7869 12.2556 53.0205 12.2559C52.8508 12.2559 52.73 12.2049 52.5645 12.1104C52.3973 12.0149 52.1906 11.8792 51.8174 11.6768L51.8154 11.6758C51.4557 11.468 51.3323 11.0073 51.54 10.6475Z" fill="#A88EC3" stroke="#A88EC3" stroke-width="0.2"/>
<path d="M40.1602 3.9873C40.3826 3.67704 40.8084 3.57971 41.1475 3.77637H41.1465L41.9746 4.25488C42.3354 4.46274 42.4584 4.92351 42.251 5.2832C42.1116 5.52572 41.8579 5.66016 41.5977 5.66016C41.4272 5.66016 41.3068 5.61018 41.1416 5.51562C40.9749 5.42024 40.7694 5.28448 40.3965 5.08203L40.3936 5.08008C40.0329 4.87203 39.9105 4.41137 40.1182 4.05176L40.1602 3.9873Z" fill="#A88EC3" stroke="#A88EC3" stroke-width="0.2"/>
<path d="M46.9014 3.6748C49.2667 3.67494 51.1904 5.59952 51.1904 7.96484C51.1903 10.3301 49.2666 12.2538 46.9014 12.2539C44.536 12.2539 42.6115 10.3302 42.6113 7.96484C42.6113 5.59941 44.5359 3.6748 46.9014 3.6748ZM46.9014 5.18066C45.3666 5.18066 44.1172 6.43005 44.1172 7.96484C44.1173 9.49948 45.3666 10.748 46.9014 10.748C48.436 10.7479 49.6844 9.49944 49.6846 7.96484C49.6846 6.4301 48.436 5.1808 46.9014 5.18066Z" fill="#A88EC3" stroke="#A88EC3" stroke-width="0.2"/>
<path d="M12.4209 27.8008C17.042 27.8009 20.8018 31.5595 20.8018 36.1807C20.8016 40.8017 17.0419 44.5604 12.4209 44.5605C7.79975 44.5605 4.04115 40.8018 4.04102 36.1807C4.04102 31.5594 7.79967 27.8008 12.4209 27.8008ZM12.4209 29.3066C8.63031 29.3066 5.54688 32.3901 5.54688 36.1807C5.54701 39.9711 8.6304 43.0547 12.4209 43.0547C16.2113 43.0546 19.2958 39.971 19.2959 36.1807C19.2959 32.3902 16.2114 29.3068 12.4209 29.3066Z" fill="#A88EC3" stroke="#A88EC3" stroke-width="0.2"/>
<path d="M24.6006 45.4639C25.4744 45.3085 26.3918 45.2598 27.333 45.3232L27.332 45.3242C28.7591 45.4182 30.3528 46.0393 31.5439 46.9824C32.7337 47.9245 33.5414 49.2049 33.3486 50.6172V50.6182C33.3419 50.6644 33.3309 50.7096 33.3164 50.7539V50.7549C33.0962 51.4094 32.5553 52.0555 31.8096 52.0557C31.5083 52.0557 31.3618 51.9759 31.1416 51.8721C30.9267 51.7708 30.6202 51.6344 29.9795 51.5C28.2057 51.1257 26.7841 51.6831 25.7002 51.8496L25.7012 51.8506C23.6192 52.2802 22.193 49.9652 23.2861 48.3135C22.6131 47.1759 23.2778 45.6987 24.6006 45.4639ZM27.2324 46.8262C26.4159 46.7739 25.6166 46.8125 24.8633 46.9453C24.5694 46.998 24.4311 47.3331 24.6006 47.5762L24.8545 47.9414V47.9424C25.0768 48.2638 25.0167 48.7022 24.7158 48.9521C24.0638 49.4913 24.564 50.5433 25.3994 50.376H25.4004C26.7707 50.1249 28.2929 49.6092 30.2891 50.0264C31.0013 50.1757 31.4915 50.3705 31.7666 50.499C31.7993 50.4524 31.8354 50.3918 31.8633 50.3301C31.9102 49.736 31.5911 49.1941 31.293 48.8281C30.415 47.7522 28.7429 46.9257 27.2324 46.8262Z" fill="#A88EC3" stroke="#A88EC3" stroke-width="0.2"/>
<path d="M23.252 11.6602C23.4288 11.3208 23.8386 11.1683 24.1982 11.3105L24.7842 11.5508C27.6577 12.7631 29.7265 14.1279 31.459 15.8516C33.3054 17.6886 34.7656 19.9297 36.4121 22.8154C37.3431 24.4471 37.6735 26.422 37.1963 28.3594C37.111 28.7023 36.8041 28.9316 36.4658 28.9316C35.9713 28.9316 35.6181 28.4686 35.7334 27.998L35.7969 27.7129C36.0765 26.2852 35.8181 24.8252 35.1133 23.5791L35.0967 23.5586C33.5545 20.8127 32.161 18.6898 30.4189 16.959C28.678 15.2294 26.5847 13.8869 23.6396 12.709C23.2534 12.5551 23.065 12.1168 23.2197 11.7305L23.252 11.6602Z" fill="#A88EC3" stroke="#A88EC3" stroke-width="0.2"/>
<path d="M22.2754 7.40918C26.4083 6.74358 30.7282 7.97125 35.2031 11.0762H35.2041C35.2395 11.101 35.2721 11.1296 35.3027 11.1602H35.3037C36.7219 12.3232 37.3068 14.3134 36.6719 16.0908C37.8886 16.9207 38.6454 18.3108 38.6455 19.8105C38.6455 20.2263 38.3073 20.5635 37.8916 20.5635C37.4761 20.5632 37.1387 20.2261 37.1387 19.8105C37.1386 18.6271 36.4701 17.5844 35.3926 17.0889C35.019 16.9167 34.8467 16.429 35.0479 16.0547L35.1758 15.7861C35.7433 14.4472 35.2783 13.0897 34.2832 12.2715L33.8936 12.0068C29.8716 9.32863 26.0765 8.29341 22.4561 8.89062C18.7181 9.50723 15.1457 11.8665 11.6895 16C10.2171 17.8549 9.45016 21.4964 10.875 25.4521C11.0073 25.8188 10.8382 26.2215 10.4941 26.3867L10.4229 26.416C10.0287 26.5581 9.59939 26.3529 9.45898 25.9648L9.31641 25.5518C7.91268 21.295 8.75467 17.2805 10.5205 15.0518L10.5225 15.0498C14.2171 10.6297 18.1435 8.0747 22.2754 7.40918Z" fill="#A88EC3" stroke="#A88EC3" stroke-width="0.2"/>
<path d="M22.6758 0.100586C27.7549 0.100586 32.3721 2.92768 34.4346 7.31055V7.31152C34.6107 7.68776 34.4496 8.13607 34.0732 8.31348C33.6922 8.49165 33.2476 8.32641 33.0713 7.95215C31.2591 4.09969 27.1794 1.60645 22.6758 1.60645C16.6683 1.60667 11.7017 6.00687 11.3584 11.6113C11.3338 12.0104 11.0016 12.3183 10.6074 12.3184C10.1665 12.3184 9.82822 11.946 9.85449 11.5186C10.2485 5.11048 15.8839 0.100817 22.6758 0.100586Z" fill="#A88EC3" stroke="#A88EC3" stroke-width="0.2"/>
<path d="M27.3032 40.4392C28.2423 39.5404 30.1036 38.3176 30.1907 38.2548C33.0587 36.5355 33.8928 29.6712 33.9796 28.8754L34.0578 27.9128C34.2448 25.7727 32.9346 23.8426 30.9407 23.323C25.9606 22.0476 21.4277 19.569 18.178 16.3439C17.824 15.9918 17.2019 16.1534 17.0828 16.656C16.4145 19.4551 14.6476 21.5298 13.6553 22.5153C12.0392 24.109 12.6876 26.086 12.6622 26.5014C12.6979 26.8602 13.0202 27.1263 13.3764 27.0864C13.7353 27.0507 13.9971 26.731 13.9614 26.3721L13.867 25.419C13.7973 24.675 14.055 23.9556 14.5736 23.4438C15.5387 22.4855 17.1661 20.5919 18.0462 18.0173C21.3827 21.0392 25.8033 23.3553 30.6133 24.5874C31.9644 24.9394 32.8861 26.3203 32.7569 27.8032L32.6803 28.7512C32.4661 30.6839 31.4814 35.9582 29.5003 37.146C28.6252 37.7159 27.1557 38.7748 26.4036 39.4919C25.0199 40.7978 23.3117 41.0865 21.9889 40.4715C21.6633 40.3227 21.2738 40.4613 21.1216 40.7895C20.9703 41.1168 21.1123 41.5046 21.4396 41.6568C23.257 42.4971 25.5242 42.1159 27.3032 40.4392Z" fill="#A88EC3"/>
<path d="M11.6152 45.0801C12.0673 44.9682 12.5577 45.3281 12.5586 45.8096C12.5585 46.1509 12.3336 46.4381 12.0225 46.5303L12.0234 46.5312C9.177 47.646 5.02032 48.885 4.83691 48.9395C2.89658 49.7046 1.60945 51.5894 1.60938 53.7236V55.543C1.60938 55.9586 1.27205 56.2967 0.856445 56.2969C0.440698 56.2969 0.103516 55.9587 0.103516 55.543V53.7236C0.103587 50.9658 1.76833 48.5301 4.34277 47.5195L4.34863 47.5176C4.45163 47.4848 8.69158 46.2227 11.5254 45.1084L11.6152 45.0801Z" fill="#A88EC3" stroke="#A88EC3" stroke-width="0.2"/>
<path d="M10.6064 53.0654C11.0221 53.0656 11.3594 53.4027 11.3594 53.8184V55.5469C11.3593 55.9624 11.022 56.2996 10.6064 56.2998C10.1908 56.2998 9.85363 55.9625 9.85352 55.5469V53.8184C9.85352 53.4026 10.1907 53.0654 10.6064 53.0654Z" fill="#A88EC3" stroke="#A88EC3" stroke-width="0.2"/>
<path d="M30.3799 39.9971C30.7955 39.9972 31.1328 40.3344 31.1328 40.75C31.1329 42.1774 31.9043 43.5144 33.1465 44.2363L33.3486 44.3477C34.4268 44.9192 36.5089 45.6714 38.3887 46.2998C39.389 46.6342 40.3288 46.9324 41.0225 47.1484L42.1816 47.5039L42.1885 47.5059C44.8148 48.5248 46.4805 50.9583 46.4805 53.7227V55.5469C46.4805 55.9625 46.1431 56.2996 45.7275 56.2998C45.3118 56.2998 44.9736 55.9626 44.9736 55.5469V53.7227C44.9736 51.5849 43.6868 49.7029 41.6943 48.9277C41.5168 48.876 39.7596 48.3511 37.7715 47.6826C35.7515 47.0034 33.4791 46.1717 32.3896 45.5381C30.6858 44.5468 29.6271 42.7133 29.627 40.75C29.627 40.3343 29.9641 39.9971 30.3799 39.9971Z" fill="#A88EC3" stroke="#A88EC3" stroke-width="0.2"/>
<path d="M35.9893 53.0654C36.4049 53.0656 36.7422 53.4027 36.7422 53.8184V55.5469C36.7421 55.9624 36.4048 56.2996 35.9893 56.2998C35.5736 56.2998 35.2364 55.9625 35.2363 55.5469V53.8184C35.2363 53.4026 35.5735 53.0654 35.9893 53.0654Z" fill="#A88EC3" stroke="#A88EC3" stroke-width="0.2"/>
<path d="M21.4569 37.8606C21.712 38.1157 22.1253 38.1157 22.3803 37.8606C22.7774 37.4644 23.2077 37.2909 23.5605 37.2807C24.1702 37.2994 24.637 37.807 24.6557 37.8283C24.8923 38.0991 25.3026 38.1277 25.574 37.8938C25.8478 37.6582 25.8784 37.2458 25.6429 36.9729C25.5587 36.8751 24.79 36.0197 23.6183 35.9764C22.8344 35.9577 22.1227 36.2714 21.4569 36.9372C21.2019 37.1923 21.2019 37.6055 21.4569 37.8606Z" fill="#A88EC3"/>
<path d="M24.0335 34.2381C24.3787 34.1319 24.5718 33.7662 24.4655 33.4219C24.3592 33.0775 23.9919 32.8845 23.6492 32.9899C23.6092 33.0018 23.52 33.0231 23.3695 33.0375C23.3771 32.6889 23.1084 32.3939 22.7581 32.3718C22.3967 32.3267 22.0872 32.6201 22.0651 32.9814C22.0179 33.7224 22.6119 34.3385 23.3457 34.3385C23.3661 34.3385 23.8167 34.3048 24.0335 34.2381Z" fill="#A88EC3"/>
<path d="M30.0803 27.7188C30.7436 27.7188 30.9849 26.8365 30.4102 26.502C30.2229 26.4304 29.0196 25.4214 27.1486 25.8796L25.624 26.2503C25.2729 26.3354 25.0586 26.6882 25.1436 27.0386C25.2278 27.3897 25.5841 27.6048 25.9318 27.519L27.4564 27.1482C28.1238 26.9858 28.8202 27.087 29.4154 27.4331C29.6631 27.5609 29.8115 27.7188 30.0803 27.7188Z" fill="#A88EC3"/>
<path d="M26.4453 29.3053C26.4453 29.6658 26.7378 29.9583 27.0983 29.9583C27.4588 29.9583 27.7513 29.6658 27.7513 29.3053C27.7513 29.1114 28.1025 29.1114 28.1025 29.3053C28.1025 29.6658 28.395 29.9583 28.7555 29.9583C29.116 29.9583 29.4085 29.6658 29.4085 29.3053C29.4085 28.4882 28.7445 27.8232 27.9273 27.8232C27.1102 27.8232 26.4453 28.4882 26.4453 29.3053Z" fill="#A88EC3"/>
<path d="M21.6842 27.0393C21.7693 26.689 21.555 26.3361 21.2038 26.2511L19.6793 25.8804C17.8222 25.4284 16.5768 26.442 16.4176 26.5028C16.1064 26.6839 16.001 27.0844 16.1829 27.3956C16.3624 27.7052 16.7613 27.8132 17.0757 27.6302C17.2468 27.5626 18.0857 26.839 19.3715 27.149L20.896 27.5197C21.2472 27.6081 21.5992 27.3905 21.6842 27.0393Z" fill="#A88EC3"/>
<path d="M14.8759 35.4819L14.7679 35.4504C14.3935 35.3413 14.5101 34.9324 14.1412 34.4173L14.035 34.2702C13.1717 33.0719 11.3879 32.9876 10.4238 34.1367C10.3363 34.2187 10.2421 34.431 9.83287 34.533C8.59395 34.8427 7.9144 36.1552 8.35168 37.0158C8.62462 37.5532 9.19091 37.7292 9.64751 37.8431C9.03059 38.9951 9.86245 40.3863 11.1644 40.3863C11.3766 40.3863 11.5028 40.3498 11.7605 40.3115C12.3335 40.2179 12.8174 39.8455 13.0554 39.3158L13.1081 39.1985C13.1558 39.0922 13.2705 39.0377 13.4032 39.0794C14.1327 39.2954 14.8223 39.178 15.3486 38.7495C16.6023 37.726 16.2484 35.8821 14.8759 35.4819ZM14.5026 37.753C14.3181 37.8941 14.0809 37.9188 13.7909 37.8329C13.0444 37.5889 12.2392 37.9468 11.9161 38.6628L11.8633 38.781C11.7308 39.0752 11.4118 39.0227 11.2324 39.0743C10.8805 39.1398 10.607 38.7306 10.8226 38.4204C10.8766 38.301 11.3526 37.8741 11.1585 37.3125C10.9892 36.8253 10.4833 36.702 10.0769 36.6042C9.90259 36.5617 9.57779 36.4827 9.52422 36.4478C9.52422 36.4478 9.51742 36.3849 9.56333 36.2701C9.68067 36.0346 9.89409 35.8637 10.1925 35.7888C10.9996 35.5893 11.3374 35.0545 11.4246 34.976C11.832 34.4892 12.5995 34.5113 12.9764 35.0346C13.0464 35.1363 13.1006 35.1841 13.1362 35.2838C13.2042 35.4003 13.3641 36.4007 14.4023 36.7037L14.5103 36.7352C14.6752 36.7837 14.796 36.9308 14.8104 37.1025L14.8189 37.2071C14.8198 37.2938 14.7271 37.5838 14.5026 37.753Z" fill="#A88EC3"/>
<path d="M39.6064 25.3125C39.943 25.0664 40.4126 25.1419 40.6592 25.4756L41.6143 26.7793L42.918 25.8252C43.2545 25.5789 43.7241 25.6536 43.9707 25.9873H43.9717C44.2167 26.3225 44.1437 26.7939 43.8086 27.04L43.8066 27.041C42.8654 27.7062 42.3882 28.0853 42.0928 28.3027C41.9469 28.4101 41.8402 28.4815 41.7441 28.5254C41.6432 28.5714 41.5564 28.5859 41.4521 28.5859C41.2168 28.5859 40.9903 28.4755 40.8447 28.2783H40.8438L39.4434 26.3662C39.1983 26.0309 39.2712 25.5586 39.6064 25.3125Z" fill="#A88EC3" stroke="#A88EC3" stroke-width="0.2"/>
<path d="M42.7002 19.3467C43.1117 19.4104 43.3936 19.7943 43.3301 20.2051L42.6396 24.6689V24.6699C42.5816 25.0421 42.2611 25.3075 41.8965 25.3076C41.4338 25.3076 41.0806 24.8958 41.1514 24.4395L41.8418 19.9756C41.8979 19.6141 42.2059 19.3586 42.5508 19.3398L42.7002 19.3467Z" fill="#A88EC3" stroke="#A88EC3" stroke-width="0.2"/>
<path d="M48.0518 25.918C48.3892 25.6708 48.8587 25.7464 49.1045 26.0801L50.0596 27.3857L51.3643 26.4297C51.7016 26.1826 52.1712 26.2582 52.417 26.5918V26.5928C52.6621 26.9281 52.5901 27.3994 52.2549 27.6455L50.3428 29.0459H50.3418C50.0076 29.2896 49.5369 29.2192 49.2891 28.8828L47.8887 26.9707C47.6436 26.6354 47.7165 26.164 48.0518 25.918Z" fill="#A88EC3" stroke="#A88EC3" stroke-width="0.2"/>
<path d="M51.1602 19.9512H51.1611C51.5458 20.0111 51.8178 20.3524 51.7979 20.7334L51.79 20.8105L51.1006 25.2744C51.0427 25.6467 50.7221 25.912 50.3574 25.9121C50.3192 25.9121 50.2795 25.9092 50.2412 25.9033C49.8309 25.8395 49.5488 25.4558 49.6123 25.0449L50.3018 20.5811V20.5801C50.3659 20.1683 50.7595 19.8914 51.1602 19.9512Z" fill="#A88EC3" stroke="#A88EC3" stroke-width="0.2"/>
<path d="M48.7441 39.4932C49.0833 39.3199 49.5066 39.4299 49.7178 39.7568L51.0029 41.748C51.2281 42.097 51.1279 42.5625 50.7783 42.7881L48.7871 44.0723C48.4622 44.2829 48.0314 44.2112 47.792 43.9111L47.7471 43.8486C47.5356 43.5214 47.6106 43.0918 47.9092 42.8535L47.9717 42.8076L49.3281 41.9307L48.4531 40.5723C48.2277 40.2233 48.3272 39.7579 48.6768 39.5322L48.7441 39.4932Z" fill="#A88EC3" stroke="#A88EC3" stroke-width="0.2"/>
<path d="M44.8223 32.9629H44.8232C45.2347 33.0227 45.5195 33.4037 45.46 33.8154L44.5107 40.3809L47.1611 40.8281C47.5718 40.8968 47.848 41.2853 47.7783 41.6953C47.7164 42.0639 47.3979 42.3232 47.0371 42.3232C47.0182 42.3232 46.9852 42.3198 46.9473 42.3145C46.9056 42.3086 46.8482 42.2997 46.7754 42.2881C46.6292 42.2648 46.4172 42.229 46.1348 42.1816C45.5695 42.0868 44.7195 41.9432 43.5361 41.7451C43.1323 41.6774 42.8572 41.2995 42.916 40.8945L43.9697 33.6006C44.0297 33.1878 44.4172 32.9072 44.8223 32.9629Z" fill="#A88EC3" stroke="#A88EC3" stroke-width="0.2"/>
</svg>
