<svg width="20" height="20" viewBox="0 0 20 20" fill="none" xmlns="http://www.w3.org/2000/svg">
<path d="M10 0C4.47748 0 0 4.47671 0 10C0 15.5225 4.47671 20 10 20C15.5233 20 20 15.5233 20 10C19.994 4.47954 15.5202 0.005926 10 0ZM10 4.63774C12.962 4.63774 15.3623 7.03813 15.3623 10C15.3623 12.9619 12.9619 15.3623 10 15.3623C7.03813 15.3623 4.63774 12.9619 4.63774 10C4.64076 7.04009 7.04014 4.64057 10 4.63774ZM10 18.4543C8.02533 18.4564 6.11203 17.7629 4.59626 16.4958L5.6943 15.3977C8.67739 17.776 13.0222 17.2848 15.4006 14.3027C17.7788 11.3196 17.2877 6.97483 14.3056 4.59644C13.289 3.78625 12.0652 3.27899 10.7729 3.13406V1.5801C15.4227 2.00786 18.8446 6.12432 18.4169 10.7731C18.0163 15.1241 14.3679 18.4525 9.99889 18.4535L10 18.4543Z" fill="white"/>
</svg>
