<svg width="21" height="21" viewBox="0 0 21 21" fill="none" xmlns="http://www.w3.org/2000/svg">
<path d="M10.3753 0.00174987C8.52218 0.00120817 6.70277 0.497134 5.10626 1.43795C3.50975 2.37877 2.19445 3.73013 1.29712 5.35148C0.399804 6.97284 -0.0467589 8.80499 0.00387328 10.6574C0.0545055 12.5098 0.600484 14.3148 1.58503 15.8847L1.83178 16.2768L0.783532 20.1022L4.70878 19.0732L5.08678 19.2973C6.68408 20.245 8.50746 20.7444 10.3648 20.7428H10.37C13.1207 20.7432 15.7589 19.651 17.7042 17.7063C19.6496 15.7616 20.7427 13.1238 20.7432 10.3731C20.7436 7.62247 19.6514 4.98428 17.7067 3.03894C15.762 1.0936 13.1242 0.00046417 10.3735 0L10.3753 0.00174987ZM16.4723 14.8243C16.2432 15.2034 15.938 15.5308 15.576 15.7859C15.2139 16.0411 14.8028 16.2183 14.3688 16.3065C13.7137 16.4191 13.0413 16.3771 12.4053 16.184C11.8018 15.9969 11.2088 15.7772 10.629 15.526C8.47606 14.4455 6.64095 12.8239 5.30378 10.8203C4.57407 9.89285 4.13126 8.77244 4.02978 7.59675C4.0217 7.11155 4.1146 6.62996 4.30259 6.18258C4.49058 5.7352 4.76955 5.3318 5.12178 4.998C5.22629 4.87957 5.35398 4.78384 5.49696 4.71671C5.63993 4.64959 5.79516 4.6125 5.95303 4.60775C6.15953 4.60775 6.36778 4.60775 6.54978 4.61825C6.74228 4.627 6.99778 4.54475 7.24978 5.15375C7.51228 5.77675 8.13528 7.3115 8.21228 7.46725C8.26141 7.54901 8.28952 7.64167 8.2941 7.73695C8.29868 7.83222 8.27959 7.92715 8.23853 8.01325C8.16037 8.20065 8.05545 8.37572 7.92703 8.533C7.76953 8.715 7.59978 8.939 7.45978 9.079C7.30228 9.23475 7.14128 9.40275 7.32153 9.71425C7.79042 10.5154 8.37478 11.243 9.05578 11.8738C9.79618 12.5302 10.6446 13.0536 11.5635 13.4208C11.875 13.5782 12.057 13.5503 12.239 13.342C12.421 13.1337 13.0178 12.432 13.226 12.1205C13.4343 11.809 13.6408 11.8615 13.926 11.9648C14.2113 12.068 15.746 12.8223 16.0575 12.9798C16.369 13.1373 16.5773 13.2125 16.6543 13.342C16.7384 13.8433 16.6752 14.3582 16.4723 14.8243Z" fill="#76D700"/>
</svg>
