<svg width="26" height="18" viewBox="0 0 26 18" fill="none" xmlns="http://www.w3.org/2000/svg">
<path d="M25.3906 7.5347C25.7274 7.5347 26 7.80847 26 8.14682C26 8.48517 25.7274 8.75894 25.3906 8.75894C25.1377 8.75894 24.7231 8.72979 24.2142 8.6944C22.5756 8.57884 19.8716 8.38939 18.5096 8.94112C18.0101 9.14307 17.7499 9.49077 17.9821 10.0675C19.1211 12.9062 18.5791 15.0049 17.2731 16.3406C16.1932 17.4462 14.592 18 13 18C11.408 18 9.80676 17.4472 8.72687 16.3406C7.42094 15.005 6.8789 12.9062 8.01794 10.0675C8.24906 9.48973 7.98995 9.14307 7.49038 8.94112C6.1285 8.38938 3.42447 8.57884 1.7858 8.6944C1.27586 8.72979 0.86232 8.75894 0.609435 8.75894C0.272599 8.75894 0 8.48517 0 8.14682C0 7.80847 0.272573 7.5347 0.609435 7.5347C0.850927 7.5347 1.23338 7.50867 1.70495 7.47432C3.44721 7.35148 6.32115 7.15162 7.94338 7.80744C9.11353 8.28109 9.71259 9.11286 9.1467 10.5215C8.22219 12.8273 8.6067 14.4752 9.59341 15.485C10.434 16.3449 11.7129 16.7759 13.0013 16.7759C14.2896 16.7759 15.5686 16.3459 16.4092 15.485C17.3959 14.4752 17.7804 12.8273 16.8559 10.5215C16.291 9.11193 16.888 8.28122 18.0592 7.80744C19.6813 7.15058 22.5552 7.35253 24.2976 7.47432C24.7692 7.50659 25.1517 7.5347 25.3932 7.5347H25.3906ZM7.88307 4.17548C7.64469 3.93604 7.64469 3.54878 7.88307 3.30936C8.12145 3.06992 8.50702 3.06992 8.74539 3.30936L9.90827 4.47737C10.1467 4.7168 10.1467 5.10303 9.90827 5.34349C9.66989 5.58292 9.28536 5.58292 9.04595 5.34349L7.88307 4.17548ZM17.2534 3.30936C17.4918 3.06992 17.8764 3.06992 18.1147 3.30936C18.3531 3.54879 18.3531 3.93502 18.1147 4.17548L16.9518 5.34349C16.7135 5.58292 16.3279 5.58292 16.0895 5.34349C15.8511 5.10406 15.8511 4.71679 16.0895 4.47737L17.2524 3.30936H17.2534ZM12.3894 0.612121C12.3894 0.273801 12.662 0 12.9989 0C13.3357 0 13.6083 0.273774 13.6083 0.612121V3.74242C13.6083 4.08074 13.3357 4.35454 12.9989 4.35454C12.662 4.35454 12.3894 4.08076 12.3894 3.74242V0.612121ZM16.1661 12.3453C16.1661 13.2239 15.8106 14.0192 15.2385 14.5949C14.6653 15.1706 13.8735 15.5266 12.9988 15.5266C12.124 15.5266 11.3322 15.1695 10.759 14.5949C10.1858 14.0192 9.83138 13.2239 9.83138 12.3453C9.83138 11.45 10.1382 10.1175 10.7631 9.14195C11.2834 8.32996 12.0224 7.73971 12.9988 7.73971C13.9751 7.73971 14.7151 8.32996 15.2344 9.14195C15.8593 10.1163 16.1661 11.4488 16.1661 12.3453Z" fill="#A88EC3"/>
</svg>
