<svg width="25" height="29" viewBox="0 0 25 29" fill="none" xmlns="http://www.w3.org/2000/svg">
<path d="M12.2629 0C11.9403 0 11.6789 0.261432 11.6789 0.583946V2.91973C11.6789 3.24224 11.9403 3.50367 12.2629 3.50367C12.5854 3.50367 12.8468 3.24224 12.8468 2.91973V0.583946C12.8468 0.261432 12.5854 0 12.2629 0ZM4.00552 3.42156C3.85603 3.42156 3.70896 3.48087 3.59491 3.59491C3.36688 3.82295 3.36688 4.18803 3.59491 4.41609L5.2464 6.06756C5.47434 6.29559 5.83954 6.29559 6.06754 6.06756C6.29563 5.83953 6.29563 5.47445 6.06754 5.24639L4.41609 3.59491C4.30207 3.48087 4.15489 3.42156 4.00552 3.42156ZM20.5202 3.42156C20.3708 3.42156 20.2237 3.48087 20.1096 3.59491L18.4582 5.24639C18.2301 5.47445 18.2301 5.83953 18.4582 6.06756C18.6862 6.29559 19.0513 6.29559 19.2793 6.06756L20.9308 4.41609C21.1588 4.18803 21.1588 3.82295 20.9308 3.59491C20.8168 3.48087 20.6697 3.42156 20.5202 3.42156ZM12.2629 4.67156C8.40017 4.67156 4.67156 7.67459 4.67156 11.9253C4.67156 14.6059 5.71499 16.3094 6.67888 17.6735C7.64277 19.0375 8.46721 20.0395 8.46721 21.606V25.1097C8.46721 26.1007 9.28891 26.8615 10.219 26.8615H10.511C10.511 27.8219 11.3024 28.6133 12.2629 28.6133C13.2233 28.6133 14.0147 27.8219 14.0147 26.8615H14.3067C15.2368 26.8615 16.0585 26.1007 16.0585 25.1097V21.606C16.0585 20.0395 16.8829 19.0375 17.8468 17.6735C18.8107 16.3094 19.8541 14.6059 19.8541 11.9253C19.8541 7.67459 16.1255 4.67156 12.2629 4.67156ZM12.2629 5.83946C15.5215 5.83946 18.6863 8.3614 18.6863 11.9253C18.6863 14.3144 17.8319 15.6767 16.8979 16.9983C16.0593 18.185 15.1125 19.3596 14.9271 21.022H9.59861C9.41323 19.3596 8.46642 18.185 7.62779 16.9983C6.69386 15.6767 5.83946 14.3144 5.83946 11.9253C5.83946 8.3614 9.00421 5.83946 12.2629 5.83946ZM10.5475 7.03472C10.4675 7.03501 10.386 7.04602 10.3012 7.07122C8.49644 7.75178 7.1517 9.33545 6.80662 11.2774C6.75167 11.5784 6.98008 11.9068 7.28107 11.9618C7.58204 12.0167 7.90131 11.7883 7.95626 11.4873C8.22882 9.95337 9.29805 8.69349 10.7209 8.15699C10.9746 8.06266 11.1423 7.77569 11.095 7.50917C10.9981 7.1578 10.7875 7.03347 10.5475 7.03472ZM0.583946 11.6789C0.261433 11.6789 0 11.9403 0 12.2629C0 12.5854 0.261433 12.8468 0.583946 12.8468H2.91973C3.24224 12.8468 3.50367 12.5854 3.50367 12.2629C3.50367 11.9403 3.24224 11.6789 2.91973 11.6789H0.583946ZM21.606 11.6789C21.2835 11.6789 21.022 11.9403 21.022 12.2629C21.022 12.5854 21.2835 12.8468 21.606 12.8468H23.9418C24.2643 12.8468 24.5257 12.5854 24.5257 12.2629C24.5257 11.9403 24.2643 11.6789 23.9418 11.6789H21.606ZM9.6351 22.1899H14.8906V23.3578H9.6351V22.1899ZM9.6351 24.5257H14.8906V25.1097C14.8906 25.4606 14.6089 25.6936 14.3067 25.6936H10.219C9.91677 25.6936 9.6351 25.4606 9.6351 25.1097V24.5257ZM11.6789 26.8615H12.8468C12.8468 27.1951 12.5965 27.4454 12.2629 27.4454C11.9292 27.4454 11.6789 27.1951 11.6789 26.8615Z" fill="#662D91"/>
</svg>
