<svg width="24" height="24" viewBox="0 0 24 24" fill="none" xmlns="http://www.w3.org/2000/svg">
<path d="M12 0C5.38311 0 0 5.38311 0 12C0 18.6169 5.38311 24 12 24C18.6169 24 24 18.6169 24 12C24 5.38311 18.6169 0 12 0ZM9.28691 11.9871C9.80733 12.1325 10.1119 12.6723 9.96672 13.193L9.54055 14.7215C9.41974 15.1541 9.02657 15.4376 8.59843 15.4376C8.51118 15.4376 8.42282 15.4259 8.33501 15.4016C7.8146 15.2562 7.51007 14.7164 7.6552 14.1957L8.08138 12.6672C8.22651 12.1463 8.76706 11.8428 9.28691 11.9871ZM9.08501 9.92338C9.08501 9.32802 9.56767 8.84508 10.1633 8.84508C10.7589 8.84508 11.2416 9.32774 11.2416 9.92338C11.2416 10.519 10.7589 11.0017 10.1633 11.0017C9.56767 11.0017 9.08501 10.519 9.08501 9.92338ZM22.597 15.4964C22.4072 15.4785 22.2187 15.453 22.1714 15.4488C21.8725 15.4211 21.5749 15.3786 21.2805 15.3199C20.6885 15.2016 20.1096 15.0168 19.5621 14.762C18.5643 14.2975 17.6566 13.6695 17.0568 12.7254C16.0707 11.1731 16.0347 9.24692 14.5741 7.97847C13.8082 7.31348 12.7718 6.96868 11.7567 6.96868C10.528 6.96868 9.07858 7.52013 8.32606 8.53048C7.82327 9.20554 7.47707 9.98042 7.20246 10.7724C6.95246 11.4933 6.80817 12.231 6.41751 12.8909C5.75839 14.0042 4.57159 14.5903 3.36409 14.9203C2.95274 15.0327 2.53468 15.1186 2.11521 15.193C2.04754 15.205 1.66527 15.2891 1.35123 15.3445C1.01874 14.2883 0.838926 13.165 0.838926 12.0003C0.838926 5.84592 5.84564 0.839206 12 0.839206C18.1544 0.839206 23.1611 5.84564 23.1611 12C23.1611 13.2212 22.9611 14.3957 22.597 15.4964Z" fill="#A88EC3"/>
</svg>
