<svg width="33" height="33" viewBox="0 0 33 33" fill="none" xmlns="http://www.w3.org/2000/svg">
<path d="M13.8429 0.00170731C6.20944 0.00170731 0 6.2108 0 13.8438C0 21.4768 6.20944 27.6859 13.8429 27.6859C17.3288 27.6859 20.5174 26.39 22.9524 24.2578L30.7247 32.0296C31.0852 32.3901 31.6692 32.3901 32.0296 32.0296C32.3901 31.6692 32.3901 31.0852 32.0296 30.723L24.2573 22.9511C26.3914 20.5143 27.6838 17.3275 27.6838 13.8421C27.6838 6.2091 21.4744 0 13.841 0L13.8429 0.00170731ZM13.8429 1.84732C20.4796 1.84732 25.84 7.20743 25.84 13.8438C25.84 20.4801 20.4796 25.8403 13.8429 25.8403C7.20613 25.8403 1.84571 20.4801 1.84571 13.8438C1.84571 7.20743 7.20613 1.84732 13.8429 1.84732Z" fill="black"/>
</svg>
