<svg width="20" height="13" viewBox="0 0 20 13" fill="none" xmlns="http://www.w3.org/2000/svg">
<path fill-rule="evenodd" clip-rule="evenodd" d="M1.42279 0H18.577C18.9871 0 19.3582 0.166145 19.618 0.431051C19.6092 0.43659 19.6004 0.443051 19.5926 0.449512L12.2654 6.22412L12.2546 6.23335L10.9705 7.24498C10.7078 7.45266 10.3572 7.55696 10.0056 7.55881C9.65506 7.56065 9.30738 7.46004 9.04958 7.25606L7.75076 6.23243L7.74002 6.22412L0.409049 0.445969C0.401237 0.439508 0.392448 0.43397 0.384635 0.428432C0.644409 0.164441 1.0146 0 1.42279 0ZM19.9697 1.07071L13.081 6.50008L19.9697 11.9295C19.9893 11.8409 20 11.7495 20 11.6553V1.345C20 1.25085 19.9893 1.15933 19.9697 1.07071ZM19.6182 12.5698C19.6094 12.5643 19.6006 12.5578 19.5928 12.5514L12.4981 6.95965L11.4483 7.78761C11.0479 8.10328 10.5264 8.26204 10.0088 8.26481C9.49028 8.26758 8.96978 8.11158 8.5723 7.79867L7.50786 6.95963L0.409134 12.5542C0.401321 12.5606 0.392532 12.5662 0.384719 12.5717C0.644493 12.8348 1.01459 13 1.42377 13H18.578C18.9871 13 19.3584 12.8338 19.6182 12.5698ZM0.0312499 11.9329L6.92472 6.50001L0.0312499 1.06709C0.0107422 1.15663 0 1.24985 0 1.34493V11.6562C0 11.7503 0.0107422 11.8434 0.0312499 11.9329Z" fill="white"/>
</svg>
