<svg width="21" height="15" viewBox="0 0 21 15" fill="none" xmlns="http://www.w3.org/2000/svg">
<path d="M10.2002 0.100586C13.9183 0.100586 16.4572 1.98238 17.9307 3.55664C19.1233 4.83084 19.8217 6.09533 20.1094 6.67969L20.2637 7.0127V7.01367C20.2876 7.07277 20.2997 7.13618 20.2998 7.2002C20.2998 7.26438 20.2877 7.32844 20.2637 7.3877V7.38867C20.2315 7.46652 19.52 9.14668 17.9307 10.8447C16.4571 12.419 13.9174 14.2998 10.2002 14.2998C6.48304 14.2998 3.94672 12.4227 2.46973 10.8447C0.880397 9.14669 0.168907 7.46653 0.136719 7.38867V7.3877C0.112672 7.32845 0.100586 7.26438 0.100586 7.2002C0.100645 7.13618 0.112743 7.07277 0.136719 7.01367V7.0127C0.168313 6.93724 0.879847 5.25527 2.46973 3.55664C3.94323 1.98238 6.48211 0.100586 10.2002 0.100586ZM10.2002 1.03711C7.47085 1.03711 5.0917 2.09668 3.11719 4.19336C2.28621 5.07722 1.58592 6.09159 1.03906 7.2002C1.58486 8.30852 2.28453 9.32196 3.11426 10.2061L3.48926 10.5869C5.38745 12.4311 7.6376 13.3632 10.1963 13.3633C12.9258 13.3633 15.3083 12.3055 17.2793 10.2061L17.3086 10.1748H17.3105C18.1288 9.29839 18.8189 8.29571 19.3594 7.2002C18.8125 6.09197 18.1129 5.07809 17.2822 4.19434C15.3077 2.09764 12.9295 1.03711 10.2002 1.03711ZM10.2002 3.04785C11.2346 3.04911 12.2249 3.48845 12.9541 4.26758C13.6831 5.04649 14.0926 6.10131 14.0938 7.2002L14.083 7.50684C14.0336 8.21887 13.812 8.9076 13.4385 9.50488C13.0115 10.1875 12.4044 10.721 11.6924 11.0361C10.9802 11.3513 10.196 11.4332 9.43945 11.2725C8.68297 11.1117 7.9893 10.715 7.44531 10.1338C6.90141 9.55267 6.53157 8.81305 6.38184 8.00879C6.23217 7.20464 6.30874 6.37114 6.60254 5.61328C6.89642 4.85527 7.3949 4.20609 8.03516 3.74902C8.67543 3.29206 9.42881 3.04785 10.2002 3.04785ZM11.3477 4.22852C10.7996 3.986 10.1965 3.92237 9.61523 4.0459C9.03411 4.16946 8.49953 4.47474 8.0791 4.92383C7.65859 5.3731 7.3713 5.94638 7.25488 6.57129C7.13854 7.19621 7.19778 7.8443 7.42578 8.43262C7.6539 9.02101 8.04028 9.52339 8.53418 9.87598C9.02795 10.2284 9.60775 10.416 10.2002 10.416C10.9945 10.416 11.7575 10.0788 12.3213 9.47656C12.8854 8.87392 13.2041 8.05513 13.2041 7.2002C13.2041 6.56285 13.0271 5.94014 12.6963 5.41113C12.3655 4.88224 11.8956 4.4711 11.3477 4.22852Z" fill="#A88EC3" stroke="#A88EC3" stroke-width="0.2"/>
</svg>
