<svg width="42" height="42" viewBox="0 0 42 42" fill="none" xmlns="http://www.w3.org/2000/svg">
<path fill-rule="evenodd" clip-rule="evenodd" d="M38.1584 0.114835C37.2598 -0.0853436 36.3225 -0.0228603 35.4584 0.294835L3.31342 11.0228L3.30442 11.0258C2.48787 11.3043 1.76017 11.7951 1.19603 12.4478C0.6319 13.1005 0.251678 13.8916 0.0944175 14.7398C-0.0618683 15.5161 -0.0236763 16.319 0.20559 17.0769C0.434856 17.8349 0.848074 18.5243 1.40842 19.0838L9.17242 26.8358L8.91742 36.5948C8.91057 36.8556 8.97186 37.1137 9.09524 37.3436C9.21862 37.5735 9.39983 37.7672 9.62096 37.9056C9.8421 38.0441 10.0955 38.1224 10.3562 38.133C10.6169 38.1436 10.8758 38.0859 11.1074 37.9658L17.1494 34.8398L22.9004 40.5668C23.4827 41.1601 24.2091 41.5921 25.0084 41.8203C25.8077 42.0485 26.6527 42.0653 27.4604 41.8688C28.2697 41.679 29.0168 41.2848 29.6303 40.7239C30.2438 40.1629 30.7031 39.454 30.9644 38.6648V38.6618L41.6894 6.52583C41.9266 5.87443 42.0216 5.17984 41.9682 4.48867C41.9148 3.7975 41.7141 3.12576 41.3797 2.51854C41.0452 1.91132 40.5848 1.38267 40.0292 0.968085C39.4736 0.5535 38.8357 0.262574 38.1584 0.114835Z" fill="#8FBFFA"/>
</svg>
