<svg width="43" height="43" viewBox="0 0 43 43" fill="none" xmlns="http://www.w3.org/2000/svg">
<path fill-rule="evenodd" clip-rule="evenodd" d="M25.9739 24.3195C25.9739 21.8526 23.9686 19.8455 21.5009 19.8455C19.0375 19.8455 17.0278 21.8526 17.0278 24.3195C17.0278 26.7855 19.0375 28.7925 21.5009 28.7925C23.9686 28.7925 25.9739 26.7855 25.9739 24.3195ZM17.9072 24.3195C17.9072 22.3361 19.5202 20.7231 21.5018 20.7231C23.4868 20.7231 25.0963 22.3361 25.0963 24.3195C25.0963 26.3019 23.4868 27.9149 21.5018 27.9149C19.5202 27.9149 17.9072 26.3019 17.9072 24.3195ZM38.296 30.9031C36.8603 29.6358 35.0279 28.9215 33.1253 28.8925C33.1209 28.8925 33.1174 28.8925 33.113 28.8925C30.6207 28.9303 28.3013 30.1317 26.8164 32.129C25.2771 30.9952 23.4201 30.3634 21.5097 30.3344C21.5053 30.3344 21.5018 30.3344 21.4974 30.3344C19.5825 30.3634 17.7255 30.997 16.1862 32.1317C14.697 30.1326 12.3775 28.9303 9.88522 28.8925C9.88083 28.8925 9.87732 28.8925 9.87293 28.8925C7.97034 28.9215 6.13444 29.6358 4.70222 30.9031C3.28318 32.1606 2.35031 33.8754 2.07738 35.7324C1.94925 36.6249 2.31257 37.4612 3.05939 37.9693C5.04009 39.3226 7.98262 39.9386 9.88083 39.9386C10.7058 39.9386 11.7132 39.8149 12.6952 39.5955C12.8848 40.0431 13.2025 40.4362 13.636 40.7302C15.9177 42.2906 19.3139 43.0014 21.5009 43.0014C23.6922 43.0014 27.084 42.2906 29.3701 40.7302C29.7993 40.4362 30.117 40.0439 30.3065 39.5964C31.2885 39.8158 32.2951 39.9386 33.1165 39.9386C35.0147 39.9386 37.9573 39.3226 39.938 37.9693C40.6804 37.4612 41.0481 36.6249 40.92 35.7324C40.6479 33.8754 39.7151 32.1598 38.296 30.9031ZM12.5259 38.2045C12.5013 38.3862 12.4925 38.5643 12.5013 38.7399C11.5807 38.9452 10.6443 39.0611 9.88083 39.0611C8.40737 39.0611 5.50697 38.5775 3.55523 37.2453C3.08484 36.925 2.86632 36.4204 2.94882 35.8596C3.44816 32.4423 6.42755 29.8254 9.88171 29.7701C12.1099 29.8061 14.1819 30.889 15.5061 32.6881C13.8958 34.1299 12.84 36.0869 12.5259 38.2045ZM28.8752 40.0062C26.6014 41.5595 23.2174 42.1238 21.5009 42.1238C19.7843 42.1238 16.4048 41.5595 14.1266 40.0062C13.5693 39.6253 13.2973 38.9996 13.3964 38.3318C13.9826 34.3362 17.4649 31.276 21.5009 31.212C25.5369 31.276 29.0235 34.3362 29.6097 38.3318C29.7045 38.9996 29.4325 39.6253 28.8752 40.0062ZM39.443 37.2453C37.4913 38.5775 34.59 39.0611 33.1174 39.0611C32.3583 39.0611 31.4211 38.9461 30.5013 38.7407C30.5092 38.5652 30.5013 38.3862 30.4768 38.2045C30.167 36.0852 29.1069 34.1273 27.4974 32.6846C28.8181 30.8881 30.8936 29.8061 33.1174 29.7701C36.5716 29.8254 39.551 32.4423 40.0503 35.8596C40.1319 36.4204 39.909 36.925 39.443 37.2453ZM42.8726 19.1014C42.7278 17.7903 41.7089 16.7968 40.3926 16.6854L37.343 16.4274C36.7322 16.3747 36.2205 16.0052 35.9854 15.4392C35.7458 14.8732 35.8406 14.251 36.2328 13.7771L38.189 11.4243C39.0306 10.4098 39.0349 8.98636 38.2056 7.9631C37.228 6.75993 36.1214 5.65945 34.9086 4.69235C33.8765 3.87006 32.4575 3.88937 31.4509 4.73974L29.1113 6.70991C28.6409 7.10833 28.0222 7.20662 27.4526 6.97406C26.8831 6.74151 26.5119 6.23514 26.4539 5.62083L26.1696 2.57651C26.0503 1.26364 25.0472 0.251793 23.7352 0.115768C22.1959 -0.0439513 20.6365 -0.0386858 19.0928 0.13332C17.7843 0.278999 16.79 1.29875 16.6786 2.61336L16.4188 5.6612C16.3697 6.27639 15.9976 6.78451 15.4324 7.02233C14.8672 7.25928 14.2442 7.16538 13.7694 6.77222L11.4175 4.8196C10.4021 3.97712 8.97868 3.9701 7.95542 4.8003C6.75489 5.77792 5.65264 6.88718 4.68731 8.09825C3.86238 9.12853 3.88256 10.5511 4.73294 11.5585L6.70574 13.8947C7.10153 14.3668 7.2007 14.9873 6.96551 15.5559C6.7347 16.1237 6.23097 16.4967 5.61579 16.5546L2.57058 16.8372C1.2586 16.9592 0.243236 17.9605 0.107211 19.2716C0.0492902 19.8297 0.0168198 20.3967 0.00014575 20.9566C-0.00424216 21.2198 0.0905365 21.4682 0.272196 21.6551C0.458243 21.8429 0.701333 21.9465 0.965485 21.9465H6.41263C6.12829 22.4897 5.96243 23.1084 5.96243 23.7648C5.96243 25.9254 7.72022 27.6832 9.88258 27.6832C12.0406 27.6832 13.7984 25.9254 13.7984 23.7648C13.7984 21.8991 12.4899 20.3361 10.7409 19.9421C11.507 14.609 16.0581 10.6362 21.4974 10.6362C26.9401 10.6362 31.4921 14.609 32.2591 19.9421C30.5092 20.3361 29.2017 21.8991 29.2017 23.7648C29.2017 25.9254 30.9594 27.6832 33.1174 27.6832C35.2798 27.6832 37.0376 25.9254 37.0376 23.7648C37.0376 23.1084 36.8726 22.4897 36.5874 21.9465H42.0345C42.2987 21.9465 42.5418 21.8429 42.7278 21.6551C42.9095 21.4682 43.0042 21.2198 42.9999 20.9566C42.9841 20.3387 42.9428 19.7139 42.8726 19.1014ZM12.9225 23.7648C12.9225 25.441 11.557 26.8056 9.88171 26.8056C8.20202 26.8056 6.84089 25.441 6.84089 23.7648C6.84089 22.0878 8.2029 20.7231 9.88171 20.7231C11.5561 20.7231 12.9225 22.0878 12.9225 23.7648ZM33.1174 26.8056C31.4421 26.8056 30.0766 25.441 30.0766 23.7648C30.0766 22.0878 31.4421 20.7231 33.1174 20.7231C34.7971 20.7231 36.1582 22.0878 36.1582 23.7648C36.1582 25.441 34.7971 26.8056 33.1174 26.8056Z" fill="url(#paint0_linear_4_72)"/>
<defs>
<linearGradient id="paint0_linear_4_72" x1="21.4991" y1="43.0014" x2="21.4991" y2="1.53785e-05" gradientUnits="userSpaceOnUse">
<stop stop-color="#7253A2"/>
<stop offset="0.2799" stop-color="#6762AD"/>
<stop offset="0.8188" stop-color="#4B8AC9"/>
<stop offset="1" stop-color="#4099D4"/>
</linearGradient>
</defs>
</svg>
