<svg width="41" height="41" viewBox="0 0 41 41" fill="none" xmlns="http://www.w3.org/2000/svg">
<rect width="41" height="41" fill="black"/>
<g id="Contact Us">
<rect width="1440" height="4688" transform="translate(-95 -1236)" fill="white"/>
<g id="Contact Form">
<rect width="1440" height="910" transform="translate(-95 -281)" fill="white"/>
<g id="whatsapp_1384055 1" clip-path="url(#clip0_0_1)">
<path id="Vector" d="M0.952471 41C0.722247 41 0.498278 40.909 0.332179 40.741C0.113215 40.5195 0.0287576 40.198 0.111025 39.8974L2.77644 30.1641C1.11701 27.1634 0.242091 23.7688 0.243342 20.323C0.248034 9.11671 9.36756 0 20.5729 0C26.0079 0.00218964 31.1147 2.11926 34.9531 5.9605C38.791 9.80206 40.9036 14.9086 40.9021 20.3392C40.8971 31.5458 31.7775 40.6631 20.5729 40.6631C20.5729 40.6631 20.5644 40.6631 20.5641 40.6631C17.2912 40.6619 14.0465 39.8642 11.1574 38.3534L1.17362 40.9715C1.10043 40.9906 1.02598 41 0.952471 41Z" fill="#662D91"/>
<path id="Vector_2" d="M0.953125 40.1276L3.71332 30.0481C2.01072 27.098 1.11516 23.7516 1.11641 20.3233C1.12079 9.59814 9.84868 0.872437 20.5735 0.872437C25.778 0.874626 30.663 2.90035 34.3366 6.57706C38.0099 10.2538 40.0322 15.141 40.0303 20.3389C40.0256 31.0638 31.2965 39.7907 20.5735 39.7907C20.5729 39.7907 20.5738 39.7907 20.5735 39.7907H20.5651C17.3088 39.7895 14.1094 38.9727 11.2676 37.4228L0.953125 40.1276ZM11.7452 33.9015L12.3361 34.2516C14.8185 35.7249 17.6647 36.5041 20.5673 36.5056H20.5735C29.4866 36.5056 36.7412 29.2523 36.7449 20.3377C36.7465 16.0175 35.0661 11.9551 32.0128 8.89933C28.9592 5.84354 24.8993 4.15971 20.5795 4.15783C11.6592 4.15783 4.40493 11.4102 4.40149 20.3245C4.40024 23.3794 5.25482 26.3542 6.8739 28.9286L7.25865 29.5404L5.62456 35.5062L11.7452 33.9015Z" fill="white"/>
<path id="Vector_3" d="M1.62915 39.4485L4.29394 29.7174C2.64983 26.8696 1.78555 23.6387 1.78649 20.3295C1.79056 9.97565 10.2166 1.55212 20.5695 1.55212C25.5944 1.55431 30.3106 3.50997 33.8562 7.05937C37.4028 10.6088 39.3547 15.3268 39.3528 20.3442C39.3484 30.6984 30.9221 39.1228 20.5704 39.1228C20.5695 39.1228 20.5708 39.1228 20.5704 39.1228H20.562C17.4186 39.1216 14.3297 38.3327 11.5864 36.8375L1.62915 39.4485Z" fill="#A88EC3"/>
<g id="Group">
<path id="Vector_4" d="M0.953125 40.1276L3.71332 30.0481C2.01072 27.098 1.11516 23.7516 1.11641 20.3233C1.12079 9.59814 9.84868 0.872437 20.5735 0.872437C25.778 0.874626 30.663 2.90035 34.3366 6.57706C38.0099 10.2538 40.0322 15.141 40.0303 20.3389C40.0256 31.0638 31.2965 39.7907 20.5735 39.7907C20.5729 39.7907 20.5738 39.7907 20.5735 39.7907H20.5651C17.3088 39.7895 14.1094 38.9727 11.2676 37.4228L0.953125 40.1276ZM11.7452 33.9015L12.3361 34.2516C14.8185 35.7249 17.6647 36.5041 20.5673 36.5056H20.5735C29.4866 36.5056 36.7412 29.2523 36.7449 20.3377C36.7465 16.0175 35.0661 11.9551 32.0128 8.89933C28.9592 5.84354 24.8993 4.15971 20.5795 4.15783C11.6592 4.15783 4.40493 11.4102 4.40149 20.3245C4.40024 23.3794 5.25482 26.3542 6.8739 28.9286L7.25865 29.5404L5.62456 35.5062L11.7452 33.9015Z" fill="white"/>
<path id="Vector_5" fill-rule="evenodd" clip-rule="evenodd" d="M15.7115 12.1915C15.3474 11.382 14.9639 11.3657 14.6173 11.3517C14.3339 11.3395 14.0095 11.3401 13.6857 11.3401C13.3617 11.3401 12.8349 11.4621 12.3895 11.9485C11.9437 12.4349 10.6875 13.6111 10.6875 16.0031C10.6875 18.3954 12.4298 20.7067 12.6729 21.0314C12.9159 21.3558 16.0362 26.4214 20.9775 28.3701C25.0844 29.9899 25.9199 29.6677 26.8114 29.5866C27.7029 29.5056 29.6876 28.4105 30.0927 27.2753C30.4981 26.1402 30.4981 25.1673 30.3764 24.9637C30.2547 24.7613 29.9306 24.6396 29.4445 24.3966C28.9585 24.1535 26.5683 22.9771 26.1226 22.815C25.6768 22.6527 25.3527 22.572 25.0287 23.0587C24.7043 23.5448 23.7734 24.6396 23.4897 24.9637C23.206 25.2887 22.9222 25.3294 22.4361 25.086C21.9501 24.8423 20.3841 24.3293 18.5267 22.673C17.0816 21.3846 16.1056 19.793 15.8219 19.3063C15.5385 18.8202 15.8172 18.58 16.0355 18.3144C16.4287 17.8361 17.0884 16.9762 17.2505 16.6522C17.4125 16.3275 17.3315 16.0437 17.2101 15.8004C17.0884 15.5573 16.1434 13.1531 15.7115 12.1915Z" fill="white"/>
</g>
</g>
</g>
</g>
<defs>
<clipPath id="clip0_0_1">
<rect width="41" height="41" fill="white"/>
</clipPath>
</defs>
</svg>
