<svg width="434" height="211" viewBox="0 0 434 211" fill="none" xmlns="http://www.w3.org/2000/svg">
<g id="Group 2085660910">
<g id="Subtract" filter="url(#filter0_ii_0_1)">
<path d="M216.97 11.2544C347.878 11.2545 454.001 117.377 454.001 248.286C454.001 379.194 347.878 485.317 216.97 485.317C86.0612 485.317 -20.0614 379.194 -20.0615 248.286C-20.0615 117.377 86.0611 11.2544 216.97 11.2544ZM216.969 72.2954C119.767 72.2954 40.9688 151.093 40.9687 248.295C40.9687 345.498 119.767 424.295 216.969 424.295C314.171 424.295 392.969 345.498 392.969 248.295C392.969 151.093 314.171 72.2954 216.969 72.2954Z" fill="url(#paint0_linear_0_1)"/>
</g>
<path id="Line 42" d="M215.969 27.4766C215.959 27.7418 216.056 27.9961 216.243 28.1837C216.431 28.3712 216.694 28.4766 216.969 28.4766C217.244 28.4766 217.507 28.3712 217.694 28.1837C217.882 27.9961 217.979 27.7418 217.969 27.4766C217.969 27.4766 217.969 27.4766 217.969 27.4766C217.952 27.0186 217.935 26.5607 217.919 26.1027C217.619 17.8597 217.319 9.61665 217.019 1.37361C217.002 0.915662 216.985 0.457714 216.969 -0.000232966C216.952 0.457714 216.935 0.915662 216.919 1.37361C216.619 9.61665 216.319 17.8597 216.019 26.1027C216.002 26.5607 215.985 27.0186 215.969 27.4766Z" fill="#A88EC3"/>
<path id="Line 45" d="M36.6121 121.936C36.809 122.114 37.066 122.203 37.3303 122.18C37.5944 122.157 37.8442 122.023 38.0209 121.813C38.1977 121.602 38.286 121.333 38.2628 121.069C38.2398 120.804 38.1071 120.567 37.8977 120.404C37.8977 120.404 37.8977 120.404 37.8977 120.404C37.5361 120.122 37.1746 119.841 36.8131 119.559C30.3057 114.49 23.7984 109.422 17.291 104.353C16.9295 104.071 16.568 103.79 16.2064 103.508C16.2064 103.508 16.2064 103.508 16.2064 103.508C16.5465 103.815 16.8866 104.122 17.2267 104.43C23.3484 109.958 29.4701 115.486 35.5918 121.015C35.9319 121.322 36.272 121.629 36.6121 121.936Z" fill="#A88EC3"/>
<path id="Line 46" d="M394.245 121.936C394.048 122.114 393.791 122.203 393.527 122.18C393.263 122.157 393.013 122.023 392.836 121.813C392.66 121.602 392.571 121.333 392.595 121.069C392.618 120.804 392.75 120.567 392.96 120.404C392.96 120.404 392.96 120.404 392.96 120.404C393.321 120.122 393.683 119.841 394.044 119.559C400.552 114.49 407.059 109.422 413.566 104.353C413.928 104.071 414.289 103.79 414.651 103.508C414.311 103.815 413.971 104.122 413.631 104.43C407.509 109.958 401.387 115.486 395.266 121.015C394.926 121.322 394.585 121.629 394.245 121.936Z" fill="#A88EC3"/>
<path id="Line 43" d="M322.748 61.7373C322.61 61.9638 322.569 62.2339 322.638 62.4901C322.706 62.7463 322.879 62.9675 323.114 63.1034C323.35 63.2392 323.628 63.278 323.884 63.2093C324.14 63.1407 324.353 62.9703 324.48 62.7373C324.48 62.7373 324.48 62.7373 324.48 62.7373C324.811 62.1307 325.142 61.524 325.473 60.9174C331.431 49.9977 337.389 39.0781 343.347 28.1584C343.678 27.5517 344.009 26.9451 344.34 26.3384C343.981 26.9284 343.621 27.5184 343.261 28.1084C336.783 38.7281 330.306 49.3477 323.828 59.9674C323.468 60.5574 323.108 61.1474 322.748 61.7373Z" fill="#A88EC3"/>
<path id="Line 44" d="M113.472 61.7373C113.611 61.9638 113.651 62.2339 113.583 62.4901C113.514 62.7463 113.342 62.9675 113.106 63.1034C112.871 63.2392 112.593 63.278 112.337 63.2093C112.081 63.1407 111.867 62.9703 111.74 62.7373C111.74 62.7373 111.74 62.7373 111.74 62.7373C111.409 62.1307 111.078 61.524 110.747 60.9174C104.789 49.9977 98.8313 39.0781 92.8732 28.1584C92.5422 27.5517 92.2112 26.9451 91.8802 26.3384C92.2401 26.9284 92.6 27.5184 92.9598 28.1084C99.4375 38.7281 105.915 49.3477 112.393 59.9674C112.753 60.5574 113.113 61.1474 113.472 61.7373Z" fill="#A88EC3"/>
</g>
<defs>
<filter id="filter0_ii_0_1" x="-20.0615" y="6.25439" width="474.062" height="483.062" filterUnits="userSpaceOnUse" color-interpolation-filters="sRGB">
<feFlood flood-opacity="0" result="BackgroundImageFix"/>
<feBlend mode="normal" in="SourceGraphic" in2="BackgroundImageFix" result="shape"/>
<feColorMatrix in="SourceAlpha" type="matrix" values="0 0 0 0 0 0 0 0 0 0 0 0 0 0 0 0 0 0 127 0" result="hardAlpha"/>
<feOffset dy="4"/>
<feGaussianBlur stdDeviation="5"/>
<feComposite in2="hardAlpha" operator="arithmetic" k2="-1" k3="1"/>
<feColorMatrix type="matrix" values="0 0 0 0 1 0 0 0 0 1 0 0 0 0 1 0 0 0 1 0"/>
<feBlend mode="normal" in2="shape" result="effect1_innerShadow_0_1"/>
<feColorMatrix in="SourceAlpha" type="matrix" values="0 0 0 0 0 0 0 0 0 0 0 0 0 0 0 0 0 0 127 0" result="hardAlpha"/>
<feOffset dy="-5"/>
<feGaussianBlur stdDeviation="5"/>
<feComposite in2="hardAlpha" operator="arithmetic" k2="-1" k3="1"/>
<feColorMatrix type="matrix" values="0 0 0 0 1 0 0 0 0 1 0 0 0 0 1 0 0 0 0.5 0"/>
<feBlend mode="normal" in2="effect1_innerShadow_0_1" result="effect2_innerShadow_0_1"/>
</filter>
<linearGradient id="paint0_linear_0_1" x1="-20.0615" y1="194.664" x2="454.001" y2="194.664" gradientUnits="userSpaceOnUse">
<stop stop-color="#FFF3DA"/>
<stop offset="0.5" stop-color="#E7CFFF"/>
<stop offset="1" stop-color="#FFF3DA"/>
</linearGradient>
</defs>
</svg>
